G04 #@! TF.GenerationSoftware,KiCad,Pcbnew,(5.0.0)*
G04 #@! TF.CreationDate,2019-03-11T00:05:50-04:00*
G04 #@! TF.ProjectId,control board power,636F6E74726F6C20626F61726420706F,rev?*
G04 #@! TF.SameCoordinates,Original*
G04 #@! TF.FileFunction,Copper,L2,Bot,Signal*
G04 #@! TF.FilePolarity,Positive*
%FSLAX46Y46*%
G04 Gerber Fmt 4.6, Leading zero omitted, Abs format (unit mm)*
G04 Created by KiCad (PCBNEW (5.0.0)) date 03/11/19 00:05:50*
%MOMM*%
%LPD*%
G01*
G04 APERTURE LIST*
G04 #@! TA.AperFunction,NonConductor*
%ADD10C,0.300000*%
G04 #@! TD*
G04 #@! TA.AperFunction,ComponentPad*
%ADD11C,6.400000*%
G04 #@! TD*
G04 #@! TA.AperFunction,ComponentPad*
%ADD12O,1.700000X1.700000*%
G04 #@! TD*
G04 #@! TA.AperFunction,ComponentPad*
%ADD13R,1.700000X1.700000*%
G04 #@! TD*
G04 #@! TA.AperFunction,ComponentPad*
%ADD14O,2.250000X4.500000*%
G04 #@! TD*
G04 #@! TA.AperFunction,ComponentPad*
%ADD15O,4.500000X2.250000*%
G04 #@! TD*
G04 #@! TA.AperFunction,ComponentPad*
%ADD16O,5.000000X2.500000*%
G04 #@! TD*
G04 #@! TA.AperFunction,ComponentPad*
%ADD17O,2.700000X3.300000*%
G04 #@! TD*
G04 #@! TA.AperFunction,ComponentPad*
%ADD18R,2.700000X3.300000*%
G04 #@! TD*
G04 #@! TA.AperFunction,ComponentPad*
%ADD19C,3.200000*%
G04 #@! TD*
G04 #@! TA.AperFunction,SMDPad,CuDef*
%ADD20R,3.600000X2.600000*%
G04 #@! TD*
G04 #@! TA.AperFunction,ComponentPad*
%ADD21C,1.524000*%
G04 #@! TD*
G04 #@! TA.AperFunction,SMDPad,CuDef*
%ADD22R,2.600000X3.600000*%
G04 #@! TD*
G04 #@! TA.AperFunction,ComponentPad*
%ADD23O,3.300000X2.700000*%
G04 #@! TD*
G04 #@! TA.AperFunction,ComponentPad*
%ADD24R,3.300000X2.700000*%
G04 #@! TD*
G04 #@! TA.AperFunction,ComponentPad*
%ADD25R,2.400000X2.400000*%
G04 #@! TD*
G04 #@! TA.AperFunction,ComponentPad*
%ADD26C,2.400000*%
G04 #@! TD*
G04 #@! TA.AperFunction,ComponentPad*
%ADD27R,1.350000X1.350000*%
G04 #@! TD*
G04 #@! TA.AperFunction,ComponentPad*
%ADD28C,1.350000*%
G04 #@! TD*
G04 #@! TA.AperFunction,ComponentPad*
%ADD29R,2.100000X2.100000*%
G04 #@! TD*
G04 #@! TA.AperFunction,ComponentPad*
%ADD30C,2.100000*%
G04 #@! TD*
G04 #@! TA.AperFunction,ViaPad*
%ADD31C,2.000000*%
G04 #@! TD*
G04 #@! TA.AperFunction,ViaPad*
%ADD32C,0.800000*%
G04 #@! TD*
G04 #@! TA.AperFunction,ViaPad*
%ADD33C,1.200000*%
G04 #@! TD*
G04 #@! TA.AperFunction,ViaPad*
%ADD34C,1.600000*%
G04 #@! TD*
G04 #@! TA.AperFunction,Conductor*
%ADD35C,0.250000*%
G04 #@! TD*
G04 #@! TA.AperFunction,Conductor*
%ADD36C,2.000000*%
G04 #@! TD*
G04 #@! TA.AperFunction,Conductor*
%ADD37C,0.500000*%
G04 #@! TD*
G04 #@! TA.AperFunction,Conductor*
%ADD38C,2.500000*%
G04 #@! TD*
G04 #@! TA.AperFunction,Conductor*
%ADD39C,0.254000*%
G04 #@! TD*
G04 APERTURE END LIST*
D10*
X135996857Y-160317571D02*
X136496857Y-159603285D01*
X136854000Y-160317571D02*
X136854000Y-158817571D01*
X136282571Y-158817571D01*
X136139714Y-158889000D01*
X136068285Y-158960428D01*
X135996857Y-159103285D01*
X135996857Y-159317571D01*
X136068285Y-159460428D01*
X136139714Y-159531857D01*
X136282571Y-159603285D01*
X136854000Y-159603285D01*
X134782571Y-160246142D02*
X134925428Y-160317571D01*
X135211142Y-160317571D01*
X135354000Y-160246142D01*
X135425428Y-160103285D01*
X135425428Y-159531857D01*
X135354000Y-159389000D01*
X135211142Y-159317571D01*
X134925428Y-159317571D01*
X134782571Y-159389000D01*
X134711142Y-159531857D01*
X134711142Y-159674714D01*
X135425428Y-159817571D01*
X134211142Y-159317571D02*
X133854000Y-160317571D01*
X133496857Y-159317571D01*
X132925428Y-160174714D02*
X132854000Y-160246142D01*
X132925428Y-160317571D01*
X132996857Y-160246142D01*
X132925428Y-160174714D01*
X132925428Y-160317571D01*
X130282571Y-160317571D02*
X131139714Y-160317571D01*
X130711142Y-160317571D02*
X130711142Y-158817571D01*
X130854000Y-159031857D01*
X130996857Y-159174714D01*
X131139714Y-159246142D01*
D11*
G04 #@! TO.P,REF\002A\002A,1*
G04 #@! TO.N,N/C*
X60960000Y-138938000D03*
G04 #@! TD*
G04 #@! TO.P,REF\002A\002A,1*
G04 #@! TO.N,N/C*
X143510000Y-62738000D03*
G04 #@! TD*
G04 #@! TO.P,REF\002A\002A,1*
G04 #@! TO.N,N/C*
X60960000Y-62738000D03*
G04 #@! TD*
G04 #@! TO.P,REF\002A\002A,1*
G04 #@! TO.N,N/C*
X143510000Y-138938000D03*
G04 #@! TD*
D12*
G04 #@! TO.P,J2,2*
G04 #@! TO.N,GND*
X64008000Y-84201000D03*
D13*
G04 #@! TO.P,J2,1*
G04 #@! TO.N,+5V*
X66548000Y-84201000D03*
G04 #@! TD*
D14*
G04 #@! TO.P,J3,3*
G04 #@! TO.N,N/C*
X100075000Y-48181000D03*
D15*
G04 #@! TO.P,J3,2*
G04 #@! TO.N,GND*
X104775000Y-45181000D03*
D16*
G04 #@! TO.P,J3,1*
G04 #@! TO.N,+48V*
X104775000Y-51181000D03*
G04 #@! TD*
D17*
G04 #@! TO.P,J6,8*
G04 #@! TO.N,+48V*
X41565500Y-121246000D03*
G04 #@! TO.P,J6,7*
G04 #@! TO.N,+24V*
X45765500Y-121246000D03*
G04 #@! TO.P,J6,6*
G04 #@! TO.N,+5V*
X49965500Y-121246000D03*
G04 #@! TO.P,J6,5*
G04 #@! TO.N,+3V3*
X54165500Y-121246000D03*
G04 #@! TO.P,J6,4*
G04 #@! TO.N,GND*
X41565500Y-126746000D03*
G04 #@! TO.P,J6,3*
X45765500Y-126746000D03*
G04 #@! TO.P,J6,2*
X49965500Y-126746000D03*
D18*
G04 #@! TO.P,J6,1*
X54165500Y-126746000D03*
G04 #@! TD*
D19*
G04 #@! TO.P,L1,2*
G04 #@! TO.N,+5V*
X72486000Y-68580000D03*
G04 #@! TO.P,L1,1*
G04 #@! TO.N,Net-(C6-Pad2)*
X78486000Y-68580000D03*
G04 #@! TD*
G04 #@! TO.P,L2,2*
G04 #@! TO.N,+5V*
X82519000Y-122428000D03*
G04 #@! TO.P,L2,1*
G04 #@! TO.N,Net-(C8-Pad2)*
X88519000Y-122428000D03*
G04 #@! TD*
D20*
G04 #@! TO.P,U2,37*
G04 #@! TO.N,GND*
X90932000Y-60579000D03*
D21*
X90932000Y-60579000D03*
G04 #@! TD*
D22*
G04 #@! TO.P,U3,37*
G04 #@! TO.N,GND*
X99822000Y-121666000D03*
D21*
X99822000Y-121666000D03*
G04 #@! TD*
D17*
G04 #@! TO.P,J10,2*
G04 #@! TO.N,+48V*
X106045000Y-63793000D03*
D18*
G04 #@! TO.P,J10,1*
X106045000Y-58293000D03*
G04 #@! TD*
D17*
G04 #@! TO.P,J4,2*
G04 #@! TO.N,Net-(D9-Pad2)*
X124206000Y-76923000D03*
D18*
G04 #@! TO.P,J4,1*
G04 #@! TO.N,/SWITCH_A_HIGH*
X124206000Y-82423000D03*
G04 #@! TD*
D17*
G04 #@! TO.P,J17,2*
G04 #@! TO.N,Net-(D10-Pad2)*
X141351000Y-76923000D03*
D18*
G04 #@! TO.P,J17,1*
G04 #@! TO.N,/SWITCH_B_HIGH*
X141351000Y-82423000D03*
G04 #@! TD*
D23*
G04 #@! TO.P,J1,2*
G04 #@! TO.N,+24V*
X156376000Y-121666000D03*
D24*
G04 #@! TO.P,J1,1*
X150876000Y-121666000D03*
G04 #@! TD*
D17*
G04 #@! TO.P,J9,4*
G04 #@! TO.N,+5V*
X42808000Y-82462000D03*
G04 #@! TO.P,J9,3*
G04 #@! TO.N,+3V3*
X38608000Y-82462000D03*
G04 #@! TO.P,J9,2*
G04 #@! TO.N,GND*
X42808000Y-76962000D03*
D18*
G04 #@! TO.P,J9,1*
X38608000Y-76962000D03*
G04 #@! TD*
D17*
G04 #@! TO.P,J11,4*
G04 #@! TO.N,+5V*
X53984000Y-82462000D03*
G04 #@! TO.P,J11,3*
G04 #@! TO.N,+3V3*
X49784000Y-82462000D03*
G04 #@! TO.P,J11,2*
G04 #@! TO.N,GND*
X53984000Y-76962000D03*
D18*
G04 #@! TO.P,J11,1*
X49784000Y-76962000D03*
G04 #@! TD*
D25*
G04 #@! TO.P,C14,1*
G04 #@! TO.N,+5V*
X81470500Y-83502500D03*
D26*
G04 #@! TO.P,C14,2*
G04 #@! TO.N,GND*
X88970500Y-83502500D03*
G04 #@! TD*
G04 #@! TO.P,C25,2*
G04 #@! TO.N,GND*
X88716500Y-140208000D03*
D25*
G04 #@! TO.P,C25,1*
G04 #@! TO.N,+3V3*
X81216500Y-140208000D03*
G04 #@! TD*
G04 #@! TO.P,C26,1*
G04 #@! TO.N,+24V*
X127825500Y-130238500D03*
D26*
G04 #@! TO.P,C26,2*
G04 #@! TO.N,GND*
X120325500Y-130238500D03*
G04 #@! TD*
G04 #@! TO.P,C27,2*
G04 #@! TO.N,GND*
X89535000Y-37204000D03*
D25*
G04 #@! TO.P,C27,1*
G04 #@! TO.N,+48V*
X89535000Y-44704000D03*
G04 #@! TD*
D27*
G04 #@! TO.P,J5,1*
G04 #@! TO.N,/SWITCH_A*
X120523000Y-51054000D03*
D28*
G04 #@! TO.P,J5,2*
G04 #@! TO.N,/SWITCH_B*
X122523000Y-51054000D03*
G04 #@! TO.P,J5,3*
G04 #@! TO.N,GND*
X124523000Y-51054000D03*
G04 #@! TD*
D29*
G04 #@! TO.P,J12,1*
G04 #@! TO.N,+5V*
X58857501Y-48860001D03*
D30*
G04 #@! TO.P,J12,2*
G04 #@! TO.N,GND*
X61397501Y-48860001D03*
G04 #@! TO.P,J12,3*
G04 #@! TO.N,+5V*
X63937501Y-48860001D03*
G04 #@! TO.P,J12,4*
G04 #@! TO.N,GND*
X66477501Y-48860001D03*
G04 #@! TD*
G04 #@! TO.P,J13,4*
G04 #@! TO.N,GND*
X78157501Y-48860001D03*
G04 #@! TO.P,J13,3*
G04 #@! TO.N,+5V*
X75617501Y-48860001D03*
G04 #@! TO.P,J13,2*
G04 #@! TO.N,GND*
X73077501Y-48860001D03*
D29*
G04 #@! TO.P,J13,1*
G04 #@! TO.N,+5V*
X70537501Y-48860001D03*
G04 #@! TD*
D31*
G04 #@! TO.N,GND*
X102235000Y-141986000D03*
X98806000Y-141986000D03*
X98806000Y-139446000D03*
X102235000Y-139446000D03*
X88773000Y-108839000D03*
X86233000Y-106553000D03*
X88773000Y-106553000D03*
X86233000Y-109982000D03*
X88773000Y-111125000D03*
X88773000Y-113411000D03*
X86233000Y-113411000D03*
D32*
X100838000Y-123142000D03*
X100838000Y-120142000D03*
X98806000Y-121142000D03*
X98806000Y-122142000D03*
X99822000Y-120142000D03*
X98806000Y-123142000D03*
X99822000Y-123142000D03*
X100838000Y-122174000D03*
X100838000Y-121158000D03*
X98806000Y-120142000D03*
X89408000Y-61595000D03*
X53594000Y-99949000D03*
X52641500Y-99949000D03*
X96012000Y-58547000D03*
X101778147Y-126440853D03*
X102743000Y-125730000D03*
X89408000Y-60579000D03*
X89408000Y-59563000D03*
X90408000Y-61595000D03*
X90424000Y-59563000D03*
X91408000Y-61595000D03*
X91440000Y-59563000D03*
X92408000Y-61595000D03*
X92408000Y-60579000D03*
X92408000Y-59563000D03*
X86106000Y-58039000D03*
X104140000Y-121158000D03*
X101854000Y-116840000D03*
X96266000Y-118364000D03*
D31*
X131445000Y-58928000D03*
X96012000Y-69850000D03*
X96012000Y-72136000D03*
X96012000Y-74422000D03*
X60579000Y-69850000D03*
X60579000Y-72136000D03*
X60579000Y-74422000D03*
X60579000Y-76708000D03*
X60579000Y-78994000D03*
X123698000Y-87884000D03*
X139573000Y-88519000D03*
D32*
X91567000Y-56642000D03*
X56388000Y-100457000D03*
X52197000Y-103886000D03*
D31*
X115697000Y-58547000D03*
D32*
X121666000Y-55880000D03*
X112395000Y-55880000D03*
X102743000Y-110580000D03*
D33*
X92329000Y-127762000D03*
D32*
X67310000Y-156845000D03*
X67310000Y-153606500D03*
X67310000Y-150304500D03*
X67310000Y-147320000D03*
X74295000Y-59182000D03*
X81407000Y-57912000D03*
X81788000Y-56769000D03*
X85090000Y-54864000D03*
X93345000Y-54737000D03*
D34*
X99060000Y-66675000D03*
D32*
X112776000Y-42100500D03*
X112776000Y-36385500D03*
G04 #@! TO.N,+3V3*
X47285500Y-99016000D03*
X46184000Y-99016000D03*
X47285500Y-98116000D03*
X46184000Y-98116000D03*
X47285500Y-96316000D03*
X46184000Y-96316000D03*
D31*
X50038000Y-91948000D03*
X50038000Y-85598000D03*
D32*
X46184000Y-97205000D03*
X47285500Y-97205000D03*
D31*
X61531500Y-106108500D03*
X61531500Y-115379500D03*
D32*
X57467500Y-133032500D03*
X57467500Y-129349500D03*
G04 #@! TO.N,+5V*
X102743000Y-115824000D03*
X98679000Y-115824000D03*
X95771998Y-119292479D03*
X93091000Y-118745000D03*
X51816000Y-133096000D03*
X51816000Y-129349500D03*
G04 #@! TO.N,+24V*
X47815500Y-133032500D03*
X47815500Y-129349500D03*
D31*
X56578500Y-117729000D03*
D32*
G04 #@! TO.N,Net-(C5-Pad1)*
X89983182Y-64290182D03*
X84836000Y-58166000D03*
G04 #@! TO.N,Net-(C7-Pad1)*
X98171000Y-110236000D03*
X100325347Y-110240653D03*
G04 #@! TO.N,Net-(C10-Pad2)*
X86360000Y-63754000D03*
X86360000Y-72390000D03*
X83947000Y-60960000D03*
G04 #@! TO.N,Net-(U2-Pad15)*
X85471000Y-62992000D03*
X85471000Y-74422000D03*
G04 #@! TO.N,Net-(U2-Pad12)*
X84455000Y-63754000D03*
X84455000Y-72390000D03*
D31*
G04 #@! TO.N,+48V*
X72771000Y-130302000D03*
X61468000Y-130302000D03*
D32*
G04 #@! TO.N,Net-(D9-Pad2)*
X115218000Y-67437000D03*
X113518000Y-67437000D03*
X113518000Y-64037000D03*
X116918000Y-62337000D03*
X115218000Y-62337000D03*
X113518000Y-62337000D03*
X113518000Y-65737000D03*
X116918000Y-65737000D03*
X115218000Y-65737000D03*
X118618000Y-64037000D03*
X116918000Y-64037000D03*
X115218000Y-64037000D03*
X116918000Y-67437000D03*
X118618000Y-65737000D03*
X118618000Y-62337000D03*
X118618000Y-67437000D03*
G04 #@! TO.N,Net-(D10-Pad2)*
X131093000Y-67691000D03*
X129393000Y-67691000D03*
X129393000Y-64291000D03*
X132793000Y-62591000D03*
X131093000Y-62591000D03*
X129393000Y-62591000D03*
X129393000Y-65991000D03*
X132793000Y-65991000D03*
X131093000Y-65991000D03*
X134493000Y-64291000D03*
X132793000Y-64291000D03*
X131093000Y-64291000D03*
X132793000Y-67691000D03*
X134493000Y-65991000D03*
X134493000Y-62591000D03*
X134493000Y-67691000D03*
G04 #@! TD*
D35*
G04 #@! TO.N,GND*
X101778147Y-126440853D02*
X101829294Y-126492000D01*
X104775000Y-45181000D02*
X104775000Y-43806000D01*
D36*
G04 #@! TO.N,+3V3*
X50038000Y-91948000D02*
X50038000Y-85598000D01*
X61531500Y-115379500D02*
X61531500Y-106235500D01*
D37*
X57467500Y-133032500D02*
X57467500Y-129349500D01*
D36*
X61531500Y-116793713D02*
X62103000Y-117365213D01*
X61531500Y-115379500D02*
X61531500Y-116793713D01*
X62103000Y-117365213D02*
X62103000Y-123698000D01*
X62103000Y-123698000D02*
X60896500Y-124904500D01*
X60896500Y-124904500D02*
X57721500Y-124904500D01*
X57721500Y-124904500D02*
X54229000Y-121412000D01*
D35*
G04 #@! TO.N,+5V*
X102743000Y-115824000D02*
X98679000Y-115824000D01*
X95771998Y-119292479D02*
X93638479Y-119292479D01*
X93638479Y-119292479D02*
X93599000Y-119253000D01*
X93091000Y-118745000D02*
X93490999Y-119144999D01*
X93490999Y-119144999D02*
X93599000Y-119253000D01*
D37*
X51816000Y-133096000D02*
X51816000Y-129349500D01*
D38*
G04 #@! TO.N,+24V*
X54292500Y-117729000D02*
X52878287Y-117729000D01*
X52878287Y-117729000D02*
X47244000Y-117729000D01*
X47244000Y-117729000D02*
X45783500Y-119189500D01*
X45783500Y-119189500D02*
X45783500Y-121412000D01*
D37*
X47815500Y-133032500D02*
X47815500Y-129349500D01*
D38*
X54292500Y-117729000D02*
X56578500Y-117729000D01*
D35*
G04 #@! TO.N,Net-(C5-Pad1)*
X89583183Y-64690181D02*
X88566181Y-64690181D01*
X89983182Y-64290182D02*
X89583183Y-64690181D01*
X88566181Y-64690181D02*
X86868000Y-62992000D01*
X86868000Y-60139588D02*
X86810009Y-60081597D01*
X86868000Y-62992000D02*
X86868000Y-60139588D01*
X86810009Y-60081597D02*
X86135206Y-59406794D01*
X86135206Y-59406794D02*
X86076794Y-59406794D01*
X86076794Y-59406794D02*
X84836000Y-58166000D01*
G04 #@! TO.N,Net-(C7-Pad1)*
X98171000Y-110236000D02*
X100320694Y-110236000D01*
X100320694Y-110236000D02*
X100325347Y-110240653D01*
G04 #@! TO.N,Net-(C10-Pad2)*
X86360000Y-63754000D02*
X86360000Y-72390000D01*
X84346999Y-61359999D02*
X85489999Y-61359999D01*
X83947000Y-60960000D02*
X84346999Y-61359999D01*
X85489999Y-61359999D02*
X86360000Y-62230000D01*
X86360000Y-62230000D02*
X86360000Y-63627000D01*
G04 #@! TO.N,Net-(U2-Pad15)*
X85471000Y-62992000D02*
X85471000Y-63557685D01*
X85471000Y-63557685D02*
X85471000Y-72136000D01*
X85471000Y-72136000D02*
X85471000Y-74422000D01*
G04 #@! TO.N,Net-(U2-Pad12)*
X84455000Y-63754000D02*
X84455000Y-64319685D01*
X84455000Y-64319685D02*
X84455000Y-72009000D01*
X84455000Y-72009000D02*
X84455000Y-72390000D01*
D36*
G04 #@! TO.N,+48V*
X72771000Y-130302000D02*
X61468000Y-130302000D01*
G04 #@! TD*
D39*
G04 #@! TO.N,GND*
G36*
X103636186Y-29465432D02*
X106940896Y-29632842D01*
X110234609Y-29949990D01*
X113510546Y-30416225D01*
X116761960Y-31030586D01*
X119982158Y-31791809D01*
X123164510Y-32698325D01*
X126302463Y-33748270D01*
X129389557Y-34939480D01*
X132419437Y-36269505D01*
X135385863Y-37735604D01*
X138282730Y-39334760D01*
X141104071Y-41063680D01*
X143844079Y-42918805D01*
X146497113Y-44896316D01*
X149057710Y-46992140D01*
X151520598Y-49201963D01*
X153880706Y-51521235D01*
X156133176Y-53945181D01*
X158273369Y-56468810D01*
X160296880Y-59086928D01*
X162199542Y-61794142D01*
X163977439Y-64584880D01*
X165626908Y-67453396D01*
X167144556Y-70393784D01*
X168527256Y-73399990D01*
X169772162Y-76465825D01*
X170876712Y-79584976D01*
X171838630Y-82751022D01*
X172655937Y-85957444D01*
X173326950Y-89197641D01*
X173850286Y-92464942D01*
X174224870Y-95752619D01*
X174449929Y-99053904D01*
X174525000Y-102362000D01*
X174509006Y-103889226D01*
X174364672Y-107195024D01*
X174070526Y-110490872D01*
X173627172Y-113769983D01*
X173035525Y-117025607D01*
X172296802Y-120251041D01*
X171412524Y-123439644D01*
X170384512Y-126584851D01*
X169214883Y-129680186D01*
X167906043Y-132719277D01*
X166460689Y-135695866D01*
X164881796Y-138603826D01*
X163172614Y-141437169D01*
X161336663Y-144190062D01*
X159377722Y-146856836D01*
X157299825Y-149432002D01*
X155107250Y-151910257D01*
X152804511Y-154286499D01*
X150396349Y-156555836D01*
X147887723Y-158713596D01*
X145283796Y-160755335D01*
X142589930Y-162676851D01*
X139811672Y-164474187D01*
X136954742Y-166143642D01*
X134025020Y-167681780D01*
X131028541Y-169085434D01*
X127971472Y-170351713D01*
X124860108Y-171478011D01*
X121700854Y-172462009D01*
X118500216Y-173301681D01*
X115264782Y-173995298D01*
X112001215Y-174541432D01*
X108716233Y-174938958D01*
X105416600Y-175187059D01*
X102109108Y-175285223D01*
X98800569Y-175233248D01*
X95497793Y-175031242D01*
X92207581Y-174679620D01*
X88936707Y-174179105D01*
X85691904Y-173530730D01*
X82479854Y-172735828D01*
X79307170Y-171796036D01*
X76180383Y-170713289D01*
X73105932Y-169489816D01*
X70090147Y-168128137D01*
X67139235Y-166631054D01*
X64259274Y-165001650D01*
X61456192Y-163243280D01*
X58735760Y-161359564D01*
X56103580Y-159354380D01*
X54303166Y-157849000D01*
X129211857Y-157849000D01*
X129211857Y-161669000D01*
X137996143Y-161669000D01*
X137996143Y-157849000D01*
X129211857Y-157849000D01*
X54303166Y-157849000D01*
X53565071Y-157231857D01*
X51125459Y-154996365D01*
X48789767Y-152652505D01*
X46562804Y-150205105D01*
X44449155Y-147659202D01*
X42453171Y-145020038D01*
X40578962Y-142293048D01*
X38830388Y-139483845D01*
X38095995Y-138175171D01*
X57125000Y-138175171D01*
X57125000Y-139700829D01*
X57708844Y-141110353D01*
X58787647Y-142189156D01*
X60197171Y-142773000D01*
X61722829Y-142773000D01*
X63132353Y-142189156D01*
X64211156Y-141110353D01*
X64795000Y-139700829D01*
X64795000Y-139008000D01*
X79369060Y-139008000D01*
X79369060Y-141408000D01*
X79418343Y-141655765D01*
X79558691Y-141865809D01*
X79768735Y-142006157D01*
X80016500Y-142055440D01*
X82416500Y-142055440D01*
X82664265Y-142006157D01*
X82874309Y-141865809D01*
X83014657Y-141655765D01*
X83044610Y-141505175D01*
X87598930Y-141505175D01*
X87722065Y-141792788D01*
X88404234Y-142052707D01*
X89133943Y-142031786D01*
X89710935Y-141792788D01*
X89834070Y-141505175D01*
X88716500Y-140387605D01*
X87598930Y-141505175D01*
X83044610Y-141505175D01*
X83063940Y-141408000D01*
X83063940Y-139895734D01*
X86871793Y-139895734D01*
X86892714Y-140625443D01*
X87131712Y-141202435D01*
X87419325Y-141325570D01*
X88536895Y-140208000D01*
X88896105Y-140208000D01*
X90013675Y-141325570D01*
X90301288Y-141202435D01*
X90561207Y-140520266D01*
X90540286Y-139790557D01*
X90301288Y-139213565D01*
X90013675Y-139090430D01*
X88896105Y-140208000D01*
X88536895Y-140208000D01*
X87419325Y-139090430D01*
X87131712Y-139213565D01*
X86871793Y-139895734D01*
X83063940Y-139895734D01*
X83063940Y-139008000D01*
X83044611Y-138910825D01*
X87598930Y-138910825D01*
X88716500Y-140028395D01*
X89834070Y-138910825D01*
X89710935Y-138623212D01*
X89028766Y-138363293D01*
X88299057Y-138384214D01*
X87722065Y-138623212D01*
X87598930Y-138910825D01*
X83044611Y-138910825D01*
X83014657Y-138760235D01*
X82874309Y-138550191D01*
X82664265Y-138409843D01*
X82416500Y-138360560D01*
X80016500Y-138360560D01*
X79768735Y-138409843D01*
X79558691Y-138550191D01*
X79418343Y-138760235D01*
X79369060Y-139008000D01*
X64795000Y-139008000D01*
X64795000Y-138175171D01*
X139675000Y-138175171D01*
X139675000Y-139700829D01*
X140258844Y-141110353D01*
X141337647Y-142189156D01*
X142747171Y-142773000D01*
X144272829Y-142773000D01*
X145682353Y-142189156D01*
X146761156Y-141110353D01*
X147345000Y-139700829D01*
X147345000Y-138175171D01*
X146761156Y-136765647D01*
X145682353Y-135686844D01*
X144272829Y-135103000D01*
X142747171Y-135103000D01*
X141337647Y-135686844D01*
X140258844Y-136765647D01*
X139675000Y-138175171D01*
X64795000Y-138175171D01*
X64211156Y-136765647D01*
X63132353Y-135686844D01*
X61722829Y-135103000D01*
X60197171Y-135103000D01*
X58787647Y-135686844D01*
X57708844Y-136765647D01*
X57125000Y-138175171D01*
X38095995Y-138175171D01*
X37211047Y-136598214D01*
X35724274Y-133642095D01*
X34373130Y-130621574D01*
X33790951Y-129143626D01*
X46780500Y-129143626D01*
X46780500Y-129555374D01*
X46930501Y-129917509D01*
X46930500Y-132464493D01*
X46780500Y-132826626D01*
X46780500Y-133238374D01*
X46938069Y-133618780D01*
X47229220Y-133909931D01*
X47609626Y-134067500D01*
X48021374Y-134067500D01*
X48401780Y-133909931D01*
X48692931Y-133618780D01*
X48850500Y-133238374D01*
X48850500Y-132826626D01*
X48700500Y-132464493D01*
X48700500Y-129917507D01*
X48850500Y-129555374D01*
X48850500Y-129143626D01*
X48692931Y-128763220D01*
X48401780Y-128472069D01*
X48021374Y-128314500D01*
X47609626Y-128314500D01*
X47229220Y-128472069D01*
X46938069Y-128763220D01*
X46780500Y-129143626D01*
X33790951Y-129143626D01*
X33160396Y-127542871D01*
X32931049Y-126873000D01*
X39580500Y-126873000D01*
X39580500Y-127173000D01*
X39780200Y-127922959D01*
X40251696Y-128539409D01*
X40923206Y-128928501D01*
X41130177Y-128982677D01*
X41438500Y-128867829D01*
X41438500Y-126873000D01*
X41692500Y-126873000D01*
X41692500Y-128867829D01*
X42000823Y-128982677D01*
X42207794Y-128928501D01*
X42879304Y-128539409D01*
X43350800Y-127922959D01*
X43550500Y-127173000D01*
X43550500Y-126873000D01*
X43780500Y-126873000D01*
X43780500Y-127173000D01*
X43980200Y-127922959D01*
X44451696Y-128539409D01*
X45123206Y-128928501D01*
X45330177Y-128982677D01*
X45638500Y-128867829D01*
X45638500Y-126873000D01*
X45892500Y-126873000D01*
X45892500Y-128867829D01*
X46200823Y-128982677D01*
X46407794Y-128928501D01*
X47079304Y-128539409D01*
X47550800Y-127922959D01*
X47750500Y-127173000D01*
X47750500Y-126873000D01*
X47980500Y-126873000D01*
X47980500Y-127173000D01*
X48180200Y-127922959D01*
X48651696Y-128539409D01*
X49323206Y-128928501D01*
X49530177Y-128982677D01*
X49838500Y-128867829D01*
X49838500Y-126873000D01*
X50092500Y-126873000D01*
X50092500Y-128867829D01*
X50400823Y-128982677D01*
X50607794Y-128928501D01*
X51001292Y-128700497D01*
X50938569Y-128763220D01*
X50781000Y-129143626D01*
X50781000Y-129555374D01*
X50931001Y-129917509D01*
X50931000Y-132527993D01*
X50781000Y-132890126D01*
X50781000Y-133301874D01*
X50938569Y-133682280D01*
X51229720Y-133973431D01*
X51610126Y-134131000D01*
X52021874Y-134131000D01*
X52402280Y-133973431D01*
X52693431Y-133682280D01*
X52851000Y-133301874D01*
X52851000Y-132890126D01*
X52701000Y-132527993D01*
X52701000Y-129917507D01*
X52851000Y-129555374D01*
X52851000Y-129143626D01*
X56432500Y-129143626D01*
X56432500Y-129555374D01*
X56582501Y-129917509D01*
X56582500Y-132464493D01*
X56432500Y-132826626D01*
X56432500Y-133238374D01*
X56590069Y-133618780D01*
X56881220Y-133909931D01*
X57261626Y-134067500D01*
X57673374Y-134067500D01*
X58053780Y-133909931D01*
X58344931Y-133618780D01*
X58502500Y-133238374D01*
X58502500Y-132826626D01*
X58352500Y-132464493D01*
X58352500Y-130302000D01*
X59800969Y-130302000D01*
X59833000Y-130463031D01*
X59833000Y-130627222D01*
X59895833Y-130778914D01*
X59927864Y-130939945D01*
X60019081Y-131076461D01*
X60081914Y-131228153D01*
X60198014Y-131344253D01*
X60289231Y-131480769D01*
X60425747Y-131571986D01*
X60541847Y-131688086D01*
X60693539Y-131750919D01*
X60830055Y-131842136D01*
X60991086Y-131874167D01*
X61142778Y-131937000D01*
X73096222Y-131937000D01*
X73247914Y-131874167D01*
X73408945Y-131842136D01*
X73545461Y-131750919D01*
X73697153Y-131688086D01*
X73813253Y-131571986D01*
X73867596Y-131535675D01*
X119207930Y-131535675D01*
X119331065Y-131823288D01*
X120013234Y-132083207D01*
X120742943Y-132062286D01*
X121319935Y-131823288D01*
X121443070Y-131535675D01*
X120325500Y-130418105D01*
X119207930Y-131535675D01*
X73867596Y-131535675D01*
X73949769Y-131480769D01*
X74040986Y-131344253D01*
X74157086Y-131228153D01*
X74219919Y-131076461D01*
X74311136Y-130939945D01*
X74343167Y-130778914D01*
X74406000Y-130627222D01*
X74406000Y-130463031D01*
X74438031Y-130302000D01*
X74406000Y-130140969D01*
X74406000Y-129976778D01*
X74385064Y-129926234D01*
X118480793Y-129926234D01*
X118501714Y-130655943D01*
X118740712Y-131232935D01*
X119028325Y-131356070D01*
X120145895Y-130238500D01*
X120505105Y-130238500D01*
X121622675Y-131356070D01*
X121910288Y-131232935D01*
X122170207Y-130550766D01*
X122149286Y-129821057D01*
X121910288Y-129244065D01*
X121622675Y-129120930D01*
X120505105Y-130238500D01*
X120145895Y-130238500D01*
X119028325Y-129120930D01*
X118740712Y-129244065D01*
X118480793Y-129926234D01*
X74385064Y-129926234D01*
X74343167Y-129825086D01*
X74311136Y-129664055D01*
X74219919Y-129527539D01*
X74157086Y-129375847D01*
X74040986Y-129259747D01*
X73949769Y-129123231D01*
X73813253Y-129032014D01*
X73722564Y-128941325D01*
X119207930Y-128941325D01*
X120325500Y-130058895D01*
X121345895Y-129038500D01*
X125978060Y-129038500D01*
X125978060Y-131438500D01*
X126027343Y-131686265D01*
X126167691Y-131896309D01*
X126377735Y-132036657D01*
X126625500Y-132085940D01*
X129025500Y-132085940D01*
X129273265Y-132036657D01*
X129483309Y-131896309D01*
X129623657Y-131686265D01*
X129672940Y-131438500D01*
X129672940Y-129038500D01*
X129623657Y-128790735D01*
X129483309Y-128580691D01*
X129273265Y-128440343D01*
X129025500Y-128391060D01*
X126625500Y-128391060D01*
X126377735Y-128440343D01*
X126167691Y-128580691D01*
X126027343Y-128790735D01*
X125978060Y-129038500D01*
X121345895Y-129038500D01*
X121443070Y-128941325D01*
X121319935Y-128653712D01*
X120637766Y-128393793D01*
X119908057Y-128414714D01*
X119331065Y-128653712D01*
X119207930Y-128941325D01*
X73722564Y-128941325D01*
X73697153Y-128915914D01*
X73545461Y-128853081D01*
X73408945Y-128761864D01*
X73247914Y-128729833D01*
X73096222Y-128667000D01*
X61142778Y-128667000D01*
X60991086Y-128729833D01*
X60830055Y-128761864D01*
X60693539Y-128853081D01*
X60541847Y-128915914D01*
X60425747Y-129032014D01*
X60289231Y-129123231D01*
X60198014Y-129259747D01*
X60081914Y-129375847D01*
X60019081Y-129527539D01*
X59927864Y-129664055D01*
X59895833Y-129825086D01*
X59833000Y-129976778D01*
X59833000Y-130140969D01*
X59800969Y-130302000D01*
X58352500Y-130302000D01*
X58352500Y-129917507D01*
X58502500Y-129555374D01*
X58502500Y-129143626D01*
X58344931Y-128763220D01*
X58053780Y-128472069D01*
X57673374Y-128314500D01*
X57261626Y-128314500D01*
X56881220Y-128472069D01*
X56590069Y-128763220D01*
X56432500Y-129143626D01*
X52851000Y-129143626D01*
X52804349Y-129031000D01*
X53879750Y-129031000D01*
X54038500Y-128872250D01*
X54038500Y-126873000D01*
X54292500Y-126873000D01*
X54292500Y-128872250D01*
X54451250Y-129031000D01*
X55641809Y-129031000D01*
X55875198Y-128934327D01*
X56053827Y-128755699D01*
X56150500Y-128522310D01*
X56150500Y-127031750D01*
X55991750Y-126873000D01*
X54292500Y-126873000D01*
X54038500Y-126873000D01*
X52339250Y-126873000D01*
X52180500Y-127031750D01*
X52180500Y-128380205D01*
X52021874Y-128314500D01*
X51610126Y-128314500D01*
X51377688Y-128410779D01*
X51750800Y-127922959D01*
X51950500Y-127173000D01*
X51950500Y-126873000D01*
X50092500Y-126873000D01*
X49838500Y-126873000D01*
X47980500Y-126873000D01*
X47750500Y-126873000D01*
X45892500Y-126873000D01*
X45638500Y-126873000D01*
X43780500Y-126873000D01*
X43550500Y-126873000D01*
X41692500Y-126873000D01*
X41438500Y-126873000D01*
X39580500Y-126873000D01*
X32931049Y-126873000D01*
X32741373Y-126319000D01*
X39580500Y-126319000D01*
X39580500Y-126619000D01*
X41438500Y-126619000D01*
X41438500Y-124624171D01*
X41692500Y-124624171D01*
X41692500Y-126619000D01*
X43550500Y-126619000D01*
X43550500Y-126319000D01*
X43780500Y-126319000D01*
X43780500Y-126619000D01*
X45638500Y-126619000D01*
X45638500Y-124624171D01*
X45892500Y-124624171D01*
X45892500Y-126619000D01*
X47750500Y-126619000D01*
X47750500Y-126319000D01*
X47980500Y-126319000D01*
X47980500Y-126619000D01*
X49838500Y-126619000D01*
X49838500Y-124624171D01*
X50092500Y-124624171D01*
X50092500Y-126619000D01*
X51950500Y-126619000D01*
X51950500Y-126319000D01*
X51750800Y-125569041D01*
X51292383Y-124969690D01*
X52180500Y-124969690D01*
X52180500Y-126460250D01*
X52339250Y-126619000D01*
X54038500Y-126619000D01*
X54038500Y-124619750D01*
X53879750Y-124461000D01*
X52689191Y-124461000D01*
X52455802Y-124557673D01*
X52277173Y-124736301D01*
X52180500Y-124969690D01*
X51292383Y-124969690D01*
X51279304Y-124952591D01*
X50607794Y-124563499D01*
X50400823Y-124509323D01*
X50092500Y-124624171D01*
X49838500Y-124624171D01*
X49530177Y-124509323D01*
X49323206Y-124563499D01*
X48651696Y-124952591D01*
X48180200Y-125569041D01*
X47980500Y-126319000D01*
X47750500Y-126319000D01*
X47550800Y-125569041D01*
X47079304Y-124952591D01*
X46407794Y-124563499D01*
X46200823Y-124509323D01*
X45892500Y-124624171D01*
X45638500Y-124624171D01*
X45330177Y-124509323D01*
X45123206Y-124563499D01*
X44451696Y-124952591D01*
X43980200Y-125569041D01*
X43780500Y-126319000D01*
X43550500Y-126319000D01*
X43350800Y-125569041D01*
X42879304Y-124952591D01*
X42207794Y-124563499D01*
X42000823Y-124509323D01*
X41692500Y-124624171D01*
X41438500Y-124624171D01*
X41130177Y-124509323D01*
X40923206Y-124563499D01*
X40251696Y-124952591D01*
X39780200Y-125569041D01*
X39580500Y-126319000D01*
X32741373Y-126319000D01*
X32088571Y-124412324D01*
X31173002Y-121281322D01*
X34730500Y-121281322D01*
X34730500Y-122130678D01*
X35055534Y-122915380D01*
X35656120Y-123515966D01*
X36440822Y-123841000D01*
X37290178Y-123841000D01*
X38074880Y-123515966D01*
X38675466Y-122915380D01*
X39000500Y-122130678D01*
X39000500Y-121281322D01*
X38780626Y-120750497D01*
X39580500Y-120750497D01*
X39580500Y-121741502D01*
X39695671Y-122320507D01*
X40134395Y-122977105D01*
X40790992Y-123415829D01*
X41565500Y-123569888D01*
X42340007Y-123415829D01*
X42996605Y-122977105D01*
X43435329Y-122320508D01*
X43550500Y-121741503D01*
X43550500Y-120750498D01*
X43550500Y-120750497D01*
X43780500Y-120750497D01*
X43780500Y-121741502D01*
X43895671Y-122320507D01*
X44334395Y-122977105D01*
X44990992Y-123415829D01*
X45765500Y-123569888D01*
X46540007Y-123415829D01*
X47196605Y-122977105D01*
X47635329Y-122320508D01*
X47750500Y-121741503D01*
X47750500Y-120750498D01*
X47668500Y-120338255D01*
X47668500Y-119970292D01*
X48024793Y-119614000D01*
X48468176Y-119614000D01*
X48095671Y-120171492D01*
X47980500Y-120750497D01*
X47980500Y-121741502D01*
X48095671Y-122320507D01*
X48534395Y-122977105D01*
X49190992Y-123415829D01*
X49965500Y-123569888D01*
X50740007Y-123415829D01*
X51396605Y-122977105D01*
X51835329Y-122320508D01*
X51950500Y-121741503D01*
X51950500Y-120750498D01*
X51835329Y-120171492D01*
X51462825Y-119614000D01*
X52668176Y-119614000D01*
X52295671Y-120171492D01*
X52180500Y-120750497D01*
X52180500Y-121741502D01*
X52295671Y-122320507D01*
X52734395Y-122977105D01*
X53390992Y-123415829D01*
X54052091Y-123547330D01*
X54965761Y-124461000D01*
X54451250Y-124461000D01*
X54292500Y-124619750D01*
X54292500Y-126619000D01*
X55991750Y-126619000D01*
X56150500Y-126460250D01*
X56150500Y-125645739D01*
X56451514Y-125946753D01*
X56542731Y-126083269D01*
X57083555Y-126444636D01*
X57560469Y-126539500D01*
X57560470Y-126539500D01*
X57721500Y-126571531D01*
X57882530Y-126539500D01*
X60735470Y-126539500D01*
X60896500Y-126571531D01*
X61057530Y-126539500D01*
X61057531Y-126539500D01*
X61534445Y-126444636D01*
X62075269Y-126083269D01*
X62166488Y-125946750D01*
X63145252Y-124967987D01*
X63281769Y-124876769D01*
X63559577Y-124461000D01*
X63643136Y-124335946D01*
X63770031Y-123698000D01*
X63738000Y-123536969D01*
X63738000Y-121983431D01*
X80284000Y-121983431D01*
X80284000Y-122872569D01*
X80624259Y-123694026D01*
X81252974Y-124322741D01*
X82074431Y-124663000D01*
X82963569Y-124663000D01*
X83785026Y-124322741D01*
X84413741Y-123694026D01*
X84754000Y-122872569D01*
X84754000Y-121983431D01*
X86284000Y-121983431D01*
X86284000Y-122872569D01*
X86624259Y-123694026D01*
X87252974Y-124322741D01*
X88074431Y-124663000D01*
X88963569Y-124663000D01*
X89785026Y-124322741D01*
X90413741Y-123694026D01*
X90754000Y-122872569D01*
X90754000Y-121983431D01*
X90740878Y-121951750D01*
X97887000Y-121951750D01*
X97887000Y-123592309D01*
X97983673Y-123825698D01*
X98162301Y-124004327D01*
X98395690Y-124101000D01*
X99536250Y-124101000D01*
X99695000Y-123942250D01*
X99695000Y-121793000D01*
X99949000Y-121793000D01*
X99949000Y-123942250D01*
X100107750Y-124101000D01*
X101248310Y-124101000D01*
X101481699Y-124004327D01*
X101660327Y-123825698D01*
X101757000Y-123592309D01*
X101757000Y-121951750D01*
X101598250Y-121793000D01*
X99949000Y-121793000D01*
X99695000Y-121793000D01*
X98045750Y-121793000D01*
X97887000Y-121951750D01*
X90740878Y-121951750D01*
X90413741Y-121161974D01*
X89785026Y-120533259D01*
X88963569Y-120193000D01*
X88074431Y-120193000D01*
X87252974Y-120533259D01*
X86624259Y-121161974D01*
X86284000Y-121983431D01*
X84754000Y-121983431D01*
X84413741Y-121161974D01*
X83785026Y-120533259D01*
X82963569Y-120193000D01*
X82074431Y-120193000D01*
X81252974Y-120533259D01*
X80624259Y-121161974D01*
X80284000Y-121983431D01*
X63738000Y-121983431D01*
X63738000Y-118539126D01*
X92056000Y-118539126D01*
X92056000Y-118950874D01*
X92213569Y-119331280D01*
X92504720Y-119622431D01*
X92885126Y-119780000D01*
X93050187Y-119780000D01*
X93090550Y-119840408D01*
X93341942Y-120008383D01*
X93563627Y-120052479D01*
X93563631Y-120052479D01*
X93638479Y-120067367D01*
X93713327Y-120052479D01*
X95068287Y-120052479D01*
X95185718Y-120169910D01*
X95566124Y-120327479D01*
X95977872Y-120327479D01*
X96358278Y-120169910D01*
X96649429Y-119878759D01*
X96707032Y-119739691D01*
X97887000Y-119739691D01*
X97887000Y-121380250D01*
X98045750Y-121539000D01*
X99695000Y-121539000D01*
X99695000Y-119389750D01*
X99949000Y-119389750D01*
X99949000Y-121539000D01*
X101598250Y-121539000D01*
X101757000Y-121380250D01*
X101757000Y-120316000D01*
X148578560Y-120316000D01*
X148578560Y-123016000D01*
X148627843Y-123263765D01*
X148768191Y-123473809D01*
X148978235Y-123614157D01*
X149226000Y-123663440D01*
X152526000Y-123663440D01*
X152773765Y-123614157D01*
X152983809Y-123473809D01*
X153124157Y-123263765D01*
X153173440Y-123016000D01*
X153173440Y-121666000D01*
X154052112Y-121666000D01*
X154206171Y-122440508D01*
X154644895Y-123097105D01*
X155301492Y-123535829D01*
X155880497Y-123651000D01*
X156871503Y-123651000D01*
X157450508Y-123535829D01*
X158107105Y-123097105D01*
X158545829Y-122440508D01*
X158699888Y-121666000D01*
X158545829Y-120891492D01*
X158107105Y-120234895D01*
X157450508Y-119796171D01*
X156871503Y-119681000D01*
X155880497Y-119681000D01*
X155301492Y-119796171D01*
X154644895Y-120234895D01*
X154206171Y-120891492D01*
X154052112Y-121666000D01*
X153173440Y-121666000D01*
X153173440Y-120316000D01*
X153124157Y-120068235D01*
X152983809Y-119858191D01*
X152773765Y-119717843D01*
X152526000Y-119668560D01*
X149226000Y-119668560D01*
X148978235Y-119717843D01*
X148768191Y-119858191D01*
X148627843Y-120068235D01*
X148578560Y-120316000D01*
X101757000Y-120316000D01*
X101757000Y-119739691D01*
X101660327Y-119506302D01*
X101481699Y-119327673D01*
X101248310Y-119231000D01*
X100107750Y-119231000D01*
X99949000Y-119389750D01*
X99695000Y-119389750D01*
X99536250Y-119231000D01*
X98395690Y-119231000D01*
X98162301Y-119327673D01*
X97983673Y-119506302D01*
X97887000Y-119739691D01*
X96707032Y-119739691D01*
X96806998Y-119498353D01*
X96806998Y-119086605D01*
X96649429Y-118706199D01*
X96358278Y-118415048D01*
X95977872Y-118257479D01*
X95566124Y-118257479D01*
X95185718Y-118415048D01*
X95068287Y-118532479D01*
X94123247Y-118532479D01*
X93968431Y-118158720D01*
X93677280Y-117867569D01*
X93296874Y-117710000D01*
X92885126Y-117710000D01*
X92504720Y-117867569D01*
X92213569Y-118158720D01*
X92056000Y-118539126D01*
X63738000Y-118539126D01*
X63738000Y-117526242D01*
X63770031Y-117365212D01*
X63702479Y-117025607D01*
X63643136Y-116727268D01*
X63281769Y-116186444D01*
X63166500Y-116109424D01*
X63166500Y-115618126D01*
X97644000Y-115618126D01*
X97644000Y-116029874D01*
X97801569Y-116410280D01*
X98092720Y-116701431D01*
X98473126Y-116859000D01*
X98884874Y-116859000D01*
X99265280Y-116701431D01*
X99382711Y-116584000D01*
X102039289Y-116584000D01*
X102156720Y-116701431D01*
X102537126Y-116859000D01*
X102948874Y-116859000D01*
X103329280Y-116701431D01*
X103620431Y-116410280D01*
X103778000Y-116029874D01*
X103778000Y-115618126D01*
X103620431Y-115237720D01*
X103329280Y-114946569D01*
X102948874Y-114789000D01*
X102537126Y-114789000D01*
X102156720Y-114946569D01*
X102039289Y-115064000D01*
X99382711Y-115064000D01*
X99265280Y-114946569D01*
X98884874Y-114789000D01*
X98473126Y-114789000D01*
X98092720Y-114946569D01*
X97801569Y-115237720D01*
X97644000Y-115618126D01*
X63166500Y-115618126D01*
X63166500Y-110030126D01*
X97136000Y-110030126D01*
X97136000Y-110441874D01*
X97293569Y-110822280D01*
X97584720Y-111113431D01*
X97965126Y-111271000D01*
X98376874Y-111271000D01*
X98757280Y-111113431D01*
X98874711Y-110996000D01*
X99616983Y-110996000D01*
X99739067Y-111118084D01*
X100119473Y-111275653D01*
X100531221Y-111275653D01*
X100911627Y-111118084D01*
X101202778Y-110826933D01*
X101360347Y-110446527D01*
X101360347Y-110034779D01*
X101202778Y-109654373D01*
X100911627Y-109363222D01*
X100531221Y-109205653D01*
X100119473Y-109205653D01*
X99739067Y-109363222D01*
X99626289Y-109476000D01*
X98874711Y-109476000D01*
X98757280Y-109358569D01*
X98376874Y-109201000D01*
X97965126Y-109201000D01*
X97584720Y-109358569D01*
X97293569Y-109649720D01*
X97136000Y-110030126D01*
X63166500Y-110030126D01*
X63166500Y-106619746D01*
X159092900Y-106619746D01*
X159092900Y-107807054D01*
X159547263Y-108903984D01*
X160386816Y-109743537D01*
X161483746Y-110197900D01*
X162671054Y-110197900D01*
X163767984Y-109743537D01*
X164607537Y-108903984D01*
X165061900Y-107807054D01*
X165061900Y-106619746D01*
X164607537Y-105522816D01*
X163767984Y-104683263D01*
X162671054Y-104228900D01*
X161483746Y-104228900D01*
X160386816Y-104683263D01*
X159547263Y-105522816D01*
X159092900Y-106619746D01*
X63166500Y-106619746D01*
X63166500Y-105783278D01*
X62917586Y-105182347D01*
X62457653Y-104722414D01*
X61856722Y-104473500D01*
X61206278Y-104473500D01*
X60605347Y-104722414D01*
X60145414Y-105182347D01*
X59896500Y-105783278D01*
X59896500Y-106433722D01*
X59896501Y-106433724D01*
X59896500Y-115054278D01*
X59896500Y-116632683D01*
X59864469Y-116793713D01*
X59896500Y-116954743D01*
X59896500Y-116954744D01*
X59991365Y-117431658D01*
X60352732Y-117972482D01*
X60468000Y-118049502D01*
X60468000Y-120289154D01*
X60074880Y-119896034D01*
X59290178Y-119571000D01*
X58440822Y-119571000D01*
X57656120Y-119896034D01*
X57055534Y-120496620D01*
X56730500Y-121281322D01*
X56730500Y-121601262D01*
X56150500Y-121021262D01*
X56150500Y-120750498D01*
X56035329Y-120171492D01*
X55662825Y-119614000D01*
X56764155Y-119614000D01*
X57313990Y-119504631D01*
X57937509Y-119088009D01*
X58354131Y-118464490D01*
X58500429Y-117729000D01*
X58354131Y-116993510D01*
X57937509Y-116369991D01*
X57313990Y-115953369D01*
X56764155Y-115844000D01*
X47429653Y-115844000D01*
X47244000Y-115807071D01*
X47058346Y-115844000D01*
X47058345Y-115844000D01*
X46508510Y-115953369D01*
X46394012Y-116029874D01*
X46042381Y-116264826D01*
X46042380Y-116264827D01*
X45884991Y-116369991D01*
X45779827Y-116527380D01*
X44581882Y-117725325D01*
X44424491Y-117830491D01*
X44007869Y-118454011D01*
X43898500Y-119003846D01*
X43898500Y-119003850D01*
X43861572Y-119189500D01*
X43898500Y-119375150D01*
X43898500Y-120167257D01*
X43895671Y-120171492D01*
X43780500Y-120750497D01*
X43550500Y-120750497D01*
X43435329Y-120171492D01*
X42996605Y-119514895D01*
X42340008Y-119076171D01*
X41565500Y-118922112D01*
X40790993Y-119076171D01*
X40134396Y-119514895D01*
X39695671Y-120171492D01*
X39580500Y-120750497D01*
X38780626Y-120750497D01*
X38675466Y-120496620D01*
X38074880Y-119896034D01*
X37290178Y-119571000D01*
X36440822Y-119571000D01*
X35656120Y-119896034D01*
X35055534Y-120496620D01*
X34730500Y-121281322D01*
X31173002Y-121281322D01*
X31159859Y-121236379D01*
X30376174Y-118021574D01*
X29739129Y-114774528D01*
X29250035Y-111501926D01*
X28909900Y-108210507D01*
X28818178Y-106619746D01*
X36868100Y-106619746D01*
X36868100Y-107807054D01*
X37322463Y-108903984D01*
X38162016Y-109743537D01*
X39258946Y-110197900D01*
X40446254Y-110197900D01*
X41543184Y-109743537D01*
X42382737Y-108903984D01*
X42837100Y-107807054D01*
X42837100Y-106619746D01*
X42382737Y-105522816D01*
X41543184Y-104683263D01*
X40446254Y-104228900D01*
X39258946Y-104228900D01*
X38162016Y-104683263D01*
X37322463Y-105522816D01*
X36868100Y-106619746D01*
X28818178Y-106619746D01*
X28719424Y-104907046D01*
X28678999Y-101598345D01*
X28788707Y-98291217D01*
X28976825Y-95900946D01*
X36868100Y-95900946D01*
X36868100Y-97088254D01*
X37322463Y-98185184D01*
X38162016Y-99024737D01*
X39258946Y-99479100D01*
X40446254Y-99479100D01*
X41543184Y-99024737D01*
X42382737Y-98185184D01*
X42837100Y-97088254D01*
X42837100Y-96110126D01*
X45149000Y-96110126D01*
X45149000Y-96521874D01*
X45247842Y-96760500D01*
X45149000Y-96999126D01*
X45149000Y-97410874D01*
X45252398Y-97660500D01*
X45149000Y-97910126D01*
X45149000Y-98321874D01*
X45250120Y-98566000D01*
X45149000Y-98810126D01*
X45149000Y-99221874D01*
X45306569Y-99602280D01*
X45597720Y-99893431D01*
X45978126Y-100051000D01*
X46389874Y-100051000D01*
X46734750Y-99908148D01*
X47079626Y-100051000D01*
X47491374Y-100051000D01*
X47871780Y-99893431D01*
X48162931Y-99602280D01*
X48320500Y-99221874D01*
X48320500Y-98810126D01*
X48219380Y-98566000D01*
X48320500Y-98321874D01*
X48320500Y-97910126D01*
X48217102Y-97660500D01*
X48320500Y-97410874D01*
X48320500Y-96999126D01*
X48221658Y-96760500D01*
X48320500Y-96521874D01*
X48320500Y-96110126D01*
X48233855Y-95900946D01*
X159092900Y-95900946D01*
X159092900Y-97088254D01*
X159547263Y-98185184D01*
X160386816Y-99024737D01*
X161483746Y-99479100D01*
X162671054Y-99479100D01*
X163767984Y-99024737D01*
X164607537Y-98185184D01*
X165061900Y-97088254D01*
X165061900Y-95900946D01*
X164607537Y-94804016D01*
X163767984Y-93964463D01*
X162671054Y-93510100D01*
X161483746Y-93510100D01*
X160386816Y-93964463D01*
X159547263Y-94804016D01*
X159092900Y-95900946D01*
X48233855Y-95900946D01*
X48162931Y-95729720D01*
X47871780Y-95438569D01*
X47491374Y-95281000D01*
X47079626Y-95281000D01*
X46734750Y-95423852D01*
X46389874Y-95281000D01*
X45978126Y-95281000D01*
X45597720Y-95438569D01*
X45306569Y-95729720D01*
X45149000Y-96110126D01*
X42837100Y-96110126D01*
X42837100Y-95900946D01*
X42382737Y-94804016D01*
X41543184Y-93964463D01*
X40446254Y-93510100D01*
X39258946Y-93510100D01*
X38162016Y-93964463D01*
X37322463Y-94804016D01*
X36868100Y-95900946D01*
X28976825Y-95900946D01*
X29048324Y-94992470D01*
X29457315Y-91708895D01*
X30014838Y-88447254D01*
X30719744Y-85214261D01*
X31570583Y-82016574D01*
X31586371Y-81966498D01*
X36623000Y-81966498D01*
X36623000Y-82957503D01*
X36738171Y-83536508D01*
X37176896Y-84193105D01*
X37833493Y-84631829D01*
X38608000Y-84785888D01*
X39382508Y-84631829D01*
X40039105Y-84193105D01*
X40477829Y-83536508D01*
X40593000Y-82957502D01*
X40593000Y-81966498D01*
X40823000Y-81966498D01*
X40823000Y-82957503D01*
X40938171Y-83536508D01*
X41376896Y-84193105D01*
X42033493Y-84631829D01*
X42808000Y-84785888D01*
X43582508Y-84631829D01*
X44239105Y-84193105D01*
X44677829Y-83536508D01*
X44793000Y-82957502D01*
X44793000Y-81966498D01*
X47799000Y-81966498D01*
X47799000Y-82957503D01*
X47914171Y-83536508D01*
X48352896Y-84193105D01*
X48807404Y-84496797D01*
X48768017Y-84555744D01*
X48651914Y-84671847D01*
X48589079Y-84823543D01*
X48497865Y-84960055D01*
X48465835Y-85121081D01*
X48403000Y-85272778D01*
X48403000Y-85923222D01*
X48403001Y-85923224D01*
X48403000Y-91622778D01*
X48403000Y-92273222D01*
X48465833Y-92424915D01*
X48497864Y-92585944D01*
X48589080Y-92722459D01*
X48651914Y-92874153D01*
X48768014Y-92990253D01*
X48859231Y-93126769D01*
X48995747Y-93217986D01*
X49111847Y-93334086D01*
X49263539Y-93396919D01*
X49400055Y-93488136D01*
X49561086Y-93520167D01*
X49712778Y-93583000D01*
X49876969Y-93583000D01*
X50038000Y-93615031D01*
X50199031Y-93583000D01*
X50363222Y-93583000D01*
X50514915Y-93520167D01*
X50675944Y-93488136D01*
X50812459Y-93396920D01*
X50964153Y-93334086D01*
X51080253Y-93217986D01*
X51216769Y-93126769D01*
X51307986Y-92990253D01*
X51424086Y-92874153D01*
X51486919Y-92722461D01*
X51578136Y-92585945D01*
X51610167Y-92424914D01*
X51673000Y-92273222D01*
X51673000Y-85272778D01*
X51610167Y-85121086D01*
X51578136Y-84960055D01*
X51486919Y-84823539D01*
X51424086Y-84671847D01*
X51307986Y-84555747D01*
X51216769Y-84419231D01*
X51080253Y-84328014D01*
X51053395Y-84301156D01*
X51215105Y-84193105D01*
X51653829Y-83536508D01*
X51769000Y-82957502D01*
X51769000Y-81966498D01*
X51999000Y-81966498D01*
X51999000Y-82957503D01*
X52114171Y-83536508D01*
X52552896Y-84193105D01*
X53209493Y-84631829D01*
X53984000Y-84785888D01*
X54758508Y-84631829D01*
X54869162Y-84557892D01*
X62566514Y-84557892D01*
X62812817Y-85082358D01*
X63241076Y-85472645D01*
X63651110Y-85642476D01*
X63881000Y-85521155D01*
X63881000Y-84328000D01*
X62687181Y-84328000D01*
X62566514Y-84557892D01*
X54869162Y-84557892D01*
X55415105Y-84193105D01*
X55648297Y-83844108D01*
X62566514Y-83844108D01*
X62687181Y-84074000D01*
X63881000Y-84074000D01*
X63881000Y-82880845D01*
X64135000Y-82880845D01*
X64135000Y-84074000D01*
X64155000Y-84074000D01*
X64155000Y-84328000D01*
X64135000Y-84328000D01*
X64135000Y-85521155D01*
X64364890Y-85642476D01*
X64774924Y-85472645D01*
X65079261Y-85195292D01*
X65099843Y-85298765D01*
X65240191Y-85508809D01*
X65450235Y-85649157D01*
X65698000Y-85698440D01*
X67398000Y-85698440D01*
X67645765Y-85649157D01*
X67855809Y-85508809D01*
X67996157Y-85298765D01*
X68045440Y-85051000D01*
X68045440Y-83351000D01*
X67996157Y-83103235D01*
X67855809Y-82893191D01*
X67645765Y-82752843D01*
X67398000Y-82703560D01*
X65698000Y-82703560D01*
X65450235Y-82752843D01*
X65240191Y-82893191D01*
X65099843Y-83103235D01*
X65079261Y-83206708D01*
X64774924Y-82929355D01*
X64364890Y-82759524D01*
X64135000Y-82880845D01*
X63881000Y-82880845D01*
X63651110Y-82759524D01*
X63241076Y-82929355D01*
X62812817Y-83319642D01*
X62566514Y-83844108D01*
X55648297Y-83844108D01*
X55853829Y-83536508D01*
X55969000Y-82957502D01*
X55969000Y-82302500D01*
X79623060Y-82302500D01*
X79623060Y-84702500D01*
X79672343Y-84950265D01*
X79812691Y-85160309D01*
X80022735Y-85300657D01*
X80270500Y-85349940D01*
X82670500Y-85349940D01*
X82918265Y-85300657D01*
X83128309Y-85160309D01*
X83268657Y-84950265D01*
X83298610Y-84799675D01*
X87852930Y-84799675D01*
X87976065Y-85087288D01*
X88658234Y-85347207D01*
X89387943Y-85326286D01*
X89964935Y-85087288D01*
X90088070Y-84799675D01*
X88970500Y-83682105D01*
X87852930Y-84799675D01*
X83298610Y-84799675D01*
X83317940Y-84702500D01*
X83317940Y-83190234D01*
X87125793Y-83190234D01*
X87146714Y-83919943D01*
X87385712Y-84496935D01*
X87673325Y-84620070D01*
X88790895Y-83502500D01*
X89150105Y-83502500D01*
X90267675Y-84620070D01*
X90555288Y-84496935D01*
X90815207Y-83814766D01*
X90794286Y-83085057D01*
X90555288Y-82508065D01*
X90267675Y-82384930D01*
X89150105Y-83502500D01*
X88790895Y-83502500D01*
X87673325Y-82384930D01*
X87385712Y-82508065D01*
X87125793Y-83190234D01*
X83317940Y-83190234D01*
X83317940Y-82302500D01*
X83298611Y-82205325D01*
X87852930Y-82205325D01*
X88970500Y-83322895D01*
X90088070Y-82205325D01*
X89964935Y-81917712D01*
X89282766Y-81657793D01*
X88553057Y-81678714D01*
X87976065Y-81917712D01*
X87852930Y-82205325D01*
X83298611Y-82205325D01*
X83268657Y-82054735D01*
X83128309Y-81844691D01*
X82918265Y-81704343D01*
X82670500Y-81655060D01*
X80270500Y-81655060D01*
X80022735Y-81704343D01*
X79812691Y-81844691D01*
X79672343Y-82054735D01*
X79623060Y-82302500D01*
X55969000Y-82302500D01*
X55969000Y-81966497D01*
X55853829Y-81387492D01*
X55443239Y-80773000D01*
X122208560Y-80773000D01*
X122208560Y-84073000D01*
X122257843Y-84320765D01*
X122398191Y-84530809D01*
X122608235Y-84671157D01*
X122856000Y-84720440D01*
X125556000Y-84720440D01*
X125803765Y-84671157D01*
X126013809Y-84530809D01*
X126154157Y-84320765D01*
X126203440Y-84073000D01*
X126203440Y-80773000D01*
X139353560Y-80773000D01*
X139353560Y-84073000D01*
X139402843Y-84320765D01*
X139543191Y-84530809D01*
X139753235Y-84671157D01*
X140001000Y-84720440D01*
X142701000Y-84720440D01*
X142948765Y-84671157D01*
X143158809Y-84530809D01*
X143299157Y-84320765D01*
X143348440Y-84073000D01*
X143348440Y-80773000D01*
X143299157Y-80525235D01*
X143158809Y-80315191D01*
X142948765Y-80174843D01*
X142701000Y-80125560D01*
X140001000Y-80125560D01*
X139753235Y-80174843D01*
X139543191Y-80315191D01*
X139402843Y-80525235D01*
X139353560Y-80773000D01*
X126203440Y-80773000D01*
X126154157Y-80525235D01*
X126013809Y-80315191D01*
X125803765Y-80174843D01*
X125556000Y-80125560D01*
X122856000Y-80125560D01*
X122608235Y-80174843D01*
X122398191Y-80315191D01*
X122257843Y-80525235D01*
X122208560Y-80773000D01*
X55443239Y-80773000D01*
X55415105Y-80730895D01*
X54758507Y-80292171D01*
X53984000Y-80138112D01*
X53209492Y-80292171D01*
X52552895Y-80730895D01*
X52114171Y-81387493D01*
X51999000Y-81966498D01*
X51769000Y-81966498D01*
X51769000Y-81966497D01*
X51653829Y-81387492D01*
X51215105Y-80730895D01*
X50558507Y-80292171D01*
X49784000Y-80138112D01*
X49009492Y-80292171D01*
X48352895Y-80730895D01*
X47914171Y-81387493D01*
X47799000Y-81966498D01*
X44793000Y-81966498D01*
X44793000Y-81966497D01*
X44677829Y-81387492D01*
X44239105Y-80730895D01*
X43582507Y-80292171D01*
X42808000Y-80138112D01*
X42033492Y-80292171D01*
X41376895Y-80730895D01*
X40938171Y-81387493D01*
X40823000Y-81966498D01*
X40593000Y-81966498D01*
X40593000Y-81966497D01*
X40477829Y-81387492D01*
X40039105Y-80730895D01*
X39382507Y-80292171D01*
X38608000Y-80138112D01*
X37833492Y-80292171D01*
X37176895Y-80730895D01*
X36738171Y-81387493D01*
X36623000Y-81966498D01*
X31586371Y-81966498D01*
X32565603Y-78860774D01*
X33155886Y-77247750D01*
X36623000Y-77247750D01*
X36623000Y-78738310D01*
X36719673Y-78971699D01*
X36898302Y-79150327D01*
X37131691Y-79247000D01*
X38322250Y-79247000D01*
X38481000Y-79088250D01*
X38481000Y-77089000D01*
X38735000Y-77089000D01*
X38735000Y-79088250D01*
X38893750Y-79247000D01*
X40084309Y-79247000D01*
X40317698Y-79150327D01*
X40496327Y-78971699D01*
X40593000Y-78738310D01*
X40593000Y-77247750D01*
X40434250Y-77089000D01*
X40823000Y-77089000D01*
X40823000Y-77389000D01*
X41022700Y-78138959D01*
X41494196Y-78755409D01*
X42165706Y-79144501D01*
X42372677Y-79198677D01*
X42681000Y-79083829D01*
X42681000Y-77089000D01*
X42935000Y-77089000D01*
X42935000Y-79083829D01*
X43243323Y-79198677D01*
X43450294Y-79144501D01*
X44121804Y-78755409D01*
X44593300Y-78138959D01*
X44793000Y-77389000D01*
X44793000Y-77247750D01*
X47799000Y-77247750D01*
X47799000Y-78738310D01*
X47895673Y-78971699D01*
X48074302Y-79150327D01*
X48307691Y-79247000D01*
X49498250Y-79247000D01*
X49657000Y-79088250D01*
X49657000Y-77089000D01*
X49911000Y-77089000D01*
X49911000Y-79088250D01*
X50069750Y-79247000D01*
X51260309Y-79247000D01*
X51493698Y-79150327D01*
X51672327Y-78971699D01*
X51769000Y-78738310D01*
X51769000Y-77247750D01*
X51610250Y-77089000D01*
X51999000Y-77089000D01*
X51999000Y-77389000D01*
X52198700Y-78138959D01*
X52670196Y-78755409D01*
X53341706Y-79144501D01*
X53548677Y-79198677D01*
X53857000Y-79083829D01*
X53857000Y-77089000D01*
X54111000Y-77089000D01*
X54111000Y-79083829D01*
X54419323Y-79198677D01*
X54626294Y-79144501D01*
X55297804Y-78755409D01*
X55769300Y-78138959D01*
X55969000Y-77389000D01*
X55969000Y-77089000D01*
X54111000Y-77089000D01*
X53857000Y-77089000D01*
X51999000Y-77089000D01*
X51610250Y-77089000D01*
X49911000Y-77089000D01*
X49657000Y-77089000D01*
X47957750Y-77089000D01*
X47799000Y-77247750D01*
X44793000Y-77247750D01*
X44793000Y-77089000D01*
X42935000Y-77089000D01*
X42681000Y-77089000D01*
X40823000Y-77089000D01*
X40434250Y-77089000D01*
X38735000Y-77089000D01*
X38481000Y-77089000D01*
X36781750Y-77089000D01*
X36623000Y-77247750D01*
X33155886Y-77247750D01*
X33702755Y-75753361D01*
X33940216Y-75185690D01*
X36623000Y-75185690D01*
X36623000Y-76676250D01*
X36781750Y-76835000D01*
X38481000Y-76835000D01*
X38481000Y-74835750D01*
X38735000Y-74835750D01*
X38735000Y-76835000D01*
X40434250Y-76835000D01*
X40593000Y-76676250D01*
X40593000Y-76535000D01*
X40823000Y-76535000D01*
X40823000Y-76835000D01*
X42681000Y-76835000D01*
X42681000Y-74840171D01*
X42935000Y-74840171D01*
X42935000Y-76835000D01*
X44793000Y-76835000D01*
X44793000Y-76535000D01*
X44593300Y-75785041D01*
X44134883Y-75185690D01*
X47799000Y-75185690D01*
X47799000Y-76676250D01*
X47957750Y-76835000D01*
X49657000Y-76835000D01*
X49657000Y-74835750D01*
X49911000Y-74835750D01*
X49911000Y-76835000D01*
X51610250Y-76835000D01*
X51769000Y-76676250D01*
X51769000Y-76535000D01*
X51999000Y-76535000D01*
X51999000Y-76835000D01*
X53857000Y-76835000D01*
X53857000Y-74840171D01*
X54111000Y-74840171D01*
X54111000Y-76835000D01*
X55969000Y-76835000D01*
X55969000Y-76535000D01*
X55940374Y-76427497D01*
X122221000Y-76427497D01*
X122221000Y-77418502D01*
X122336171Y-77997507D01*
X122774895Y-78654105D01*
X123431492Y-79092829D01*
X124206000Y-79246888D01*
X124980507Y-79092829D01*
X125637105Y-78654105D01*
X126075829Y-77997508D01*
X126191000Y-77418503D01*
X126191000Y-76427498D01*
X126191000Y-76427497D01*
X139366000Y-76427497D01*
X139366000Y-77418502D01*
X139481171Y-77997507D01*
X139919895Y-78654105D01*
X140576492Y-79092829D01*
X141351000Y-79246888D01*
X142125507Y-79092829D01*
X142782105Y-78654105D01*
X143220829Y-77997508D01*
X143336000Y-77418503D01*
X143336000Y-76427498D01*
X143220829Y-75848492D01*
X142782105Y-75191895D01*
X142125508Y-74753171D01*
X141351000Y-74599112D01*
X140576493Y-74753171D01*
X139919896Y-75191895D01*
X139481171Y-75848492D01*
X139366000Y-76427497D01*
X126191000Y-76427497D01*
X126075829Y-75848492D01*
X125637105Y-75191895D01*
X124980508Y-74753171D01*
X124206000Y-74599112D01*
X123431493Y-74753171D01*
X122774896Y-75191895D01*
X122336171Y-75848492D01*
X122221000Y-76427497D01*
X55940374Y-76427497D01*
X55769300Y-75785041D01*
X55297804Y-75168591D01*
X54626294Y-74779499D01*
X54419323Y-74725323D01*
X54111000Y-74840171D01*
X53857000Y-74840171D01*
X53548677Y-74725323D01*
X53341706Y-74779499D01*
X52670196Y-75168591D01*
X52198700Y-75785041D01*
X51999000Y-76535000D01*
X51769000Y-76535000D01*
X51769000Y-75185690D01*
X51672327Y-74952301D01*
X51493698Y-74773673D01*
X51260309Y-74677000D01*
X50069750Y-74677000D01*
X49911000Y-74835750D01*
X49657000Y-74835750D01*
X49498250Y-74677000D01*
X48307691Y-74677000D01*
X48074302Y-74773673D01*
X47895673Y-74952301D01*
X47799000Y-75185690D01*
X44134883Y-75185690D01*
X44121804Y-75168591D01*
X43450294Y-74779499D01*
X43243323Y-74725323D01*
X42935000Y-74840171D01*
X42681000Y-74840171D01*
X42372677Y-74725323D01*
X42165706Y-74779499D01*
X41494196Y-75168591D01*
X41022700Y-75785041D01*
X40823000Y-76535000D01*
X40593000Y-76535000D01*
X40593000Y-75185690D01*
X40496327Y-74952301D01*
X40317698Y-74773673D01*
X40084309Y-74677000D01*
X38893750Y-74677000D01*
X38735000Y-74835750D01*
X38481000Y-74835750D01*
X38322250Y-74677000D01*
X37131691Y-74677000D01*
X36898302Y-74773673D01*
X36719673Y-74952301D01*
X36623000Y-75185690D01*
X33940216Y-75185690D01*
X34979698Y-72700730D01*
X36393802Y-69709169D01*
X37227053Y-68135431D01*
X70251000Y-68135431D01*
X70251000Y-69024569D01*
X70591259Y-69846026D01*
X71219974Y-70474741D01*
X72041431Y-70815000D01*
X72930569Y-70815000D01*
X73752026Y-70474741D01*
X74380741Y-69846026D01*
X74721000Y-69024569D01*
X74721000Y-68135431D01*
X76251000Y-68135431D01*
X76251000Y-69024569D01*
X76591259Y-69846026D01*
X77219974Y-70474741D01*
X78041431Y-70815000D01*
X78930569Y-70815000D01*
X79752026Y-70474741D01*
X80380741Y-69846026D01*
X80721000Y-69024569D01*
X80721000Y-68135431D01*
X80380741Y-67313974D01*
X79752026Y-66685259D01*
X78930569Y-66345000D01*
X78041431Y-66345000D01*
X77219974Y-66685259D01*
X76591259Y-67313974D01*
X76251000Y-68135431D01*
X74721000Y-68135431D01*
X74380741Y-67313974D01*
X73752026Y-66685259D01*
X72930569Y-66345000D01*
X72041431Y-66345000D01*
X71219974Y-66685259D01*
X70591259Y-67313974D01*
X70251000Y-68135431D01*
X37227053Y-68135431D01*
X37942158Y-66784834D01*
X39621575Y-63933749D01*
X40898355Y-61975171D01*
X57125000Y-61975171D01*
X57125000Y-63500829D01*
X57708844Y-64910353D01*
X58787647Y-65989156D01*
X60197171Y-66573000D01*
X61722829Y-66573000D01*
X63132353Y-65989156D01*
X64211156Y-64910353D01*
X64795000Y-63500829D01*
X64795000Y-61975171D01*
X64289227Y-60754126D01*
X82912000Y-60754126D01*
X82912000Y-61165874D01*
X83069569Y-61546280D01*
X83360720Y-61837431D01*
X83741126Y-61995000D01*
X83929382Y-61995000D01*
X84050462Y-62075903D01*
X84272147Y-62119999D01*
X84272151Y-62119999D01*
X84346998Y-62134887D01*
X84421845Y-62119999D01*
X84879290Y-62119999D01*
X84593569Y-62405720D01*
X84463804Y-62719000D01*
X84249126Y-62719000D01*
X83868720Y-62876569D01*
X83577569Y-63167720D01*
X83420000Y-63548126D01*
X83420000Y-63959874D01*
X83577569Y-64340280D01*
X83695000Y-64457711D01*
X83695001Y-71686288D01*
X83577569Y-71803720D01*
X83420000Y-72184126D01*
X83420000Y-72595874D01*
X83577569Y-72976280D01*
X83868720Y-73267431D01*
X84249126Y-73425000D01*
X84660874Y-73425000D01*
X84711001Y-73404237D01*
X84711001Y-73718288D01*
X84593569Y-73835720D01*
X84436000Y-74216126D01*
X84436000Y-74627874D01*
X84593569Y-75008280D01*
X84884720Y-75299431D01*
X85265126Y-75457000D01*
X85676874Y-75457000D01*
X86057280Y-75299431D01*
X86348431Y-75008280D01*
X86506000Y-74627874D01*
X86506000Y-74216126D01*
X86348431Y-73835720D01*
X86231000Y-73718289D01*
X86231000Y-73425000D01*
X86565874Y-73425000D01*
X86946280Y-73267431D01*
X87237431Y-72976280D01*
X87395000Y-72595874D01*
X87395000Y-72184126D01*
X87237431Y-71803720D01*
X87120000Y-71686289D01*
X87120000Y-64457711D01*
X87189455Y-64388256D01*
X87975852Y-65174654D01*
X88018252Y-65238110D01*
X88269644Y-65406085D01*
X88491329Y-65450181D01*
X88491333Y-65450181D01*
X88566181Y-65465069D01*
X88641029Y-65450181D01*
X89508336Y-65450181D01*
X89583183Y-65465069D01*
X89658030Y-65450181D01*
X89658035Y-65450181D01*
X89879720Y-65406085D01*
X90000800Y-65325182D01*
X90189056Y-65325182D01*
X90569462Y-65167613D01*
X90860613Y-64876462D01*
X91018182Y-64496056D01*
X91018182Y-64084308D01*
X90860613Y-63703902D01*
X90569462Y-63412751D01*
X90291217Y-63297498D01*
X104060000Y-63297498D01*
X104060000Y-64288503D01*
X104175171Y-64867508D01*
X104613896Y-65524105D01*
X105270493Y-65962829D01*
X106045000Y-66116888D01*
X106819508Y-65962829D01*
X107476105Y-65524105D01*
X107914829Y-64867508D01*
X108030000Y-64288502D01*
X108030000Y-63297497D01*
X107914829Y-62718492D01*
X107522364Y-62131126D01*
X112483000Y-62131126D01*
X112483000Y-62542874D01*
X112640569Y-62923280D01*
X112904289Y-63187000D01*
X112640569Y-63450720D01*
X112483000Y-63831126D01*
X112483000Y-64242874D01*
X112640569Y-64623280D01*
X112904289Y-64887000D01*
X112640569Y-65150720D01*
X112483000Y-65531126D01*
X112483000Y-65942874D01*
X112640569Y-66323280D01*
X112904289Y-66587000D01*
X112640569Y-66850720D01*
X112483000Y-67231126D01*
X112483000Y-67642874D01*
X112640569Y-68023280D01*
X112931720Y-68314431D01*
X113312126Y-68472000D01*
X113723874Y-68472000D01*
X114104280Y-68314431D01*
X114368000Y-68050711D01*
X114631720Y-68314431D01*
X115012126Y-68472000D01*
X115423874Y-68472000D01*
X115804280Y-68314431D01*
X116068000Y-68050711D01*
X116331720Y-68314431D01*
X116712126Y-68472000D01*
X117123874Y-68472000D01*
X117504280Y-68314431D01*
X117768000Y-68050711D01*
X118031720Y-68314431D01*
X118412126Y-68472000D01*
X118823874Y-68472000D01*
X119204280Y-68314431D01*
X119495431Y-68023280D01*
X119653000Y-67642874D01*
X119653000Y-67231126D01*
X119495431Y-66850720D01*
X119231711Y-66587000D01*
X119495431Y-66323280D01*
X119653000Y-65942874D01*
X119653000Y-65531126D01*
X119495431Y-65150720D01*
X119231711Y-64887000D01*
X119495431Y-64623280D01*
X119653000Y-64242874D01*
X119653000Y-63831126D01*
X119495431Y-63450720D01*
X119231711Y-63187000D01*
X119495431Y-62923280D01*
X119653000Y-62542874D01*
X119653000Y-62385126D01*
X128358000Y-62385126D01*
X128358000Y-62796874D01*
X128515569Y-63177280D01*
X128779289Y-63441000D01*
X128515569Y-63704720D01*
X128358000Y-64085126D01*
X128358000Y-64496874D01*
X128515569Y-64877280D01*
X128779289Y-65141000D01*
X128515569Y-65404720D01*
X128358000Y-65785126D01*
X128358000Y-66196874D01*
X128515569Y-66577280D01*
X128779289Y-66841000D01*
X128515569Y-67104720D01*
X128358000Y-67485126D01*
X128358000Y-67896874D01*
X128515569Y-68277280D01*
X128806720Y-68568431D01*
X129187126Y-68726000D01*
X129598874Y-68726000D01*
X129979280Y-68568431D01*
X130243000Y-68304711D01*
X130506720Y-68568431D01*
X130887126Y-68726000D01*
X131298874Y-68726000D01*
X131679280Y-68568431D01*
X131943000Y-68304711D01*
X132206720Y-68568431D01*
X132587126Y-68726000D01*
X132998874Y-68726000D01*
X133379280Y-68568431D01*
X133643000Y-68304711D01*
X133906720Y-68568431D01*
X134287126Y-68726000D01*
X134698874Y-68726000D01*
X135079280Y-68568431D01*
X135370431Y-68277280D01*
X135528000Y-67896874D01*
X135528000Y-67485126D01*
X135370431Y-67104720D01*
X135106711Y-66841000D01*
X135370431Y-66577280D01*
X135528000Y-66196874D01*
X135528000Y-65785126D01*
X135370431Y-65404720D01*
X135106711Y-65141000D01*
X135370431Y-64877280D01*
X135528000Y-64496874D01*
X135528000Y-64085126D01*
X135370431Y-63704720D01*
X135106711Y-63441000D01*
X135370431Y-63177280D01*
X135528000Y-62796874D01*
X135528000Y-62385126D01*
X135370431Y-62004720D01*
X135340882Y-61975171D01*
X139675000Y-61975171D01*
X139675000Y-63500829D01*
X140258844Y-64910353D01*
X141337647Y-65989156D01*
X142747171Y-66573000D01*
X144272829Y-66573000D01*
X145682353Y-65989156D01*
X146761156Y-64910353D01*
X147345000Y-63500829D01*
X147345000Y-61975171D01*
X146761156Y-60565647D01*
X145682353Y-59486844D01*
X144272829Y-58903000D01*
X142747171Y-58903000D01*
X141337647Y-59486844D01*
X140258844Y-60565647D01*
X139675000Y-61975171D01*
X135340882Y-61975171D01*
X135079280Y-61713569D01*
X134698874Y-61556000D01*
X134287126Y-61556000D01*
X133906720Y-61713569D01*
X133643000Y-61977289D01*
X133379280Y-61713569D01*
X132998874Y-61556000D01*
X132587126Y-61556000D01*
X132206720Y-61713569D01*
X131943000Y-61977289D01*
X131679280Y-61713569D01*
X131298874Y-61556000D01*
X130887126Y-61556000D01*
X130506720Y-61713569D01*
X130243000Y-61977289D01*
X129979280Y-61713569D01*
X129598874Y-61556000D01*
X129187126Y-61556000D01*
X128806720Y-61713569D01*
X128515569Y-62004720D01*
X128358000Y-62385126D01*
X119653000Y-62385126D01*
X119653000Y-62131126D01*
X119495431Y-61750720D01*
X119204280Y-61459569D01*
X118823874Y-61302000D01*
X118412126Y-61302000D01*
X118031720Y-61459569D01*
X117768000Y-61723289D01*
X117504280Y-61459569D01*
X117123874Y-61302000D01*
X116712126Y-61302000D01*
X116331720Y-61459569D01*
X116068000Y-61723289D01*
X115804280Y-61459569D01*
X115423874Y-61302000D01*
X115012126Y-61302000D01*
X114631720Y-61459569D01*
X114368000Y-61723289D01*
X114104280Y-61459569D01*
X113723874Y-61302000D01*
X113312126Y-61302000D01*
X112931720Y-61459569D01*
X112640569Y-61750720D01*
X112483000Y-62131126D01*
X107522364Y-62131126D01*
X107476105Y-62061895D01*
X106819507Y-61623171D01*
X106045000Y-61469112D01*
X105270492Y-61623171D01*
X104613895Y-62061895D01*
X104175171Y-62718493D01*
X104060000Y-63297498D01*
X90291217Y-63297498D01*
X90189056Y-63255182D01*
X89777308Y-63255182D01*
X89396902Y-63412751D01*
X89105751Y-63703902D01*
X89012023Y-63930181D01*
X88880983Y-63930181D01*
X87628000Y-62677199D01*
X87628000Y-60864750D01*
X88497000Y-60864750D01*
X88497000Y-62005310D01*
X88593673Y-62238699D01*
X88772302Y-62417327D01*
X89005691Y-62514000D01*
X90646250Y-62514000D01*
X90805000Y-62355250D01*
X90805000Y-60706000D01*
X91059000Y-60706000D01*
X91059000Y-62355250D01*
X91217750Y-62514000D01*
X92858309Y-62514000D01*
X93091698Y-62417327D01*
X93270327Y-62238699D01*
X93367000Y-62005310D01*
X93367000Y-60864750D01*
X93208250Y-60706000D01*
X91059000Y-60706000D01*
X90805000Y-60706000D01*
X88655750Y-60706000D01*
X88497000Y-60864750D01*
X87628000Y-60864750D01*
X87628000Y-60214436D01*
X87642888Y-60139588D01*
X87628000Y-60064740D01*
X87628000Y-60064736D01*
X87583904Y-59843051D01*
X87415929Y-59591659D01*
X87352473Y-59549259D01*
X86955904Y-59152690D01*
X88497000Y-59152690D01*
X88497000Y-60293250D01*
X88655750Y-60452000D01*
X90805000Y-60452000D01*
X90805000Y-58802750D01*
X91059000Y-58802750D01*
X91059000Y-60452000D01*
X93208250Y-60452000D01*
X93367000Y-60293250D01*
X93367000Y-59152690D01*
X93270327Y-58919301D01*
X93091698Y-58740673D01*
X92858309Y-58644000D01*
X91217750Y-58644000D01*
X91059000Y-58802750D01*
X90805000Y-58802750D01*
X90646250Y-58644000D01*
X89005691Y-58644000D01*
X88772302Y-58740673D01*
X88593673Y-58919301D01*
X88497000Y-59152690D01*
X86955904Y-59152690D01*
X86725537Y-58922324D01*
X86683135Y-58858865D01*
X86443644Y-58698842D01*
X85871000Y-58126199D01*
X85871000Y-57960126D01*
X85713431Y-57579720D01*
X85422280Y-57288569D01*
X85041874Y-57131000D01*
X84630126Y-57131000D01*
X84249720Y-57288569D01*
X83958569Y-57579720D01*
X83801000Y-57960126D01*
X83801000Y-58371874D01*
X83958569Y-58752280D01*
X84249720Y-59043431D01*
X84630126Y-59201000D01*
X84796199Y-59201000D01*
X85486464Y-59891266D01*
X85528865Y-59954723D01*
X85592321Y-59997123D01*
X85768360Y-60114749D01*
X86108001Y-60454391D01*
X86108001Y-60903200D01*
X86080330Y-60875529D01*
X86037928Y-60812070D01*
X85786536Y-60644095D01*
X85564851Y-60599999D01*
X85564846Y-60599999D01*
X85489999Y-60585111D01*
X85415152Y-60599999D01*
X84918159Y-60599999D01*
X84824431Y-60373720D01*
X84533280Y-60082569D01*
X84152874Y-59925000D01*
X83741126Y-59925000D01*
X83360720Y-60082569D01*
X83069569Y-60373720D01*
X82912000Y-60754126D01*
X64289227Y-60754126D01*
X64211156Y-60565647D01*
X63132353Y-59486844D01*
X61722829Y-58903000D01*
X60197171Y-58903000D01*
X58787647Y-59486844D01*
X57708844Y-60565647D01*
X57125000Y-61975171D01*
X40898355Y-61975171D01*
X41428598Y-61161781D01*
X43359505Y-58474639D01*
X44806047Y-56643000D01*
X104047560Y-56643000D01*
X104047560Y-59943000D01*
X104096843Y-60190765D01*
X104237191Y-60400809D01*
X104447235Y-60541157D01*
X104695000Y-60590440D01*
X107395000Y-60590440D01*
X107642765Y-60541157D01*
X107852809Y-60400809D01*
X107993157Y-60190765D01*
X108042440Y-59943000D01*
X108042440Y-56643000D01*
X107993157Y-56395235D01*
X107852809Y-56185191D01*
X107642765Y-56044843D01*
X107395000Y-55995560D01*
X104695000Y-55995560D01*
X104447235Y-56044843D01*
X104237191Y-56185191D01*
X104096843Y-56395235D01*
X104047560Y-56643000D01*
X44806047Y-56643000D01*
X45410322Y-55877856D01*
X47576825Y-53376776D01*
X49660538Y-51181000D01*
X101603071Y-51181000D01*
X101749369Y-51916490D01*
X102165991Y-52540009D01*
X102789510Y-52956631D01*
X103339345Y-53066000D01*
X106210655Y-53066000D01*
X106760490Y-52956631D01*
X107384009Y-52540009D01*
X107800631Y-51916490D01*
X107946929Y-51181000D01*
X107800631Y-50445510D01*
X107756191Y-50379000D01*
X119200560Y-50379000D01*
X119200560Y-51729000D01*
X119249843Y-51976765D01*
X119390191Y-52186809D01*
X119600235Y-52327157D01*
X119848000Y-52376440D01*
X121198000Y-52376440D01*
X121445765Y-52327157D01*
X121655809Y-52186809D01*
X121714842Y-52098461D01*
X121780945Y-52164564D01*
X122262425Y-52364000D01*
X122783575Y-52364000D01*
X123265055Y-52164564D01*
X123458472Y-51971147D01*
X123785458Y-51971147D01*
X123844219Y-52204328D01*
X124336100Y-52376522D01*
X124856434Y-52347375D01*
X125201781Y-52204328D01*
X125260542Y-51971147D01*
X124523000Y-51233605D01*
X123785458Y-51971147D01*
X123458472Y-51971147D01*
X123633564Y-51796055D01*
X123656350Y-51741045D01*
X124343395Y-51054000D01*
X124702605Y-51054000D01*
X125440147Y-51791542D01*
X125673328Y-51732781D01*
X125845522Y-51240900D01*
X125816375Y-50720566D01*
X125673328Y-50375219D01*
X125440147Y-50316458D01*
X124702605Y-51054000D01*
X124343395Y-51054000D01*
X123656350Y-50366955D01*
X123633564Y-50311945D01*
X123458472Y-50136853D01*
X123785458Y-50136853D01*
X124523000Y-50874395D01*
X125260542Y-50136853D01*
X125201781Y-49903672D01*
X124709900Y-49731478D01*
X124189566Y-49760625D01*
X123844219Y-49903672D01*
X123785458Y-50136853D01*
X123458472Y-50136853D01*
X123265055Y-49943436D01*
X122783575Y-49744000D01*
X122262425Y-49744000D01*
X121780945Y-49943436D01*
X121714842Y-50009539D01*
X121655809Y-49921191D01*
X121445765Y-49780843D01*
X121198000Y-49731560D01*
X119848000Y-49731560D01*
X119600235Y-49780843D01*
X119390191Y-49921191D01*
X119249843Y-50131235D01*
X119200560Y-50379000D01*
X107756191Y-50379000D01*
X107384009Y-49821991D01*
X106760490Y-49405369D01*
X106210655Y-49296000D01*
X103339345Y-49296000D01*
X102789510Y-49405369D01*
X102165991Y-49821991D01*
X101749369Y-50445510D01*
X101603071Y-51181000D01*
X49660538Y-51181000D01*
X49854554Y-50976550D01*
X52238820Y-48682120D01*
X53231532Y-47810001D01*
X57160061Y-47810001D01*
X57160061Y-49910001D01*
X57209344Y-50157766D01*
X57349692Y-50367810D01*
X57559736Y-50508158D01*
X57807501Y-50557441D01*
X59907501Y-50557441D01*
X60155266Y-50508158D01*
X60365310Y-50367810D01*
X60457927Y-50229201D01*
X60493188Y-50320746D01*
X61121027Y-50555620D01*
X61790957Y-50532350D01*
X62301814Y-50320746D01*
X62406599Y-50048704D01*
X61397501Y-49039606D01*
X61383359Y-49053749D01*
X61203754Y-48874144D01*
X61217896Y-48860001D01*
X61577106Y-48860001D01*
X62493078Y-49775973D01*
X62509027Y-49814477D01*
X62983025Y-50288475D01*
X63602334Y-50545001D01*
X64272668Y-50545001D01*
X64891977Y-50288475D01*
X65131748Y-50048704D01*
X65468403Y-50048704D01*
X65573188Y-50320746D01*
X66201027Y-50555620D01*
X66870957Y-50532350D01*
X67381814Y-50320746D01*
X67486599Y-50048704D01*
X66477501Y-49039606D01*
X65468403Y-50048704D01*
X65131748Y-50048704D01*
X65365975Y-49814477D01*
X65381924Y-49775973D01*
X66297896Y-48860001D01*
X66657106Y-48860001D01*
X67666204Y-49869099D01*
X67938246Y-49764314D01*
X68173120Y-49136475D01*
X68149850Y-48466545D01*
X67938246Y-47955688D01*
X67666204Y-47850903D01*
X66657106Y-48860001D01*
X66297896Y-48860001D01*
X65381924Y-47944029D01*
X65365975Y-47905525D01*
X65131748Y-47671298D01*
X65468403Y-47671298D01*
X66477501Y-48680396D01*
X67347896Y-47810001D01*
X68840061Y-47810001D01*
X68840061Y-49910001D01*
X68889344Y-50157766D01*
X69029692Y-50367810D01*
X69239736Y-50508158D01*
X69487501Y-50557441D01*
X71587501Y-50557441D01*
X71835266Y-50508158D01*
X72045310Y-50367810D01*
X72137927Y-50229201D01*
X72173188Y-50320746D01*
X72801027Y-50555620D01*
X73470957Y-50532350D01*
X73981814Y-50320746D01*
X74086599Y-50048704D01*
X73077501Y-49039606D01*
X73063359Y-49053749D01*
X72883754Y-48874144D01*
X72897896Y-48860001D01*
X73257106Y-48860001D01*
X74173078Y-49775973D01*
X74189027Y-49814477D01*
X74663025Y-50288475D01*
X75282334Y-50545001D01*
X75952668Y-50545001D01*
X76571977Y-50288475D01*
X76811748Y-50048704D01*
X77148403Y-50048704D01*
X77253188Y-50320746D01*
X77881027Y-50555620D01*
X78550957Y-50532350D01*
X79061814Y-50320746D01*
X79166599Y-50048704D01*
X78157501Y-49039606D01*
X77148403Y-50048704D01*
X76811748Y-50048704D01*
X77045975Y-49814477D01*
X77061924Y-49775973D01*
X77977896Y-48860001D01*
X78337106Y-48860001D01*
X79346204Y-49869099D01*
X79618246Y-49764314D01*
X79724854Y-49479341D01*
X98315000Y-49479341D01*
X98417117Y-49992717D01*
X98806111Y-50574889D01*
X99388282Y-50963883D01*
X100075000Y-51100480D01*
X100761717Y-50963883D01*
X101343889Y-50574889D01*
X101732883Y-49992718D01*
X101835000Y-49479342D01*
X101835000Y-46882658D01*
X101732883Y-46369282D01*
X101343889Y-45787111D01*
X100761718Y-45398117D01*
X100075000Y-45261520D01*
X99388283Y-45398117D01*
X98806112Y-45787111D01*
X98417118Y-46369282D01*
X98315001Y-46882658D01*
X98315000Y-49479341D01*
X79724854Y-49479341D01*
X79853120Y-49136475D01*
X79829850Y-48466545D01*
X79618246Y-47955688D01*
X79346204Y-47850903D01*
X78337106Y-48860001D01*
X77977896Y-48860001D01*
X77061924Y-47944029D01*
X77045975Y-47905525D01*
X76811748Y-47671298D01*
X77148403Y-47671298D01*
X78157501Y-48680396D01*
X79166599Y-47671298D01*
X79061814Y-47399256D01*
X78433975Y-47164382D01*
X77764045Y-47187652D01*
X77253188Y-47399256D01*
X77148403Y-47671298D01*
X76811748Y-47671298D01*
X76571977Y-47431527D01*
X75952668Y-47175001D01*
X75282334Y-47175001D01*
X74663025Y-47431527D01*
X74189027Y-47905525D01*
X74173078Y-47944029D01*
X73257106Y-48860001D01*
X72897896Y-48860001D01*
X72883754Y-48845859D01*
X73063359Y-48666254D01*
X73077501Y-48680396D01*
X74086599Y-47671298D01*
X73981814Y-47399256D01*
X73353975Y-47164382D01*
X72684045Y-47187652D01*
X72173188Y-47399256D01*
X72137927Y-47490801D01*
X72045310Y-47352192D01*
X71835266Y-47211844D01*
X71587501Y-47162561D01*
X69487501Y-47162561D01*
X69239736Y-47211844D01*
X69029692Y-47352192D01*
X68889344Y-47562236D01*
X68840061Y-47810001D01*
X67347896Y-47810001D01*
X67486599Y-47671298D01*
X67381814Y-47399256D01*
X66753975Y-47164382D01*
X66084045Y-47187652D01*
X65573188Y-47399256D01*
X65468403Y-47671298D01*
X65131748Y-47671298D01*
X64891977Y-47431527D01*
X64272668Y-47175001D01*
X63602334Y-47175001D01*
X62983025Y-47431527D01*
X62509027Y-47905525D01*
X62493078Y-47944029D01*
X61577106Y-48860001D01*
X61217896Y-48860001D01*
X61203754Y-48845859D01*
X61383359Y-48666254D01*
X61397501Y-48680396D01*
X62406599Y-47671298D01*
X62301814Y-47399256D01*
X61673975Y-47164382D01*
X61004045Y-47187652D01*
X60493188Y-47399256D01*
X60457927Y-47490801D01*
X60365310Y-47352192D01*
X60155266Y-47211844D01*
X59907501Y-47162561D01*
X57807501Y-47162561D01*
X57559736Y-47211844D01*
X57349692Y-47352192D01*
X57209344Y-47562236D01*
X57160061Y-47810001D01*
X53231532Y-47810001D01*
X54724714Y-46498209D01*
X57307117Y-44429314D01*
X58576039Y-43504000D01*
X87687560Y-43504000D01*
X87687560Y-45904000D01*
X87736843Y-46151765D01*
X87877191Y-46361809D01*
X88087235Y-46502157D01*
X88335000Y-46551440D01*
X90735000Y-46551440D01*
X90982765Y-46502157D01*
X91192809Y-46361809D01*
X91333157Y-46151765D01*
X91382440Y-45904000D01*
X91382440Y-44780957D01*
X101936067Y-44780957D01*
X102053794Y-45054000D01*
X102639951Y-45054000D01*
X102639950Y-45308000D01*
X102053794Y-45308000D01*
X101936067Y-45581043D01*
X101975371Y-45737190D01*
X102315689Y-46335705D01*
X102859144Y-46758427D01*
X103523000Y-46941000D01*
X104648000Y-46941000D01*
X104648000Y-46316050D01*
X104902000Y-46316050D01*
X104902000Y-46941000D01*
X106027000Y-46941000D01*
X106690856Y-46758427D01*
X107234311Y-46335705D01*
X107574629Y-45737190D01*
X107613933Y-45581043D01*
X107496206Y-45308000D01*
X106910050Y-45308000D01*
X106910050Y-45054000D01*
X107496206Y-45054000D01*
X107613933Y-44780957D01*
X107574629Y-44624810D01*
X107234311Y-44026295D01*
X106690856Y-43603573D01*
X106027000Y-43421000D01*
X104902000Y-43421000D01*
X104902000Y-44045950D01*
X104648000Y-44045950D01*
X104648000Y-43421000D01*
X103523000Y-43421000D01*
X102859144Y-43603573D01*
X102315689Y-44026295D01*
X101975371Y-44624810D01*
X101936067Y-44780957D01*
X91382440Y-44780957D01*
X91382440Y-43504000D01*
X91333157Y-43256235D01*
X91192809Y-43046191D01*
X90982765Y-42905843D01*
X90735000Y-42856560D01*
X88335000Y-42856560D01*
X88087235Y-42905843D01*
X87877191Y-43046191D01*
X87736843Y-43256235D01*
X87687560Y-43504000D01*
X58576039Y-43504000D01*
X59980713Y-42479694D01*
X62739998Y-40653363D01*
X65579289Y-38954082D01*
X66420428Y-38501175D01*
X88417430Y-38501175D01*
X88540565Y-38788788D01*
X89222734Y-39048707D01*
X89952443Y-39027786D01*
X90529435Y-38788788D01*
X90652570Y-38501175D01*
X89535000Y-37383605D01*
X88417430Y-38501175D01*
X66420428Y-38501175D01*
X68492743Y-37385349D01*
X69518399Y-36891734D01*
X87690293Y-36891734D01*
X87711214Y-37621443D01*
X87950212Y-38198435D01*
X88237825Y-38321570D01*
X89355395Y-37204000D01*
X89714605Y-37204000D01*
X90832175Y-38321570D01*
X91119788Y-38198435D01*
X91379707Y-37516266D01*
X91358786Y-36786557D01*
X91119788Y-36209565D01*
X90832175Y-36086430D01*
X89714605Y-37204000D01*
X89355395Y-37204000D01*
X88237825Y-36086430D01*
X87950212Y-36209565D01*
X87690293Y-36891734D01*
X69518399Y-36891734D01*
X71474359Y-35950394D01*
X71576505Y-35906825D01*
X88417430Y-35906825D01*
X89535000Y-37024395D01*
X90652570Y-35906825D01*
X90529435Y-35619212D01*
X89847266Y-35359293D01*
X89117557Y-35380214D01*
X88540565Y-35619212D01*
X88417430Y-35906825D01*
X71576505Y-35906825D01*
X74518001Y-34652171D01*
X77617400Y-33493353D01*
X80766176Y-32476326D01*
X83957846Y-31603184D01*
X87185838Y-30875725D01*
X90443508Y-30295445D01*
X93724147Y-29863541D01*
X97021001Y-29580901D01*
X100327283Y-29448107D01*
X103636186Y-29465432D01*
X103636186Y-29465432D01*
G37*
X103636186Y-29465432D02*
X106940896Y-29632842D01*
X110234609Y-29949990D01*
X113510546Y-30416225D01*
X116761960Y-31030586D01*
X119982158Y-31791809D01*
X123164510Y-32698325D01*
X126302463Y-33748270D01*
X129389557Y-34939480D01*
X132419437Y-36269505D01*
X135385863Y-37735604D01*
X138282730Y-39334760D01*
X141104071Y-41063680D01*
X143844079Y-42918805D01*
X146497113Y-44896316D01*
X149057710Y-46992140D01*
X151520598Y-49201963D01*
X153880706Y-51521235D01*
X156133176Y-53945181D01*
X158273369Y-56468810D01*
X160296880Y-59086928D01*
X162199542Y-61794142D01*
X163977439Y-64584880D01*
X165626908Y-67453396D01*
X167144556Y-70393784D01*
X168527256Y-73399990D01*
X169772162Y-76465825D01*
X170876712Y-79584976D01*
X171838630Y-82751022D01*
X172655937Y-85957444D01*
X173326950Y-89197641D01*
X173850286Y-92464942D01*
X174224870Y-95752619D01*
X174449929Y-99053904D01*
X174525000Y-102362000D01*
X174509006Y-103889226D01*
X174364672Y-107195024D01*
X174070526Y-110490872D01*
X173627172Y-113769983D01*
X173035525Y-117025607D01*
X172296802Y-120251041D01*
X171412524Y-123439644D01*
X170384512Y-126584851D01*
X169214883Y-129680186D01*
X167906043Y-132719277D01*
X166460689Y-135695866D01*
X164881796Y-138603826D01*
X163172614Y-141437169D01*
X161336663Y-144190062D01*
X159377722Y-146856836D01*
X157299825Y-149432002D01*
X155107250Y-151910257D01*
X152804511Y-154286499D01*
X150396349Y-156555836D01*
X147887723Y-158713596D01*
X145283796Y-160755335D01*
X142589930Y-162676851D01*
X139811672Y-164474187D01*
X136954742Y-166143642D01*
X134025020Y-167681780D01*
X131028541Y-169085434D01*
X127971472Y-170351713D01*
X124860108Y-171478011D01*
X121700854Y-172462009D01*
X118500216Y-173301681D01*
X115264782Y-173995298D01*
X112001215Y-174541432D01*
X108716233Y-174938958D01*
X105416600Y-175187059D01*
X102109108Y-175285223D01*
X98800569Y-175233248D01*
X95497793Y-175031242D01*
X92207581Y-174679620D01*
X88936707Y-174179105D01*
X85691904Y-173530730D01*
X82479854Y-172735828D01*
X79307170Y-171796036D01*
X76180383Y-170713289D01*
X73105932Y-169489816D01*
X70090147Y-168128137D01*
X67139235Y-166631054D01*
X64259274Y-165001650D01*
X61456192Y-163243280D01*
X58735760Y-161359564D01*
X56103580Y-159354380D01*
X54303166Y-157849000D01*
X129211857Y-157849000D01*
X129211857Y-161669000D01*
X137996143Y-161669000D01*
X137996143Y-157849000D01*
X129211857Y-157849000D01*
X54303166Y-157849000D01*
X53565071Y-157231857D01*
X51125459Y-154996365D01*
X48789767Y-152652505D01*
X46562804Y-150205105D01*
X44449155Y-147659202D01*
X42453171Y-145020038D01*
X40578962Y-142293048D01*
X38830388Y-139483845D01*
X38095995Y-138175171D01*
X57125000Y-138175171D01*
X57125000Y-139700829D01*
X57708844Y-141110353D01*
X58787647Y-142189156D01*
X60197171Y-142773000D01*
X61722829Y-142773000D01*
X63132353Y-142189156D01*
X64211156Y-141110353D01*
X64795000Y-139700829D01*
X64795000Y-139008000D01*
X79369060Y-139008000D01*
X79369060Y-141408000D01*
X79418343Y-141655765D01*
X79558691Y-141865809D01*
X79768735Y-142006157D01*
X80016500Y-142055440D01*
X82416500Y-142055440D01*
X82664265Y-142006157D01*
X82874309Y-141865809D01*
X83014657Y-141655765D01*
X83044610Y-141505175D01*
X87598930Y-141505175D01*
X87722065Y-141792788D01*
X88404234Y-142052707D01*
X89133943Y-142031786D01*
X89710935Y-141792788D01*
X89834070Y-141505175D01*
X88716500Y-140387605D01*
X87598930Y-141505175D01*
X83044610Y-141505175D01*
X83063940Y-141408000D01*
X83063940Y-139895734D01*
X86871793Y-139895734D01*
X86892714Y-140625443D01*
X87131712Y-141202435D01*
X87419325Y-141325570D01*
X88536895Y-140208000D01*
X88896105Y-140208000D01*
X90013675Y-141325570D01*
X90301288Y-141202435D01*
X90561207Y-140520266D01*
X90540286Y-139790557D01*
X90301288Y-139213565D01*
X90013675Y-139090430D01*
X88896105Y-140208000D01*
X88536895Y-140208000D01*
X87419325Y-139090430D01*
X87131712Y-139213565D01*
X86871793Y-139895734D01*
X83063940Y-139895734D01*
X83063940Y-139008000D01*
X83044611Y-138910825D01*
X87598930Y-138910825D01*
X88716500Y-140028395D01*
X89834070Y-138910825D01*
X89710935Y-138623212D01*
X89028766Y-138363293D01*
X88299057Y-138384214D01*
X87722065Y-138623212D01*
X87598930Y-138910825D01*
X83044611Y-138910825D01*
X83014657Y-138760235D01*
X82874309Y-138550191D01*
X82664265Y-138409843D01*
X82416500Y-138360560D01*
X80016500Y-138360560D01*
X79768735Y-138409843D01*
X79558691Y-138550191D01*
X79418343Y-138760235D01*
X79369060Y-139008000D01*
X64795000Y-139008000D01*
X64795000Y-138175171D01*
X139675000Y-138175171D01*
X139675000Y-139700829D01*
X140258844Y-141110353D01*
X141337647Y-142189156D01*
X142747171Y-142773000D01*
X144272829Y-142773000D01*
X145682353Y-142189156D01*
X146761156Y-141110353D01*
X147345000Y-139700829D01*
X147345000Y-138175171D01*
X146761156Y-136765647D01*
X145682353Y-135686844D01*
X144272829Y-135103000D01*
X142747171Y-135103000D01*
X141337647Y-135686844D01*
X140258844Y-136765647D01*
X139675000Y-138175171D01*
X64795000Y-138175171D01*
X64211156Y-136765647D01*
X63132353Y-135686844D01*
X61722829Y-135103000D01*
X60197171Y-135103000D01*
X58787647Y-135686844D01*
X57708844Y-136765647D01*
X57125000Y-138175171D01*
X38095995Y-138175171D01*
X37211047Y-136598214D01*
X35724274Y-133642095D01*
X34373130Y-130621574D01*
X33790951Y-129143626D01*
X46780500Y-129143626D01*
X46780500Y-129555374D01*
X46930501Y-129917509D01*
X46930500Y-132464493D01*
X46780500Y-132826626D01*
X46780500Y-133238374D01*
X46938069Y-133618780D01*
X47229220Y-133909931D01*
X47609626Y-134067500D01*
X48021374Y-134067500D01*
X48401780Y-133909931D01*
X48692931Y-133618780D01*
X48850500Y-133238374D01*
X48850500Y-132826626D01*
X48700500Y-132464493D01*
X48700500Y-129917507D01*
X48850500Y-129555374D01*
X48850500Y-129143626D01*
X48692931Y-128763220D01*
X48401780Y-128472069D01*
X48021374Y-128314500D01*
X47609626Y-128314500D01*
X47229220Y-128472069D01*
X46938069Y-128763220D01*
X46780500Y-129143626D01*
X33790951Y-129143626D01*
X33160396Y-127542871D01*
X32931049Y-126873000D01*
X39580500Y-126873000D01*
X39580500Y-127173000D01*
X39780200Y-127922959D01*
X40251696Y-128539409D01*
X40923206Y-128928501D01*
X41130177Y-128982677D01*
X41438500Y-128867829D01*
X41438500Y-126873000D01*
X41692500Y-126873000D01*
X41692500Y-128867829D01*
X42000823Y-128982677D01*
X42207794Y-128928501D01*
X42879304Y-128539409D01*
X43350800Y-127922959D01*
X43550500Y-127173000D01*
X43550500Y-126873000D01*
X43780500Y-126873000D01*
X43780500Y-127173000D01*
X43980200Y-127922959D01*
X44451696Y-128539409D01*
X45123206Y-128928501D01*
X45330177Y-128982677D01*
X45638500Y-128867829D01*
X45638500Y-126873000D01*
X45892500Y-126873000D01*
X45892500Y-128867829D01*
X46200823Y-128982677D01*
X46407794Y-128928501D01*
X47079304Y-128539409D01*
X47550800Y-127922959D01*
X47750500Y-127173000D01*
X47750500Y-126873000D01*
X47980500Y-126873000D01*
X47980500Y-127173000D01*
X48180200Y-127922959D01*
X48651696Y-128539409D01*
X49323206Y-128928501D01*
X49530177Y-128982677D01*
X49838500Y-128867829D01*
X49838500Y-126873000D01*
X50092500Y-126873000D01*
X50092500Y-128867829D01*
X50400823Y-128982677D01*
X50607794Y-128928501D01*
X51001292Y-128700497D01*
X50938569Y-128763220D01*
X50781000Y-129143626D01*
X50781000Y-129555374D01*
X50931001Y-129917509D01*
X50931000Y-132527993D01*
X50781000Y-132890126D01*
X50781000Y-133301874D01*
X50938569Y-133682280D01*
X51229720Y-133973431D01*
X51610126Y-134131000D01*
X52021874Y-134131000D01*
X52402280Y-133973431D01*
X52693431Y-133682280D01*
X52851000Y-133301874D01*
X52851000Y-132890126D01*
X52701000Y-132527993D01*
X52701000Y-129917507D01*
X52851000Y-129555374D01*
X52851000Y-129143626D01*
X56432500Y-129143626D01*
X56432500Y-129555374D01*
X56582501Y-129917509D01*
X56582500Y-132464493D01*
X56432500Y-132826626D01*
X56432500Y-133238374D01*
X56590069Y-133618780D01*
X56881220Y-133909931D01*
X57261626Y-134067500D01*
X57673374Y-134067500D01*
X58053780Y-133909931D01*
X58344931Y-133618780D01*
X58502500Y-133238374D01*
X58502500Y-132826626D01*
X58352500Y-132464493D01*
X58352500Y-130302000D01*
X59800969Y-130302000D01*
X59833000Y-130463031D01*
X59833000Y-130627222D01*
X59895833Y-130778914D01*
X59927864Y-130939945D01*
X60019081Y-131076461D01*
X60081914Y-131228153D01*
X60198014Y-131344253D01*
X60289231Y-131480769D01*
X60425747Y-131571986D01*
X60541847Y-131688086D01*
X60693539Y-131750919D01*
X60830055Y-131842136D01*
X60991086Y-131874167D01*
X61142778Y-131937000D01*
X73096222Y-131937000D01*
X73247914Y-131874167D01*
X73408945Y-131842136D01*
X73545461Y-131750919D01*
X73697153Y-131688086D01*
X73813253Y-131571986D01*
X73867596Y-131535675D01*
X119207930Y-131535675D01*
X119331065Y-131823288D01*
X120013234Y-132083207D01*
X120742943Y-132062286D01*
X121319935Y-131823288D01*
X121443070Y-131535675D01*
X120325500Y-130418105D01*
X119207930Y-131535675D01*
X73867596Y-131535675D01*
X73949769Y-131480769D01*
X74040986Y-131344253D01*
X74157086Y-131228153D01*
X74219919Y-131076461D01*
X74311136Y-130939945D01*
X74343167Y-130778914D01*
X74406000Y-130627222D01*
X74406000Y-130463031D01*
X74438031Y-130302000D01*
X74406000Y-130140969D01*
X74406000Y-129976778D01*
X74385064Y-129926234D01*
X118480793Y-129926234D01*
X118501714Y-130655943D01*
X118740712Y-131232935D01*
X119028325Y-131356070D01*
X120145895Y-130238500D01*
X120505105Y-130238500D01*
X121622675Y-131356070D01*
X121910288Y-131232935D01*
X122170207Y-130550766D01*
X122149286Y-129821057D01*
X121910288Y-129244065D01*
X121622675Y-129120930D01*
X120505105Y-130238500D01*
X120145895Y-130238500D01*
X119028325Y-129120930D01*
X118740712Y-129244065D01*
X118480793Y-129926234D01*
X74385064Y-129926234D01*
X74343167Y-129825086D01*
X74311136Y-129664055D01*
X74219919Y-129527539D01*
X74157086Y-129375847D01*
X74040986Y-129259747D01*
X73949769Y-129123231D01*
X73813253Y-129032014D01*
X73722564Y-128941325D01*
X119207930Y-128941325D01*
X120325500Y-130058895D01*
X121345895Y-129038500D01*
X125978060Y-129038500D01*
X125978060Y-131438500D01*
X126027343Y-131686265D01*
X126167691Y-131896309D01*
X126377735Y-132036657D01*
X126625500Y-132085940D01*
X129025500Y-132085940D01*
X129273265Y-132036657D01*
X129483309Y-131896309D01*
X129623657Y-131686265D01*
X129672940Y-131438500D01*
X129672940Y-129038500D01*
X129623657Y-128790735D01*
X129483309Y-128580691D01*
X129273265Y-128440343D01*
X129025500Y-128391060D01*
X126625500Y-128391060D01*
X126377735Y-128440343D01*
X126167691Y-128580691D01*
X126027343Y-128790735D01*
X125978060Y-129038500D01*
X121345895Y-129038500D01*
X121443070Y-128941325D01*
X121319935Y-128653712D01*
X120637766Y-128393793D01*
X119908057Y-128414714D01*
X119331065Y-128653712D01*
X119207930Y-128941325D01*
X73722564Y-128941325D01*
X73697153Y-128915914D01*
X73545461Y-128853081D01*
X73408945Y-128761864D01*
X73247914Y-128729833D01*
X73096222Y-128667000D01*
X61142778Y-128667000D01*
X60991086Y-128729833D01*
X60830055Y-128761864D01*
X60693539Y-128853081D01*
X60541847Y-128915914D01*
X60425747Y-129032014D01*
X60289231Y-129123231D01*
X60198014Y-129259747D01*
X60081914Y-129375847D01*
X60019081Y-129527539D01*
X59927864Y-129664055D01*
X59895833Y-129825086D01*
X59833000Y-129976778D01*
X59833000Y-130140969D01*
X59800969Y-130302000D01*
X58352500Y-130302000D01*
X58352500Y-129917507D01*
X58502500Y-129555374D01*
X58502500Y-129143626D01*
X58344931Y-128763220D01*
X58053780Y-128472069D01*
X57673374Y-128314500D01*
X57261626Y-128314500D01*
X56881220Y-128472069D01*
X56590069Y-128763220D01*
X56432500Y-129143626D01*
X52851000Y-129143626D01*
X52804349Y-129031000D01*
X53879750Y-129031000D01*
X54038500Y-128872250D01*
X54038500Y-126873000D01*
X54292500Y-126873000D01*
X54292500Y-128872250D01*
X54451250Y-129031000D01*
X55641809Y-129031000D01*
X55875198Y-128934327D01*
X56053827Y-128755699D01*
X56150500Y-128522310D01*
X56150500Y-127031750D01*
X55991750Y-126873000D01*
X54292500Y-126873000D01*
X54038500Y-126873000D01*
X52339250Y-126873000D01*
X52180500Y-127031750D01*
X52180500Y-128380205D01*
X52021874Y-128314500D01*
X51610126Y-128314500D01*
X51377688Y-128410779D01*
X51750800Y-127922959D01*
X51950500Y-127173000D01*
X51950500Y-126873000D01*
X50092500Y-126873000D01*
X49838500Y-126873000D01*
X47980500Y-126873000D01*
X47750500Y-126873000D01*
X45892500Y-126873000D01*
X45638500Y-126873000D01*
X43780500Y-126873000D01*
X43550500Y-126873000D01*
X41692500Y-126873000D01*
X41438500Y-126873000D01*
X39580500Y-126873000D01*
X32931049Y-126873000D01*
X32741373Y-126319000D01*
X39580500Y-126319000D01*
X39580500Y-126619000D01*
X41438500Y-126619000D01*
X41438500Y-124624171D01*
X41692500Y-124624171D01*
X41692500Y-126619000D01*
X43550500Y-126619000D01*
X43550500Y-126319000D01*
X43780500Y-126319000D01*
X43780500Y-126619000D01*
X45638500Y-126619000D01*
X45638500Y-124624171D01*
X45892500Y-124624171D01*
X45892500Y-126619000D01*
X47750500Y-126619000D01*
X47750500Y-126319000D01*
X47980500Y-126319000D01*
X47980500Y-126619000D01*
X49838500Y-126619000D01*
X49838500Y-124624171D01*
X50092500Y-124624171D01*
X50092500Y-126619000D01*
X51950500Y-126619000D01*
X51950500Y-126319000D01*
X51750800Y-125569041D01*
X51292383Y-124969690D01*
X52180500Y-124969690D01*
X52180500Y-126460250D01*
X52339250Y-126619000D01*
X54038500Y-126619000D01*
X54038500Y-124619750D01*
X53879750Y-124461000D01*
X52689191Y-124461000D01*
X52455802Y-124557673D01*
X52277173Y-124736301D01*
X52180500Y-124969690D01*
X51292383Y-124969690D01*
X51279304Y-124952591D01*
X50607794Y-124563499D01*
X50400823Y-124509323D01*
X50092500Y-124624171D01*
X49838500Y-124624171D01*
X49530177Y-124509323D01*
X49323206Y-124563499D01*
X48651696Y-124952591D01*
X48180200Y-125569041D01*
X47980500Y-126319000D01*
X47750500Y-126319000D01*
X47550800Y-125569041D01*
X47079304Y-124952591D01*
X46407794Y-124563499D01*
X46200823Y-124509323D01*
X45892500Y-124624171D01*
X45638500Y-124624171D01*
X45330177Y-124509323D01*
X45123206Y-124563499D01*
X44451696Y-124952591D01*
X43980200Y-125569041D01*
X43780500Y-126319000D01*
X43550500Y-126319000D01*
X43350800Y-125569041D01*
X42879304Y-124952591D01*
X42207794Y-124563499D01*
X42000823Y-124509323D01*
X41692500Y-124624171D01*
X41438500Y-124624171D01*
X41130177Y-124509323D01*
X40923206Y-124563499D01*
X40251696Y-124952591D01*
X39780200Y-125569041D01*
X39580500Y-126319000D01*
X32741373Y-126319000D01*
X32088571Y-124412324D01*
X31173002Y-121281322D01*
X34730500Y-121281322D01*
X34730500Y-122130678D01*
X35055534Y-122915380D01*
X35656120Y-123515966D01*
X36440822Y-123841000D01*
X37290178Y-123841000D01*
X38074880Y-123515966D01*
X38675466Y-122915380D01*
X39000500Y-122130678D01*
X39000500Y-121281322D01*
X38780626Y-120750497D01*
X39580500Y-120750497D01*
X39580500Y-121741502D01*
X39695671Y-122320507D01*
X40134395Y-122977105D01*
X40790992Y-123415829D01*
X41565500Y-123569888D01*
X42340007Y-123415829D01*
X42996605Y-122977105D01*
X43435329Y-122320508D01*
X43550500Y-121741503D01*
X43550500Y-120750498D01*
X43550500Y-120750497D01*
X43780500Y-120750497D01*
X43780500Y-121741502D01*
X43895671Y-122320507D01*
X44334395Y-122977105D01*
X44990992Y-123415829D01*
X45765500Y-123569888D01*
X46540007Y-123415829D01*
X47196605Y-122977105D01*
X47635329Y-122320508D01*
X47750500Y-121741503D01*
X47750500Y-120750498D01*
X47668500Y-120338255D01*
X47668500Y-119970292D01*
X48024793Y-119614000D01*
X48468176Y-119614000D01*
X48095671Y-120171492D01*
X47980500Y-120750497D01*
X47980500Y-121741502D01*
X48095671Y-122320507D01*
X48534395Y-122977105D01*
X49190992Y-123415829D01*
X49965500Y-123569888D01*
X50740007Y-123415829D01*
X51396605Y-122977105D01*
X51835329Y-122320508D01*
X51950500Y-121741503D01*
X51950500Y-120750498D01*
X51835329Y-120171492D01*
X51462825Y-119614000D01*
X52668176Y-119614000D01*
X52295671Y-120171492D01*
X52180500Y-120750497D01*
X52180500Y-121741502D01*
X52295671Y-122320507D01*
X52734395Y-122977105D01*
X53390992Y-123415829D01*
X54052091Y-123547330D01*
X54965761Y-124461000D01*
X54451250Y-124461000D01*
X54292500Y-124619750D01*
X54292500Y-126619000D01*
X55991750Y-126619000D01*
X56150500Y-126460250D01*
X56150500Y-125645739D01*
X56451514Y-125946753D01*
X56542731Y-126083269D01*
X57083555Y-126444636D01*
X57560469Y-126539500D01*
X57560470Y-126539500D01*
X57721500Y-126571531D01*
X57882530Y-126539500D01*
X60735470Y-126539500D01*
X60896500Y-126571531D01*
X61057530Y-126539500D01*
X61057531Y-126539500D01*
X61534445Y-126444636D01*
X62075269Y-126083269D01*
X62166488Y-125946750D01*
X63145252Y-124967987D01*
X63281769Y-124876769D01*
X63559577Y-124461000D01*
X63643136Y-124335946D01*
X63770031Y-123698000D01*
X63738000Y-123536969D01*
X63738000Y-121983431D01*
X80284000Y-121983431D01*
X80284000Y-122872569D01*
X80624259Y-123694026D01*
X81252974Y-124322741D01*
X82074431Y-124663000D01*
X82963569Y-124663000D01*
X83785026Y-124322741D01*
X84413741Y-123694026D01*
X84754000Y-122872569D01*
X84754000Y-121983431D01*
X86284000Y-121983431D01*
X86284000Y-122872569D01*
X86624259Y-123694026D01*
X87252974Y-124322741D01*
X88074431Y-124663000D01*
X88963569Y-124663000D01*
X89785026Y-124322741D01*
X90413741Y-123694026D01*
X90754000Y-122872569D01*
X90754000Y-121983431D01*
X90740878Y-121951750D01*
X97887000Y-121951750D01*
X97887000Y-123592309D01*
X97983673Y-123825698D01*
X98162301Y-124004327D01*
X98395690Y-124101000D01*
X99536250Y-124101000D01*
X99695000Y-123942250D01*
X99695000Y-121793000D01*
X99949000Y-121793000D01*
X99949000Y-123942250D01*
X100107750Y-124101000D01*
X101248310Y-124101000D01*
X101481699Y-124004327D01*
X101660327Y-123825698D01*
X101757000Y-123592309D01*
X101757000Y-121951750D01*
X101598250Y-121793000D01*
X99949000Y-121793000D01*
X99695000Y-121793000D01*
X98045750Y-121793000D01*
X97887000Y-121951750D01*
X90740878Y-121951750D01*
X90413741Y-121161974D01*
X89785026Y-120533259D01*
X88963569Y-120193000D01*
X88074431Y-120193000D01*
X87252974Y-120533259D01*
X86624259Y-121161974D01*
X86284000Y-121983431D01*
X84754000Y-121983431D01*
X84413741Y-121161974D01*
X83785026Y-120533259D01*
X82963569Y-120193000D01*
X82074431Y-120193000D01*
X81252974Y-120533259D01*
X80624259Y-121161974D01*
X80284000Y-121983431D01*
X63738000Y-121983431D01*
X63738000Y-118539126D01*
X92056000Y-118539126D01*
X92056000Y-118950874D01*
X92213569Y-119331280D01*
X92504720Y-119622431D01*
X92885126Y-119780000D01*
X93050187Y-119780000D01*
X93090550Y-119840408D01*
X93341942Y-120008383D01*
X93563627Y-120052479D01*
X93563631Y-120052479D01*
X93638479Y-120067367D01*
X93713327Y-120052479D01*
X95068287Y-120052479D01*
X95185718Y-120169910D01*
X95566124Y-120327479D01*
X95977872Y-120327479D01*
X96358278Y-120169910D01*
X96649429Y-119878759D01*
X96707032Y-119739691D01*
X97887000Y-119739691D01*
X97887000Y-121380250D01*
X98045750Y-121539000D01*
X99695000Y-121539000D01*
X99695000Y-119389750D01*
X99949000Y-119389750D01*
X99949000Y-121539000D01*
X101598250Y-121539000D01*
X101757000Y-121380250D01*
X101757000Y-120316000D01*
X148578560Y-120316000D01*
X148578560Y-123016000D01*
X148627843Y-123263765D01*
X148768191Y-123473809D01*
X148978235Y-123614157D01*
X149226000Y-123663440D01*
X152526000Y-123663440D01*
X152773765Y-123614157D01*
X152983809Y-123473809D01*
X153124157Y-123263765D01*
X153173440Y-123016000D01*
X153173440Y-121666000D01*
X154052112Y-121666000D01*
X154206171Y-122440508D01*
X154644895Y-123097105D01*
X155301492Y-123535829D01*
X155880497Y-123651000D01*
X156871503Y-123651000D01*
X157450508Y-123535829D01*
X158107105Y-123097105D01*
X158545829Y-122440508D01*
X158699888Y-121666000D01*
X158545829Y-120891492D01*
X158107105Y-120234895D01*
X157450508Y-119796171D01*
X156871503Y-119681000D01*
X155880497Y-119681000D01*
X155301492Y-119796171D01*
X154644895Y-120234895D01*
X154206171Y-120891492D01*
X154052112Y-121666000D01*
X153173440Y-121666000D01*
X153173440Y-120316000D01*
X153124157Y-120068235D01*
X152983809Y-119858191D01*
X152773765Y-119717843D01*
X152526000Y-119668560D01*
X149226000Y-119668560D01*
X148978235Y-119717843D01*
X148768191Y-119858191D01*
X148627843Y-120068235D01*
X148578560Y-120316000D01*
X101757000Y-120316000D01*
X101757000Y-119739691D01*
X101660327Y-119506302D01*
X101481699Y-119327673D01*
X101248310Y-119231000D01*
X100107750Y-119231000D01*
X99949000Y-119389750D01*
X99695000Y-119389750D01*
X99536250Y-119231000D01*
X98395690Y-119231000D01*
X98162301Y-119327673D01*
X97983673Y-119506302D01*
X97887000Y-119739691D01*
X96707032Y-119739691D01*
X96806998Y-119498353D01*
X96806998Y-119086605D01*
X96649429Y-118706199D01*
X96358278Y-118415048D01*
X95977872Y-118257479D01*
X95566124Y-118257479D01*
X95185718Y-118415048D01*
X95068287Y-118532479D01*
X94123247Y-118532479D01*
X93968431Y-118158720D01*
X93677280Y-117867569D01*
X93296874Y-117710000D01*
X92885126Y-117710000D01*
X92504720Y-117867569D01*
X92213569Y-118158720D01*
X92056000Y-118539126D01*
X63738000Y-118539126D01*
X63738000Y-117526242D01*
X63770031Y-117365212D01*
X63702479Y-117025607D01*
X63643136Y-116727268D01*
X63281769Y-116186444D01*
X63166500Y-116109424D01*
X63166500Y-115618126D01*
X97644000Y-115618126D01*
X97644000Y-116029874D01*
X97801569Y-116410280D01*
X98092720Y-116701431D01*
X98473126Y-116859000D01*
X98884874Y-116859000D01*
X99265280Y-116701431D01*
X99382711Y-116584000D01*
X102039289Y-116584000D01*
X102156720Y-116701431D01*
X102537126Y-116859000D01*
X102948874Y-116859000D01*
X103329280Y-116701431D01*
X103620431Y-116410280D01*
X103778000Y-116029874D01*
X103778000Y-115618126D01*
X103620431Y-115237720D01*
X103329280Y-114946569D01*
X102948874Y-114789000D01*
X102537126Y-114789000D01*
X102156720Y-114946569D01*
X102039289Y-115064000D01*
X99382711Y-115064000D01*
X99265280Y-114946569D01*
X98884874Y-114789000D01*
X98473126Y-114789000D01*
X98092720Y-114946569D01*
X97801569Y-115237720D01*
X97644000Y-115618126D01*
X63166500Y-115618126D01*
X63166500Y-110030126D01*
X97136000Y-110030126D01*
X97136000Y-110441874D01*
X97293569Y-110822280D01*
X97584720Y-111113431D01*
X97965126Y-111271000D01*
X98376874Y-111271000D01*
X98757280Y-111113431D01*
X98874711Y-110996000D01*
X99616983Y-110996000D01*
X99739067Y-111118084D01*
X100119473Y-111275653D01*
X100531221Y-111275653D01*
X100911627Y-111118084D01*
X101202778Y-110826933D01*
X101360347Y-110446527D01*
X101360347Y-110034779D01*
X101202778Y-109654373D01*
X100911627Y-109363222D01*
X100531221Y-109205653D01*
X100119473Y-109205653D01*
X99739067Y-109363222D01*
X99626289Y-109476000D01*
X98874711Y-109476000D01*
X98757280Y-109358569D01*
X98376874Y-109201000D01*
X97965126Y-109201000D01*
X97584720Y-109358569D01*
X97293569Y-109649720D01*
X97136000Y-110030126D01*
X63166500Y-110030126D01*
X63166500Y-106619746D01*
X159092900Y-106619746D01*
X159092900Y-107807054D01*
X159547263Y-108903984D01*
X160386816Y-109743537D01*
X161483746Y-110197900D01*
X162671054Y-110197900D01*
X163767984Y-109743537D01*
X164607537Y-108903984D01*
X165061900Y-107807054D01*
X165061900Y-106619746D01*
X164607537Y-105522816D01*
X163767984Y-104683263D01*
X162671054Y-104228900D01*
X161483746Y-104228900D01*
X160386816Y-104683263D01*
X159547263Y-105522816D01*
X159092900Y-106619746D01*
X63166500Y-106619746D01*
X63166500Y-105783278D01*
X62917586Y-105182347D01*
X62457653Y-104722414D01*
X61856722Y-104473500D01*
X61206278Y-104473500D01*
X60605347Y-104722414D01*
X60145414Y-105182347D01*
X59896500Y-105783278D01*
X59896500Y-106433722D01*
X59896501Y-106433724D01*
X59896500Y-115054278D01*
X59896500Y-116632683D01*
X59864469Y-116793713D01*
X59896500Y-116954743D01*
X59896500Y-116954744D01*
X59991365Y-117431658D01*
X60352732Y-117972482D01*
X60468000Y-118049502D01*
X60468000Y-120289154D01*
X60074880Y-119896034D01*
X59290178Y-119571000D01*
X58440822Y-119571000D01*
X57656120Y-119896034D01*
X57055534Y-120496620D01*
X56730500Y-121281322D01*
X56730500Y-121601262D01*
X56150500Y-121021262D01*
X56150500Y-120750498D01*
X56035329Y-120171492D01*
X55662825Y-119614000D01*
X56764155Y-119614000D01*
X57313990Y-119504631D01*
X57937509Y-119088009D01*
X58354131Y-118464490D01*
X58500429Y-117729000D01*
X58354131Y-116993510D01*
X57937509Y-116369991D01*
X57313990Y-115953369D01*
X56764155Y-115844000D01*
X47429653Y-115844000D01*
X47244000Y-115807071D01*
X47058346Y-115844000D01*
X47058345Y-115844000D01*
X46508510Y-115953369D01*
X46394012Y-116029874D01*
X46042381Y-116264826D01*
X46042380Y-116264827D01*
X45884991Y-116369991D01*
X45779827Y-116527380D01*
X44581882Y-117725325D01*
X44424491Y-117830491D01*
X44007869Y-118454011D01*
X43898500Y-119003846D01*
X43898500Y-119003850D01*
X43861572Y-119189500D01*
X43898500Y-119375150D01*
X43898500Y-120167257D01*
X43895671Y-120171492D01*
X43780500Y-120750497D01*
X43550500Y-120750497D01*
X43435329Y-120171492D01*
X42996605Y-119514895D01*
X42340008Y-119076171D01*
X41565500Y-118922112D01*
X40790993Y-119076171D01*
X40134396Y-119514895D01*
X39695671Y-120171492D01*
X39580500Y-120750497D01*
X38780626Y-120750497D01*
X38675466Y-120496620D01*
X38074880Y-119896034D01*
X37290178Y-119571000D01*
X36440822Y-119571000D01*
X35656120Y-119896034D01*
X35055534Y-120496620D01*
X34730500Y-121281322D01*
X31173002Y-121281322D01*
X31159859Y-121236379D01*
X30376174Y-118021574D01*
X29739129Y-114774528D01*
X29250035Y-111501926D01*
X28909900Y-108210507D01*
X28818178Y-106619746D01*
X36868100Y-106619746D01*
X36868100Y-107807054D01*
X37322463Y-108903984D01*
X38162016Y-109743537D01*
X39258946Y-110197900D01*
X40446254Y-110197900D01*
X41543184Y-109743537D01*
X42382737Y-108903984D01*
X42837100Y-107807054D01*
X42837100Y-106619746D01*
X42382737Y-105522816D01*
X41543184Y-104683263D01*
X40446254Y-104228900D01*
X39258946Y-104228900D01*
X38162016Y-104683263D01*
X37322463Y-105522816D01*
X36868100Y-106619746D01*
X28818178Y-106619746D01*
X28719424Y-104907046D01*
X28678999Y-101598345D01*
X28788707Y-98291217D01*
X28976825Y-95900946D01*
X36868100Y-95900946D01*
X36868100Y-97088254D01*
X37322463Y-98185184D01*
X38162016Y-99024737D01*
X39258946Y-99479100D01*
X40446254Y-99479100D01*
X41543184Y-99024737D01*
X42382737Y-98185184D01*
X42837100Y-97088254D01*
X42837100Y-96110126D01*
X45149000Y-96110126D01*
X45149000Y-96521874D01*
X45247842Y-96760500D01*
X45149000Y-96999126D01*
X45149000Y-97410874D01*
X45252398Y-97660500D01*
X45149000Y-97910126D01*
X45149000Y-98321874D01*
X45250120Y-98566000D01*
X45149000Y-98810126D01*
X45149000Y-99221874D01*
X45306569Y-99602280D01*
X45597720Y-99893431D01*
X45978126Y-100051000D01*
X46389874Y-100051000D01*
X46734750Y-99908148D01*
X47079626Y-100051000D01*
X47491374Y-100051000D01*
X47871780Y-99893431D01*
X48162931Y-99602280D01*
X48320500Y-99221874D01*
X48320500Y-98810126D01*
X48219380Y-98566000D01*
X48320500Y-98321874D01*
X48320500Y-97910126D01*
X48217102Y-97660500D01*
X48320500Y-97410874D01*
X48320500Y-96999126D01*
X48221658Y-96760500D01*
X48320500Y-96521874D01*
X48320500Y-96110126D01*
X48233855Y-95900946D01*
X159092900Y-95900946D01*
X159092900Y-97088254D01*
X159547263Y-98185184D01*
X160386816Y-99024737D01*
X161483746Y-99479100D01*
X162671054Y-99479100D01*
X163767984Y-99024737D01*
X164607537Y-98185184D01*
X165061900Y-97088254D01*
X165061900Y-95900946D01*
X164607537Y-94804016D01*
X163767984Y-93964463D01*
X162671054Y-93510100D01*
X161483746Y-93510100D01*
X160386816Y-93964463D01*
X159547263Y-94804016D01*
X159092900Y-95900946D01*
X48233855Y-95900946D01*
X48162931Y-95729720D01*
X47871780Y-95438569D01*
X47491374Y-95281000D01*
X47079626Y-95281000D01*
X46734750Y-95423852D01*
X46389874Y-95281000D01*
X45978126Y-95281000D01*
X45597720Y-95438569D01*
X45306569Y-95729720D01*
X45149000Y-96110126D01*
X42837100Y-96110126D01*
X42837100Y-95900946D01*
X42382737Y-94804016D01*
X41543184Y-93964463D01*
X40446254Y-93510100D01*
X39258946Y-93510100D01*
X38162016Y-93964463D01*
X37322463Y-94804016D01*
X36868100Y-95900946D01*
X28976825Y-95900946D01*
X29048324Y-94992470D01*
X29457315Y-91708895D01*
X30014838Y-88447254D01*
X30719744Y-85214261D01*
X31570583Y-82016574D01*
X31586371Y-81966498D01*
X36623000Y-81966498D01*
X36623000Y-82957503D01*
X36738171Y-83536508D01*
X37176896Y-84193105D01*
X37833493Y-84631829D01*
X38608000Y-84785888D01*
X39382508Y-84631829D01*
X40039105Y-84193105D01*
X40477829Y-83536508D01*
X40593000Y-82957502D01*
X40593000Y-81966498D01*
X40823000Y-81966498D01*
X40823000Y-82957503D01*
X40938171Y-83536508D01*
X41376896Y-84193105D01*
X42033493Y-84631829D01*
X42808000Y-84785888D01*
X43582508Y-84631829D01*
X44239105Y-84193105D01*
X44677829Y-83536508D01*
X44793000Y-82957502D01*
X44793000Y-81966498D01*
X47799000Y-81966498D01*
X47799000Y-82957503D01*
X47914171Y-83536508D01*
X48352896Y-84193105D01*
X48807404Y-84496797D01*
X48768017Y-84555744D01*
X48651914Y-84671847D01*
X48589079Y-84823543D01*
X48497865Y-84960055D01*
X48465835Y-85121081D01*
X48403000Y-85272778D01*
X48403000Y-85923222D01*
X48403001Y-85923224D01*
X48403000Y-91622778D01*
X48403000Y-92273222D01*
X48465833Y-92424915D01*
X48497864Y-92585944D01*
X48589080Y-92722459D01*
X48651914Y-92874153D01*
X48768014Y-92990253D01*
X48859231Y-93126769D01*
X48995747Y-93217986D01*
X49111847Y-93334086D01*
X49263539Y-93396919D01*
X49400055Y-93488136D01*
X49561086Y-93520167D01*
X49712778Y-93583000D01*
X49876969Y-93583000D01*
X50038000Y-93615031D01*
X50199031Y-93583000D01*
X50363222Y-93583000D01*
X50514915Y-93520167D01*
X50675944Y-93488136D01*
X50812459Y-93396920D01*
X50964153Y-93334086D01*
X51080253Y-93217986D01*
X51216769Y-93126769D01*
X51307986Y-92990253D01*
X51424086Y-92874153D01*
X51486919Y-92722461D01*
X51578136Y-92585945D01*
X51610167Y-92424914D01*
X51673000Y-92273222D01*
X51673000Y-85272778D01*
X51610167Y-85121086D01*
X51578136Y-84960055D01*
X51486919Y-84823539D01*
X51424086Y-84671847D01*
X51307986Y-84555747D01*
X51216769Y-84419231D01*
X51080253Y-84328014D01*
X51053395Y-84301156D01*
X51215105Y-84193105D01*
X51653829Y-83536508D01*
X51769000Y-82957502D01*
X51769000Y-81966498D01*
X51999000Y-81966498D01*
X51999000Y-82957503D01*
X52114171Y-83536508D01*
X52552896Y-84193105D01*
X53209493Y-84631829D01*
X53984000Y-84785888D01*
X54758508Y-84631829D01*
X54869162Y-84557892D01*
X62566514Y-84557892D01*
X62812817Y-85082358D01*
X63241076Y-85472645D01*
X63651110Y-85642476D01*
X63881000Y-85521155D01*
X63881000Y-84328000D01*
X62687181Y-84328000D01*
X62566514Y-84557892D01*
X54869162Y-84557892D01*
X55415105Y-84193105D01*
X55648297Y-83844108D01*
X62566514Y-83844108D01*
X62687181Y-84074000D01*
X63881000Y-84074000D01*
X63881000Y-82880845D01*
X64135000Y-82880845D01*
X64135000Y-84074000D01*
X64155000Y-84074000D01*
X64155000Y-84328000D01*
X64135000Y-84328000D01*
X64135000Y-85521155D01*
X64364890Y-85642476D01*
X64774924Y-85472645D01*
X65079261Y-85195292D01*
X65099843Y-85298765D01*
X65240191Y-85508809D01*
X65450235Y-85649157D01*
X65698000Y-85698440D01*
X67398000Y-85698440D01*
X67645765Y-85649157D01*
X67855809Y-85508809D01*
X67996157Y-85298765D01*
X68045440Y-85051000D01*
X68045440Y-83351000D01*
X67996157Y-83103235D01*
X67855809Y-82893191D01*
X67645765Y-82752843D01*
X67398000Y-82703560D01*
X65698000Y-82703560D01*
X65450235Y-82752843D01*
X65240191Y-82893191D01*
X65099843Y-83103235D01*
X65079261Y-83206708D01*
X64774924Y-82929355D01*
X64364890Y-82759524D01*
X64135000Y-82880845D01*
X63881000Y-82880845D01*
X63651110Y-82759524D01*
X63241076Y-82929355D01*
X62812817Y-83319642D01*
X62566514Y-83844108D01*
X55648297Y-83844108D01*
X55853829Y-83536508D01*
X55969000Y-82957502D01*
X55969000Y-82302500D01*
X79623060Y-82302500D01*
X79623060Y-84702500D01*
X79672343Y-84950265D01*
X79812691Y-85160309D01*
X80022735Y-85300657D01*
X80270500Y-85349940D01*
X82670500Y-85349940D01*
X82918265Y-85300657D01*
X83128309Y-85160309D01*
X83268657Y-84950265D01*
X83298610Y-84799675D01*
X87852930Y-84799675D01*
X87976065Y-85087288D01*
X88658234Y-85347207D01*
X89387943Y-85326286D01*
X89964935Y-85087288D01*
X90088070Y-84799675D01*
X88970500Y-83682105D01*
X87852930Y-84799675D01*
X83298610Y-84799675D01*
X83317940Y-84702500D01*
X83317940Y-83190234D01*
X87125793Y-83190234D01*
X87146714Y-83919943D01*
X87385712Y-84496935D01*
X87673325Y-84620070D01*
X88790895Y-83502500D01*
X89150105Y-83502500D01*
X90267675Y-84620070D01*
X90555288Y-84496935D01*
X90815207Y-83814766D01*
X90794286Y-83085057D01*
X90555288Y-82508065D01*
X90267675Y-82384930D01*
X89150105Y-83502500D01*
X88790895Y-83502500D01*
X87673325Y-82384930D01*
X87385712Y-82508065D01*
X87125793Y-83190234D01*
X83317940Y-83190234D01*
X83317940Y-82302500D01*
X83298611Y-82205325D01*
X87852930Y-82205325D01*
X88970500Y-83322895D01*
X90088070Y-82205325D01*
X89964935Y-81917712D01*
X89282766Y-81657793D01*
X88553057Y-81678714D01*
X87976065Y-81917712D01*
X87852930Y-82205325D01*
X83298611Y-82205325D01*
X83268657Y-82054735D01*
X83128309Y-81844691D01*
X82918265Y-81704343D01*
X82670500Y-81655060D01*
X80270500Y-81655060D01*
X80022735Y-81704343D01*
X79812691Y-81844691D01*
X79672343Y-82054735D01*
X79623060Y-82302500D01*
X55969000Y-82302500D01*
X55969000Y-81966497D01*
X55853829Y-81387492D01*
X55443239Y-80773000D01*
X122208560Y-80773000D01*
X122208560Y-84073000D01*
X122257843Y-84320765D01*
X122398191Y-84530809D01*
X122608235Y-84671157D01*
X122856000Y-84720440D01*
X125556000Y-84720440D01*
X125803765Y-84671157D01*
X126013809Y-84530809D01*
X126154157Y-84320765D01*
X126203440Y-84073000D01*
X126203440Y-80773000D01*
X139353560Y-80773000D01*
X139353560Y-84073000D01*
X139402843Y-84320765D01*
X139543191Y-84530809D01*
X139753235Y-84671157D01*
X140001000Y-84720440D01*
X142701000Y-84720440D01*
X142948765Y-84671157D01*
X143158809Y-84530809D01*
X143299157Y-84320765D01*
X143348440Y-84073000D01*
X143348440Y-80773000D01*
X143299157Y-80525235D01*
X143158809Y-80315191D01*
X142948765Y-80174843D01*
X142701000Y-80125560D01*
X140001000Y-80125560D01*
X139753235Y-80174843D01*
X139543191Y-80315191D01*
X139402843Y-80525235D01*
X139353560Y-80773000D01*
X126203440Y-80773000D01*
X126154157Y-80525235D01*
X126013809Y-80315191D01*
X125803765Y-80174843D01*
X125556000Y-80125560D01*
X122856000Y-80125560D01*
X122608235Y-80174843D01*
X122398191Y-80315191D01*
X122257843Y-80525235D01*
X122208560Y-80773000D01*
X55443239Y-80773000D01*
X55415105Y-80730895D01*
X54758507Y-80292171D01*
X53984000Y-80138112D01*
X53209492Y-80292171D01*
X52552895Y-80730895D01*
X52114171Y-81387493D01*
X51999000Y-81966498D01*
X51769000Y-81966498D01*
X51769000Y-81966497D01*
X51653829Y-81387492D01*
X51215105Y-80730895D01*
X50558507Y-80292171D01*
X49784000Y-80138112D01*
X49009492Y-80292171D01*
X48352895Y-80730895D01*
X47914171Y-81387493D01*
X47799000Y-81966498D01*
X44793000Y-81966498D01*
X44793000Y-81966497D01*
X44677829Y-81387492D01*
X44239105Y-80730895D01*
X43582507Y-80292171D01*
X42808000Y-80138112D01*
X42033492Y-80292171D01*
X41376895Y-80730895D01*
X40938171Y-81387493D01*
X40823000Y-81966498D01*
X40593000Y-81966498D01*
X40593000Y-81966497D01*
X40477829Y-81387492D01*
X40039105Y-80730895D01*
X39382507Y-80292171D01*
X38608000Y-80138112D01*
X37833492Y-80292171D01*
X37176895Y-80730895D01*
X36738171Y-81387493D01*
X36623000Y-81966498D01*
X31586371Y-81966498D01*
X32565603Y-78860774D01*
X33155886Y-77247750D01*
X36623000Y-77247750D01*
X36623000Y-78738310D01*
X36719673Y-78971699D01*
X36898302Y-79150327D01*
X37131691Y-79247000D01*
X38322250Y-79247000D01*
X38481000Y-79088250D01*
X38481000Y-77089000D01*
X38735000Y-77089000D01*
X38735000Y-79088250D01*
X38893750Y-79247000D01*
X40084309Y-79247000D01*
X40317698Y-79150327D01*
X40496327Y-78971699D01*
X40593000Y-78738310D01*
X40593000Y-77247750D01*
X40434250Y-77089000D01*
X40823000Y-77089000D01*
X40823000Y-77389000D01*
X41022700Y-78138959D01*
X41494196Y-78755409D01*
X42165706Y-79144501D01*
X42372677Y-79198677D01*
X42681000Y-79083829D01*
X42681000Y-77089000D01*
X42935000Y-77089000D01*
X42935000Y-79083829D01*
X43243323Y-79198677D01*
X43450294Y-79144501D01*
X44121804Y-78755409D01*
X44593300Y-78138959D01*
X44793000Y-77389000D01*
X44793000Y-77247750D01*
X47799000Y-77247750D01*
X47799000Y-78738310D01*
X47895673Y-78971699D01*
X48074302Y-79150327D01*
X48307691Y-79247000D01*
X49498250Y-79247000D01*
X49657000Y-79088250D01*
X49657000Y-77089000D01*
X49911000Y-77089000D01*
X49911000Y-79088250D01*
X50069750Y-79247000D01*
X51260309Y-79247000D01*
X51493698Y-79150327D01*
X51672327Y-78971699D01*
X51769000Y-78738310D01*
X51769000Y-77247750D01*
X51610250Y-77089000D01*
X51999000Y-77089000D01*
X51999000Y-77389000D01*
X52198700Y-78138959D01*
X52670196Y-78755409D01*
X53341706Y-79144501D01*
X53548677Y-79198677D01*
X53857000Y-79083829D01*
X53857000Y-77089000D01*
X54111000Y-77089000D01*
X54111000Y-79083829D01*
X54419323Y-79198677D01*
X54626294Y-79144501D01*
X55297804Y-78755409D01*
X55769300Y-78138959D01*
X55969000Y-77389000D01*
X55969000Y-77089000D01*
X54111000Y-77089000D01*
X53857000Y-77089000D01*
X51999000Y-77089000D01*
X51610250Y-77089000D01*
X49911000Y-77089000D01*
X49657000Y-77089000D01*
X47957750Y-77089000D01*
X47799000Y-77247750D01*
X44793000Y-77247750D01*
X44793000Y-77089000D01*
X42935000Y-77089000D01*
X42681000Y-77089000D01*
X40823000Y-77089000D01*
X40434250Y-77089000D01*
X38735000Y-77089000D01*
X38481000Y-77089000D01*
X36781750Y-77089000D01*
X36623000Y-77247750D01*
X33155886Y-77247750D01*
X33702755Y-75753361D01*
X33940216Y-75185690D01*
X36623000Y-75185690D01*
X36623000Y-76676250D01*
X36781750Y-76835000D01*
X38481000Y-76835000D01*
X38481000Y-74835750D01*
X38735000Y-74835750D01*
X38735000Y-76835000D01*
X40434250Y-76835000D01*
X40593000Y-76676250D01*
X40593000Y-76535000D01*
X40823000Y-76535000D01*
X40823000Y-76835000D01*
X42681000Y-76835000D01*
X42681000Y-74840171D01*
X42935000Y-74840171D01*
X42935000Y-76835000D01*
X44793000Y-76835000D01*
X44793000Y-76535000D01*
X44593300Y-75785041D01*
X44134883Y-75185690D01*
X47799000Y-75185690D01*
X47799000Y-76676250D01*
X47957750Y-76835000D01*
X49657000Y-76835000D01*
X49657000Y-74835750D01*
X49911000Y-74835750D01*
X49911000Y-76835000D01*
X51610250Y-76835000D01*
X51769000Y-76676250D01*
X51769000Y-76535000D01*
X51999000Y-76535000D01*
X51999000Y-76835000D01*
X53857000Y-76835000D01*
X53857000Y-74840171D01*
X54111000Y-74840171D01*
X54111000Y-76835000D01*
X55969000Y-76835000D01*
X55969000Y-76535000D01*
X55940374Y-76427497D01*
X122221000Y-76427497D01*
X122221000Y-77418502D01*
X122336171Y-77997507D01*
X122774895Y-78654105D01*
X123431492Y-79092829D01*
X124206000Y-79246888D01*
X124980507Y-79092829D01*
X125637105Y-78654105D01*
X126075829Y-77997508D01*
X126191000Y-77418503D01*
X126191000Y-76427498D01*
X126191000Y-76427497D01*
X139366000Y-76427497D01*
X139366000Y-77418502D01*
X139481171Y-77997507D01*
X139919895Y-78654105D01*
X140576492Y-79092829D01*
X141351000Y-79246888D01*
X142125507Y-79092829D01*
X142782105Y-78654105D01*
X143220829Y-77997508D01*
X143336000Y-77418503D01*
X143336000Y-76427498D01*
X143220829Y-75848492D01*
X142782105Y-75191895D01*
X142125508Y-74753171D01*
X141351000Y-74599112D01*
X140576493Y-74753171D01*
X139919896Y-75191895D01*
X139481171Y-75848492D01*
X139366000Y-76427497D01*
X126191000Y-76427497D01*
X126075829Y-75848492D01*
X125637105Y-75191895D01*
X124980508Y-74753171D01*
X124206000Y-74599112D01*
X123431493Y-74753171D01*
X122774896Y-75191895D01*
X122336171Y-75848492D01*
X122221000Y-76427497D01*
X55940374Y-76427497D01*
X55769300Y-75785041D01*
X55297804Y-75168591D01*
X54626294Y-74779499D01*
X54419323Y-74725323D01*
X54111000Y-74840171D01*
X53857000Y-74840171D01*
X53548677Y-74725323D01*
X53341706Y-74779499D01*
X52670196Y-75168591D01*
X52198700Y-75785041D01*
X51999000Y-76535000D01*
X51769000Y-76535000D01*
X51769000Y-75185690D01*
X51672327Y-74952301D01*
X51493698Y-74773673D01*
X51260309Y-74677000D01*
X50069750Y-74677000D01*
X49911000Y-74835750D01*
X49657000Y-74835750D01*
X49498250Y-74677000D01*
X48307691Y-74677000D01*
X48074302Y-74773673D01*
X47895673Y-74952301D01*
X47799000Y-75185690D01*
X44134883Y-75185690D01*
X44121804Y-75168591D01*
X43450294Y-74779499D01*
X43243323Y-74725323D01*
X42935000Y-74840171D01*
X42681000Y-74840171D01*
X42372677Y-74725323D01*
X42165706Y-74779499D01*
X41494196Y-75168591D01*
X41022700Y-75785041D01*
X40823000Y-76535000D01*
X40593000Y-76535000D01*
X40593000Y-75185690D01*
X40496327Y-74952301D01*
X40317698Y-74773673D01*
X40084309Y-74677000D01*
X38893750Y-74677000D01*
X38735000Y-74835750D01*
X38481000Y-74835750D01*
X38322250Y-74677000D01*
X37131691Y-74677000D01*
X36898302Y-74773673D01*
X36719673Y-74952301D01*
X36623000Y-75185690D01*
X33940216Y-75185690D01*
X34979698Y-72700730D01*
X36393802Y-69709169D01*
X37227053Y-68135431D01*
X70251000Y-68135431D01*
X70251000Y-69024569D01*
X70591259Y-69846026D01*
X71219974Y-70474741D01*
X72041431Y-70815000D01*
X72930569Y-70815000D01*
X73752026Y-70474741D01*
X74380741Y-69846026D01*
X74721000Y-69024569D01*
X74721000Y-68135431D01*
X76251000Y-68135431D01*
X76251000Y-69024569D01*
X76591259Y-69846026D01*
X77219974Y-70474741D01*
X78041431Y-70815000D01*
X78930569Y-70815000D01*
X79752026Y-70474741D01*
X80380741Y-69846026D01*
X80721000Y-69024569D01*
X80721000Y-68135431D01*
X80380741Y-67313974D01*
X79752026Y-66685259D01*
X78930569Y-66345000D01*
X78041431Y-66345000D01*
X77219974Y-66685259D01*
X76591259Y-67313974D01*
X76251000Y-68135431D01*
X74721000Y-68135431D01*
X74380741Y-67313974D01*
X73752026Y-66685259D01*
X72930569Y-66345000D01*
X72041431Y-66345000D01*
X71219974Y-66685259D01*
X70591259Y-67313974D01*
X70251000Y-68135431D01*
X37227053Y-68135431D01*
X37942158Y-66784834D01*
X39621575Y-63933749D01*
X40898355Y-61975171D01*
X57125000Y-61975171D01*
X57125000Y-63500829D01*
X57708844Y-64910353D01*
X58787647Y-65989156D01*
X60197171Y-66573000D01*
X61722829Y-66573000D01*
X63132353Y-65989156D01*
X64211156Y-64910353D01*
X64795000Y-63500829D01*
X64795000Y-61975171D01*
X64289227Y-60754126D01*
X82912000Y-60754126D01*
X82912000Y-61165874D01*
X83069569Y-61546280D01*
X83360720Y-61837431D01*
X83741126Y-61995000D01*
X83929382Y-61995000D01*
X84050462Y-62075903D01*
X84272147Y-62119999D01*
X84272151Y-62119999D01*
X84346998Y-62134887D01*
X84421845Y-62119999D01*
X84879290Y-62119999D01*
X84593569Y-62405720D01*
X84463804Y-62719000D01*
X84249126Y-62719000D01*
X83868720Y-62876569D01*
X83577569Y-63167720D01*
X83420000Y-63548126D01*
X83420000Y-63959874D01*
X83577569Y-64340280D01*
X83695000Y-64457711D01*
X83695001Y-71686288D01*
X83577569Y-71803720D01*
X83420000Y-72184126D01*
X83420000Y-72595874D01*
X83577569Y-72976280D01*
X83868720Y-73267431D01*
X84249126Y-73425000D01*
X84660874Y-73425000D01*
X84711001Y-73404237D01*
X84711001Y-73718288D01*
X84593569Y-73835720D01*
X84436000Y-74216126D01*
X84436000Y-74627874D01*
X84593569Y-75008280D01*
X84884720Y-75299431D01*
X85265126Y-75457000D01*
X85676874Y-75457000D01*
X86057280Y-75299431D01*
X86348431Y-75008280D01*
X86506000Y-74627874D01*
X86506000Y-74216126D01*
X86348431Y-73835720D01*
X86231000Y-73718289D01*
X86231000Y-73425000D01*
X86565874Y-73425000D01*
X86946280Y-73267431D01*
X87237431Y-72976280D01*
X87395000Y-72595874D01*
X87395000Y-72184126D01*
X87237431Y-71803720D01*
X87120000Y-71686289D01*
X87120000Y-64457711D01*
X87189455Y-64388256D01*
X87975852Y-65174654D01*
X88018252Y-65238110D01*
X88269644Y-65406085D01*
X88491329Y-65450181D01*
X88491333Y-65450181D01*
X88566181Y-65465069D01*
X88641029Y-65450181D01*
X89508336Y-65450181D01*
X89583183Y-65465069D01*
X89658030Y-65450181D01*
X89658035Y-65450181D01*
X89879720Y-65406085D01*
X90000800Y-65325182D01*
X90189056Y-65325182D01*
X90569462Y-65167613D01*
X90860613Y-64876462D01*
X91018182Y-64496056D01*
X91018182Y-64084308D01*
X90860613Y-63703902D01*
X90569462Y-63412751D01*
X90291217Y-63297498D01*
X104060000Y-63297498D01*
X104060000Y-64288503D01*
X104175171Y-64867508D01*
X104613896Y-65524105D01*
X105270493Y-65962829D01*
X106045000Y-66116888D01*
X106819508Y-65962829D01*
X107476105Y-65524105D01*
X107914829Y-64867508D01*
X108030000Y-64288502D01*
X108030000Y-63297497D01*
X107914829Y-62718492D01*
X107522364Y-62131126D01*
X112483000Y-62131126D01*
X112483000Y-62542874D01*
X112640569Y-62923280D01*
X112904289Y-63187000D01*
X112640569Y-63450720D01*
X112483000Y-63831126D01*
X112483000Y-64242874D01*
X112640569Y-64623280D01*
X112904289Y-64887000D01*
X112640569Y-65150720D01*
X112483000Y-65531126D01*
X112483000Y-65942874D01*
X112640569Y-66323280D01*
X112904289Y-66587000D01*
X112640569Y-66850720D01*
X112483000Y-67231126D01*
X112483000Y-67642874D01*
X112640569Y-68023280D01*
X112931720Y-68314431D01*
X113312126Y-68472000D01*
X113723874Y-68472000D01*
X114104280Y-68314431D01*
X114368000Y-68050711D01*
X114631720Y-68314431D01*
X115012126Y-68472000D01*
X115423874Y-68472000D01*
X115804280Y-68314431D01*
X116068000Y-68050711D01*
X116331720Y-68314431D01*
X116712126Y-68472000D01*
X117123874Y-68472000D01*
X117504280Y-68314431D01*
X117768000Y-68050711D01*
X118031720Y-68314431D01*
X118412126Y-68472000D01*
X118823874Y-68472000D01*
X119204280Y-68314431D01*
X119495431Y-68023280D01*
X119653000Y-67642874D01*
X119653000Y-67231126D01*
X119495431Y-66850720D01*
X119231711Y-66587000D01*
X119495431Y-66323280D01*
X119653000Y-65942874D01*
X119653000Y-65531126D01*
X119495431Y-65150720D01*
X119231711Y-64887000D01*
X119495431Y-64623280D01*
X119653000Y-64242874D01*
X119653000Y-63831126D01*
X119495431Y-63450720D01*
X119231711Y-63187000D01*
X119495431Y-62923280D01*
X119653000Y-62542874D01*
X119653000Y-62385126D01*
X128358000Y-62385126D01*
X128358000Y-62796874D01*
X128515569Y-63177280D01*
X128779289Y-63441000D01*
X128515569Y-63704720D01*
X128358000Y-64085126D01*
X128358000Y-64496874D01*
X128515569Y-64877280D01*
X128779289Y-65141000D01*
X128515569Y-65404720D01*
X128358000Y-65785126D01*
X128358000Y-66196874D01*
X128515569Y-66577280D01*
X128779289Y-66841000D01*
X128515569Y-67104720D01*
X128358000Y-67485126D01*
X128358000Y-67896874D01*
X128515569Y-68277280D01*
X128806720Y-68568431D01*
X129187126Y-68726000D01*
X129598874Y-68726000D01*
X129979280Y-68568431D01*
X130243000Y-68304711D01*
X130506720Y-68568431D01*
X130887126Y-68726000D01*
X131298874Y-68726000D01*
X131679280Y-68568431D01*
X131943000Y-68304711D01*
X132206720Y-68568431D01*
X132587126Y-68726000D01*
X132998874Y-68726000D01*
X133379280Y-68568431D01*
X133643000Y-68304711D01*
X133906720Y-68568431D01*
X134287126Y-68726000D01*
X134698874Y-68726000D01*
X135079280Y-68568431D01*
X135370431Y-68277280D01*
X135528000Y-67896874D01*
X135528000Y-67485126D01*
X135370431Y-67104720D01*
X135106711Y-66841000D01*
X135370431Y-66577280D01*
X135528000Y-66196874D01*
X135528000Y-65785126D01*
X135370431Y-65404720D01*
X135106711Y-65141000D01*
X135370431Y-64877280D01*
X135528000Y-64496874D01*
X135528000Y-64085126D01*
X135370431Y-63704720D01*
X135106711Y-63441000D01*
X135370431Y-63177280D01*
X135528000Y-62796874D01*
X135528000Y-62385126D01*
X135370431Y-62004720D01*
X135340882Y-61975171D01*
X139675000Y-61975171D01*
X139675000Y-63500829D01*
X140258844Y-64910353D01*
X141337647Y-65989156D01*
X142747171Y-66573000D01*
X144272829Y-66573000D01*
X145682353Y-65989156D01*
X146761156Y-64910353D01*
X147345000Y-63500829D01*
X147345000Y-61975171D01*
X146761156Y-60565647D01*
X145682353Y-59486844D01*
X144272829Y-58903000D01*
X142747171Y-58903000D01*
X141337647Y-59486844D01*
X140258844Y-60565647D01*
X139675000Y-61975171D01*
X135340882Y-61975171D01*
X135079280Y-61713569D01*
X134698874Y-61556000D01*
X134287126Y-61556000D01*
X133906720Y-61713569D01*
X133643000Y-61977289D01*
X133379280Y-61713569D01*
X132998874Y-61556000D01*
X132587126Y-61556000D01*
X132206720Y-61713569D01*
X131943000Y-61977289D01*
X131679280Y-61713569D01*
X131298874Y-61556000D01*
X130887126Y-61556000D01*
X130506720Y-61713569D01*
X130243000Y-61977289D01*
X129979280Y-61713569D01*
X129598874Y-61556000D01*
X129187126Y-61556000D01*
X128806720Y-61713569D01*
X128515569Y-62004720D01*
X128358000Y-62385126D01*
X119653000Y-62385126D01*
X119653000Y-62131126D01*
X119495431Y-61750720D01*
X119204280Y-61459569D01*
X118823874Y-61302000D01*
X118412126Y-61302000D01*
X118031720Y-61459569D01*
X117768000Y-61723289D01*
X117504280Y-61459569D01*
X117123874Y-61302000D01*
X116712126Y-61302000D01*
X116331720Y-61459569D01*
X116068000Y-61723289D01*
X115804280Y-61459569D01*
X115423874Y-61302000D01*
X115012126Y-61302000D01*
X114631720Y-61459569D01*
X114368000Y-61723289D01*
X114104280Y-61459569D01*
X113723874Y-61302000D01*
X113312126Y-61302000D01*
X112931720Y-61459569D01*
X112640569Y-61750720D01*
X112483000Y-62131126D01*
X107522364Y-62131126D01*
X107476105Y-62061895D01*
X106819507Y-61623171D01*
X106045000Y-61469112D01*
X105270492Y-61623171D01*
X104613895Y-62061895D01*
X104175171Y-62718493D01*
X104060000Y-63297498D01*
X90291217Y-63297498D01*
X90189056Y-63255182D01*
X89777308Y-63255182D01*
X89396902Y-63412751D01*
X89105751Y-63703902D01*
X89012023Y-63930181D01*
X88880983Y-63930181D01*
X87628000Y-62677199D01*
X87628000Y-60864750D01*
X88497000Y-60864750D01*
X88497000Y-62005310D01*
X88593673Y-62238699D01*
X88772302Y-62417327D01*
X89005691Y-62514000D01*
X90646250Y-62514000D01*
X90805000Y-62355250D01*
X90805000Y-60706000D01*
X91059000Y-60706000D01*
X91059000Y-62355250D01*
X91217750Y-62514000D01*
X92858309Y-62514000D01*
X93091698Y-62417327D01*
X93270327Y-62238699D01*
X93367000Y-62005310D01*
X93367000Y-60864750D01*
X93208250Y-60706000D01*
X91059000Y-60706000D01*
X90805000Y-60706000D01*
X88655750Y-60706000D01*
X88497000Y-60864750D01*
X87628000Y-60864750D01*
X87628000Y-60214436D01*
X87642888Y-60139588D01*
X87628000Y-60064740D01*
X87628000Y-60064736D01*
X87583904Y-59843051D01*
X87415929Y-59591659D01*
X87352473Y-59549259D01*
X86955904Y-59152690D01*
X88497000Y-59152690D01*
X88497000Y-60293250D01*
X88655750Y-60452000D01*
X90805000Y-60452000D01*
X90805000Y-58802750D01*
X91059000Y-58802750D01*
X91059000Y-60452000D01*
X93208250Y-60452000D01*
X93367000Y-60293250D01*
X93367000Y-59152690D01*
X93270327Y-58919301D01*
X93091698Y-58740673D01*
X92858309Y-58644000D01*
X91217750Y-58644000D01*
X91059000Y-58802750D01*
X90805000Y-58802750D01*
X90646250Y-58644000D01*
X89005691Y-58644000D01*
X88772302Y-58740673D01*
X88593673Y-58919301D01*
X88497000Y-59152690D01*
X86955904Y-59152690D01*
X86725537Y-58922324D01*
X86683135Y-58858865D01*
X86443644Y-58698842D01*
X85871000Y-58126199D01*
X85871000Y-57960126D01*
X85713431Y-57579720D01*
X85422280Y-57288569D01*
X85041874Y-57131000D01*
X84630126Y-57131000D01*
X84249720Y-57288569D01*
X83958569Y-57579720D01*
X83801000Y-57960126D01*
X83801000Y-58371874D01*
X83958569Y-58752280D01*
X84249720Y-59043431D01*
X84630126Y-59201000D01*
X84796199Y-59201000D01*
X85486464Y-59891266D01*
X85528865Y-59954723D01*
X85592321Y-59997123D01*
X85768360Y-60114749D01*
X86108001Y-60454391D01*
X86108001Y-60903200D01*
X86080330Y-60875529D01*
X86037928Y-60812070D01*
X85786536Y-60644095D01*
X85564851Y-60599999D01*
X85564846Y-60599999D01*
X85489999Y-60585111D01*
X85415152Y-60599999D01*
X84918159Y-60599999D01*
X84824431Y-60373720D01*
X84533280Y-60082569D01*
X84152874Y-59925000D01*
X83741126Y-59925000D01*
X83360720Y-60082569D01*
X83069569Y-60373720D01*
X82912000Y-60754126D01*
X64289227Y-60754126D01*
X64211156Y-60565647D01*
X63132353Y-59486844D01*
X61722829Y-58903000D01*
X60197171Y-58903000D01*
X58787647Y-59486844D01*
X57708844Y-60565647D01*
X57125000Y-61975171D01*
X40898355Y-61975171D01*
X41428598Y-61161781D01*
X43359505Y-58474639D01*
X44806047Y-56643000D01*
X104047560Y-56643000D01*
X104047560Y-59943000D01*
X104096843Y-60190765D01*
X104237191Y-60400809D01*
X104447235Y-60541157D01*
X104695000Y-60590440D01*
X107395000Y-60590440D01*
X107642765Y-60541157D01*
X107852809Y-60400809D01*
X107993157Y-60190765D01*
X108042440Y-59943000D01*
X108042440Y-56643000D01*
X107993157Y-56395235D01*
X107852809Y-56185191D01*
X107642765Y-56044843D01*
X107395000Y-55995560D01*
X104695000Y-55995560D01*
X104447235Y-56044843D01*
X104237191Y-56185191D01*
X104096843Y-56395235D01*
X104047560Y-56643000D01*
X44806047Y-56643000D01*
X45410322Y-55877856D01*
X47576825Y-53376776D01*
X49660538Y-51181000D01*
X101603071Y-51181000D01*
X101749369Y-51916490D01*
X102165991Y-52540009D01*
X102789510Y-52956631D01*
X103339345Y-53066000D01*
X106210655Y-53066000D01*
X106760490Y-52956631D01*
X107384009Y-52540009D01*
X107800631Y-51916490D01*
X107946929Y-51181000D01*
X107800631Y-50445510D01*
X107756191Y-50379000D01*
X119200560Y-50379000D01*
X119200560Y-51729000D01*
X119249843Y-51976765D01*
X119390191Y-52186809D01*
X119600235Y-52327157D01*
X119848000Y-52376440D01*
X121198000Y-52376440D01*
X121445765Y-52327157D01*
X121655809Y-52186809D01*
X121714842Y-52098461D01*
X121780945Y-52164564D01*
X122262425Y-52364000D01*
X122783575Y-52364000D01*
X123265055Y-52164564D01*
X123458472Y-51971147D01*
X123785458Y-51971147D01*
X123844219Y-52204328D01*
X124336100Y-52376522D01*
X124856434Y-52347375D01*
X125201781Y-52204328D01*
X125260542Y-51971147D01*
X124523000Y-51233605D01*
X123785458Y-51971147D01*
X123458472Y-51971147D01*
X123633564Y-51796055D01*
X123656350Y-51741045D01*
X124343395Y-51054000D01*
X124702605Y-51054000D01*
X125440147Y-51791542D01*
X125673328Y-51732781D01*
X125845522Y-51240900D01*
X125816375Y-50720566D01*
X125673328Y-50375219D01*
X125440147Y-50316458D01*
X124702605Y-51054000D01*
X124343395Y-51054000D01*
X123656350Y-50366955D01*
X123633564Y-50311945D01*
X123458472Y-50136853D01*
X123785458Y-50136853D01*
X124523000Y-50874395D01*
X125260542Y-50136853D01*
X125201781Y-49903672D01*
X124709900Y-49731478D01*
X124189566Y-49760625D01*
X123844219Y-49903672D01*
X123785458Y-50136853D01*
X123458472Y-50136853D01*
X123265055Y-49943436D01*
X122783575Y-49744000D01*
X122262425Y-49744000D01*
X121780945Y-49943436D01*
X121714842Y-50009539D01*
X121655809Y-49921191D01*
X121445765Y-49780843D01*
X121198000Y-49731560D01*
X119848000Y-49731560D01*
X119600235Y-49780843D01*
X119390191Y-49921191D01*
X119249843Y-50131235D01*
X119200560Y-50379000D01*
X107756191Y-50379000D01*
X107384009Y-49821991D01*
X106760490Y-49405369D01*
X106210655Y-49296000D01*
X103339345Y-49296000D01*
X102789510Y-49405369D01*
X102165991Y-49821991D01*
X101749369Y-50445510D01*
X101603071Y-51181000D01*
X49660538Y-51181000D01*
X49854554Y-50976550D01*
X52238820Y-48682120D01*
X53231532Y-47810001D01*
X57160061Y-47810001D01*
X57160061Y-49910001D01*
X57209344Y-50157766D01*
X57349692Y-50367810D01*
X57559736Y-50508158D01*
X57807501Y-50557441D01*
X59907501Y-50557441D01*
X60155266Y-50508158D01*
X60365310Y-50367810D01*
X60457927Y-50229201D01*
X60493188Y-50320746D01*
X61121027Y-50555620D01*
X61790957Y-50532350D01*
X62301814Y-50320746D01*
X62406599Y-50048704D01*
X61397501Y-49039606D01*
X61383359Y-49053749D01*
X61203754Y-48874144D01*
X61217896Y-48860001D01*
X61577106Y-48860001D01*
X62493078Y-49775973D01*
X62509027Y-49814477D01*
X62983025Y-50288475D01*
X63602334Y-50545001D01*
X64272668Y-50545001D01*
X64891977Y-50288475D01*
X65131748Y-50048704D01*
X65468403Y-50048704D01*
X65573188Y-50320746D01*
X66201027Y-50555620D01*
X66870957Y-50532350D01*
X67381814Y-50320746D01*
X67486599Y-50048704D01*
X66477501Y-49039606D01*
X65468403Y-50048704D01*
X65131748Y-50048704D01*
X65365975Y-49814477D01*
X65381924Y-49775973D01*
X66297896Y-48860001D01*
X66657106Y-48860001D01*
X67666204Y-49869099D01*
X67938246Y-49764314D01*
X68173120Y-49136475D01*
X68149850Y-48466545D01*
X67938246Y-47955688D01*
X67666204Y-47850903D01*
X66657106Y-48860001D01*
X66297896Y-48860001D01*
X65381924Y-47944029D01*
X65365975Y-47905525D01*
X65131748Y-47671298D01*
X65468403Y-47671298D01*
X66477501Y-48680396D01*
X67347896Y-47810001D01*
X68840061Y-47810001D01*
X68840061Y-49910001D01*
X68889344Y-50157766D01*
X69029692Y-50367810D01*
X69239736Y-50508158D01*
X69487501Y-50557441D01*
X71587501Y-50557441D01*
X71835266Y-50508158D01*
X72045310Y-50367810D01*
X72137927Y-50229201D01*
X72173188Y-50320746D01*
X72801027Y-50555620D01*
X73470957Y-50532350D01*
X73981814Y-50320746D01*
X74086599Y-50048704D01*
X73077501Y-49039606D01*
X73063359Y-49053749D01*
X72883754Y-48874144D01*
X72897896Y-48860001D01*
X73257106Y-48860001D01*
X74173078Y-49775973D01*
X74189027Y-49814477D01*
X74663025Y-50288475D01*
X75282334Y-50545001D01*
X75952668Y-50545001D01*
X76571977Y-50288475D01*
X76811748Y-50048704D01*
X77148403Y-50048704D01*
X77253188Y-50320746D01*
X77881027Y-50555620D01*
X78550957Y-50532350D01*
X79061814Y-50320746D01*
X79166599Y-50048704D01*
X78157501Y-49039606D01*
X77148403Y-50048704D01*
X76811748Y-50048704D01*
X77045975Y-49814477D01*
X77061924Y-49775973D01*
X77977896Y-48860001D01*
X78337106Y-48860001D01*
X79346204Y-49869099D01*
X79618246Y-49764314D01*
X79724854Y-49479341D01*
X98315000Y-49479341D01*
X98417117Y-49992717D01*
X98806111Y-50574889D01*
X99388282Y-50963883D01*
X100075000Y-51100480D01*
X100761717Y-50963883D01*
X101343889Y-50574889D01*
X101732883Y-49992718D01*
X101835000Y-49479342D01*
X101835000Y-46882658D01*
X101732883Y-46369282D01*
X101343889Y-45787111D01*
X100761718Y-45398117D01*
X100075000Y-45261520D01*
X99388283Y-45398117D01*
X98806112Y-45787111D01*
X98417118Y-46369282D01*
X98315001Y-46882658D01*
X98315000Y-49479341D01*
X79724854Y-49479341D01*
X79853120Y-49136475D01*
X79829850Y-48466545D01*
X79618246Y-47955688D01*
X79346204Y-47850903D01*
X78337106Y-48860001D01*
X77977896Y-48860001D01*
X77061924Y-47944029D01*
X77045975Y-47905525D01*
X76811748Y-47671298D01*
X77148403Y-47671298D01*
X78157501Y-48680396D01*
X79166599Y-47671298D01*
X79061814Y-47399256D01*
X78433975Y-47164382D01*
X77764045Y-47187652D01*
X77253188Y-47399256D01*
X77148403Y-47671298D01*
X76811748Y-47671298D01*
X76571977Y-47431527D01*
X75952668Y-47175001D01*
X75282334Y-47175001D01*
X74663025Y-47431527D01*
X74189027Y-47905525D01*
X74173078Y-47944029D01*
X73257106Y-48860001D01*
X72897896Y-48860001D01*
X72883754Y-48845859D01*
X73063359Y-48666254D01*
X73077501Y-48680396D01*
X74086599Y-47671298D01*
X73981814Y-47399256D01*
X73353975Y-47164382D01*
X72684045Y-47187652D01*
X72173188Y-47399256D01*
X72137927Y-47490801D01*
X72045310Y-47352192D01*
X71835266Y-47211844D01*
X71587501Y-47162561D01*
X69487501Y-47162561D01*
X69239736Y-47211844D01*
X69029692Y-47352192D01*
X68889344Y-47562236D01*
X68840061Y-47810001D01*
X67347896Y-47810001D01*
X67486599Y-47671298D01*
X67381814Y-47399256D01*
X66753975Y-47164382D01*
X66084045Y-47187652D01*
X65573188Y-47399256D01*
X65468403Y-47671298D01*
X65131748Y-47671298D01*
X64891977Y-47431527D01*
X64272668Y-47175001D01*
X63602334Y-47175001D01*
X62983025Y-47431527D01*
X62509027Y-47905525D01*
X62493078Y-47944029D01*
X61577106Y-48860001D01*
X61217896Y-48860001D01*
X61203754Y-48845859D01*
X61383359Y-48666254D01*
X61397501Y-48680396D01*
X62406599Y-47671298D01*
X62301814Y-47399256D01*
X61673975Y-47164382D01*
X61004045Y-47187652D01*
X60493188Y-47399256D01*
X60457927Y-47490801D01*
X60365310Y-47352192D01*
X60155266Y-47211844D01*
X59907501Y-47162561D01*
X57807501Y-47162561D01*
X57559736Y-47211844D01*
X57349692Y-47352192D01*
X57209344Y-47562236D01*
X57160061Y-47810001D01*
X53231532Y-47810001D01*
X54724714Y-46498209D01*
X57307117Y-44429314D01*
X58576039Y-43504000D01*
X87687560Y-43504000D01*
X87687560Y-45904000D01*
X87736843Y-46151765D01*
X87877191Y-46361809D01*
X88087235Y-46502157D01*
X88335000Y-46551440D01*
X90735000Y-46551440D01*
X90982765Y-46502157D01*
X91192809Y-46361809D01*
X91333157Y-46151765D01*
X91382440Y-45904000D01*
X91382440Y-44780957D01*
X101936067Y-44780957D01*
X102053794Y-45054000D01*
X102639951Y-45054000D01*
X102639950Y-45308000D01*
X102053794Y-45308000D01*
X101936067Y-45581043D01*
X101975371Y-45737190D01*
X102315689Y-46335705D01*
X102859144Y-46758427D01*
X103523000Y-46941000D01*
X104648000Y-46941000D01*
X104648000Y-46316050D01*
X104902000Y-46316050D01*
X104902000Y-46941000D01*
X106027000Y-46941000D01*
X106690856Y-46758427D01*
X107234311Y-46335705D01*
X107574629Y-45737190D01*
X107613933Y-45581043D01*
X107496206Y-45308000D01*
X106910050Y-45308000D01*
X106910050Y-45054000D01*
X107496206Y-45054000D01*
X107613933Y-44780957D01*
X107574629Y-44624810D01*
X107234311Y-44026295D01*
X106690856Y-43603573D01*
X106027000Y-43421000D01*
X104902000Y-43421000D01*
X104902000Y-44045950D01*
X104648000Y-44045950D01*
X104648000Y-43421000D01*
X103523000Y-43421000D01*
X102859144Y-43603573D01*
X102315689Y-44026295D01*
X101975371Y-44624810D01*
X101936067Y-44780957D01*
X91382440Y-44780957D01*
X91382440Y-43504000D01*
X91333157Y-43256235D01*
X91192809Y-43046191D01*
X90982765Y-42905843D01*
X90735000Y-42856560D01*
X88335000Y-42856560D01*
X88087235Y-42905843D01*
X87877191Y-43046191D01*
X87736843Y-43256235D01*
X87687560Y-43504000D01*
X58576039Y-43504000D01*
X59980713Y-42479694D01*
X62739998Y-40653363D01*
X65579289Y-38954082D01*
X66420428Y-38501175D01*
X88417430Y-38501175D01*
X88540565Y-38788788D01*
X89222734Y-39048707D01*
X89952443Y-39027786D01*
X90529435Y-38788788D01*
X90652570Y-38501175D01*
X89535000Y-37383605D01*
X88417430Y-38501175D01*
X66420428Y-38501175D01*
X68492743Y-37385349D01*
X69518399Y-36891734D01*
X87690293Y-36891734D01*
X87711214Y-37621443D01*
X87950212Y-38198435D01*
X88237825Y-38321570D01*
X89355395Y-37204000D01*
X89714605Y-37204000D01*
X90832175Y-38321570D01*
X91119788Y-38198435D01*
X91379707Y-37516266D01*
X91358786Y-36786557D01*
X91119788Y-36209565D01*
X90832175Y-36086430D01*
X89714605Y-37204000D01*
X89355395Y-37204000D01*
X88237825Y-36086430D01*
X87950212Y-36209565D01*
X87690293Y-36891734D01*
X69518399Y-36891734D01*
X71474359Y-35950394D01*
X71576505Y-35906825D01*
X88417430Y-35906825D01*
X89535000Y-37024395D01*
X90652570Y-35906825D01*
X90529435Y-35619212D01*
X89847266Y-35359293D01*
X89117557Y-35380214D01*
X88540565Y-35619212D01*
X88417430Y-35906825D01*
X71576505Y-35906825D01*
X74518001Y-34652171D01*
X77617400Y-33493353D01*
X80766176Y-32476326D01*
X83957846Y-31603184D01*
X87185838Y-30875725D01*
X90443508Y-30295445D01*
X93724147Y-29863541D01*
X97021001Y-29580901D01*
X100327283Y-29448107D01*
X103636186Y-29465432D01*
G04 #@! TD*
M02*
