G04 #@! TF.GenerationSoftware,KiCad,Pcbnew,(5.0.0)*
G04 #@! TF.CreationDate,2019-02-17T15:18:15-05:00*
G04 #@! TF.ProjectId,control board power,636F6E74726F6C20626F61726420706F,rev?*
G04 #@! TF.SameCoordinates,Original*
G04 #@! TF.FileFunction,Soldermask,Top*
G04 #@! TF.FilePolarity,Negative*
%FSLAX46Y46*%
G04 Gerber Fmt 4.6, Leading zero omitted, Abs format (unit mm)*
G04 Created by KiCad (PCBNEW (5.0.0)) date 02/17/19 15:18:15*
%MOMM*%
%LPD*%
G01*
G04 APERTURE LIST*
%ADD10C,0.100000*%
%ADD11C,1.102400*%
%ADD12C,1.502400*%
%ADD13R,1.502400X1.502400*%
%ADD14C,6.552400*%
%ADD15O,1.852400X1.852400*%
%ADD16R,1.852400X1.852400*%
%ADD17O,2.402400X4.652400*%
%ADD18O,4.652400X2.402400*%
%ADD19O,5.152400X2.652400*%
%ADD20C,3.152400*%
%ADD21O,2.852400X3.452400*%
%ADD22R,2.852400X3.452400*%
%ADD23C,3.352400*%
%ADD24R,2.152400X1.652400*%
%ADD25R,2.152400X3.952400*%
%ADD26R,3.752400X2.752400*%
%ADD27R,0.402400X1.552400*%
%ADD28R,1.552400X0.402400*%
%ADD29C,1.676400*%
%ADD30R,2.752400X3.752400*%
%ADD31C,4.851400*%
%ADD32C,1.577400*%
%ADD33C,1.302400*%
%ADD34R,5.952400X6.552400*%
%ADD35R,1.352400X2.352400*%
%ADD36R,3.452400X4.652400*%
%ADD37R,6.152400X6.152400*%
%ADD38R,3.452400X2.852400*%
%ADD39O,3.452400X2.852400*%
%ADD40C,0.254000*%
G04 APERTURE END LIST*
D10*
G04 #@! TO.C,C2*
G36*
X50884614Y-103336127D02*
X50911367Y-103340096D01*
X50937602Y-103346667D01*
X50963068Y-103355779D01*
X50987517Y-103367342D01*
X51010715Y-103381247D01*
X51032439Y-103397358D01*
X51052479Y-103415521D01*
X51070642Y-103435561D01*
X51086753Y-103457285D01*
X51100658Y-103480483D01*
X51112221Y-103504932D01*
X51121333Y-103530398D01*
X51127904Y-103556633D01*
X51131873Y-103583386D01*
X51133200Y-103610400D01*
X51133200Y-104161600D01*
X51131873Y-104188614D01*
X51127904Y-104215367D01*
X51121333Y-104241602D01*
X51112221Y-104267068D01*
X51100658Y-104291517D01*
X51086753Y-104314715D01*
X51070642Y-104336439D01*
X51052479Y-104356479D01*
X51032439Y-104374642D01*
X51010715Y-104390753D01*
X50987517Y-104404658D01*
X50963068Y-104416221D01*
X50937602Y-104425333D01*
X50911367Y-104431904D01*
X50884614Y-104435873D01*
X50857600Y-104437200D01*
X50206400Y-104437200D01*
X50179386Y-104435873D01*
X50152633Y-104431904D01*
X50126398Y-104425333D01*
X50100932Y-104416221D01*
X50076483Y-104404658D01*
X50053285Y-104390753D01*
X50031561Y-104374642D01*
X50011521Y-104356479D01*
X49993358Y-104336439D01*
X49977247Y-104314715D01*
X49963342Y-104291517D01*
X49951779Y-104267068D01*
X49942667Y-104241602D01*
X49936096Y-104215367D01*
X49932127Y-104188614D01*
X49930800Y-104161600D01*
X49930800Y-103610400D01*
X49932127Y-103583386D01*
X49936096Y-103556633D01*
X49942667Y-103530398D01*
X49951779Y-103504932D01*
X49963342Y-103480483D01*
X49977247Y-103457285D01*
X49993358Y-103435561D01*
X50011521Y-103415521D01*
X50031561Y-103397358D01*
X50053285Y-103381247D01*
X50076483Y-103367342D01*
X50100932Y-103355779D01*
X50126398Y-103346667D01*
X50152633Y-103340096D01*
X50179386Y-103336127D01*
X50206400Y-103334800D01*
X50857600Y-103334800D01*
X50884614Y-103336127D01*
X50884614Y-103336127D01*
G37*
D11*
X50532000Y-103886000D03*
D10*
G36*
X49134614Y-103336127D02*
X49161367Y-103340096D01*
X49187602Y-103346667D01*
X49213068Y-103355779D01*
X49237517Y-103367342D01*
X49260715Y-103381247D01*
X49282439Y-103397358D01*
X49302479Y-103415521D01*
X49320642Y-103435561D01*
X49336753Y-103457285D01*
X49350658Y-103480483D01*
X49362221Y-103504932D01*
X49371333Y-103530398D01*
X49377904Y-103556633D01*
X49381873Y-103583386D01*
X49383200Y-103610400D01*
X49383200Y-104161600D01*
X49381873Y-104188614D01*
X49377904Y-104215367D01*
X49371333Y-104241602D01*
X49362221Y-104267068D01*
X49350658Y-104291517D01*
X49336753Y-104314715D01*
X49320642Y-104336439D01*
X49302479Y-104356479D01*
X49282439Y-104374642D01*
X49260715Y-104390753D01*
X49237517Y-104404658D01*
X49213068Y-104416221D01*
X49187602Y-104425333D01*
X49161367Y-104431904D01*
X49134614Y-104435873D01*
X49107600Y-104437200D01*
X48456400Y-104437200D01*
X48429386Y-104435873D01*
X48402633Y-104431904D01*
X48376398Y-104425333D01*
X48350932Y-104416221D01*
X48326483Y-104404658D01*
X48303285Y-104390753D01*
X48281561Y-104374642D01*
X48261521Y-104356479D01*
X48243358Y-104336439D01*
X48227247Y-104314715D01*
X48213342Y-104291517D01*
X48201779Y-104267068D01*
X48192667Y-104241602D01*
X48186096Y-104215367D01*
X48182127Y-104188614D01*
X48180800Y-104161600D01*
X48180800Y-103610400D01*
X48182127Y-103583386D01*
X48186096Y-103556633D01*
X48192667Y-103530398D01*
X48201779Y-103504932D01*
X48213342Y-103480483D01*
X48227247Y-103457285D01*
X48243358Y-103435561D01*
X48261521Y-103415521D01*
X48281561Y-103397358D01*
X48303285Y-103381247D01*
X48326483Y-103367342D01*
X48350932Y-103355779D01*
X48376398Y-103346667D01*
X48402633Y-103340096D01*
X48429386Y-103336127D01*
X48456400Y-103334800D01*
X49107600Y-103334800D01*
X49134614Y-103336127D01*
X49134614Y-103336127D01*
G37*
D11*
X48782000Y-103886000D03*
G04 #@! TD*
D12*
G04 #@! TO.C,J5*
X128523000Y-51054000D03*
X126523000Y-51054000D03*
X124523000Y-51054000D03*
X122523000Y-51054000D03*
D13*
X120523000Y-51054000D03*
G04 #@! TD*
D14*
G04 #@! TO.C,REF\002A\002A*
X143510000Y-62738000D03*
G04 #@! TD*
G04 #@! TO.C,REF\002A\002A*
X60960000Y-62738000D03*
G04 #@! TD*
G04 #@! TO.C,REF\002A\002A*
X143510000Y-138938000D03*
G04 #@! TD*
G04 #@! TO.C,REF\002A\002A*
X60960000Y-138938000D03*
G04 #@! TD*
D10*
G04 #@! TO.C,C1*
G36*
X56690614Y-98573127D02*
X56717367Y-98577096D01*
X56743602Y-98583667D01*
X56769068Y-98592779D01*
X56793517Y-98604342D01*
X56816715Y-98618247D01*
X56838439Y-98634358D01*
X56858479Y-98652521D01*
X56876642Y-98672561D01*
X56892753Y-98694285D01*
X56906658Y-98717483D01*
X56918221Y-98741932D01*
X56927333Y-98767398D01*
X56933904Y-98793633D01*
X56937873Y-98820386D01*
X56939200Y-98847400D01*
X56939200Y-99498600D01*
X56937873Y-99525614D01*
X56933904Y-99552367D01*
X56927333Y-99578602D01*
X56918221Y-99604068D01*
X56906658Y-99628517D01*
X56892753Y-99651715D01*
X56876642Y-99673439D01*
X56858479Y-99693479D01*
X56838439Y-99711642D01*
X56816715Y-99727753D01*
X56793517Y-99741658D01*
X56769068Y-99753221D01*
X56743602Y-99762333D01*
X56717367Y-99768904D01*
X56690614Y-99772873D01*
X56663600Y-99774200D01*
X56112400Y-99774200D01*
X56085386Y-99772873D01*
X56058633Y-99768904D01*
X56032398Y-99762333D01*
X56006932Y-99753221D01*
X55982483Y-99741658D01*
X55959285Y-99727753D01*
X55937561Y-99711642D01*
X55917521Y-99693479D01*
X55899358Y-99673439D01*
X55883247Y-99651715D01*
X55869342Y-99628517D01*
X55857779Y-99604068D01*
X55848667Y-99578602D01*
X55842096Y-99552367D01*
X55838127Y-99525614D01*
X55836800Y-99498600D01*
X55836800Y-98847400D01*
X55838127Y-98820386D01*
X55842096Y-98793633D01*
X55848667Y-98767398D01*
X55857779Y-98741932D01*
X55869342Y-98717483D01*
X55883247Y-98694285D01*
X55899358Y-98672561D01*
X55917521Y-98652521D01*
X55937561Y-98634358D01*
X55959285Y-98618247D01*
X55982483Y-98604342D01*
X56006932Y-98592779D01*
X56032398Y-98583667D01*
X56058633Y-98577096D01*
X56085386Y-98573127D01*
X56112400Y-98571800D01*
X56663600Y-98571800D01*
X56690614Y-98573127D01*
X56690614Y-98573127D01*
G37*
D11*
X56388000Y-99173000D03*
D10*
G36*
X56690614Y-96823127D02*
X56717367Y-96827096D01*
X56743602Y-96833667D01*
X56769068Y-96842779D01*
X56793517Y-96854342D01*
X56816715Y-96868247D01*
X56838439Y-96884358D01*
X56858479Y-96902521D01*
X56876642Y-96922561D01*
X56892753Y-96944285D01*
X56906658Y-96967483D01*
X56918221Y-96991932D01*
X56927333Y-97017398D01*
X56933904Y-97043633D01*
X56937873Y-97070386D01*
X56939200Y-97097400D01*
X56939200Y-97748600D01*
X56937873Y-97775614D01*
X56933904Y-97802367D01*
X56927333Y-97828602D01*
X56918221Y-97854068D01*
X56906658Y-97878517D01*
X56892753Y-97901715D01*
X56876642Y-97923439D01*
X56858479Y-97943479D01*
X56838439Y-97961642D01*
X56816715Y-97977753D01*
X56793517Y-97991658D01*
X56769068Y-98003221D01*
X56743602Y-98012333D01*
X56717367Y-98018904D01*
X56690614Y-98022873D01*
X56663600Y-98024200D01*
X56112400Y-98024200D01*
X56085386Y-98022873D01*
X56058633Y-98018904D01*
X56032398Y-98012333D01*
X56006932Y-98003221D01*
X55982483Y-97991658D01*
X55959285Y-97977753D01*
X55937561Y-97961642D01*
X55917521Y-97943479D01*
X55899358Y-97923439D01*
X55883247Y-97901715D01*
X55869342Y-97878517D01*
X55857779Y-97854068D01*
X55848667Y-97828602D01*
X55842096Y-97802367D01*
X55838127Y-97775614D01*
X55836800Y-97748600D01*
X55836800Y-97097400D01*
X55838127Y-97070386D01*
X55842096Y-97043633D01*
X55848667Y-97017398D01*
X55857779Y-96991932D01*
X55869342Y-96967483D01*
X55883247Y-96944285D01*
X55899358Y-96922561D01*
X55917521Y-96902521D01*
X55937561Y-96884358D01*
X55959285Y-96868247D01*
X55982483Y-96854342D01*
X56006932Y-96842779D01*
X56032398Y-96833667D01*
X56058633Y-96827096D01*
X56085386Y-96823127D01*
X56112400Y-96821800D01*
X56663600Y-96821800D01*
X56690614Y-96823127D01*
X56690614Y-96823127D01*
G37*
D11*
X56388000Y-97423000D03*
G04 #@! TD*
D10*
G04 #@! TO.C,C5*
G36*
X83551614Y-56219127D02*
X83578367Y-56223096D01*
X83604602Y-56229667D01*
X83630068Y-56238779D01*
X83654517Y-56250342D01*
X83677715Y-56264247D01*
X83699439Y-56280358D01*
X83719479Y-56298521D01*
X83737642Y-56318561D01*
X83753753Y-56340285D01*
X83767658Y-56363483D01*
X83779221Y-56387932D01*
X83788333Y-56413398D01*
X83794904Y-56439633D01*
X83798873Y-56466386D01*
X83800200Y-56493400D01*
X83800200Y-57044600D01*
X83798873Y-57071614D01*
X83794904Y-57098367D01*
X83788333Y-57124602D01*
X83779221Y-57150068D01*
X83767658Y-57174517D01*
X83753753Y-57197715D01*
X83737642Y-57219439D01*
X83719479Y-57239479D01*
X83699439Y-57257642D01*
X83677715Y-57273753D01*
X83654517Y-57287658D01*
X83630068Y-57299221D01*
X83604602Y-57308333D01*
X83578367Y-57314904D01*
X83551614Y-57318873D01*
X83524600Y-57320200D01*
X82873400Y-57320200D01*
X82846386Y-57318873D01*
X82819633Y-57314904D01*
X82793398Y-57308333D01*
X82767932Y-57299221D01*
X82743483Y-57287658D01*
X82720285Y-57273753D01*
X82698561Y-57257642D01*
X82678521Y-57239479D01*
X82660358Y-57219439D01*
X82644247Y-57197715D01*
X82630342Y-57174517D01*
X82618779Y-57150068D01*
X82609667Y-57124602D01*
X82603096Y-57098367D01*
X82599127Y-57071614D01*
X82597800Y-57044600D01*
X82597800Y-56493400D01*
X82599127Y-56466386D01*
X82603096Y-56439633D01*
X82609667Y-56413398D01*
X82618779Y-56387932D01*
X82630342Y-56363483D01*
X82644247Y-56340285D01*
X82660358Y-56318561D01*
X82678521Y-56298521D01*
X82698561Y-56280358D01*
X82720285Y-56264247D01*
X82743483Y-56250342D01*
X82767932Y-56238779D01*
X82793398Y-56229667D01*
X82819633Y-56223096D01*
X82846386Y-56219127D01*
X82873400Y-56217800D01*
X83524600Y-56217800D01*
X83551614Y-56219127D01*
X83551614Y-56219127D01*
G37*
D11*
X83199000Y-56769000D03*
D10*
G36*
X85301614Y-56219127D02*
X85328367Y-56223096D01*
X85354602Y-56229667D01*
X85380068Y-56238779D01*
X85404517Y-56250342D01*
X85427715Y-56264247D01*
X85449439Y-56280358D01*
X85469479Y-56298521D01*
X85487642Y-56318561D01*
X85503753Y-56340285D01*
X85517658Y-56363483D01*
X85529221Y-56387932D01*
X85538333Y-56413398D01*
X85544904Y-56439633D01*
X85548873Y-56466386D01*
X85550200Y-56493400D01*
X85550200Y-57044600D01*
X85548873Y-57071614D01*
X85544904Y-57098367D01*
X85538333Y-57124602D01*
X85529221Y-57150068D01*
X85517658Y-57174517D01*
X85503753Y-57197715D01*
X85487642Y-57219439D01*
X85469479Y-57239479D01*
X85449439Y-57257642D01*
X85427715Y-57273753D01*
X85404517Y-57287658D01*
X85380068Y-57299221D01*
X85354602Y-57308333D01*
X85328367Y-57314904D01*
X85301614Y-57318873D01*
X85274600Y-57320200D01*
X84623400Y-57320200D01*
X84596386Y-57318873D01*
X84569633Y-57314904D01*
X84543398Y-57308333D01*
X84517932Y-57299221D01*
X84493483Y-57287658D01*
X84470285Y-57273753D01*
X84448561Y-57257642D01*
X84428521Y-57239479D01*
X84410358Y-57219439D01*
X84394247Y-57197715D01*
X84380342Y-57174517D01*
X84368779Y-57150068D01*
X84359667Y-57124602D01*
X84353096Y-57098367D01*
X84349127Y-57071614D01*
X84347800Y-57044600D01*
X84347800Y-56493400D01*
X84349127Y-56466386D01*
X84353096Y-56439633D01*
X84359667Y-56413398D01*
X84368779Y-56387932D01*
X84380342Y-56363483D01*
X84394247Y-56340285D01*
X84410358Y-56318561D01*
X84428521Y-56298521D01*
X84448561Y-56280358D01*
X84470285Y-56264247D01*
X84493483Y-56250342D01*
X84517932Y-56238779D01*
X84543398Y-56229667D01*
X84569633Y-56223096D01*
X84596386Y-56219127D01*
X84623400Y-56217800D01*
X85274600Y-56217800D01*
X85301614Y-56219127D01*
X85301614Y-56219127D01*
G37*
D11*
X84949000Y-56769000D03*
G04 #@! TD*
D10*
G04 #@! TO.C,C6*
G36*
X94663614Y-66061127D02*
X94690367Y-66065096D01*
X94716602Y-66071667D01*
X94742068Y-66080779D01*
X94766517Y-66092342D01*
X94789715Y-66106247D01*
X94811439Y-66122358D01*
X94831479Y-66140521D01*
X94849642Y-66160561D01*
X94865753Y-66182285D01*
X94879658Y-66205483D01*
X94891221Y-66229932D01*
X94900333Y-66255398D01*
X94906904Y-66281633D01*
X94910873Y-66308386D01*
X94912200Y-66335400D01*
X94912200Y-66986600D01*
X94910873Y-67013614D01*
X94906904Y-67040367D01*
X94900333Y-67066602D01*
X94891221Y-67092068D01*
X94879658Y-67116517D01*
X94865753Y-67139715D01*
X94849642Y-67161439D01*
X94831479Y-67181479D01*
X94811439Y-67199642D01*
X94789715Y-67215753D01*
X94766517Y-67229658D01*
X94742068Y-67241221D01*
X94716602Y-67250333D01*
X94690367Y-67256904D01*
X94663614Y-67260873D01*
X94636600Y-67262200D01*
X94085400Y-67262200D01*
X94058386Y-67260873D01*
X94031633Y-67256904D01*
X94005398Y-67250333D01*
X93979932Y-67241221D01*
X93955483Y-67229658D01*
X93932285Y-67215753D01*
X93910561Y-67199642D01*
X93890521Y-67181479D01*
X93872358Y-67161439D01*
X93856247Y-67139715D01*
X93842342Y-67116517D01*
X93830779Y-67092068D01*
X93821667Y-67066602D01*
X93815096Y-67040367D01*
X93811127Y-67013614D01*
X93809800Y-66986600D01*
X93809800Y-66335400D01*
X93811127Y-66308386D01*
X93815096Y-66281633D01*
X93821667Y-66255398D01*
X93830779Y-66229932D01*
X93842342Y-66205483D01*
X93856247Y-66182285D01*
X93872358Y-66160561D01*
X93890521Y-66140521D01*
X93910561Y-66122358D01*
X93932285Y-66106247D01*
X93955483Y-66092342D01*
X93979932Y-66080779D01*
X94005398Y-66071667D01*
X94031633Y-66065096D01*
X94058386Y-66061127D01*
X94085400Y-66059800D01*
X94636600Y-66059800D01*
X94663614Y-66061127D01*
X94663614Y-66061127D01*
G37*
D11*
X94361000Y-66661000D03*
D10*
G36*
X94663614Y-64311127D02*
X94690367Y-64315096D01*
X94716602Y-64321667D01*
X94742068Y-64330779D01*
X94766517Y-64342342D01*
X94789715Y-64356247D01*
X94811439Y-64372358D01*
X94831479Y-64390521D01*
X94849642Y-64410561D01*
X94865753Y-64432285D01*
X94879658Y-64455483D01*
X94891221Y-64479932D01*
X94900333Y-64505398D01*
X94906904Y-64531633D01*
X94910873Y-64558386D01*
X94912200Y-64585400D01*
X94912200Y-65236600D01*
X94910873Y-65263614D01*
X94906904Y-65290367D01*
X94900333Y-65316602D01*
X94891221Y-65342068D01*
X94879658Y-65366517D01*
X94865753Y-65389715D01*
X94849642Y-65411439D01*
X94831479Y-65431479D01*
X94811439Y-65449642D01*
X94789715Y-65465753D01*
X94766517Y-65479658D01*
X94742068Y-65491221D01*
X94716602Y-65500333D01*
X94690367Y-65506904D01*
X94663614Y-65510873D01*
X94636600Y-65512200D01*
X94085400Y-65512200D01*
X94058386Y-65510873D01*
X94031633Y-65506904D01*
X94005398Y-65500333D01*
X93979932Y-65491221D01*
X93955483Y-65479658D01*
X93932285Y-65465753D01*
X93910561Y-65449642D01*
X93890521Y-65431479D01*
X93872358Y-65411439D01*
X93856247Y-65389715D01*
X93842342Y-65366517D01*
X93830779Y-65342068D01*
X93821667Y-65316602D01*
X93815096Y-65290367D01*
X93811127Y-65263614D01*
X93809800Y-65236600D01*
X93809800Y-64585400D01*
X93811127Y-64558386D01*
X93815096Y-64531633D01*
X93821667Y-64505398D01*
X93830779Y-64479932D01*
X93842342Y-64455483D01*
X93856247Y-64432285D01*
X93872358Y-64410561D01*
X93890521Y-64390521D01*
X93910561Y-64372358D01*
X93932285Y-64356247D01*
X93955483Y-64342342D01*
X93979932Y-64330779D01*
X94005398Y-64321667D01*
X94031633Y-64315096D01*
X94058386Y-64311127D01*
X94085400Y-64309800D01*
X94636600Y-64309800D01*
X94663614Y-64311127D01*
X94663614Y-64311127D01*
G37*
D11*
X94361000Y-64911000D03*
G04 #@! TD*
D10*
G04 #@! TO.C,C7*
G36*
X103081614Y-111083127D02*
X103108367Y-111087096D01*
X103134602Y-111093667D01*
X103160068Y-111102779D01*
X103184517Y-111114342D01*
X103207715Y-111128247D01*
X103229439Y-111144358D01*
X103249479Y-111162521D01*
X103267642Y-111182561D01*
X103283753Y-111204285D01*
X103297658Y-111227483D01*
X103309221Y-111251932D01*
X103318333Y-111277398D01*
X103324904Y-111303633D01*
X103328873Y-111330386D01*
X103330200Y-111357400D01*
X103330200Y-111908600D01*
X103328873Y-111935614D01*
X103324904Y-111962367D01*
X103318333Y-111988602D01*
X103309221Y-112014068D01*
X103297658Y-112038517D01*
X103283753Y-112061715D01*
X103267642Y-112083439D01*
X103249479Y-112103479D01*
X103229439Y-112121642D01*
X103207715Y-112137753D01*
X103184517Y-112151658D01*
X103160068Y-112163221D01*
X103134602Y-112172333D01*
X103108367Y-112178904D01*
X103081614Y-112182873D01*
X103054600Y-112184200D01*
X102403400Y-112184200D01*
X102376386Y-112182873D01*
X102349633Y-112178904D01*
X102323398Y-112172333D01*
X102297932Y-112163221D01*
X102273483Y-112151658D01*
X102250285Y-112137753D01*
X102228561Y-112121642D01*
X102208521Y-112103479D01*
X102190358Y-112083439D01*
X102174247Y-112061715D01*
X102160342Y-112038517D01*
X102148779Y-112014068D01*
X102139667Y-111988602D01*
X102133096Y-111962367D01*
X102129127Y-111935614D01*
X102127800Y-111908600D01*
X102127800Y-111357400D01*
X102129127Y-111330386D01*
X102133096Y-111303633D01*
X102139667Y-111277398D01*
X102148779Y-111251932D01*
X102160342Y-111227483D01*
X102174247Y-111204285D01*
X102190358Y-111182561D01*
X102208521Y-111162521D01*
X102228561Y-111144358D01*
X102250285Y-111128247D01*
X102273483Y-111114342D01*
X102297932Y-111102779D01*
X102323398Y-111093667D01*
X102349633Y-111087096D01*
X102376386Y-111083127D01*
X102403400Y-111081800D01*
X103054600Y-111081800D01*
X103081614Y-111083127D01*
X103081614Y-111083127D01*
G37*
D11*
X102729000Y-111633000D03*
D10*
G36*
X101331614Y-111083127D02*
X101358367Y-111087096D01*
X101384602Y-111093667D01*
X101410068Y-111102779D01*
X101434517Y-111114342D01*
X101457715Y-111128247D01*
X101479439Y-111144358D01*
X101499479Y-111162521D01*
X101517642Y-111182561D01*
X101533753Y-111204285D01*
X101547658Y-111227483D01*
X101559221Y-111251932D01*
X101568333Y-111277398D01*
X101574904Y-111303633D01*
X101578873Y-111330386D01*
X101580200Y-111357400D01*
X101580200Y-111908600D01*
X101578873Y-111935614D01*
X101574904Y-111962367D01*
X101568333Y-111988602D01*
X101559221Y-112014068D01*
X101547658Y-112038517D01*
X101533753Y-112061715D01*
X101517642Y-112083439D01*
X101499479Y-112103479D01*
X101479439Y-112121642D01*
X101457715Y-112137753D01*
X101434517Y-112151658D01*
X101410068Y-112163221D01*
X101384602Y-112172333D01*
X101358367Y-112178904D01*
X101331614Y-112182873D01*
X101304600Y-112184200D01*
X100653400Y-112184200D01*
X100626386Y-112182873D01*
X100599633Y-112178904D01*
X100573398Y-112172333D01*
X100547932Y-112163221D01*
X100523483Y-112151658D01*
X100500285Y-112137753D01*
X100478561Y-112121642D01*
X100458521Y-112103479D01*
X100440358Y-112083439D01*
X100424247Y-112061715D01*
X100410342Y-112038517D01*
X100398779Y-112014068D01*
X100389667Y-111988602D01*
X100383096Y-111962367D01*
X100379127Y-111935614D01*
X100377800Y-111908600D01*
X100377800Y-111357400D01*
X100379127Y-111330386D01*
X100383096Y-111303633D01*
X100389667Y-111277398D01*
X100398779Y-111251932D01*
X100410342Y-111227483D01*
X100424247Y-111204285D01*
X100440358Y-111182561D01*
X100458521Y-111162521D01*
X100478561Y-111144358D01*
X100500285Y-111128247D01*
X100523483Y-111114342D01*
X100547932Y-111102779D01*
X100573398Y-111093667D01*
X100599633Y-111087096D01*
X100626386Y-111083127D01*
X100653400Y-111081800D01*
X101304600Y-111081800D01*
X101331614Y-111083127D01*
X101331614Y-111083127D01*
G37*
D11*
X100979000Y-111633000D03*
G04 #@! TD*
D10*
G04 #@! TO.C,C8*
G36*
X94346614Y-125180127D02*
X94373367Y-125184096D01*
X94399602Y-125190667D01*
X94425068Y-125199779D01*
X94449517Y-125211342D01*
X94472715Y-125225247D01*
X94494439Y-125241358D01*
X94514479Y-125259521D01*
X94532642Y-125279561D01*
X94548753Y-125301285D01*
X94562658Y-125324483D01*
X94574221Y-125348932D01*
X94583333Y-125374398D01*
X94589904Y-125400633D01*
X94593873Y-125427386D01*
X94595200Y-125454400D01*
X94595200Y-126005600D01*
X94593873Y-126032614D01*
X94589904Y-126059367D01*
X94583333Y-126085602D01*
X94574221Y-126111068D01*
X94562658Y-126135517D01*
X94548753Y-126158715D01*
X94532642Y-126180439D01*
X94514479Y-126200479D01*
X94494439Y-126218642D01*
X94472715Y-126234753D01*
X94449517Y-126248658D01*
X94425068Y-126260221D01*
X94399602Y-126269333D01*
X94373367Y-126275904D01*
X94346614Y-126279873D01*
X94319600Y-126281200D01*
X93668400Y-126281200D01*
X93641386Y-126279873D01*
X93614633Y-126275904D01*
X93588398Y-126269333D01*
X93562932Y-126260221D01*
X93538483Y-126248658D01*
X93515285Y-126234753D01*
X93493561Y-126218642D01*
X93473521Y-126200479D01*
X93455358Y-126180439D01*
X93439247Y-126158715D01*
X93425342Y-126135517D01*
X93413779Y-126111068D01*
X93404667Y-126085602D01*
X93398096Y-126059367D01*
X93394127Y-126032614D01*
X93392800Y-126005600D01*
X93392800Y-125454400D01*
X93394127Y-125427386D01*
X93398096Y-125400633D01*
X93404667Y-125374398D01*
X93413779Y-125348932D01*
X93425342Y-125324483D01*
X93439247Y-125301285D01*
X93455358Y-125279561D01*
X93473521Y-125259521D01*
X93493561Y-125241358D01*
X93515285Y-125225247D01*
X93538483Y-125211342D01*
X93562932Y-125199779D01*
X93588398Y-125190667D01*
X93614633Y-125184096D01*
X93641386Y-125180127D01*
X93668400Y-125178800D01*
X94319600Y-125178800D01*
X94346614Y-125180127D01*
X94346614Y-125180127D01*
G37*
D11*
X93994000Y-125730000D03*
D10*
G36*
X96096614Y-125180127D02*
X96123367Y-125184096D01*
X96149602Y-125190667D01*
X96175068Y-125199779D01*
X96199517Y-125211342D01*
X96222715Y-125225247D01*
X96244439Y-125241358D01*
X96264479Y-125259521D01*
X96282642Y-125279561D01*
X96298753Y-125301285D01*
X96312658Y-125324483D01*
X96324221Y-125348932D01*
X96333333Y-125374398D01*
X96339904Y-125400633D01*
X96343873Y-125427386D01*
X96345200Y-125454400D01*
X96345200Y-126005600D01*
X96343873Y-126032614D01*
X96339904Y-126059367D01*
X96333333Y-126085602D01*
X96324221Y-126111068D01*
X96312658Y-126135517D01*
X96298753Y-126158715D01*
X96282642Y-126180439D01*
X96264479Y-126200479D01*
X96244439Y-126218642D01*
X96222715Y-126234753D01*
X96199517Y-126248658D01*
X96175068Y-126260221D01*
X96149602Y-126269333D01*
X96123367Y-126275904D01*
X96096614Y-126279873D01*
X96069600Y-126281200D01*
X95418400Y-126281200D01*
X95391386Y-126279873D01*
X95364633Y-126275904D01*
X95338398Y-126269333D01*
X95312932Y-126260221D01*
X95288483Y-126248658D01*
X95265285Y-126234753D01*
X95243561Y-126218642D01*
X95223521Y-126200479D01*
X95205358Y-126180439D01*
X95189247Y-126158715D01*
X95175342Y-126135517D01*
X95163779Y-126111068D01*
X95154667Y-126085602D01*
X95148096Y-126059367D01*
X95144127Y-126032614D01*
X95142800Y-126005600D01*
X95142800Y-125454400D01*
X95144127Y-125427386D01*
X95148096Y-125400633D01*
X95154667Y-125374398D01*
X95163779Y-125348932D01*
X95175342Y-125324483D01*
X95189247Y-125301285D01*
X95205358Y-125279561D01*
X95223521Y-125259521D01*
X95243561Y-125241358D01*
X95265285Y-125225247D01*
X95288483Y-125211342D01*
X95312932Y-125199779D01*
X95338398Y-125190667D01*
X95364633Y-125184096D01*
X95391386Y-125180127D01*
X95418400Y-125178800D01*
X96069600Y-125178800D01*
X96096614Y-125180127D01*
X96096614Y-125180127D01*
G37*
D11*
X95744000Y-125730000D03*
G04 #@! TD*
D10*
G04 #@! TO.C,C9*
G36*
X86980614Y-54949127D02*
X87007367Y-54953096D01*
X87033602Y-54959667D01*
X87059068Y-54968779D01*
X87083517Y-54980342D01*
X87106715Y-54994247D01*
X87128439Y-55010358D01*
X87148479Y-55028521D01*
X87166642Y-55048561D01*
X87182753Y-55070285D01*
X87196658Y-55093483D01*
X87208221Y-55117932D01*
X87217333Y-55143398D01*
X87223904Y-55169633D01*
X87227873Y-55196386D01*
X87229200Y-55223400D01*
X87229200Y-55774600D01*
X87227873Y-55801614D01*
X87223904Y-55828367D01*
X87217333Y-55854602D01*
X87208221Y-55880068D01*
X87196658Y-55904517D01*
X87182753Y-55927715D01*
X87166642Y-55949439D01*
X87148479Y-55969479D01*
X87128439Y-55987642D01*
X87106715Y-56003753D01*
X87083517Y-56017658D01*
X87059068Y-56029221D01*
X87033602Y-56038333D01*
X87007367Y-56044904D01*
X86980614Y-56048873D01*
X86953600Y-56050200D01*
X86302400Y-56050200D01*
X86275386Y-56048873D01*
X86248633Y-56044904D01*
X86222398Y-56038333D01*
X86196932Y-56029221D01*
X86172483Y-56017658D01*
X86149285Y-56003753D01*
X86127561Y-55987642D01*
X86107521Y-55969479D01*
X86089358Y-55949439D01*
X86073247Y-55927715D01*
X86059342Y-55904517D01*
X86047779Y-55880068D01*
X86038667Y-55854602D01*
X86032096Y-55828367D01*
X86028127Y-55801614D01*
X86026800Y-55774600D01*
X86026800Y-55223400D01*
X86028127Y-55196386D01*
X86032096Y-55169633D01*
X86038667Y-55143398D01*
X86047779Y-55117932D01*
X86059342Y-55093483D01*
X86073247Y-55070285D01*
X86089358Y-55048561D01*
X86107521Y-55028521D01*
X86127561Y-55010358D01*
X86149285Y-54994247D01*
X86172483Y-54980342D01*
X86196932Y-54968779D01*
X86222398Y-54959667D01*
X86248633Y-54953096D01*
X86275386Y-54949127D01*
X86302400Y-54947800D01*
X86953600Y-54947800D01*
X86980614Y-54949127D01*
X86980614Y-54949127D01*
G37*
D11*
X86628000Y-55499000D03*
D10*
G36*
X88730614Y-54949127D02*
X88757367Y-54953096D01*
X88783602Y-54959667D01*
X88809068Y-54968779D01*
X88833517Y-54980342D01*
X88856715Y-54994247D01*
X88878439Y-55010358D01*
X88898479Y-55028521D01*
X88916642Y-55048561D01*
X88932753Y-55070285D01*
X88946658Y-55093483D01*
X88958221Y-55117932D01*
X88967333Y-55143398D01*
X88973904Y-55169633D01*
X88977873Y-55196386D01*
X88979200Y-55223400D01*
X88979200Y-55774600D01*
X88977873Y-55801614D01*
X88973904Y-55828367D01*
X88967333Y-55854602D01*
X88958221Y-55880068D01*
X88946658Y-55904517D01*
X88932753Y-55927715D01*
X88916642Y-55949439D01*
X88898479Y-55969479D01*
X88878439Y-55987642D01*
X88856715Y-56003753D01*
X88833517Y-56017658D01*
X88809068Y-56029221D01*
X88783602Y-56038333D01*
X88757367Y-56044904D01*
X88730614Y-56048873D01*
X88703600Y-56050200D01*
X88052400Y-56050200D01*
X88025386Y-56048873D01*
X87998633Y-56044904D01*
X87972398Y-56038333D01*
X87946932Y-56029221D01*
X87922483Y-56017658D01*
X87899285Y-56003753D01*
X87877561Y-55987642D01*
X87857521Y-55969479D01*
X87839358Y-55949439D01*
X87823247Y-55927715D01*
X87809342Y-55904517D01*
X87797779Y-55880068D01*
X87788667Y-55854602D01*
X87782096Y-55828367D01*
X87778127Y-55801614D01*
X87776800Y-55774600D01*
X87776800Y-55223400D01*
X87778127Y-55196386D01*
X87782096Y-55169633D01*
X87788667Y-55143398D01*
X87797779Y-55117932D01*
X87809342Y-55093483D01*
X87823247Y-55070285D01*
X87839358Y-55048561D01*
X87857521Y-55028521D01*
X87877561Y-55010358D01*
X87899285Y-54994247D01*
X87922483Y-54980342D01*
X87946932Y-54968779D01*
X87972398Y-54959667D01*
X87998633Y-54953096D01*
X88025386Y-54949127D01*
X88052400Y-54947800D01*
X88703600Y-54947800D01*
X88730614Y-54949127D01*
X88730614Y-54949127D01*
G37*
D11*
X88378000Y-55499000D03*
G04 #@! TD*
D10*
G04 #@! TO.C,C10*
G36*
X79931614Y-60346127D02*
X79958367Y-60350096D01*
X79984602Y-60356667D01*
X80010068Y-60365779D01*
X80034517Y-60377342D01*
X80057715Y-60391247D01*
X80079439Y-60407358D01*
X80099479Y-60425521D01*
X80117642Y-60445561D01*
X80133753Y-60467285D01*
X80147658Y-60490483D01*
X80159221Y-60514932D01*
X80168333Y-60540398D01*
X80174904Y-60566633D01*
X80178873Y-60593386D01*
X80180200Y-60620400D01*
X80180200Y-61271600D01*
X80178873Y-61298614D01*
X80174904Y-61325367D01*
X80168333Y-61351602D01*
X80159221Y-61377068D01*
X80147658Y-61401517D01*
X80133753Y-61424715D01*
X80117642Y-61446439D01*
X80099479Y-61466479D01*
X80079439Y-61484642D01*
X80057715Y-61500753D01*
X80034517Y-61514658D01*
X80010068Y-61526221D01*
X79984602Y-61535333D01*
X79958367Y-61541904D01*
X79931614Y-61545873D01*
X79904600Y-61547200D01*
X79353400Y-61547200D01*
X79326386Y-61545873D01*
X79299633Y-61541904D01*
X79273398Y-61535333D01*
X79247932Y-61526221D01*
X79223483Y-61514658D01*
X79200285Y-61500753D01*
X79178561Y-61484642D01*
X79158521Y-61466479D01*
X79140358Y-61446439D01*
X79124247Y-61424715D01*
X79110342Y-61401517D01*
X79098779Y-61377068D01*
X79089667Y-61351602D01*
X79083096Y-61325367D01*
X79079127Y-61298614D01*
X79077800Y-61271600D01*
X79077800Y-60620400D01*
X79079127Y-60593386D01*
X79083096Y-60566633D01*
X79089667Y-60540398D01*
X79098779Y-60514932D01*
X79110342Y-60490483D01*
X79124247Y-60467285D01*
X79140358Y-60445561D01*
X79158521Y-60425521D01*
X79178561Y-60407358D01*
X79200285Y-60391247D01*
X79223483Y-60377342D01*
X79247932Y-60365779D01*
X79273398Y-60356667D01*
X79299633Y-60350096D01*
X79326386Y-60346127D01*
X79353400Y-60344800D01*
X79904600Y-60344800D01*
X79931614Y-60346127D01*
X79931614Y-60346127D01*
G37*
D11*
X79629000Y-60946000D03*
D10*
G36*
X79931614Y-58596127D02*
X79958367Y-58600096D01*
X79984602Y-58606667D01*
X80010068Y-58615779D01*
X80034517Y-58627342D01*
X80057715Y-58641247D01*
X80079439Y-58657358D01*
X80099479Y-58675521D01*
X80117642Y-58695561D01*
X80133753Y-58717285D01*
X80147658Y-58740483D01*
X80159221Y-58764932D01*
X80168333Y-58790398D01*
X80174904Y-58816633D01*
X80178873Y-58843386D01*
X80180200Y-58870400D01*
X80180200Y-59521600D01*
X80178873Y-59548614D01*
X80174904Y-59575367D01*
X80168333Y-59601602D01*
X80159221Y-59627068D01*
X80147658Y-59651517D01*
X80133753Y-59674715D01*
X80117642Y-59696439D01*
X80099479Y-59716479D01*
X80079439Y-59734642D01*
X80057715Y-59750753D01*
X80034517Y-59764658D01*
X80010068Y-59776221D01*
X79984602Y-59785333D01*
X79958367Y-59791904D01*
X79931614Y-59795873D01*
X79904600Y-59797200D01*
X79353400Y-59797200D01*
X79326386Y-59795873D01*
X79299633Y-59791904D01*
X79273398Y-59785333D01*
X79247932Y-59776221D01*
X79223483Y-59764658D01*
X79200285Y-59750753D01*
X79178561Y-59734642D01*
X79158521Y-59716479D01*
X79140358Y-59696439D01*
X79124247Y-59674715D01*
X79110342Y-59651517D01*
X79098779Y-59627068D01*
X79089667Y-59601602D01*
X79083096Y-59575367D01*
X79079127Y-59548614D01*
X79077800Y-59521600D01*
X79077800Y-58870400D01*
X79079127Y-58843386D01*
X79083096Y-58816633D01*
X79089667Y-58790398D01*
X79098779Y-58764932D01*
X79110342Y-58740483D01*
X79124247Y-58717285D01*
X79140358Y-58695561D01*
X79158521Y-58675521D01*
X79178561Y-58657358D01*
X79200285Y-58641247D01*
X79223483Y-58627342D01*
X79247932Y-58615779D01*
X79273398Y-58606667D01*
X79299633Y-58600096D01*
X79326386Y-58596127D01*
X79353400Y-58594800D01*
X79904600Y-58594800D01*
X79931614Y-58596127D01*
X79931614Y-58596127D01*
G37*
D11*
X79629000Y-59196000D03*
G04 #@! TD*
D10*
G04 #@! TO.C,C11*
G36*
X82725614Y-60346127D02*
X82752367Y-60350096D01*
X82778602Y-60356667D01*
X82804068Y-60365779D01*
X82828517Y-60377342D01*
X82851715Y-60391247D01*
X82873439Y-60407358D01*
X82893479Y-60425521D01*
X82911642Y-60445561D01*
X82927753Y-60467285D01*
X82941658Y-60490483D01*
X82953221Y-60514932D01*
X82962333Y-60540398D01*
X82968904Y-60566633D01*
X82972873Y-60593386D01*
X82974200Y-60620400D01*
X82974200Y-61271600D01*
X82972873Y-61298614D01*
X82968904Y-61325367D01*
X82962333Y-61351602D01*
X82953221Y-61377068D01*
X82941658Y-61401517D01*
X82927753Y-61424715D01*
X82911642Y-61446439D01*
X82893479Y-61466479D01*
X82873439Y-61484642D01*
X82851715Y-61500753D01*
X82828517Y-61514658D01*
X82804068Y-61526221D01*
X82778602Y-61535333D01*
X82752367Y-61541904D01*
X82725614Y-61545873D01*
X82698600Y-61547200D01*
X82147400Y-61547200D01*
X82120386Y-61545873D01*
X82093633Y-61541904D01*
X82067398Y-61535333D01*
X82041932Y-61526221D01*
X82017483Y-61514658D01*
X81994285Y-61500753D01*
X81972561Y-61484642D01*
X81952521Y-61466479D01*
X81934358Y-61446439D01*
X81918247Y-61424715D01*
X81904342Y-61401517D01*
X81892779Y-61377068D01*
X81883667Y-61351602D01*
X81877096Y-61325367D01*
X81873127Y-61298614D01*
X81871800Y-61271600D01*
X81871800Y-60620400D01*
X81873127Y-60593386D01*
X81877096Y-60566633D01*
X81883667Y-60540398D01*
X81892779Y-60514932D01*
X81904342Y-60490483D01*
X81918247Y-60467285D01*
X81934358Y-60445561D01*
X81952521Y-60425521D01*
X81972561Y-60407358D01*
X81994285Y-60391247D01*
X82017483Y-60377342D01*
X82041932Y-60365779D01*
X82067398Y-60356667D01*
X82093633Y-60350096D01*
X82120386Y-60346127D01*
X82147400Y-60344800D01*
X82698600Y-60344800D01*
X82725614Y-60346127D01*
X82725614Y-60346127D01*
G37*
D11*
X82423000Y-60946000D03*
D10*
G36*
X82725614Y-58596127D02*
X82752367Y-58600096D01*
X82778602Y-58606667D01*
X82804068Y-58615779D01*
X82828517Y-58627342D01*
X82851715Y-58641247D01*
X82873439Y-58657358D01*
X82893479Y-58675521D01*
X82911642Y-58695561D01*
X82927753Y-58717285D01*
X82941658Y-58740483D01*
X82953221Y-58764932D01*
X82962333Y-58790398D01*
X82968904Y-58816633D01*
X82972873Y-58843386D01*
X82974200Y-58870400D01*
X82974200Y-59521600D01*
X82972873Y-59548614D01*
X82968904Y-59575367D01*
X82962333Y-59601602D01*
X82953221Y-59627068D01*
X82941658Y-59651517D01*
X82927753Y-59674715D01*
X82911642Y-59696439D01*
X82893479Y-59716479D01*
X82873439Y-59734642D01*
X82851715Y-59750753D01*
X82828517Y-59764658D01*
X82804068Y-59776221D01*
X82778602Y-59785333D01*
X82752367Y-59791904D01*
X82725614Y-59795873D01*
X82698600Y-59797200D01*
X82147400Y-59797200D01*
X82120386Y-59795873D01*
X82093633Y-59791904D01*
X82067398Y-59785333D01*
X82041932Y-59776221D01*
X82017483Y-59764658D01*
X81994285Y-59750753D01*
X81972561Y-59734642D01*
X81952521Y-59716479D01*
X81934358Y-59696439D01*
X81918247Y-59674715D01*
X81904342Y-59651517D01*
X81892779Y-59627068D01*
X81883667Y-59601602D01*
X81877096Y-59575367D01*
X81873127Y-59548614D01*
X81871800Y-59521600D01*
X81871800Y-58870400D01*
X81873127Y-58843386D01*
X81877096Y-58816633D01*
X81883667Y-58790398D01*
X81892779Y-58764932D01*
X81904342Y-58740483D01*
X81918247Y-58717285D01*
X81934358Y-58695561D01*
X81952521Y-58675521D01*
X81972561Y-58657358D01*
X81994285Y-58641247D01*
X82017483Y-58627342D01*
X82041932Y-58615779D01*
X82067398Y-58606667D01*
X82093633Y-58600096D01*
X82120386Y-58596127D01*
X82147400Y-58594800D01*
X82698600Y-58594800D01*
X82725614Y-58596127D01*
X82725614Y-58596127D01*
G37*
D11*
X82423000Y-59196000D03*
G04 #@! TD*
D15*
G04 #@! TO.C,J2*
X81534000Y-82042000D03*
D16*
X78994000Y-82042000D03*
G04 #@! TD*
D17*
G04 #@! TO.C,J3*
X100075000Y-48181000D03*
D18*
X104775000Y-45181000D03*
D19*
X104775000Y-51181000D03*
G04 #@! TD*
D20*
G04 #@! TO.C,J6*
X60099000Y-122087000D03*
X38099000Y-122087000D03*
D21*
X55399000Y-121627000D03*
X51199000Y-121627000D03*
X46999000Y-121627000D03*
X42799000Y-121627000D03*
X55399000Y-127127000D03*
X51199000Y-127127000D03*
X46999000Y-127127000D03*
D22*
X42799000Y-127127000D03*
G04 #@! TD*
D23*
G04 #@! TO.C,L1*
X72486000Y-68580000D03*
X78486000Y-68580000D03*
G04 #@! TD*
G04 #@! TO.C,L2*
X82519000Y-122428000D03*
X88519000Y-122428000D03*
G04 #@! TD*
D10*
G04 #@! TO.C,R1*
G36*
X59421614Y-153120127D02*
X59448367Y-153124096D01*
X59474602Y-153130667D01*
X59500068Y-153139779D01*
X59524517Y-153151342D01*
X59547715Y-153165247D01*
X59569439Y-153181358D01*
X59589479Y-153199521D01*
X59607642Y-153219561D01*
X59623753Y-153241285D01*
X59637658Y-153264483D01*
X59649221Y-153288932D01*
X59658333Y-153314398D01*
X59664904Y-153340633D01*
X59668873Y-153367386D01*
X59670200Y-153394400D01*
X59670200Y-153945600D01*
X59668873Y-153972614D01*
X59664904Y-153999367D01*
X59658333Y-154025602D01*
X59649221Y-154051068D01*
X59637658Y-154075517D01*
X59623753Y-154098715D01*
X59607642Y-154120439D01*
X59589479Y-154140479D01*
X59569439Y-154158642D01*
X59547715Y-154174753D01*
X59524517Y-154188658D01*
X59500068Y-154200221D01*
X59474602Y-154209333D01*
X59448367Y-154215904D01*
X59421614Y-154219873D01*
X59394600Y-154221200D01*
X58743400Y-154221200D01*
X58716386Y-154219873D01*
X58689633Y-154215904D01*
X58663398Y-154209333D01*
X58637932Y-154200221D01*
X58613483Y-154188658D01*
X58590285Y-154174753D01*
X58568561Y-154158642D01*
X58548521Y-154140479D01*
X58530358Y-154120439D01*
X58514247Y-154098715D01*
X58500342Y-154075517D01*
X58488779Y-154051068D01*
X58479667Y-154025602D01*
X58473096Y-153999367D01*
X58469127Y-153972614D01*
X58467800Y-153945600D01*
X58467800Y-153394400D01*
X58469127Y-153367386D01*
X58473096Y-153340633D01*
X58479667Y-153314398D01*
X58488779Y-153288932D01*
X58500342Y-153264483D01*
X58514247Y-153241285D01*
X58530358Y-153219561D01*
X58548521Y-153199521D01*
X58568561Y-153181358D01*
X58590285Y-153165247D01*
X58613483Y-153151342D01*
X58637932Y-153139779D01*
X58663398Y-153130667D01*
X58689633Y-153124096D01*
X58716386Y-153120127D01*
X58743400Y-153118800D01*
X59394600Y-153118800D01*
X59421614Y-153120127D01*
X59421614Y-153120127D01*
G37*
D11*
X59069000Y-153670000D03*
D10*
G36*
X61171614Y-153120127D02*
X61198367Y-153124096D01*
X61224602Y-153130667D01*
X61250068Y-153139779D01*
X61274517Y-153151342D01*
X61297715Y-153165247D01*
X61319439Y-153181358D01*
X61339479Y-153199521D01*
X61357642Y-153219561D01*
X61373753Y-153241285D01*
X61387658Y-153264483D01*
X61399221Y-153288932D01*
X61408333Y-153314398D01*
X61414904Y-153340633D01*
X61418873Y-153367386D01*
X61420200Y-153394400D01*
X61420200Y-153945600D01*
X61418873Y-153972614D01*
X61414904Y-153999367D01*
X61408333Y-154025602D01*
X61399221Y-154051068D01*
X61387658Y-154075517D01*
X61373753Y-154098715D01*
X61357642Y-154120439D01*
X61339479Y-154140479D01*
X61319439Y-154158642D01*
X61297715Y-154174753D01*
X61274517Y-154188658D01*
X61250068Y-154200221D01*
X61224602Y-154209333D01*
X61198367Y-154215904D01*
X61171614Y-154219873D01*
X61144600Y-154221200D01*
X60493400Y-154221200D01*
X60466386Y-154219873D01*
X60439633Y-154215904D01*
X60413398Y-154209333D01*
X60387932Y-154200221D01*
X60363483Y-154188658D01*
X60340285Y-154174753D01*
X60318561Y-154158642D01*
X60298521Y-154140479D01*
X60280358Y-154120439D01*
X60264247Y-154098715D01*
X60250342Y-154075517D01*
X60238779Y-154051068D01*
X60229667Y-154025602D01*
X60223096Y-153999367D01*
X60219127Y-153972614D01*
X60217800Y-153945600D01*
X60217800Y-153394400D01*
X60219127Y-153367386D01*
X60223096Y-153340633D01*
X60229667Y-153314398D01*
X60238779Y-153288932D01*
X60250342Y-153264483D01*
X60264247Y-153241285D01*
X60280358Y-153219561D01*
X60298521Y-153199521D01*
X60318561Y-153181358D01*
X60340285Y-153165247D01*
X60363483Y-153151342D01*
X60387932Y-153139779D01*
X60413398Y-153130667D01*
X60439633Y-153124096D01*
X60466386Y-153120127D01*
X60493400Y-153118800D01*
X61144600Y-153118800D01*
X61171614Y-153120127D01*
X61171614Y-153120127D01*
G37*
D11*
X60819000Y-153670000D03*
G04 #@! TD*
D10*
G04 #@! TO.C,R2*
G36*
X59421614Y-156168127D02*
X59448367Y-156172096D01*
X59474602Y-156178667D01*
X59500068Y-156187779D01*
X59524517Y-156199342D01*
X59547715Y-156213247D01*
X59569439Y-156229358D01*
X59589479Y-156247521D01*
X59607642Y-156267561D01*
X59623753Y-156289285D01*
X59637658Y-156312483D01*
X59649221Y-156336932D01*
X59658333Y-156362398D01*
X59664904Y-156388633D01*
X59668873Y-156415386D01*
X59670200Y-156442400D01*
X59670200Y-156993600D01*
X59668873Y-157020614D01*
X59664904Y-157047367D01*
X59658333Y-157073602D01*
X59649221Y-157099068D01*
X59637658Y-157123517D01*
X59623753Y-157146715D01*
X59607642Y-157168439D01*
X59589479Y-157188479D01*
X59569439Y-157206642D01*
X59547715Y-157222753D01*
X59524517Y-157236658D01*
X59500068Y-157248221D01*
X59474602Y-157257333D01*
X59448367Y-157263904D01*
X59421614Y-157267873D01*
X59394600Y-157269200D01*
X58743400Y-157269200D01*
X58716386Y-157267873D01*
X58689633Y-157263904D01*
X58663398Y-157257333D01*
X58637932Y-157248221D01*
X58613483Y-157236658D01*
X58590285Y-157222753D01*
X58568561Y-157206642D01*
X58548521Y-157188479D01*
X58530358Y-157168439D01*
X58514247Y-157146715D01*
X58500342Y-157123517D01*
X58488779Y-157099068D01*
X58479667Y-157073602D01*
X58473096Y-157047367D01*
X58469127Y-157020614D01*
X58467800Y-156993600D01*
X58467800Y-156442400D01*
X58469127Y-156415386D01*
X58473096Y-156388633D01*
X58479667Y-156362398D01*
X58488779Y-156336932D01*
X58500342Y-156312483D01*
X58514247Y-156289285D01*
X58530358Y-156267561D01*
X58548521Y-156247521D01*
X58568561Y-156229358D01*
X58590285Y-156213247D01*
X58613483Y-156199342D01*
X58637932Y-156187779D01*
X58663398Y-156178667D01*
X58689633Y-156172096D01*
X58716386Y-156168127D01*
X58743400Y-156166800D01*
X59394600Y-156166800D01*
X59421614Y-156168127D01*
X59421614Y-156168127D01*
G37*
D11*
X59069000Y-156718000D03*
D10*
G36*
X61171614Y-156168127D02*
X61198367Y-156172096D01*
X61224602Y-156178667D01*
X61250068Y-156187779D01*
X61274517Y-156199342D01*
X61297715Y-156213247D01*
X61319439Y-156229358D01*
X61339479Y-156247521D01*
X61357642Y-156267561D01*
X61373753Y-156289285D01*
X61387658Y-156312483D01*
X61399221Y-156336932D01*
X61408333Y-156362398D01*
X61414904Y-156388633D01*
X61418873Y-156415386D01*
X61420200Y-156442400D01*
X61420200Y-156993600D01*
X61418873Y-157020614D01*
X61414904Y-157047367D01*
X61408333Y-157073602D01*
X61399221Y-157099068D01*
X61387658Y-157123517D01*
X61373753Y-157146715D01*
X61357642Y-157168439D01*
X61339479Y-157188479D01*
X61319439Y-157206642D01*
X61297715Y-157222753D01*
X61274517Y-157236658D01*
X61250068Y-157248221D01*
X61224602Y-157257333D01*
X61198367Y-157263904D01*
X61171614Y-157267873D01*
X61144600Y-157269200D01*
X60493400Y-157269200D01*
X60466386Y-157267873D01*
X60439633Y-157263904D01*
X60413398Y-157257333D01*
X60387932Y-157248221D01*
X60363483Y-157236658D01*
X60340285Y-157222753D01*
X60318561Y-157206642D01*
X60298521Y-157188479D01*
X60280358Y-157168439D01*
X60264247Y-157146715D01*
X60250342Y-157123517D01*
X60238779Y-157099068D01*
X60229667Y-157073602D01*
X60223096Y-157047367D01*
X60219127Y-157020614D01*
X60217800Y-156993600D01*
X60217800Y-156442400D01*
X60219127Y-156415386D01*
X60223096Y-156388633D01*
X60229667Y-156362398D01*
X60238779Y-156336932D01*
X60250342Y-156312483D01*
X60264247Y-156289285D01*
X60280358Y-156267561D01*
X60298521Y-156247521D01*
X60318561Y-156229358D01*
X60340285Y-156213247D01*
X60363483Y-156199342D01*
X60387932Y-156187779D01*
X60413398Y-156178667D01*
X60439633Y-156172096D01*
X60466386Y-156168127D01*
X60493400Y-156166800D01*
X61144600Y-156166800D01*
X61171614Y-156168127D01*
X61171614Y-156168127D01*
G37*
D11*
X60819000Y-156718000D03*
G04 #@! TD*
D10*
G04 #@! TO.C,R4*
G36*
X114158614Y-55330127D02*
X114185367Y-55334096D01*
X114211602Y-55340667D01*
X114237068Y-55349779D01*
X114261517Y-55361342D01*
X114284715Y-55375247D01*
X114306439Y-55391358D01*
X114326479Y-55409521D01*
X114344642Y-55429561D01*
X114360753Y-55451285D01*
X114374658Y-55474483D01*
X114386221Y-55498932D01*
X114395333Y-55524398D01*
X114401904Y-55550633D01*
X114405873Y-55577386D01*
X114407200Y-55604400D01*
X114407200Y-56155600D01*
X114405873Y-56182614D01*
X114401904Y-56209367D01*
X114395333Y-56235602D01*
X114386221Y-56261068D01*
X114374658Y-56285517D01*
X114360753Y-56308715D01*
X114344642Y-56330439D01*
X114326479Y-56350479D01*
X114306439Y-56368642D01*
X114284715Y-56384753D01*
X114261517Y-56398658D01*
X114237068Y-56410221D01*
X114211602Y-56419333D01*
X114185367Y-56425904D01*
X114158614Y-56429873D01*
X114131600Y-56431200D01*
X113480400Y-56431200D01*
X113453386Y-56429873D01*
X113426633Y-56425904D01*
X113400398Y-56419333D01*
X113374932Y-56410221D01*
X113350483Y-56398658D01*
X113327285Y-56384753D01*
X113305561Y-56368642D01*
X113285521Y-56350479D01*
X113267358Y-56330439D01*
X113251247Y-56308715D01*
X113237342Y-56285517D01*
X113225779Y-56261068D01*
X113216667Y-56235602D01*
X113210096Y-56209367D01*
X113206127Y-56182614D01*
X113204800Y-56155600D01*
X113204800Y-55604400D01*
X113206127Y-55577386D01*
X113210096Y-55550633D01*
X113216667Y-55524398D01*
X113225779Y-55498932D01*
X113237342Y-55474483D01*
X113251247Y-55451285D01*
X113267358Y-55429561D01*
X113285521Y-55409521D01*
X113305561Y-55391358D01*
X113327285Y-55375247D01*
X113350483Y-55361342D01*
X113374932Y-55349779D01*
X113400398Y-55340667D01*
X113426633Y-55334096D01*
X113453386Y-55330127D01*
X113480400Y-55328800D01*
X114131600Y-55328800D01*
X114158614Y-55330127D01*
X114158614Y-55330127D01*
G37*
D11*
X113806000Y-55880000D03*
D10*
G36*
X115908614Y-55330127D02*
X115935367Y-55334096D01*
X115961602Y-55340667D01*
X115987068Y-55349779D01*
X116011517Y-55361342D01*
X116034715Y-55375247D01*
X116056439Y-55391358D01*
X116076479Y-55409521D01*
X116094642Y-55429561D01*
X116110753Y-55451285D01*
X116124658Y-55474483D01*
X116136221Y-55498932D01*
X116145333Y-55524398D01*
X116151904Y-55550633D01*
X116155873Y-55577386D01*
X116157200Y-55604400D01*
X116157200Y-56155600D01*
X116155873Y-56182614D01*
X116151904Y-56209367D01*
X116145333Y-56235602D01*
X116136221Y-56261068D01*
X116124658Y-56285517D01*
X116110753Y-56308715D01*
X116094642Y-56330439D01*
X116076479Y-56350479D01*
X116056439Y-56368642D01*
X116034715Y-56384753D01*
X116011517Y-56398658D01*
X115987068Y-56410221D01*
X115961602Y-56419333D01*
X115935367Y-56425904D01*
X115908614Y-56429873D01*
X115881600Y-56431200D01*
X115230400Y-56431200D01*
X115203386Y-56429873D01*
X115176633Y-56425904D01*
X115150398Y-56419333D01*
X115124932Y-56410221D01*
X115100483Y-56398658D01*
X115077285Y-56384753D01*
X115055561Y-56368642D01*
X115035521Y-56350479D01*
X115017358Y-56330439D01*
X115001247Y-56308715D01*
X114987342Y-56285517D01*
X114975779Y-56261068D01*
X114966667Y-56235602D01*
X114960096Y-56209367D01*
X114956127Y-56182614D01*
X114954800Y-56155600D01*
X114954800Y-55604400D01*
X114956127Y-55577386D01*
X114960096Y-55550633D01*
X114966667Y-55524398D01*
X114975779Y-55498932D01*
X114987342Y-55474483D01*
X115001247Y-55451285D01*
X115017358Y-55429561D01*
X115035521Y-55409521D01*
X115055561Y-55391358D01*
X115077285Y-55375247D01*
X115100483Y-55361342D01*
X115124932Y-55349779D01*
X115150398Y-55340667D01*
X115176633Y-55334096D01*
X115203386Y-55330127D01*
X115230400Y-55328800D01*
X115881600Y-55328800D01*
X115908614Y-55330127D01*
X115908614Y-55330127D01*
G37*
D11*
X115556000Y-55880000D03*
G04 #@! TD*
D10*
G04 #@! TO.C,R5*
G36*
X123556614Y-55330127D02*
X123583367Y-55334096D01*
X123609602Y-55340667D01*
X123635068Y-55349779D01*
X123659517Y-55361342D01*
X123682715Y-55375247D01*
X123704439Y-55391358D01*
X123724479Y-55409521D01*
X123742642Y-55429561D01*
X123758753Y-55451285D01*
X123772658Y-55474483D01*
X123784221Y-55498932D01*
X123793333Y-55524398D01*
X123799904Y-55550633D01*
X123803873Y-55577386D01*
X123805200Y-55604400D01*
X123805200Y-56155600D01*
X123803873Y-56182614D01*
X123799904Y-56209367D01*
X123793333Y-56235602D01*
X123784221Y-56261068D01*
X123772658Y-56285517D01*
X123758753Y-56308715D01*
X123742642Y-56330439D01*
X123724479Y-56350479D01*
X123704439Y-56368642D01*
X123682715Y-56384753D01*
X123659517Y-56398658D01*
X123635068Y-56410221D01*
X123609602Y-56419333D01*
X123583367Y-56425904D01*
X123556614Y-56429873D01*
X123529600Y-56431200D01*
X122878400Y-56431200D01*
X122851386Y-56429873D01*
X122824633Y-56425904D01*
X122798398Y-56419333D01*
X122772932Y-56410221D01*
X122748483Y-56398658D01*
X122725285Y-56384753D01*
X122703561Y-56368642D01*
X122683521Y-56350479D01*
X122665358Y-56330439D01*
X122649247Y-56308715D01*
X122635342Y-56285517D01*
X122623779Y-56261068D01*
X122614667Y-56235602D01*
X122608096Y-56209367D01*
X122604127Y-56182614D01*
X122602800Y-56155600D01*
X122602800Y-55604400D01*
X122604127Y-55577386D01*
X122608096Y-55550633D01*
X122614667Y-55524398D01*
X122623779Y-55498932D01*
X122635342Y-55474483D01*
X122649247Y-55451285D01*
X122665358Y-55429561D01*
X122683521Y-55409521D01*
X122703561Y-55391358D01*
X122725285Y-55375247D01*
X122748483Y-55361342D01*
X122772932Y-55349779D01*
X122798398Y-55340667D01*
X122824633Y-55334096D01*
X122851386Y-55330127D01*
X122878400Y-55328800D01*
X123529600Y-55328800D01*
X123556614Y-55330127D01*
X123556614Y-55330127D01*
G37*
D11*
X123204000Y-55880000D03*
D10*
G36*
X125306614Y-55330127D02*
X125333367Y-55334096D01*
X125359602Y-55340667D01*
X125385068Y-55349779D01*
X125409517Y-55361342D01*
X125432715Y-55375247D01*
X125454439Y-55391358D01*
X125474479Y-55409521D01*
X125492642Y-55429561D01*
X125508753Y-55451285D01*
X125522658Y-55474483D01*
X125534221Y-55498932D01*
X125543333Y-55524398D01*
X125549904Y-55550633D01*
X125553873Y-55577386D01*
X125555200Y-55604400D01*
X125555200Y-56155600D01*
X125553873Y-56182614D01*
X125549904Y-56209367D01*
X125543333Y-56235602D01*
X125534221Y-56261068D01*
X125522658Y-56285517D01*
X125508753Y-56308715D01*
X125492642Y-56330439D01*
X125474479Y-56350479D01*
X125454439Y-56368642D01*
X125432715Y-56384753D01*
X125409517Y-56398658D01*
X125385068Y-56410221D01*
X125359602Y-56419333D01*
X125333367Y-56425904D01*
X125306614Y-56429873D01*
X125279600Y-56431200D01*
X124628400Y-56431200D01*
X124601386Y-56429873D01*
X124574633Y-56425904D01*
X124548398Y-56419333D01*
X124522932Y-56410221D01*
X124498483Y-56398658D01*
X124475285Y-56384753D01*
X124453561Y-56368642D01*
X124433521Y-56350479D01*
X124415358Y-56330439D01*
X124399247Y-56308715D01*
X124385342Y-56285517D01*
X124373779Y-56261068D01*
X124364667Y-56235602D01*
X124358096Y-56209367D01*
X124354127Y-56182614D01*
X124352800Y-56155600D01*
X124352800Y-55604400D01*
X124354127Y-55577386D01*
X124358096Y-55550633D01*
X124364667Y-55524398D01*
X124373779Y-55498932D01*
X124385342Y-55474483D01*
X124399247Y-55451285D01*
X124415358Y-55429561D01*
X124433521Y-55409521D01*
X124453561Y-55391358D01*
X124475285Y-55375247D01*
X124498483Y-55361342D01*
X124522932Y-55349779D01*
X124548398Y-55340667D01*
X124574633Y-55334096D01*
X124601386Y-55330127D01*
X124628400Y-55328800D01*
X125279600Y-55328800D01*
X125306614Y-55330127D01*
X125306614Y-55330127D01*
G37*
D11*
X124954000Y-55880000D03*
G04 #@! TD*
D10*
G04 #@! TO.C,R7*
G36*
X101331614Y-112861127D02*
X101358367Y-112865096D01*
X101384602Y-112871667D01*
X101410068Y-112880779D01*
X101434517Y-112892342D01*
X101457715Y-112906247D01*
X101479439Y-112922358D01*
X101499479Y-112940521D01*
X101517642Y-112960561D01*
X101533753Y-112982285D01*
X101547658Y-113005483D01*
X101559221Y-113029932D01*
X101568333Y-113055398D01*
X101574904Y-113081633D01*
X101578873Y-113108386D01*
X101580200Y-113135400D01*
X101580200Y-113686600D01*
X101578873Y-113713614D01*
X101574904Y-113740367D01*
X101568333Y-113766602D01*
X101559221Y-113792068D01*
X101547658Y-113816517D01*
X101533753Y-113839715D01*
X101517642Y-113861439D01*
X101499479Y-113881479D01*
X101479439Y-113899642D01*
X101457715Y-113915753D01*
X101434517Y-113929658D01*
X101410068Y-113941221D01*
X101384602Y-113950333D01*
X101358367Y-113956904D01*
X101331614Y-113960873D01*
X101304600Y-113962200D01*
X100653400Y-113962200D01*
X100626386Y-113960873D01*
X100599633Y-113956904D01*
X100573398Y-113950333D01*
X100547932Y-113941221D01*
X100523483Y-113929658D01*
X100500285Y-113915753D01*
X100478561Y-113899642D01*
X100458521Y-113881479D01*
X100440358Y-113861439D01*
X100424247Y-113839715D01*
X100410342Y-113816517D01*
X100398779Y-113792068D01*
X100389667Y-113766602D01*
X100383096Y-113740367D01*
X100379127Y-113713614D01*
X100377800Y-113686600D01*
X100377800Y-113135400D01*
X100379127Y-113108386D01*
X100383096Y-113081633D01*
X100389667Y-113055398D01*
X100398779Y-113029932D01*
X100410342Y-113005483D01*
X100424247Y-112982285D01*
X100440358Y-112960561D01*
X100458521Y-112940521D01*
X100478561Y-112922358D01*
X100500285Y-112906247D01*
X100523483Y-112892342D01*
X100547932Y-112880779D01*
X100573398Y-112871667D01*
X100599633Y-112865096D01*
X100626386Y-112861127D01*
X100653400Y-112859800D01*
X101304600Y-112859800D01*
X101331614Y-112861127D01*
X101331614Y-112861127D01*
G37*
D11*
X100979000Y-113411000D03*
D10*
G36*
X103081614Y-112861127D02*
X103108367Y-112865096D01*
X103134602Y-112871667D01*
X103160068Y-112880779D01*
X103184517Y-112892342D01*
X103207715Y-112906247D01*
X103229439Y-112922358D01*
X103249479Y-112940521D01*
X103267642Y-112960561D01*
X103283753Y-112982285D01*
X103297658Y-113005483D01*
X103309221Y-113029932D01*
X103318333Y-113055398D01*
X103324904Y-113081633D01*
X103328873Y-113108386D01*
X103330200Y-113135400D01*
X103330200Y-113686600D01*
X103328873Y-113713614D01*
X103324904Y-113740367D01*
X103318333Y-113766602D01*
X103309221Y-113792068D01*
X103297658Y-113816517D01*
X103283753Y-113839715D01*
X103267642Y-113861439D01*
X103249479Y-113881479D01*
X103229439Y-113899642D01*
X103207715Y-113915753D01*
X103184517Y-113929658D01*
X103160068Y-113941221D01*
X103134602Y-113950333D01*
X103108367Y-113956904D01*
X103081614Y-113960873D01*
X103054600Y-113962200D01*
X102403400Y-113962200D01*
X102376386Y-113960873D01*
X102349633Y-113956904D01*
X102323398Y-113950333D01*
X102297932Y-113941221D01*
X102273483Y-113929658D01*
X102250285Y-113915753D01*
X102228561Y-113899642D01*
X102208521Y-113881479D01*
X102190358Y-113861439D01*
X102174247Y-113839715D01*
X102160342Y-113816517D01*
X102148779Y-113792068D01*
X102139667Y-113766602D01*
X102133096Y-113740367D01*
X102129127Y-113713614D01*
X102127800Y-113686600D01*
X102127800Y-113135400D01*
X102129127Y-113108386D01*
X102133096Y-113081633D01*
X102139667Y-113055398D01*
X102148779Y-113029932D01*
X102160342Y-113005483D01*
X102174247Y-112982285D01*
X102190358Y-112960561D01*
X102208521Y-112940521D01*
X102228561Y-112922358D01*
X102250285Y-112906247D01*
X102273483Y-112892342D01*
X102297932Y-112880779D01*
X102323398Y-112871667D01*
X102349633Y-112865096D01*
X102376386Y-112861127D01*
X102403400Y-112859800D01*
X103054600Y-112859800D01*
X103081614Y-112861127D01*
X103081614Y-112861127D01*
G37*
D11*
X102729000Y-113411000D03*
G04 #@! TD*
D10*
G04 #@! TO.C,R8*
G36*
X92286614Y-54949127D02*
X92313367Y-54953096D01*
X92339602Y-54959667D01*
X92365068Y-54968779D01*
X92389517Y-54980342D01*
X92412715Y-54994247D01*
X92434439Y-55010358D01*
X92454479Y-55028521D01*
X92472642Y-55048561D01*
X92488753Y-55070285D01*
X92502658Y-55093483D01*
X92514221Y-55117932D01*
X92523333Y-55143398D01*
X92529904Y-55169633D01*
X92533873Y-55196386D01*
X92535200Y-55223400D01*
X92535200Y-55774600D01*
X92533873Y-55801614D01*
X92529904Y-55828367D01*
X92523333Y-55854602D01*
X92514221Y-55880068D01*
X92502658Y-55904517D01*
X92488753Y-55927715D01*
X92472642Y-55949439D01*
X92454479Y-55969479D01*
X92434439Y-55987642D01*
X92412715Y-56003753D01*
X92389517Y-56017658D01*
X92365068Y-56029221D01*
X92339602Y-56038333D01*
X92313367Y-56044904D01*
X92286614Y-56048873D01*
X92259600Y-56050200D01*
X91608400Y-56050200D01*
X91581386Y-56048873D01*
X91554633Y-56044904D01*
X91528398Y-56038333D01*
X91502932Y-56029221D01*
X91478483Y-56017658D01*
X91455285Y-56003753D01*
X91433561Y-55987642D01*
X91413521Y-55969479D01*
X91395358Y-55949439D01*
X91379247Y-55927715D01*
X91365342Y-55904517D01*
X91353779Y-55880068D01*
X91344667Y-55854602D01*
X91338096Y-55828367D01*
X91334127Y-55801614D01*
X91332800Y-55774600D01*
X91332800Y-55223400D01*
X91334127Y-55196386D01*
X91338096Y-55169633D01*
X91344667Y-55143398D01*
X91353779Y-55117932D01*
X91365342Y-55093483D01*
X91379247Y-55070285D01*
X91395358Y-55048561D01*
X91413521Y-55028521D01*
X91433561Y-55010358D01*
X91455285Y-54994247D01*
X91478483Y-54980342D01*
X91502932Y-54968779D01*
X91528398Y-54959667D01*
X91554633Y-54953096D01*
X91581386Y-54949127D01*
X91608400Y-54947800D01*
X92259600Y-54947800D01*
X92286614Y-54949127D01*
X92286614Y-54949127D01*
G37*
D11*
X91934000Y-55499000D03*
D10*
G36*
X90536614Y-54949127D02*
X90563367Y-54953096D01*
X90589602Y-54959667D01*
X90615068Y-54968779D01*
X90639517Y-54980342D01*
X90662715Y-54994247D01*
X90684439Y-55010358D01*
X90704479Y-55028521D01*
X90722642Y-55048561D01*
X90738753Y-55070285D01*
X90752658Y-55093483D01*
X90764221Y-55117932D01*
X90773333Y-55143398D01*
X90779904Y-55169633D01*
X90783873Y-55196386D01*
X90785200Y-55223400D01*
X90785200Y-55774600D01*
X90783873Y-55801614D01*
X90779904Y-55828367D01*
X90773333Y-55854602D01*
X90764221Y-55880068D01*
X90752658Y-55904517D01*
X90738753Y-55927715D01*
X90722642Y-55949439D01*
X90704479Y-55969479D01*
X90684439Y-55987642D01*
X90662715Y-56003753D01*
X90639517Y-56017658D01*
X90615068Y-56029221D01*
X90589602Y-56038333D01*
X90563367Y-56044904D01*
X90536614Y-56048873D01*
X90509600Y-56050200D01*
X89858400Y-56050200D01*
X89831386Y-56048873D01*
X89804633Y-56044904D01*
X89778398Y-56038333D01*
X89752932Y-56029221D01*
X89728483Y-56017658D01*
X89705285Y-56003753D01*
X89683561Y-55987642D01*
X89663521Y-55969479D01*
X89645358Y-55949439D01*
X89629247Y-55927715D01*
X89615342Y-55904517D01*
X89603779Y-55880068D01*
X89594667Y-55854602D01*
X89588096Y-55828367D01*
X89584127Y-55801614D01*
X89582800Y-55774600D01*
X89582800Y-55223400D01*
X89584127Y-55196386D01*
X89588096Y-55169633D01*
X89594667Y-55143398D01*
X89603779Y-55117932D01*
X89615342Y-55093483D01*
X89629247Y-55070285D01*
X89645358Y-55048561D01*
X89663521Y-55028521D01*
X89683561Y-55010358D01*
X89705285Y-54994247D01*
X89728483Y-54980342D01*
X89752932Y-54968779D01*
X89778398Y-54959667D01*
X89804633Y-54953096D01*
X89831386Y-54949127D01*
X89858400Y-54947800D01*
X90509600Y-54947800D01*
X90536614Y-54949127D01*
X90536614Y-54949127D01*
G37*
D11*
X90184000Y-55499000D03*
G04 #@! TD*
D10*
G04 #@! TO.C,R10*
G36*
X76072614Y-58632127D02*
X76099367Y-58636096D01*
X76125602Y-58642667D01*
X76151068Y-58651779D01*
X76175517Y-58663342D01*
X76198715Y-58677247D01*
X76220439Y-58693358D01*
X76240479Y-58711521D01*
X76258642Y-58731561D01*
X76274753Y-58753285D01*
X76288658Y-58776483D01*
X76300221Y-58800932D01*
X76309333Y-58826398D01*
X76315904Y-58852633D01*
X76319873Y-58879386D01*
X76321200Y-58906400D01*
X76321200Y-59457600D01*
X76319873Y-59484614D01*
X76315904Y-59511367D01*
X76309333Y-59537602D01*
X76300221Y-59563068D01*
X76288658Y-59587517D01*
X76274753Y-59610715D01*
X76258642Y-59632439D01*
X76240479Y-59652479D01*
X76220439Y-59670642D01*
X76198715Y-59686753D01*
X76175517Y-59700658D01*
X76151068Y-59712221D01*
X76125602Y-59721333D01*
X76099367Y-59727904D01*
X76072614Y-59731873D01*
X76045600Y-59733200D01*
X75394400Y-59733200D01*
X75367386Y-59731873D01*
X75340633Y-59727904D01*
X75314398Y-59721333D01*
X75288932Y-59712221D01*
X75264483Y-59700658D01*
X75241285Y-59686753D01*
X75219561Y-59670642D01*
X75199521Y-59652479D01*
X75181358Y-59632439D01*
X75165247Y-59610715D01*
X75151342Y-59587517D01*
X75139779Y-59563068D01*
X75130667Y-59537602D01*
X75124096Y-59511367D01*
X75120127Y-59484614D01*
X75118800Y-59457600D01*
X75118800Y-58906400D01*
X75120127Y-58879386D01*
X75124096Y-58852633D01*
X75130667Y-58826398D01*
X75139779Y-58800932D01*
X75151342Y-58776483D01*
X75165247Y-58753285D01*
X75181358Y-58731561D01*
X75199521Y-58711521D01*
X75219561Y-58693358D01*
X75241285Y-58677247D01*
X75264483Y-58663342D01*
X75288932Y-58651779D01*
X75314398Y-58642667D01*
X75340633Y-58636096D01*
X75367386Y-58632127D01*
X75394400Y-58630800D01*
X76045600Y-58630800D01*
X76072614Y-58632127D01*
X76072614Y-58632127D01*
G37*
D11*
X75720000Y-59182000D03*
D10*
G36*
X77822614Y-58632127D02*
X77849367Y-58636096D01*
X77875602Y-58642667D01*
X77901068Y-58651779D01*
X77925517Y-58663342D01*
X77948715Y-58677247D01*
X77970439Y-58693358D01*
X77990479Y-58711521D01*
X78008642Y-58731561D01*
X78024753Y-58753285D01*
X78038658Y-58776483D01*
X78050221Y-58800932D01*
X78059333Y-58826398D01*
X78065904Y-58852633D01*
X78069873Y-58879386D01*
X78071200Y-58906400D01*
X78071200Y-59457600D01*
X78069873Y-59484614D01*
X78065904Y-59511367D01*
X78059333Y-59537602D01*
X78050221Y-59563068D01*
X78038658Y-59587517D01*
X78024753Y-59610715D01*
X78008642Y-59632439D01*
X77990479Y-59652479D01*
X77970439Y-59670642D01*
X77948715Y-59686753D01*
X77925517Y-59700658D01*
X77901068Y-59712221D01*
X77875602Y-59721333D01*
X77849367Y-59727904D01*
X77822614Y-59731873D01*
X77795600Y-59733200D01*
X77144400Y-59733200D01*
X77117386Y-59731873D01*
X77090633Y-59727904D01*
X77064398Y-59721333D01*
X77038932Y-59712221D01*
X77014483Y-59700658D01*
X76991285Y-59686753D01*
X76969561Y-59670642D01*
X76949521Y-59652479D01*
X76931358Y-59632439D01*
X76915247Y-59610715D01*
X76901342Y-59587517D01*
X76889779Y-59563068D01*
X76880667Y-59537602D01*
X76874096Y-59511367D01*
X76870127Y-59484614D01*
X76868800Y-59457600D01*
X76868800Y-58906400D01*
X76870127Y-58879386D01*
X76874096Y-58852633D01*
X76880667Y-58826398D01*
X76889779Y-58800932D01*
X76901342Y-58776483D01*
X76915247Y-58753285D01*
X76931358Y-58731561D01*
X76949521Y-58711521D01*
X76969561Y-58693358D01*
X76991285Y-58677247D01*
X77014483Y-58663342D01*
X77038932Y-58651779D01*
X77064398Y-58642667D01*
X77090633Y-58636096D01*
X77117386Y-58632127D01*
X77144400Y-58630800D01*
X77795600Y-58630800D01*
X77822614Y-58632127D01*
X77822614Y-58632127D01*
G37*
D11*
X77470000Y-59182000D03*
G04 #@! TD*
D24*
G04 #@! TO.C,U1*
X53061000Y-99963000D03*
X53061000Y-95363000D03*
X53061000Y-97663000D03*
D25*
X46761000Y-97663000D03*
G04 #@! TD*
D26*
G04 #@! TO.C,U2*
X90932000Y-60579000D03*
D27*
X92182000Y-57829000D03*
X90682000Y-57829000D03*
X90182000Y-57829000D03*
X89682000Y-57829000D03*
X89182000Y-57829000D03*
X88682000Y-57829000D03*
D28*
X87682000Y-58829000D03*
X87682000Y-59329000D03*
X87682000Y-59829000D03*
X87682000Y-60329000D03*
X87682000Y-60829000D03*
X87682000Y-61329000D03*
X87682000Y-61829000D03*
X87682000Y-62329000D03*
D27*
X88682000Y-63329000D03*
X89182000Y-63329000D03*
X89682000Y-63329000D03*
X91182000Y-63329000D03*
X91682000Y-63329000D03*
X92182000Y-63329000D03*
X92682000Y-63329000D03*
D28*
X94182000Y-61829000D03*
X94182000Y-61329000D03*
X94182000Y-60829000D03*
X94182000Y-59329000D03*
X94182000Y-58829000D03*
D29*
X90932000Y-60579000D03*
G04 #@! TD*
D30*
G04 #@! TO.C,U3*
X99822000Y-121666000D03*
D28*
X102572000Y-122916000D03*
X102572000Y-121416000D03*
X102572000Y-120916000D03*
X102572000Y-120416000D03*
X102572000Y-119916000D03*
X102572000Y-119416000D03*
D27*
X101572000Y-118416000D03*
X101072000Y-118416000D03*
X100572000Y-118416000D03*
X100072000Y-118416000D03*
X99572000Y-118416000D03*
X99072000Y-118416000D03*
X98572000Y-118416000D03*
X98072000Y-118416000D03*
D28*
X97072000Y-119416000D03*
X97072000Y-119916000D03*
X97072000Y-120416000D03*
X97072000Y-121916000D03*
X97072000Y-122416000D03*
X97072000Y-122916000D03*
X97072000Y-123416000D03*
D27*
X98572000Y-124916000D03*
X99072000Y-124916000D03*
X99572000Y-124916000D03*
X101072000Y-124916000D03*
X101572000Y-124916000D03*
D29*
X99822000Y-121666000D03*
G04 #@! TD*
D21*
G04 #@! TO.C,J10*
X106045000Y-63793000D03*
D22*
X106045000Y-58293000D03*
G04 #@! TD*
D10*
G04 #@! TO.C,R12*
G36*
X116126614Y-45247127D02*
X116153367Y-45251096D01*
X116179602Y-45257667D01*
X116205068Y-45266779D01*
X116229517Y-45278342D01*
X116252715Y-45292247D01*
X116274439Y-45308358D01*
X116294479Y-45326521D01*
X116312642Y-45346561D01*
X116328753Y-45368285D01*
X116342658Y-45391483D01*
X116354221Y-45415932D01*
X116363333Y-45441398D01*
X116369904Y-45467633D01*
X116373873Y-45494386D01*
X116375200Y-45521400D01*
X116375200Y-46172600D01*
X116373873Y-46199614D01*
X116369904Y-46226367D01*
X116363333Y-46252602D01*
X116354221Y-46278068D01*
X116342658Y-46302517D01*
X116328753Y-46325715D01*
X116312642Y-46347439D01*
X116294479Y-46367479D01*
X116274439Y-46385642D01*
X116252715Y-46401753D01*
X116229517Y-46415658D01*
X116205068Y-46427221D01*
X116179602Y-46436333D01*
X116153367Y-46442904D01*
X116126614Y-46446873D01*
X116099600Y-46448200D01*
X115548400Y-46448200D01*
X115521386Y-46446873D01*
X115494633Y-46442904D01*
X115468398Y-46436333D01*
X115442932Y-46427221D01*
X115418483Y-46415658D01*
X115395285Y-46401753D01*
X115373561Y-46385642D01*
X115353521Y-46367479D01*
X115335358Y-46347439D01*
X115319247Y-46325715D01*
X115305342Y-46302517D01*
X115293779Y-46278068D01*
X115284667Y-46252602D01*
X115278096Y-46226367D01*
X115274127Y-46199614D01*
X115272800Y-46172600D01*
X115272800Y-45521400D01*
X115274127Y-45494386D01*
X115278096Y-45467633D01*
X115284667Y-45441398D01*
X115293779Y-45415932D01*
X115305342Y-45391483D01*
X115319247Y-45368285D01*
X115335358Y-45346561D01*
X115353521Y-45326521D01*
X115373561Y-45308358D01*
X115395285Y-45292247D01*
X115418483Y-45278342D01*
X115442932Y-45266779D01*
X115468398Y-45257667D01*
X115494633Y-45251096D01*
X115521386Y-45247127D01*
X115548400Y-45245800D01*
X116099600Y-45245800D01*
X116126614Y-45247127D01*
X116126614Y-45247127D01*
G37*
D11*
X115824000Y-45847000D03*
D10*
G36*
X116126614Y-43497127D02*
X116153367Y-43501096D01*
X116179602Y-43507667D01*
X116205068Y-43516779D01*
X116229517Y-43528342D01*
X116252715Y-43542247D01*
X116274439Y-43558358D01*
X116294479Y-43576521D01*
X116312642Y-43596561D01*
X116328753Y-43618285D01*
X116342658Y-43641483D01*
X116354221Y-43665932D01*
X116363333Y-43691398D01*
X116369904Y-43717633D01*
X116373873Y-43744386D01*
X116375200Y-43771400D01*
X116375200Y-44422600D01*
X116373873Y-44449614D01*
X116369904Y-44476367D01*
X116363333Y-44502602D01*
X116354221Y-44528068D01*
X116342658Y-44552517D01*
X116328753Y-44575715D01*
X116312642Y-44597439D01*
X116294479Y-44617479D01*
X116274439Y-44635642D01*
X116252715Y-44651753D01*
X116229517Y-44665658D01*
X116205068Y-44677221D01*
X116179602Y-44686333D01*
X116153367Y-44692904D01*
X116126614Y-44696873D01*
X116099600Y-44698200D01*
X115548400Y-44698200D01*
X115521386Y-44696873D01*
X115494633Y-44692904D01*
X115468398Y-44686333D01*
X115442932Y-44677221D01*
X115418483Y-44665658D01*
X115395285Y-44651753D01*
X115373561Y-44635642D01*
X115353521Y-44617479D01*
X115335358Y-44597439D01*
X115319247Y-44575715D01*
X115305342Y-44552517D01*
X115293779Y-44528068D01*
X115284667Y-44502602D01*
X115278096Y-44476367D01*
X115274127Y-44449614D01*
X115272800Y-44422600D01*
X115272800Y-43771400D01*
X115274127Y-43744386D01*
X115278096Y-43717633D01*
X115284667Y-43691398D01*
X115293779Y-43665932D01*
X115305342Y-43641483D01*
X115319247Y-43618285D01*
X115335358Y-43596561D01*
X115353521Y-43576521D01*
X115373561Y-43558358D01*
X115395285Y-43542247D01*
X115418483Y-43528342D01*
X115442932Y-43516779D01*
X115468398Y-43507667D01*
X115494633Y-43501096D01*
X115521386Y-43497127D01*
X115548400Y-43495800D01*
X116099600Y-43495800D01*
X116126614Y-43497127D01*
X116126614Y-43497127D01*
G37*
D11*
X115824000Y-44097000D03*
G04 #@! TD*
D10*
G04 #@! TO.C,R13*
G36*
X121841614Y-45247127D02*
X121868367Y-45251096D01*
X121894602Y-45257667D01*
X121920068Y-45266779D01*
X121944517Y-45278342D01*
X121967715Y-45292247D01*
X121989439Y-45308358D01*
X122009479Y-45326521D01*
X122027642Y-45346561D01*
X122043753Y-45368285D01*
X122057658Y-45391483D01*
X122069221Y-45415932D01*
X122078333Y-45441398D01*
X122084904Y-45467633D01*
X122088873Y-45494386D01*
X122090200Y-45521400D01*
X122090200Y-46172600D01*
X122088873Y-46199614D01*
X122084904Y-46226367D01*
X122078333Y-46252602D01*
X122069221Y-46278068D01*
X122057658Y-46302517D01*
X122043753Y-46325715D01*
X122027642Y-46347439D01*
X122009479Y-46367479D01*
X121989439Y-46385642D01*
X121967715Y-46401753D01*
X121944517Y-46415658D01*
X121920068Y-46427221D01*
X121894602Y-46436333D01*
X121868367Y-46442904D01*
X121841614Y-46446873D01*
X121814600Y-46448200D01*
X121263400Y-46448200D01*
X121236386Y-46446873D01*
X121209633Y-46442904D01*
X121183398Y-46436333D01*
X121157932Y-46427221D01*
X121133483Y-46415658D01*
X121110285Y-46401753D01*
X121088561Y-46385642D01*
X121068521Y-46367479D01*
X121050358Y-46347439D01*
X121034247Y-46325715D01*
X121020342Y-46302517D01*
X121008779Y-46278068D01*
X120999667Y-46252602D01*
X120993096Y-46226367D01*
X120989127Y-46199614D01*
X120987800Y-46172600D01*
X120987800Y-45521400D01*
X120989127Y-45494386D01*
X120993096Y-45467633D01*
X120999667Y-45441398D01*
X121008779Y-45415932D01*
X121020342Y-45391483D01*
X121034247Y-45368285D01*
X121050358Y-45346561D01*
X121068521Y-45326521D01*
X121088561Y-45308358D01*
X121110285Y-45292247D01*
X121133483Y-45278342D01*
X121157932Y-45266779D01*
X121183398Y-45257667D01*
X121209633Y-45251096D01*
X121236386Y-45247127D01*
X121263400Y-45245800D01*
X121814600Y-45245800D01*
X121841614Y-45247127D01*
X121841614Y-45247127D01*
G37*
D11*
X121539000Y-45847000D03*
D10*
G36*
X121841614Y-43497127D02*
X121868367Y-43501096D01*
X121894602Y-43507667D01*
X121920068Y-43516779D01*
X121944517Y-43528342D01*
X121967715Y-43542247D01*
X121989439Y-43558358D01*
X122009479Y-43576521D01*
X122027642Y-43596561D01*
X122043753Y-43618285D01*
X122057658Y-43641483D01*
X122069221Y-43665932D01*
X122078333Y-43691398D01*
X122084904Y-43717633D01*
X122088873Y-43744386D01*
X122090200Y-43771400D01*
X122090200Y-44422600D01*
X122088873Y-44449614D01*
X122084904Y-44476367D01*
X122078333Y-44502602D01*
X122069221Y-44528068D01*
X122057658Y-44552517D01*
X122043753Y-44575715D01*
X122027642Y-44597439D01*
X122009479Y-44617479D01*
X121989439Y-44635642D01*
X121967715Y-44651753D01*
X121944517Y-44665658D01*
X121920068Y-44677221D01*
X121894602Y-44686333D01*
X121868367Y-44692904D01*
X121841614Y-44696873D01*
X121814600Y-44698200D01*
X121263400Y-44698200D01*
X121236386Y-44696873D01*
X121209633Y-44692904D01*
X121183398Y-44686333D01*
X121157932Y-44677221D01*
X121133483Y-44665658D01*
X121110285Y-44651753D01*
X121088561Y-44635642D01*
X121068521Y-44617479D01*
X121050358Y-44597439D01*
X121034247Y-44575715D01*
X121020342Y-44552517D01*
X121008779Y-44528068D01*
X120999667Y-44502602D01*
X120993096Y-44476367D01*
X120989127Y-44449614D01*
X120987800Y-44422600D01*
X120987800Y-43771400D01*
X120989127Y-43744386D01*
X120993096Y-43717633D01*
X120999667Y-43691398D01*
X121008779Y-43665932D01*
X121020342Y-43641483D01*
X121034247Y-43618285D01*
X121050358Y-43596561D01*
X121068521Y-43576521D01*
X121088561Y-43558358D01*
X121110285Y-43542247D01*
X121133483Y-43528342D01*
X121157932Y-43516779D01*
X121183398Y-43507667D01*
X121209633Y-43501096D01*
X121236386Y-43497127D01*
X121263400Y-43495800D01*
X121814600Y-43495800D01*
X121841614Y-43497127D01*
X121841614Y-43497127D01*
G37*
D11*
X121539000Y-44097000D03*
G04 #@! TD*
D31*
G04 #@! TO.C,TB1*
X162077400Y-96494600D03*
X162077400Y-107213400D03*
X39852600Y-96494600D03*
X39852600Y-107213400D03*
G04 #@! TD*
D10*
G04 #@! TO.C,C15*
G36*
X64801088Y-73022133D02*
X64827952Y-73026117D01*
X64854296Y-73032716D01*
X64879866Y-73041865D01*
X64904416Y-73053477D01*
X64927710Y-73067439D01*
X64949523Y-73083616D01*
X64969646Y-73101854D01*
X64987884Y-73121977D01*
X65004061Y-73143790D01*
X65018023Y-73167084D01*
X65029635Y-73191634D01*
X65038784Y-73217204D01*
X65045383Y-73243548D01*
X65049367Y-73270412D01*
X65050700Y-73297537D01*
X65050700Y-75546463D01*
X65049367Y-75573588D01*
X65045383Y-75600452D01*
X65038784Y-75626796D01*
X65029635Y-75652366D01*
X65018023Y-75676916D01*
X65004061Y-75700210D01*
X64987884Y-75722023D01*
X64969646Y-75742146D01*
X64949523Y-75760384D01*
X64927710Y-75776561D01*
X64904416Y-75790523D01*
X64879866Y-75802135D01*
X64854296Y-75811284D01*
X64827952Y-75817883D01*
X64801088Y-75821867D01*
X64773963Y-75823200D01*
X63750037Y-75823200D01*
X63722912Y-75821867D01*
X63696048Y-75817883D01*
X63669704Y-75811284D01*
X63644134Y-75802135D01*
X63619584Y-75790523D01*
X63596290Y-75776561D01*
X63574477Y-75760384D01*
X63554354Y-75742146D01*
X63536116Y-75722023D01*
X63519939Y-75700210D01*
X63505977Y-75676916D01*
X63494365Y-75652366D01*
X63485216Y-75626796D01*
X63478617Y-75600452D01*
X63474633Y-75573588D01*
X63473300Y-75546463D01*
X63473300Y-73297537D01*
X63474633Y-73270412D01*
X63478617Y-73243548D01*
X63485216Y-73217204D01*
X63494365Y-73191634D01*
X63505977Y-73167084D01*
X63519939Y-73143790D01*
X63536116Y-73121977D01*
X63554354Y-73101854D01*
X63574477Y-73083616D01*
X63596290Y-73067439D01*
X63619584Y-73053477D01*
X63644134Y-73041865D01*
X63669704Y-73032716D01*
X63696048Y-73026117D01*
X63722912Y-73022133D01*
X63750037Y-73020800D01*
X64773963Y-73020800D01*
X64801088Y-73022133D01*
X64801088Y-73022133D01*
G37*
D32*
X64262000Y-74422000D03*
D10*
G36*
X67776088Y-73022133D02*
X67802952Y-73026117D01*
X67829296Y-73032716D01*
X67854866Y-73041865D01*
X67879416Y-73053477D01*
X67902710Y-73067439D01*
X67924523Y-73083616D01*
X67944646Y-73101854D01*
X67962884Y-73121977D01*
X67979061Y-73143790D01*
X67993023Y-73167084D01*
X68004635Y-73191634D01*
X68013784Y-73217204D01*
X68020383Y-73243548D01*
X68024367Y-73270412D01*
X68025700Y-73297537D01*
X68025700Y-75546463D01*
X68024367Y-75573588D01*
X68020383Y-75600452D01*
X68013784Y-75626796D01*
X68004635Y-75652366D01*
X67993023Y-75676916D01*
X67979061Y-75700210D01*
X67962884Y-75722023D01*
X67944646Y-75742146D01*
X67924523Y-75760384D01*
X67902710Y-75776561D01*
X67879416Y-75790523D01*
X67854866Y-75802135D01*
X67829296Y-75811284D01*
X67802952Y-75817883D01*
X67776088Y-75821867D01*
X67748963Y-75823200D01*
X66725037Y-75823200D01*
X66697912Y-75821867D01*
X66671048Y-75817883D01*
X66644704Y-75811284D01*
X66619134Y-75802135D01*
X66594584Y-75790523D01*
X66571290Y-75776561D01*
X66549477Y-75760384D01*
X66529354Y-75742146D01*
X66511116Y-75722023D01*
X66494939Y-75700210D01*
X66480977Y-75676916D01*
X66469365Y-75652366D01*
X66460216Y-75626796D01*
X66453617Y-75600452D01*
X66449633Y-75573588D01*
X66448300Y-75546463D01*
X66448300Y-73297537D01*
X66449633Y-73270412D01*
X66453617Y-73243548D01*
X66460216Y-73217204D01*
X66469365Y-73191634D01*
X66480977Y-73167084D01*
X66494939Y-73143790D01*
X66511116Y-73121977D01*
X66529354Y-73101854D01*
X66549477Y-73083616D01*
X66571290Y-73067439D01*
X66594584Y-73053477D01*
X66619134Y-73041865D01*
X66644704Y-73032716D01*
X66671048Y-73026117D01*
X66697912Y-73022133D01*
X66725037Y-73020800D01*
X67748963Y-73020800D01*
X67776088Y-73022133D01*
X67776088Y-73022133D01*
G37*
D32*
X67237000Y-74422000D03*
G04 #@! TD*
D10*
G04 #@! TO.C,C17*
G36*
X64837588Y-68450133D02*
X64864452Y-68454117D01*
X64890796Y-68460716D01*
X64916366Y-68469865D01*
X64940916Y-68481477D01*
X64964210Y-68495439D01*
X64986023Y-68511616D01*
X65006146Y-68529854D01*
X65024384Y-68549977D01*
X65040561Y-68571790D01*
X65054523Y-68595084D01*
X65066135Y-68619634D01*
X65075284Y-68645204D01*
X65081883Y-68671548D01*
X65085867Y-68698412D01*
X65087200Y-68725537D01*
X65087200Y-70974463D01*
X65085867Y-71001588D01*
X65081883Y-71028452D01*
X65075284Y-71054796D01*
X65066135Y-71080366D01*
X65054523Y-71104916D01*
X65040561Y-71128210D01*
X65024384Y-71150023D01*
X65006146Y-71170146D01*
X64986023Y-71188384D01*
X64964210Y-71204561D01*
X64940916Y-71218523D01*
X64916366Y-71230135D01*
X64890796Y-71239284D01*
X64864452Y-71245883D01*
X64837588Y-71249867D01*
X64810463Y-71251200D01*
X63786537Y-71251200D01*
X63759412Y-71249867D01*
X63732548Y-71245883D01*
X63706204Y-71239284D01*
X63680634Y-71230135D01*
X63656084Y-71218523D01*
X63632790Y-71204561D01*
X63610977Y-71188384D01*
X63590854Y-71170146D01*
X63572616Y-71150023D01*
X63556439Y-71128210D01*
X63542477Y-71104916D01*
X63530865Y-71080366D01*
X63521716Y-71054796D01*
X63515117Y-71028452D01*
X63511133Y-71001588D01*
X63509800Y-70974463D01*
X63509800Y-68725537D01*
X63511133Y-68698412D01*
X63515117Y-68671548D01*
X63521716Y-68645204D01*
X63530865Y-68619634D01*
X63542477Y-68595084D01*
X63556439Y-68571790D01*
X63572616Y-68549977D01*
X63590854Y-68529854D01*
X63610977Y-68511616D01*
X63632790Y-68495439D01*
X63656084Y-68481477D01*
X63680634Y-68469865D01*
X63706204Y-68460716D01*
X63732548Y-68454117D01*
X63759412Y-68450133D01*
X63786537Y-68448800D01*
X64810463Y-68448800D01*
X64837588Y-68450133D01*
X64837588Y-68450133D01*
G37*
D32*
X64298500Y-69850000D03*
D10*
G36*
X67812588Y-68450133D02*
X67839452Y-68454117D01*
X67865796Y-68460716D01*
X67891366Y-68469865D01*
X67915916Y-68481477D01*
X67939210Y-68495439D01*
X67961023Y-68511616D01*
X67981146Y-68529854D01*
X67999384Y-68549977D01*
X68015561Y-68571790D01*
X68029523Y-68595084D01*
X68041135Y-68619634D01*
X68050284Y-68645204D01*
X68056883Y-68671548D01*
X68060867Y-68698412D01*
X68062200Y-68725537D01*
X68062200Y-70974463D01*
X68060867Y-71001588D01*
X68056883Y-71028452D01*
X68050284Y-71054796D01*
X68041135Y-71080366D01*
X68029523Y-71104916D01*
X68015561Y-71128210D01*
X67999384Y-71150023D01*
X67981146Y-71170146D01*
X67961023Y-71188384D01*
X67939210Y-71204561D01*
X67915916Y-71218523D01*
X67891366Y-71230135D01*
X67865796Y-71239284D01*
X67839452Y-71245883D01*
X67812588Y-71249867D01*
X67785463Y-71251200D01*
X66761537Y-71251200D01*
X66734412Y-71249867D01*
X66707548Y-71245883D01*
X66681204Y-71239284D01*
X66655634Y-71230135D01*
X66631084Y-71218523D01*
X66607790Y-71204561D01*
X66585977Y-71188384D01*
X66565854Y-71170146D01*
X66547616Y-71150023D01*
X66531439Y-71128210D01*
X66517477Y-71104916D01*
X66505865Y-71080366D01*
X66496716Y-71054796D01*
X66490117Y-71028452D01*
X66486133Y-71001588D01*
X66484800Y-70974463D01*
X66484800Y-68725537D01*
X66486133Y-68698412D01*
X66490117Y-68671548D01*
X66496716Y-68645204D01*
X66505865Y-68619634D01*
X66517477Y-68595084D01*
X66531439Y-68571790D01*
X66547616Y-68549977D01*
X66565854Y-68529854D01*
X66585977Y-68511616D01*
X66607790Y-68495439D01*
X66631084Y-68481477D01*
X66655634Y-68469865D01*
X66681204Y-68460716D01*
X66707548Y-68454117D01*
X66734412Y-68450133D01*
X66761537Y-68448800D01*
X67785463Y-68448800D01*
X67812588Y-68450133D01*
X67812588Y-68450133D01*
G37*
D32*
X67273500Y-69850000D03*
G04 #@! TD*
D10*
G04 #@! TO.C,C12*
G36*
X64801088Y-77594133D02*
X64827952Y-77598117D01*
X64854296Y-77604716D01*
X64879866Y-77613865D01*
X64904416Y-77625477D01*
X64927710Y-77639439D01*
X64949523Y-77655616D01*
X64969646Y-77673854D01*
X64987884Y-77693977D01*
X65004061Y-77715790D01*
X65018023Y-77739084D01*
X65029635Y-77763634D01*
X65038784Y-77789204D01*
X65045383Y-77815548D01*
X65049367Y-77842412D01*
X65050700Y-77869537D01*
X65050700Y-80118463D01*
X65049367Y-80145588D01*
X65045383Y-80172452D01*
X65038784Y-80198796D01*
X65029635Y-80224366D01*
X65018023Y-80248916D01*
X65004061Y-80272210D01*
X64987884Y-80294023D01*
X64969646Y-80314146D01*
X64949523Y-80332384D01*
X64927710Y-80348561D01*
X64904416Y-80362523D01*
X64879866Y-80374135D01*
X64854296Y-80383284D01*
X64827952Y-80389883D01*
X64801088Y-80393867D01*
X64773963Y-80395200D01*
X63750037Y-80395200D01*
X63722912Y-80393867D01*
X63696048Y-80389883D01*
X63669704Y-80383284D01*
X63644134Y-80374135D01*
X63619584Y-80362523D01*
X63596290Y-80348561D01*
X63574477Y-80332384D01*
X63554354Y-80314146D01*
X63536116Y-80294023D01*
X63519939Y-80272210D01*
X63505977Y-80248916D01*
X63494365Y-80224366D01*
X63485216Y-80198796D01*
X63478617Y-80172452D01*
X63474633Y-80145588D01*
X63473300Y-80118463D01*
X63473300Y-77869537D01*
X63474633Y-77842412D01*
X63478617Y-77815548D01*
X63485216Y-77789204D01*
X63494365Y-77763634D01*
X63505977Y-77739084D01*
X63519939Y-77715790D01*
X63536116Y-77693977D01*
X63554354Y-77673854D01*
X63574477Y-77655616D01*
X63596290Y-77639439D01*
X63619584Y-77625477D01*
X63644134Y-77613865D01*
X63669704Y-77604716D01*
X63696048Y-77598117D01*
X63722912Y-77594133D01*
X63750037Y-77592800D01*
X64773963Y-77592800D01*
X64801088Y-77594133D01*
X64801088Y-77594133D01*
G37*
D32*
X64262000Y-78994000D03*
D10*
G36*
X67776088Y-77594133D02*
X67802952Y-77598117D01*
X67829296Y-77604716D01*
X67854866Y-77613865D01*
X67879416Y-77625477D01*
X67902710Y-77639439D01*
X67924523Y-77655616D01*
X67944646Y-77673854D01*
X67962884Y-77693977D01*
X67979061Y-77715790D01*
X67993023Y-77739084D01*
X68004635Y-77763634D01*
X68013784Y-77789204D01*
X68020383Y-77815548D01*
X68024367Y-77842412D01*
X68025700Y-77869537D01*
X68025700Y-80118463D01*
X68024367Y-80145588D01*
X68020383Y-80172452D01*
X68013784Y-80198796D01*
X68004635Y-80224366D01*
X67993023Y-80248916D01*
X67979061Y-80272210D01*
X67962884Y-80294023D01*
X67944646Y-80314146D01*
X67924523Y-80332384D01*
X67902710Y-80348561D01*
X67879416Y-80362523D01*
X67854866Y-80374135D01*
X67829296Y-80383284D01*
X67802952Y-80389883D01*
X67776088Y-80393867D01*
X67748963Y-80395200D01*
X66725037Y-80395200D01*
X66697912Y-80393867D01*
X66671048Y-80389883D01*
X66644704Y-80383284D01*
X66619134Y-80374135D01*
X66594584Y-80362523D01*
X66571290Y-80348561D01*
X66549477Y-80332384D01*
X66529354Y-80314146D01*
X66511116Y-80294023D01*
X66494939Y-80272210D01*
X66480977Y-80248916D01*
X66469365Y-80224366D01*
X66460216Y-80198796D01*
X66453617Y-80172452D01*
X66449633Y-80145588D01*
X66448300Y-80118463D01*
X66448300Y-77869537D01*
X66449633Y-77842412D01*
X66453617Y-77815548D01*
X66460216Y-77789204D01*
X66469365Y-77763634D01*
X66480977Y-77739084D01*
X66494939Y-77715790D01*
X66511116Y-77693977D01*
X66529354Y-77673854D01*
X66549477Y-77655616D01*
X66571290Y-77639439D01*
X66594584Y-77625477D01*
X66619134Y-77613865D01*
X66644704Y-77604716D01*
X66671048Y-77598117D01*
X66697912Y-77594133D01*
X66725037Y-77592800D01*
X67748963Y-77592800D01*
X67776088Y-77594133D01*
X67776088Y-77594133D01*
G37*
D32*
X67237000Y-78994000D03*
G04 #@! TD*
D10*
G04 #@! TO.C,C4*
G36*
X99127588Y-68450133D02*
X99154452Y-68454117D01*
X99180796Y-68460716D01*
X99206366Y-68469865D01*
X99230916Y-68481477D01*
X99254210Y-68495439D01*
X99276023Y-68511616D01*
X99296146Y-68529854D01*
X99314384Y-68549977D01*
X99330561Y-68571790D01*
X99344523Y-68595084D01*
X99356135Y-68619634D01*
X99365284Y-68645204D01*
X99371883Y-68671548D01*
X99375867Y-68698412D01*
X99377200Y-68725537D01*
X99377200Y-70974463D01*
X99375867Y-71001588D01*
X99371883Y-71028452D01*
X99365284Y-71054796D01*
X99356135Y-71080366D01*
X99344523Y-71104916D01*
X99330561Y-71128210D01*
X99314384Y-71150023D01*
X99296146Y-71170146D01*
X99276023Y-71188384D01*
X99254210Y-71204561D01*
X99230916Y-71218523D01*
X99206366Y-71230135D01*
X99180796Y-71239284D01*
X99154452Y-71245883D01*
X99127588Y-71249867D01*
X99100463Y-71251200D01*
X98076537Y-71251200D01*
X98049412Y-71249867D01*
X98022548Y-71245883D01*
X97996204Y-71239284D01*
X97970634Y-71230135D01*
X97946084Y-71218523D01*
X97922790Y-71204561D01*
X97900977Y-71188384D01*
X97880854Y-71170146D01*
X97862616Y-71150023D01*
X97846439Y-71128210D01*
X97832477Y-71104916D01*
X97820865Y-71080366D01*
X97811716Y-71054796D01*
X97805117Y-71028452D01*
X97801133Y-71001588D01*
X97799800Y-70974463D01*
X97799800Y-68725537D01*
X97801133Y-68698412D01*
X97805117Y-68671548D01*
X97811716Y-68645204D01*
X97820865Y-68619634D01*
X97832477Y-68595084D01*
X97846439Y-68571790D01*
X97862616Y-68549977D01*
X97880854Y-68529854D01*
X97900977Y-68511616D01*
X97922790Y-68495439D01*
X97946084Y-68481477D01*
X97970634Y-68469865D01*
X97996204Y-68460716D01*
X98022548Y-68454117D01*
X98049412Y-68450133D01*
X98076537Y-68448800D01*
X99100463Y-68448800D01*
X99127588Y-68450133D01*
X99127588Y-68450133D01*
G37*
D32*
X98588500Y-69850000D03*
D10*
G36*
X102102588Y-68450133D02*
X102129452Y-68454117D01*
X102155796Y-68460716D01*
X102181366Y-68469865D01*
X102205916Y-68481477D01*
X102229210Y-68495439D01*
X102251023Y-68511616D01*
X102271146Y-68529854D01*
X102289384Y-68549977D01*
X102305561Y-68571790D01*
X102319523Y-68595084D01*
X102331135Y-68619634D01*
X102340284Y-68645204D01*
X102346883Y-68671548D01*
X102350867Y-68698412D01*
X102352200Y-68725537D01*
X102352200Y-70974463D01*
X102350867Y-71001588D01*
X102346883Y-71028452D01*
X102340284Y-71054796D01*
X102331135Y-71080366D01*
X102319523Y-71104916D01*
X102305561Y-71128210D01*
X102289384Y-71150023D01*
X102271146Y-71170146D01*
X102251023Y-71188384D01*
X102229210Y-71204561D01*
X102205916Y-71218523D01*
X102181366Y-71230135D01*
X102155796Y-71239284D01*
X102129452Y-71245883D01*
X102102588Y-71249867D01*
X102075463Y-71251200D01*
X101051537Y-71251200D01*
X101024412Y-71249867D01*
X100997548Y-71245883D01*
X100971204Y-71239284D01*
X100945634Y-71230135D01*
X100921084Y-71218523D01*
X100897790Y-71204561D01*
X100875977Y-71188384D01*
X100855854Y-71170146D01*
X100837616Y-71150023D01*
X100821439Y-71128210D01*
X100807477Y-71104916D01*
X100795865Y-71080366D01*
X100786716Y-71054796D01*
X100780117Y-71028452D01*
X100776133Y-71001588D01*
X100774800Y-70974463D01*
X100774800Y-68725537D01*
X100776133Y-68698412D01*
X100780117Y-68671548D01*
X100786716Y-68645204D01*
X100795865Y-68619634D01*
X100807477Y-68595084D01*
X100821439Y-68571790D01*
X100837616Y-68549977D01*
X100855854Y-68529854D01*
X100875977Y-68511616D01*
X100897790Y-68495439D01*
X100921084Y-68481477D01*
X100945634Y-68469865D01*
X100971204Y-68460716D01*
X100997548Y-68454117D01*
X101024412Y-68450133D01*
X101051537Y-68448800D01*
X102075463Y-68448800D01*
X102102588Y-68450133D01*
X102102588Y-68450133D01*
G37*
D32*
X101563500Y-69850000D03*
G04 #@! TD*
D10*
G04 #@! TO.C,C20*
G36*
X99127588Y-73149133D02*
X99154452Y-73153117D01*
X99180796Y-73159716D01*
X99206366Y-73168865D01*
X99230916Y-73180477D01*
X99254210Y-73194439D01*
X99276023Y-73210616D01*
X99296146Y-73228854D01*
X99314384Y-73248977D01*
X99330561Y-73270790D01*
X99344523Y-73294084D01*
X99356135Y-73318634D01*
X99365284Y-73344204D01*
X99371883Y-73370548D01*
X99375867Y-73397412D01*
X99377200Y-73424537D01*
X99377200Y-75673463D01*
X99375867Y-75700588D01*
X99371883Y-75727452D01*
X99365284Y-75753796D01*
X99356135Y-75779366D01*
X99344523Y-75803916D01*
X99330561Y-75827210D01*
X99314384Y-75849023D01*
X99296146Y-75869146D01*
X99276023Y-75887384D01*
X99254210Y-75903561D01*
X99230916Y-75917523D01*
X99206366Y-75929135D01*
X99180796Y-75938284D01*
X99154452Y-75944883D01*
X99127588Y-75948867D01*
X99100463Y-75950200D01*
X98076537Y-75950200D01*
X98049412Y-75948867D01*
X98022548Y-75944883D01*
X97996204Y-75938284D01*
X97970634Y-75929135D01*
X97946084Y-75917523D01*
X97922790Y-75903561D01*
X97900977Y-75887384D01*
X97880854Y-75869146D01*
X97862616Y-75849023D01*
X97846439Y-75827210D01*
X97832477Y-75803916D01*
X97820865Y-75779366D01*
X97811716Y-75753796D01*
X97805117Y-75727452D01*
X97801133Y-75700588D01*
X97799800Y-75673463D01*
X97799800Y-73424537D01*
X97801133Y-73397412D01*
X97805117Y-73370548D01*
X97811716Y-73344204D01*
X97820865Y-73318634D01*
X97832477Y-73294084D01*
X97846439Y-73270790D01*
X97862616Y-73248977D01*
X97880854Y-73228854D01*
X97900977Y-73210616D01*
X97922790Y-73194439D01*
X97946084Y-73180477D01*
X97970634Y-73168865D01*
X97996204Y-73159716D01*
X98022548Y-73153117D01*
X98049412Y-73149133D01*
X98076537Y-73147800D01*
X99100463Y-73147800D01*
X99127588Y-73149133D01*
X99127588Y-73149133D01*
G37*
D32*
X98588500Y-74549000D03*
D10*
G36*
X102102588Y-73149133D02*
X102129452Y-73153117D01*
X102155796Y-73159716D01*
X102181366Y-73168865D01*
X102205916Y-73180477D01*
X102229210Y-73194439D01*
X102251023Y-73210616D01*
X102271146Y-73228854D01*
X102289384Y-73248977D01*
X102305561Y-73270790D01*
X102319523Y-73294084D01*
X102331135Y-73318634D01*
X102340284Y-73344204D01*
X102346883Y-73370548D01*
X102350867Y-73397412D01*
X102352200Y-73424537D01*
X102352200Y-75673463D01*
X102350867Y-75700588D01*
X102346883Y-75727452D01*
X102340284Y-75753796D01*
X102331135Y-75779366D01*
X102319523Y-75803916D01*
X102305561Y-75827210D01*
X102289384Y-75849023D01*
X102271146Y-75869146D01*
X102251023Y-75887384D01*
X102229210Y-75903561D01*
X102205916Y-75917523D01*
X102181366Y-75929135D01*
X102155796Y-75938284D01*
X102129452Y-75944883D01*
X102102588Y-75948867D01*
X102075463Y-75950200D01*
X101051537Y-75950200D01*
X101024412Y-75948867D01*
X100997548Y-75944883D01*
X100971204Y-75938284D01*
X100945634Y-75929135D01*
X100921084Y-75917523D01*
X100897790Y-75903561D01*
X100875977Y-75887384D01*
X100855854Y-75869146D01*
X100837616Y-75849023D01*
X100821439Y-75827210D01*
X100807477Y-75803916D01*
X100795865Y-75779366D01*
X100786716Y-75753796D01*
X100780117Y-75727452D01*
X100776133Y-75700588D01*
X100774800Y-75673463D01*
X100774800Y-73424537D01*
X100776133Y-73397412D01*
X100780117Y-73370548D01*
X100786716Y-73344204D01*
X100795865Y-73318634D01*
X100807477Y-73294084D01*
X100821439Y-73270790D01*
X100837616Y-73248977D01*
X100855854Y-73228854D01*
X100875977Y-73210616D01*
X100897790Y-73194439D01*
X100921084Y-73180477D01*
X100945634Y-73168865D01*
X100971204Y-73159716D01*
X100997548Y-73153117D01*
X101024412Y-73149133D01*
X101051537Y-73147800D01*
X102075463Y-73147800D01*
X102102588Y-73149133D01*
X102102588Y-73149133D01*
G37*
D32*
X101563500Y-74549000D03*
G04 #@! TD*
D10*
G04 #@! TO.C,C22*
G36*
X96786822Y-66034163D02*
X96814306Y-66038240D01*
X96841258Y-66044991D01*
X96867419Y-66054352D01*
X96892537Y-66066232D01*
X96916369Y-66080516D01*
X96938686Y-66097068D01*
X96959273Y-66115727D01*
X96977932Y-66136314D01*
X96994484Y-66158631D01*
X97008768Y-66182463D01*
X97020648Y-66207581D01*
X97030009Y-66233742D01*
X97036760Y-66260694D01*
X97040837Y-66288178D01*
X97042200Y-66315930D01*
X97042200Y-67052070D01*
X97040837Y-67079822D01*
X97036760Y-67107306D01*
X97030009Y-67134258D01*
X97020648Y-67160419D01*
X97008768Y-67185537D01*
X96994484Y-67209369D01*
X96977932Y-67231686D01*
X96959273Y-67252273D01*
X96938686Y-67270932D01*
X96916369Y-67287484D01*
X96892537Y-67301768D01*
X96867419Y-67313648D01*
X96841258Y-67323009D01*
X96814306Y-67329760D01*
X96786822Y-67333837D01*
X96759070Y-67335200D01*
X95772930Y-67335200D01*
X95745178Y-67333837D01*
X95717694Y-67329760D01*
X95690742Y-67323009D01*
X95664581Y-67313648D01*
X95639463Y-67301768D01*
X95615631Y-67287484D01*
X95593314Y-67270932D01*
X95572727Y-67252273D01*
X95554068Y-67231686D01*
X95537516Y-67209369D01*
X95523232Y-67185537D01*
X95511352Y-67160419D01*
X95501991Y-67134258D01*
X95495240Y-67107306D01*
X95491163Y-67079822D01*
X95489800Y-67052070D01*
X95489800Y-66315930D01*
X95491163Y-66288178D01*
X95495240Y-66260694D01*
X95501991Y-66233742D01*
X95511352Y-66207581D01*
X95523232Y-66182463D01*
X95537516Y-66158631D01*
X95554068Y-66136314D01*
X95572727Y-66115727D01*
X95593314Y-66097068D01*
X95615631Y-66080516D01*
X95639463Y-66066232D01*
X95664581Y-66054352D01*
X95690742Y-66044991D01*
X95717694Y-66038240D01*
X95745178Y-66034163D01*
X95772930Y-66032800D01*
X96759070Y-66032800D01*
X96786822Y-66034163D01*
X96786822Y-66034163D01*
G37*
D33*
X96266000Y-66684000D03*
D10*
G36*
X96786822Y-63984163D02*
X96814306Y-63988240D01*
X96841258Y-63994991D01*
X96867419Y-64004352D01*
X96892537Y-64016232D01*
X96916369Y-64030516D01*
X96938686Y-64047068D01*
X96959273Y-64065727D01*
X96977932Y-64086314D01*
X96994484Y-64108631D01*
X97008768Y-64132463D01*
X97020648Y-64157581D01*
X97030009Y-64183742D01*
X97036760Y-64210694D01*
X97040837Y-64238178D01*
X97042200Y-64265930D01*
X97042200Y-65002070D01*
X97040837Y-65029822D01*
X97036760Y-65057306D01*
X97030009Y-65084258D01*
X97020648Y-65110419D01*
X97008768Y-65135537D01*
X96994484Y-65159369D01*
X96977932Y-65181686D01*
X96959273Y-65202273D01*
X96938686Y-65220932D01*
X96916369Y-65237484D01*
X96892537Y-65251768D01*
X96867419Y-65263648D01*
X96841258Y-65273009D01*
X96814306Y-65279760D01*
X96786822Y-65283837D01*
X96759070Y-65285200D01*
X95772930Y-65285200D01*
X95745178Y-65283837D01*
X95717694Y-65279760D01*
X95690742Y-65273009D01*
X95664581Y-65263648D01*
X95639463Y-65251768D01*
X95615631Y-65237484D01*
X95593314Y-65220932D01*
X95572727Y-65202273D01*
X95554068Y-65181686D01*
X95537516Y-65159369D01*
X95523232Y-65135537D01*
X95511352Y-65110419D01*
X95501991Y-65084258D01*
X95495240Y-65057306D01*
X95491163Y-65029822D01*
X95489800Y-65002070D01*
X95489800Y-64265930D01*
X95491163Y-64238178D01*
X95495240Y-64210694D01*
X95501991Y-64183742D01*
X95511352Y-64157581D01*
X95523232Y-64132463D01*
X95537516Y-64108631D01*
X95554068Y-64086314D01*
X95572727Y-64065727D01*
X95593314Y-64047068D01*
X95615631Y-64030516D01*
X95639463Y-64016232D01*
X95664581Y-64004352D01*
X95690742Y-63994991D01*
X95717694Y-63988240D01*
X95745178Y-63984163D01*
X95772930Y-63982800D01*
X96759070Y-63982800D01*
X96786822Y-63984163D01*
X96786822Y-63984163D01*
G37*
D33*
X96266000Y-64634000D03*
G04 #@! TD*
D10*
G04 #@! TO.C,C3*
G36*
X99957588Y-136463133D02*
X99984452Y-136467117D01*
X100010796Y-136473716D01*
X100036366Y-136482865D01*
X100060916Y-136494477D01*
X100084210Y-136508439D01*
X100106023Y-136524616D01*
X100126146Y-136542854D01*
X100144384Y-136562977D01*
X100160561Y-136584790D01*
X100174523Y-136608084D01*
X100186135Y-136632634D01*
X100195284Y-136658204D01*
X100201883Y-136684548D01*
X100205867Y-136711412D01*
X100207200Y-136738537D01*
X100207200Y-137762463D01*
X100205867Y-137789588D01*
X100201883Y-137816452D01*
X100195284Y-137842796D01*
X100186135Y-137868366D01*
X100174523Y-137892916D01*
X100160561Y-137916210D01*
X100144384Y-137938023D01*
X100126146Y-137958146D01*
X100106023Y-137976384D01*
X100084210Y-137992561D01*
X100060916Y-138006523D01*
X100036366Y-138018135D01*
X100010796Y-138027284D01*
X99984452Y-138033883D01*
X99957588Y-138037867D01*
X99930463Y-138039200D01*
X97681537Y-138039200D01*
X97654412Y-138037867D01*
X97627548Y-138033883D01*
X97601204Y-138027284D01*
X97575634Y-138018135D01*
X97551084Y-138006523D01*
X97527790Y-137992561D01*
X97505977Y-137976384D01*
X97485854Y-137958146D01*
X97467616Y-137938023D01*
X97451439Y-137916210D01*
X97437477Y-137892916D01*
X97425865Y-137868366D01*
X97416716Y-137842796D01*
X97410117Y-137816452D01*
X97406133Y-137789588D01*
X97404800Y-137762463D01*
X97404800Y-136738537D01*
X97406133Y-136711412D01*
X97410117Y-136684548D01*
X97416716Y-136658204D01*
X97425865Y-136632634D01*
X97437477Y-136608084D01*
X97451439Y-136584790D01*
X97467616Y-136562977D01*
X97485854Y-136542854D01*
X97505977Y-136524616D01*
X97527790Y-136508439D01*
X97551084Y-136494477D01*
X97575634Y-136482865D01*
X97601204Y-136473716D01*
X97627548Y-136467117D01*
X97654412Y-136463133D01*
X97681537Y-136461800D01*
X99930463Y-136461800D01*
X99957588Y-136463133D01*
X99957588Y-136463133D01*
G37*
D32*
X98806000Y-137250500D03*
D10*
G36*
X99957588Y-133488133D02*
X99984452Y-133492117D01*
X100010796Y-133498716D01*
X100036366Y-133507865D01*
X100060916Y-133519477D01*
X100084210Y-133533439D01*
X100106023Y-133549616D01*
X100126146Y-133567854D01*
X100144384Y-133587977D01*
X100160561Y-133609790D01*
X100174523Y-133633084D01*
X100186135Y-133657634D01*
X100195284Y-133683204D01*
X100201883Y-133709548D01*
X100205867Y-133736412D01*
X100207200Y-133763537D01*
X100207200Y-134787463D01*
X100205867Y-134814588D01*
X100201883Y-134841452D01*
X100195284Y-134867796D01*
X100186135Y-134893366D01*
X100174523Y-134917916D01*
X100160561Y-134941210D01*
X100144384Y-134963023D01*
X100126146Y-134983146D01*
X100106023Y-135001384D01*
X100084210Y-135017561D01*
X100060916Y-135031523D01*
X100036366Y-135043135D01*
X100010796Y-135052284D01*
X99984452Y-135058883D01*
X99957588Y-135062867D01*
X99930463Y-135064200D01*
X97681537Y-135064200D01*
X97654412Y-135062867D01*
X97627548Y-135058883D01*
X97601204Y-135052284D01*
X97575634Y-135043135D01*
X97551084Y-135031523D01*
X97527790Y-135017561D01*
X97505977Y-135001384D01*
X97485854Y-134983146D01*
X97467616Y-134963023D01*
X97451439Y-134941210D01*
X97437477Y-134917916D01*
X97425865Y-134893366D01*
X97416716Y-134867796D01*
X97410117Y-134841452D01*
X97406133Y-134814588D01*
X97404800Y-134787463D01*
X97404800Y-133763537D01*
X97406133Y-133736412D01*
X97410117Y-133709548D01*
X97416716Y-133683204D01*
X97425865Y-133657634D01*
X97437477Y-133633084D01*
X97451439Y-133609790D01*
X97467616Y-133587977D01*
X97485854Y-133567854D01*
X97505977Y-133549616D01*
X97527790Y-133533439D01*
X97551084Y-133519477D01*
X97575634Y-133507865D01*
X97601204Y-133498716D01*
X97627548Y-133492117D01*
X97654412Y-133488133D01*
X97681537Y-133486800D01*
X99930463Y-133486800D01*
X99957588Y-133488133D01*
X99957588Y-133488133D01*
G37*
D32*
X98806000Y-134275500D03*
G04 #@! TD*
D10*
G04 #@! TO.C,C13*
G36*
X84576588Y-112011133D02*
X84603452Y-112015117D01*
X84629796Y-112021716D01*
X84655366Y-112030865D01*
X84679916Y-112042477D01*
X84703210Y-112056439D01*
X84725023Y-112072616D01*
X84745146Y-112090854D01*
X84763384Y-112110977D01*
X84779561Y-112132790D01*
X84793523Y-112156084D01*
X84805135Y-112180634D01*
X84814284Y-112206204D01*
X84820883Y-112232548D01*
X84824867Y-112259412D01*
X84826200Y-112286537D01*
X84826200Y-114535463D01*
X84824867Y-114562588D01*
X84820883Y-114589452D01*
X84814284Y-114615796D01*
X84805135Y-114641366D01*
X84793523Y-114665916D01*
X84779561Y-114689210D01*
X84763384Y-114711023D01*
X84745146Y-114731146D01*
X84725023Y-114749384D01*
X84703210Y-114765561D01*
X84679916Y-114779523D01*
X84655366Y-114791135D01*
X84629796Y-114800284D01*
X84603452Y-114806883D01*
X84576588Y-114810867D01*
X84549463Y-114812200D01*
X83525537Y-114812200D01*
X83498412Y-114810867D01*
X83471548Y-114806883D01*
X83445204Y-114800284D01*
X83419634Y-114791135D01*
X83395084Y-114779523D01*
X83371790Y-114765561D01*
X83349977Y-114749384D01*
X83329854Y-114731146D01*
X83311616Y-114711023D01*
X83295439Y-114689210D01*
X83281477Y-114665916D01*
X83269865Y-114641366D01*
X83260716Y-114615796D01*
X83254117Y-114589452D01*
X83250133Y-114562588D01*
X83248800Y-114535463D01*
X83248800Y-112286537D01*
X83250133Y-112259412D01*
X83254117Y-112232548D01*
X83260716Y-112206204D01*
X83269865Y-112180634D01*
X83281477Y-112156084D01*
X83295439Y-112132790D01*
X83311616Y-112110977D01*
X83329854Y-112090854D01*
X83349977Y-112072616D01*
X83371790Y-112056439D01*
X83395084Y-112042477D01*
X83419634Y-112030865D01*
X83445204Y-112021716D01*
X83471548Y-112015117D01*
X83498412Y-112011133D01*
X83525537Y-112009800D01*
X84549463Y-112009800D01*
X84576588Y-112011133D01*
X84576588Y-112011133D01*
G37*
D32*
X84037500Y-113411000D03*
D10*
G36*
X81601588Y-112011133D02*
X81628452Y-112015117D01*
X81654796Y-112021716D01*
X81680366Y-112030865D01*
X81704916Y-112042477D01*
X81728210Y-112056439D01*
X81750023Y-112072616D01*
X81770146Y-112090854D01*
X81788384Y-112110977D01*
X81804561Y-112132790D01*
X81818523Y-112156084D01*
X81830135Y-112180634D01*
X81839284Y-112206204D01*
X81845883Y-112232548D01*
X81849867Y-112259412D01*
X81851200Y-112286537D01*
X81851200Y-114535463D01*
X81849867Y-114562588D01*
X81845883Y-114589452D01*
X81839284Y-114615796D01*
X81830135Y-114641366D01*
X81818523Y-114665916D01*
X81804561Y-114689210D01*
X81788384Y-114711023D01*
X81770146Y-114731146D01*
X81750023Y-114749384D01*
X81728210Y-114765561D01*
X81704916Y-114779523D01*
X81680366Y-114791135D01*
X81654796Y-114800284D01*
X81628452Y-114806883D01*
X81601588Y-114810867D01*
X81574463Y-114812200D01*
X80550537Y-114812200D01*
X80523412Y-114810867D01*
X80496548Y-114806883D01*
X80470204Y-114800284D01*
X80444634Y-114791135D01*
X80420084Y-114779523D01*
X80396790Y-114765561D01*
X80374977Y-114749384D01*
X80354854Y-114731146D01*
X80336616Y-114711023D01*
X80320439Y-114689210D01*
X80306477Y-114665916D01*
X80294865Y-114641366D01*
X80285716Y-114615796D01*
X80279117Y-114589452D01*
X80275133Y-114562588D01*
X80273800Y-114535463D01*
X80273800Y-112286537D01*
X80275133Y-112259412D01*
X80279117Y-112232548D01*
X80285716Y-112206204D01*
X80294865Y-112180634D01*
X80306477Y-112156084D01*
X80320439Y-112132790D01*
X80336616Y-112110977D01*
X80354854Y-112090854D01*
X80374977Y-112072616D01*
X80396790Y-112056439D01*
X80420084Y-112042477D01*
X80444634Y-112030865D01*
X80470204Y-112021716D01*
X80496548Y-112015117D01*
X80523412Y-112011133D01*
X80550537Y-112009800D01*
X81574463Y-112009800D01*
X81601588Y-112011133D01*
X81601588Y-112011133D01*
G37*
D32*
X81062500Y-113411000D03*
G04 #@! TD*
D10*
G04 #@! TO.C,C16*
G36*
X84576588Y-105153133D02*
X84603452Y-105157117D01*
X84629796Y-105163716D01*
X84655366Y-105172865D01*
X84679916Y-105184477D01*
X84703210Y-105198439D01*
X84725023Y-105214616D01*
X84745146Y-105232854D01*
X84763384Y-105252977D01*
X84779561Y-105274790D01*
X84793523Y-105298084D01*
X84805135Y-105322634D01*
X84814284Y-105348204D01*
X84820883Y-105374548D01*
X84824867Y-105401412D01*
X84826200Y-105428537D01*
X84826200Y-107677463D01*
X84824867Y-107704588D01*
X84820883Y-107731452D01*
X84814284Y-107757796D01*
X84805135Y-107783366D01*
X84793523Y-107807916D01*
X84779561Y-107831210D01*
X84763384Y-107853023D01*
X84745146Y-107873146D01*
X84725023Y-107891384D01*
X84703210Y-107907561D01*
X84679916Y-107921523D01*
X84655366Y-107933135D01*
X84629796Y-107942284D01*
X84603452Y-107948883D01*
X84576588Y-107952867D01*
X84549463Y-107954200D01*
X83525537Y-107954200D01*
X83498412Y-107952867D01*
X83471548Y-107948883D01*
X83445204Y-107942284D01*
X83419634Y-107933135D01*
X83395084Y-107921523D01*
X83371790Y-107907561D01*
X83349977Y-107891384D01*
X83329854Y-107873146D01*
X83311616Y-107853023D01*
X83295439Y-107831210D01*
X83281477Y-107807916D01*
X83269865Y-107783366D01*
X83260716Y-107757796D01*
X83254117Y-107731452D01*
X83250133Y-107704588D01*
X83248800Y-107677463D01*
X83248800Y-105428537D01*
X83250133Y-105401412D01*
X83254117Y-105374548D01*
X83260716Y-105348204D01*
X83269865Y-105322634D01*
X83281477Y-105298084D01*
X83295439Y-105274790D01*
X83311616Y-105252977D01*
X83329854Y-105232854D01*
X83349977Y-105214616D01*
X83371790Y-105198439D01*
X83395084Y-105184477D01*
X83419634Y-105172865D01*
X83445204Y-105163716D01*
X83471548Y-105157117D01*
X83498412Y-105153133D01*
X83525537Y-105151800D01*
X84549463Y-105151800D01*
X84576588Y-105153133D01*
X84576588Y-105153133D01*
G37*
D32*
X84037500Y-106553000D03*
D10*
G36*
X81601588Y-105153133D02*
X81628452Y-105157117D01*
X81654796Y-105163716D01*
X81680366Y-105172865D01*
X81704916Y-105184477D01*
X81728210Y-105198439D01*
X81750023Y-105214616D01*
X81770146Y-105232854D01*
X81788384Y-105252977D01*
X81804561Y-105274790D01*
X81818523Y-105298084D01*
X81830135Y-105322634D01*
X81839284Y-105348204D01*
X81845883Y-105374548D01*
X81849867Y-105401412D01*
X81851200Y-105428537D01*
X81851200Y-107677463D01*
X81849867Y-107704588D01*
X81845883Y-107731452D01*
X81839284Y-107757796D01*
X81830135Y-107783366D01*
X81818523Y-107807916D01*
X81804561Y-107831210D01*
X81788384Y-107853023D01*
X81770146Y-107873146D01*
X81750023Y-107891384D01*
X81728210Y-107907561D01*
X81704916Y-107921523D01*
X81680366Y-107933135D01*
X81654796Y-107942284D01*
X81628452Y-107948883D01*
X81601588Y-107952867D01*
X81574463Y-107954200D01*
X80550537Y-107954200D01*
X80523412Y-107952867D01*
X80496548Y-107948883D01*
X80470204Y-107942284D01*
X80444634Y-107933135D01*
X80420084Y-107921523D01*
X80396790Y-107907561D01*
X80374977Y-107891384D01*
X80354854Y-107873146D01*
X80336616Y-107853023D01*
X80320439Y-107831210D01*
X80306477Y-107807916D01*
X80294865Y-107783366D01*
X80285716Y-107757796D01*
X80279117Y-107731452D01*
X80275133Y-107704588D01*
X80273800Y-107677463D01*
X80273800Y-105428537D01*
X80275133Y-105401412D01*
X80279117Y-105374548D01*
X80285716Y-105348204D01*
X80294865Y-105322634D01*
X80306477Y-105298084D01*
X80320439Y-105274790D01*
X80336616Y-105252977D01*
X80354854Y-105232854D01*
X80374977Y-105214616D01*
X80396790Y-105198439D01*
X80420084Y-105184477D01*
X80444634Y-105172865D01*
X80470204Y-105163716D01*
X80496548Y-105157117D01*
X80523412Y-105153133D01*
X80550537Y-105151800D01*
X81574463Y-105151800D01*
X81601588Y-105153133D01*
X81601588Y-105153133D01*
G37*
D32*
X81062500Y-106553000D03*
G04 #@! TD*
D10*
G04 #@! TO.C,C18*
G36*
X84576588Y-108582133D02*
X84603452Y-108586117D01*
X84629796Y-108592716D01*
X84655366Y-108601865D01*
X84679916Y-108613477D01*
X84703210Y-108627439D01*
X84725023Y-108643616D01*
X84745146Y-108661854D01*
X84763384Y-108681977D01*
X84779561Y-108703790D01*
X84793523Y-108727084D01*
X84805135Y-108751634D01*
X84814284Y-108777204D01*
X84820883Y-108803548D01*
X84824867Y-108830412D01*
X84826200Y-108857537D01*
X84826200Y-111106463D01*
X84824867Y-111133588D01*
X84820883Y-111160452D01*
X84814284Y-111186796D01*
X84805135Y-111212366D01*
X84793523Y-111236916D01*
X84779561Y-111260210D01*
X84763384Y-111282023D01*
X84745146Y-111302146D01*
X84725023Y-111320384D01*
X84703210Y-111336561D01*
X84679916Y-111350523D01*
X84655366Y-111362135D01*
X84629796Y-111371284D01*
X84603452Y-111377883D01*
X84576588Y-111381867D01*
X84549463Y-111383200D01*
X83525537Y-111383200D01*
X83498412Y-111381867D01*
X83471548Y-111377883D01*
X83445204Y-111371284D01*
X83419634Y-111362135D01*
X83395084Y-111350523D01*
X83371790Y-111336561D01*
X83349977Y-111320384D01*
X83329854Y-111302146D01*
X83311616Y-111282023D01*
X83295439Y-111260210D01*
X83281477Y-111236916D01*
X83269865Y-111212366D01*
X83260716Y-111186796D01*
X83254117Y-111160452D01*
X83250133Y-111133588D01*
X83248800Y-111106463D01*
X83248800Y-108857537D01*
X83250133Y-108830412D01*
X83254117Y-108803548D01*
X83260716Y-108777204D01*
X83269865Y-108751634D01*
X83281477Y-108727084D01*
X83295439Y-108703790D01*
X83311616Y-108681977D01*
X83329854Y-108661854D01*
X83349977Y-108643616D01*
X83371790Y-108627439D01*
X83395084Y-108613477D01*
X83419634Y-108601865D01*
X83445204Y-108592716D01*
X83471548Y-108586117D01*
X83498412Y-108582133D01*
X83525537Y-108580800D01*
X84549463Y-108580800D01*
X84576588Y-108582133D01*
X84576588Y-108582133D01*
G37*
D32*
X84037500Y-109982000D03*
D10*
G36*
X81601588Y-108582133D02*
X81628452Y-108586117D01*
X81654796Y-108592716D01*
X81680366Y-108601865D01*
X81704916Y-108613477D01*
X81728210Y-108627439D01*
X81750023Y-108643616D01*
X81770146Y-108661854D01*
X81788384Y-108681977D01*
X81804561Y-108703790D01*
X81818523Y-108727084D01*
X81830135Y-108751634D01*
X81839284Y-108777204D01*
X81845883Y-108803548D01*
X81849867Y-108830412D01*
X81851200Y-108857537D01*
X81851200Y-111106463D01*
X81849867Y-111133588D01*
X81845883Y-111160452D01*
X81839284Y-111186796D01*
X81830135Y-111212366D01*
X81818523Y-111236916D01*
X81804561Y-111260210D01*
X81788384Y-111282023D01*
X81770146Y-111302146D01*
X81750023Y-111320384D01*
X81728210Y-111336561D01*
X81704916Y-111350523D01*
X81680366Y-111362135D01*
X81654796Y-111371284D01*
X81628452Y-111377883D01*
X81601588Y-111381867D01*
X81574463Y-111383200D01*
X80550537Y-111383200D01*
X80523412Y-111381867D01*
X80496548Y-111377883D01*
X80470204Y-111371284D01*
X80444634Y-111362135D01*
X80420084Y-111350523D01*
X80396790Y-111336561D01*
X80374977Y-111320384D01*
X80354854Y-111302146D01*
X80336616Y-111282023D01*
X80320439Y-111260210D01*
X80306477Y-111236916D01*
X80294865Y-111212366D01*
X80285716Y-111186796D01*
X80279117Y-111160452D01*
X80275133Y-111133588D01*
X80273800Y-111106463D01*
X80273800Y-108857537D01*
X80275133Y-108830412D01*
X80279117Y-108803548D01*
X80285716Y-108777204D01*
X80294865Y-108751634D01*
X80306477Y-108727084D01*
X80320439Y-108703790D01*
X80336616Y-108681977D01*
X80354854Y-108661854D01*
X80374977Y-108643616D01*
X80396790Y-108627439D01*
X80420084Y-108613477D01*
X80444634Y-108601865D01*
X80470204Y-108592716D01*
X80496548Y-108586117D01*
X80523412Y-108582133D01*
X80550537Y-108580800D01*
X81574463Y-108580800D01*
X81601588Y-108582133D01*
X81601588Y-108582133D01*
G37*
D32*
X81062500Y-109982000D03*
G04 #@! TD*
D10*
G04 #@! TO.C,C19*
G36*
X103386588Y-136463133D02*
X103413452Y-136467117D01*
X103439796Y-136473716D01*
X103465366Y-136482865D01*
X103489916Y-136494477D01*
X103513210Y-136508439D01*
X103535023Y-136524616D01*
X103555146Y-136542854D01*
X103573384Y-136562977D01*
X103589561Y-136584790D01*
X103603523Y-136608084D01*
X103615135Y-136632634D01*
X103624284Y-136658204D01*
X103630883Y-136684548D01*
X103634867Y-136711412D01*
X103636200Y-136738537D01*
X103636200Y-137762463D01*
X103634867Y-137789588D01*
X103630883Y-137816452D01*
X103624284Y-137842796D01*
X103615135Y-137868366D01*
X103603523Y-137892916D01*
X103589561Y-137916210D01*
X103573384Y-137938023D01*
X103555146Y-137958146D01*
X103535023Y-137976384D01*
X103513210Y-137992561D01*
X103489916Y-138006523D01*
X103465366Y-138018135D01*
X103439796Y-138027284D01*
X103413452Y-138033883D01*
X103386588Y-138037867D01*
X103359463Y-138039200D01*
X101110537Y-138039200D01*
X101083412Y-138037867D01*
X101056548Y-138033883D01*
X101030204Y-138027284D01*
X101004634Y-138018135D01*
X100980084Y-138006523D01*
X100956790Y-137992561D01*
X100934977Y-137976384D01*
X100914854Y-137958146D01*
X100896616Y-137938023D01*
X100880439Y-137916210D01*
X100866477Y-137892916D01*
X100854865Y-137868366D01*
X100845716Y-137842796D01*
X100839117Y-137816452D01*
X100835133Y-137789588D01*
X100833800Y-137762463D01*
X100833800Y-136738537D01*
X100835133Y-136711412D01*
X100839117Y-136684548D01*
X100845716Y-136658204D01*
X100854865Y-136632634D01*
X100866477Y-136608084D01*
X100880439Y-136584790D01*
X100896616Y-136562977D01*
X100914854Y-136542854D01*
X100934977Y-136524616D01*
X100956790Y-136508439D01*
X100980084Y-136494477D01*
X101004634Y-136482865D01*
X101030204Y-136473716D01*
X101056548Y-136467117D01*
X101083412Y-136463133D01*
X101110537Y-136461800D01*
X103359463Y-136461800D01*
X103386588Y-136463133D01*
X103386588Y-136463133D01*
G37*
D32*
X102235000Y-137250500D03*
D10*
G36*
X103386588Y-133488133D02*
X103413452Y-133492117D01*
X103439796Y-133498716D01*
X103465366Y-133507865D01*
X103489916Y-133519477D01*
X103513210Y-133533439D01*
X103535023Y-133549616D01*
X103555146Y-133567854D01*
X103573384Y-133587977D01*
X103589561Y-133609790D01*
X103603523Y-133633084D01*
X103615135Y-133657634D01*
X103624284Y-133683204D01*
X103630883Y-133709548D01*
X103634867Y-133736412D01*
X103636200Y-133763537D01*
X103636200Y-134787463D01*
X103634867Y-134814588D01*
X103630883Y-134841452D01*
X103624284Y-134867796D01*
X103615135Y-134893366D01*
X103603523Y-134917916D01*
X103589561Y-134941210D01*
X103573384Y-134963023D01*
X103555146Y-134983146D01*
X103535023Y-135001384D01*
X103513210Y-135017561D01*
X103489916Y-135031523D01*
X103465366Y-135043135D01*
X103439796Y-135052284D01*
X103413452Y-135058883D01*
X103386588Y-135062867D01*
X103359463Y-135064200D01*
X101110537Y-135064200D01*
X101083412Y-135062867D01*
X101056548Y-135058883D01*
X101030204Y-135052284D01*
X101004634Y-135043135D01*
X100980084Y-135031523D01*
X100956790Y-135017561D01*
X100934977Y-135001384D01*
X100914854Y-134983146D01*
X100896616Y-134963023D01*
X100880439Y-134941210D01*
X100866477Y-134917916D01*
X100854865Y-134893366D01*
X100845716Y-134867796D01*
X100839117Y-134841452D01*
X100835133Y-134814588D01*
X100833800Y-134787463D01*
X100833800Y-133763537D01*
X100835133Y-133736412D01*
X100839117Y-133709548D01*
X100845716Y-133683204D01*
X100854865Y-133657634D01*
X100866477Y-133633084D01*
X100880439Y-133609790D01*
X100896616Y-133587977D01*
X100914854Y-133567854D01*
X100934977Y-133549616D01*
X100956790Y-133533439D01*
X100980084Y-133519477D01*
X101004634Y-133507865D01*
X101030204Y-133498716D01*
X101056548Y-133492117D01*
X101083412Y-133488133D01*
X101110537Y-133486800D01*
X103359463Y-133486800D01*
X103386588Y-133488133D01*
X103386588Y-133488133D01*
G37*
D32*
X102235000Y-134275500D03*
G04 #@! TD*
D10*
G04 #@! TO.C,C21*
G36*
X94239822Y-126987163D02*
X94267306Y-126991240D01*
X94294258Y-126997991D01*
X94320419Y-127007352D01*
X94345537Y-127019232D01*
X94369369Y-127033516D01*
X94391686Y-127050068D01*
X94412273Y-127068727D01*
X94430932Y-127089314D01*
X94447484Y-127111631D01*
X94461768Y-127135463D01*
X94473648Y-127160581D01*
X94483009Y-127186742D01*
X94489760Y-127213694D01*
X94493837Y-127241178D01*
X94495200Y-127268930D01*
X94495200Y-128255070D01*
X94493837Y-128282822D01*
X94489760Y-128310306D01*
X94483009Y-128337258D01*
X94473648Y-128363419D01*
X94461768Y-128388537D01*
X94447484Y-128412369D01*
X94430932Y-128434686D01*
X94412273Y-128455273D01*
X94391686Y-128473932D01*
X94369369Y-128490484D01*
X94345537Y-128504768D01*
X94320419Y-128516648D01*
X94294258Y-128526009D01*
X94267306Y-128532760D01*
X94239822Y-128536837D01*
X94212070Y-128538200D01*
X93475930Y-128538200D01*
X93448178Y-128536837D01*
X93420694Y-128532760D01*
X93393742Y-128526009D01*
X93367581Y-128516648D01*
X93342463Y-128504768D01*
X93318631Y-128490484D01*
X93296314Y-128473932D01*
X93275727Y-128455273D01*
X93257068Y-128434686D01*
X93240516Y-128412369D01*
X93226232Y-128388537D01*
X93214352Y-128363419D01*
X93204991Y-128337258D01*
X93198240Y-128310306D01*
X93194163Y-128282822D01*
X93192800Y-128255070D01*
X93192800Y-127268930D01*
X93194163Y-127241178D01*
X93198240Y-127213694D01*
X93204991Y-127186742D01*
X93214352Y-127160581D01*
X93226232Y-127135463D01*
X93240516Y-127111631D01*
X93257068Y-127089314D01*
X93275727Y-127068727D01*
X93296314Y-127050068D01*
X93318631Y-127033516D01*
X93342463Y-127019232D01*
X93367581Y-127007352D01*
X93393742Y-126997991D01*
X93420694Y-126991240D01*
X93448178Y-126987163D01*
X93475930Y-126985800D01*
X94212070Y-126985800D01*
X94239822Y-126987163D01*
X94239822Y-126987163D01*
G37*
D33*
X93844000Y-127762000D03*
D10*
G36*
X96289822Y-126987163D02*
X96317306Y-126991240D01*
X96344258Y-126997991D01*
X96370419Y-127007352D01*
X96395537Y-127019232D01*
X96419369Y-127033516D01*
X96441686Y-127050068D01*
X96462273Y-127068727D01*
X96480932Y-127089314D01*
X96497484Y-127111631D01*
X96511768Y-127135463D01*
X96523648Y-127160581D01*
X96533009Y-127186742D01*
X96539760Y-127213694D01*
X96543837Y-127241178D01*
X96545200Y-127268930D01*
X96545200Y-128255070D01*
X96543837Y-128282822D01*
X96539760Y-128310306D01*
X96533009Y-128337258D01*
X96523648Y-128363419D01*
X96511768Y-128388537D01*
X96497484Y-128412369D01*
X96480932Y-128434686D01*
X96462273Y-128455273D01*
X96441686Y-128473932D01*
X96419369Y-128490484D01*
X96395537Y-128504768D01*
X96370419Y-128516648D01*
X96344258Y-128526009D01*
X96317306Y-128532760D01*
X96289822Y-128536837D01*
X96262070Y-128538200D01*
X95525930Y-128538200D01*
X95498178Y-128536837D01*
X95470694Y-128532760D01*
X95443742Y-128526009D01*
X95417581Y-128516648D01*
X95392463Y-128504768D01*
X95368631Y-128490484D01*
X95346314Y-128473932D01*
X95325727Y-128455273D01*
X95307068Y-128434686D01*
X95290516Y-128412369D01*
X95276232Y-128388537D01*
X95264352Y-128363419D01*
X95254991Y-128337258D01*
X95248240Y-128310306D01*
X95244163Y-128282822D01*
X95242800Y-128255070D01*
X95242800Y-127268930D01*
X95244163Y-127241178D01*
X95248240Y-127213694D01*
X95254991Y-127186742D01*
X95264352Y-127160581D01*
X95276232Y-127135463D01*
X95290516Y-127111631D01*
X95307068Y-127089314D01*
X95325727Y-127068727D01*
X95346314Y-127050068D01*
X95368631Y-127033516D01*
X95392463Y-127019232D01*
X95417581Y-127007352D01*
X95443742Y-126997991D01*
X95470694Y-126991240D01*
X95498178Y-126987163D01*
X95525930Y-126985800D01*
X96262070Y-126985800D01*
X96289822Y-126987163D01*
X96289822Y-126987163D01*
G37*
D33*
X95894000Y-127762000D03*
G04 #@! TD*
D10*
G04 #@! TO.C,R3*
G36*
X61970588Y-146624133D02*
X61997452Y-146628117D01*
X62023796Y-146634716D01*
X62049366Y-146643865D01*
X62073916Y-146655477D01*
X62097210Y-146669439D01*
X62119023Y-146685616D01*
X62139146Y-146703854D01*
X62157384Y-146723977D01*
X62173561Y-146745790D01*
X62187523Y-146769084D01*
X62199135Y-146793634D01*
X62208284Y-146819204D01*
X62214883Y-146845548D01*
X62218867Y-146872412D01*
X62220200Y-146899537D01*
X62220200Y-148248463D01*
X62218867Y-148275588D01*
X62214883Y-148302452D01*
X62208284Y-148328796D01*
X62199135Y-148354366D01*
X62187523Y-148378916D01*
X62173561Y-148402210D01*
X62157384Y-148424023D01*
X62139146Y-148444146D01*
X62119023Y-148462384D01*
X62097210Y-148478561D01*
X62073916Y-148492523D01*
X62049366Y-148504135D01*
X62023796Y-148513284D01*
X61997452Y-148519883D01*
X61970588Y-148523867D01*
X61943463Y-148525200D01*
X60919537Y-148525200D01*
X60892412Y-148523867D01*
X60865548Y-148519883D01*
X60839204Y-148513284D01*
X60813634Y-148504135D01*
X60789084Y-148492523D01*
X60765790Y-148478561D01*
X60743977Y-148462384D01*
X60723854Y-148444146D01*
X60705616Y-148424023D01*
X60689439Y-148402210D01*
X60675477Y-148378916D01*
X60663865Y-148354366D01*
X60654716Y-148328796D01*
X60648117Y-148302452D01*
X60644133Y-148275588D01*
X60642800Y-148248463D01*
X60642800Y-146899537D01*
X60644133Y-146872412D01*
X60648117Y-146845548D01*
X60654716Y-146819204D01*
X60663865Y-146793634D01*
X60675477Y-146769084D01*
X60689439Y-146745790D01*
X60705616Y-146723977D01*
X60723854Y-146703854D01*
X60743977Y-146685616D01*
X60765790Y-146669439D01*
X60789084Y-146655477D01*
X60813634Y-146643865D01*
X60839204Y-146634716D01*
X60865548Y-146628117D01*
X60892412Y-146624133D01*
X60919537Y-146622800D01*
X61943463Y-146622800D01*
X61970588Y-146624133D01*
X61970588Y-146624133D01*
G37*
D32*
X61431500Y-147574000D03*
D10*
G36*
X58995588Y-146624133D02*
X59022452Y-146628117D01*
X59048796Y-146634716D01*
X59074366Y-146643865D01*
X59098916Y-146655477D01*
X59122210Y-146669439D01*
X59144023Y-146685616D01*
X59164146Y-146703854D01*
X59182384Y-146723977D01*
X59198561Y-146745790D01*
X59212523Y-146769084D01*
X59224135Y-146793634D01*
X59233284Y-146819204D01*
X59239883Y-146845548D01*
X59243867Y-146872412D01*
X59245200Y-146899537D01*
X59245200Y-148248463D01*
X59243867Y-148275588D01*
X59239883Y-148302452D01*
X59233284Y-148328796D01*
X59224135Y-148354366D01*
X59212523Y-148378916D01*
X59198561Y-148402210D01*
X59182384Y-148424023D01*
X59164146Y-148444146D01*
X59144023Y-148462384D01*
X59122210Y-148478561D01*
X59098916Y-148492523D01*
X59074366Y-148504135D01*
X59048796Y-148513284D01*
X59022452Y-148519883D01*
X58995588Y-148523867D01*
X58968463Y-148525200D01*
X57944537Y-148525200D01*
X57917412Y-148523867D01*
X57890548Y-148519883D01*
X57864204Y-148513284D01*
X57838634Y-148504135D01*
X57814084Y-148492523D01*
X57790790Y-148478561D01*
X57768977Y-148462384D01*
X57748854Y-148444146D01*
X57730616Y-148424023D01*
X57714439Y-148402210D01*
X57700477Y-148378916D01*
X57688865Y-148354366D01*
X57679716Y-148328796D01*
X57673117Y-148302452D01*
X57669133Y-148275588D01*
X57667800Y-148248463D01*
X57667800Y-146899537D01*
X57669133Y-146872412D01*
X57673117Y-146845548D01*
X57679716Y-146819204D01*
X57688865Y-146793634D01*
X57700477Y-146769084D01*
X57714439Y-146745790D01*
X57730616Y-146723977D01*
X57748854Y-146703854D01*
X57768977Y-146685616D01*
X57790790Y-146669439D01*
X57814084Y-146655477D01*
X57838634Y-146643865D01*
X57864204Y-146634716D01*
X57890548Y-146628117D01*
X57917412Y-146624133D01*
X57944537Y-146622800D01*
X58968463Y-146622800D01*
X58995588Y-146624133D01*
X58995588Y-146624133D01*
G37*
D32*
X58456500Y-147574000D03*
G04 #@! TD*
D10*
G04 #@! TO.C,R16*
G36*
X61970588Y-149672133D02*
X61997452Y-149676117D01*
X62023796Y-149682716D01*
X62049366Y-149691865D01*
X62073916Y-149703477D01*
X62097210Y-149717439D01*
X62119023Y-149733616D01*
X62139146Y-149751854D01*
X62157384Y-149771977D01*
X62173561Y-149793790D01*
X62187523Y-149817084D01*
X62199135Y-149841634D01*
X62208284Y-149867204D01*
X62214883Y-149893548D01*
X62218867Y-149920412D01*
X62220200Y-149947537D01*
X62220200Y-151296463D01*
X62218867Y-151323588D01*
X62214883Y-151350452D01*
X62208284Y-151376796D01*
X62199135Y-151402366D01*
X62187523Y-151426916D01*
X62173561Y-151450210D01*
X62157384Y-151472023D01*
X62139146Y-151492146D01*
X62119023Y-151510384D01*
X62097210Y-151526561D01*
X62073916Y-151540523D01*
X62049366Y-151552135D01*
X62023796Y-151561284D01*
X61997452Y-151567883D01*
X61970588Y-151571867D01*
X61943463Y-151573200D01*
X60919537Y-151573200D01*
X60892412Y-151571867D01*
X60865548Y-151567883D01*
X60839204Y-151561284D01*
X60813634Y-151552135D01*
X60789084Y-151540523D01*
X60765790Y-151526561D01*
X60743977Y-151510384D01*
X60723854Y-151492146D01*
X60705616Y-151472023D01*
X60689439Y-151450210D01*
X60675477Y-151426916D01*
X60663865Y-151402366D01*
X60654716Y-151376796D01*
X60648117Y-151350452D01*
X60644133Y-151323588D01*
X60642800Y-151296463D01*
X60642800Y-149947537D01*
X60644133Y-149920412D01*
X60648117Y-149893548D01*
X60654716Y-149867204D01*
X60663865Y-149841634D01*
X60675477Y-149817084D01*
X60689439Y-149793790D01*
X60705616Y-149771977D01*
X60723854Y-149751854D01*
X60743977Y-149733616D01*
X60765790Y-149717439D01*
X60789084Y-149703477D01*
X60813634Y-149691865D01*
X60839204Y-149682716D01*
X60865548Y-149676117D01*
X60892412Y-149672133D01*
X60919537Y-149670800D01*
X61943463Y-149670800D01*
X61970588Y-149672133D01*
X61970588Y-149672133D01*
G37*
D32*
X61431500Y-150622000D03*
D10*
G36*
X58995588Y-149672133D02*
X59022452Y-149676117D01*
X59048796Y-149682716D01*
X59074366Y-149691865D01*
X59098916Y-149703477D01*
X59122210Y-149717439D01*
X59144023Y-149733616D01*
X59164146Y-149751854D01*
X59182384Y-149771977D01*
X59198561Y-149793790D01*
X59212523Y-149817084D01*
X59224135Y-149841634D01*
X59233284Y-149867204D01*
X59239883Y-149893548D01*
X59243867Y-149920412D01*
X59245200Y-149947537D01*
X59245200Y-151296463D01*
X59243867Y-151323588D01*
X59239883Y-151350452D01*
X59233284Y-151376796D01*
X59224135Y-151402366D01*
X59212523Y-151426916D01*
X59198561Y-151450210D01*
X59182384Y-151472023D01*
X59164146Y-151492146D01*
X59144023Y-151510384D01*
X59122210Y-151526561D01*
X59098916Y-151540523D01*
X59074366Y-151552135D01*
X59048796Y-151561284D01*
X59022452Y-151567883D01*
X58995588Y-151571867D01*
X58968463Y-151573200D01*
X57944537Y-151573200D01*
X57917412Y-151571867D01*
X57890548Y-151567883D01*
X57864204Y-151561284D01*
X57838634Y-151552135D01*
X57814084Y-151540523D01*
X57790790Y-151526561D01*
X57768977Y-151510384D01*
X57748854Y-151492146D01*
X57730616Y-151472023D01*
X57714439Y-151450210D01*
X57700477Y-151426916D01*
X57688865Y-151402366D01*
X57679716Y-151376796D01*
X57673117Y-151350452D01*
X57669133Y-151323588D01*
X57667800Y-151296463D01*
X57667800Y-149947537D01*
X57669133Y-149920412D01*
X57673117Y-149893548D01*
X57679716Y-149867204D01*
X57688865Y-149841634D01*
X57700477Y-149817084D01*
X57714439Y-149793790D01*
X57730616Y-149771977D01*
X57748854Y-149751854D01*
X57768977Y-149733616D01*
X57790790Y-149717439D01*
X57814084Y-149703477D01*
X57838634Y-149691865D01*
X57864204Y-149682716D01*
X57890548Y-149676117D01*
X57917412Y-149672133D01*
X57944537Y-149670800D01*
X58968463Y-149670800D01*
X58995588Y-149672133D01*
X58995588Y-149672133D01*
G37*
D32*
X58456500Y-150622000D03*
G04 #@! TD*
D10*
G04 #@! TO.C,C23*
G36*
X124849588Y-92648133D02*
X124876452Y-92652117D01*
X124902796Y-92658716D01*
X124928366Y-92667865D01*
X124952916Y-92679477D01*
X124976210Y-92693439D01*
X124998023Y-92709616D01*
X125018146Y-92727854D01*
X125036384Y-92747977D01*
X125052561Y-92769790D01*
X125066523Y-92793084D01*
X125078135Y-92817634D01*
X125087284Y-92843204D01*
X125093883Y-92869548D01*
X125097867Y-92896412D01*
X125099200Y-92923537D01*
X125099200Y-93947463D01*
X125097867Y-93974588D01*
X125093883Y-94001452D01*
X125087284Y-94027796D01*
X125078135Y-94053366D01*
X125066523Y-94077916D01*
X125052561Y-94101210D01*
X125036384Y-94123023D01*
X125018146Y-94143146D01*
X124998023Y-94161384D01*
X124976210Y-94177561D01*
X124952916Y-94191523D01*
X124928366Y-94203135D01*
X124902796Y-94212284D01*
X124876452Y-94218883D01*
X124849588Y-94222867D01*
X124822463Y-94224200D01*
X122573537Y-94224200D01*
X122546412Y-94222867D01*
X122519548Y-94218883D01*
X122493204Y-94212284D01*
X122467634Y-94203135D01*
X122443084Y-94191523D01*
X122419790Y-94177561D01*
X122397977Y-94161384D01*
X122377854Y-94143146D01*
X122359616Y-94123023D01*
X122343439Y-94101210D01*
X122329477Y-94077916D01*
X122317865Y-94053366D01*
X122308716Y-94027796D01*
X122302117Y-94001452D01*
X122298133Y-93974588D01*
X122296800Y-93947463D01*
X122296800Y-92923537D01*
X122298133Y-92896412D01*
X122302117Y-92869548D01*
X122308716Y-92843204D01*
X122317865Y-92817634D01*
X122329477Y-92793084D01*
X122343439Y-92769790D01*
X122359616Y-92747977D01*
X122377854Y-92727854D01*
X122397977Y-92709616D01*
X122419790Y-92693439D01*
X122443084Y-92679477D01*
X122467634Y-92667865D01*
X122493204Y-92658716D01*
X122519548Y-92652117D01*
X122546412Y-92648133D01*
X122573537Y-92646800D01*
X124822463Y-92646800D01*
X124849588Y-92648133D01*
X124849588Y-92648133D01*
G37*
D32*
X123698000Y-93435500D03*
D10*
G36*
X124849588Y-89673133D02*
X124876452Y-89677117D01*
X124902796Y-89683716D01*
X124928366Y-89692865D01*
X124952916Y-89704477D01*
X124976210Y-89718439D01*
X124998023Y-89734616D01*
X125018146Y-89752854D01*
X125036384Y-89772977D01*
X125052561Y-89794790D01*
X125066523Y-89818084D01*
X125078135Y-89842634D01*
X125087284Y-89868204D01*
X125093883Y-89894548D01*
X125097867Y-89921412D01*
X125099200Y-89948537D01*
X125099200Y-90972463D01*
X125097867Y-90999588D01*
X125093883Y-91026452D01*
X125087284Y-91052796D01*
X125078135Y-91078366D01*
X125066523Y-91102916D01*
X125052561Y-91126210D01*
X125036384Y-91148023D01*
X125018146Y-91168146D01*
X124998023Y-91186384D01*
X124976210Y-91202561D01*
X124952916Y-91216523D01*
X124928366Y-91228135D01*
X124902796Y-91237284D01*
X124876452Y-91243883D01*
X124849588Y-91247867D01*
X124822463Y-91249200D01*
X122573537Y-91249200D01*
X122546412Y-91247867D01*
X122519548Y-91243883D01*
X122493204Y-91237284D01*
X122467634Y-91228135D01*
X122443084Y-91216523D01*
X122419790Y-91202561D01*
X122397977Y-91186384D01*
X122377854Y-91168146D01*
X122359616Y-91148023D01*
X122343439Y-91126210D01*
X122329477Y-91102916D01*
X122317865Y-91078366D01*
X122308716Y-91052796D01*
X122302117Y-91026452D01*
X122298133Y-90999588D01*
X122296800Y-90972463D01*
X122296800Y-89948537D01*
X122298133Y-89921412D01*
X122302117Y-89894548D01*
X122308716Y-89868204D01*
X122317865Y-89842634D01*
X122329477Y-89818084D01*
X122343439Y-89794790D01*
X122359616Y-89772977D01*
X122377854Y-89752854D01*
X122397977Y-89734616D01*
X122419790Y-89718439D01*
X122443084Y-89704477D01*
X122467634Y-89692865D01*
X122493204Y-89683716D01*
X122519548Y-89677117D01*
X122546412Y-89673133D01*
X122573537Y-89671800D01*
X124822463Y-89671800D01*
X124849588Y-89673133D01*
X124849588Y-89673133D01*
G37*
D32*
X123698000Y-90460500D03*
G04 #@! TD*
D10*
G04 #@! TO.C,C24*
G36*
X140724588Y-92648133D02*
X140751452Y-92652117D01*
X140777796Y-92658716D01*
X140803366Y-92667865D01*
X140827916Y-92679477D01*
X140851210Y-92693439D01*
X140873023Y-92709616D01*
X140893146Y-92727854D01*
X140911384Y-92747977D01*
X140927561Y-92769790D01*
X140941523Y-92793084D01*
X140953135Y-92817634D01*
X140962284Y-92843204D01*
X140968883Y-92869548D01*
X140972867Y-92896412D01*
X140974200Y-92923537D01*
X140974200Y-93947463D01*
X140972867Y-93974588D01*
X140968883Y-94001452D01*
X140962284Y-94027796D01*
X140953135Y-94053366D01*
X140941523Y-94077916D01*
X140927561Y-94101210D01*
X140911384Y-94123023D01*
X140893146Y-94143146D01*
X140873023Y-94161384D01*
X140851210Y-94177561D01*
X140827916Y-94191523D01*
X140803366Y-94203135D01*
X140777796Y-94212284D01*
X140751452Y-94218883D01*
X140724588Y-94222867D01*
X140697463Y-94224200D01*
X138448537Y-94224200D01*
X138421412Y-94222867D01*
X138394548Y-94218883D01*
X138368204Y-94212284D01*
X138342634Y-94203135D01*
X138318084Y-94191523D01*
X138294790Y-94177561D01*
X138272977Y-94161384D01*
X138252854Y-94143146D01*
X138234616Y-94123023D01*
X138218439Y-94101210D01*
X138204477Y-94077916D01*
X138192865Y-94053366D01*
X138183716Y-94027796D01*
X138177117Y-94001452D01*
X138173133Y-93974588D01*
X138171800Y-93947463D01*
X138171800Y-92923537D01*
X138173133Y-92896412D01*
X138177117Y-92869548D01*
X138183716Y-92843204D01*
X138192865Y-92817634D01*
X138204477Y-92793084D01*
X138218439Y-92769790D01*
X138234616Y-92747977D01*
X138252854Y-92727854D01*
X138272977Y-92709616D01*
X138294790Y-92693439D01*
X138318084Y-92679477D01*
X138342634Y-92667865D01*
X138368204Y-92658716D01*
X138394548Y-92652117D01*
X138421412Y-92648133D01*
X138448537Y-92646800D01*
X140697463Y-92646800D01*
X140724588Y-92648133D01*
X140724588Y-92648133D01*
G37*
D32*
X139573000Y-93435500D03*
D10*
G36*
X140724588Y-89673133D02*
X140751452Y-89677117D01*
X140777796Y-89683716D01*
X140803366Y-89692865D01*
X140827916Y-89704477D01*
X140851210Y-89718439D01*
X140873023Y-89734616D01*
X140893146Y-89752854D01*
X140911384Y-89772977D01*
X140927561Y-89794790D01*
X140941523Y-89818084D01*
X140953135Y-89842634D01*
X140962284Y-89868204D01*
X140968883Y-89894548D01*
X140972867Y-89921412D01*
X140974200Y-89948537D01*
X140974200Y-90972463D01*
X140972867Y-90999588D01*
X140968883Y-91026452D01*
X140962284Y-91052796D01*
X140953135Y-91078366D01*
X140941523Y-91102916D01*
X140927561Y-91126210D01*
X140911384Y-91148023D01*
X140893146Y-91168146D01*
X140873023Y-91186384D01*
X140851210Y-91202561D01*
X140827916Y-91216523D01*
X140803366Y-91228135D01*
X140777796Y-91237284D01*
X140751452Y-91243883D01*
X140724588Y-91247867D01*
X140697463Y-91249200D01*
X138448537Y-91249200D01*
X138421412Y-91247867D01*
X138394548Y-91243883D01*
X138368204Y-91237284D01*
X138342634Y-91228135D01*
X138318084Y-91216523D01*
X138294790Y-91202561D01*
X138272977Y-91186384D01*
X138252854Y-91168146D01*
X138234616Y-91148023D01*
X138218439Y-91126210D01*
X138204477Y-91102916D01*
X138192865Y-91078366D01*
X138183716Y-91052796D01*
X138177117Y-91026452D01*
X138173133Y-90999588D01*
X138171800Y-90972463D01*
X138171800Y-89948537D01*
X138173133Y-89921412D01*
X138177117Y-89894548D01*
X138183716Y-89868204D01*
X138192865Y-89842634D01*
X138204477Y-89818084D01*
X138218439Y-89794790D01*
X138234616Y-89772977D01*
X138252854Y-89752854D01*
X138272977Y-89734616D01*
X138294790Y-89718439D01*
X138318084Y-89704477D01*
X138342634Y-89692865D01*
X138368204Y-89683716D01*
X138394548Y-89677117D01*
X138421412Y-89673133D01*
X138448537Y-89671800D01*
X140697463Y-89671800D01*
X140724588Y-89673133D01*
X140724588Y-89673133D01*
G37*
D32*
X139573000Y-90460500D03*
G04 #@! TD*
D21*
G04 #@! TO.C,J4*
X124206000Y-76923000D03*
D22*
X124206000Y-82423000D03*
G04 #@! TD*
D21*
G04 #@! TO.C,J17*
X141351000Y-76923000D03*
D22*
X141351000Y-82423000D03*
G04 #@! TD*
D34*
G04 #@! TO.C,Q1*
X116078000Y-64897000D03*
D35*
X113798000Y-58597000D03*
X118358000Y-58597000D03*
G04 #@! TD*
D34*
G04 #@! TO.C,Q2*
X131953000Y-65219000D03*
D35*
X129673000Y-58919000D03*
X134233000Y-58919000D03*
G04 #@! TD*
D36*
G04 #@! TO.C,D9*
X116078000Y-75229000D03*
X116078000Y-84029000D03*
G04 #@! TD*
G04 #@! TO.C,D10*
X132969000Y-75102000D03*
X132969000Y-83902000D03*
G04 #@! TD*
D37*
G04 #@! TO.C,J7*
X118237000Y-92202000D03*
G04 #@! TD*
G04 #@! TO.C,J8*
X134493000Y-92202000D03*
G04 #@! TD*
D10*
G04 #@! TO.C,D1*
G36*
X66251614Y-153120127D02*
X66278367Y-153124096D01*
X66304602Y-153130667D01*
X66330068Y-153139779D01*
X66354517Y-153151342D01*
X66377715Y-153165247D01*
X66399439Y-153181358D01*
X66419479Y-153199521D01*
X66437642Y-153219561D01*
X66453753Y-153241285D01*
X66467658Y-153264483D01*
X66479221Y-153288932D01*
X66488333Y-153314398D01*
X66494904Y-153340633D01*
X66498873Y-153367386D01*
X66500200Y-153394400D01*
X66500200Y-153945600D01*
X66498873Y-153972614D01*
X66494904Y-153999367D01*
X66488333Y-154025602D01*
X66479221Y-154051068D01*
X66467658Y-154075517D01*
X66453753Y-154098715D01*
X66437642Y-154120439D01*
X66419479Y-154140479D01*
X66399439Y-154158642D01*
X66377715Y-154174753D01*
X66354517Y-154188658D01*
X66330068Y-154200221D01*
X66304602Y-154209333D01*
X66278367Y-154215904D01*
X66251614Y-154219873D01*
X66224600Y-154221200D01*
X65573400Y-154221200D01*
X65546386Y-154219873D01*
X65519633Y-154215904D01*
X65493398Y-154209333D01*
X65467932Y-154200221D01*
X65443483Y-154188658D01*
X65420285Y-154174753D01*
X65398561Y-154158642D01*
X65378521Y-154140479D01*
X65360358Y-154120439D01*
X65344247Y-154098715D01*
X65330342Y-154075517D01*
X65318779Y-154051068D01*
X65309667Y-154025602D01*
X65303096Y-153999367D01*
X65299127Y-153972614D01*
X65297800Y-153945600D01*
X65297800Y-153394400D01*
X65299127Y-153367386D01*
X65303096Y-153340633D01*
X65309667Y-153314398D01*
X65318779Y-153288932D01*
X65330342Y-153264483D01*
X65344247Y-153241285D01*
X65360358Y-153219561D01*
X65378521Y-153199521D01*
X65398561Y-153181358D01*
X65420285Y-153165247D01*
X65443483Y-153151342D01*
X65467932Y-153139779D01*
X65493398Y-153130667D01*
X65519633Y-153124096D01*
X65546386Y-153120127D01*
X65573400Y-153118800D01*
X66224600Y-153118800D01*
X66251614Y-153120127D01*
X66251614Y-153120127D01*
G37*
D11*
X65899000Y-153670000D03*
D10*
G36*
X64501614Y-153120127D02*
X64528367Y-153124096D01*
X64554602Y-153130667D01*
X64580068Y-153139779D01*
X64604517Y-153151342D01*
X64627715Y-153165247D01*
X64649439Y-153181358D01*
X64669479Y-153199521D01*
X64687642Y-153219561D01*
X64703753Y-153241285D01*
X64717658Y-153264483D01*
X64729221Y-153288932D01*
X64738333Y-153314398D01*
X64744904Y-153340633D01*
X64748873Y-153367386D01*
X64750200Y-153394400D01*
X64750200Y-153945600D01*
X64748873Y-153972614D01*
X64744904Y-153999367D01*
X64738333Y-154025602D01*
X64729221Y-154051068D01*
X64717658Y-154075517D01*
X64703753Y-154098715D01*
X64687642Y-154120439D01*
X64669479Y-154140479D01*
X64649439Y-154158642D01*
X64627715Y-154174753D01*
X64604517Y-154188658D01*
X64580068Y-154200221D01*
X64554602Y-154209333D01*
X64528367Y-154215904D01*
X64501614Y-154219873D01*
X64474600Y-154221200D01*
X63823400Y-154221200D01*
X63796386Y-154219873D01*
X63769633Y-154215904D01*
X63743398Y-154209333D01*
X63717932Y-154200221D01*
X63693483Y-154188658D01*
X63670285Y-154174753D01*
X63648561Y-154158642D01*
X63628521Y-154140479D01*
X63610358Y-154120439D01*
X63594247Y-154098715D01*
X63580342Y-154075517D01*
X63568779Y-154051068D01*
X63559667Y-154025602D01*
X63553096Y-153999367D01*
X63549127Y-153972614D01*
X63547800Y-153945600D01*
X63547800Y-153394400D01*
X63549127Y-153367386D01*
X63553096Y-153340633D01*
X63559667Y-153314398D01*
X63568779Y-153288932D01*
X63580342Y-153264483D01*
X63594247Y-153241285D01*
X63610358Y-153219561D01*
X63628521Y-153199521D01*
X63648561Y-153181358D01*
X63670285Y-153165247D01*
X63693483Y-153151342D01*
X63717932Y-153139779D01*
X63743398Y-153130667D01*
X63769633Y-153124096D01*
X63796386Y-153120127D01*
X63823400Y-153118800D01*
X64474600Y-153118800D01*
X64501614Y-153120127D01*
X64501614Y-153120127D01*
G37*
D11*
X64149000Y-153670000D03*
G04 #@! TD*
D10*
G04 #@! TO.C,D2*
G36*
X66251614Y-156168127D02*
X66278367Y-156172096D01*
X66304602Y-156178667D01*
X66330068Y-156187779D01*
X66354517Y-156199342D01*
X66377715Y-156213247D01*
X66399439Y-156229358D01*
X66419479Y-156247521D01*
X66437642Y-156267561D01*
X66453753Y-156289285D01*
X66467658Y-156312483D01*
X66479221Y-156336932D01*
X66488333Y-156362398D01*
X66494904Y-156388633D01*
X66498873Y-156415386D01*
X66500200Y-156442400D01*
X66500200Y-156993600D01*
X66498873Y-157020614D01*
X66494904Y-157047367D01*
X66488333Y-157073602D01*
X66479221Y-157099068D01*
X66467658Y-157123517D01*
X66453753Y-157146715D01*
X66437642Y-157168439D01*
X66419479Y-157188479D01*
X66399439Y-157206642D01*
X66377715Y-157222753D01*
X66354517Y-157236658D01*
X66330068Y-157248221D01*
X66304602Y-157257333D01*
X66278367Y-157263904D01*
X66251614Y-157267873D01*
X66224600Y-157269200D01*
X65573400Y-157269200D01*
X65546386Y-157267873D01*
X65519633Y-157263904D01*
X65493398Y-157257333D01*
X65467932Y-157248221D01*
X65443483Y-157236658D01*
X65420285Y-157222753D01*
X65398561Y-157206642D01*
X65378521Y-157188479D01*
X65360358Y-157168439D01*
X65344247Y-157146715D01*
X65330342Y-157123517D01*
X65318779Y-157099068D01*
X65309667Y-157073602D01*
X65303096Y-157047367D01*
X65299127Y-157020614D01*
X65297800Y-156993600D01*
X65297800Y-156442400D01*
X65299127Y-156415386D01*
X65303096Y-156388633D01*
X65309667Y-156362398D01*
X65318779Y-156336932D01*
X65330342Y-156312483D01*
X65344247Y-156289285D01*
X65360358Y-156267561D01*
X65378521Y-156247521D01*
X65398561Y-156229358D01*
X65420285Y-156213247D01*
X65443483Y-156199342D01*
X65467932Y-156187779D01*
X65493398Y-156178667D01*
X65519633Y-156172096D01*
X65546386Y-156168127D01*
X65573400Y-156166800D01*
X66224600Y-156166800D01*
X66251614Y-156168127D01*
X66251614Y-156168127D01*
G37*
D11*
X65899000Y-156718000D03*
D10*
G36*
X64501614Y-156168127D02*
X64528367Y-156172096D01*
X64554602Y-156178667D01*
X64580068Y-156187779D01*
X64604517Y-156199342D01*
X64627715Y-156213247D01*
X64649439Y-156229358D01*
X64669479Y-156247521D01*
X64687642Y-156267561D01*
X64703753Y-156289285D01*
X64717658Y-156312483D01*
X64729221Y-156336932D01*
X64738333Y-156362398D01*
X64744904Y-156388633D01*
X64748873Y-156415386D01*
X64750200Y-156442400D01*
X64750200Y-156993600D01*
X64748873Y-157020614D01*
X64744904Y-157047367D01*
X64738333Y-157073602D01*
X64729221Y-157099068D01*
X64717658Y-157123517D01*
X64703753Y-157146715D01*
X64687642Y-157168439D01*
X64669479Y-157188479D01*
X64649439Y-157206642D01*
X64627715Y-157222753D01*
X64604517Y-157236658D01*
X64580068Y-157248221D01*
X64554602Y-157257333D01*
X64528367Y-157263904D01*
X64501614Y-157267873D01*
X64474600Y-157269200D01*
X63823400Y-157269200D01*
X63796386Y-157267873D01*
X63769633Y-157263904D01*
X63743398Y-157257333D01*
X63717932Y-157248221D01*
X63693483Y-157236658D01*
X63670285Y-157222753D01*
X63648561Y-157206642D01*
X63628521Y-157188479D01*
X63610358Y-157168439D01*
X63594247Y-157146715D01*
X63580342Y-157123517D01*
X63568779Y-157099068D01*
X63559667Y-157073602D01*
X63553096Y-157047367D01*
X63549127Y-157020614D01*
X63547800Y-156993600D01*
X63547800Y-156442400D01*
X63549127Y-156415386D01*
X63553096Y-156388633D01*
X63559667Y-156362398D01*
X63568779Y-156336932D01*
X63580342Y-156312483D01*
X63594247Y-156289285D01*
X63610358Y-156267561D01*
X63628521Y-156247521D01*
X63648561Y-156229358D01*
X63670285Y-156213247D01*
X63693483Y-156199342D01*
X63717932Y-156187779D01*
X63743398Y-156178667D01*
X63769633Y-156172096D01*
X63796386Y-156168127D01*
X63823400Y-156166800D01*
X64474600Y-156166800D01*
X64501614Y-156168127D01*
X64501614Y-156168127D01*
G37*
D11*
X64149000Y-156718000D03*
G04 #@! TD*
D10*
G04 #@! TO.C,D3*
G36*
X66251614Y-147024127D02*
X66278367Y-147028096D01*
X66304602Y-147034667D01*
X66330068Y-147043779D01*
X66354517Y-147055342D01*
X66377715Y-147069247D01*
X66399439Y-147085358D01*
X66419479Y-147103521D01*
X66437642Y-147123561D01*
X66453753Y-147145285D01*
X66467658Y-147168483D01*
X66479221Y-147192932D01*
X66488333Y-147218398D01*
X66494904Y-147244633D01*
X66498873Y-147271386D01*
X66500200Y-147298400D01*
X66500200Y-147849600D01*
X66498873Y-147876614D01*
X66494904Y-147903367D01*
X66488333Y-147929602D01*
X66479221Y-147955068D01*
X66467658Y-147979517D01*
X66453753Y-148002715D01*
X66437642Y-148024439D01*
X66419479Y-148044479D01*
X66399439Y-148062642D01*
X66377715Y-148078753D01*
X66354517Y-148092658D01*
X66330068Y-148104221D01*
X66304602Y-148113333D01*
X66278367Y-148119904D01*
X66251614Y-148123873D01*
X66224600Y-148125200D01*
X65573400Y-148125200D01*
X65546386Y-148123873D01*
X65519633Y-148119904D01*
X65493398Y-148113333D01*
X65467932Y-148104221D01*
X65443483Y-148092658D01*
X65420285Y-148078753D01*
X65398561Y-148062642D01*
X65378521Y-148044479D01*
X65360358Y-148024439D01*
X65344247Y-148002715D01*
X65330342Y-147979517D01*
X65318779Y-147955068D01*
X65309667Y-147929602D01*
X65303096Y-147903367D01*
X65299127Y-147876614D01*
X65297800Y-147849600D01*
X65297800Y-147298400D01*
X65299127Y-147271386D01*
X65303096Y-147244633D01*
X65309667Y-147218398D01*
X65318779Y-147192932D01*
X65330342Y-147168483D01*
X65344247Y-147145285D01*
X65360358Y-147123561D01*
X65378521Y-147103521D01*
X65398561Y-147085358D01*
X65420285Y-147069247D01*
X65443483Y-147055342D01*
X65467932Y-147043779D01*
X65493398Y-147034667D01*
X65519633Y-147028096D01*
X65546386Y-147024127D01*
X65573400Y-147022800D01*
X66224600Y-147022800D01*
X66251614Y-147024127D01*
X66251614Y-147024127D01*
G37*
D11*
X65899000Y-147574000D03*
D10*
G36*
X64501614Y-147024127D02*
X64528367Y-147028096D01*
X64554602Y-147034667D01*
X64580068Y-147043779D01*
X64604517Y-147055342D01*
X64627715Y-147069247D01*
X64649439Y-147085358D01*
X64669479Y-147103521D01*
X64687642Y-147123561D01*
X64703753Y-147145285D01*
X64717658Y-147168483D01*
X64729221Y-147192932D01*
X64738333Y-147218398D01*
X64744904Y-147244633D01*
X64748873Y-147271386D01*
X64750200Y-147298400D01*
X64750200Y-147849600D01*
X64748873Y-147876614D01*
X64744904Y-147903367D01*
X64738333Y-147929602D01*
X64729221Y-147955068D01*
X64717658Y-147979517D01*
X64703753Y-148002715D01*
X64687642Y-148024439D01*
X64669479Y-148044479D01*
X64649439Y-148062642D01*
X64627715Y-148078753D01*
X64604517Y-148092658D01*
X64580068Y-148104221D01*
X64554602Y-148113333D01*
X64528367Y-148119904D01*
X64501614Y-148123873D01*
X64474600Y-148125200D01*
X63823400Y-148125200D01*
X63796386Y-148123873D01*
X63769633Y-148119904D01*
X63743398Y-148113333D01*
X63717932Y-148104221D01*
X63693483Y-148092658D01*
X63670285Y-148078753D01*
X63648561Y-148062642D01*
X63628521Y-148044479D01*
X63610358Y-148024439D01*
X63594247Y-148002715D01*
X63580342Y-147979517D01*
X63568779Y-147955068D01*
X63559667Y-147929602D01*
X63553096Y-147903367D01*
X63549127Y-147876614D01*
X63547800Y-147849600D01*
X63547800Y-147298400D01*
X63549127Y-147271386D01*
X63553096Y-147244633D01*
X63559667Y-147218398D01*
X63568779Y-147192932D01*
X63580342Y-147168483D01*
X63594247Y-147145285D01*
X63610358Y-147123561D01*
X63628521Y-147103521D01*
X63648561Y-147085358D01*
X63670285Y-147069247D01*
X63693483Y-147055342D01*
X63717932Y-147043779D01*
X63743398Y-147034667D01*
X63769633Y-147028096D01*
X63796386Y-147024127D01*
X63823400Y-147022800D01*
X64474600Y-147022800D01*
X64501614Y-147024127D01*
X64501614Y-147024127D01*
G37*
D11*
X64149000Y-147574000D03*
G04 #@! TD*
D10*
G04 #@! TO.C,D4*
G36*
X116126614Y-38417127D02*
X116153367Y-38421096D01*
X116179602Y-38427667D01*
X116205068Y-38436779D01*
X116229517Y-38448342D01*
X116252715Y-38462247D01*
X116274439Y-38478358D01*
X116294479Y-38496521D01*
X116312642Y-38516561D01*
X116328753Y-38538285D01*
X116342658Y-38561483D01*
X116354221Y-38585932D01*
X116363333Y-38611398D01*
X116369904Y-38637633D01*
X116373873Y-38664386D01*
X116375200Y-38691400D01*
X116375200Y-39342600D01*
X116373873Y-39369614D01*
X116369904Y-39396367D01*
X116363333Y-39422602D01*
X116354221Y-39448068D01*
X116342658Y-39472517D01*
X116328753Y-39495715D01*
X116312642Y-39517439D01*
X116294479Y-39537479D01*
X116274439Y-39555642D01*
X116252715Y-39571753D01*
X116229517Y-39585658D01*
X116205068Y-39597221D01*
X116179602Y-39606333D01*
X116153367Y-39612904D01*
X116126614Y-39616873D01*
X116099600Y-39618200D01*
X115548400Y-39618200D01*
X115521386Y-39616873D01*
X115494633Y-39612904D01*
X115468398Y-39606333D01*
X115442932Y-39597221D01*
X115418483Y-39585658D01*
X115395285Y-39571753D01*
X115373561Y-39555642D01*
X115353521Y-39537479D01*
X115335358Y-39517439D01*
X115319247Y-39495715D01*
X115305342Y-39472517D01*
X115293779Y-39448068D01*
X115284667Y-39422602D01*
X115278096Y-39396367D01*
X115274127Y-39369614D01*
X115272800Y-39342600D01*
X115272800Y-38691400D01*
X115274127Y-38664386D01*
X115278096Y-38637633D01*
X115284667Y-38611398D01*
X115293779Y-38585932D01*
X115305342Y-38561483D01*
X115319247Y-38538285D01*
X115335358Y-38516561D01*
X115353521Y-38496521D01*
X115373561Y-38478358D01*
X115395285Y-38462247D01*
X115418483Y-38448342D01*
X115442932Y-38436779D01*
X115468398Y-38427667D01*
X115494633Y-38421096D01*
X115521386Y-38417127D01*
X115548400Y-38415800D01*
X116099600Y-38415800D01*
X116126614Y-38417127D01*
X116126614Y-38417127D01*
G37*
D11*
X115824000Y-39017000D03*
D10*
G36*
X116126614Y-40167127D02*
X116153367Y-40171096D01*
X116179602Y-40177667D01*
X116205068Y-40186779D01*
X116229517Y-40198342D01*
X116252715Y-40212247D01*
X116274439Y-40228358D01*
X116294479Y-40246521D01*
X116312642Y-40266561D01*
X116328753Y-40288285D01*
X116342658Y-40311483D01*
X116354221Y-40335932D01*
X116363333Y-40361398D01*
X116369904Y-40387633D01*
X116373873Y-40414386D01*
X116375200Y-40441400D01*
X116375200Y-41092600D01*
X116373873Y-41119614D01*
X116369904Y-41146367D01*
X116363333Y-41172602D01*
X116354221Y-41198068D01*
X116342658Y-41222517D01*
X116328753Y-41245715D01*
X116312642Y-41267439D01*
X116294479Y-41287479D01*
X116274439Y-41305642D01*
X116252715Y-41321753D01*
X116229517Y-41335658D01*
X116205068Y-41347221D01*
X116179602Y-41356333D01*
X116153367Y-41362904D01*
X116126614Y-41366873D01*
X116099600Y-41368200D01*
X115548400Y-41368200D01*
X115521386Y-41366873D01*
X115494633Y-41362904D01*
X115468398Y-41356333D01*
X115442932Y-41347221D01*
X115418483Y-41335658D01*
X115395285Y-41321753D01*
X115373561Y-41305642D01*
X115353521Y-41287479D01*
X115335358Y-41267439D01*
X115319247Y-41245715D01*
X115305342Y-41222517D01*
X115293779Y-41198068D01*
X115284667Y-41172602D01*
X115278096Y-41146367D01*
X115274127Y-41119614D01*
X115272800Y-41092600D01*
X115272800Y-40441400D01*
X115274127Y-40414386D01*
X115278096Y-40387633D01*
X115284667Y-40361398D01*
X115293779Y-40335932D01*
X115305342Y-40311483D01*
X115319247Y-40288285D01*
X115335358Y-40266561D01*
X115353521Y-40246521D01*
X115373561Y-40228358D01*
X115395285Y-40212247D01*
X115418483Y-40198342D01*
X115442932Y-40186779D01*
X115468398Y-40177667D01*
X115494633Y-40171096D01*
X115521386Y-40167127D01*
X115548400Y-40165800D01*
X116099600Y-40165800D01*
X116126614Y-40167127D01*
X116126614Y-40167127D01*
G37*
D11*
X115824000Y-40767000D03*
G04 #@! TD*
D10*
G04 #@! TO.C,D5*
G36*
X121841614Y-38417127D02*
X121868367Y-38421096D01*
X121894602Y-38427667D01*
X121920068Y-38436779D01*
X121944517Y-38448342D01*
X121967715Y-38462247D01*
X121989439Y-38478358D01*
X122009479Y-38496521D01*
X122027642Y-38516561D01*
X122043753Y-38538285D01*
X122057658Y-38561483D01*
X122069221Y-38585932D01*
X122078333Y-38611398D01*
X122084904Y-38637633D01*
X122088873Y-38664386D01*
X122090200Y-38691400D01*
X122090200Y-39342600D01*
X122088873Y-39369614D01*
X122084904Y-39396367D01*
X122078333Y-39422602D01*
X122069221Y-39448068D01*
X122057658Y-39472517D01*
X122043753Y-39495715D01*
X122027642Y-39517439D01*
X122009479Y-39537479D01*
X121989439Y-39555642D01*
X121967715Y-39571753D01*
X121944517Y-39585658D01*
X121920068Y-39597221D01*
X121894602Y-39606333D01*
X121868367Y-39612904D01*
X121841614Y-39616873D01*
X121814600Y-39618200D01*
X121263400Y-39618200D01*
X121236386Y-39616873D01*
X121209633Y-39612904D01*
X121183398Y-39606333D01*
X121157932Y-39597221D01*
X121133483Y-39585658D01*
X121110285Y-39571753D01*
X121088561Y-39555642D01*
X121068521Y-39537479D01*
X121050358Y-39517439D01*
X121034247Y-39495715D01*
X121020342Y-39472517D01*
X121008779Y-39448068D01*
X120999667Y-39422602D01*
X120993096Y-39396367D01*
X120989127Y-39369614D01*
X120987800Y-39342600D01*
X120987800Y-38691400D01*
X120989127Y-38664386D01*
X120993096Y-38637633D01*
X120999667Y-38611398D01*
X121008779Y-38585932D01*
X121020342Y-38561483D01*
X121034247Y-38538285D01*
X121050358Y-38516561D01*
X121068521Y-38496521D01*
X121088561Y-38478358D01*
X121110285Y-38462247D01*
X121133483Y-38448342D01*
X121157932Y-38436779D01*
X121183398Y-38427667D01*
X121209633Y-38421096D01*
X121236386Y-38417127D01*
X121263400Y-38415800D01*
X121814600Y-38415800D01*
X121841614Y-38417127D01*
X121841614Y-38417127D01*
G37*
D11*
X121539000Y-39017000D03*
D10*
G36*
X121841614Y-40167127D02*
X121868367Y-40171096D01*
X121894602Y-40177667D01*
X121920068Y-40186779D01*
X121944517Y-40198342D01*
X121967715Y-40212247D01*
X121989439Y-40228358D01*
X122009479Y-40246521D01*
X122027642Y-40266561D01*
X122043753Y-40288285D01*
X122057658Y-40311483D01*
X122069221Y-40335932D01*
X122078333Y-40361398D01*
X122084904Y-40387633D01*
X122088873Y-40414386D01*
X122090200Y-40441400D01*
X122090200Y-41092600D01*
X122088873Y-41119614D01*
X122084904Y-41146367D01*
X122078333Y-41172602D01*
X122069221Y-41198068D01*
X122057658Y-41222517D01*
X122043753Y-41245715D01*
X122027642Y-41267439D01*
X122009479Y-41287479D01*
X121989439Y-41305642D01*
X121967715Y-41321753D01*
X121944517Y-41335658D01*
X121920068Y-41347221D01*
X121894602Y-41356333D01*
X121868367Y-41362904D01*
X121841614Y-41366873D01*
X121814600Y-41368200D01*
X121263400Y-41368200D01*
X121236386Y-41366873D01*
X121209633Y-41362904D01*
X121183398Y-41356333D01*
X121157932Y-41347221D01*
X121133483Y-41335658D01*
X121110285Y-41321753D01*
X121088561Y-41305642D01*
X121068521Y-41287479D01*
X121050358Y-41267439D01*
X121034247Y-41245715D01*
X121020342Y-41222517D01*
X121008779Y-41198068D01*
X120999667Y-41172602D01*
X120993096Y-41146367D01*
X120989127Y-41119614D01*
X120987800Y-41092600D01*
X120987800Y-40441400D01*
X120989127Y-40414386D01*
X120993096Y-40387633D01*
X120999667Y-40361398D01*
X121008779Y-40335932D01*
X121020342Y-40311483D01*
X121034247Y-40288285D01*
X121050358Y-40266561D01*
X121068521Y-40246521D01*
X121088561Y-40228358D01*
X121110285Y-40212247D01*
X121133483Y-40198342D01*
X121157932Y-40186779D01*
X121183398Y-40177667D01*
X121209633Y-40171096D01*
X121236386Y-40167127D01*
X121263400Y-40165800D01*
X121814600Y-40165800D01*
X121841614Y-40167127D01*
X121841614Y-40167127D01*
G37*
D11*
X121539000Y-40767000D03*
G04 #@! TD*
D10*
G04 #@! TO.C,D8*
G36*
X66251614Y-150072127D02*
X66278367Y-150076096D01*
X66304602Y-150082667D01*
X66330068Y-150091779D01*
X66354517Y-150103342D01*
X66377715Y-150117247D01*
X66399439Y-150133358D01*
X66419479Y-150151521D01*
X66437642Y-150171561D01*
X66453753Y-150193285D01*
X66467658Y-150216483D01*
X66479221Y-150240932D01*
X66488333Y-150266398D01*
X66494904Y-150292633D01*
X66498873Y-150319386D01*
X66500200Y-150346400D01*
X66500200Y-150897600D01*
X66498873Y-150924614D01*
X66494904Y-150951367D01*
X66488333Y-150977602D01*
X66479221Y-151003068D01*
X66467658Y-151027517D01*
X66453753Y-151050715D01*
X66437642Y-151072439D01*
X66419479Y-151092479D01*
X66399439Y-151110642D01*
X66377715Y-151126753D01*
X66354517Y-151140658D01*
X66330068Y-151152221D01*
X66304602Y-151161333D01*
X66278367Y-151167904D01*
X66251614Y-151171873D01*
X66224600Y-151173200D01*
X65573400Y-151173200D01*
X65546386Y-151171873D01*
X65519633Y-151167904D01*
X65493398Y-151161333D01*
X65467932Y-151152221D01*
X65443483Y-151140658D01*
X65420285Y-151126753D01*
X65398561Y-151110642D01*
X65378521Y-151092479D01*
X65360358Y-151072439D01*
X65344247Y-151050715D01*
X65330342Y-151027517D01*
X65318779Y-151003068D01*
X65309667Y-150977602D01*
X65303096Y-150951367D01*
X65299127Y-150924614D01*
X65297800Y-150897600D01*
X65297800Y-150346400D01*
X65299127Y-150319386D01*
X65303096Y-150292633D01*
X65309667Y-150266398D01*
X65318779Y-150240932D01*
X65330342Y-150216483D01*
X65344247Y-150193285D01*
X65360358Y-150171561D01*
X65378521Y-150151521D01*
X65398561Y-150133358D01*
X65420285Y-150117247D01*
X65443483Y-150103342D01*
X65467932Y-150091779D01*
X65493398Y-150082667D01*
X65519633Y-150076096D01*
X65546386Y-150072127D01*
X65573400Y-150070800D01*
X66224600Y-150070800D01*
X66251614Y-150072127D01*
X66251614Y-150072127D01*
G37*
D11*
X65899000Y-150622000D03*
D10*
G36*
X64501614Y-150072127D02*
X64528367Y-150076096D01*
X64554602Y-150082667D01*
X64580068Y-150091779D01*
X64604517Y-150103342D01*
X64627715Y-150117247D01*
X64649439Y-150133358D01*
X64669479Y-150151521D01*
X64687642Y-150171561D01*
X64703753Y-150193285D01*
X64717658Y-150216483D01*
X64729221Y-150240932D01*
X64738333Y-150266398D01*
X64744904Y-150292633D01*
X64748873Y-150319386D01*
X64750200Y-150346400D01*
X64750200Y-150897600D01*
X64748873Y-150924614D01*
X64744904Y-150951367D01*
X64738333Y-150977602D01*
X64729221Y-151003068D01*
X64717658Y-151027517D01*
X64703753Y-151050715D01*
X64687642Y-151072439D01*
X64669479Y-151092479D01*
X64649439Y-151110642D01*
X64627715Y-151126753D01*
X64604517Y-151140658D01*
X64580068Y-151152221D01*
X64554602Y-151161333D01*
X64528367Y-151167904D01*
X64501614Y-151171873D01*
X64474600Y-151173200D01*
X63823400Y-151173200D01*
X63796386Y-151171873D01*
X63769633Y-151167904D01*
X63743398Y-151161333D01*
X63717932Y-151152221D01*
X63693483Y-151140658D01*
X63670285Y-151126753D01*
X63648561Y-151110642D01*
X63628521Y-151092479D01*
X63610358Y-151072439D01*
X63594247Y-151050715D01*
X63580342Y-151027517D01*
X63568779Y-151003068D01*
X63559667Y-150977602D01*
X63553096Y-150951367D01*
X63549127Y-150924614D01*
X63547800Y-150897600D01*
X63547800Y-150346400D01*
X63549127Y-150319386D01*
X63553096Y-150292633D01*
X63559667Y-150266398D01*
X63568779Y-150240932D01*
X63580342Y-150216483D01*
X63594247Y-150193285D01*
X63610358Y-150171561D01*
X63628521Y-150151521D01*
X63648561Y-150133358D01*
X63670285Y-150117247D01*
X63693483Y-150103342D01*
X63717932Y-150091779D01*
X63743398Y-150082667D01*
X63769633Y-150076096D01*
X63796386Y-150072127D01*
X63823400Y-150070800D01*
X64474600Y-150070800D01*
X64501614Y-150072127D01*
X64501614Y-150072127D01*
G37*
D11*
X64149000Y-150622000D03*
G04 #@! TD*
D38*
G04 #@! TO.C,J1*
X150876000Y-121666000D03*
D39*
X156376000Y-121666000D03*
G04 #@! TD*
D21*
G04 #@! TO.C,J9*
X42808000Y-82462000D03*
X38608000Y-82462000D03*
X42808000Y-76962000D03*
D22*
X38608000Y-76962000D03*
G04 #@! TD*
G04 #@! TO.C,J11*
X49784000Y-76962000D03*
D21*
X53984000Y-76962000D03*
X49784000Y-82462000D03*
X53984000Y-82462000D03*
G04 #@! TD*
D40*
G36*
X143002000Y-100457000D02*
X114427000Y-100457000D01*
X114427000Y-96139000D01*
X143002000Y-96139000D01*
X143002000Y-100457000D01*
X143002000Y-100457000D01*
G37*
X143002000Y-100457000D02*
X114427000Y-100457000D01*
X114427000Y-96139000D01*
X143002000Y-96139000D01*
X143002000Y-100457000D01*
G36*
X143002000Y-107188000D02*
X114427000Y-107188000D01*
X114427000Y-103251000D01*
X143002000Y-103251000D01*
X143002000Y-107188000D01*
X143002000Y-107188000D01*
G37*
X143002000Y-107188000D02*
X114427000Y-107188000D01*
X114427000Y-103251000D01*
X143002000Y-103251000D01*
X143002000Y-107188000D01*
M02*
