G04 #@! TF.GenerationSoftware,KiCad,Pcbnew,(5.0.0)*
G04 #@! TF.CreationDate,2019-03-12T00:11:34-04:00*
G04 #@! TF.ProjectId,control board power,636F6E74726F6C20626F61726420706F,rev?*
G04 #@! TF.SameCoordinates,Original*
G04 #@! TF.FileFunction,Soldermask,Top*
G04 #@! TF.FilePolarity,Negative*
%FSLAX46Y46*%
G04 Gerber Fmt 4.6, Leading zero omitted, Abs format (unit mm)*
G04 Created by KiCad (PCBNEW (5.0.0)) date 03/12/19 00:11:34*
%MOMM*%
%LPD*%
G01*
G04 APERTURE LIST*
%ADD10C,6.552400*%
%ADD11C,0.100000*%
%ADD12C,1.102400*%
%ADD13O,1.852400X1.852400*%
%ADD14R,1.852400X1.852400*%
%ADD15O,2.402400X4.652400*%
%ADD16O,4.652400X2.402400*%
%ADD17O,5.152400X2.652400*%
%ADD18C,3.152400*%
%ADD19O,2.852400X3.452400*%
%ADD20R,2.852400X3.452400*%
%ADD21C,3.352400*%
%ADD22R,2.152400X1.652400*%
%ADD23R,2.152400X3.952400*%
%ADD24C,1.676400*%
%ADD25R,1.552400X0.402400*%
%ADD26R,0.402400X1.552400*%
%ADD27R,3.752400X2.752400*%
%ADD28R,2.752400X3.752400*%
%ADD29C,4.851400*%
%ADD30C,1.577400*%
%ADD31C,1.302400*%
%ADD32R,5.952400X6.552400*%
%ADD33R,1.352400X2.352400*%
%ADD34R,3.452400X4.652400*%
%ADD35R,6.152400X6.152400*%
%ADD36O,3.452400X2.852400*%
%ADD37R,3.452400X2.852400*%
%ADD38R,2.552400X2.552400*%
%ADD39C,2.552400*%
%ADD40R,1.502400X1.502400*%
%ADD41C,1.502400*%
%ADD42R,2.252400X2.252400*%
%ADD43C,2.252400*%
%ADD44C,0.254000*%
G04 APERTURE END LIST*
D10*
G04 #@! TO.C,REF\002A\002A*
X60960000Y-138938000D03*
G04 #@! TD*
D11*
G04 #@! TO.C,C2*
G36*
X50884614Y-103336127D02*
X50911367Y-103340096D01*
X50937602Y-103346667D01*
X50963068Y-103355779D01*
X50987517Y-103367342D01*
X51010715Y-103381247D01*
X51032439Y-103397358D01*
X51052479Y-103415521D01*
X51070642Y-103435561D01*
X51086753Y-103457285D01*
X51100658Y-103480483D01*
X51112221Y-103504932D01*
X51121333Y-103530398D01*
X51127904Y-103556633D01*
X51131873Y-103583386D01*
X51133200Y-103610400D01*
X51133200Y-104161600D01*
X51131873Y-104188614D01*
X51127904Y-104215367D01*
X51121333Y-104241602D01*
X51112221Y-104267068D01*
X51100658Y-104291517D01*
X51086753Y-104314715D01*
X51070642Y-104336439D01*
X51052479Y-104356479D01*
X51032439Y-104374642D01*
X51010715Y-104390753D01*
X50987517Y-104404658D01*
X50963068Y-104416221D01*
X50937602Y-104425333D01*
X50911367Y-104431904D01*
X50884614Y-104435873D01*
X50857600Y-104437200D01*
X50206400Y-104437200D01*
X50179386Y-104435873D01*
X50152633Y-104431904D01*
X50126398Y-104425333D01*
X50100932Y-104416221D01*
X50076483Y-104404658D01*
X50053285Y-104390753D01*
X50031561Y-104374642D01*
X50011521Y-104356479D01*
X49993358Y-104336439D01*
X49977247Y-104314715D01*
X49963342Y-104291517D01*
X49951779Y-104267068D01*
X49942667Y-104241602D01*
X49936096Y-104215367D01*
X49932127Y-104188614D01*
X49930800Y-104161600D01*
X49930800Y-103610400D01*
X49932127Y-103583386D01*
X49936096Y-103556633D01*
X49942667Y-103530398D01*
X49951779Y-103504932D01*
X49963342Y-103480483D01*
X49977247Y-103457285D01*
X49993358Y-103435561D01*
X50011521Y-103415521D01*
X50031561Y-103397358D01*
X50053285Y-103381247D01*
X50076483Y-103367342D01*
X50100932Y-103355779D01*
X50126398Y-103346667D01*
X50152633Y-103340096D01*
X50179386Y-103336127D01*
X50206400Y-103334800D01*
X50857600Y-103334800D01*
X50884614Y-103336127D01*
X50884614Y-103336127D01*
G37*
D12*
X50532000Y-103886000D03*
D11*
G36*
X49134614Y-103336127D02*
X49161367Y-103340096D01*
X49187602Y-103346667D01*
X49213068Y-103355779D01*
X49237517Y-103367342D01*
X49260715Y-103381247D01*
X49282439Y-103397358D01*
X49302479Y-103415521D01*
X49320642Y-103435561D01*
X49336753Y-103457285D01*
X49350658Y-103480483D01*
X49362221Y-103504932D01*
X49371333Y-103530398D01*
X49377904Y-103556633D01*
X49381873Y-103583386D01*
X49383200Y-103610400D01*
X49383200Y-104161600D01*
X49381873Y-104188614D01*
X49377904Y-104215367D01*
X49371333Y-104241602D01*
X49362221Y-104267068D01*
X49350658Y-104291517D01*
X49336753Y-104314715D01*
X49320642Y-104336439D01*
X49302479Y-104356479D01*
X49282439Y-104374642D01*
X49260715Y-104390753D01*
X49237517Y-104404658D01*
X49213068Y-104416221D01*
X49187602Y-104425333D01*
X49161367Y-104431904D01*
X49134614Y-104435873D01*
X49107600Y-104437200D01*
X48456400Y-104437200D01*
X48429386Y-104435873D01*
X48402633Y-104431904D01*
X48376398Y-104425333D01*
X48350932Y-104416221D01*
X48326483Y-104404658D01*
X48303285Y-104390753D01*
X48281561Y-104374642D01*
X48261521Y-104356479D01*
X48243358Y-104336439D01*
X48227247Y-104314715D01*
X48213342Y-104291517D01*
X48201779Y-104267068D01*
X48192667Y-104241602D01*
X48186096Y-104215367D01*
X48182127Y-104188614D01*
X48180800Y-104161600D01*
X48180800Y-103610400D01*
X48182127Y-103583386D01*
X48186096Y-103556633D01*
X48192667Y-103530398D01*
X48201779Y-103504932D01*
X48213342Y-103480483D01*
X48227247Y-103457285D01*
X48243358Y-103435561D01*
X48261521Y-103415521D01*
X48281561Y-103397358D01*
X48303285Y-103381247D01*
X48326483Y-103367342D01*
X48350932Y-103355779D01*
X48376398Y-103346667D01*
X48402633Y-103340096D01*
X48429386Y-103336127D01*
X48456400Y-103334800D01*
X49107600Y-103334800D01*
X49134614Y-103336127D01*
X49134614Y-103336127D01*
G37*
D12*
X48782000Y-103886000D03*
G04 #@! TD*
D10*
G04 #@! TO.C,REF\002A\002A*
X143510000Y-62738000D03*
G04 #@! TD*
G04 #@! TO.C,REF\002A\002A*
X60960000Y-62738000D03*
G04 #@! TD*
G04 #@! TO.C,REF\002A\002A*
X143510000Y-138938000D03*
G04 #@! TD*
D11*
G04 #@! TO.C,C1*
G36*
X56690614Y-98573127D02*
X56717367Y-98577096D01*
X56743602Y-98583667D01*
X56769068Y-98592779D01*
X56793517Y-98604342D01*
X56816715Y-98618247D01*
X56838439Y-98634358D01*
X56858479Y-98652521D01*
X56876642Y-98672561D01*
X56892753Y-98694285D01*
X56906658Y-98717483D01*
X56918221Y-98741932D01*
X56927333Y-98767398D01*
X56933904Y-98793633D01*
X56937873Y-98820386D01*
X56939200Y-98847400D01*
X56939200Y-99498600D01*
X56937873Y-99525614D01*
X56933904Y-99552367D01*
X56927333Y-99578602D01*
X56918221Y-99604068D01*
X56906658Y-99628517D01*
X56892753Y-99651715D01*
X56876642Y-99673439D01*
X56858479Y-99693479D01*
X56838439Y-99711642D01*
X56816715Y-99727753D01*
X56793517Y-99741658D01*
X56769068Y-99753221D01*
X56743602Y-99762333D01*
X56717367Y-99768904D01*
X56690614Y-99772873D01*
X56663600Y-99774200D01*
X56112400Y-99774200D01*
X56085386Y-99772873D01*
X56058633Y-99768904D01*
X56032398Y-99762333D01*
X56006932Y-99753221D01*
X55982483Y-99741658D01*
X55959285Y-99727753D01*
X55937561Y-99711642D01*
X55917521Y-99693479D01*
X55899358Y-99673439D01*
X55883247Y-99651715D01*
X55869342Y-99628517D01*
X55857779Y-99604068D01*
X55848667Y-99578602D01*
X55842096Y-99552367D01*
X55838127Y-99525614D01*
X55836800Y-99498600D01*
X55836800Y-98847400D01*
X55838127Y-98820386D01*
X55842096Y-98793633D01*
X55848667Y-98767398D01*
X55857779Y-98741932D01*
X55869342Y-98717483D01*
X55883247Y-98694285D01*
X55899358Y-98672561D01*
X55917521Y-98652521D01*
X55937561Y-98634358D01*
X55959285Y-98618247D01*
X55982483Y-98604342D01*
X56006932Y-98592779D01*
X56032398Y-98583667D01*
X56058633Y-98577096D01*
X56085386Y-98573127D01*
X56112400Y-98571800D01*
X56663600Y-98571800D01*
X56690614Y-98573127D01*
X56690614Y-98573127D01*
G37*
D12*
X56388000Y-99173000D03*
D11*
G36*
X56690614Y-96823127D02*
X56717367Y-96827096D01*
X56743602Y-96833667D01*
X56769068Y-96842779D01*
X56793517Y-96854342D01*
X56816715Y-96868247D01*
X56838439Y-96884358D01*
X56858479Y-96902521D01*
X56876642Y-96922561D01*
X56892753Y-96944285D01*
X56906658Y-96967483D01*
X56918221Y-96991932D01*
X56927333Y-97017398D01*
X56933904Y-97043633D01*
X56937873Y-97070386D01*
X56939200Y-97097400D01*
X56939200Y-97748600D01*
X56937873Y-97775614D01*
X56933904Y-97802367D01*
X56927333Y-97828602D01*
X56918221Y-97854068D01*
X56906658Y-97878517D01*
X56892753Y-97901715D01*
X56876642Y-97923439D01*
X56858479Y-97943479D01*
X56838439Y-97961642D01*
X56816715Y-97977753D01*
X56793517Y-97991658D01*
X56769068Y-98003221D01*
X56743602Y-98012333D01*
X56717367Y-98018904D01*
X56690614Y-98022873D01*
X56663600Y-98024200D01*
X56112400Y-98024200D01*
X56085386Y-98022873D01*
X56058633Y-98018904D01*
X56032398Y-98012333D01*
X56006932Y-98003221D01*
X55982483Y-97991658D01*
X55959285Y-97977753D01*
X55937561Y-97961642D01*
X55917521Y-97943479D01*
X55899358Y-97923439D01*
X55883247Y-97901715D01*
X55869342Y-97878517D01*
X55857779Y-97854068D01*
X55848667Y-97828602D01*
X55842096Y-97802367D01*
X55838127Y-97775614D01*
X55836800Y-97748600D01*
X55836800Y-97097400D01*
X55838127Y-97070386D01*
X55842096Y-97043633D01*
X55848667Y-97017398D01*
X55857779Y-96991932D01*
X55869342Y-96967483D01*
X55883247Y-96944285D01*
X55899358Y-96922561D01*
X55917521Y-96902521D01*
X55937561Y-96884358D01*
X55959285Y-96868247D01*
X55982483Y-96854342D01*
X56006932Y-96842779D01*
X56032398Y-96833667D01*
X56058633Y-96827096D01*
X56085386Y-96823127D01*
X56112400Y-96821800D01*
X56663600Y-96821800D01*
X56690614Y-96823127D01*
X56690614Y-96823127D01*
G37*
D12*
X56388000Y-97423000D03*
G04 #@! TD*
D11*
G04 #@! TO.C,C5*
G36*
X83551614Y-56219127D02*
X83578367Y-56223096D01*
X83604602Y-56229667D01*
X83630068Y-56238779D01*
X83654517Y-56250342D01*
X83677715Y-56264247D01*
X83699439Y-56280358D01*
X83719479Y-56298521D01*
X83737642Y-56318561D01*
X83753753Y-56340285D01*
X83767658Y-56363483D01*
X83779221Y-56387932D01*
X83788333Y-56413398D01*
X83794904Y-56439633D01*
X83798873Y-56466386D01*
X83800200Y-56493400D01*
X83800200Y-57044600D01*
X83798873Y-57071614D01*
X83794904Y-57098367D01*
X83788333Y-57124602D01*
X83779221Y-57150068D01*
X83767658Y-57174517D01*
X83753753Y-57197715D01*
X83737642Y-57219439D01*
X83719479Y-57239479D01*
X83699439Y-57257642D01*
X83677715Y-57273753D01*
X83654517Y-57287658D01*
X83630068Y-57299221D01*
X83604602Y-57308333D01*
X83578367Y-57314904D01*
X83551614Y-57318873D01*
X83524600Y-57320200D01*
X82873400Y-57320200D01*
X82846386Y-57318873D01*
X82819633Y-57314904D01*
X82793398Y-57308333D01*
X82767932Y-57299221D01*
X82743483Y-57287658D01*
X82720285Y-57273753D01*
X82698561Y-57257642D01*
X82678521Y-57239479D01*
X82660358Y-57219439D01*
X82644247Y-57197715D01*
X82630342Y-57174517D01*
X82618779Y-57150068D01*
X82609667Y-57124602D01*
X82603096Y-57098367D01*
X82599127Y-57071614D01*
X82597800Y-57044600D01*
X82597800Y-56493400D01*
X82599127Y-56466386D01*
X82603096Y-56439633D01*
X82609667Y-56413398D01*
X82618779Y-56387932D01*
X82630342Y-56363483D01*
X82644247Y-56340285D01*
X82660358Y-56318561D01*
X82678521Y-56298521D01*
X82698561Y-56280358D01*
X82720285Y-56264247D01*
X82743483Y-56250342D01*
X82767932Y-56238779D01*
X82793398Y-56229667D01*
X82819633Y-56223096D01*
X82846386Y-56219127D01*
X82873400Y-56217800D01*
X83524600Y-56217800D01*
X83551614Y-56219127D01*
X83551614Y-56219127D01*
G37*
D12*
X83199000Y-56769000D03*
D11*
G36*
X85301614Y-56219127D02*
X85328367Y-56223096D01*
X85354602Y-56229667D01*
X85380068Y-56238779D01*
X85404517Y-56250342D01*
X85427715Y-56264247D01*
X85449439Y-56280358D01*
X85469479Y-56298521D01*
X85487642Y-56318561D01*
X85503753Y-56340285D01*
X85517658Y-56363483D01*
X85529221Y-56387932D01*
X85538333Y-56413398D01*
X85544904Y-56439633D01*
X85548873Y-56466386D01*
X85550200Y-56493400D01*
X85550200Y-57044600D01*
X85548873Y-57071614D01*
X85544904Y-57098367D01*
X85538333Y-57124602D01*
X85529221Y-57150068D01*
X85517658Y-57174517D01*
X85503753Y-57197715D01*
X85487642Y-57219439D01*
X85469479Y-57239479D01*
X85449439Y-57257642D01*
X85427715Y-57273753D01*
X85404517Y-57287658D01*
X85380068Y-57299221D01*
X85354602Y-57308333D01*
X85328367Y-57314904D01*
X85301614Y-57318873D01*
X85274600Y-57320200D01*
X84623400Y-57320200D01*
X84596386Y-57318873D01*
X84569633Y-57314904D01*
X84543398Y-57308333D01*
X84517932Y-57299221D01*
X84493483Y-57287658D01*
X84470285Y-57273753D01*
X84448561Y-57257642D01*
X84428521Y-57239479D01*
X84410358Y-57219439D01*
X84394247Y-57197715D01*
X84380342Y-57174517D01*
X84368779Y-57150068D01*
X84359667Y-57124602D01*
X84353096Y-57098367D01*
X84349127Y-57071614D01*
X84347800Y-57044600D01*
X84347800Y-56493400D01*
X84349127Y-56466386D01*
X84353096Y-56439633D01*
X84359667Y-56413398D01*
X84368779Y-56387932D01*
X84380342Y-56363483D01*
X84394247Y-56340285D01*
X84410358Y-56318561D01*
X84428521Y-56298521D01*
X84448561Y-56280358D01*
X84470285Y-56264247D01*
X84493483Y-56250342D01*
X84517932Y-56238779D01*
X84543398Y-56229667D01*
X84569633Y-56223096D01*
X84596386Y-56219127D01*
X84623400Y-56217800D01*
X85274600Y-56217800D01*
X85301614Y-56219127D01*
X85301614Y-56219127D01*
G37*
D12*
X84949000Y-56769000D03*
G04 #@! TD*
D11*
G04 #@! TO.C,C6*
G36*
X94663614Y-66061127D02*
X94690367Y-66065096D01*
X94716602Y-66071667D01*
X94742068Y-66080779D01*
X94766517Y-66092342D01*
X94789715Y-66106247D01*
X94811439Y-66122358D01*
X94831479Y-66140521D01*
X94849642Y-66160561D01*
X94865753Y-66182285D01*
X94879658Y-66205483D01*
X94891221Y-66229932D01*
X94900333Y-66255398D01*
X94906904Y-66281633D01*
X94910873Y-66308386D01*
X94912200Y-66335400D01*
X94912200Y-66986600D01*
X94910873Y-67013614D01*
X94906904Y-67040367D01*
X94900333Y-67066602D01*
X94891221Y-67092068D01*
X94879658Y-67116517D01*
X94865753Y-67139715D01*
X94849642Y-67161439D01*
X94831479Y-67181479D01*
X94811439Y-67199642D01*
X94789715Y-67215753D01*
X94766517Y-67229658D01*
X94742068Y-67241221D01*
X94716602Y-67250333D01*
X94690367Y-67256904D01*
X94663614Y-67260873D01*
X94636600Y-67262200D01*
X94085400Y-67262200D01*
X94058386Y-67260873D01*
X94031633Y-67256904D01*
X94005398Y-67250333D01*
X93979932Y-67241221D01*
X93955483Y-67229658D01*
X93932285Y-67215753D01*
X93910561Y-67199642D01*
X93890521Y-67181479D01*
X93872358Y-67161439D01*
X93856247Y-67139715D01*
X93842342Y-67116517D01*
X93830779Y-67092068D01*
X93821667Y-67066602D01*
X93815096Y-67040367D01*
X93811127Y-67013614D01*
X93809800Y-66986600D01*
X93809800Y-66335400D01*
X93811127Y-66308386D01*
X93815096Y-66281633D01*
X93821667Y-66255398D01*
X93830779Y-66229932D01*
X93842342Y-66205483D01*
X93856247Y-66182285D01*
X93872358Y-66160561D01*
X93890521Y-66140521D01*
X93910561Y-66122358D01*
X93932285Y-66106247D01*
X93955483Y-66092342D01*
X93979932Y-66080779D01*
X94005398Y-66071667D01*
X94031633Y-66065096D01*
X94058386Y-66061127D01*
X94085400Y-66059800D01*
X94636600Y-66059800D01*
X94663614Y-66061127D01*
X94663614Y-66061127D01*
G37*
D12*
X94361000Y-66661000D03*
D11*
G36*
X94663614Y-64311127D02*
X94690367Y-64315096D01*
X94716602Y-64321667D01*
X94742068Y-64330779D01*
X94766517Y-64342342D01*
X94789715Y-64356247D01*
X94811439Y-64372358D01*
X94831479Y-64390521D01*
X94849642Y-64410561D01*
X94865753Y-64432285D01*
X94879658Y-64455483D01*
X94891221Y-64479932D01*
X94900333Y-64505398D01*
X94906904Y-64531633D01*
X94910873Y-64558386D01*
X94912200Y-64585400D01*
X94912200Y-65236600D01*
X94910873Y-65263614D01*
X94906904Y-65290367D01*
X94900333Y-65316602D01*
X94891221Y-65342068D01*
X94879658Y-65366517D01*
X94865753Y-65389715D01*
X94849642Y-65411439D01*
X94831479Y-65431479D01*
X94811439Y-65449642D01*
X94789715Y-65465753D01*
X94766517Y-65479658D01*
X94742068Y-65491221D01*
X94716602Y-65500333D01*
X94690367Y-65506904D01*
X94663614Y-65510873D01*
X94636600Y-65512200D01*
X94085400Y-65512200D01*
X94058386Y-65510873D01*
X94031633Y-65506904D01*
X94005398Y-65500333D01*
X93979932Y-65491221D01*
X93955483Y-65479658D01*
X93932285Y-65465753D01*
X93910561Y-65449642D01*
X93890521Y-65431479D01*
X93872358Y-65411439D01*
X93856247Y-65389715D01*
X93842342Y-65366517D01*
X93830779Y-65342068D01*
X93821667Y-65316602D01*
X93815096Y-65290367D01*
X93811127Y-65263614D01*
X93809800Y-65236600D01*
X93809800Y-64585400D01*
X93811127Y-64558386D01*
X93815096Y-64531633D01*
X93821667Y-64505398D01*
X93830779Y-64479932D01*
X93842342Y-64455483D01*
X93856247Y-64432285D01*
X93872358Y-64410561D01*
X93890521Y-64390521D01*
X93910561Y-64372358D01*
X93932285Y-64356247D01*
X93955483Y-64342342D01*
X93979932Y-64330779D01*
X94005398Y-64321667D01*
X94031633Y-64315096D01*
X94058386Y-64311127D01*
X94085400Y-64309800D01*
X94636600Y-64309800D01*
X94663614Y-64311127D01*
X94663614Y-64311127D01*
G37*
D12*
X94361000Y-64911000D03*
G04 #@! TD*
D11*
G04 #@! TO.C,C7*
G36*
X103081614Y-111083127D02*
X103108367Y-111087096D01*
X103134602Y-111093667D01*
X103160068Y-111102779D01*
X103184517Y-111114342D01*
X103207715Y-111128247D01*
X103229439Y-111144358D01*
X103249479Y-111162521D01*
X103267642Y-111182561D01*
X103283753Y-111204285D01*
X103297658Y-111227483D01*
X103309221Y-111251932D01*
X103318333Y-111277398D01*
X103324904Y-111303633D01*
X103328873Y-111330386D01*
X103330200Y-111357400D01*
X103330200Y-111908600D01*
X103328873Y-111935614D01*
X103324904Y-111962367D01*
X103318333Y-111988602D01*
X103309221Y-112014068D01*
X103297658Y-112038517D01*
X103283753Y-112061715D01*
X103267642Y-112083439D01*
X103249479Y-112103479D01*
X103229439Y-112121642D01*
X103207715Y-112137753D01*
X103184517Y-112151658D01*
X103160068Y-112163221D01*
X103134602Y-112172333D01*
X103108367Y-112178904D01*
X103081614Y-112182873D01*
X103054600Y-112184200D01*
X102403400Y-112184200D01*
X102376386Y-112182873D01*
X102349633Y-112178904D01*
X102323398Y-112172333D01*
X102297932Y-112163221D01*
X102273483Y-112151658D01*
X102250285Y-112137753D01*
X102228561Y-112121642D01*
X102208521Y-112103479D01*
X102190358Y-112083439D01*
X102174247Y-112061715D01*
X102160342Y-112038517D01*
X102148779Y-112014068D01*
X102139667Y-111988602D01*
X102133096Y-111962367D01*
X102129127Y-111935614D01*
X102127800Y-111908600D01*
X102127800Y-111357400D01*
X102129127Y-111330386D01*
X102133096Y-111303633D01*
X102139667Y-111277398D01*
X102148779Y-111251932D01*
X102160342Y-111227483D01*
X102174247Y-111204285D01*
X102190358Y-111182561D01*
X102208521Y-111162521D01*
X102228561Y-111144358D01*
X102250285Y-111128247D01*
X102273483Y-111114342D01*
X102297932Y-111102779D01*
X102323398Y-111093667D01*
X102349633Y-111087096D01*
X102376386Y-111083127D01*
X102403400Y-111081800D01*
X103054600Y-111081800D01*
X103081614Y-111083127D01*
X103081614Y-111083127D01*
G37*
D12*
X102729000Y-111633000D03*
D11*
G36*
X101331614Y-111083127D02*
X101358367Y-111087096D01*
X101384602Y-111093667D01*
X101410068Y-111102779D01*
X101434517Y-111114342D01*
X101457715Y-111128247D01*
X101479439Y-111144358D01*
X101499479Y-111162521D01*
X101517642Y-111182561D01*
X101533753Y-111204285D01*
X101547658Y-111227483D01*
X101559221Y-111251932D01*
X101568333Y-111277398D01*
X101574904Y-111303633D01*
X101578873Y-111330386D01*
X101580200Y-111357400D01*
X101580200Y-111908600D01*
X101578873Y-111935614D01*
X101574904Y-111962367D01*
X101568333Y-111988602D01*
X101559221Y-112014068D01*
X101547658Y-112038517D01*
X101533753Y-112061715D01*
X101517642Y-112083439D01*
X101499479Y-112103479D01*
X101479439Y-112121642D01*
X101457715Y-112137753D01*
X101434517Y-112151658D01*
X101410068Y-112163221D01*
X101384602Y-112172333D01*
X101358367Y-112178904D01*
X101331614Y-112182873D01*
X101304600Y-112184200D01*
X100653400Y-112184200D01*
X100626386Y-112182873D01*
X100599633Y-112178904D01*
X100573398Y-112172333D01*
X100547932Y-112163221D01*
X100523483Y-112151658D01*
X100500285Y-112137753D01*
X100478561Y-112121642D01*
X100458521Y-112103479D01*
X100440358Y-112083439D01*
X100424247Y-112061715D01*
X100410342Y-112038517D01*
X100398779Y-112014068D01*
X100389667Y-111988602D01*
X100383096Y-111962367D01*
X100379127Y-111935614D01*
X100377800Y-111908600D01*
X100377800Y-111357400D01*
X100379127Y-111330386D01*
X100383096Y-111303633D01*
X100389667Y-111277398D01*
X100398779Y-111251932D01*
X100410342Y-111227483D01*
X100424247Y-111204285D01*
X100440358Y-111182561D01*
X100458521Y-111162521D01*
X100478561Y-111144358D01*
X100500285Y-111128247D01*
X100523483Y-111114342D01*
X100547932Y-111102779D01*
X100573398Y-111093667D01*
X100599633Y-111087096D01*
X100626386Y-111083127D01*
X100653400Y-111081800D01*
X101304600Y-111081800D01*
X101331614Y-111083127D01*
X101331614Y-111083127D01*
G37*
D12*
X100979000Y-111633000D03*
G04 #@! TD*
D11*
G04 #@! TO.C,C8*
G36*
X94346614Y-125180127D02*
X94373367Y-125184096D01*
X94399602Y-125190667D01*
X94425068Y-125199779D01*
X94449517Y-125211342D01*
X94472715Y-125225247D01*
X94494439Y-125241358D01*
X94514479Y-125259521D01*
X94532642Y-125279561D01*
X94548753Y-125301285D01*
X94562658Y-125324483D01*
X94574221Y-125348932D01*
X94583333Y-125374398D01*
X94589904Y-125400633D01*
X94593873Y-125427386D01*
X94595200Y-125454400D01*
X94595200Y-126005600D01*
X94593873Y-126032614D01*
X94589904Y-126059367D01*
X94583333Y-126085602D01*
X94574221Y-126111068D01*
X94562658Y-126135517D01*
X94548753Y-126158715D01*
X94532642Y-126180439D01*
X94514479Y-126200479D01*
X94494439Y-126218642D01*
X94472715Y-126234753D01*
X94449517Y-126248658D01*
X94425068Y-126260221D01*
X94399602Y-126269333D01*
X94373367Y-126275904D01*
X94346614Y-126279873D01*
X94319600Y-126281200D01*
X93668400Y-126281200D01*
X93641386Y-126279873D01*
X93614633Y-126275904D01*
X93588398Y-126269333D01*
X93562932Y-126260221D01*
X93538483Y-126248658D01*
X93515285Y-126234753D01*
X93493561Y-126218642D01*
X93473521Y-126200479D01*
X93455358Y-126180439D01*
X93439247Y-126158715D01*
X93425342Y-126135517D01*
X93413779Y-126111068D01*
X93404667Y-126085602D01*
X93398096Y-126059367D01*
X93394127Y-126032614D01*
X93392800Y-126005600D01*
X93392800Y-125454400D01*
X93394127Y-125427386D01*
X93398096Y-125400633D01*
X93404667Y-125374398D01*
X93413779Y-125348932D01*
X93425342Y-125324483D01*
X93439247Y-125301285D01*
X93455358Y-125279561D01*
X93473521Y-125259521D01*
X93493561Y-125241358D01*
X93515285Y-125225247D01*
X93538483Y-125211342D01*
X93562932Y-125199779D01*
X93588398Y-125190667D01*
X93614633Y-125184096D01*
X93641386Y-125180127D01*
X93668400Y-125178800D01*
X94319600Y-125178800D01*
X94346614Y-125180127D01*
X94346614Y-125180127D01*
G37*
D12*
X93994000Y-125730000D03*
D11*
G36*
X96096614Y-125180127D02*
X96123367Y-125184096D01*
X96149602Y-125190667D01*
X96175068Y-125199779D01*
X96199517Y-125211342D01*
X96222715Y-125225247D01*
X96244439Y-125241358D01*
X96264479Y-125259521D01*
X96282642Y-125279561D01*
X96298753Y-125301285D01*
X96312658Y-125324483D01*
X96324221Y-125348932D01*
X96333333Y-125374398D01*
X96339904Y-125400633D01*
X96343873Y-125427386D01*
X96345200Y-125454400D01*
X96345200Y-126005600D01*
X96343873Y-126032614D01*
X96339904Y-126059367D01*
X96333333Y-126085602D01*
X96324221Y-126111068D01*
X96312658Y-126135517D01*
X96298753Y-126158715D01*
X96282642Y-126180439D01*
X96264479Y-126200479D01*
X96244439Y-126218642D01*
X96222715Y-126234753D01*
X96199517Y-126248658D01*
X96175068Y-126260221D01*
X96149602Y-126269333D01*
X96123367Y-126275904D01*
X96096614Y-126279873D01*
X96069600Y-126281200D01*
X95418400Y-126281200D01*
X95391386Y-126279873D01*
X95364633Y-126275904D01*
X95338398Y-126269333D01*
X95312932Y-126260221D01*
X95288483Y-126248658D01*
X95265285Y-126234753D01*
X95243561Y-126218642D01*
X95223521Y-126200479D01*
X95205358Y-126180439D01*
X95189247Y-126158715D01*
X95175342Y-126135517D01*
X95163779Y-126111068D01*
X95154667Y-126085602D01*
X95148096Y-126059367D01*
X95144127Y-126032614D01*
X95142800Y-126005600D01*
X95142800Y-125454400D01*
X95144127Y-125427386D01*
X95148096Y-125400633D01*
X95154667Y-125374398D01*
X95163779Y-125348932D01*
X95175342Y-125324483D01*
X95189247Y-125301285D01*
X95205358Y-125279561D01*
X95223521Y-125259521D01*
X95243561Y-125241358D01*
X95265285Y-125225247D01*
X95288483Y-125211342D01*
X95312932Y-125199779D01*
X95338398Y-125190667D01*
X95364633Y-125184096D01*
X95391386Y-125180127D01*
X95418400Y-125178800D01*
X96069600Y-125178800D01*
X96096614Y-125180127D01*
X96096614Y-125180127D01*
G37*
D12*
X95744000Y-125730000D03*
G04 #@! TD*
D11*
G04 #@! TO.C,C9*
G36*
X86980614Y-54949127D02*
X87007367Y-54953096D01*
X87033602Y-54959667D01*
X87059068Y-54968779D01*
X87083517Y-54980342D01*
X87106715Y-54994247D01*
X87128439Y-55010358D01*
X87148479Y-55028521D01*
X87166642Y-55048561D01*
X87182753Y-55070285D01*
X87196658Y-55093483D01*
X87208221Y-55117932D01*
X87217333Y-55143398D01*
X87223904Y-55169633D01*
X87227873Y-55196386D01*
X87229200Y-55223400D01*
X87229200Y-55774600D01*
X87227873Y-55801614D01*
X87223904Y-55828367D01*
X87217333Y-55854602D01*
X87208221Y-55880068D01*
X87196658Y-55904517D01*
X87182753Y-55927715D01*
X87166642Y-55949439D01*
X87148479Y-55969479D01*
X87128439Y-55987642D01*
X87106715Y-56003753D01*
X87083517Y-56017658D01*
X87059068Y-56029221D01*
X87033602Y-56038333D01*
X87007367Y-56044904D01*
X86980614Y-56048873D01*
X86953600Y-56050200D01*
X86302400Y-56050200D01*
X86275386Y-56048873D01*
X86248633Y-56044904D01*
X86222398Y-56038333D01*
X86196932Y-56029221D01*
X86172483Y-56017658D01*
X86149285Y-56003753D01*
X86127561Y-55987642D01*
X86107521Y-55969479D01*
X86089358Y-55949439D01*
X86073247Y-55927715D01*
X86059342Y-55904517D01*
X86047779Y-55880068D01*
X86038667Y-55854602D01*
X86032096Y-55828367D01*
X86028127Y-55801614D01*
X86026800Y-55774600D01*
X86026800Y-55223400D01*
X86028127Y-55196386D01*
X86032096Y-55169633D01*
X86038667Y-55143398D01*
X86047779Y-55117932D01*
X86059342Y-55093483D01*
X86073247Y-55070285D01*
X86089358Y-55048561D01*
X86107521Y-55028521D01*
X86127561Y-55010358D01*
X86149285Y-54994247D01*
X86172483Y-54980342D01*
X86196932Y-54968779D01*
X86222398Y-54959667D01*
X86248633Y-54953096D01*
X86275386Y-54949127D01*
X86302400Y-54947800D01*
X86953600Y-54947800D01*
X86980614Y-54949127D01*
X86980614Y-54949127D01*
G37*
D12*
X86628000Y-55499000D03*
D11*
G36*
X88730614Y-54949127D02*
X88757367Y-54953096D01*
X88783602Y-54959667D01*
X88809068Y-54968779D01*
X88833517Y-54980342D01*
X88856715Y-54994247D01*
X88878439Y-55010358D01*
X88898479Y-55028521D01*
X88916642Y-55048561D01*
X88932753Y-55070285D01*
X88946658Y-55093483D01*
X88958221Y-55117932D01*
X88967333Y-55143398D01*
X88973904Y-55169633D01*
X88977873Y-55196386D01*
X88979200Y-55223400D01*
X88979200Y-55774600D01*
X88977873Y-55801614D01*
X88973904Y-55828367D01*
X88967333Y-55854602D01*
X88958221Y-55880068D01*
X88946658Y-55904517D01*
X88932753Y-55927715D01*
X88916642Y-55949439D01*
X88898479Y-55969479D01*
X88878439Y-55987642D01*
X88856715Y-56003753D01*
X88833517Y-56017658D01*
X88809068Y-56029221D01*
X88783602Y-56038333D01*
X88757367Y-56044904D01*
X88730614Y-56048873D01*
X88703600Y-56050200D01*
X88052400Y-56050200D01*
X88025386Y-56048873D01*
X87998633Y-56044904D01*
X87972398Y-56038333D01*
X87946932Y-56029221D01*
X87922483Y-56017658D01*
X87899285Y-56003753D01*
X87877561Y-55987642D01*
X87857521Y-55969479D01*
X87839358Y-55949439D01*
X87823247Y-55927715D01*
X87809342Y-55904517D01*
X87797779Y-55880068D01*
X87788667Y-55854602D01*
X87782096Y-55828367D01*
X87778127Y-55801614D01*
X87776800Y-55774600D01*
X87776800Y-55223400D01*
X87778127Y-55196386D01*
X87782096Y-55169633D01*
X87788667Y-55143398D01*
X87797779Y-55117932D01*
X87809342Y-55093483D01*
X87823247Y-55070285D01*
X87839358Y-55048561D01*
X87857521Y-55028521D01*
X87877561Y-55010358D01*
X87899285Y-54994247D01*
X87922483Y-54980342D01*
X87946932Y-54968779D01*
X87972398Y-54959667D01*
X87998633Y-54953096D01*
X88025386Y-54949127D01*
X88052400Y-54947800D01*
X88703600Y-54947800D01*
X88730614Y-54949127D01*
X88730614Y-54949127D01*
G37*
D12*
X88378000Y-55499000D03*
G04 #@! TD*
D11*
G04 #@! TO.C,C10*
G36*
X79931614Y-60346127D02*
X79958367Y-60350096D01*
X79984602Y-60356667D01*
X80010068Y-60365779D01*
X80034517Y-60377342D01*
X80057715Y-60391247D01*
X80079439Y-60407358D01*
X80099479Y-60425521D01*
X80117642Y-60445561D01*
X80133753Y-60467285D01*
X80147658Y-60490483D01*
X80159221Y-60514932D01*
X80168333Y-60540398D01*
X80174904Y-60566633D01*
X80178873Y-60593386D01*
X80180200Y-60620400D01*
X80180200Y-61271600D01*
X80178873Y-61298614D01*
X80174904Y-61325367D01*
X80168333Y-61351602D01*
X80159221Y-61377068D01*
X80147658Y-61401517D01*
X80133753Y-61424715D01*
X80117642Y-61446439D01*
X80099479Y-61466479D01*
X80079439Y-61484642D01*
X80057715Y-61500753D01*
X80034517Y-61514658D01*
X80010068Y-61526221D01*
X79984602Y-61535333D01*
X79958367Y-61541904D01*
X79931614Y-61545873D01*
X79904600Y-61547200D01*
X79353400Y-61547200D01*
X79326386Y-61545873D01*
X79299633Y-61541904D01*
X79273398Y-61535333D01*
X79247932Y-61526221D01*
X79223483Y-61514658D01*
X79200285Y-61500753D01*
X79178561Y-61484642D01*
X79158521Y-61466479D01*
X79140358Y-61446439D01*
X79124247Y-61424715D01*
X79110342Y-61401517D01*
X79098779Y-61377068D01*
X79089667Y-61351602D01*
X79083096Y-61325367D01*
X79079127Y-61298614D01*
X79077800Y-61271600D01*
X79077800Y-60620400D01*
X79079127Y-60593386D01*
X79083096Y-60566633D01*
X79089667Y-60540398D01*
X79098779Y-60514932D01*
X79110342Y-60490483D01*
X79124247Y-60467285D01*
X79140358Y-60445561D01*
X79158521Y-60425521D01*
X79178561Y-60407358D01*
X79200285Y-60391247D01*
X79223483Y-60377342D01*
X79247932Y-60365779D01*
X79273398Y-60356667D01*
X79299633Y-60350096D01*
X79326386Y-60346127D01*
X79353400Y-60344800D01*
X79904600Y-60344800D01*
X79931614Y-60346127D01*
X79931614Y-60346127D01*
G37*
D12*
X79629000Y-60946000D03*
D11*
G36*
X79931614Y-58596127D02*
X79958367Y-58600096D01*
X79984602Y-58606667D01*
X80010068Y-58615779D01*
X80034517Y-58627342D01*
X80057715Y-58641247D01*
X80079439Y-58657358D01*
X80099479Y-58675521D01*
X80117642Y-58695561D01*
X80133753Y-58717285D01*
X80147658Y-58740483D01*
X80159221Y-58764932D01*
X80168333Y-58790398D01*
X80174904Y-58816633D01*
X80178873Y-58843386D01*
X80180200Y-58870400D01*
X80180200Y-59521600D01*
X80178873Y-59548614D01*
X80174904Y-59575367D01*
X80168333Y-59601602D01*
X80159221Y-59627068D01*
X80147658Y-59651517D01*
X80133753Y-59674715D01*
X80117642Y-59696439D01*
X80099479Y-59716479D01*
X80079439Y-59734642D01*
X80057715Y-59750753D01*
X80034517Y-59764658D01*
X80010068Y-59776221D01*
X79984602Y-59785333D01*
X79958367Y-59791904D01*
X79931614Y-59795873D01*
X79904600Y-59797200D01*
X79353400Y-59797200D01*
X79326386Y-59795873D01*
X79299633Y-59791904D01*
X79273398Y-59785333D01*
X79247932Y-59776221D01*
X79223483Y-59764658D01*
X79200285Y-59750753D01*
X79178561Y-59734642D01*
X79158521Y-59716479D01*
X79140358Y-59696439D01*
X79124247Y-59674715D01*
X79110342Y-59651517D01*
X79098779Y-59627068D01*
X79089667Y-59601602D01*
X79083096Y-59575367D01*
X79079127Y-59548614D01*
X79077800Y-59521600D01*
X79077800Y-58870400D01*
X79079127Y-58843386D01*
X79083096Y-58816633D01*
X79089667Y-58790398D01*
X79098779Y-58764932D01*
X79110342Y-58740483D01*
X79124247Y-58717285D01*
X79140358Y-58695561D01*
X79158521Y-58675521D01*
X79178561Y-58657358D01*
X79200285Y-58641247D01*
X79223483Y-58627342D01*
X79247932Y-58615779D01*
X79273398Y-58606667D01*
X79299633Y-58600096D01*
X79326386Y-58596127D01*
X79353400Y-58594800D01*
X79904600Y-58594800D01*
X79931614Y-58596127D01*
X79931614Y-58596127D01*
G37*
D12*
X79629000Y-59196000D03*
G04 #@! TD*
D11*
G04 #@! TO.C,C11*
G36*
X82725614Y-60346127D02*
X82752367Y-60350096D01*
X82778602Y-60356667D01*
X82804068Y-60365779D01*
X82828517Y-60377342D01*
X82851715Y-60391247D01*
X82873439Y-60407358D01*
X82893479Y-60425521D01*
X82911642Y-60445561D01*
X82927753Y-60467285D01*
X82941658Y-60490483D01*
X82953221Y-60514932D01*
X82962333Y-60540398D01*
X82968904Y-60566633D01*
X82972873Y-60593386D01*
X82974200Y-60620400D01*
X82974200Y-61271600D01*
X82972873Y-61298614D01*
X82968904Y-61325367D01*
X82962333Y-61351602D01*
X82953221Y-61377068D01*
X82941658Y-61401517D01*
X82927753Y-61424715D01*
X82911642Y-61446439D01*
X82893479Y-61466479D01*
X82873439Y-61484642D01*
X82851715Y-61500753D01*
X82828517Y-61514658D01*
X82804068Y-61526221D01*
X82778602Y-61535333D01*
X82752367Y-61541904D01*
X82725614Y-61545873D01*
X82698600Y-61547200D01*
X82147400Y-61547200D01*
X82120386Y-61545873D01*
X82093633Y-61541904D01*
X82067398Y-61535333D01*
X82041932Y-61526221D01*
X82017483Y-61514658D01*
X81994285Y-61500753D01*
X81972561Y-61484642D01*
X81952521Y-61466479D01*
X81934358Y-61446439D01*
X81918247Y-61424715D01*
X81904342Y-61401517D01*
X81892779Y-61377068D01*
X81883667Y-61351602D01*
X81877096Y-61325367D01*
X81873127Y-61298614D01*
X81871800Y-61271600D01*
X81871800Y-60620400D01*
X81873127Y-60593386D01*
X81877096Y-60566633D01*
X81883667Y-60540398D01*
X81892779Y-60514932D01*
X81904342Y-60490483D01*
X81918247Y-60467285D01*
X81934358Y-60445561D01*
X81952521Y-60425521D01*
X81972561Y-60407358D01*
X81994285Y-60391247D01*
X82017483Y-60377342D01*
X82041932Y-60365779D01*
X82067398Y-60356667D01*
X82093633Y-60350096D01*
X82120386Y-60346127D01*
X82147400Y-60344800D01*
X82698600Y-60344800D01*
X82725614Y-60346127D01*
X82725614Y-60346127D01*
G37*
D12*
X82423000Y-60946000D03*
D11*
G36*
X82725614Y-58596127D02*
X82752367Y-58600096D01*
X82778602Y-58606667D01*
X82804068Y-58615779D01*
X82828517Y-58627342D01*
X82851715Y-58641247D01*
X82873439Y-58657358D01*
X82893479Y-58675521D01*
X82911642Y-58695561D01*
X82927753Y-58717285D01*
X82941658Y-58740483D01*
X82953221Y-58764932D01*
X82962333Y-58790398D01*
X82968904Y-58816633D01*
X82972873Y-58843386D01*
X82974200Y-58870400D01*
X82974200Y-59521600D01*
X82972873Y-59548614D01*
X82968904Y-59575367D01*
X82962333Y-59601602D01*
X82953221Y-59627068D01*
X82941658Y-59651517D01*
X82927753Y-59674715D01*
X82911642Y-59696439D01*
X82893479Y-59716479D01*
X82873439Y-59734642D01*
X82851715Y-59750753D01*
X82828517Y-59764658D01*
X82804068Y-59776221D01*
X82778602Y-59785333D01*
X82752367Y-59791904D01*
X82725614Y-59795873D01*
X82698600Y-59797200D01*
X82147400Y-59797200D01*
X82120386Y-59795873D01*
X82093633Y-59791904D01*
X82067398Y-59785333D01*
X82041932Y-59776221D01*
X82017483Y-59764658D01*
X81994285Y-59750753D01*
X81972561Y-59734642D01*
X81952521Y-59716479D01*
X81934358Y-59696439D01*
X81918247Y-59674715D01*
X81904342Y-59651517D01*
X81892779Y-59627068D01*
X81883667Y-59601602D01*
X81877096Y-59575367D01*
X81873127Y-59548614D01*
X81871800Y-59521600D01*
X81871800Y-58870400D01*
X81873127Y-58843386D01*
X81877096Y-58816633D01*
X81883667Y-58790398D01*
X81892779Y-58764932D01*
X81904342Y-58740483D01*
X81918247Y-58717285D01*
X81934358Y-58695561D01*
X81952521Y-58675521D01*
X81972561Y-58657358D01*
X81994285Y-58641247D01*
X82017483Y-58627342D01*
X82041932Y-58615779D01*
X82067398Y-58606667D01*
X82093633Y-58600096D01*
X82120386Y-58596127D01*
X82147400Y-58594800D01*
X82698600Y-58594800D01*
X82725614Y-58596127D01*
X82725614Y-58596127D01*
G37*
D12*
X82423000Y-59196000D03*
G04 #@! TD*
D13*
G04 #@! TO.C,J2*
X64008000Y-84201000D03*
D14*
X66548000Y-84201000D03*
G04 #@! TD*
D15*
G04 #@! TO.C,J3*
X100075000Y-48181000D03*
D16*
X104775000Y-45181000D03*
D17*
X104775000Y-51181000D03*
G04 #@! TD*
D18*
G04 #@! TO.C,J6*
X36865500Y-121706000D03*
X58865500Y-121706000D03*
D19*
X41565500Y-121246000D03*
X45765500Y-121246000D03*
X49965500Y-121246000D03*
X54165500Y-121246000D03*
X41565500Y-126746000D03*
X45765500Y-126746000D03*
X49965500Y-126746000D03*
D20*
X54165500Y-126746000D03*
G04 #@! TD*
D21*
G04 #@! TO.C,L1*
X72486000Y-68580000D03*
X78486000Y-68580000D03*
G04 #@! TD*
G04 #@! TO.C,L2*
X82519000Y-122428000D03*
X88519000Y-122428000D03*
G04 #@! TD*
D11*
G04 #@! TO.C,R1*
G36*
X59548614Y-149754627D02*
X59575367Y-149758596D01*
X59601602Y-149765167D01*
X59627068Y-149774279D01*
X59651517Y-149785842D01*
X59674715Y-149799747D01*
X59696439Y-149815858D01*
X59716479Y-149834021D01*
X59734642Y-149854061D01*
X59750753Y-149875785D01*
X59764658Y-149898983D01*
X59776221Y-149923432D01*
X59785333Y-149948898D01*
X59791904Y-149975133D01*
X59795873Y-150001886D01*
X59797200Y-150028900D01*
X59797200Y-150580100D01*
X59795873Y-150607114D01*
X59791904Y-150633867D01*
X59785333Y-150660102D01*
X59776221Y-150685568D01*
X59764658Y-150710017D01*
X59750753Y-150733215D01*
X59734642Y-150754939D01*
X59716479Y-150774979D01*
X59696439Y-150793142D01*
X59674715Y-150809253D01*
X59651517Y-150823158D01*
X59627068Y-150834721D01*
X59601602Y-150843833D01*
X59575367Y-150850404D01*
X59548614Y-150854373D01*
X59521600Y-150855700D01*
X58870400Y-150855700D01*
X58843386Y-150854373D01*
X58816633Y-150850404D01*
X58790398Y-150843833D01*
X58764932Y-150834721D01*
X58740483Y-150823158D01*
X58717285Y-150809253D01*
X58695561Y-150793142D01*
X58675521Y-150774979D01*
X58657358Y-150754939D01*
X58641247Y-150733215D01*
X58627342Y-150710017D01*
X58615779Y-150685568D01*
X58606667Y-150660102D01*
X58600096Y-150633867D01*
X58596127Y-150607114D01*
X58594800Y-150580100D01*
X58594800Y-150028900D01*
X58596127Y-150001886D01*
X58600096Y-149975133D01*
X58606667Y-149948898D01*
X58615779Y-149923432D01*
X58627342Y-149898983D01*
X58641247Y-149875785D01*
X58657358Y-149854061D01*
X58675521Y-149834021D01*
X58695561Y-149815858D01*
X58717285Y-149799747D01*
X58740483Y-149785842D01*
X58764932Y-149774279D01*
X58790398Y-149765167D01*
X58816633Y-149758596D01*
X58843386Y-149754627D01*
X58870400Y-149753300D01*
X59521600Y-149753300D01*
X59548614Y-149754627D01*
X59548614Y-149754627D01*
G37*
D12*
X59196000Y-150304500D03*
D11*
G36*
X61298614Y-149754627D02*
X61325367Y-149758596D01*
X61351602Y-149765167D01*
X61377068Y-149774279D01*
X61401517Y-149785842D01*
X61424715Y-149799747D01*
X61446439Y-149815858D01*
X61466479Y-149834021D01*
X61484642Y-149854061D01*
X61500753Y-149875785D01*
X61514658Y-149898983D01*
X61526221Y-149923432D01*
X61535333Y-149948898D01*
X61541904Y-149975133D01*
X61545873Y-150001886D01*
X61547200Y-150028900D01*
X61547200Y-150580100D01*
X61545873Y-150607114D01*
X61541904Y-150633867D01*
X61535333Y-150660102D01*
X61526221Y-150685568D01*
X61514658Y-150710017D01*
X61500753Y-150733215D01*
X61484642Y-150754939D01*
X61466479Y-150774979D01*
X61446439Y-150793142D01*
X61424715Y-150809253D01*
X61401517Y-150823158D01*
X61377068Y-150834721D01*
X61351602Y-150843833D01*
X61325367Y-150850404D01*
X61298614Y-150854373D01*
X61271600Y-150855700D01*
X60620400Y-150855700D01*
X60593386Y-150854373D01*
X60566633Y-150850404D01*
X60540398Y-150843833D01*
X60514932Y-150834721D01*
X60490483Y-150823158D01*
X60467285Y-150809253D01*
X60445561Y-150793142D01*
X60425521Y-150774979D01*
X60407358Y-150754939D01*
X60391247Y-150733215D01*
X60377342Y-150710017D01*
X60365779Y-150685568D01*
X60356667Y-150660102D01*
X60350096Y-150633867D01*
X60346127Y-150607114D01*
X60344800Y-150580100D01*
X60344800Y-150028900D01*
X60346127Y-150001886D01*
X60350096Y-149975133D01*
X60356667Y-149948898D01*
X60365779Y-149923432D01*
X60377342Y-149898983D01*
X60391247Y-149875785D01*
X60407358Y-149854061D01*
X60425521Y-149834021D01*
X60445561Y-149815858D01*
X60467285Y-149799747D01*
X60490483Y-149785842D01*
X60514932Y-149774279D01*
X60540398Y-149765167D01*
X60566633Y-149758596D01*
X60593386Y-149754627D01*
X60620400Y-149753300D01*
X61271600Y-149753300D01*
X61298614Y-149754627D01*
X61298614Y-149754627D01*
G37*
D12*
X60946000Y-150304500D03*
G04 #@! TD*
D11*
G04 #@! TO.C,R2*
G36*
X59548614Y-146770127D02*
X59575367Y-146774096D01*
X59601602Y-146780667D01*
X59627068Y-146789779D01*
X59651517Y-146801342D01*
X59674715Y-146815247D01*
X59696439Y-146831358D01*
X59716479Y-146849521D01*
X59734642Y-146869561D01*
X59750753Y-146891285D01*
X59764658Y-146914483D01*
X59776221Y-146938932D01*
X59785333Y-146964398D01*
X59791904Y-146990633D01*
X59795873Y-147017386D01*
X59797200Y-147044400D01*
X59797200Y-147595600D01*
X59795873Y-147622614D01*
X59791904Y-147649367D01*
X59785333Y-147675602D01*
X59776221Y-147701068D01*
X59764658Y-147725517D01*
X59750753Y-147748715D01*
X59734642Y-147770439D01*
X59716479Y-147790479D01*
X59696439Y-147808642D01*
X59674715Y-147824753D01*
X59651517Y-147838658D01*
X59627068Y-147850221D01*
X59601602Y-147859333D01*
X59575367Y-147865904D01*
X59548614Y-147869873D01*
X59521600Y-147871200D01*
X58870400Y-147871200D01*
X58843386Y-147869873D01*
X58816633Y-147865904D01*
X58790398Y-147859333D01*
X58764932Y-147850221D01*
X58740483Y-147838658D01*
X58717285Y-147824753D01*
X58695561Y-147808642D01*
X58675521Y-147790479D01*
X58657358Y-147770439D01*
X58641247Y-147748715D01*
X58627342Y-147725517D01*
X58615779Y-147701068D01*
X58606667Y-147675602D01*
X58600096Y-147649367D01*
X58596127Y-147622614D01*
X58594800Y-147595600D01*
X58594800Y-147044400D01*
X58596127Y-147017386D01*
X58600096Y-146990633D01*
X58606667Y-146964398D01*
X58615779Y-146938932D01*
X58627342Y-146914483D01*
X58641247Y-146891285D01*
X58657358Y-146869561D01*
X58675521Y-146849521D01*
X58695561Y-146831358D01*
X58717285Y-146815247D01*
X58740483Y-146801342D01*
X58764932Y-146789779D01*
X58790398Y-146780667D01*
X58816633Y-146774096D01*
X58843386Y-146770127D01*
X58870400Y-146768800D01*
X59521600Y-146768800D01*
X59548614Y-146770127D01*
X59548614Y-146770127D01*
G37*
D12*
X59196000Y-147320000D03*
D11*
G36*
X61298614Y-146770127D02*
X61325367Y-146774096D01*
X61351602Y-146780667D01*
X61377068Y-146789779D01*
X61401517Y-146801342D01*
X61424715Y-146815247D01*
X61446439Y-146831358D01*
X61466479Y-146849521D01*
X61484642Y-146869561D01*
X61500753Y-146891285D01*
X61514658Y-146914483D01*
X61526221Y-146938932D01*
X61535333Y-146964398D01*
X61541904Y-146990633D01*
X61545873Y-147017386D01*
X61547200Y-147044400D01*
X61547200Y-147595600D01*
X61545873Y-147622614D01*
X61541904Y-147649367D01*
X61535333Y-147675602D01*
X61526221Y-147701068D01*
X61514658Y-147725517D01*
X61500753Y-147748715D01*
X61484642Y-147770439D01*
X61466479Y-147790479D01*
X61446439Y-147808642D01*
X61424715Y-147824753D01*
X61401517Y-147838658D01*
X61377068Y-147850221D01*
X61351602Y-147859333D01*
X61325367Y-147865904D01*
X61298614Y-147869873D01*
X61271600Y-147871200D01*
X60620400Y-147871200D01*
X60593386Y-147869873D01*
X60566633Y-147865904D01*
X60540398Y-147859333D01*
X60514932Y-147850221D01*
X60490483Y-147838658D01*
X60467285Y-147824753D01*
X60445561Y-147808642D01*
X60425521Y-147790479D01*
X60407358Y-147770439D01*
X60391247Y-147748715D01*
X60377342Y-147725517D01*
X60365779Y-147701068D01*
X60356667Y-147675602D01*
X60350096Y-147649367D01*
X60346127Y-147622614D01*
X60344800Y-147595600D01*
X60344800Y-147044400D01*
X60346127Y-147017386D01*
X60350096Y-146990633D01*
X60356667Y-146964398D01*
X60365779Y-146938932D01*
X60377342Y-146914483D01*
X60391247Y-146891285D01*
X60407358Y-146869561D01*
X60425521Y-146849521D01*
X60445561Y-146831358D01*
X60467285Y-146815247D01*
X60490483Y-146801342D01*
X60514932Y-146789779D01*
X60540398Y-146780667D01*
X60566633Y-146774096D01*
X60593386Y-146770127D01*
X60620400Y-146768800D01*
X61271600Y-146768800D01*
X61298614Y-146770127D01*
X61298614Y-146770127D01*
G37*
D12*
X60946000Y-147320000D03*
G04 #@! TD*
D11*
G04 #@! TO.C,R4*
G36*
X114158614Y-55330127D02*
X114185367Y-55334096D01*
X114211602Y-55340667D01*
X114237068Y-55349779D01*
X114261517Y-55361342D01*
X114284715Y-55375247D01*
X114306439Y-55391358D01*
X114326479Y-55409521D01*
X114344642Y-55429561D01*
X114360753Y-55451285D01*
X114374658Y-55474483D01*
X114386221Y-55498932D01*
X114395333Y-55524398D01*
X114401904Y-55550633D01*
X114405873Y-55577386D01*
X114407200Y-55604400D01*
X114407200Y-56155600D01*
X114405873Y-56182614D01*
X114401904Y-56209367D01*
X114395333Y-56235602D01*
X114386221Y-56261068D01*
X114374658Y-56285517D01*
X114360753Y-56308715D01*
X114344642Y-56330439D01*
X114326479Y-56350479D01*
X114306439Y-56368642D01*
X114284715Y-56384753D01*
X114261517Y-56398658D01*
X114237068Y-56410221D01*
X114211602Y-56419333D01*
X114185367Y-56425904D01*
X114158614Y-56429873D01*
X114131600Y-56431200D01*
X113480400Y-56431200D01*
X113453386Y-56429873D01*
X113426633Y-56425904D01*
X113400398Y-56419333D01*
X113374932Y-56410221D01*
X113350483Y-56398658D01*
X113327285Y-56384753D01*
X113305561Y-56368642D01*
X113285521Y-56350479D01*
X113267358Y-56330439D01*
X113251247Y-56308715D01*
X113237342Y-56285517D01*
X113225779Y-56261068D01*
X113216667Y-56235602D01*
X113210096Y-56209367D01*
X113206127Y-56182614D01*
X113204800Y-56155600D01*
X113204800Y-55604400D01*
X113206127Y-55577386D01*
X113210096Y-55550633D01*
X113216667Y-55524398D01*
X113225779Y-55498932D01*
X113237342Y-55474483D01*
X113251247Y-55451285D01*
X113267358Y-55429561D01*
X113285521Y-55409521D01*
X113305561Y-55391358D01*
X113327285Y-55375247D01*
X113350483Y-55361342D01*
X113374932Y-55349779D01*
X113400398Y-55340667D01*
X113426633Y-55334096D01*
X113453386Y-55330127D01*
X113480400Y-55328800D01*
X114131600Y-55328800D01*
X114158614Y-55330127D01*
X114158614Y-55330127D01*
G37*
D12*
X113806000Y-55880000D03*
D11*
G36*
X115908614Y-55330127D02*
X115935367Y-55334096D01*
X115961602Y-55340667D01*
X115987068Y-55349779D01*
X116011517Y-55361342D01*
X116034715Y-55375247D01*
X116056439Y-55391358D01*
X116076479Y-55409521D01*
X116094642Y-55429561D01*
X116110753Y-55451285D01*
X116124658Y-55474483D01*
X116136221Y-55498932D01*
X116145333Y-55524398D01*
X116151904Y-55550633D01*
X116155873Y-55577386D01*
X116157200Y-55604400D01*
X116157200Y-56155600D01*
X116155873Y-56182614D01*
X116151904Y-56209367D01*
X116145333Y-56235602D01*
X116136221Y-56261068D01*
X116124658Y-56285517D01*
X116110753Y-56308715D01*
X116094642Y-56330439D01*
X116076479Y-56350479D01*
X116056439Y-56368642D01*
X116034715Y-56384753D01*
X116011517Y-56398658D01*
X115987068Y-56410221D01*
X115961602Y-56419333D01*
X115935367Y-56425904D01*
X115908614Y-56429873D01*
X115881600Y-56431200D01*
X115230400Y-56431200D01*
X115203386Y-56429873D01*
X115176633Y-56425904D01*
X115150398Y-56419333D01*
X115124932Y-56410221D01*
X115100483Y-56398658D01*
X115077285Y-56384753D01*
X115055561Y-56368642D01*
X115035521Y-56350479D01*
X115017358Y-56330439D01*
X115001247Y-56308715D01*
X114987342Y-56285517D01*
X114975779Y-56261068D01*
X114966667Y-56235602D01*
X114960096Y-56209367D01*
X114956127Y-56182614D01*
X114954800Y-56155600D01*
X114954800Y-55604400D01*
X114956127Y-55577386D01*
X114960096Y-55550633D01*
X114966667Y-55524398D01*
X114975779Y-55498932D01*
X114987342Y-55474483D01*
X115001247Y-55451285D01*
X115017358Y-55429561D01*
X115035521Y-55409521D01*
X115055561Y-55391358D01*
X115077285Y-55375247D01*
X115100483Y-55361342D01*
X115124932Y-55349779D01*
X115150398Y-55340667D01*
X115176633Y-55334096D01*
X115203386Y-55330127D01*
X115230400Y-55328800D01*
X115881600Y-55328800D01*
X115908614Y-55330127D01*
X115908614Y-55330127D01*
G37*
D12*
X115556000Y-55880000D03*
G04 #@! TD*
D11*
G04 #@! TO.C,R5*
G36*
X123556614Y-55330127D02*
X123583367Y-55334096D01*
X123609602Y-55340667D01*
X123635068Y-55349779D01*
X123659517Y-55361342D01*
X123682715Y-55375247D01*
X123704439Y-55391358D01*
X123724479Y-55409521D01*
X123742642Y-55429561D01*
X123758753Y-55451285D01*
X123772658Y-55474483D01*
X123784221Y-55498932D01*
X123793333Y-55524398D01*
X123799904Y-55550633D01*
X123803873Y-55577386D01*
X123805200Y-55604400D01*
X123805200Y-56155600D01*
X123803873Y-56182614D01*
X123799904Y-56209367D01*
X123793333Y-56235602D01*
X123784221Y-56261068D01*
X123772658Y-56285517D01*
X123758753Y-56308715D01*
X123742642Y-56330439D01*
X123724479Y-56350479D01*
X123704439Y-56368642D01*
X123682715Y-56384753D01*
X123659517Y-56398658D01*
X123635068Y-56410221D01*
X123609602Y-56419333D01*
X123583367Y-56425904D01*
X123556614Y-56429873D01*
X123529600Y-56431200D01*
X122878400Y-56431200D01*
X122851386Y-56429873D01*
X122824633Y-56425904D01*
X122798398Y-56419333D01*
X122772932Y-56410221D01*
X122748483Y-56398658D01*
X122725285Y-56384753D01*
X122703561Y-56368642D01*
X122683521Y-56350479D01*
X122665358Y-56330439D01*
X122649247Y-56308715D01*
X122635342Y-56285517D01*
X122623779Y-56261068D01*
X122614667Y-56235602D01*
X122608096Y-56209367D01*
X122604127Y-56182614D01*
X122602800Y-56155600D01*
X122602800Y-55604400D01*
X122604127Y-55577386D01*
X122608096Y-55550633D01*
X122614667Y-55524398D01*
X122623779Y-55498932D01*
X122635342Y-55474483D01*
X122649247Y-55451285D01*
X122665358Y-55429561D01*
X122683521Y-55409521D01*
X122703561Y-55391358D01*
X122725285Y-55375247D01*
X122748483Y-55361342D01*
X122772932Y-55349779D01*
X122798398Y-55340667D01*
X122824633Y-55334096D01*
X122851386Y-55330127D01*
X122878400Y-55328800D01*
X123529600Y-55328800D01*
X123556614Y-55330127D01*
X123556614Y-55330127D01*
G37*
D12*
X123204000Y-55880000D03*
D11*
G36*
X125306614Y-55330127D02*
X125333367Y-55334096D01*
X125359602Y-55340667D01*
X125385068Y-55349779D01*
X125409517Y-55361342D01*
X125432715Y-55375247D01*
X125454439Y-55391358D01*
X125474479Y-55409521D01*
X125492642Y-55429561D01*
X125508753Y-55451285D01*
X125522658Y-55474483D01*
X125534221Y-55498932D01*
X125543333Y-55524398D01*
X125549904Y-55550633D01*
X125553873Y-55577386D01*
X125555200Y-55604400D01*
X125555200Y-56155600D01*
X125553873Y-56182614D01*
X125549904Y-56209367D01*
X125543333Y-56235602D01*
X125534221Y-56261068D01*
X125522658Y-56285517D01*
X125508753Y-56308715D01*
X125492642Y-56330439D01*
X125474479Y-56350479D01*
X125454439Y-56368642D01*
X125432715Y-56384753D01*
X125409517Y-56398658D01*
X125385068Y-56410221D01*
X125359602Y-56419333D01*
X125333367Y-56425904D01*
X125306614Y-56429873D01*
X125279600Y-56431200D01*
X124628400Y-56431200D01*
X124601386Y-56429873D01*
X124574633Y-56425904D01*
X124548398Y-56419333D01*
X124522932Y-56410221D01*
X124498483Y-56398658D01*
X124475285Y-56384753D01*
X124453561Y-56368642D01*
X124433521Y-56350479D01*
X124415358Y-56330439D01*
X124399247Y-56308715D01*
X124385342Y-56285517D01*
X124373779Y-56261068D01*
X124364667Y-56235602D01*
X124358096Y-56209367D01*
X124354127Y-56182614D01*
X124352800Y-56155600D01*
X124352800Y-55604400D01*
X124354127Y-55577386D01*
X124358096Y-55550633D01*
X124364667Y-55524398D01*
X124373779Y-55498932D01*
X124385342Y-55474483D01*
X124399247Y-55451285D01*
X124415358Y-55429561D01*
X124433521Y-55409521D01*
X124453561Y-55391358D01*
X124475285Y-55375247D01*
X124498483Y-55361342D01*
X124522932Y-55349779D01*
X124548398Y-55340667D01*
X124574633Y-55334096D01*
X124601386Y-55330127D01*
X124628400Y-55328800D01*
X125279600Y-55328800D01*
X125306614Y-55330127D01*
X125306614Y-55330127D01*
G37*
D12*
X124954000Y-55880000D03*
G04 #@! TD*
D11*
G04 #@! TO.C,R7*
G36*
X101331614Y-112861127D02*
X101358367Y-112865096D01*
X101384602Y-112871667D01*
X101410068Y-112880779D01*
X101434517Y-112892342D01*
X101457715Y-112906247D01*
X101479439Y-112922358D01*
X101499479Y-112940521D01*
X101517642Y-112960561D01*
X101533753Y-112982285D01*
X101547658Y-113005483D01*
X101559221Y-113029932D01*
X101568333Y-113055398D01*
X101574904Y-113081633D01*
X101578873Y-113108386D01*
X101580200Y-113135400D01*
X101580200Y-113686600D01*
X101578873Y-113713614D01*
X101574904Y-113740367D01*
X101568333Y-113766602D01*
X101559221Y-113792068D01*
X101547658Y-113816517D01*
X101533753Y-113839715D01*
X101517642Y-113861439D01*
X101499479Y-113881479D01*
X101479439Y-113899642D01*
X101457715Y-113915753D01*
X101434517Y-113929658D01*
X101410068Y-113941221D01*
X101384602Y-113950333D01*
X101358367Y-113956904D01*
X101331614Y-113960873D01*
X101304600Y-113962200D01*
X100653400Y-113962200D01*
X100626386Y-113960873D01*
X100599633Y-113956904D01*
X100573398Y-113950333D01*
X100547932Y-113941221D01*
X100523483Y-113929658D01*
X100500285Y-113915753D01*
X100478561Y-113899642D01*
X100458521Y-113881479D01*
X100440358Y-113861439D01*
X100424247Y-113839715D01*
X100410342Y-113816517D01*
X100398779Y-113792068D01*
X100389667Y-113766602D01*
X100383096Y-113740367D01*
X100379127Y-113713614D01*
X100377800Y-113686600D01*
X100377800Y-113135400D01*
X100379127Y-113108386D01*
X100383096Y-113081633D01*
X100389667Y-113055398D01*
X100398779Y-113029932D01*
X100410342Y-113005483D01*
X100424247Y-112982285D01*
X100440358Y-112960561D01*
X100458521Y-112940521D01*
X100478561Y-112922358D01*
X100500285Y-112906247D01*
X100523483Y-112892342D01*
X100547932Y-112880779D01*
X100573398Y-112871667D01*
X100599633Y-112865096D01*
X100626386Y-112861127D01*
X100653400Y-112859800D01*
X101304600Y-112859800D01*
X101331614Y-112861127D01*
X101331614Y-112861127D01*
G37*
D12*
X100979000Y-113411000D03*
D11*
G36*
X103081614Y-112861127D02*
X103108367Y-112865096D01*
X103134602Y-112871667D01*
X103160068Y-112880779D01*
X103184517Y-112892342D01*
X103207715Y-112906247D01*
X103229439Y-112922358D01*
X103249479Y-112940521D01*
X103267642Y-112960561D01*
X103283753Y-112982285D01*
X103297658Y-113005483D01*
X103309221Y-113029932D01*
X103318333Y-113055398D01*
X103324904Y-113081633D01*
X103328873Y-113108386D01*
X103330200Y-113135400D01*
X103330200Y-113686600D01*
X103328873Y-113713614D01*
X103324904Y-113740367D01*
X103318333Y-113766602D01*
X103309221Y-113792068D01*
X103297658Y-113816517D01*
X103283753Y-113839715D01*
X103267642Y-113861439D01*
X103249479Y-113881479D01*
X103229439Y-113899642D01*
X103207715Y-113915753D01*
X103184517Y-113929658D01*
X103160068Y-113941221D01*
X103134602Y-113950333D01*
X103108367Y-113956904D01*
X103081614Y-113960873D01*
X103054600Y-113962200D01*
X102403400Y-113962200D01*
X102376386Y-113960873D01*
X102349633Y-113956904D01*
X102323398Y-113950333D01*
X102297932Y-113941221D01*
X102273483Y-113929658D01*
X102250285Y-113915753D01*
X102228561Y-113899642D01*
X102208521Y-113881479D01*
X102190358Y-113861439D01*
X102174247Y-113839715D01*
X102160342Y-113816517D01*
X102148779Y-113792068D01*
X102139667Y-113766602D01*
X102133096Y-113740367D01*
X102129127Y-113713614D01*
X102127800Y-113686600D01*
X102127800Y-113135400D01*
X102129127Y-113108386D01*
X102133096Y-113081633D01*
X102139667Y-113055398D01*
X102148779Y-113029932D01*
X102160342Y-113005483D01*
X102174247Y-112982285D01*
X102190358Y-112960561D01*
X102208521Y-112940521D01*
X102228561Y-112922358D01*
X102250285Y-112906247D01*
X102273483Y-112892342D01*
X102297932Y-112880779D01*
X102323398Y-112871667D01*
X102349633Y-112865096D01*
X102376386Y-112861127D01*
X102403400Y-112859800D01*
X103054600Y-112859800D01*
X103081614Y-112861127D01*
X103081614Y-112861127D01*
G37*
D12*
X102729000Y-113411000D03*
G04 #@! TD*
D11*
G04 #@! TO.C,R8*
G36*
X92286614Y-54949127D02*
X92313367Y-54953096D01*
X92339602Y-54959667D01*
X92365068Y-54968779D01*
X92389517Y-54980342D01*
X92412715Y-54994247D01*
X92434439Y-55010358D01*
X92454479Y-55028521D01*
X92472642Y-55048561D01*
X92488753Y-55070285D01*
X92502658Y-55093483D01*
X92514221Y-55117932D01*
X92523333Y-55143398D01*
X92529904Y-55169633D01*
X92533873Y-55196386D01*
X92535200Y-55223400D01*
X92535200Y-55774600D01*
X92533873Y-55801614D01*
X92529904Y-55828367D01*
X92523333Y-55854602D01*
X92514221Y-55880068D01*
X92502658Y-55904517D01*
X92488753Y-55927715D01*
X92472642Y-55949439D01*
X92454479Y-55969479D01*
X92434439Y-55987642D01*
X92412715Y-56003753D01*
X92389517Y-56017658D01*
X92365068Y-56029221D01*
X92339602Y-56038333D01*
X92313367Y-56044904D01*
X92286614Y-56048873D01*
X92259600Y-56050200D01*
X91608400Y-56050200D01*
X91581386Y-56048873D01*
X91554633Y-56044904D01*
X91528398Y-56038333D01*
X91502932Y-56029221D01*
X91478483Y-56017658D01*
X91455285Y-56003753D01*
X91433561Y-55987642D01*
X91413521Y-55969479D01*
X91395358Y-55949439D01*
X91379247Y-55927715D01*
X91365342Y-55904517D01*
X91353779Y-55880068D01*
X91344667Y-55854602D01*
X91338096Y-55828367D01*
X91334127Y-55801614D01*
X91332800Y-55774600D01*
X91332800Y-55223400D01*
X91334127Y-55196386D01*
X91338096Y-55169633D01*
X91344667Y-55143398D01*
X91353779Y-55117932D01*
X91365342Y-55093483D01*
X91379247Y-55070285D01*
X91395358Y-55048561D01*
X91413521Y-55028521D01*
X91433561Y-55010358D01*
X91455285Y-54994247D01*
X91478483Y-54980342D01*
X91502932Y-54968779D01*
X91528398Y-54959667D01*
X91554633Y-54953096D01*
X91581386Y-54949127D01*
X91608400Y-54947800D01*
X92259600Y-54947800D01*
X92286614Y-54949127D01*
X92286614Y-54949127D01*
G37*
D12*
X91934000Y-55499000D03*
D11*
G36*
X90536614Y-54949127D02*
X90563367Y-54953096D01*
X90589602Y-54959667D01*
X90615068Y-54968779D01*
X90639517Y-54980342D01*
X90662715Y-54994247D01*
X90684439Y-55010358D01*
X90704479Y-55028521D01*
X90722642Y-55048561D01*
X90738753Y-55070285D01*
X90752658Y-55093483D01*
X90764221Y-55117932D01*
X90773333Y-55143398D01*
X90779904Y-55169633D01*
X90783873Y-55196386D01*
X90785200Y-55223400D01*
X90785200Y-55774600D01*
X90783873Y-55801614D01*
X90779904Y-55828367D01*
X90773333Y-55854602D01*
X90764221Y-55880068D01*
X90752658Y-55904517D01*
X90738753Y-55927715D01*
X90722642Y-55949439D01*
X90704479Y-55969479D01*
X90684439Y-55987642D01*
X90662715Y-56003753D01*
X90639517Y-56017658D01*
X90615068Y-56029221D01*
X90589602Y-56038333D01*
X90563367Y-56044904D01*
X90536614Y-56048873D01*
X90509600Y-56050200D01*
X89858400Y-56050200D01*
X89831386Y-56048873D01*
X89804633Y-56044904D01*
X89778398Y-56038333D01*
X89752932Y-56029221D01*
X89728483Y-56017658D01*
X89705285Y-56003753D01*
X89683561Y-55987642D01*
X89663521Y-55969479D01*
X89645358Y-55949439D01*
X89629247Y-55927715D01*
X89615342Y-55904517D01*
X89603779Y-55880068D01*
X89594667Y-55854602D01*
X89588096Y-55828367D01*
X89584127Y-55801614D01*
X89582800Y-55774600D01*
X89582800Y-55223400D01*
X89584127Y-55196386D01*
X89588096Y-55169633D01*
X89594667Y-55143398D01*
X89603779Y-55117932D01*
X89615342Y-55093483D01*
X89629247Y-55070285D01*
X89645358Y-55048561D01*
X89663521Y-55028521D01*
X89683561Y-55010358D01*
X89705285Y-54994247D01*
X89728483Y-54980342D01*
X89752932Y-54968779D01*
X89778398Y-54959667D01*
X89804633Y-54953096D01*
X89831386Y-54949127D01*
X89858400Y-54947800D01*
X90509600Y-54947800D01*
X90536614Y-54949127D01*
X90536614Y-54949127D01*
G37*
D12*
X90184000Y-55499000D03*
G04 #@! TD*
D11*
G04 #@! TO.C,R10*
G36*
X76072614Y-58632127D02*
X76099367Y-58636096D01*
X76125602Y-58642667D01*
X76151068Y-58651779D01*
X76175517Y-58663342D01*
X76198715Y-58677247D01*
X76220439Y-58693358D01*
X76240479Y-58711521D01*
X76258642Y-58731561D01*
X76274753Y-58753285D01*
X76288658Y-58776483D01*
X76300221Y-58800932D01*
X76309333Y-58826398D01*
X76315904Y-58852633D01*
X76319873Y-58879386D01*
X76321200Y-58906400D01*
X76321200Y-59457600D01*
X76319873Y-59484614D01*
X76315904Y-59511367D01*
X76309333Y-59537602D01*
X76300221Y-59563068D01*
X76288658Y-59587517D01*
X76274753Y-59610715D01*
X76258642Y-59632439D01*
X76240479Y-59652479D01*
X76220439Y-59670642D01*
X76198715Y-59686753D01*
X76175517Y-59700658D01*
X76151068Y-59712221D01*
X76125602Y-59721333D01*
X76099367Y-59727904D01*
X76072614Y-59731873D01*
X76045600Y-59733200D01*
X75394400Y-59733200D01*
X75367386Y-59731873D01*
X75340633Y-59727904D01*
X75314398Y-59721333D01*
X75288932Y-59712221D01*
X75264483Y-59700658D01*
X75241285Y-59686753D01*
X75219561Y-59670642D01*
X75199521Y-59652479D01*
X75181358Y-59632439D01*
X75165247Y-59610715D01*
X75151342Y-59587517D01*
X75139779Y-59563068D01*
X75130667Y-59537602D01*
X75124096Y-59511367D01*
X75120127Y-59484614D01*
X75118800Y-59457600D01*
X75118800Y-58906400D01*
X75120127Y-58879386D01*
X75124096Y-58852633D01*
X75130667Y-58826398D01*
X75139779Y-58800932D01*
X75151342Y-58776483D01*
X75165247Y-58753285D01*
X75181358Y-58731561D01*
X75199521Y-58711521D01*
X75219561Y-58693358D01*
X75241285Y-58677247D01*
X75264483Y-58663342D01*
X75288932Y-58651779D01*
X75314398Y-58642667D01*
X75340633Y-58636096D01*
X75367386Y-58632127D01*
X75394400Y-58630800D01*
X76045600Y-58630800D01*
X76072614Y-58632127D01*
X76072614Y-58632127D01*
G37*
D12*
X75720000Y-59182000D03*
D11*
G36*
X77822614Y-58632127D02*
X77849367Y-58636096D01*
X77875602Y-58642667D01*
X77901068Y-58651779D01*
X77925517Y-58663342D01*
X77948715Y-58677247D01*
X77970439Y-58693358D01*
X77990479Y-58711521D01*
X78008642Y-58731561D01*
X78024753Y-58753285D01*
X78038658Y-58776483D01*
X78050221Y-58800932D01*
X78059333Y-58826398D01*
X78065904Y-58852633D01*
X78069873Y-58879386D01*
X78071200Y-58906400D01*
X78071200Y-59457600D01*
X78069873Y-59484614D01*
X78065904Y-59511367D01*
X78059333Y-59537602D01*
X78050221Y-59563068D01*
X78038658Y-59587517D01*
X78024753Y-59610715D01*
X78008642Y-59632439D01*
X77990479Y-59652479D01*
X77970439Y-59670642D01*
X77948715Y-59686753D01*
X77925517Y-59700658D01*
X77901068Y-59712221D01*
X77875602Y-59721333D01*
X77849367Y-59727904D01*
X77822614Y-59731873D01*
X77795600Y-59733200D01*
X77144400Y-59733200D01*
X77117386Y-59731873D01*
X77090633Y-59727904D01*
X77064398Y-59721333D01*
X77038932Y-59712221D01*
X77014483Y-59700658D01*
X76991285Y-59686753D01*
X76969561Y-59670642D01*
X76949521Y-59652479D01*
X76931358Y-59632439D01*
X76915247Y-59610715D01*
X76901342Y-59587517D01*
X76889779Y-59563068D01*
X76880667Y-59537602D01*
X76874096Y-59511367D01*
X76870127Y-59484614D01*
X76868800Y-59457600D01*
X76868800Y-58906400D01*
X76870127Y-58879386D01*
X76874096Y-58852633D01*
X76880667Y-58826398D01*
X76889779Y-58800932D01*
X76901342Y-58776483D01*
X76915247Y-58753285D01*
X76931358Y-58731561D01*
X76949521Y-58711521D01*
X76969561Y-58693358D01*
X76991285Y-58677247D01*
X77014483Y-58663342D01*
X77038932Y-58651779D01*
X77064398Y-58642667D01*
X77090633Y-58636096D01*
X77117386Y-58632127D01*
X77144400Y-58630800D01*
X77795600Y-58630800D01*
X77822614Y-58632127D01*
X77822614Y-58632127D01*
G37*
D12*
X77470000Y-59182000D03*
G04 #@! TD*
D22*
G04 #@! TO.C,U1*
X53061000Y-99963000D03*
X53061000Y-95363000D03*
X53061000Y-97663000D03*
D23*
X46761000Y-97663000D03*
G04 #@! TD*
D24*
G04 #@! TO.C,U2*
X90932000Y-60579000D03*
D25*
X94182000Y-58829000D03*
X94182000Y-59329000D03*
X94182000Y-60829000D03*
X94182000Y-61329000D03*
X94182000Y-61829000D03*
D26*
X92682000Y-63329000D03*
X92182000Y-63329000D03*
X91682000Y-63329000D03*
X91182000Y-63329000D03*
X89682000Y-63329000D03*
X89182000Y-63329000D03*
X88682000Y-63329000D03*
D25*
X87682000Y-62329000D03*
X87682000Y-61829000D03*
X87682000Y-61329000D03*
X87682000Y-60829000D03*
X87682000Y-60329000D03*
X87682000Y-59829000D03*
X87682000Y-59329000D03*
X87682000Y-58829000D03*
D26*
X88682000Y-57829000D03*
X89182000Y-57829000D03*
X89682000Y-57829000D03*
X90182000Y-57829000D03*
X90682000Y-57829000D03*
X92182000Y-57829000D03*
D27*
X90932000Y-60579000D03*
G04 #@! TD*
D24*
G04 #@! TO.C,U3*
X99822000Y-121666000D03*
D26*
X101572000Y-124916000D03*
X101072000Y-124916000D03*
X99572000Y-124916000D03*
X99072000Y-124916000D03*
X98572000Y-124916000D03*
D25*
X97072000Y-123416000D03*
X97072000Y-122916000D03*
X97072000Y-122416000D03*
X97072000Y-121916000D03*
X97072000Y-120416000D03*
X97072000Y-119916000D03*
X97072000Y-119416000D03*
D26*
X98072000Y-118416000D03*
X98572000Y-118416000D03*
X99072000Y-118416000D03*
X99572000Y-118416000D03*
X100072000Y-118416000D03*
X100572000Y-118416000D03*
X101072000Y-118416000D03*
X101572000Y-118416000D03*
D25*
X102572000Y-119416000D03*
X102572000Y-119916000D03*
X102572000Y-120416000D03*
X102572000Y-120916000D03*
X102572000Y-121416000D03*
X102572000Y-122916000D03*
D28*
X99822000Y-121666000D03*
G04 #@! TD*
D19*
G04 #@! TO.C,J10*
X106045000Y-63793000D03*
D20*
X106045000Y-58293000D03*
G04 #@! TD*
D11*
G04 #@! TO.C,R12*
G36*
X121383614Y-41550627D02*
X121410367Y-41554596D01*
X121436602Y-41561167D01*
X121462068Y-41570279D01*
X121486517Y-41581842D01*
X121509715Y-41595747D01*
X121531439Y-41611858D01*
X121551479Y-41630021D01*
X121569642Y-41650061D01*
X121585753Y-41671785D01*
X121599658Y-41694983D01*
X121611221Y-41719432D01*
X121620333Y-41744898D01*
X121626904Y-41771133D01*
X121630873Y-41797886D01*
X121632200Y-41824900D01*
X121632200Y-42376100D01*
X121630873Y-42403114D01*
X121626904Y-42429867D01*
X121620333Y-42456102D01*
X121611221Y-42481568D01*
X121599658Y-42506017D01*
X121585753Y-42529215D01*
X121569642Y-42550939D01*
X121551479Y-42570979D01*
X121531439Y-42589142D01*
X121509715Y-42605253D01*
X121486517Y-42619158D01*
X121462068Y-42630721D01*
X121436602Y-42639833D01*
X121410367Y-42646404D01*
X121383614Y-42650373D01*
X121356600Y-42651700D01*
X120705400Y-42651700D01*
X120678386Y-42650373D01*
X120651633Y-42646404D01*
X120625398Y-42639833D01*
X120599932Y-42630721D01*
X120575483Y-42619158D01*
X120552285Y-42605253D01*
X120530561Y-42589142D01*
X120510521Y-42570979D01*
X120492358Y-42550939D01*
X120476247Y-42529215D01*
X120462342Y-42506017D01*
X120450779Y-42481568D01*
X120441667Y-42456102D01*
X120435096Y-42429867D01*
X120431127Y-42403114D01*
X120429800Y-42376100D01*
X120429800Y-41824900D01*
X120431127Y-41797886D01*
X120435096Y-41771133D01*
X120441667Y-41744898D01*
X120450779Y-41719432D01*
X120462342Y-41694983D01*
X120476247Y-41671785D01*
X120492358Y-41650061D01*
X120510521Y-41630021D01*
X120530561Y-41611858D01*
X120552285Y-41595747D01*
X120575483Y-41581842D01*
X120599932Y-41570279D01*
X120625398Y-41561167D01*
X120651633Y-41554596D01*
X120678386Y-41550627D01*
X120705400Y-41549300D01*
X121356600Y-41549300D01*
X121383614Y-41550627D01*
X121383614Y-41550627D01*
G37*
D12*
X121031000Y-42100500D03*
D11*
G36*
X119633614Y-41550627D02*
X119660367Y-41554596D01*
X119686602Y-41561167D01*
X119712068Y-41570279D01*
X119736517Y-41581842D01*
X119759715Y-41595747D01*
X119781439Y-41611858D01*
X119801479Y-41630021D01*
X119819642Y-41650061D01*
X119835753Y-41671785D01*
X119849658Y-41694983D01*
X119861221Y-41719432D01*
X119870333Y-41744898D01*
X119876904Y-41771133D01*
X119880873Y-41797886D01*
X119882200Y-41824900D01*
X119882200Y-42376100D01*
X119880873Y-42403114D01*
X119876904Y-42429867D01*
X119870333Y-42456102D01*
X119861221Y-42481568D01*
X119849658Y-42506017D01*
X119835753Y-42529215D01*
X119819642Y-42550939D01*
X119801479Y-42570979D01*
X119781439Y-42589142D01*
X119759715Y-42605253D01*
X119736517Y-42619158D01*
X119712068Y-42630721D01*
X119686602Y-42639833D01*
X119660367Y-42646404D01*
X119633614Y-42650373D01*
X119606600Y-42651700D01*
X118955400Y-42651700D01*
X118928386Y-42650373D01*
X118901633Y-42646404D01*
X118875398Y-42639833D01*
X118849932Y-42630721D01*
X118825483Y-42619158D01*
X118802285Y-42605253D01*
X118780561Y-42589142D01*
X118760521Y-42570979D01*
X118742358Y-42550939D01*
X118726247Y-42529215D01*
X118712342Y-42506017D01*
X118700779Y-42481568D01*
X118691667Y-42456102D01*
X118685096Y-42429867D01*
X118681127Y-42403114D01*
X118679800Y-42376100D01*
X118679800Y-41824900D01*
X118681127Y-41797886D01*
X118685096Y-41771133D01*
X118691667Y-41744898D01*
X118700779Y-41719432D01*
X118712342Y-41694983D01*
X118726247Y-41671785D01*
X118742358Y-41650061D01*
X118760521Y-41630021D01*
X118780561Y-41611858D01*
X118802285Y-41595747D01*
X118825483Y-41581842D01*
X118849932Y-41570279D01*
X118875398Y-41561167D01*
X118901633Y-41554596D01*
X118928386Y-41550627D01*
X118955400Y-41549300D01*
X119606600Y-41549300D01*
X119633614Y-41550627D01*
X119633614Y-41550627D01*
G37*
D12*
X119281000Y-42100500D03*
G04 #@! TD*
D11*
G04 #@! TO.C,R13*
G36*
X121383614Y-35835627D02*
X121410367Y-35839596D01*
X121436602Y-35846167D01*
X121462068Y-35855279D01*
X121486517Y-35866842D01*
X121509715Y-35880747D01*
X121531439Y-35896858D01*
X121551479Y-35915021D01*
X121569642Y-35935061D01*
X121585753Y-35956785D01*
X121599658Y-35979983D01*
X121611221Y-36004432D01*
X121620333Y-36029898D01*
X121626904Y-36056133D01*
X121630873Y-36082886D01*
X121632200Y-36109900D01*
X121632200Y-36661100D01*
X121630873Y-36688114D01*
X121626904Y-36714867D01*
X121620333Y-36741102D01*
X121611221Y-36766568D01*
X121599658Y-36791017D01*
X121585753Y-36814215D01*
X121569642Y-36835939D01*
X121551479Y-36855979D01*
X121531439Y-36874142D01*
X121509715Y-36890253D01*
X121486517Y-36904158D01*
X121462068Y-36915721D01*
X121436602Y-36924833D01*
X121410367Y-36931404D01*
X121383614Y-36935373D01*
X121356600Y-36936700D01*
X120705400Y-36936700D01*
X120678386Y-36935373D01*
X120651633Y-36931404D01*
X120625398Y-36924833D01*
X120599932Y-36915721D01*
X120575483Y-36904158D01*
X120552285Y-36890253D01*
X120530561Y-36874142D01*
X120510521Y-36855979D01*
X120492358Y-36835939D01*
X120476247Y-36814215D01*
X120462342Y-36791017D01*
X120450779Y-36766568D01*
X120441667Y-36741102D01*
X120435096Y-36714867D01*
X120431127Y-36688114D01*
X120429800Y-36661100D01*
X120429800Y-36109900D01*
X120431127Y-36082886D01*
X120435096Y-36056133D01*
X120441667Y-36029898D01*
X120450779Y-36004432D01*
X120462342Y-35979983D01*
X120476247Y-35956785D01*
X120492358Y-35935061D01*
X120510521Y-35915021D01*
X120530561Y-35896858D01*
X120552285Y-35880747D01*
X120575483Y-35866842D01*
X120599932Y-35855279D01*
X120625398Y-35846167D01*
X120651633Y-35839596D01*
X120678386Y-35835627D01*
X120705400Y-35834300D01*
X121356600Y-35834300D01*
X121383614Y-35835627D01*
X121383614Y-35835627D01*
G37*
D12*
X121031000Y-36385500D03*
D11*
G36*
X119633614Y-35835627D02*
X119660367Y-35839596D01*
X119686602Y-35846167D01*
X119712068Y-35855279D01*
X119736517Y-35866842D01*
X119759715Y-35880747D01*
X119781439Y-35896858D01*
X119801479Y-35915021D01*
X119819642Y-35935061D01*
X119835753Y-35956785D01*
X119849658Y-35979983D01*
X119861221Y-36004432D01*
X119870333Y-36029898D01*
X119876904Y-36056133D01*
X119880873Y-36082886D01*
X119882200Y-36109900D01*
X119882200Y-36661100D01*
X119880873Y-36688114D01*
X119876904Y-36714867D01*
X119870333Y-36741102D01*
X119861221Y-36766568D01*
X119849658Y-36791017D01*
X119835753Y-36814215D01*
X119819642Y-36835939D01*
X119801479Y-36855979D01*
X119781439Y-36874142D01*
X119759715Y-36890253D01*
X119736517Y-36904158D01*
X119712068Y-36915721D01*
X119686602Y-36924833D01*
X119660367Y-36931404D01*
X119633614Y-36935373D01*
X119606600Y-36936700D01*
X118955400Y-36936700D01*
X118928386Y-36935373D01*
X118901633Y-36931404D01*
X118875398Y-36924833D01*
X118849932Y-36915721D01*
X118825483Y-36904158D01*
X118802285Y-36890253D01*
X118780561Y-36874142D01*
X118760521Y-36855979D01*
X118742358Y-36835939D01*
X118726247Y-36814215D01*
X118712342Y-36791017D01*
X118700779Y-36766568D01*
X118691667Y-36741102D01*
X118685096Y-36714867D01*
X118681127Y-36688114D01*
X118679800Y-36661100D01*
X118679800Y-36109900D01*
X118681127Y-36082886D01*
X118685096Y-36056133D01*
X118691667Y-36029898D01*
X118700779Y-36004432D01*
X118712342Y-35979983D01*
X118726247Y-35956785D01*
X118742358Y-35935061D01*
X118760521Y-35915021D01*
X118780561Y-35896858D01*
X118802285Y-35880747D01*
X118825483Y-35866842D01*
X118849932Y-35855279D01*
X118875398Y-35846167D01*
X118901633Y-35839596D01*
X118928386Y-35835627D01*
X118955400Y-35834300D01*
X119606600Y-35834300D01*
X119633614Y-35835627D01*
X119633614Y-35835627D01*
G37*
D12*
X119281000Y-36385500D03*
G04 #@! TD*
D29*
G04 #@! TO.C,TB1*
X162077400Y-96494600D03*
X162077400Y-107213400D03*
X39852600Y-96494600D03*
X39852600Y-107213400D03*
G04 #@! TD*
D11*
G04 #@! TO.C,C15*
G36*
X64801088Y-73022133D02*
X64827952Y-73026117D01*
X64854296Y-73032716D01*
X64879866Y-73041865D01*
X64904416Y-73053477D01*
X64927710Y-73067439D01*
X64949523Y-73083616D01*
X64969646Y-73101854D01*
X64987884Y-73121977D01*
X65004061Y-73143790D01*
X65018023Y-73167084D01*
X65029635Y-73191634D01*
X65038784Y-73217204D01*
X65045383Y-73243548D01*
X65049367Y-73270412D01*
X65050700Y-73297537D01*
X65050700Y-75546463D01*
X65049367Y-75573588D01*
X65045383Y-75600452D01*
X65038784Y-75626796D01*
X65029635Y-75652366D01*
X65018023Y-75676916D01*
X65004061Y-75700210D01*
X64987884Y-75722023D01*
X64969646Y-75742146D01*
X64949523Y-75760384D01*
X64927710Y-75776561D01*
X64904416Y-75790523D01*
X64879866Y-75802135D01*
X64854296Y-75811284D01*
X64827952Y-75817883D01*
X64801088Y-75821867D01*
X64773963Y-75823200D01*
X63750037Y-75823200D01*
X63722912Y-75821867D01*
X63696048Y-75817883D01*
X63669704Y-75811284D01*
X63644134Y-75802135D01*
X63619584Y-75790523D01*
X63596290Y-75776561D01*
X63574477Y-75760384D01*
X63554354Y-75742146D01*
X63536116Y-75722023D01*
X63519939Y-75700210D01*
X63505977Y-75676916D01*
X63494365Y-75652366D01*
X63485216Y-75626796D01*
X63478617Y-75600452D01*
X63474633Y-75573588D01*
X63473300Y-75546463D01*
X63473300Y-73297537D01*
X63474633Y-73270412D01*
X63478617Y-73243548D01*
X63485216Y-73217204D01*
X63494365Y-73191634D01*
X63505977Y-73167084D01*
X63519939Y-73143790D01*
X63536116Y-73121977D01*
X63554354Y-73101854D01*
X63574477Y-73083616D01*
X63596290Y-73067439D01*
X63619584Y-73053477D01*
X63644134Y-73041865D01*
X63669704Y-73032716D01*
X63696048Y-73026117D01*
X63722912Y-73022133D01*
X63750037Y-73020800D01*
X64773963Y-73020800D01*
X64801088Y-73022133D01*
X64801088Y-73022133D01*
G37*
D30*
X64262000Y-74422000D03*
D11*
G36*
X67776088Y-73022133D02*
X67802952Y-73026117D01*
X67829296Y-73032716D01*
X67854866Y-73041865D01*
X67879416Y-73053477D01*
X67902710Y-73067439D01*
X67924523Y-73083616D01*
X67944646Y-73101854D01*
X67962884Y-73121977D01*
X67979061Y-73143790D01*
X67993023Y-73167084D01*
X68004635Y-73191634D01*
X68013784Y-73217204D01*
X68020383Y-73243548D01*
X68024367Y-73270412D01*
X68025700Y-73297537D01*
X68025700Y-75546463D01*
X68024367Y-75573588D01*
X68020383Y-75600452D01*
X68013784Y-75626796D01*
X68004635Y-75652366D01*
X67993023Y-75676916D01*
X67979061Y-75700210D01*
X67962884Y-75722023D01*
X67944646Y-75742146D01*
X67924523Y-75760384D01*
X67902710Y-75776561D01*
X67879416Y-75790523D01*
X67854866Y-75802135D01*
X67829296Y-75811284D01*
X67802952Y-75817883D01*
X67776088Y-75821867D01*
X67748963Y-75823200D01*
X66725037Y-75823200D01*
X66697912Y-75821867D01*
X66671048Y-75817883D01*
X66644704Y-75811284D01*
X66619134Y-75802135D01*
X66594584Y-75790523D01*
X66571290Y-75776561D01*
X66549477Y-75760384D01*
X66529354Y-75742146D01*
X66511116Y-75722023D01*
X66494939Y-75700210D01*
X66480977Y-75676916D01*
X66469365Y-75652366D01*
X66460216Y-75626796D01*
X66453617Y-75600452D01*
X66449633Y-75573588D01*
X66448300Y-75546463D01*
X66448300Y-73297537D01*
X66449633Y-73270412D01*
X66453617Y-73243548D01*
X66460216Y-73217204D01*
X66469365Y-73191634D01*
X66480977Y-73167084D01*
X66494939Y-73143790D01*
X66511116Y-73121977D01*
X66529354Y-73101854D01*
X66549477Y-73083616D01*
X66571290Y-73067439D01*
X66594584Y-73053477D01*
X66619134Y-73041865D01*
X66644704Y-73032716D01*
X66671048Y-73026117D01*
X66697912Y-73022133D01*
X66725037Y-73020800D01*
X67748963Y-73020800D01*
X67776088Y-73022133D01*
X67776088Y-73022133D01*
G37*
D30*
X67237000Y-74422000D03*
G04 #@! TD*
D11*
G04 #@! TO.C,C17*
G36*
X64837588Y-68450133D02*
X64864452Y-68454117D01*
X64890796Y-68460716D01*
X64916366Y-68469865D01*
X64940916Y-68481477D01*
X64964210Y-68495439D01*
X64986023Y-68511616D01*
X65006146Y-68529854D01*
X65024384Y-68549977D01*
X65040561Y-68571790D01*
X65054523Y-68595084D01*
X65066135Y-68619634D01*
X65075284Y-68645204D01*
X65081883Y-68671548D01*
X65085867Y-68698412D01*
X65087200Y-68725537D01*
X65087200Y-70974463D01*
X65085867Y-71001588D01*
X65081883Y-71028452D01*
X65075284Y-71054796D01*
X65066135Y-71080366D01*
X65054523Y-71104916D01*
X65040561Y-71128210D01*
X65024384Y-71150023D01*
X65006146Y-71170146D01*
X64986023Y-71188384D01*
X64964210Y-71204561D01*
X64940916Y-71218523D01*
X64916366Y-71230135D01*
X64890796Y-71239284D01*
X64864452Y-71245883D01*
X64837588Y-71249867D01*
X64810463Y-71251200D01*
X63786537Y-71251200D01*
X63759412Y-71249867D01*
X63732548Y-71245883D01*
X63706204Y-71239284D01*
X63680634Y-71230135D01*
X63656084Y-71218523D01*
X63632790Y-71204561D01*
X63610977Y-71188384D01*
X63590854Y-71170146D01*
X63572616Y-71150023D01*
X63556439Y-71128210D01*
X63542477Y-71104916D01*
X63530865Y-71080366D01*
X63521716Y-71054796D01*
X63515117Y-71028452D01*
X63511133Y-71001588D01*
X63509800Y-70974463D01*
X63509800Y-68725537D01*
X63511133Y-68698412D01*
X63515117Y-68671548D01*
X63521716Y-68645204D01*
X63530865Y-68619634D01*
X63542477Y-68595084D01*
X63556439Y-68571790D01*
X63572616Y-68549977D01*
X63590854Y-68529854D01*
X63610977Y-68511616D01*
X63632790Y-68495439D01*
X63656084Y-68481477D01*
X63680634Y-68469865D01*
X63706204Y-68460716D01*
X63732548Y-68454117D01*
X63759412Y-68450133D01*
X63786537Y-68448800D01*
X64810463Y-68448800D01*
X64837588Y-68450133D01*
X64837588Y-68450133D01*
G37*
D30*
X64298500Y-69850000D03*
D11*
G36*
X67812588Y-68450133D02*
X67839452Y-68454117D01*
X67865796Y-68460716D01*
X67891366Y-68469865D01*
X67915916Y-68481477D01*
X67939210Y-68495439D01*
X67961023Y-68511616D01*
X67981146Y-68529854D01*
X67999384Y-68549977D01*
X68015561Y-68571790D01*
X68029523Y-68595084D01*
X68041135Y-68619634D01*
X68050284Y-68645204D01*
X68056883Y-68671548D01*
X68060867Y-68698412D01*
X68062200Y-68725537D01*
X68062200Y-70974463D01*
X68060867Y-71001588D01*
X68056883Y-71028452D01*
X68050284Y-71054796D01*
X68041135Y-71080366D01*
X68029523Y-71104916D01*
X68015561Y-71128210D01*
X67999384Y-71150023D01*
X67981146Y-71170146D01*
X67961023Y-71188384D01*
X67939210Y-71204561D01*
X67915916Y-71218523D01*
X67891366Y-71230135D01*
X67865796Y-71239284D01*
X67839452Y-71245883D01*
X67812588Y-71249867D01*
X67785463Y-71251200D01*
X66761537Y-71251200D01*
X66734412Y-71249867D01*
X66707548Y-71245883D01*
X66681204Y-71239284D01*
X66655634Y-71230135D01*
X66631084Y-71218523D01*
X66607790Y-71204561D01*
X66585977Y-71188384D01*
X66565854Y-71170146D01*
X66547616Y-71150023D01*
X66531439Y-71128210D01*
X66517477Y-71104916D01*
X66505865Y-71080366D01*
X66496716Y-71054796D01*
X66490117Y-71028452D01*
X66486133Y-71001588D01*
X66484800Y-70974463D01*
X66484800Y-68725537D01*
X66486133Y-68698412D01*
X66490117Y-68671548D01*
X66496716Y-68645204D01*
X66505865Y-68619634D01*
X66517477Y-68595084D01*
X66531439Y-68571790D01*
X66547616Y-68549977D01*
X66565854Y-68529854D01*
X66585977Y-68511616D01*
X66607790Y-68495439D01*
X66631084Y-68481477D01*
X66655634Y-68469865D01*
X66681204Y-68460716D01*
X66707548Y-68454117D01*
X66734412Y-68450133D01*
X66761537Y-68448800D01*
X67785463Y-68448800D01*
X67812588Y-68450133D01*
X67812588Y-68450133D01*
G37*
D30*
X67273500Y-69850000D03*
G04 #@! TD*
D11*
G04 #@! TO.C,C12*
G36*
X64801088Y-77594133D02*
X64827952Y-77598117D01*
X64854296Y-77604716D01*
X64879866Y-77613865D01*
X64904416Y-77625477D01*
X64927710Y-77639439D01*
X64949523Y-77655616D01*
X64969646Y-77673854D01*
X64987884Y-77693977D01*
X65004061Y-77715790D01*
X65018023Y-77739084D01*
X65029635Y-77763634D01*
X65038784Y-77789204D01*
X65045383Y-77815548D01*
X65049367Y-77842412D01*
X65050700Y-77869537D01*
X65050700Y-80118463D01*
X65049367Y-80145588D01*
X65045383Y-80172452D01*
X65038784Y-80198796D01*
X65029635Y-80224366D01*
X65018023Y-80248916D01*
X65004061Y-80272210D01*
X64987884Y-80294023D01*
X64969646Y-80314146D01*
X64949523Y-80332384D01*
X64927710Y-80348561D01*
X64904416Y-80362523D01*
X64879866Y-80374135D01*
X64854296Y-80383284D01*
X64827952Y-80389883D01*
X64801088Y-80393867D01*
X64773963Y-80395200D01*
X63750037Y-80395200D01*
X63722912Y-80393867D01*
X63696048Y-80389883D01*
X63669704Y-80383284D01*
X63644134Y-80374135D01*
X63619584Y-80362523D01*
X63596290Y-80348561D01*
X63574477Y-80332384D01*
X63554354Y-80314146D01*
X63536116Y-80294023D01*
X63519939Y-80272210D01*
X63505977Y-80248916D01*
X63494365Y-80224366D01*
X63485216Y-80198796D01*
X63478617Y-80172452D01*
X63474633Y-80145588D01*
X63473300Y-80118463D01*
X63473300Y-77869537D01*
X63474633Y-77842412D01*
X63478617Y-77815548D01*
X63485216Y-77789204D01*
X63494365Y-77763634D01*
X63505977Y-77739084D01*
X63519939Y-77715790D01*
X63536116Y-77693977D01*
X63554354Y-77673854D01*
X63574477Y-77655616D01*
X63596290Y-77639439D01*
X63619584Y-77625477D01*
X63644134Y-77613865D01*
X63669704Y-77604716D01*
X63696048Y-77598117D01*
X63722912Y-77594133D01*
X63750037Y-77592800D01*
X64773963Y-77592800D01*
X64801088Y-77594133D01*
X64801088Y-77594133D01*
G37*
D30*
X64262000Y-78994000D03*
D11*
G36*
X67776088Y-77594133D02*
X67802952Y-77598117D01*
X67829296Y-77604716D01*
X67854866Y-77613865D01*
X67879416Y-77625477D01*
X67902710Y-77639439D01*
X67924523Y-77655616D01*
X67944646Y-77673854D01*
X67962884Y-77693977D01*
X67979061Y-77715790D01*
X67993023Y-77739084D01*
X68004635Y-77763634D01*
X68013784Y-77789204D01*
X68020383Y-77815548D01*
X68024367Y-77842412D01*
X68025700Y-77869537D01*
X68025700Y-80118463D01*
X68024367Y-80145588D01*
X68020383Y-80172452D01*
X68013784Y-80198796D01*
X68004635Y-80224366D01*
X67993023Y-80248916D01*
X67979061Y-80272210D01*
X67962884Y-80294023D01*
X67944646Y-80314146D01*
X67924523Y-80332384D01*
X67902710Y-80348561D01*
X67879416Y-80362523D01*
X67854866Y-80374135D01*
X67829296Y-80383284D01*
X67802952Y-80389883D01*
X67776088Y-80393867D01*
X67748963Y-80395200D01*
X66725037Y-80395200D01*
X66697912Y-80393867D01*
X66671048Y-80389883D01*
X66644704Y-80383284D01*
X66619134Y-80374135D01*
X66594584Y-80362523D01*
X66571290Y-80348561D01*
X66549477Y-80332384D01*
X66529354Y-80314146D01*
X66511116Y-80294023D01*
X66494939Y-80272210D01*
X66480977Y-80248916D01*
X66469365Y-80224366D01*
X66460216Y-80198796D01*
X66453617Y-80172452D01*
X66449633Y-80145588D01*
X66448300Y-80118463D01*
X66448300Y-77869537D01*
X66449633Y-77842412D01*
X66453617Y-77815548D01*
X66460216Y-77789204D01*
X66469365Y-77763634D01*
X66480977Y-77739084D01*
X66494939Y-77715790D01*
X66511116Y-77693977D01*
X66529354Y-77673854D01*
X66549477Y-77655616D01*
X66571290Y-77639439D01*
X66594584Y-77625477D01*
X66619134Y-77613865D01*
X66644704Y-77604716D01*
X66671048Y-77598117D01*
X66697912Y-77594133D01*
X66725037Y-77592800D01*
X67748963Y-77592800D01*
X67776088Y-77594133D01*
X67776088Y-77594133D01*
G37*
D30*
X67237000Y-78994000D03*
G04 #@! TD*
D11*
G04 #@! TO.C,C4*
G36*
X99127588Y-68450133D02*
X99154452Y-68454117D01*
X99180796Y-68460716D01*
X99206366Y-68469865D01*
X99230916Y-68481477D01*
X99254210Y-68495439D01*
X99276023Y-68511616D01*
X99296146Y-68529854D01*
X99314384Y-68549977D01*
X99330561Y-68571790D01*
X99344523Y-68595084D01*
X99356135Y-68619634D01*
X99365284Y-68645204D01*
X99371883Y-68671548D01*
X99375867Y-68698412D01*
X99377200Y-68725537D01*
X99377200Y-70974463D01*
X99375867Y-71001588D01*
X99371883Y-71028452D01*
X99365284Y-71054796D01*
X99356135Y-71080366D01*
X99344523Y-71104916D01*
X99330561Y-71128210D01*
X99314384Y-71150023D01*
X99296146Y-71170146D01*
X99276023Y-71188384D01*
X99254210Y-71204561D01*
X99230916Y-71218523D01*
X99206366Y-71230135D01*
X99180796Y-71239284D01*
X99154452Y-71245883D01*
X99127588Y-71249867D01*
X99100463Y-71251200D01*
X98076537Y-71251200D01*
X98049412Y-71249867D01*
X98022548Y-71245883D01*
X97996204Y-71239284D01*
X97970634Y-71230135D01*
X97946084Y-71218523D01*
X97922790Y-71204561D01*
X97900977Y-71188384D01*
X97880854Y-71170146D01*
X97862616Y-71150023D01*
X97846439Y-71128210D01*
X97832477Y-71104916D01*
X97820865Y-71080366D01*
X97811716Y-71054796D01*
X97805117Y-71028452D01*
X97801133Y-71001588D01*
X97799800Y-70974463D01*
X97799800Y-68725537D01*
X97801133Y-68698412D01*
X97805117Y-68671548D01*
X97811716Y-68645204D01*
X97820865Y-68619634D01*
X97832477Y-68595084D01*
X97846439Y-68571790D01*
X97862616Y-68549977D01*
X97880854Y-68529854D01*
X97900977Y-68511616D01*
X97922790Y-68495439D01*
X97946084Y-68481477D01*
X97970634Y-68469865D01*
X97996204Y-68460716D01*
X98022548Y-68454117D01*
X98049412Y-68450133D01*
X98076537Y-68448800D01*
X99100463Y-68448800D01*
X99127588Y-68450133D01*
X99127588Y-68450133D01*
G37*
D30*
X98588500Y-69850000D03*
D11*
G36*
X102102588Y-68450133D02*
X102129452Y-68454117D01*
X102155796Y-68460716D01*
X102181366Y-68469865D01*
X102205916Y-68481477D01*
X102229210Y-68495439D01*
X102251023Y-68511616D01*
X102271146Y-68529854D01*
X102289384Y-68549977D01*
X102305561Y-68571790D01*
X102319523Y-68595084D01*
X102331135Y-68619634D01*
X102340284Y-68645204D01*
X102346883Y-68671548D01*
X102350867Y-68698412D01*
X102352200Y-68725537D01*
X102352200Y-70974463D01*
X102350867Y-71001588D01*
X102346883Y-71028452D01*
X102340284Y-71054796D01*
X102331135Y-71080366D01*
X102319523Y-71104916D01*
X102305561Y-71128210D01*
X102289384Y-71150023D01*
X102271146Y-71170146D01*
X102251023Y-71188384D01*
X102229210Y-71204561D01*
X102205916Y-71218523D01*
X102181366Y-71230135D01*
X102155796Y-71239284D01*
X102129452Y-71245883D01*
X102102588Y-71249867D01*
X102075463Y-71251200D01*
X101051537Y-71251200D01*
X101024412Y-71249867D01*
X100997548Y-71245883D01*
X100971204Y-71239284D01*
X100945634Y-71230135D01*
X100921084Y-71218523D01*
X100897790Y-71204561D01*
X100875977Y-71188384D01*
X100855854Y-71170146D01*
X100837616Y-71150023D01*
X100821439Y-71128210D01*
X100807477Y-71104916D01*
X100795865Y-71080366D01*
X100786716Y-71054796D01*
X100780117Y-71028452D01*
X100776133Y-71001588D01*
X100774800Y-70974463D01*
X100774800Y-68725537D01*
X100776133Y-68698412D01*
X100780117Y-68671548D01*
X100786716Y-68645204D01*
X100795865Y-68619634D01*
X100807477Y-68595084D01*
X100821439Y-68571790D01*
X100837616Y-68549977D01*
X100855854Y-68529854D01*
X100875977Y-68511616D01*
X100897790Y-68495439D01*
X100921084Y-68481477D01*
X100945634Y-68469865D01*
X100971204Y-68460716D01*
X100997548Y-68454117D01*
X101024412Y-68450133D01*
X101051537Y-68448800D01*
X102075463Y-68448800D01*
X102102588Y-68450133D01*
X102102588Y-68450133D01*
G37*
D30*
X101563500Y-69850000D03*
G04 #@! TD*
D11*
G04 #@! TO.C,C20*
G36*
X99127588Y-73149133D02*
X99154452Y-73153117D01*
X99180796Y-73159716D01*
X99206366Y-73168865D01*
X99230916Y-73180477D01*
X99254210Y-73194439D01*
X99276023Y-73210616D01*
X99296146Y-73228854D01*
X99314384Y-73248977D01*
X99330561Y-73270790D01*
X99344523Y-73294084D01*
X99356135Y-73318634D01*
X99365284Y-73344204D01*
X99371883Y-73370548D01*
X99375867Y-73397412D01*
X99377200Y-73424537D01*
X99377200Y-75673463D01*
X99375867Y-75700588D01*
X99371883Y-75727452D01*
X99365284Y-75753796D01*
X99356135Y-75779366D01*
X99344523Y-75803916D01*
X99330561Y-75827210D01*
X99314384Y-75849023D01*
X99296146Y-75869146D01*
X99276023Y-75887384D01*
X99254210Y-75903561D01*
X99230916Y-75917523D01*
X99206366Y-75929135D01*
X99180796Y-75938284D01*
X99154452Y-75944883D01*
X99127588Y-75948867D01*
X99100463Y-75950200D01*
X98076537Y-75950200D01*
X98049412Y-75948867D01*
X98022548Y-75944883D01*
X97996204Y-75938284D01*
X97970634Y-75929135D01*
X97946084Y-75917523D01*
X97922790Y-75903561D01*
X97900977Y-75887384D01*
X97880854Y-75869146D01*
X97862616Y-75849023D01*
X97846439Y-75827210D01*
X97832477Y-75803916D01*
X97820865Y-75779366D01*
X97811716Y-75753796D01*
X97805117Y-75727452D01*
X97801133Y-75700588D01*
X97799800Y-75673463D01*
X97799800Y-73424537D01*
X97801133Y-73397412D01*
X97805117Y-73370548D01*
X97811716Y-73344204D01*
X97820865Y-73318634D01*
X97832477Y-73294084D01*
X97846439Y-73270790D01*
X97862616Y-73248977D01*
X97880854Y-73228854D01*
X97900977Y-73210616D01*
X97922790Y-73194439D01*
X97946084Y-73180477D01*
X97970634Y-73168865D01*
X97996204Y-73159716D01*
X98022548Y-73153117D01*
X98049412Y-73149133D01*
X98076537Y-73147800D01*
X99100463Y-73147800D01*
X99127588Y-73149133D01*
X99127588Y-73149133D01*
G37*
D30*
X98588500Y-74549000D03*
D11*
G36*
X102102588Y-73149133D02*
X102129452Y-73153117D01*
X102155796Y-73159716D01*
X102181366Y-73168865D01*
X102205916Y-73180477D01*
X102229210Y-73194439D01*
X102251023Y-73210616D01*
X102271146Y-73228854D01*
X102289384Y-73248977D01*
X102305561Y-73270790D01*
X102319523Y-73294084D01*
X102331135Y-73318634D01*
X102340284Y-73344204D01*
X102346883Y-73370548D01*
X102350867Y-73397412D01*
X102352200Y-73424537D01*
X102352200Y-75673463D01*
X102350867Y-75700588D01*
X102346883Y-75727452D01*
X102340284Y-75753796D01*
X102331135Y-75779366D01*
X102319523Y-75803916D01*
X102305561Y-75827210D01*
X102289384Y-75849023D01*
X102271146Y-75869146D01*
X102251023Y-75887384D01*
X102229210Y-75903561D01*
X102205916Y-75917523D01*
X102181366Y-75929135D01*
X102155796Y-75938284D01*
X102129452Y-75944883D01*
X102102588Y-75948867D01*
X102075463Y-75950200D01*
X101051537Y-75950200D01*
X101024412Y-75948867D01*
X100997548Y-75944883D01*
X100971204Y-75938284D01*
X100945634Y-75929135D01*
X100921084Y-75917523D01*
X100897790Y-75903561D01*
X100875977Y-75887384D01*
X100855854Y-75869146D01*
X100837616Y-75849023D01*
X100821439Y-75827210D01*
X100807477Y-75803916D01*
X100795865Y-75779366D01*
X100786716Y-75753796D01*
X100780117Y-75727452D01*
X100776133Y-75700588D01*
X100774800Y-75673463D01*
X100774800Y-73424537D01*
X100776133Y-73397412D01*
X100780117Y-73370548D01*
X100786716Y-73344204D01*
X100795865Y-73318634D01*
X100807477Y-73294084D01*
X100821439Y-73270790D01*
X100837616Y-73248977D01*
X100855854Y-73228854D01*
X100875977Y-73210616D01*
X100897790Y-73194439D01*
X100921084Y-73180477D01*
X100945634Y-73168865D01*
X100971204Y-73159716D01*
X100997548Y-73153117D01*
X101024412Y-73149133D01*
X101051537Y-73147800D01*
X102075463Y-73147800D01*
X102102588Y-73149133D01*
X102102588Y-73149133D01*
G37*
D30*
X101563500Y-74549000D03*
G04 #@! TD*
D11*
G04 #@! TO.C,C22*
G36*
X96786822Y-66034163D02*
X96814306Y-66038240D01*
X96841258Y-66044991D01*
X96867419Y-66054352D01*
X96892537Y-66066232D01*
X96916369Y-66080516D01*
X96938686Y-66097068D01*
X96959273Y-66115727D01*
X96977932Y-66136314D01*
X96994484Y-66158631D01*
X97008768Y-66182463D01*
X97020648Y-66207581D01*
X97030009Y-66233742D01*
X97036760Y-66260694D01*
X97040837Y-66288178D01*
X97042200Y-66315930D01*
X97042200Y-67052070D01*
X97040837Y-67079822D01*
X97036760Y-67107306D01*
X97030009Y-67134258D01*
X97020648Y-67160419D01*
X97008768Y-67185537D01*
X96994484Y-67209369D01*
X96977932Y-67231686D01*
X96959273Y-67252273D01*
X96938686Y-67270932D01*
X96916369Y-67287484D01*
X96892537Y-67301768D01*
X96867419Y-67313648D01*
X96841258Y-67323009D01*
X96814306Y-67329760D01*
X96786822Y-67333837D01*
X96759070Y-67335200D01*
X95772930Y-67335200D01*
X95745178Y-67333837D01*
X95717694Y-67329760D01*
X95690742Y-67323009D01*
X95664581Y-67313648D01*
X95639463Y-67301768D01*
X95615631Y-67287484D01*
X95593314Y-67270932D01*
X95572727Y-67252273D01*
X95554068Y-67231686D01*
X95537516Y-67209369D01*
X95523232Y-67185537D01*
X95511352Y-67160419D01*
X95501991Y-67134258D01*
X95495240Y-67107306D01*
X95491163Y-67079822D01*
X95489800Y-67052070D01*
X95489800Y-66315930D01*
X95491163Y-66288178D01*
X95495240Y-66260694D01*
X95501991Y-66233742D01*
X95511352Y-66207581D01*
X95523232Y-66182463D01*
X95537516Y-66158631D01*
X95554068Y-66136314D01*
X95572727Y-66115727D01*
X95593314Y-66097068D01*
X95615631Y-66080516D01*
X95639463Y-66066232D01*
X95664581Y-66054352D01*
X95690742Y-66044991D01*
X95717694Y-66038240D01*
X95745178Y-66034163D01*
X95772930Y-66032800D01*
X96759070Y-66032800D01*
X96786822Y-66034163D01*
X96786822Y-66034163D01*
G37*
D31*
X96266000Y-66684000D03*
D11*
G36*
X96786822Y-63984163D02*
X96814306Y-63988240D01*
X96841258Y-63994991D01*
X96867419Y-64004352D01*
X96892537Y-64016232D01*
X96916369Y-64030516D01*
X96938686Y-64047068D01*
X96959273Y-64065727D01*
X96977932Y-64086314D01*
X96994484Y-64108631D01*
X97008768Y-64132463D01*
X97020648Y-64157581D01*
X97030009Y-64183742D01*
X97036760Y-64210694D01*
X97040837Y-64238178D01*
X97042200Y-64265930D01*
X97042200Y-65002070D01*
X97040837Y-65029822D01*
X97036760Y-65057306D01*
X97030009Y-65084258D01*
X97020648Y-65110419D01*
X97008768Y-65135537D01*
X96994484Y-65159369D01*
X96977932Y-65181686D01*
X96959273Y-65202273D01*
X96938686Y-65220932D01*
X96916369Y-65237484D01*
X96892537Y-65251768D01*
X96867419Y-65263648D01*
X96841258Y-65273009D01*
X96814306Y-65279760D01*
X96786822Y-65283837D01*
X96759070Y-65285200D01*
X95772930Y-65285200D01*
X95745178Y-65283837D01*
X95717694Y-65279760D01*
X95690742Y-65273009D01*
X95664581Y-65263648D01*
X95639463Y-65251768D01*
X95615631Y-65237484D01*
X95593314Y-65220932D01*
X95572727Y-65202273D01*
X95554068Y-65181686D01*
X95537516Y-65159369D01*
X95523232Y-65135537D01*
X95511352Y-65110419D01*
X95501991Y-65084258D01*
X95495240Y-65057306D01*
X95491163Y-65029822D01*
X95489800Y-65002070D01*
X95489800Y-64265930D01*
X95491163Y-64238178D01*
X95495240Y-64210694D01*
X95501991Y-64183742D01*
X95511352Y-64157581D01*
X95523232Y-64132463D01*
X95537516Y-64108631D01*
X95554068Y-64086314D01*
X95572727Y-64065727D01*
X95593314Y-64047068D01*
X95615631Y-64030516D01*
X95639463Y-64016232D01*
X95664581Y-64004352D01*
X95690742Y-63994991D01*
X95717694Y-63988240D01*
X95745178Y-63984163D01*
X95772930Y-63982800D01*
X96759070Y-63982800D01*
X96786822Y-63984163D01*
X96786822Y-63984163D01*
G37*
D31*
X96266000Y-64634000D03*
G04 #@! TD*
D11*
G04 #@! TO.C,C3*
G36*
X99957588Y-136463133D02*
X99984452Y-136467117D01*
X100010796Y-136473716D01*
X100036366Y-136482865D01*
X100060916Y-136494477D01*
X100084210Y-136508439D01*
X100106023Y-136524616D01*
X100126146Y-136542854D01*
X100144384Y-136562977D01*
X100160561Y-136584790D01*
X100174523Y-136608084D01*
X100186135Y-136632634D01*
X100195284Y-136658204D01*
X100201883Y-136684548D01*
X100205867Y-136711412D01*
X100207200Y-136738537D01*
X100207200Y-137762463D01*
X100205867Y-137789588D01*
X100201883Y-137816452D01*
X100195284Y-137842796D01*
X100186135Y-137868366D01*
X100174523Y-137892916D01*
X100160561Y-137916210D01*
X100144384Y-137938023D01*
X100126146Y-137958146D01*
X100106023Y-137976384D01*
X100084210Y-137992561D01*
X100060916Y-138006523D01*
X100036366Y-138018135D01*
X100010796Y-138027284D01*
X99984452Y-138033883D01*
X99957588Y-138037867D01*
X99930463Y-138039200D01*
X97681537Y-138039200D01*
X97654412Y-138037867D01*
X97627548Y-138033883D01*
X97601204Y-138027284D01*
X97575634Y-138018135D01*
X97551084Y-138006523D01*
X97527790Y-137992561D01*
X97505977Y-137976384D01*
X97485854Y-137958146D01*
X97467616Y-137938023D01*
X97451439Y-137916210D01*
X97437477Y-137892916D01*
X97425865Y-137868366D01*
X97416716Y-137842796D01*
X97410117Y-137816452D01*
X97406133Y-137789588D01*
X97404800Y-137762463D01*
X97404800Y-136738537D01*
X97406133Y-136711412D01*
X97410117Y-136684548D01*
X97416716Y-136658204D01*
X97425865Y-136632634D01*
X97437477Y-136608084D01*
X97451439Y-136584790D01*
X97467616Y-136562977D01*
X97485854Y-136542854D01*
X97505977Y-136524616D01*
X97527790Y-136508439D01*
X97551084Y-136494477D01*
X97575634Y-136482865D01*
X97601204Y-136473716D01*
X97627548Y-136467117D01*
X97654412Y-136463133D01*
X97681537Y-136461800D01*
X99930463Y-136461800D01*
X99957588Y-136463133D01*
X99957588Y-136463133D01*
G37*
D30*
X98806000Y-137250500D03*
D11*
G36*
X99957588Y-133488133D02*
X99984452Y-133492117D01*
X100010796Y-133498716D01*
X100036366Y-133507865D01*
X100060916Y-133519477D01*
X100084210Y-133533439D01*
X100106023Y-133549616D01*
X100126146Y-133567854D01*
X100144384Y-133587977D01*
X100160561Y-133609790D01*
X100174523Y-133633084D01*
X100186135Y-133657634D01*
X100195284Y-133683204D01*
X100201883Y-133709548D01*
X100205867Y-133736412D01*
X100207200Y-133763537D01*
X100207200Y-134787463D01*
X100205867Y-134814588D01*
X100201883Y-134841452D01*
X100195284Y-134867796D01*
X100186135Y-134893366D01*
X100174523Y-134917916D01*
X100160561Y-134941210D01*
X100144384Y-134963023D01*
X100126146Y-134983146D01*
X100106023Y-135001384D01*
X100084210Y-135017561D01*
X100060916Y-135031523D01*
X100036366Y-135043135D01*
X100010796Y-135052284D01*
X99984452Y-135058883D01*
X99957588Y-135062867D01*
X99930463Y-135064200D01*
X97681537Y-135064200D01*
X97654412Y-135062867D01*
X97627548Y-135058883D01*
X97601204Y-135052284D01*
X97575634Y-135043135D01*
X97551084Y-135031523D01*
X97527790Y-135017561D01*
X97505977Y-135001384D01*
X97485854Y-134983146D01*
X97467616Y-134963023D01*
X97451439Y-134941210D01*
X97437477Y-134917916D01*
X97425865Y-134893366D01*
X97416716Y-134867796D01*
X97410117Y-134841452D01*
X97406133Y-134814588D01*
X97404800Y-134787463D01*
X97404800Y-133763537D01*
X97406133Y-133736412D01*
X97410117Y-133709548D01*
X97416716Y-133683204D01*
X97425865Y-133657634D01*
X97437477Y-133633084D01*
X97451439Y-133609790D01*
X97467616Y-133587977D01*
X97485854Y-133567854D01*
X97505977Y-133549616D01*
X97527790Y-133533439D01*
X97551084Y-133519477D01*
X97575634Y-133507865D01*
X97601204Y-133498716D01*
X97627548Y-133492117D01*
X97654412Y-133488133D01*
X97681537Y-133486800D01*
X99930463Y-133486800D01*
X99957588Y-133488133D01*
X99957588Y-133488133D01*
G37*
D30*
X98806000Y-134275500D03*
G04 #@! TD*
D11*
G04 #@! TO.C,C13*
G36*
X84576588Y-112011133D02*
X84603452Y-112015117D01*
X84629796Y-112021716D01*
X84655366Y-112030865D01*
X84679916Y-112042477D01*
X84703210Y-112056439D01*
X84725023Y-112072616D01*
X84745146Y-112090854D01*
X84763384Y-112110977D01*
X84779561Y-112132790D01*
X84793523Y-112156084D01*
X84805135Y-112180634D01*
X84814284Y-112206204D01*
X84820883Y-112232548D01*
X84824867Y-112259412D01*
X84826200Y-112286537D01*
X84826200Y-114535463D01*
X84824867Y-114562588D01*
X84820883Y-114589452D01*
X84814284Y-114615796D01*
X84805135Y-114641366D01*
X84793523Y-114665916D01*
X84779561Y-114689210D01*
X84763384Y-114711023D01*
X84745146Y-114731146D01*
X84725023Y-114749384D01*
X84703210Y-114765561D01*
X84679916Y-114779523D01*
X84655366Y-114791135D01*
X84629796Y-114800284D01*
X84603452Y-114806883D01*
X84576588Y-114810867D01*
X84549463Y-114812200D01*
X83525537Y-114812200D01*
X83498412Y-114810867D01*
X83471548Y-114806883D01*
X83445204Y-114800284D01*
X83419634Y-114791135D01*
X83395084Y-114779523D01*
X83371790Y-114765561D01*
X83349977Y-114749384D01*
X83329854Y-114731146D01*
X83311616Y-114711023D01*
X83295439Y-114689210D01*
X83281477Y-114665916D01*
X83269865Y-114641366D01*
X83260716Y-114615796D01*
X83254117Y-114589452D01*
X83250133Y-114562588D01*
X83248800Y-114535463D01*
X83248800Y-112286537D01*
X83250133Y-112259412D01*
X83254117Y-112232548D01*
X83260716Y-112206204D01*
X83269865Y-112180634D01*
X83281477Y-112156084D01*
X83295439Y-112132790D01*
X83311616Y-112110977D01*
X83329854Y-112090854D01*
X83349977Y-112072616D01*
X83371790Y-112056439D01*
X83395084Y-112042477D01*
X83419634Y-112030865D01*
X83445204Y-112021716D01*
X83471548Y-112015117D01*
X83498412Y-112011133D01*
X83525537Y-112009800D01*
X84549463Y-112009800D01*
X84576588Y-112011133D01*
X84576588Y-112011133D01*
G37*
D30*
X84037500Y-113411000D03*
D11*
G36*
X81601588Y-112011133D02*
X81628452Y-112015117D01*
X81654796Y-112021716D01*
X81680366Y-112030865D01*
X81704916Y-112042477D01*
X81728210Y-112056439D01*
X81750023Y-112072616D01*
X81770146Y-112090854D01*
X81788384Y-112110977D01*
X81804561Y-112132790D01*
X81818523Y-112156084D01*
X81830135Y-112180634D01*
X81839284Y-112206204D01*
X81845883Y-112232548D01*
X81849867Y-112259412D01*
X81851200Y-112286537D01*
X81851200Y-114535463D01*
X81849867Y-114562588D01*
X81845883Y-114589452D01*
X81839284Y-114615796D01*
X81830135Y-114641366D01*
X81818523Y-114665916D01*
X81804561Y-114689210D01*
X81788384Y-114711023D01*
X81770146Y-114731146D01*
X81750023Y-114749384D01*
X81728210Y-114765561D01*
X81704916Y-114779523D01*
X81680366Y-114791135D01*
X81654796Y-114800284D01*
X81628452Y-114806883D01*
X81601588Y-114810867D01*
X81574463Y-114812200D01*
X80550537Y-114812200D01*
X80523412Y-114810867D01*
X80496548Y-114806883D01*
X80470204Y-114800284D01*
X80444634Y-114791135D01*
X80420084Y-114779523D01*
X80396790Y-114765561D01*
X80374977Y-114749384D01*
X80354854Y-114731146D01*
X80336616Y-114711023D01*
X80320439Y-114689210D01*
X80306477Y-114665916D01*
X80294865Y-114641366D01*
X80285716Y-114615796D01*
X80279117Y-114589452D01*
X80275133Y-114562588D01*
X80273800Y-114535463D01*
X80273800Y-112286537D01*
X80275133Y-112259412D01*
X80279117Y-112232548D01*
X80285716Y-112206204D01*
X80294865Y-112180634D01*
X80306477Y-112156084D01*
X80320439Y-112132790D01*
X80336616Y-112110977D01*
X80354854Y-112090854D01*
X80374977Y-112072616D01*
X80396790Y-112056439D01*
X80420084Y-112042477D01*
X80444634Y-112030865D01*
X80470204Y-112021716D01*
X80496548Y-112015117D01*
X80523412Y-112011133D01*
X80550537Y-112009800D01*
X81574463Y-112009800D01*
X81601588Y-112011133D01*
X81601588Y-112011133D01*
G37*
D30*
X81062500Y-113411000D03*
G04 #@! TD*
D11*
G04 #@! TO.C,C16*
G36*
X84576588Y-105153133D02*
X84603452Y-105157117D01*
X84629796Y-105163716D01*
X84655366Y-105172865D01*
X84679916Y-105184477D01*
X84703210Y-105198439D01*
X84725023Y-105214616D01*
X84745146Y-105232854D01*
X84763384Y-105252977D01*
X84779561Y-105274790D01*
X84793523Y-105298084D01*
X84805135Y-105322634D01*
X84814284Y-105348204D01*
X84820883Y-105374548D01*
X84824867Y-105401412D01*
X84826200Y-105428537D01*
X84826200Y-107677463D01*
X84824867Y-107704588D01*
X84820883Y-107731452D01*
X84814284Y-107757796D01*
X84805135Y-107783366D01*
X84793523Y-107807916D01*
X84779561Y-107831210D01*
X84763384Y-107853023D01*
X84745146Y-107873146D01*
X84725023Y-107891384D01*
X84703210Y-107907561D01*
X84679916Y-107921523D01*
X84655366Y-107933135D01*
X84629796Y-107942284D01*
X84603452Y-107948883D01*
X84576588Y-107952867D01*
X84549463Y-107954200D01*
X83525537Y-107954200D01*
X83498412Y-107952867D01*
X83471548Y-107948883D01*
X83445204Y-107942284D01*
X83419634Y-107933135D01*
X83395084Y-107921523D01*
X83371790Y-107907561D01*
X83349977Y-107891384D01*
X83329854Y-107873146D01*
X83311616Y-107853023D01*
X83295439Y-107831210D01*
X83281477Y-107807916D01*
X83269865Y-107783366D01*
X83260716Y-107757796D01*
X83254117Y-107731452D01*
X83250133Y-107704588D01*
X83248800Y-107677463D01*
X83248800Y-105428537D01*
X83250133Y-105401412D01*
X83254117Y-105374548D01*
X83260716Y-105348204D01*
X83269865Y-105322634D01*
X83281477Y-105298084D01*
X83295439Y-105274790D01*
X83311616Y-105252977D01*
X83329854Y-105232854D01*
X83349977Y-105214616D01*
X83371790Y-105198439D01*
X83395084Y-105184477D01*
X83419634Y-105172865D01*
X83445204Y-105163716D01*
X83471548Y-105157117D01*
X83498412Y-105153133D01*
X83525537Y-105151800D01*
X84549463Y-105151800D01*
X84576588Y-105153133D01*
X84576588Y-105153133D01*
G37*
D30*
X84037500Y-106553000D03*
D11*
G36*
X81601588Y-105153133D02*
X81628452Y-105157117D01*
X81654796Y-105163716D01*
X81680366Y-105172865D01*
X81704916Y-105184477D01*
X81728210Y-105198439D01*
X81750023Y-105214616D01*
X81770146Y-105232854D01*
X81788384Y-105252977D01*
X81804561Y-105274790D01*
X81818523Y-105298084D01*
X81830135Y-105322634D01*
X81839284Y-105348204D01*
X81845883Y-105374548D01*
X81849867Y-105401412D01*
X81851200Y-105428537D01*
X81851200Y-107677463D01*
X81849867Y-107704588D01*
X81845883Y-107731452D01*
X81839284Y-107757796D01*
X81830135Y-107783366D01*
X81818523Y-107807916D01*
X81804561Y-107831210D01*
X81788384Y-107853023D01*
X81770146Y-107873146D01*
X81750023Y-107891384D01*
X81728210Y-107907561D01*
X81704916Y-107921523D01*
X81680366Y-107933135D01*
X81654796Y-107942284D01*
X81628452Y-107948883D01*
X81601588Y-107952867D01*
X81574463Y-107954200D01*
X80550537Y-107954200D01*
X80523412Y-107952867D01*
X80496548Y-107948883D01*
X80470204Y-107942284D01*
X80444634Y-107933135D01*
X80420084Y-107921523D01*
X80396790Y-107907561D01*
X80374977Y-107891384D01*
X80354854Y-107873146D01*
X80336616Y-107853023D01*
X80320439Y-107831210D01*
X80306477Y-107807916D01*
X80294865Y-107783366D01*
X80285716Y-107757796D01*
X80279117Y-107731452D01*
X80275133Y-107704588D01*
X80273800Y-107677463D01*
X80273800Y-105428537D01*
X80275133Y-105401412D01*
X80279117Y-105374548D01*
X80285716Y-105348204D01*
X80294865Y-105322634D01*
X80306477Y-105298084D01*
X80320439Y-105274790D01*
X80336616Y-105252977D01*
X80354854Y-105232854D01*
X80374977Y-105214616D01*
X80396790Y-105198439D01*
X80420084Y-105184477D01*
X80444634Y-105172865D01*
X80470204Y-105163716D01*
X80496548Y-105157117D01*
X80523412Y-105153133D01*
X80550537Y-105151800D01*
X81574463Y-105151800D01*
X81601588Y-105153133D01*
X81601588Y-105153133D01*
G37*
D30*
X81062500Y-106553000D03*
G04 #@! TD*
D11*
G04 #@! TO.C,C18*
G36*
X84576588Y-108582133D02*
X84603452Y-108586117D01*
X84629796Y-108592716D01*
X84655366Y-108601865D01*
X84679916Y-108613477D01*
X84703210Y-108627439D01*
X84725023Y-108643616D01*
X84745146Y-108661854D01*
X84763384Y-108681977D01*
X84779561Y-108703790D01*
X84793523Y-108727084D01*
X84805135Y-108751634D01*
X84814284Y-108777204D01*
X84820883Y-108803548D01*
X84824867Y-108830412D01*
X84826200Y-108857537D01*
X84826200Y-111106463D01*
X84824867Y-111133588D01*
X84820883Y-111160452D01*
X84814284Y-111186796D01*
X84805135Y-111212366D01*
X84793523Y-111236916D01*
X84779561Y-111260210D01*
X84763384Y-111282023D01*
X84745146Y-111302146D01*
X84725023Y-111320384D01*
X84703210Y-111336561D01*
X84679916Y-111350523D01*
X84655366Y-111362135D01*
X84629796Y-111371284D01*
X84603452Y-111377883D01*
X84576588Y-111381867D01*
X84549463Y-111383200D01*
X83525537Y-111383200D01*
X83498412Y-111381867D01*
X83471548Y-111377883D01*
X83445204Y-111371284D01*
X83419634Y-111362135D01*
X83395084Y-111350523D01*
X83371790Y-111336561D01*
X83349977Y-111320384D01*
X83329854Y-111302146D01*
X83311616Y-111282023D01*
X83295439Y-111260210D01*
X83281477Y-111236916D01*
X83269865Y-111212366D01*
X83260716Y-111186796D01*
X83254117Y-111160452D01*
X83250133Y-111133588D01*
X83248800Y-111106463D01*
X83248800Y-108857537D01*
X83250133Y-108830412D01*
X83254117Y-108803548D01*
X83260716Y-108777204D01*
X83269865Y-108751634D01*
X83281477Y-108727084D01*
X83295439Y-108703790D01*
X83311616Y-108681977D01*
X83329854Y-108661854D01*
X83349977Y-108643616D01*
X83371790Y-108627439D01*
X83395084Y-108613477D01*
X83419634Y-108601865D01*
X83445204Y-108592716D01*
X83471548Y-108586117D01*
X83498412Y-108582133D01*
X83525537Y-108580800D01*
X84549463Y-108580800D01*
X84576588Y-108582133D01*
X84576588Y-108582133D01*
G37*
D30*
X84037500Y-109982000D03*
D11*
G36*
X81601588Y-108582133D02*
X81628452Y-108586117D01*
X81654796Y-108592716D01*
X81680366Y-108601865D01*
X81704916Y-108613477D01*
X81728210Y-108627439D01*
X81750023Y-108643616D01*
X81770146Y-108661854D01*
X81788384Y-108681977D01*
X81804561Y-108703790D01*
X81818523Y-108727084D01*
X81830135Y-108751634D01*
X81839284Y-108777204D01*
X81845883Y-108803548D01*
X81849867Y-108830412D01*
X81851200Y-108857537D01*
X81851200Y-111106463D01*
X81849867Y-111133588D01*
X81845883Y-111160452D01*
X81839284Y-111186796D01*
X81830135Y-111212366D01*
X81818523Y-111236916D01*
X81804561Y-111260210D01*
X81788384Y-111282023D01*
X81770146Y-111302146D01*
X81750023Y-111320384D01*
X81728210Y-111336561D01*
X81704916Y-111350523D01*
X81680366Y-111362135D01*
X81654796Y-111371284D01*
X81628452Y-111377883D01*
X81601588Y-111381867D01*
X81574463Y-111383200D01*
X80550537Y-111383200D01*
X80523412Y-111381867D01*
X80496548Y-111377883D01*
X80470204Y-111371284D01*
X80444634Y-111362135D01*
X80420084Y-111350523D01*
X80396790Y-111336561D01*
X80374977Y-111320384D01*
X80354854Y-111302146D01*
X80336616Y-111282023D01*
X80320439Y-111260210D01*
X80306477Y-111236916D01*
X80294865Y-111212366D01*
X80285716Y-111186796D01*
X80279117Y-111160452D01*
X80275133Y-111133588D01*
X80273800Y-111106463D01*
X80273800Y-108857537D01*
X80275133Y-108830412D01*
X80279117Y-108803548D01*
X80285716Y-108777204D01*
X80294865Y-108751634D01*
X80306477Y-108727084D01*
X80320439Y-108703790D01*
X80336616Y-108681977D01*
X80354854Y-108661854D01*
X80374977Y-108643616D01*
X80396790Y-108627439D01*
X80420084Y-108613477D01*
X80444634Y-108601865D01*
X80470204Y-108592716D01*
X80496548Y-108586117D01*
X80523412Y-108582133D01*
X80550537Y-108580800D01*
X81574463Y-108580800D01*
X81601588Y-108582133D01*
X81601588Y-108582133D01*
G37*
D30*
X81062500Y-109982000D03*
G04 #@! TD*
D11*
G04 #@! TO.C,C19*
G36*
X103386588Y-136463133D02*
X103413452Y-136467117D01*
X103439796Y-136473716D01*
X103465366Y-136482865D01*
X103489916Y-136494477D01*
X103513210Y-136508439D01*
X103535023Y-136524616D01*
X103555146Y-136542854D01*
X103573384Y-136562977D01*
X103589561Y-136584790D01*
X103603523Y-136608084D01*
X103615135Y-136632634D01*
X103624284Y-136658204D01*
X103630883Y-136684548D01*
X103634867Y-136711412D01*
X103636200Y-136738537D01*
X103636200Y-137762463D01*
X103634867Y-137789588D01*
X103630883Y-137816452D01*
X103624284Y-137842796D01*
X103615135Y-137868366D01*
X103603523Y-137892916D01*
X103589561Y-137916210D01*
X103573384Y-137938023D01*
X103555146Y-137958146D01*
X103535023Y-137976384D01*
X103513210Y-137992561D01*
X103489916Y-138006523D01*
X103465366Y-138018135D01*
X103439796Y-138027284D01*
X103413452Y-138033883D01*
X103386588Y-138037867D01*
X103359463Y-138039200D01*
X101110537Y-138039200D01*
X101083412Y-138037867D01*
X101056548Y-138033883D01*
X101030204Y-138027284D01*
X101004634Y-138018135D01*
X100980084Y-138006523D01*
X100956790Y-137992561D01*
X100934977Y-137976384D01*
X100914854Y-137958146D01*
X100896616Y-137938023D01*
X100880439Y-137916210D01*
X100866477Y-137892916D01*
X100854865Y-137868366D01*
X100845716Y-137842796D01*
X100839117Y-137816452D01*
X100835133Y-137789588D01*
X100833800Y-137762463D01*
X100833800Y-136738537D01*
X100835133Y-136711412D01*
X100839117Y-136684548D01*
X100845716Y-136658204D01*
X100854865Y-136632634D01*
X100866477Y-136608084D01*
X100880439Y-136584790D01*
X100896616Y-136562977D01*
X100914854Y-136542854D01*
X100934977Y-136524616D01*
X100956790Y-136508439D01*
X100980084Y-136494477D01*
X101004634Y-136482865D01*
X101030204Y-136473716D01*
X101056548Y-136467117D01*
X101083412Y-136463133D01*
X101110537Y-136461800D01*
X103359463Y-136461800D01*
X103386588Y-136463133D01*
X103386588Y-136463133D01*
G37*
D30*
X102235000Y-137250500D03*
D11*
G36*
X103386588Y-133488133D02*
X103413452Y-133492117D01*
X103439796Y-133498716D01*
X103465366Y-133507865D01*
X103489916Y-133519477D01*
X103513210Y-133533439D01*
X103535023Y-133549616D01*
X103555146Y-133567854D01*
X103573384Y-133587977D01*
X103589561Y-133609790D01*
X103603523Y-133633084D01*
X103615135Y-133657634D01*
X103624284Y-133683204D01*
X103630883Y-133709548D01*
X103634867Y-133736412D01*
X103636200Y-133763537D01*
X103636200Y-134787463D01*
X103634867Y-134814588D01*
X103630883Y-134841452D01*
X103624284Y-134867796D01*
X103615135Y-134893366D01*
X103603523Y-134917916D01*
X103589561Y-134941210D01*
X103573384Y-134963023D01*
X103555146Y-134983146D01*
X103535023Y-135001384D01*
X103513210Y-135017561D01*
X103489916Y-135031523D01*
X103465366Y-135043135D01*
X103439796Y-135052284D01*
X103413452Y-135058883D01*
X103386588Y-135062867D01*
X103359463Y-135064200D01*
X101110537Y-135064200D01*
X101083412Y-135062867D01*
X101056548Y-135058883D01*
X101030204Y-135052284D01*
X101004634Y-135043135D01*
X100980084Y-135031523D01*
X100956790Y-135017561D01*
X100934977Y-135001384D01*
X100914854Y-134983146D01*
X100896616Y-134963023D01*
X100880439Y-134941210D01*
X100866477Y-134917916D01*
X100854865Y-134893366D01*
X100845716Y-134867796D01*
X100839117Y-134841452D01*
X100835133Y-134814588D01*
X100833800Y-134787463D01*
X100833800Y-133763537D01*
X100835133Y-133736412D01*
X100839117Y-133709548D01*
X100845716Y-133683204D01*
X100854865Y-133657634D01*
X100866477Y-133633084D01*
X100880439Y-133609790D01*
X100896616Y-133587977D01*
X100914854Y-133567854D01*
X100934977Y-133549616D01*
X100956790Y-133533439D01*
X100980084Y-133519477D01*
X101004634Y-133507865D01*
X101030204Y-133498716D01*
X101056548Y-133492117D01*
X101083412Y-133488133D01*
X101110537Y-133486800D01*
X103359463Y-133486800D01*
X103386588Y-133488133D01*
X103386588Y-133488133D01*
G37*
D30*
X102235000Y-134275500D03*
G04 #@! TD*
D11*
G04 #@! TO.C,C21*
G36*
X94239822Y-126987163D02*
X94267306Y-126991240D01*
X94294258Y-126997991D01*
X94320419Y-127007352D01*
X94345537Y-127019232D01*
X94369369Y-127033516D01*
X94391686Y-127050068D01*
X94412273Y-127068727D01*
X94430932Y-127089314D01*
X94447484Y-127111631D01*
X94461768Y-127135463D01*
X94473648Y-127160581D01*
X94483009Y-127186742D01*
X94489760Y-127213694D01*
X94493837Y-127241178D01*
X94495200Y-127268930D01*
X94495200Y-128255070D01*
X94493837Y-128282822D01*
X94489760Y-128310306D01*
X94483009Y-128337258D01*
X94473648Y-128363419D01*
X94461768Y-128388537D01*
X94447484Y-128412369D01*
X94430932Y-128434686D01*
X94412273Y-128455273D01*
X94391686Y-128473932D01*
X94369369Y-128490484D01*
X94345537Y-128504768D01*
X94320419Y-128516648D01*
X94294258Y-128526009D01*
X94267306Y-128532760D01*
X94239822Y-128536837D01*
X94212070Y-128538200D01*
X93475930Y-128538200D01*
X93448178Y-128536837D01*
X93420694Y-128532760D01*
X93393742Y-128526009D01*
X93367581Y-128516648D01*
X93342463Y-128504768D01*
X93318631Y-128490484D01*
X93296314Y-128473932D01*
X93275727Y-128455273D01*
X93257068Y-128434686D01*
X93240516Y-128412369D01*
X93226232Y-128388537D01*
X93214352Y-128363419D01*
X93204991Y-128337258D01*
X93198240Y-128310306D01*
X93194163Y-128282822D01*
X93192800Y-128255070D01*
X93192800Y-127268930D01*
X93194163Y-127241178D01*
X93198240Y-127213694D01*
X93204991Y-127186742D01*
X93214352Y-127160581D01*
X93226232Y-127135463D01*
X93240516Y-127111631D01*
X93257068Y-127089314D01*
X93275727Y-127068727D01*
X93296314Y-127050068D01*
X93318631Y-127033516D01*
X93342463Y-127019232D01*
X93367581Y-127007352D01*
X93393742Y-126997991D01*
X93420694Y-126991240D01*
X93448178Y-126987163D01*
X93475930Y-126985800D01*
X94212070Y-126985800D01*
X94239822Y-126987163D01*
X94239822Y-126987163D01*
G37*
D31*
X93844000Y-127762000D03*
D11*
G36*
X96289822Y-126987163D02*
X96317306Y-126991240D01*
X96344258Y-126997991D01*
X96370419Y-127007352D01*
X96395537Y-127019232D01*
X96419369Y-127033516D01*
X96441686Y-127050068D01*
X96462273Y-127068727D01*
X96480932Y-127089314D01*
X96497484Y-127111631D01*
X96511768Y-127135463D01*
X96523648Y-127160581D01*
X96533009Y-127186742D01*
X96539760Y-127213694D01*
X96543837Y-127241178D01*
X96545200Y-127268930D01*
X96545200Y-128255070D01*
X96543837Y-128282822D01*
X96539760Y-128310306D01*
X96533009Y-128337258D01*
X96523648Y-128363419D01*
X96511768Y-128388537D01*
X96497484Y-128412369D01*
X96480932Y-128434686D01*
X96462273Y-128455273D01*
X96441686Y-128473932D01*
X96419369Y-128490484D01*
X96395537Y-128504768D01*
X96370419Y-128516648D01*
X96344258Y-128526009D01*
X96317306Y-128532760D01*
X96289822Y-128536837D01*
X96262070Y-128538200D01*
X95525930Y-128538200D01*
X95498178Y-128536837D01*
X95470694Y-128532760D01*
X95443742Y-128526009D01*
X95417581Y-128516648D01*
X95392463Y-128504768D01*
X95368631Y-128490484D01*
X95346314Y-128473932D01*
X95325727Y-128455273D01*
X95307068Y-128434686D01*
X95290516Y-128412369D01*
X95276232Y-128388537D01*
X95264352Y-128363419D01*
X95254991Y-128337258D01*
X95248240Y-128310306D01*
X95244163Y-128282822D01*
X95242800Y-128255070D01*
X95242800Y-127268930D01*
X95244163Y-127241178D01*
X95248240Y-127213694D01*
X95254991Y-127186742D01*
X95264352Y-127160581D01*
X95276232Y-127135463D01*
X95290516Y-127111631D01*
X95307068Y-127089314D01*
X95325727Y-127068727D01*
X95346314Y-127050068D01*
X95368631Y-127033516D01*
X95392463Y-127019232D01*
X95417581Y-127007352D01*
X95443742Y-126997991D01*
X95470694Y-126991240D01*
X95498178Y-126987163D01*
X95525930Y-126985800D01*
X96262070Y-126985800D01*
X96289822Y-126987163D01*
X96289822Y-126987163D01*
G37*
D31*
X95894000Y-127762000D03*
G04 #@! TD*
D11*
G04 #@! TO.C,R3*
G36*
X62097588Y-155895133D02*
X62124452Y-155899117D01*
X62150796Y-155905716D01*
X62176366Y-155914865D01*
X62200916Y-155926477D01*
X62224210Y-155940439D01*
X62246023Y-155956616D01*
X62266146Y-155974854D01*
X62284384Y-155994977D01*
X62300561Y-156016790D01*
X62314523Y-156040084D01*
X62326135Y-156064634D01*
X62335284Y-156090204D01*
X62341883Y-156116548D01*
X62345867Y-156143412D01*
X62347200Y-156170537D01*
X62347200Y-157519463D01*
X62345867Y-157546588D01*
X62341883Y-157573452D01*
X62335284Y-157599796D01*
X62326135Y-157625366D01*
X62314523Y-157649916D01*
X62300561Y-157673210D01*
X62284384Y-157695023D01*
X62266146Y-157715146D01*
X62246023Y-157733384D01*
X62224210Y-157749561D01*
X62200916Y-157763523D01*
X62176366Y-157775135D01*
X62150796Y-157784284D01*
X62124452Y-157790883D01*
X62097588Y-157794867D01*
X62070463Y-157796200D01*
X61046537Y-157796200D01*
X61019412Y-157794867D01*
X60992548Y-157790883D01*
X60966204Y-157784284D01*
X60940634Y-157775135D01*
X60916084Y-157763523D01*
X60892790Y-157749561D01*
X60870977Y-157733384D01*
X60850854Y-157715146D01*
X60832616Y-157695023D01*
X60816439Y-157673210D01*
X60802477Y-157649916D01*
X60790865Y-157625366D01*
X60781716Y-157599796D01*
X60775117Y-157573452D01*
X60771133Y-157546588D01*
X60769800Y-157519463D01*
X60769800Y-156170537D01*
X60771133Y-156143412D01*
X60775117Y-156116548D01*
X60781716Y-156090204D01*
X60790865Y-156064634D01*
X60802477Y-156040084D01*
X60816439Y-156016790D01*
X60832616Y-155994977D01*
X60850854Y-155974854D01*
X60870977Y-155956616D01*
X60892790Y-155940439D01*
X60916084Y-155926477D01*
X60940634Y-155914865D01*
X60966204Y-155905716D01*
X60992548Y-155899117D01*
X61019412Y-155895133D01*
X61046537Y-155893800D01*
X62070463Y-155893800D01*
X62097588Y-155895133D01*
X62097588Y-155895133D01*
G37*
D30*
X61558500Y-156845000D03*
D11*
G36*
X59122588Y-155895133D02*
X59149452Y-155899117D01*
X59175796Y-155905716D01*
X59201366Y-155914865D01*
X59225916Y-155926477D01*
X59249210Y-155940439D01*
X59271023Y-155956616D01*
X59291146Y-155974854D01*
X59309384Y-155994977D01*
X59325561Y-156016790D01*
X59339523Y-156040084D01*
X59351135Y-156064634D01*
X59360284Y-156090204D01*
X59366883Y-156116548D01*
X59370867Y-156143412D01*
X59372200Y-156170537D01*
X59372200Y-157519463D01*
X59370867Y-157546588D01*
X59366883Y-157573452D01*
X59360284Y-157599796D01*
X59351135Y-157625366D01*
X59339523Y-157649916D01*
X59325561Y-157673210D01*
X59309384Y-157695023D01*
X59291146Y-157715146D01*
X59271023Y-157733384D01*
X59249210Y-157749561D01*
X59225916Y-157763523D01*
X59201366Y-157775135D01*
X59175796Y-157784284D01*
X59149452Y-157790883D01*
X59122588Y-157794867D01*
X59095463Y-157796200D01*
X58071537Y-157796200D01*
X58044412Y-157794867D01*
X58017548Y-157790883D01*
X57991204Y-157784284D01*
X57965634Y-157775135D01*
X57941084Y-157763523D01*
X57917790Y-157749561D01*
X57895977Y-157733384D01*
X57875854Y-157715146D01*
X57857616Y-157695023D01*
X57841439Y-157673210D01*
X57827477Y-157649916D01*
X57815865Y-157625366D01*
X57806716Y-157599796D01*
X57800117Y-157573452D01*
X57796133Y-157546588D01*
X57794800Y-157519463D01*
X57794800Y-156170537D01*
X57796133Y-156143412D01*
X57800117Y-156116548D01*
X57806716Y-156090204D01*
X57815865Y-156064634D01*
X57827477Y-156040084D01*
X57841439Y-156016790D01*
X57857616Y-155994977D01*
X57875854Y-155974854D01*
X57895977Y-155956616D01*
X57917790Y-155940439D01*
X57941084Y-155926477D01*
X57965634Y-155914865D01*
X57991204Y-155905716D01*
X58017548Y-155899117D01*
X58044412Y-155895133D01*
X58071537Y-155893800D01*
X59095463Y-155893800D01*
X59122588Y-155895133D01*
X59122588Y-155895133D01*
G37*
D30*
X58583500Y-156845000D03*
G04 #@! TD*
D11*
G04 #@! TO.C,R16*
G36*
X62097588Y-152656633D02*
X62124452Y-152660617D01*
X62150796Y-152667216D01*
X62176366Y-152676365D01*
X62200916Y-152687977D01*
X62224210Y-152701939D01*
X62246023Y-152718116D01*
X62266146Y-152736354D01*
X62284384Y-152756477D01*
X62300561Y-152778290D01*
X62314523Y-152801584D01*
X62326135Y-152826134D01*
X62335284Y-152851704D01*
X62341883Y-152878048D01*
X62345867Y-152904912D01*
X62347200Y-152932037D01*
X62347200Y-154280963D01*
X62345867Y-154308088D01*
X62341883Y-154334952D01*
X62335284Y-154361296D01*
X62326135Y-154386866D01*
X62314523Y-154411416D01*
X62300561Y-154434710D01*
X62284384Y-154456523D01*
X62266146Y-154476646D01*
X62246023Y-154494884D01*
X62224210Y-154511061D01*
X62200916Y-154525023D01*
X62176366Y-154536635D01*
X62150796Y-154545784D01*
X62124452Y-154552383D01*
X62097588Y-154556367D01*
X62070463Y-154557700D01*
X61046537Y-154557700D01*
X61019412Y-154556367D01*
X60992548Y-154552383D01*
X60966204Y-154545784D01*
X60940634Y-154536635D01*
X60916084Y-154525023D01*
X60892790Y-154511061D01*
X60870977Y-154494884D01*
X60850854Y-154476646D01*
X60832616Y-154456523D01*
X60816439Y-154434710D01*
X60802477Y-154411416D01*
X60790865Y-154386866D01*
X60781716Y-154361296D01*
X60775117Y-154334952D01*
X60771133Y-154308088D01*
X60769800Y-154280963D01*
X60769800Y-152932037D01*
X60771133Y-152904912D01*
X60775117Y-152878048D01*
X60781716Y-152851704D01*
X60790865Y-152826134D01*
X60802477Y-152801584D01*
X60816439Y-152778290D01*
X60832616Y-152756477D01*
X60850854Y-152736354D01*
X60870977Y-152718116D01*
X60892790Y-152701939D01*
X60916084Y-152687977D01*
X60940634Y-152676365D01*
X60966204Y-152667216D01*
X60992548Y-152660617D01*
X61019412Y-152656633D01*
X61046537Y-152655300D01*
X62070463Y-152655300D01*
X62097588Y-152656633D01*
X62097588Y-152656633D01*
G37*
D30*
X61558500Y-153606500D03*
D11*
G36*
X59122588Y-152656633D02*
X59149452Y-152660617D01*
X59175796Y-152667216D01*
X59201366Y-152676365D01*
X59225916Y-152687977D01*
X59249210Y-152701939D01*
X59271023Y-152718116D01*
X59291146Y-152736354D01*
X59309384Y-152756477D01*
X59325561Y-152778290D01*
X59339523Y-152801584D01*
X59351135Y-152826134D01*
X59360284Y-152851704D01*
X59366883Y-152878048D01*
X59370867Y-152904912D01*
X59372200Y-152932037D01*
X59372200Y-154280963D01*
X59370867Y-154308088D01*
X59366883Y-154334952D01*
X59360284Y-154361296D01*
X59351135Y-154386866D01*
X59339523Y-154411416D01*
X59325561Y-154434710D01*
X59309384Y-154456523D01*
X59291146Y-154476646D01*
X59271023Y-154494884D01*
X59249210Y-154511061D01*
X59225916Y-154525023D01*
X59201366Y-154536635D01*
X59175796Y-154545784D01*
X59149452Y-154552383D01*
X59122588Y-154556367D01*
X59095463Y-154557700D01*
X58071537Y-154557700D01*
X58044412Y-154556367D01*
X58017548Y-154552383D01*
X57991204Y-154545784D01*
X57965634Y-154536635D01*
X57941084Y-154525023D01*
X57917790Y-154511061D01*
X57895977Y-154494884D01*
X57875854Y-154476646D01*
X57857616Y-154456523D01*
X57841439Y-154434710D01*
X57827477Y-154411416D01*
X57815865Y-154386866D01*
X57806716Y-154361296D01*
X57800117Y-154334952D01*
X57796133Y-154308088D01*
X57794800Y-154280963D01*
X57794800Y-152932037D01*
X57796133Y-152904912D01*
X57800117Y-152878048D01*
X57806716Y-152851704D01*
X57815865Y-152826134D01*
X57827477Y-152801584D01*
X57841439Y-152778290D01*
X57857616Y-152756477D01*
X57875854Y-152736354D01*
X57895977Y-152718116D01*
X57917790Y-152701939D01*
X57941084Y-152687977D01*
X57965634Y-152676365D01*
X57991204Y-152667216D01*
X58017548Y-152660617D01*
X58044412Y-152656633D01*
X58071537Y-152655300D01*
X59095463Y-152655300D01*
X59122588Y-152656633D01*
X59122588Y-152656633D01*
G37*
D30*
X58583500Y-153606500D03*
G04 #@! TD*
D11*
G04 #@! TO.C,C23*
G36*
X124849588Y-92648133D02*
X124876452Y-92652117D01*
X124902796Y-92658716D01*
X124928366Y-92667865D01*
X124952916Y-92679477D01*
X124976210Y-92693439D01*
X124998023Y-92709616D01*
X125018146Y-92727854D01*
X125036384Y-92747977D01*
X125052561Y-92769790D01*
X125066523Y-92793084D01*
X125078135Y-92817634D01*
X125087284Y-92843204D01*
X125093883Y-92869548D01*
X125097867Y-92896412D01*
X125099200Y-92923537D01*
X125099200Y-93947463D01*
X125097867Y-93974588D01*
X125093883Y-94001452D01*
X125087284Y-94027796D01*
X125078135Y-94053366D01*
X125066523Y-94077916D01*
X125052561Y-94101210D01*
X125036384Y-94123023D01*
X125018146Y-94143146D01*
X124998023Y-94161384D01*
X124976210Y-94177561D01*
X124952916Y-94191523D01*
X124928366Y-94203135D01*
X124902796Y-94212284D01*
X124876452Y-94218883D01*
X124849588Y-94222867D01*
X124822463Y-94224200D01*
X122573537Y-94224200D01*
X122546412Y-94222867D01*
X122519548Y-94218883D01*
X122493204Y-94212284D01*
X122467634Y-94203135D01*
X122443084Y-94191523D01*
X122419790Y-94177561D01*
X122397977Y-94161384D01*
X122377854Y-94143146D01*
X122359616Y-94123023D01*
X122343439Y-94101210D01*
X122329477Y-94077916D01*
X122317865Y-94053366D01*
X122308716Y-94027796D01*
X122302117Y-94001452D01*
X122298133Y-93974588D01*
X122296800Y-93947463D01*
X122296800Y-92923537D01*
X122298133Y-92896412D01*
X122302117Y-92869548D01*
X122308716Y-92843204D01*
X122317865Y-92817634D01*
X122329477Y-92793084D01*
X122343439Y-92769790D01*
X122359616Y-92747977D01*
X122377854Y-92727854D01*
X122397977Y-92709616D01*
X122419790Y-92693439D01*
X122443084Y-92679477D01*
X122467634Y-92667865D01*
X122493204Y-92658716D01*
X122519548Y-92652117D01*
X122546412Y-92648133D01*
X122573537Y-92646800D01*
X124822463Y-92646800D01*
X124849588Y-92648133D01*
X124849588Y-92648133D01*
G37*
D30*
X123698000Y-93435500D03*
D11*
G36*
X124849588Y-89673133D02*
X124876452Y-89677117D01*
X124902796Y-89683716D01*
X124928366Y-89692865D01*
X124952916Y-89704477D01*
X124976210Y-89718439D01*
X124998023Y-89734616D01*
X125018146Y-89752854D01*
X125036384Y-89772977D01*
X125052561Y-89794790D01*
X125066523Y-89818084D01*
X125078135Y-89842634D01*
X125087284Y-89868204D01*
X125093883Y-89894548D01*
X125097867Y-89921412D01*
X125099200Y-89948537D01*
X125099200Y-90972463D01*
X125097867Y-90999588D01*
X125093883Y-91026452D01*
X125087284Y-91052796D01*
X125078135Y-91078366D01*
X125066523Y-91102916D01*
X125052561Y-91126210D01*
X125036384Y-91148023D01*
X125018146Y-91168146D01*
X124998023Y-91186384D01*
X124976210Y-91202561D01*
X124952916Y-91216523D01*
X124928366Y-91228135D01*
X124902796Y-91237284D01*
X124876452Y-91243883D01*
X124849588Y-91247867D01*
X124822463Y-91249200D01*
X122573537Y-91249200D01*
X122546412Y-91247867D01*
X122519548Y-91243883D01*
X122493204Y-91237284D01*
X122467634Y-91228135D01*
X122443084Y-91216523D01*
X122419790Y-91202561D01*
X122397977Y-91186384D01*
X122377854Y-91168146D01*
X122359616Y-91148023D01*
X122343439Y-91126210D01*
X122329477Y-91102916D01*
X122317865Y-91078366D01*
X122308716Y-91052796D01*
X122302117Y-91026452D01*
X122298133Y-90999588D01*
X122296800Y-90972463D01*
X122296800Y-89948537D01*
X122298133Y-89921412D01*
X122302117Y-89894548D01*
X122308716Y-89868204D01*
X122317865Y-89842634D01*
X122329477Y-89818084D01*
X122343439Y-89794790D01*
X122359616Y-89772977D01*
X122377854Y-89752854D01*
X122397977Y-89734616D01*
X122419790Y-89718439D01*
X122443084Y-89704477D01*
X122467634Y-89692865D01*
X122493204Y-89683716D01*
X122519548Y-89677117D01*
X122546412Y-89673133D01*
X122573537Y-89671800D01*
X124822463Y-89671800D01*
X124849588Y-89673133D01*
X124849588Y-89673133D01*
G37*
D30*
X123698000Y-90460500D03*
G04 #@! TD*
D11*
G04 #@! TO.C,C24*
G36*
X140724588Y-92648133D02*
X140751452Y-92652117D01*
X140777796Y-92658716D01*
X140803366Y-92667865D01*
X140827916Y-92679477D01*
X140851210Y-92693439D01*
X140873023Y-92709616D01*
X140893146Y-92727854D01*
X140911384Y-92747977D01*
X140927561Y-92769790D01*
X140941523Y-92793084D01*
X140953135Y-92817634D01*
X140962284Y-92843204D01*
X140968883Y-92869548D01*
X140972867Y-92896412D01*
X140974200Y-92923537D01*
X140974200Y-93947463D01*
X140972867Y-93974588D01*
X140968883Y-94001452D01*
X140962284Y-94027796D01*
X140953135Y-94053366D01*
X140941523Y-94077916D01*
X140927561Y-94101210D01*
X140911384Y-94123023D01*
X140893146Y-94143146D01*
X140873023Y-94161384D01*
X140851210Y-94177561D01*
X140827916Y-94191523D01*
X140803366Y-94203135D01*
X140777796Y-94212284D01*
X140751452Y-94218883D01*
X140724588Y-94222867D01*
X140697463Y-94224200D01*
X138448537Y-94224200D01*
X138421412Y-94222867D01*
X138394548Y-94218883D01*
X138368204Y-94212284D01*
X138342634Y-94203135D01*
X138318084Y-94191523D01*
X138294790Y-94177561D01*
X138272977Y-94161384D01*
X138252854Y-94143146D01*
X138234616Y-94123023D01*
X138218439Y-94101210D01*
X138204477Y-94077916D01*
X138192865Y-94053366D01*
X138183716Y-94027796D01*
X138177117Y-94001452D01*
X138173133Y-93974588D01*
X138171800Y-93947463D01*
X138171800Y-92923537D01*
X138173133Y-92896412D01*
X138177117Y-92869548D01*
X138183716Y-92843204D01*
X138192865Y-92817634D01*
X138204477Y-92793084D01*
X138218439Y-92769790D01*
X138234616Y-92747977D01*
X138252854Y-92727854D01*
X138272977Y-92709616D01*
X138294790Y-92693439D01*
X138318084Y-92679477D01*
X138342634Y-92667865D01*
X138368204Y-92658716D01*
X138394548Y-92652117D01*
X138421412Y-92648133D01*
X138448537Y-92646800D01*
X140697463Y-92646800D01*
X140724588Y-92648133D01*
X140724588Y-92648133D01*
G37*
D30*
X139573000Y-93435500D03*
D11*
G36*
X140724588Y-89673133D02*
X140751452Y-89677117D01*
X140777796Y-89683716D01*
X140803366Y-89692865D01*
X140827916Y-89704477D01*
X140851210Y-89718439D01*
X140873023Y-89734616D01*
X140893146Y-89752854D01*
X140911384Y-89772977D01*
X140927561Y-89794790D01*
X140941523Y-89818084D01*
X140953135Y-89842634D01*
X140962284Y-89868204D01*
X140968883Y-89894548D01*
X140972867Y-89921412D01*
X140974200Y-89948537D01*
X140974200Y-90972463D01*
X140972867Y-90999588D01*
X140968883Y-91026452D01*
X140962284Y-91052796D01*
X140953135Y-91078366D01*
X140941523Y-91102916D01*
X140927561Y-91126210D01*
X140911384Y-91148023D01*
X140893146Y-91168146D01*
X140873023Y-91186384D01*
X140851210Y-91202561D01*
X140827916Y-91216523D01*
X140803366Y-91228135D01*
X140777796Y-91237284D01*
X140751452Y-91243883D01*
X140724588Y-91247867D01*
X140697463Y-91249200D01*
X138448537Y-91249200D01*
X138421412Y-91247867D01*
X138394548Y-91243883D01*
X138368204Y-91237284D01*
X138342634Y-91228135D01*
X138318084Y-91216523D01*
X138294790Y-91202561D01*
X138272977Y-91186384D01*
X138252854Y-91168146D01*
X138234616Y-91148023D01*
X138218439Y-91126210D01*
X138204477Y-91102916D01*
X138192865Y-91078366D01*
X138183716Y-91052796D01*
X138177117Y-91026452D01*
X138173133Y-90999588D01*
X138171800Y-90972463D01*
X138171800Y-89948537D01*
X138173133Y-89921412D01*
X138177117Y-89894548D01*
X138183716Y-89868204D01*
X138192865Y-89842634D01*
X138204477Y-89818084D01*
X138218439Y-89794790D01*
X138234616Y-89772977D01*
X138252854Y-89752854D01*
X138272977Y-89734616D01*
X138294790Y-89718439D01*
X138318084Y-89704477D01*
X138342634Y-89692865D01*
X138368204Y-89683716D01*
X138394548Y-89677117D01*
X138421412Y-89673133D01*
X138448537Y-89671800D01*
X140697463Y-89671800D01*
X140724588Y-89673133D01*
X140724588Y-89673133D01*
G37*
D30*
X139573000Y-90460500D03*
G04 #@! TD*
D19*
G04 #@! TO.C,J4*
X124206000Y-76923000D03*
D20*
X124206000Y-82423000D03*
G04 #@! TD*
D19*
G04 #@! TO.C,J17*
X141351000Y-76923000D03*
D20*
X141351000Y-82423000D03*
G04 #@! TD*
D32*
G04 #@! TO.C,Q1*
X116078000Y-64897000D03*
D33*
X113798000Y-58597000D03*
X118358000Y-58597000D03*
G04 #@! TD*
D32*
G04 #@! TO.C,Q2*
X131953000Y-65219000D03*
D33*
X129673000Y-58919000D03*
X134233000Y-58919000D03*
G04 #@! TD*
D34*
G04 #@! TO.C,D9*
X116078000Y-75229000D03*
X116078000Y-84029000D03*
G04 #@! TD*
G04 #@! TO.C,D10*
X132969000Y-75102000D03*
X132969000Y-83902000D03*
G04 #@! TD*
D35*
G04 #@! TO.C,J7*
X118237000Y-92202000D03*
G04 #@! TD*
G04 #@! TO.C,J8*
X134493000Y-92202000D03*
G04 #@! TD*
D11*
G04 #@! TO.C,D1*
G36*
X66378614Y-149754627D02*
X66405367Y-149758596D01*
X66431602Y-149765167D01*
X66457068Y-149774279D01*
X66481517Y-149785842D01*
X66504715Y-149799747D01*
X66526439Y-149815858D01*
X66546479Y-149834021D01*
X66564642Y-149854061D01*
X66580753Y-149875785D01*
X66594658Y-149898983D01*
X66606221Y-149923432D01*
X66615333Y-149948898D01*
X66621904Y-149975133D01*
X66625873Y-150001886D01*
X66627200Y-150028900D01*
X66627200Y-150580100D01*
X66625873Y-150607114D01*
X66621904Y-150633867D01*
X66615333Y-150660102D01*
X66606221Y-150685568D01*
X66594658Y-150710017D01*
X66580753Y-150733215D01*
X66564642Y-150754939D01*
X66546479Y-150774979D01*
X66526439Y-150793142D01*
X66504715Y-150809253D01*
X66481517Y-150823158D01*
X66457068Y-150834721D01*
X66431602Y-150843833D01*
X66405367Y-150850404D01*
X66378614Y-150854373D01*
X66351600Y-150855700D01*
X65700400Y-150855700D01*
X65673386Y-150854373D01*
X65646633Y-150850404D01*
X65620398Y-150843833D01*
X65594932Y-150834721D01*
X65570483Y-150823158D01*
X65547285Y-150809253D01*
X65525561Y-150793142D01*
X65505521Y-150774979D01*
X65487358Y-150754939D01*
X65471247Y-150733215D01*
X65457342Y-150710017D01*
X65445779Y-150685568D01*
X65436667Y-150660102D01*
X65430096Y-150633867D01*
X65426127Y-150607114D01*
X65424800Y-150580100D01*
X65424800Y-150028900D01*
X65426127Y-150001886D01*
X65430096Y-149975133D01*
X65436667Y-149948898D01*
X65445779Y-149923432D01*
X65457342Y-149898983D01*
X65471247Y-149875785D01*
X65487358Y-149854061D01*
X65505521Y-149834021D01*
X65525561Y-149815858D01*
X65547285Y-149799747D01*
X65570483Y-149785842D01*
X65594932Y-149774279D01*
X65620398Y-149765167D01*
X65646633Y-149758596D01*
X65673386Y-149754627D01*
X65700400Y-149753300D01*
X66351600Y-149753300D01*
X66378614Y-149754627D01*
X66378614Y-149754627D01*
G37*
D12*
X66026000Y-150304500D03*
D11*
G36*
X64628614Y-149754627D02*
X64655367Y-149758596D01*
X64681602Y-149765167D01*
X64707068Y-149774279D01*
X64731517Y-149785842D01*
X64754715Y-149799747D01*
X64776439Y-149815858D01*
X64796479Y-149834021D01*
X64814642Y-149854061D01*
X64830753Y-149875785D01*
X64844658Y-149898983D01*
X64856221Y-149923432D01*
X64865333Y-149948898D01*
X64871904Y-149975133D01*
X64875873Y-150001886D01*
X64877200Y-150028900D01*
X64877200Y-150580100D01*
X64875873Y-150607114D01*
X64871904Y-150633867D01*
X64865333Y-150660102D01*
X64856221Y-150685568D01*
X64844658Y-150710017D01*
X64830753Y-150733215D01*
X64814642Y-150754939D01*
X64796479Y-150774979D01*
X64776439Y-150793142D01*
X64754715Y-150809253D01*
X64731517Y-150823158D01*
X64707068Y-150834721D01*
X64681602Y-150843833D01*
X64655367Y-150850404D01*
X64628614Y-150854373D01*
X64601600Y-150855700D01*
X63950400Y-150855700D01*
X63923386Y-150854373D01*
X63896633Y-150850404D01*
X63870398Y-150843833D01*
X63844932Y-150834721D01*
X63820483Y-150823158D01*
X63797285Y-150809253D01*
X63775561Y-150793142D01*
X63755521Y-150774979D01*
X63737358Y-150754939D01*
X63721247Y-150733215D01*
X63707342Y-150710017D01*
X63695779Y-150685568D01*
X63686667Y-150660102D01*
X63680096Y-150633867D01*
X63676127Y-150607114D01*
X63674800Y-150580100D01*
X63674800Y-150028900D01*
X63676127Y-150001886D01*
X63680096Y-149975133D01*
X63686667Y-149948898D01*
X63695779Y-149923432D01*
X63707342Y-149898983D01*
X63721247Y-149875785D01*
X63737358Y-149854061D01*
X63755521Y-149834021D01*
X63775561Y-149815858D01*
X63797285Y-149799747D01*
X63820483Y-149785842D01*
X63844932Y-149774279D01*
X63870398Y-149765167D01*
X63896633Y-149758596D01*
X63923386Y-149754627D01*
X63950400Y-149753300D01*
X64601600Y-149753300D01*
X64628614Y-149754627D01*
X64628614Y-149754627D01*
G37*
D12*
X64276000Y-150304500D03*
G04 #@! TD*
D11*
G04 #@! TO.C,D2*
G36*
X66378614Y-146770127D02*
X66405367Y-146774096D01*
X66431602Y-146780667D01*
X66457068Y-146789779D01*
X66481517Y-146801342D01*
X66504715Y-146815247D01*
X66526439Y-146831358D01*
X66546479Y-146849521D01*
X66564642Y-146869561D01*
X66580753Y-146891285D01*
X66594658Y-146914483D01*
X66606221Y-146938932D01*
X66615333Y-146964398D01*
X66621904Y-146990633D01*
X66625873Y-147017386D01*
X66627200Y-147044400D01*
X66627200Y-147595600D01*
X66625873Y-147622614D01*
X66621904Y-147649367D01*
X66615333Y-147675602D01*
X66606221Y-147701068D01*
X66594658Y-147725517D01*
X66580753Y-147748715D01*
X66564642Y-147770439D01*
X66546479Y-147790479D01*
X66526439Y-147808642D01*
X66504715Y-147824753D01*
X66481517Y-147838658D01*
X66457068Y-147850221D01*
X66431602Y-147859333D01*
X66405367Y-147865904D01*
X66378614Y-147869873D01*
X66351600Y-147871200D01*
X65700400Y-147871200D01*
X65673386Y-147869873D01*
X65646633Y-147865904D01*
X65620398Y-147859333D01*
X65594932Y-147850221D01*
X65570483Y-147838658D01*
X65547285Y-147824753D01*
X65525561Y-147808642D01*
X65505521Y-147790479D01*
X65487358Y-147770439D01*
X65471247Y-147748715D01*
X65457342Y-147725517D01*
X65445779Y-147701068D01*
X65436667Y-147675602D01*
X65430096Y-147649367D01*
X65426127Y-147622614D01*
X65424800Y-147595600D01*
X65424800Y-147044400D01*
X65426127Y-147017386D01*
X65430096Y-146990633D01*
X65436667Y-146964398D01*
X65445779Y-146938932D01*
X65457342Y-146914483D01*
X65471247Y-146891285D01*
X65487358Y-146869561D01*
X65505521Y-146849521D01*
X65525561Y-146831358D01*
X65547285Y-146815247D01*
X65570483Y-146801342D01*
X65594932Y-146789779D01*
X65620398Y-146780667D01*
X65646633Y-146774096D01*
X65673386Y-146770127D01*
X65700400Y-146768800D01*
X66351600Y-146768800D01*
X66378614Y-146770127D01*
X66378614Y-146770127D01*
G37*
D12*
X66026000Y-147320000D03*
D11*
G36*
X64628614Y-146770127D02*
X64655367Y-146774096D01*
X64681602Y-146780667D01*
X64707068Y-146789779D01*
X64731517Y-146801342D01*
X64754715Y-146815247D01*
X64776439Y-146831358D01*
X64796479Y-146849521D01*
X64814642Y-146869561D01*
X64830753Y-146891285D01*
X64844658Y-146914483D01*
X64856221Y-146938932D01*
X64865333Y-146964398D01*
X64871904Y-146990633D01*
X64875873Y-147017386D01*
X64877200Y-147044400D01*
X64877200Y-147595600D01*
X64875873Y-147622614D01*
X64871904Y-147649367D01*
X64865333Y-147675602D01*
X64856221Y-147701068D01*
X64844658Y-147725517D01*
X64830753Y-147748715D01*
X64814642Y-147770439D01*
X64796479Y-147790479D01*
X64776439Y-147808642D01*
X64754715Y-147824753D01*
X64731517Y-147838658D01*
X64707068Y-147850221D01*
X64681602Y-147859333D01*
X64655367Y-147865904D01*
X64628614Y-147869873D01*
X64601600Y-147871200D01*
X63950400Y-147871200D01*
X63923386Y-147869873D01*
X63896633Y-147865904D01*
X63870398Y-147859333D01*
X63844932Y-147850221D01*
X63820483Y-147838658D01*
X63797285Y-147824753D01*
X63775561Y-147808642D01*
X63755521Y-147790479D01*
X63737358Y-147770439D01*
X63721247Y-147748715D01*
X63707342Y-147725517D01*
X63695779Y-147701068D01*
X63686667Y-147675602D01*
X63680096Y-147649367D01*
X63676127Y-147622614D01*
X63674800Y-147595600D01*
X63674800Y-147044400D01*
X63676127Y-147017386D01*
X63680096Y-146990633D01*
X63686667Y-146964398D01*
X63695779Y-146938932D01*
X63707342Y-146914483D01*
X63721247Y-146891285D01*
X63737358Y-146869561D01*
X63755521Y-146849521D01*
X63775561Y-146831358D01*
X63797285Y-146815247D01*
X63820483Y-146801342D01*
X63844932Y-146789779D01*
X63870398Y-146780667D01*
X63896633Y-146774096D01*
X63923386Y-146770127D01*
X63950400Y-146768800D01*
X64601600Y-146768800D01*
X64628614Y-146770127D01*
X64628614Y-146770127D01*
G37*
D12*
X64276000Y-147320000D03*
G04 #@! TD*
D11*
G04 #@! TO.C,D3*
G36*
X66378614Y-156295127D02*
X66405367Y-156299096D01*
X66431602Y-156305667D01*
X66457068Y-156314779D01*
X66481517Y-156326342D01*
X66504715Y-156340247D01*
X66526439Y-156356358D01*
X66546479Y-156374521D01*
X66564642Y-156394561D01*
X66580753Y-156416285D01*
X66594658Y-156439483D01*
X66606221Y-156463932D01*
X66615333Y-156489398D01*
X66621904Y-156515633D01*
X66625873Y-156542386D01*
X66627200Y-156569400D01*
X66627200Y-157120600D01*
X66625873Y-157147614D01*
X66621904Y-157174367D01*
X66615333Y-157200602D01*
X66606221Y-157226068D01*
X66594658Y-157250517D01*
X66580753Y-157273715D01*
X66564642Y-157295439D01*
X66546479Y-157315479D01*
X66526439Y-157333642D01*
X66504715Y-157349753D01*
X66481517Y-157363658D01*
X66457068Y-157375221D01*
X66431602Y-157384333D01*
X66405367Y-157390904D01*
X66378614Y-157394873D01*
X66351600Y-157396200D01*
X65700400Y-157396200D01*
X65673386Y-157394873D01*
X65646633Y-157390904D01*
X65620398Y-157384333D01*
X65594932Y-157375221D01*
X65570483Y-157363658D01*
X65547285Y-157349753D01*
X65525561Y-157333642D01*
X65505521Y-157315479D01*
X65487358Y-157295439D01*
X65471247Y-157273715D01*
X65457342Y-157250517D01*
X65445779Y-157226068D01*
X65436667Y-157200602D01*
X65430096Y-157174367D01*
X65426127Y-157147614D01*
X65424800Y-157120600D01*
X65424800Y-156569400D01*
X65426127Y-156542386D01*
X65430096Y-156515633D01*
X65436667Y-156489398D01*
X65445779Y-156463932D01*
X65457342Y-156439483D01*
X65471247Y-156416285D01*
X65487358Y-156394561D01*
X65505521Y-156374521D01*
X65525561Y-156356358D01*
X65547285Y-156340247D01*
X65570483Y-156326342D01*
X65594932Y-156314779D01*
X65620398Y-156305667D01*
X65646633Y-156299096D01*
X65673386Y-156295127D01*
X65700400Y-156293800D01*
X66351600Y-156293800D01*
X66378614Y-156295127D01*
X66378614Y-156295127D01*
G37*
D12*
X66026000Y-156845000D03*
D11*
G36*
X64628614Y-156295127D02*
X64655367Y-156299096D01*
X64681602Y-156305667D01*
X64707068Y-156314779D01*
X64731517Y-156326342D01*
X64754715Y-156340247D01*
X64776439Y-156356358D01*
X64796479Y-156374521D01*
X64814642Y-156394561D01*
X64830753Y-156416285D01*
X64844658Y-156439483D01*
X64856221Y-156463932D01*
X64865333Y-156489398D01*
X64871904Y-156515633D01*
X64875873Y-156542386D01*
X64877200Y-156569400D01*
X64877200Y-157120600D01*
X64875873Y-157147614D01*
X64871904Y-157174367D01*
X64865333Y-157200602D01*
X64856221Y-157226068D01*
X64844658Y-157250517D01*
X64830753Y-157273715D01*
X64814642Y-157295439D01*
X64796479Y-157315479D01*
X64776439Y-157333642D01*
X64754715Y-157349753D01*
X64731517Y-157363658D01*
X64707068Y-157375221D01*
X64681602Y-157384333D01*
X64655367Y-157390904D01*
X64628614Y-157394873D01*
X64601600Y-157396200D01*
X63950400Y-157396200D01*
X63923386Y-157394873D01*
X63896633Y-157390904D01*
X63870398Y-157384333D01*
X63844932Y-157375221D01*
X63820483Y-157363658D01*
X63797285Y-157349753D01*
X63775561Y-157333642D01*
X63755521Y-157315479D01*
X63737358Y-157295439D01*
X63721247Y-157273715D01*
X63707342Y-157250517D01*
X63695779Y-157226068D01*
X63686667Y-157200602D01*
X63680096Y-157174367D01*
X63676127Y-157147614D01*
X63674800Y-157120600D01*
X63674800Y-156569400D01*
X63676127Y-156542386D01*
X63680096Y-156515633D01*
X63686667Y-156489398D01*
X63695779Y-156463932D01*
X63707342Y-156439483D01*
X63721247Y-156416285D01*
X63737358Y-156394561D01*
X63755521Y-156374521D01*
X63775561Y-156356358D01*
X63797285Y-156340247D01*
X63820483Y-156326342D01*
X63844932Y-156314779D01*
X63870398Y-156305667D01*
X63896633Y-156299096D01*
X63923386Y-156295127D01*
X63950400Y-156293800D01*
X64601600Y-156293800D01*
X64628614Y-156295127D01*
X64628614Y-156295127D01*
G37*
D12*
X64276000Y-156845000D03*
G04 #@! TD*
D11*
G04 #@! TO.C,D4*
G36*
X114553614Y-41550627D02*
X114580367Y-41554596D01*
X114606602Y-41561167D01*
X114632068Y-41570279D01*
X114656517Y-41581842D01*
X114679715Y-41595747D01*
X114701439Y-41611858D01*
X114721479Y-41630021D01*
X114739642Y-41650061D01*
X114755753Y-41671785D01*
X114769658Y-41694983D01*
X114781221Y-41719432D01*
X114790333Y-41744898D01*
X114796904Y-41771133D01*
X114800873Y-41797886D01*
X114802200Y-41824900D01*
X114802200Y-42376100D01*
X114800873Y-42403114D01*
X114796904Y-42429867D01*
X114790333Y-42456102D01*
X114781221Y-42481568D01*
X114769658Y-42506017D01*
X114755753Y-42529215D01*
X114739642Y-42550939D01*
X114721479Y-42570979D01*
X114701439Y-42589142D01*
X114679715Y-42605253D01*
X114656517Y-42619158D01*
X114632068Y-42630721D01*
X114606602Y-42639833D01*
X114580367Y-42646404D01*
X114553614Y-42650373D01*
X114526600Y-42651700D01*
X113875400Y-42651700D01*
X113848386Y-42650373D01*
X113821633Y-42646404D01*
X113795398Y-42639833D01*
X113769932Y-42630721D01*
X113745483Y-42619158D01*
X113722285Y-42605253D01*
X113700561Y-42589142D01*
X113680521Y-42570979D01*
X113662358Y-42550939D01*
X113646247Y-42529215D01*
X113632342Y-42506017D01*
X113620779Y-42481568D01*
X113611667Y-42456102D01*
X113605096Y-42429867D01*
X113601127Y-42403114D01*
X113599800Y-42376100D01*
X113599800Y-41824900D01*
X113601127Y-41797886D01*
X113605096Y-41771133D01*
X113611667Y-41744898D01*
X113620779Y-41719432D01*
X113632342Y-41694983D01*
X113646247Y-41671785D01*
X113662358Y-41650061D01*
X113680521Y-41630021D01*
X113700561Y-41611858D01*
X113722285Y-41595747D01*
X113745483Y-41581842D01*
X113769932Y-41570279D01*
X113795398Y-41561167D01*
X113821633Y-41554596D01*
X113848386Y-41550627D01*
X113875400Y-41549300D01*
X114526600Y-41549300D01*
X114553614Y-41550627D01*
X114553614Y-41550627D01*
G37*
D12*
X114201000Y-42100500D03*
D11*
G36*
X116303614Y-41550627D02*
X116330367Y-41554596D01*
X116356602Y-41561167D01*
X116382068Y-41570279D01*
X116406517Y-41581842D01*
X116429715Y-41595747D01*
X116451439Y-41611858D01*
X116471479Y-41630021D01*
X116489642Y-41650061D01*
X116505753Y-41671785D01*
X116519658Y-41694983D01*
X116531221Y-41719432D01*
X116540333Y-41744898D01*
X116546904Y-41771133D01*
X116550873Y-41797886D01*
X116552200Y-41824900D01*
X116552200Y-42376100D01*
X116550873Y-42403114D01*
X116546904Y-42429867D01*
X116540333Y-42456102D01*
X116531221Y-42481568D01*
X116519658Y-42506017D01*
X116505753Y-42529215D01*
X116489642Y-42550939D01*
X116471479Y-42570979D01*
X116451439Y-42589142D01*
X116429715Y-42605253D01*
X116406517Y-42619158D01*
X116382068Y-42630721D01*
X116356602Y-42639833D01*
X116330367Y-42646404D01*
X116303614Y-42650373D01*
X116276600Y-42651700D01*
X115625400Y-42651700D01*
X115598386Y-42650373D01*
X115571633Y-42646404D01*
X115545398Y-42639833D01*
X115519932Y-42630721D01*
X115495483Y-42619158D01*
X115472285Y-42605253D01*
X115450561Y-42589142D01*
X115430521Y-42570979D01*
X115412358Y-42550939D01*
X115396247Y-42529215D01*
X115382342Y-42506017D01*
X115370779Y-42481568D01*
X115361667Y-42456102D01*
X115355096Y-42429867D01*
X115351127Y-42403114D01*
X115349800Y-42376100D01*
X115349800Y-41824900D01*
X115351127Y-41797886D01*
X115355096Y-41771133D01*
X115361667Y-41744898D01*
X115370779Y-41719432D01*
X115382342Y-41694983D01*
X115396247Y-41671785D01*
X115412358Y-41650061D01*
X115430521Y-41630021D01*
X115450561Y-41611858D01*
X115472285Y-41595747D01*
X115495483Y-41581842D01*
X115519932Y-41570279D01*
X115545398Y-41561167D01*
X115571633Y-41554596D01*
X115598386Y-41550627D01*
X115625400Y-41549300D01*
X116276600Y-41549300D01*
X116303614Y-41550627D01*
X116303614Y-41550627D01*
G37*
D12*
X115951000Y-42100500D03*
G04 #@! TD*
D11*
G04 #@! TO.C,D5*
G36*
X114553614Y-35835627D02*
X114580367Y-35839596D01*
X114606602Y-35846167D01*
X114632068Y-35855279D01*
X114656517Y-35866842D01*
X114679715Y-35880747D01*
X114701439Y-35896858D01*
X114721479Y-35915021D01*
X114739642Y-35935061D01*
X114755753Y-35956785D01*
X114769658Y-35979983D01*
X114781221Y-36004432D01*
X114790333Y-36029898D01*
X114796904Y-36056133D01*
X114800873Y-36082886D01*
X114802200Y-36109900D01*
X114802200Y-36661100D01*
X114800873Y-36688114D01*
X114796904Y-36714867D01*
X114790333Y-36741102D01*
X114781221Y-36766568D01*
X114769658Y-36791017D01*
X114755753Y-36814215D01*
X114739642Y-36835939D01*
X114721479Y-36855979D01*
X114701439Y-36874142D01*
X114679715Y-36890253D01*
X114656517Y-36904158D01*
X114632068Y-36915721D01*
X114606602Y-36924833D01*
X114580367Y-36931404D01*
X114553614Y-36935373D01*
X114526600Y-36936700D01*
X113875400Y-36936700D01*
X113848386Y-36935373D01*
X113821633Y-36931404D01*
X113795398Y-36924833D01*
X113769932Y-36915721D01*
X113745483Y-36904158D01*
X113722285Y-36890253D01*
X113700561Y-36874142D01*
X113680521Y-36855979D01*
X113662358Y-36835939D01*
X113646247Y-36814215D01*
X113632342Y-36791017D01*
X113620779Y-36766568D01*
X113611667Y-36741102D01*
X113605096Y-36714867D01*
X113601127Y-36688114D01*
X113599800Y-36661100D01*
X113599800Y-36109900D01*
X113601127Y-36082886D01*
X113605096Y-36056133D01*
X113611667Y-36029898D01*
X113620779Y-36004432D01*
X113632342Y-35979983D01*
X113646247Y-35956785D01*
X113662358Y-35935061D01*
X113680521Y-35915021D01*
X113700561Y-35896858D01*
X113722285Y-35880747D01*
X113745483Y-35866842D01*
X113769932Y-35855279D01*
X113795398Y-35846167D01*
X113821633Y-35839596D01*
X113848386Y-35835627D01*
X113875400Y-35834300D01*
X114526600Y-35834300D01*
X114553614Y-35835627D01*
X114553614Y-35835627D01*
G37*
D12*
X114201000Y-36385500D03*
D11*
G36*
X116303614Y-35835627D02*
X116330367Y-35839596D01*
X116356602Y-35846167D01*
X116382068Y-35855279D01*
X116406517Y-35866842D01*
X116429715Y-35880747D01*
X116451439Y-35896858D01*
X116471479Y-35915021D01*
X116489642Y-35935061D01*
X116505753Y-35956785D01*
X116519658Y-35979983D01*
X116531221Y-36004432D01*
X116540333Y-36029898D01*
X116546904Y-36056133D01*
X116550873Y-36082886D01*
X116552200Y-36109900D01*
X116552200Y-36661100D01*
X116550873Y-36688114D01*
X116546904Y-36714867D01*
X116540333Y-36741102D01*
X116531221Y-36766568D01*
X116519658Y-36791017D01*
X116505753Y-36814215D01*
X116489642Y-36835939D01*
X116471479Y-36855979D01*
X116451439Y-36874142D01*
X116429715Y-36890253D01*
X116406517Y-36904158D01*
X116382068Y-36915721D01*
X116356602Y-36924833D01*
X116330367Y-36931404D01*
X116303614Y-36935373D01*
X116276600Y-36936700D01*
X115625400Y-36936700D01*
X115598386Y-36935373D01*
X115571633Y-36931404D01*
X115545398Y-36924833D01*
X115519932Y-36915721D01*
X115495483Y-36904158D01*
X115472285Y-36890253D01*
X115450561Y-36874142D01*
X115430521Y-36855979D01*
X115412358Y-36835939D01*
X115396247Y-36814215D01*
X115382342Y-36791017D01*
X115370779Y-36766568D01*
X115361667Y-36741102D01*
X115355096Y-36714867D01*
X115351127Y-36688114D01*
X115349800Y-36661100D01*
X115349800Y-36109900D01*
X115351127Y-36082886D01*
X115355096Y-36056133D01*
X115361667Y-36029898D01*
X115370779Y-36004432D01*
X115382342Y-35979983D01*
X115396247Y-35956785D01*
X115412358Y-35935061D01*
X115430521Y-35915021D01*
X115450561Y-35896858D01*
X115472285Y-35880747D01*
X115495483Y-35866842D01*
X115519932Y-35855279D01*
X115545398Y-35846167D01*
X115571633Y-35839596D01*
X115598386Y-35835627D01*
X115625400Y-35834300D01*
X116276600Y-35834300D01*
X116303614Y-35835627D01*
X116303614Y-35835627D01*
G37*
D12*
X115951000Y-36385500D03*
G04 #@! TD*
D11*
G04 #@! TO.C,D8*
G36*
X66378614Y-153056627D02*
X66405367Y-153060596D01*
X66431602Y-153067167D01*
X66457068Y-153076279D01*
X66481517Y-153087842D01*
X66504715Y-153101747D01*
X66526439Y-153117858D01*
X66546479Y-153136021D01*
X66564642Y-153156061D01*
X66580753Y-153177785D01*
X66594658Y-153200983D01*
X66606221Y-153225432D01*
X66615333Y-153250898D01*
X66621904Y-153277133D01*
X66625873Y-153303886D01*
X66627200Y-153330900D01*
X66627200Y-153882100D01*
X66625873Y-153909114D01*
X66621904Y-153935867D01*
X66615333Y-153962102D01*
X66606221Y-153987568D01*
X66594658Y-154012017D01*
X66580753Y-154035215D01*
X66564642Y-154056939D01*
X66546479Y-154076979D01*
X66526439Y-154095142D01*
X66504715Y-154111253D01*
X66481517Y-154125158D01*
X66457068Y-154136721D01*
X66431602Y-154145833D01*
X66405367Y-154152404D01*
X66378614Y-154156373D01*
X66351600Y-154157700D01*
X65700400Y-154157700D01*
X65673386Y-154156373D01*
X65646633Y-154152404D01*
X65620398Y-154145833D01*
X65594932Y-154136721D01*
X65570483Y-154125158D01*
X65547285Y-154111253D01*
X65525561Y-154095142D01*
X65505521Y-154076979D01*
X65487358Y-154056939D01*
X65471247Y-154035215D01*
X65457342Y-154012017D01*
X65445779Y-153987568D01*
X65436667Y-153962102D01*
X65430096Y-153935867D01*
X65426127Y-153909114D01*
X65424800Y-153882100D01*
X65424800Y-153330900D01*
X65426127Y-153303886D01*
X65430096Y-153277133D01*
X65436667Y-153250898D01*
X65445779Y-153225432D01*
X65457342Y-153200983D01*
X65471247Y-153177785D01*
X65487358Y-153156061D01*
X65505521Y-153136021D01*
X65525561Y-153117858D01*
X65547285Y-153101747D01*
X65570483Y-153087842D01*
X65594932Y-153076279D01*
X65620398Y-153067167D01*
X65646633Y-153060596D01*
X65673386Y-153056627D01*
X65700400Y-153055300D01*
X66351600Y-153055300D01*
X66378614Y-153056627D01*
X66378614Y-153056627D01*
G37*
D12*
X66026000Y-153606500D03*
D11*
G36*
X64628614Y-153056627D02*
X64655367Y-153060596D01*
X64681602Y-153067167D01*
X64707068Y-153076279D01*
X64731517Y-153087842D01*
X64754715Y-153101747D01*
X64776439Y-153117858D01*
X64796479Y-153136021D01*
X64814642Y-153156061D01*
X64830753Y-153177785D01*
X64844658Y-153200983D01*
X64856221Y-153225432D01*
X64865333Y-153250898D01*
X64871904Y-153277133D01*
X64875873Y-153303886D01*
X64877200Y-153330900D01*
X64877200Y-153882100D01*
X64875873Y-153909114D01*
X64871904Y-153935867D01*
X64865333Y-153962102D01*
X64856221Y-153987568D01*
X64844658Y-154012017D01*
X64830753Y-154035215D01*
X64814642Y-154056939D01*
X64796479Y-154076979D01*
X64776439Y-154095142D01*
X64754715Y-154111253D01*
X64731517Y-154125158D01*
X64707068Y-154136721D01*
X64681602Y-154145833D01*
X64655367Y-154152404D01*
X64628614Y-154156373D01*
X64601600Y-154157700D01*
X63950400Y-154157700D01*
X63923386Y-154156373D01*
X63896633Y-154152404D01*
X63870398Y-154145833D01*
X63844932Y-154136721D01*
X63820483Y-154125158D01*
X63797285Y-154111253D01*
X63775561Y-154095142D01*
X63755521Y-154076979D01*
X63737358Y-154056939D01*
X63721247Y-154035215D01*
X63707342Y-154012017D01*
X63695779Y-153987568D01*
X63686667Y-153962102D01*
X63680096Y-153935867D01*
X63676127Y-153909114D01*
X63674800Y-153882100D01*
X63674800Y-153330900D01*
X63676127Y-153303886D01*
X63680096Y-153277133D01*
X63686667Y-153250898D01*
X63695779Y-153225432D01*
X63707342Y-153200983D01*
X63721247Y-153177785D01*
X63737358Y-153156061D01*
X63755521Y-153136021D01*
X63775561Y-153117858D01*
X63797285Y-153101747D01*
X63820483Y-153087842D01*
X63844932Y-153076279D01*
X63870398Y-153067167D01*
X63896633Y-153060596D01*
X63923386Y-153056627D01*
X63950400Y-153055300D01*
X64601600Y-153055300D01*
X64628614Y-153056627D01*
X64628614Y-153056627D01*
G37*
D12*
X64276000Y-153606500D03*
G04 #@! TD*
D36*
G04 #@! TO.C,J1*
X156376000Y-121666000D03*
D37*
X150876000Y-121666000D03*
G04 #@! TD*
D19*
G04 #@! TO.C,J9*
X42808000Y-82462000D03*
X38608000Y-82462000D03*
X42808000Y-76962000D03*
D20*
X38608000Y-76962000D03*
G04 #@! TD*
D19*
G04 #@! TO.C,J11*
X53984000Y-82462000D03*
X49784000Y-82462000D03*
X53984000Y-76962000D03*
D20*
X49784000Y-76962000D03*
G04 #@! TD*
D38*
G04 #@! TO.C,C14*
X81470500Y-83502500D03*
D39*
X88970500Y-83502500D03*
G04 #@! TD*
G04 #@! TO.C,C25*
X88716500Y-140208000D03*
D38*
X81216500Y-140208000D03*
G04 #@! TD*
G04 #@! TO.C,C26*
X127825500Y-130238500D03*
D39*
X120325500Y-130238500D03*
G04 #@! TD*
G04 #@! TO.C,C27*
X89535000Y-37204000D03*
D38*
X89535000Y-44704000D03*
G04 #@! TD*
D40*
G04 #@! TO.C,J5*
X120523000Y-51054000D03*
D41*
X122523000Y-51054000D03*
X124523000Y-51054000D03*
G04 #@! TD*
D42*
G04 #@! TO.C,J12*
X58857501Y-48860001D03*
D43*
X61397501Y-48860001D03*
X63937501Y-48860001D03*
X66477501Y-48860001D03*
G04 #@! TD*
G04 #@! TO.C,J13*
X78157501Y-48860001D03*
X75617501Y-48860001D03*
X73077501Y-48860001D03*
D42*
X70537501Y-48860001D03*
G04 #@! TD*
D44*
G36*
X143002000Y-100457000D02*
X114427000Y-100457000D01*
X114427000Y-96139000D01*
X143002000Y-96139000D01*
X143002000Y-100457000D01*
X143002000Y-100457000D01*
G37*
X143002000Y-100457000D02*
X114427000Y-100457000D01*
X114427000Y-96139000D01*
X143002000Y-96139000D01*
X143002000Y-100457000D01*
G36*
X143002000Y-107188000D02*
X114427000Y-107188000D01*
X114427000Y-103251000D01*
X143002000Y-103251000D01*
X143002000Y-107188000D01*
X143002000Y-107188000D01*
G37*
X143002000Y-107188000D02*
X114427000Y-107188000D01*
X114427000Y-103251000D01*
X143002000Y-103251000D01*
X143002000Y-107188000D01*
M02*
