G04 #@! TF.GenerationSoftware,KiCad,Pcbnew,(5.0.0)*
G04 #@! TF.CreationDate,2019-02-17T15:18:15-05:00*
G04 #@! TF.ProjectId,control board power,636F6E74726F6C20626F61726420706F,rev?*
G04 #@! TF.SameCoordinates,Original*
G04 #@! TF.FileFunction,Soldermask,Bot*
G04 #@! TF.FilePolarity,Negative*
%FSLAX46Y46*%
G04 Gerber Fmt 4.6, Leading zero omitted, Abs format (unit mm)*
G04 Created by KiCad (PCBNEW (5.0.0)) date 02/17/19 15:18:15*
%MOMM*%
%LPD*%
G01*
G04 APERTURE LIST*
%ADD10C,1.502400*%
%ADD11R,1.502400X1.502400*%
%ADD12C,6.552400*%
%ADD13O,1.852400X1.852400*%
%ADD14R,1.852400X1.852400*%
%ADD15O,2.402400X4.652400*%
%ADD16O,4.652400X2.402400*%
%ADD17O,5.152400X2.652400*%
%ADD18C,3.152400*%
%ADD19O,2.852400X3.452400*%
%ADD20R,2.852400X3.452400*%
%ADD21C,3.352400*%
%ADD22C,1.676400*%
%ADD23C,4.851400*%
%ADD24R,3.452400X2.852400*%
%ADD25O,3.452400X2.852400*%
G04 APERTURE END LIST*
D10*
G04 #@! TO.C,J5*
X128523000Y-51054000D03*
X126523000Y-51054000D03*
X124523000Y-51054000D03*
X122523000Y-51054000D03*
D11*
X120523000Y-51054000D03*
G04 #@! TD*
D12*
G04 #@! TO.C,REF\002A\002A*
X143510000Y-62738000D03*
G04 #@! TD*
G04 #@! TO.C,REF\002A\002A*
X60960000Y-62738000D03*
G04 #@! TD*
G04 #@! TO.C,REF\002A\002A*
X143510000Y-138938000D03*
G04 #@! TD*
G04 #@! TO.C,REF\002A\002A*
X60960000Y-138938000D03*
G04 #@! TD*
D13*
G04 #@! TO.C,J2*
X81534000Y-82042000D03*
D14*
X78994000Y-82042000D03*
G04 #@! TD*
D15*
G04 #@! TO.C,J3*
X100075000Y-48181000D03*
D16*
X104775000Y-45181000D03*
D17*
X104775000Y-51181000D03*
G04 #@! TD*
D18*
G04 #@! TO.C,J6*
X60099000Y-122087000D03*
X38099000Y-122087000D03*
D19*
X55399000Y-121627000D03*
X51199000Y-121627000D03*
X46999000Y-121627000D03*
X42799000Y-121627000D03*
X55399000Y-127127000D03*
X51199000Y-127127000D03*
X46999000Y-127127000D03*
D20*
X42799000Y-127127000D03*
G04 #@! TD*
D21*
G04 #@! TO.C,L1*
X72486000Y-68580000D03*
X78486000Y-68580000D03*
G04 #@! TD*
G04 #@! TO.C,L2*
X82519000Y-122428000D03*
X88519000Y-122428000D03*
G04 #@! TD*
D22*
G04 #@! TO.C,U2*
X90932000Y-60579000D03*
G04 #@! TD*
G04 #@! TO.C,U3*
X99822000Y-121666000D03*
G04 #@! TD*
D19*
G04 #@! TO.C,J10*
X106045000Y-63793000D03*
D20*
X106045000Y-58293000D03*
G04 #@! TD*
D23*
G04 #@! TO.C,TB1*
X162077400Y-96494600D03*
X162077400Y-107213400D03*
X39852600Y-96494600D03*
X39852600Y-107213400D03*
G04 #@! TD*
D19*
G04 #@! TO.C,J4*
X124206000Y-76923000D03*
D20*
X124206000Y-82423000D03*
G04 #@! TD*
D19*
G04 #@! TO.C,J17*
X141351000Y-76923000D03*
D20*
X141351000Y-82423000D03*
G04 #@! TD*
D24*
G04 #@! TO.C,J1*
X150876000Y-121666000D03*
D25*
X156376000Y-121666000D03*
G04 #@! TD*
D19*
G04 #@! TO.C,J9*
X42808000Y-82462000D03*
X38608000Y-82462000D03*
X42808000Y-76962000D03*
D20*
X38608000Y-76962000D03*
G04 #@! TD*
G04 #@! TO.C,J11*
X49784000Y-76962000D03*
D19*
X53984000Y-76962000D03*
X49784000Y-82462000D03*
X53984000Y-82462000D03*
G04 #@! TD*
M02*
