M48
;DRILL file {KiCad (5.0.0)} date 03/11/19 00:02:14
;FORMAT={-:-/ absolute / inch / decimal}
FMAT,2
INCH,TZ
T1C0.0157
T2C0.0236
T3C0.0315
T4C0.0394
T5C0.0433
T6C0.0472
T7C0.0551
T8C0.0591
T9C0.0630
T10C0.1260
T11C0.1181
T12C0.1850
%
G90
G05
M72
T1
X1.8183Y-3.792
X1.8183Y-3.827
X1.8183Y-3.8628
X1.8183Y-3.8983
X1.8616Y-3.792
X1.8616Y-3.827
X1.8616Y-3.8628
X1.8616Y-3.8983
X1.8825Y-5.0925
X1.8825Y-5.2375
X2.04Y-5.0925
X2.04Y-5.24
X2.055Y-4.09
X2.0725Y-3.935
X2.11Y-3.935
X2.22Y-3.955
X2.2625Y-5.0925
X2.2625Y-5.2375
X2.65Y-5.8
X2.65Y-5.9175
X2.65Y-6.0475
X2.65Y-6.175
X2.925Y-2.33
X3.205Y-2.28
X3.22Y-2.235
X3.305Y-2.4
X3.325Y-2.51
X3.325Y-2.85
X3.34Y-2.29
X3.35Y-2.16
X3.365Y-2.48
X3.365Y-2.93
X3.39Y-2.285
X3.4Y-2.51
X3.4Y-2.85
X3.52Y-2.345
X3.52Y-2.385
X3.52Y-2.425
X3.5426Y-2.5311
X3.5594Y-2.425
X3.56Y-2.345
X3.5987Y-2.425
X3.6Y-2.345
X3.605Y-2.23
X3.6381Y-2.345
X3.6381Y-2.385
X3.6381Y-2.425
X3.665Y-4.675
X3.675Y-2.155
X3.7706Y-4.6966
X3.78Y-2.305
X3.79Y-4.66
X3.865Y-4.34
X3.885Y-4.56
X3.89Y-4.73
X3.89Y-4.7694
X3.89Y-4.8087
X3.89Y-4.8481
X3.93Y-4.73
X3.93Y-4.8481
X3.9498Y-4.3402
X3.97Y-4.73
X3.97Y-4.77
X3.97Y-4.81
X3.97Y-4.8481
X4.007Y-4.978
X4.01Y-4.6
X4.045Y-4.3535
X4.045Y-4.56
X4.045Y-4.95
X4.1Y-4.77
X4.425Y-2.2
X4.44Y-1.4325
X4.44Y-1.6575
X4.4692Y-2.4542
X4.4692Y-2.5211
X4.4692Y-2.5881
X4.4692Y-2.655
X4.5361Y-2.4542
X4.5361Y-2.5211
X4.5361Y-2.5881
X4.5361Y-2.655
X4.6031Y-2.4542
X4.6031Y-2.5211
X4.6031Y-2.5881
X4.6031Y-2.655
X4.67Y-2.4542
X4.67Y-2.5211
X4.67Y-2.5881
X4.67Y-2.655
X4.79Y-2.2
X5.0942Y-2.4642
X5.0942Y-2.5311
X5.0942Y-2.5981
X5.0942Y-2.665
X5.1611Y-2.4642
X5.1611Y-2.5311
X5.1611Y-2.5981
X5.1611Y-2.665
X5.2281Y-2.4642
X5.2281Y-2.5311
X5.2281Y-2.5981
X5.2281Y-2.665
X5.295Y-2.4642
X5.295Y-2.5311
X5.295Y-2.5981
X5.295Y-2.665
T2
X3.635Y-5.03
T3
X3.9Y-2.625
X4.745Y-2.01
X4.8237Y-2.01
X4.9025Y-2.01
T4
X2.52Y-3.315
X2.62Y-3.315
X3.94Y-1.8969
X4.125Y-1.7788
X4.125Y-2.015
T5
X2.7771Y-1.9236
X2.8771Y-1.9236
X2.9771Y-1.9236
X3.0771Y-1.9236
X2.3172Y-1.9236
X2.4172Y-1.9236
X2.5172Y-1.9236
X2.6172Y-1.9236
T6
X1.97Y-3.37
X1.97Y-3.62
X2.2275Y-4.635
X2.385Y-2.75
X2.385Y-2.84
X2.385Y-2.93
X2.385Y-3.02
X2.385Y-3.11
X2.42Y-5.13
X2.4225Y-4.1775
X2.4225Y-4.5425
X2.865Y-5.13
X3.395Y-4.195
X3.395Y-4.33
X3.395Y-4.465
X3.495Y-4.195
X3.495Y-4.285
X3.495Y-4.375
X3.495Y-4.465
X3.78Y-2.75
X3.78Y-2.84
X3.78Y-2.93
X3.89Y-5.49
X3.89Y-5.59
X4.025Y-5.49
X4.025Y-5.59
X4.555Y-2.305
X4.87Y-3.46
X5.175Y-2.32
X5.495Y-3.485
X3.525Y-1.4647
X3.525Y-1.76
X4.7372Y-5.1275
X5.0325Y-5.1275
X3.2075Y-3.2875
X3.5028Y-3.2875
X3.1975Y-5.52
X3.4928Y-5.52
T7
X5.565Y-3.0285
X5.565Y-3.245
X4.89Y-3.0285
X4.89Y-3.245
X5.94Y-4.79
X6.1565Y-4.79
X1.6364Y-4.7735
X1.6364Y-4.99
X1.8018Y-4.7735
X1.8018Y-4.99
X1.9671Y-4.7735
X1.9671Y-4.99
X2.1325Y-4.7735
X2.1325Y-4.99
X1.96Y-3.03
X1.96Y-3.2465
X2.1254Y-3.03
X2.1254Y-3.2465
X1.52Y-3.03
X1.52Y-3.2465
X1.6854Y-3.03
X1.6854Y-3.2465
X4.175Y-2.295
X4.175Y-2.5115
T8
X3.93Y-4.79
X3.58Y-2.385
T9
X2.8538Y-2.7
X3.09Y-2.7
X3.2488Y-4.82
X3.485Y-4.82
T10
X5.65Y-5.47
X2.4Y-2.47
X5.65Y-2.47
X2.4Y-5.47
T11
X1.4514Y-4.7916
X2.3175Y-4.7916
T12
X1.569Y-3.799
X1.569Y-4.221
X6.381Y-3.799
X6.381Y-4.221
T0
M30
