G04 #@! TF.GenerationSoftware,KiCad,Pcbnew,(5.0.0)*
G04 #@! TF.CreationDate,2019-03-12T00:11:34-04:00*
G04 #@! TF.ProjectId,control board power,636F6E74726F6C20626F61726420706F,rev?*
G04 #@! TF.SameCoordinates,Original*
G04 #@! TF.FileFunction,Soldermask,Bot*
G04 #@! TF.FilePolarity,Negative*
%FSLAX46Y46*%
G04 Gerber Fmt 4.6, Leading zero omitted, Abs format (unit mm)*
G04 Created by KiCad (PCBNEW (5.0.0)) date 03/12/19 00:11:34*
%MOMM*%
%LPD*%
G01*
G04 APERTURE LIST*
%ADD10C,6.552400*%
%ADD11O,1.852400X1.852400*%
%ADD12R,1.852400X1.852400*%
%ADD13O,2.402400X4.652400*%
%ADD14O,4.652400X2.402400*%
%ADD15O,5.152400X2.652400*%
%ADD16C,3.152400*%
%ADD17O,2.852400X3.452400*%
%ADD18R,2.852400X3.452400*%
%ADD19C,3.352400*%
%ADD20R,3.752400X2.752400*%
%ADD21C,1.676400*%
%ADD22R,2.752400X3.752400*%
%ADD23C,4.851400*%
%ADD24O,3.452400X2.852400*%
%ADD25R,3.452400X2.852400*%
%ADD26R,2.552400X2.552400*%
%ADD27C,2.552400*%
%ADD28R,1.502400X1.502400*%
%ADD29C,1.502400*%
%ADD30R,2.252400X2.252400*%
%ADD31C,2.252400*%
G04 APERTURE END LIST*
D10*
G04 #@! TO.C,REF\002A\002A*
X60960000Y-138938000D03*
G04 #@! TD*
G04 #@! TO.C,REF\002A\002A*
X143510000Y-62738000D03*
G04 #@! TD*
G04 #@! TO.C,REF\002A\002A*
X60960000Y-62738000D03*
G04 #@! TD*
G04 #@! TO.C,REF\002A\002A*
X143510000Y-138938000D03*
G04 #@! TD*
D11*
G04 #@! TO.C,J2*
X64008000Y-84201000D03*
D12*
X66548000Y-84201000D03*
G04 #@! TD*
D13*
G04 #@! TO.C,J3*
X100075000Y-48181000D03*
D14*
X104775000Y-45181000D03*
D15*
X104775000Y-51181000D03*
G04 #@! TD*
D16*
G04 #@! TO.C,J6*
X36865500Y-121706000D03*
X58865500Y-121706000D03*
D17*
X41565500Y-121246000D03*
X45765500Y-121246000D03*
X49965500Y-121246000D03*
X54165500Y-121246000D03*
X41565500Y-126746000D03*
X45765500Y-126746000D03*
X49965500Y-126746000D03*
D18*
X54165500Y-126746000D03*
G04 #@! TD*
D19*
G04 #@! TO.C,L1*
X72486000Y-68580000D03*
X78486000Y-68580000D03*
G04 #@! TD*
G04 #@! TO.C,L2*
X82519000Y-122428000D03*
X88519000Y-122428000D03*
G04 #@! TD*
D20*
G04 #@! TO.C,U2*
X90932000Y-60579000D03*
D21*
X90932000Y-60579000D03*
G04 #@! TD*
D22*
G04 #@! TO.C,U3*
X99822000Y-121666000D03*
D21*
X99822000Y-121666000D03*
G04 #@! TD*
D17*
G04 #@! TO.C,J10*
X106045000Y-63793000D03*
D18*
X106045000Y-58293000D03*
G04 #@! TD*
D23*
G04 #@! TO.C,TB1*
X162077400Y-96494600D03*
X162077400Y-107213400D03*
X39852600Y-96494600D03*
X39852600Y-107213400D03*
G04 #@! TD*
D17*
G04 #@! TO.C,J4*
X124206000Y-76923000D03*
D18*
X124206000Y-82423000D03*
G04 #@! TD*
D17*
G04 #@! TO.C,J17*
X141351000Y-76923000D03*
D18*
X141351000Y-82423000D03*
G04 #@! TD*
D24*
G04 #@! TO.C,J1*
X156376000Y-121666000D03*
D25*
X150876000Y-121666000D03*
G04 #@! TD*
D17*
G04 #@! TO.C,J9*
X42808000Y-82462000D03*
X38608000Y-82462000D03*
X42808000Y-76962000D03*
D18*
X38608000Y-76962000D03*
G04 #@! TD*
D17*
G04 #@! TO.C,J11*
X53984000Y-82462000D03*
X49784000Y-82462000D03*
X53984000Y-76962000D03*
D18*
X49784000Y-76962000D03*
G04 #@! TD*
D26*
G04 #@! TO.C,C14*
X81470500Y-83502500D03*
D27*
X88970500Y-83502500D03*
G04 #@! TD*
G04 #@! TO.C,C25*
X88716500Y-140208000D03*
D26*
X81216500Y-140208000D03*
G04 #@! TD*
G04 #@! TO.C,C26*
X127825500Y-130238500D03*
D27*
X120325500Y-130238500D03*
G04 #@! TD*
G04 #@! TO.C,C27*
X89535000Y-37204000D03*
D26*
X89535000Y-44704000D03*
G04 #@! TD*
D28*
G04 #@! TO.C,J5*
X120523000Y-51054000D03*
D29*
X122523000Y-51054000D03*
X124523000Y-51054000D03*
G04 #@! TD*
D30*
G04 #@! TO.C,J12*
X58857501Y-48860001D03*
D31*
X61397501Y-48860001D03*
X63937501Y-48860001D03*
X66477501Y-48860001D03*
G04 #@! TD*
G04 #@! TO.C,J13*
X78157501Y-48860001D03*
X75617501Y-48860001D03*
X73077501Y-48860001D03*
D30*
X70537501Y-48860001D03*
G04 #@! TD*
M02*
