G04 #@! TF.GenerationSoftware,KiCad,Pcbnew,(5.0.0)*
G04 #@! TF.CreationDate,2019-02-17T15:18:15-05:00*
G04 #@! TF.ProjectId,control board power,636F6E74726F6C20626F61726420706F,rev?*
G04 #@! TF.SameCoordinates,Original*
G04 #@! TF.FileFunction,Legend,Top*
G04 #@! TF.FilePolarity,Positive*
%FSLAX46Y46*%
G04 Gerber Fmt 4.6, Leading zero omitted, Abs format (unit mm)*
G04 Created by KiCad (PCBNEW (5.0.0)) date 02/17/19 15:18:15*
%MOMM*%
%LPD*%
G01*
G04 APERTURE LIST*
%ADD10C,0.300000*%
%ADD11C,0.150000*%
%ADD12C,0.120000*%
%ADD13C,0.400000*%
%ADD14C,0.127000*%
%ADD15C,0.100000*%
%ADD16C,0.050000*%
%ADD17C,0.152400*%
G04 APERTURE END LIST*
D10*
X130409142Y-91967857D02*
X130623428Y-92039285D01*
X130694857Y-92110714D01*
X130766285Y-92253571D01*
X130766285Y-92467857D01*
X130694857Y-92610714D01*
X130623428Y-92682142D01*
X130480571Y-92753571D01*
X129909142Y-92753571D01*
X129909142Y-91253571D01*
X130409142Y-91253571D01*
X130552000Y-91325000D01*
X130623428Y-91396428D01*
X130694857Y-91539285D01*
X130694857Y-91682142D01*
X130623428Y-91825000D01*
X130552000Y-91896428D01*
X130409142Y-91967857D01*
X129909142Y-91967857D01*
X113053857Y-92452000D02*
X113768142Y-92452000D01*
X112911000Y-92880571D02*
X113411000Y-91380571D01*
X113911000Y-92880571D01*
X110688571Y-104961571D02*
X110688571Y-105961571D01*
X110331428Y-104390142D02*
X109974285Y-105461571D01*
X110902857Y-105461571D01*
X111688571Y-105104428D02*
X111545714Y-105033000D01*
X111474285Y-104961571D01*
X111402857Y-104818714D01*
X111402857Y-104747285D01*
X111474285Y-104604428D01*
X111545714Y-104533000D01*
X111688571Y-104461571D01*
X111974285Y-104461571D01*
X112117142Y-104533000D01*
X112188571Y-104604428D01*
X112260000Y-104747285D01*
X112260000Y-104818714D01*
X112188571Y-104961571D01*
X112117142Y-105033000D01*
X111974285Y-105104428D01*
X111688571Y-105104428D01*
X111545714Y-105175857D01*
X111474285Y-105247285D01*
X111402857Y-105390142D01*
X111402857Y-105675857D01*
X111474285Y-105818714D01*
X111545714Y-105890142D01*
X111688571Y-105961571D01*
X111974285Y-105961571D01*
X112117142Y-105890142D01*
X112188571Y-105818714D01*
X112260000Y-105675857D01*
X112260000Y-105390142D01*
X112188571Y-105247285D01*
X112117142Y-105175857D01*
X111974285Y-105104428D01*
X112688571Y-104461571D02*
X113188571Y-105961571D01*
X113688571Y-104461571D01*
X109847285Y-98127428D02*
X109918714Y-98056000D01*
X110061571Y-97984571D01*
X110418714Y-97984571D01*
X110561571Y-98056000D01*
X110633000Y-98127428D01*
X110704428Y-98270285D01*
X110704428Y-98413142D01*
X110633000Y-98627428D01*
X109775857Y-99484571D01*
X110704428Y-99484571D01*
X111990142Y-98484571D02*
X111990142Y-99484571D01*
X111633000Y-97913142D02*
X111275857Y-98984571D01*
X112204428Y-98984571D01*
X112561571Y-97984571D02*
X113061571Y-99484571D01*
X113561571Y-97984571D01*
D11*
X110298809Y-35551619D02*
X110298809Y-36551619D01*
X110060714Y-36551619D01*
X109917857Y-36504000D01*
X109822619Y-36408761D01*
X109775000Y-36313523D01*
X109727380Y-36123047D01*
X109727380Y-35980190D01*
X109775000Y-35789714D01*
X109822619Y-35694476D01*
X109917857Y-35599238D01*
X110060714Y-35551619D01*
X110298809Y-35551619D01*
X109298809Y-35551619D02*
X109298809Y-36218285D01*
X109298809Y-36551619D02*
X109346428Y-36504000D01*
X109298809Y-36456380D01*
X109251190Y-36504000D01*
X109298809Y-36551619D01*
X109298809Y-36456380D01*
X108394047Y-35551619D02*
X108394047Y-36551619D01*
X108394047Y-35599238D02*
X108489285Y-35551619D01*
X108679761Y-35551619D01*
X108775000Y-35599238D01*
X108822619Y-35646857D01*
X108870238Y-35742095D01*
X108870238Y-36027809D01*
X108822619Y-36123047D01*
X108775000Y-36170666D01*
X108679761Y-36218285D01*
X108489285Y-36218285D01*
X108394047Y-36170666D01*
X107251190Y-36218285D02*
X107013095Y-35551619D01*
X106775000Y-36218285D02*
X107013095Y-35551619D01*
X107108333Y-35313523D01*
X107155952Y-35265904D01*
X107251190Y-35218285D01*
X106251190Y-35551619D02*
X106346428Y-35599238D01*
X106394047Y-35646857D01*
X106441666Y-35742095D01*
X106441666Y-36027809D01*
X106394047Y-36123047D01*
X106346428Y-36170666D01*
X106251190Y-36218285D01*
X106108333Y-36218285D01*
X106013095Y-36170666D01*
X105965476Y-36123047D01*
X105917857Y-36027809D01*
X105917857Y-35742095D01*
X105965476Y-35646857D01*
X106013095Y-35599238D01*
X106108333Y-35551619D01*
X106251190Y-35551619D01*
X105060714Y-36218285D02*
X105060714Y-35551619D01*
X105489285Y-36218285D02*
X105489285Y-35694476D01*
X105441666Y-35599238D01*
X105346428Y-35551619D01*
X105203571Y-35551619D01*
X105108333Y-35599238D01*
X105060714Y-35646857D01*
X103394047Y-36218285D02*
X103394047Y-35551619D01*
X103822619Y-36218285D02*
X103822619Y-35694476D01*
X103775000Y-35599238D01*
X103679761Y-35551619D01*
X103536904Y-35551619D01*
X103441666Y-35599238D01*
X103394047Y-35646857D01*
X102917857Y-36218285D02*
X102917857Y-35551619D01*
X102917857Y-36123047D02*
X102870238Y-36170666D01*
X102775000Y-36218285D01*
X102632142Y-36218285D01*
X102536904Y-36170666D01*
X102489285Y-36075428D01*
X102489285Y-35551619D01*
X102013095Y-36218285D02*
X102013095Y-35218285D01*
X102013095Y-36170666D02*
X101917857Y-36218285D01*
X101727380Y-36218285D01*
X101632142Y-36170666D01*
X101584523Y-36123047D01*
X101536904Y-36027809D01*
X101536904Y-35742095D01*
X101584523Y-35646857D01*
X101632142Y-35599238D01*
X101727380Y-35551619D01*
X101917857Y-35551619D01*
X102013095Y-35599238D01*
X100965476Y-35551619D02*
X101060714Y-35599238D01*
X101108333Y-35694476D01*
X101108333Y-36551619D01*
X100155952Y-36218285D02*
X100155952Y-35551619D01*
X100584523Y-36218285D02*
X100584523Y-35694476D01*
X100536904Y-35599238D01*
X100441666Y-35551619D01*
X100298809Y-35551619D01*
X100203571Y-35599238D01*
X100155952Y-35646857D01*
X99251190Y-36218285D02*
X99251190Y-35408761D01*
X99298809Y-35313523D01*
X99346428Y-35265904D01*
X99441666Y-35218285D01*
X99584523Y-35218285D01*
X99679761Y-35265904D01*
X99251190Y-35599238D02*
X99346428Y-35551619D01*
X99536904Y-35551619D01*
X99632142Y-35599238D01*
X99679761Y-35646857D01*
X99727380Y-35742095D01*
X99727380Y-36027809D01*
X99679761Y-36123047D01*
X99632142Y-36170666D01*
X99536904Y-36218285D01*
X99346428Y-36218285D01*
X99251190Y-36170666D01*
X108036904Y-34568285D02*
X107655952Y-34568285D01*
X107894047Y-34901619D02*
X107894047Y-34044476D01*
X107846428Y-33949238D01*
X107751190Y-33901619D01*
X107655952Y-33901619D01*
X107322619Y-33901619D02*
X107322619Y-34901619D01*
X106894047Y-33901619D02*
X106894047Y-34425428D01*
X106941666Y-34520666D01*
X107036904Y-34568285D01*
X107179761Y-34568285D01*
X107275000Y-34520666D01*
X107322619Y-34473047D01*
X106036904Y-33949238D02*
X106132142Y-33901619D01*
X106322619Y-33901619D01*
X106417857Y-33949238D01*
X106465476Y-34044476D01*
X106465476Y-34425428D01*
X106417857Y-34520666D01*
X106322619Y-34568285D01*
X106132142Y-34568285D01*
X106036904Y-34520666D01*
X105989285Y-34425428D01*
X105989285Y-34330190D01*
X106465476Y-34234952D01*
X104370238Y-34568285D02*
X104370238Y-33901619D01*
X104608333Y-34949238D02*
X104846428Y-34234952D01*
X104227380Y-34234952D01*
X103703571Y-34473047D02*
X103798809Y-34520666D01*
X103846428Y-34568285D01*
X103894047Y-34663523D01*
X103894047Y-34711142D01*
X103846428Y-34806380D01*
X103798809Y-34854000D01*
X103703571Y-34901619D01*
X103513095Y-34901619D01*
X103417857Y-34854000D01*
X103370238Y-34806380D01*
X103322619Y-34711142D01*
X103322619Y-34663523D01*
X103370238Y-34568285D01*
X103417857Y-34520666D01*
X103513095Y-34473047D01*
X103703571Y-34473047D01*
X103798809Y-34425428D01*
X103846428Y-34377809D01*
X103894047Y-34282571D01*
X103894047Y-34092095D01*
X103846428Y-33996857D01*
X103798809Y-33949238D01*
X103703571Y-33901619D01*
X103513095Y-33901619D01*
X103417857Y-33949238D01*
X103370238Y-33996857D01*
X103322619Y-34092095D01*
X103322619Y-34282571D01*
X103370238Y-34377809D01*
X103417857Y-34425428D01*
X103513095Y-34473047D01*
X103036904Y-34901619D02*
X102703571Y-33901619D01*
X102370238Y-34901619D01*
X101894047Y-33996857D02*
X101846428Y-33949238D01*
X101894047Y-33901619D01*
X101941666Y-33949238D01*
X101894047Y-33996857D01*
X101894047Y-33901619D01*
X102084523Y-34854000D02*
X101989285Y-34901619D01*
X101751190Y-34901619D01*
X101655952Y-34854000D01*
X101608333Y-34758761D01*
X101608333Y-34663523D01*
X101655952Y-34568285D01*
X101703571Y-34520666D01*
X101798809Y-34473047D01*
X101846428Y-34425428D01*
X101894047Y-34330190D01*
X101894047Y-34282571D01*
D10*
X73569142Y-141561428D02*
X73640571Y-141490000D01*
X73783428Y-141418571D01*
X74140571Y-141418571D01*
X74283428Y-141490000D01*
X74354857Y-141561428D01*
X74426285Y-141704285D01*
X74426285Y-141847142D01*
X74354857Y-142061428D01*
X73497714Y-142918571D01*
X74426285Y-142918571D01*
X75712000Y-141918571D02*
X75712000Y-142918571D01*
X75354857Y-141347142D02*
X74997714Y-142418571D01*
X75926285Y-142418571D01*
X76283428Y-141418571D02*
X76783428Y-142918571D01*
X77283428Y-141418571D01*
X78926285Y-142918571D02*
X78926285Y-141418571D01*
X79640571Y-141918571D02*
X79640571Y-142918571D01*
X79640571Y-142061428D02*
X79712000Y-141990000D01*
X79854857Y-141918571D01*
X80069142Y-141918571D01*
X80212000Y-141990000D01*
X80283428Y-142132857D01*
X80283428Y-142918571D01*
X68505000Y-147252571D02*
X68505000Y-148252571D01*
X68147857Y-146681142D02*
X67790714Y-147752571D01*
X68719285Y-147752571D01*
X69505000Y-147395428D02*
X69362142Y-147324000D01*
X69290714Y-147252571D01*
X69219285Y-147109714D01*
X69219285Y-147038285D01*
X69290714Y-146895428D01*
X69362142Y-146824000D01*
X69505000Y-146752571D01*
X69790714Y-146752571D01*
X69933571Y-146824000D01*
X70005000Y-146895428D01*
X70076428Y-147038285D01*
X70076428Y-147109714D01*
X70005000Y-147252571D01*
X69933571Y-147324000D01*
X69790714Y-147395428D01*
X69505000Y-147395428D01*
X69362142Y-147466857D01*
X69290714Y-147538285D01*
X69219285Y-147681142D01*
X69219285Y-147966857D01*
X69290714Y-148109714D01*
X69362142Y-148181142D01*
X69505000Y-148252571D01*
X69790714Y-148252571D01*
X69933571Y-148181142D01*
X70005000Y-148109714D01*
X70076428Y-147966857D01*
X70076428Y-147681142D01*
X70005000Y-147538285D01*
X69933571Y-147466857D01*
X69790714Y-147395428D01*
X70505000Y-146752571D02*
X71005000Y-148252571D01*
X71505000Y-146752571D01*
X67790714Y-149943428D02*
X67862142Y-149872000D01*
X68005000Y-149800571D01*
X68362142Y-149800571D01*
X68505000Y-149872000D01*
X68576428Y-149943428D01*
X68647857Y-150086285D01*
X68647857Y-150229142D01*
X68576428Y-150443428D01*
X67719285Y-151300571D01*
X68647857Y-151300571D01*
X69933571Y-150300571D02*
X69933571Y-151300571D01*
X69576428Y-149729142D02*
X69219285Y-150800571D01*
X70147857Y-150800571D01*
X70505000Y-149800571D02*
X71005000Y-151300571D01*
X71505000Y-149800571D01*
X68576428Y-152848571D02*
X67862142Y-152848571D01*
X67790714Y-153562857D01*
X67862142Y-153491428D01*
X68005000Y-153420000D01*
X68362142Y-153420000D01*
X68505000Y-153491428D01*
X68576428Y-153562857D01*
X68647857Y-153705714D01*
X68647857Y-154062857D01*
X68576428Y-154205714D01*
X68505000Y-154277142D01*
X68362142Y-154348571D01*
X68005000Y-154348571D01*
X67862142Y-154277142D01*
X67790714Y-154205714D01*
X69076428Y-152848571D02*
X69576428Y-154348571D01*
X70076428Y-152848571D01*
X67719285Y-155896571D02*
X68647857Y-155896571D01*
X68147857Y-156468000D01*
X68362142Y-156468000D01*
X68505000Y-156539428D01*
X68576428Y-156610857D01*
X68647857Y-156753714D01*
X68647857Y-157110857D01*
X68576428Y-157253714D01*
X68505000Y-157325142D01*
X68362142Y-157396571D01*
X67933571Y-157396571D01*
X67790714Y-157325142D01*
X67719285Y-157253714D01*
X69290714Y-157253714D02*
X69362142Y-157325142D01*
X69290714Y-157396571D01*
X69219285Y-157325142D01*
X69290714Y-157253714D01*
X69290714Y-157396571D01*
X69862142Y-155896571D02*
X70790714Y-155896571D01*
X70290714Y-156468000D01*
X70505000Y-156468000D01*
X70647857Y-156539428D01*
X70719285Y-156610857D01*
X70790714Y-156753714D01*
X70790714Y-157110857D01*
X70719285Y-157253714D01*
X70647857Y-157325142D01*
X70505000Y-157396571D01*
X70076428Y-157396571D01*
X69933571Y-157325142D01*
X69862142Y-157253714D01*
X71219285Y-155896571D02*
X71719285Y-157396571D01*
X72219285Y-155896571D01*
X112803857Y-37882285D02*
X112732428Y-38096571D01*
X112732428Y-38453714D01*
X112803857Y-38596571D01*
X112875285Y-38668000D01*
X113018142Y-38739428D01*
X113161000Y-38739428D01*
X113303857Y-38668000D01*
X113375285Y-38596571D01*
X113446714Y-38453714D01*
X113518142Y-38168000D01*
X113589571Y-38025142D01*
X113661000Y-37953714D01*
X113803857Y-37882285D01*
X113946714Y-37882285D01*
X114089571Y-37953714D01*
X114161000Y-38025142D01*
X114232428Y-38168000D01*
X114232428Y-38525142D01*
X114161000Y-38739428D01*
X113732428Y-39239428D02*
X112732428Y-39525142D01*
X113446714Y-39810857D01*
X112732428Y-40096571D01*
X113732428Y-40382285D01*
X112732428Y-40953714D02*
X113732428Y-40953714D01*
X114232428Y-40953714D02*
X114161000Y-40882285D01*
X114089571Y-40953714D01*
X114161000Y-41025142D01*
X114232428Y-40953714D01*
X114089571Y-40953714D01*
X113732428Y-41453714D02*
X113732428Y-42025142D01*
X114232428Y-41668000D02*
X112946714Y-41668000D01*
X112803857Y-41739428D01*
X112732428Y-41882285D01*
X112732428Y-42025142D01*
X112803857Y-43168000D02*
X112732428Y-43025142D01*
X112732428Y-42739428D01*
X112803857Y-42596571D01*
X112875285Y-42525142D01*
X113018142Y-42453714D01*
X113446714Y-42453714D01*
X113589571Y-42525142D01*
X113661000Y-42596571D01*
X113732428Y-42739428D01*
X113732428Y-43025142D01*
X113661000Y-43168000D01*
X112732428Y-43810857D02*
X114232428Y-43810857D01*
X112732428Y-44453714D02*
X113518142Y-44453714D01*
X113661000Y-44382285D01*
X113732428Y-44239428D01*
X113732428Y-44025142D01*
X113661000Y-43882285D01*
X113589571Y-43810857D01*
X113161000Y-46239428D02*
X113161000Y-46953714D01*
X112732428Y-46096571D02*
X114232428Y-46596571D01*
X112732428Y-47096571D01*
X118518857Y-37902142D02*
X118447428Y-38116428D01*
X118447428Y-38473571D01*
X118518857Y-38616428D01*
X118590285Y-38687857D01*
X118733142Y-38759285D01*
X118876000Y-38759285D01*
X119018857Y-38687857D01*
X119090285Y-38616428D01*
X119161714Y-38473571D01*
X119233142Y-38187857D01*
X119304571Y-38045000D01*
X119376000Y-37973571D01*
X119518857Y-37902142D01*
X119661714Y-37902142D01*
X119804571Y-37973571D01*
X119876000Y-38045000D01*
X119947428Y-38187857D01*
X119947428Y-38545000D01*
X119876000Y-38759285D01*
X119447428Y-39259285D02*
X118447428Y-39545000D01*
X119161714Y-39830714D01*
X118447428Y-40116428D01*
X119447428Y-40402142D01*
X118447428Y-40973571D02*
X119447428Y-40973571D01*
X119947428Y-40973571D02*
X119876000Y-40902142D01*
X119804571Y-40973571D01*
X119876000Y-41045000D01*
X119947428Y-40973571D01*
X119804571Y-40973571D01*
X119447428Y-41473571D02*
X119447428Y-42045000D01*
X119947428Y-41687857D02*
X118661714Y-41687857D01*
X118518857Y-41759285D01*
X118447428Y-41902142D01*
X118447428Y-42045000D01*
X118518857Y-43187857D02*
X118447428Y-43045000D01*
X118447428Y-42759285D01*
X118518857Y-42616428D01*
X118590285Y-42545000D01*
X118733142Y-42473571D01*
X119161714Y-42473571D01*
X119304571Y-42545000D01*
X119376000Y-42616428D01*
X119447428Y-42759285D01*
X119447428Y-43045000D01*
X119376000Y-43187857D01*
X118447428Y-43830714D02*
X119947428Y-43830714D01*
X118447428Y-44473571D02*
X119233142Y-44473571D01*
X119376000Y-44402142D01*
X119447428Y-44259285D01*
X119447428Y-44045000D01*
X119376000Y-43902142D01*
X119304571Y-43830714D01*
X119233142Y-46830714D02*
X119161714Y-47045000D01*
X119090285Y-47116428D01*
X118947428Y-47187857D01*
X118733142Y-47187857D01*
X118590285Y-47116428D01*
X118518857Y-47045000D01*
X118447428Y-46902142D01*
X118447428Y-46330714D01*
X119947428Y-46330714D01*
X119947428Y-46830714D01*
X119876000Y-46973571D01*
X119804571Y-47045000D01*
X119661714Y-47116428D01*
X119518857Y-47116428D01*
X119376000Y-47045000D01*
X119304571Y-46973571D01*
X119233142Y-46830714D01*
X119233142Y-46330714D01*
X84564428Y-147480571D02*
X84564428Y-145980571D01*
X85064428Y-147052000D01*
X85564428Y-145980571D01*
X85564428Y-147480571D01*
X86207285Y-147052000D02*
X86921571Y-147052000D01*
X86064428Y-147480571D02*
X86564428Y-145980571D01*
X87064428Y-147480571D01*
X87350142Y-145980571D02*
X88207285Y-145980571D01*
X87778714Y-147480571D02*
X87778714Y-145980571D01*
X88707285Y-146694857D02*
X89207285Y-146694857D01*
X89421571Y-147480571D02*
X88707285Y-147480571D01*
X88707285Y-145980571D01*
X89421571Y-145980571D01*
X92064428Y-147337714D02*
X91993000Y-147409142D01*
X91778714Y-147480571D01*
X91635857Y-147480571D01*
X91421571Y-147409142D01*
X91278714Y-147266285D01*
X91207285Y-147123428D01*
X91135857Y-146837714D01*
X91135857Y-146623428D01*
X91207285Y-146337714D01*
X91278714Y-146194857D01*
X91421571Y-146052000D01*
X91635857Y-145980571D01*
X91778714Y-145980571D01*
X91993000Y-146052000D01*
X92064428Y-146123428D01*
X92921571Y-147480571D02*
X92778714Y-147409142D01*
X92707285Y-147337714D01*
X92635857Y-147194857D01*
X92635857Y-146766285D01*
X92707285Y-146623428D01*
X92778714Y-146552000D01*
X92921571Y-146480571D01*
X93135857Y-146480571D01*
X93278714Y-146552000D01*
X93350142Y-146623428D01*
X93421571Y-146766285D01*
X93421571Y-147194857D01*
X93350142Y-147337714D01*
X93278714Y-147409142D01*
X93135857Y-147480571D01*
X92921571Y-147480571D01*
X94064428Y-146480571D02*
X94064428Y-147480571D01*
X94064428Y-146623428D02*
X94135857Y-146552000D01*
X94278714Y-146480571D01*
X94493000Y-146480571D01*
X94635857Y-146552000D01*
X94707285Y-146694857D01*
X94707285Y-147480571D01*
X95207285Y-146480571D02*
X95778714Y-146480571D01*
X95421571Y-145980571D02*
X95421571Y-147266285D01*
X95493000Y-147409142D01*
X95635857Y-147480571D01*
X95778714Y-147480571D01*
X96278714Y-147480571D02*
X96278714Y-146480571D01*
X96278714Y-146766285D02*
X96350142Y-146623428D01*
X96421571Y-146552000D01*
X96564428Y-146480571D01*
X96707285Y-146480571D01*
X97421571Y-147480571D02*
X97278714Y-147409142D01*
X97207285Y-147337714D01*
X97135857Y-147194857D01*
X97135857Y-146766285D01*
X97207285Y-146623428D01*
X97278714Y-146552000D01*
X97421571Y-146480571D01*
X97635857Y-146480571D01*
X97778714Y-146552000D01*
X97850142Y-146623428D01*
X97921571Y-146766285D01*
X97921571Y-147194857D01*
X97850142Y-147337714D01*
X97778714Y-147409142D01*
X97635857Y-147480571D01*
X97421571Y-147480571D01*
X98778714Y-147480571D02*
X98635857Y-147409142D01*
X98564428Y-147266285D01*
X98564428Y-145980571D01*
X100493000Y-147480571D02*
X100493000Y-145980571D01*
X101064428Y-145980571D01*
X101207285Y-146052000D01*
X101278714Y-146123428D01*
X101350142Y-146266285D01*
X101350142Y-146480571D01*
X101278714Y-146623428D01*
X101207285Y-146694857D01*
X101064428Y-146766285D01*
X100493000Y-146766285D01*
X102207285Y-147480571D02*
X102064428Y-147409142D01*
X101993000Y-147337714D01*
X101921571Y-147194857D01*
X101921571Y-146766285D01*
X101993000Y-146623428D01*
X102064428Y-146552000D01*
X102207285Y-146480571D01*
X102421571Y-146480571D01*
X102564428Y-146552000D01*
X102635857Y-146623428D01*
X102707285Y-146766285D01*
X102707285Y-147194857D01*
X102635857Y-147337714D01*
X102564428Y-147409142D01*
X102421571Y-147480571D01*
X102207285Y-147480571D01*
X103207285Y-146480571D02*
X103493000Y-147480571D01*
X103778714Y-146766285D01*
X104064428Y-147480571D01*
X104350142Y-146480571D01*
X105493000Y-147409142D02*
X105350142Y-147480571D01*
X105064428Y-147480571D01*
X104921571Y-147409142D01*
X104850142Y-147266285D01*
X104850142Y-146694857D01*
X104921571Y-146552000D01*
X105064428Y-146480571D01*
X105350142Y-146480571D01*
X105493000Y-146552000D01*
X105564428Y-146694857D01*
X105564428Y-146837714D01*
X104850142Y-146980571D01*
X106207285Y-147480571D02*
X106207285Y-146480571D01*
X106207285Y-146766285D02*
X106278714Y-146623428D01*
X106350142Y-146552000D01*
X106493000Y-146480571D01*
X106635857Y-146480571D01*
X108778714Y-146694857D02*
X108993000Y-146766285D01*
X109064428Y-146837714D01*
X109135857Y-146980571D01*
X109135857Y-147194857D01*
X109064428Y-147337714D01*
X108993000Y-147409142D01*
X108850142Y-147480571D01*
X108278714Y-147480571D01*
X108278714Y-145980571D01*
X108778714Y-145980571D01*
X108921571Y-146052000D01*
X108993000Y-146123428D01*
X109064428Y-146266285D01*
X109064428Y-146409142D01*
X108993000Y-146552000D01*
X108921571Y-146623428D01*
X108778714Y-146694857D01*
X108278714Y-146694857D01*
X109993000Y-147480571D02*
X109850142Y-147409142D01*
X109778714Y-147337714D01*
X109707285Y-147194857D01*
X109707285Y-146766285D01*
X109778714Y-146623428D01*
X109850142Y-146552000D01*
X109993000Y-146480571D01*
X110207285Y-146480571D01*
X110350142Y-146552000D01*
X110421571Y-146623428D01*
X110493000Y-146766285D01*
X110493000Y-147194857D01*
X110421571Y-147337714D01*
X110350142Y-147409142D01*
X110207285Y-147480571D01*
X109993000Y-147480571D01*
X111778714Y-147480571D02*
X111778714Y-146694857D01*
X111707285Y-146552000D01*
X111564428Y-146480571D01*
X111278714Y-146480571D01*
X111135857Y-146552000D01*
X111778714Y-147409142D02*
X111635857Y-147480571D01*
X111278714Y-147480571D01*
X111135857Y-147409142D01*
X111064428Y-147266285D01*
X111064428Y-147123428D01*
X111135857Y-146980571D01*
X111278714Y-146909142D01*
X111635857Y-146909142D01*
X111778714Y-146837714D01*
X112493000Y-147480571D02*
X112493000Y-146480571D01*
X112493000Y-146766285D02*
X112564428Y-146623428D01*
X112635857Y-146552000D01*
X112778714Y-146480571D01*
X112921571Y-146480571D01*
X114064428Y-147480571D02*
X114064428Y-145980571D01*
X114064428Y-147409142D02*
X113921571Y-147480571D01*
X113635857Y-147480571D01*
X113493000Y-147409142D01*
X113421571Y-147337714D01*
X113350142Y-147194857D01*
X113350142Y-146766285D01*
X113421571Y-146623428D01*
X113493000Y-146552000D01*
X113635857Y-146480571D01*
X113921571Y-146480571D01*
X114064428Y-146552000D01*
X115850142Y-146123428D02*
X115921571Y-146052000D01*
X116064428Y-145980571D01*
X116421571Y-145980571D01*
X116564428Y-146052000D01*
X116635857Y-146123428D01*
X116707285Y-146266285D01*
X116707285Y-146409142D01*
X116635857Y-146623428D01*
X115778714Y-147480571D01*
X116707285Y-147480571D01*
X117635857Y-145980571D02*
X117778714Y-145980571D01*
X117921571Y-146052000D01*
X117993000Y-146123428D01*
X118064428Y-146266285D01*
X118135857Y-146552000D01*
X118135857Y-146909142D01*
X118064428Y-147194857D01*
X117993000Y-147337714D01*
X117921571Y-147409142D01*
X117778714Y-147480571D01*
X117635857Y-147480571D01*
X117493000Y-147409142D01*
X117421571Y-147337714D01*
X117350142Y-147194857D01*
X117278714Y-146909142D01*
X117278714Y-146552000D01*
X117350142Y-146266285D01*
X117421571Y-146123428D01*
X117493000Y-146052000D01*
X117635857Y-145980571D01*
X119564428Y-147480571D02*
X118707285Y-147480571D01*
X119135857Y-147480571D02*
X119135857Y-145980571D01*
X118993000Y-146194857D01*
X118850142Y-146337714D01*
X118707285Y-146409142D01*
X120278714Y-147480571D02*
X120564428Y-147480571D01*
X120707285Y-147409142D01*
X120778714Y-147337714D01*
X120921571Y-147123428D01*
X120993000Y-146837714D01*
X120993000Y-146266285D01*
X120921571Y-146123428D01*
X120850142Y-146052000D01*
X120707285Y-145980571D01*
X120421571Y-145980571D01*
X120278714Y-146052000D01*
X120207285Y-146123428D01*
X120135857Y-146266285D01*
X120135857Y-146623428D01*
X120207285Y-146766285D01*
X120278714Y-146837714D01*
X120421571Y-146909142D01*
X120707285Y-146909142D01*
X120850142Y-146837714D01*
X120921571Y-146766285D01*
X120993000Y-146623428D01*
X87171571Y-150030571D02*
X87171571Y-148530571D01*
X87528714Y-148530571D01*
X87743000Y-148602000D01*
X87885857Y-148744857D01*
X87957285Y-148887714D01*
X88028714Y-149173428D01*
X88028714Y-149387714D01*
X87957285Y-149673428D01*
X87885857Y-149816285D01*
X87743000Y-149959142D01*
X87528714Y-150030571D01*
X87171571Y-150030571D01*
X89243000Y-149959142D02*
X89100142Y-150030571D01*
X88814428Y-150030571D01*
X88671571Y-149959142D01*
X88600142Y-149816285D01*
X88600142Y-149244857D01*
X88671571Y-149102000D01*
X88814428Y-149030571D01*
X89100142Y-149030571D01*
X89243000Y-149102000D01*
X89314428Y-149244857D01*
X89314428Y-149387714D01*
X88600142Y-149530571D01*
X89885857Y-149959142D02*
X90028714Y-150030571D01*
X90314428Y-150030571D01*
X90457285Y-149959142D01*
X90528714Y-149816285D01*
X90528714Y-149744857D01*
X90457285Y-149602000D01*
X90314428Y-149530571D01*
X90100142Y-149530571D01*
X89957285Y-149459142D01*
X89885857Y-149316285D01*
X89885857Y-149244857D01*
X89957285Y-149102000D01*
X90100142Y-149030571D01*
X90314428Y-149030571D01*
X90457285Y-149102000D01*
X91171571Y-150030571D02*
X91171571Y-149030571D01*
X91171571Y-148530571D02*
X91100142Y-148602000D01*
X91171571Y-148673428D01*
X91243000Y-148602000D01*
X91171571Y-148530571D01*
X91171571Y-148673428D01*
X92528714Y-149030571D02*
X92528714Y-150244857D01*
X92457285Y-150387714D01*
X92385857Y-150459142D01*
X92243000Y-150530571D01*
X92028714Y-150530571D01*
X91885857Y-150459142D01*
X92528714Y-149959142D02*
X92385857Y-150030571D01*
X92100142Y-150030571D01*
X91957285Y-149959142D01*
X91885857Y-149887714D01*
X91814428Y-149744857D01*
X91814428Y-149316285D01*
X91885857Y-149173428D01*
X91957285Y-149102000D01*
X92100142Y-149030571D01*
X92385857Y-149030571D01*
X92528714Y-149102000D01*
X93243000Y-149030571D02*
X93243000Y-150030571D01*
X93243000Y-149173428D02*
X93314428Y-149102000D01*
X93457285Y-149030571D01*
X93671571Y-149030571D01*
X93814428Y-149102000D01*
X93885857Y-149244857D01*
X93885857Y-150030571D01*
X95171571Y-149959142D02*
X95028714Y-150030571D01*
X94743000Y-150030571D01*
X94600142Y-149959142D01*
X94528714Y-149816285D01*
X94528714Y-149244857D01*
X94600142Y-149102000D01*
X94743000Y-149030571D01*
X95028714Y-149030571D01*
X95171571Y-149102000D01*
X95243000Y-149244857D01*
X95243000Y-149387714D01*
X94528714Y-149530571D01*
X96528714Y-150030571D02*
X96528714Y-148530571D01*
X96528714Y-149959142D02*
X96385857Y-150030571D01*
X96100142Y-150030571D01*
X95957285Y-149959142D01*
X95885857Y-149887714D01*
X95814428Y-149744857D01*
X95814428Y-149316285D01*
X95885857Y-149173428D01*
X95957285Y-149102000D01*
X96100142Y-149030571D01*
X96385857Y-149030571D01*
X96528714Y-149102000D01*
X98385857Y-150030571D02*
X98385857Y-148530571D01*
X98385857Y-149102000D02*
X98528714Y-149030571D01*
X98814428Y-149030571D01*
X98957285Y-149102000D01*
X99028714Y-149173428D01*
X99100142Y-149316285D01*
X99100142Y-149744857D01*
X99028714Y-149887714D01*
X98957285Y-149959142D01*
X98814428Y-150030571D01*
X98528714Y-150030571D01*
X98385857Y-149959142D01*
X99600142Y-149030571D02*
X99957285Y-150030571D01*
X100314428Y-149030571D02*
X99957285Y-150030571D01*
X99814428Y-150387714D01*
X99743000Y-150459142D01*
X99600142Y-150530571D01*
X101814428Y-148530571D02*
X102671571Y-148530571D01*
X102243000Y-150030571D02*
X102243000Y-148530571D01*
X103171571Y-150030571D02*
X103171571Y-149030571D01*
X103171571Y-148530571D02*
X103100142Y-148602000D01*
X103171571Y-148673428D01*
X103243000Y-148602000D01*
X103171571Y-148530571D01*
X103171571Y-148673428D01*
X103885857Y-150030571D02*
X103885857Y-149030571D01*
X103885857Y-149173428D02*
X103957285Y-149102000D01*
X104100142Y-149030571D01*
X104314428Y-149030571D01*
X104457285Y-149102000D01*
X104528714Y-149244857D01*
X104528714Y-150030571D01*
X104528714Y-149244857D02*
X104600142Y-149102000D01*
X104743000Y-149030571D01*
X104957285Y-149030571D01*
X105100142Y-149102000D01*
X105171571Y-149244857D01*
X105171571Y-150030571D01*
X105885857Y-150030571D02*
X105885857Y-149030571D01*
X105885857Y-149173428D02*
X105957285Y-149102000D01*
X106100142Y-149030571D01*
X106314428Y-149030571D01*
X106457285Y-149102000D01*
X106528714Y-149244857D01*
X106528714Y-150030571D01*
X106528714Y-149244857D02*
X106600142Y-149102000D01*
X106742999Y-149030571D01*
X106957285Y-149030571D01*
X107100142Y-149102000D01*
X107171571Y-149244857D01*
X107171571Y-150030571D01*
X107742999Y-149030571D02*
X108100142Y-150030571D01*
X108457285Y-149030571D02*
X108100142Y-150030571D01*
X107957285Y-150387714D01*
X107885857Y-150459142D01*
X107742999Y-150530571D01*
X110671571Y-149244857D02*
X110885857Y-149316285D01*
X110957285Y-149387714D01*
X111028714Y-149530571D01*
X111028714Y-149744857D01*
X110957285Y-149887714D01*
X110885857Y-149959142D01*
X110742999Y-150030571D01*
X110171571Y-150030571D01*
X110171571Y-148530571D01*
X110671571Y-148530571D01*
X110814428Y-148602000D01*
X110885857Y-148673428D01*
X110957285Y-148816285D01*
X110957285Y-148959142D01*
X110885857Y-149102000D01*
X110814428Y-149173428D01*
X110671571Y-149244857D01*
X110171571Y-149244857D01*
X112242999Y-149959142D02*
X112100142Y-150030571D01*
X111814428Y-150030571D01*
X111671571Y-149959142D01*
X111600142Y-149816285D01*
X111600142Y-149244857D01*
X111671571Y-149102000D01*
X111814428Y-149030571D01*
X112100142Y-149030571D01*
X112242999Y-149102000D01*
X112314428Y-149244857D01*
X112314428Y-149387714D01*
X111600142Y-149530571D01*
X113600142Y-149030571D02*
X113600142Y-150030571D01*
X112957285Y-149030571D02*
X112957285Y-149816285D01*
X113028714Y-149959142D01*
X113171571Y-150030571D01*
X113385857Y-150030571D01*
X113528714Y-149959142D01*
X113600142Y-149887714D01*
X114957285Y-149959142D02*
X114814428Y-150030571D01*
X114528714Y-150030571D01*
X114385857Y-149959142D01*
X114314428Y-149887714D01*
X114243000Y-149744857D01*
X114243000Y-149316285D01*
X114314428Y-149173428D01*
X114385857Y-149102000D01*
X114528714Y-149030571D01*
X114814428Y-149030571D01*
X114957285Y-149102000D01*
X115600142Y-150030571D02*
X115600142Y-148530571D01*
X116243000Y-150030571D02*
X116243000Y-149244857D01*
X116171571Y-149102000D01*
X116028714Y-149030571D01*
X115814428Y-149030571D01*
X115671571Y-149102000D01*
X115600142Y-149173428D01*
X117528714Y-149959142D02*
X117385857Y-150030571D01*
X117100142Y-150030571D01*
X116957285Y-149959142D01*
X116885857Y-149816285D01*
X116885857Y-149244857D01*
X116957285Y-149102000D01*
X117100142Y-149030571D01*
X117385857Y-149030571D01*
X117528714Y-149102000D01*
X117600142Y-149244857D01*
X117600142Y-149387714D01*
X116885857Y-149530571D01*
X118457285Y-150030571D02*
X118314428Y-149959142D01*
X118243000Y-149816285D01*
X118243000Y-148530571D01*
X100350142Y-152580571D02*
X99850142Y-151866285D01*
X99493000Y-152580571D02*
X99493000Y-151080571D01*
X100064428Y-151080571D01*
X100207285Y-151152000D01*
X100278714Y-151223428D01*
X100350142Y-151366285D01*
X100350142Y-151580571D01*
X100278714Y-151723428D01*
X100207285Y-151794857D01*
X100064428Y-151866285D01*
X99493000Y-151866285D01*
X101564428Y-152509142D02*
X101421571Y-152580571D01*
X101135857Y-152580571D01*
X100993000Y-152509142D01*
X100921571Y-152366285D01*
X100921571Y-151794857D01*
X100993000Y-151652000D01*
X101135857Y-151580571D01*
X101421571Y-151580571D01*
X101564428Y-151652000D01*
X101635857Y-151794857D01*
X101635857Y-151937714D01*
X100921571Y-152080571D01*
X102135857Y-151580571D02*
X102493000Y-152580571D01*
X102850142Y-151580571D01*
X103421571Y-152437714D02*
X103493000Y-152509142D01*
X103421571Y-152580571D01*
X103350142Y-152509142D01*
X103421571Y-152437714D01*
X103421571Y-152580571D01*
X106064428Y-152580571D02*
X105207285Y-152580571D01*
X105635857Y-152580571D02*
X105635857Y-151080571D01*
X105493000Y-151294857D01*
X105350142Y-151437714D01*
X105207285Y-151509142D01*
D12*
G04 #@! TO.C,C2*
X49485733Y-104396000D02*
X49828267Y-104396000D01*
X49485733Y-103376000D02*
X49828267Y-103376000D01*
G04 #@! TO.C,C1*
X55878000Y-98126733D02*
X55878000Y-98469267D01*
X56898000Y-98126733D02*
X56898000Y-98469267D01*
G04 #@! TO.C,C5*
X84245267Y-56259000D02*
X83902733Y-56259000D01*
X84245267Y-57279000D02*
X83902733Y-57279000D01*
G04 #@! TO.C,C6*
X93851000Y-65614733D02*
X93851000Y-65957267D01*
X94871000Y-65614733D02*
X94871000Y-65957267D01*
G04 #@! TO.C,C7*
X101682733Y-112143000D02*
X102025267Y-112143000D01*
X101682733Y-111123000D02*
X102025267Y-111123000D01*
G04 #@! TO.C,C8*
X95040267Y-125220000D02*
X94697733Y-125220000D01*
X95040267Y-126240000D02*
X94697733Y-126240000D01*
G04 #@! TO.C,C9*
X87674267Y-54989000D02*
X87331733Y-54989000D01*
X87674267Y-56009000D02*
X87331733Y-56009000D01*
G04 #@! TO.C,C10*
X79119000Y-59899733D02*
X79119000Y-60242267D01*
X80139000Y-59899733D02*
X80139000Y-60242267D01*
G04 #@! TO.C,C11*
X81913000Y-59899733D02*
X81913000Y-60242267D01*
X82933000Y-59899733D02*
X82933000Y-60242267D01*
G04 #@! TO.C,J2*
X77664000Y-83372000D02*
X77664000Y-82042000D01*
X78994000Y-83372000D02*
X77664000Y-83372000D01*
X80264000Y-83372000D02*
X80264000Y-80712000D01*
X80264000Y-80712000D02*
X82864000Y-80712000D01*
X80264000Y-83372000D02*
X82864000Y-83372000D01*
X82864000Y-83372000D02*
X82864000Y-80712000D01*
D13*
G04 #@! TO.C,J3*
X104975000Y-53181000D02*
G75*
G03X104975000Y-53181000I-200000J0D01*
G01*
D14*
X102225000Y-51881000D02*
X100275000Y-51881000D01*
X100275000Y-45631000D02*
X100275000Y-37481000D01*
X109275000Y-51881000D02*
X107425000Y-51881000D01*
X100275000Y-51881000D02*
X100275000Y-50731000D01*
X109275000Y-37481000D02*
X109275000Y-51881000D01*
X100275000Y-37481000D02*
X109275000Y-37481000D01*
D12*
G04 #@! TO.C,L1*
X81606000Y-68580000D02*
G75*
G03X81606000Y-68580000I-6120000J0D01*
G01*
G04 #@! TO.C,L2*
X91639000Y-122428000D02*
G75*
G03X91639000Y-122428000I-6120000J0D01*
G01*
G04 #@! TO.C,R1*
X60115267Y-153160000D02*
X59772733Y-153160000D01*
X60115267Y-154180000D02*
X59772733Y-154180000D01*
G04 #@! TO.C,R2*
X60115267Y-156208000D02*
X59772733Y-156208000D01*
X60115267Y-157228000D02*
X59772733Y-157228000D01*
G04 #@! TO.C,R4*
X114852267Y-55370000D02*
X114509733Y-55370000D01*
X114852267Y-56390000D02*
X114509733Y-56390000D01*
G04 #@! TO.C,R5*
X124250267Y-55370000D02*
X123907733Y-55370000D01*
X124250267Y-56390000D02*
X123907733Y-56390000D01*
G04 #@! TO.C,R7*
X102025267Y-112901000D02*
X101682733Y-112901000D01*
X102025267Y-113921000D02*
X101682733Y-113921000D01*
G04 #@! TO.C,R8*
X90887733Y-56009000D02*
X91230267Y-56009000D01*
X90887733Y-54989000D02*
X91230267Y-54989000D01*
G04 #@! TO.C,R10*
X76766267Y-58672000D02*
X76423733Y-58672000D01*
X76766267Y-59692000D02*
X76423733Y-59692000D01*
G04 #@! TO.C,U1*
X54011000Y-101073000D02*
X48001000Y-101073000D01*
X51761000Y-94253000D02*
X48001000Y-94253000D01*
X48001000Y-101073000D02*
X48001000Y-99813000D01*
X48001000Y-94253000D02*
X48001000Y-95513000D01*
G04 #@! TO.C,J10*
X102995000Y-55693000D02*
X102995000Y-58543000D01*
X105845000Y-55693000D02*
X102995000Y-55693000D01*
X107855000Y-67153000D02*
X106045000Y-67153000D01*
X107855000Y-65753000D02*
X107855000Y-67153000D01*
X108855000Y-65753000D02*
X107855000Y-65753000D01*
X108855000Y-55933000D02*
X108855000Y-65753000D01*
X106045000Y-55933000D02*
X108855000Y-55933000D01*
X104235000Y-67153000D02*
X106045000Y-67153000D01*
X104235000Y-65753000D02*
X104235000Y-67153000D01*
X103235000Y-65753000D02*
X104235000Y-65753000D01*
X103235000Y-55933000D02*
X103235000Y-65753000D01*
X106045000Y-55933000D02*
X103235000Y-55933000D01*
G04 #@! TO.C,R12*
X115314000Y-44800733D02*
X115314000Y-45143267D01*
X116334000Y-44800733D02*
X116334000Y-45143267D01*
G04 #@! TO.C,R13*
X121029000Y-44800733D02*
X121029000Y-45143267D01*
X122049000Y-44800733D02*
X122049000Y-45143267D01*
G04 #@! TO.C,C15*
X66351564Y-73062000D02*
X65147436Y-73062000D01*
X66351564Y-75782000D02*
X65147436Y-75782000D01*
G04 #@! TO.C,C17*
X66388064Y-68490000D02*
X65183936Y-68490000D01*
X66388064Y-71210000D02*
X65183936Y-71210000D01*
G04 #@! TO.C,C12*
X66351564Y-77634000D02*
X65147436Y-77634000D01*
X66351564Y-80354000D02*
X65147436Y-80354000D01*
G04 #@! TO.C,C4*
X100678064Y-68490000D02*
X99473936Y-68490000D01*
X100678064Y-71210000D02*
X99473936Y-71210000D01*
G04 #@! TO.C,C20*
X100678064Y-73189000D02*
X99473936Y-73189000D01*
X100678064Y-75909000D02*
X99473936Y-75909000D01*
G04 #@! TO.C,C22*
X95556000Y-65397748D02*
X95556000Y-65920252D01*
X96976000Y-65397748D02*
X96976000Y-65920252D01*
G04 #@! TO.C,C3*
X97446000Y-135160936D02*
X97446000Y-136365064D01*
X100166000Y-135160936D02*
X100166000Y-136365064D01*
G04 #@! TO.C,C13*
X81947936Y-114771000D02*
X83152064Y-114771000D01*
X81947936Y-112051000D02*
X83152064Y-112051000D01*
G04 #@! TO.C,C16*
X81947936Y-107913000D02*
X83152064Y-107913000D01*
X81947936Y-105193000D02*
X83152064Y-105193000D01*
G04 #@! TO.C,C18*
X81947936Y-111342000D02*
X83152064Y-111342000D01*
X81947936Y-108622000D02*
X83152064Y-108622000D01*
G04 #@! TO.C,C19*
X100875000Y-135160936D02*
X100875000Y-136365064D01*
X103595000Y-135160936D02*
X103595000Y-136365064D01*
G04 #@! TO.C,C21*
X95130252Y-127052000D02*
X94607748Y-127052000D01*
X95130252Y-128472000D02*
X94607748Y-128472000D01*
G04 #@! TO.C,R3*
X59341936Y-148484000D02*
X60546064Y-148484000D01*
X59341936Y-146664000D02*
X60546064Y-146664000D01*
G04 #@! TO.C,R16*
X59341936Y-151532000D02*
X60546064Y-151532000D01*
X59341936Y-149712000D02*
X60546064Y-149712000D01*
G04 #@! TO.C,C23*
X122338000Y-91345936D02*
X122338000Y-92550064D01*
X125058000Y-91345936D02*
X125058000Y-92550064D01*
G04 #@! TO.C,C24*
X138213000Y-91345936D02*
X138213000Y-92550064D01*
X140933000Y-91345936D02*
X140933000Y-92550064D01*
G04 #@! TO.C,J4*
X127256000Y-85023000D02*
X127256000Y-82173000D01*
X124406000Y-85023000D02*
X127256000Y-85023000D01*
X122396000Y-73563000D02*
X124206000Y-73563000D01*
X122396000Y-74963000D02*
X122396000Y-73563000D01*
X121396000Y-74963000D02*
X122396000Y-74963000D01*
X121396000Y-84783000D02*
X121396000Y-74963000D01*
X124206000Y-84783000D02*
X121396000Y-84783000D01*
X126016000Y-73563000D02*
X124206000Y-73563000D01*
X126016000Y-74963000D02*
X126016000Y-73563000D01*
X127016000Y-74963000D02*
X126016000Y-74963000D01*
X127016000Y-84783000D02*
X127016000Y-74963000D01*
X124206000Y-84783000D02*
X127016000Y-84783000D01*
G04 #@! TO.C,J17*
X144401000Y-85023000D02*
X144401000Y-82173000D01*
X141551000Y-85023000D02*
X144401000Y-85023000D01*
X139541000Y-73563000D02*
X141351000Y-73563000D01*
X139541000Y-74963000D02*
X139541000Y-73563000D01*
X138541000Y-74963000D02*
X139541000Y-74963000D01*
X138541000Y-84783000D02*
X138541000Y-74963000D01*
X141351000Y-84783000D02*
X138541000Y-84783000D01*
X143161000Y-73563000D02*
X141351000Y-73563000D01*
X143161000Y-74963000D02*
X143161000Y-73563000D01*
X144161000Y-74963000D02*
X143161000Y-74963000D01*
X144161000Y-84783000D02*
X144161000Y-74963000D01*
X141351000Y-84783000D02*
X144161000Y-84783000D01*
G04 #@! TO.C,Q1*
X112898000Y-60327000D02*
X112898000Y-59227000D01*
X112628000Y-60327000D02*
X112898000Y-60327000D01*
X112628000Y-61827000D02*
X112628000Y-60327000D01*
X119258000Y-60327000D02*
X119258000Y-57497000D01*
X119528000Y-60327000D02*
X119258000Y-60327000D01*
X119528000Y-61827000D02*
X119528000Y-60327000D01*
G04 #@! TO.C,Q2*
X128773000Y-60649000D02*
X128773000Y-59549000D01*
X128503000Y-60649000D02*
X128773000Y-60649000D01*
X128503000Y-62149000D02*
X128503000Y-60649000D01*
X135133000Y-60649000D02*
X135133000Y-57819000D01*
X135403000Y-60649000D02*
X135133000Y-60649000D01*
X135403000Y-62149000D02*
X135403000Y-60649000D01*
D15*
G04 #@! TO.C,D9*
X116079020Y-80278440D02*
X116828320Y-79127820D01*
X116079020Y-79127820D02*
X116079020Y-78129600D01*
X116828320Y-79127820D02*
X115278920Y-79127820D01*
X116079020Y-80278440D02*
X116079020Y-81180140D01*
X115278920Y-80278440D02*
X116879120Y-80278440D01*
X116079020Y-80278440D02*
X115278920Y-79127820D01*
D12*
X112828000Y-86429000D02*
X112828000Y-75229000D01*
X119328000Y-86429000D02*
X119328000Y-75229000D01*
X119328000Y-86429000D02*
X112828000Y-86429000D01*
D15*
G04 #@! TO.C,D10*
X132970020Y-80151440D02*
X133719320Y-79000820D01*
X132970020Y-79000820D02*
X132970020Y-78002600D01*
X133719320Y-79000820D02*
X132169920Y-79000820D01*
X132970020Y-80151440D02*
X132970020Y-81053140D01*
X132169920Y-80151440D02*
X133770120Y-80151440D01*
X132970020Y-80151440D02*
X132169920Y-79000820D01*
D12*
X129719000Y-86302000D02*
X129719000Y-75102000D01*
X136219000Y-86302000D02*
X136219000Y-75102000D01*
X136219000Y-86302000D02*
X129719000Y-86302000D01*
D11*
G04 #@! TO.C,D1*
X65278000Y-153479500D02*
X65278000Y-153416000D01*
X65278000Y-153924000D02*
X65278000Y-153479500D01*
X65214500Y-153670000D02*
X64960500Y-153860500D01*
X64960500Y-153479500D02*
X65214500Y-153670000D01*
X64960500Y-153670000D02*
X64960500Y-153479500D01*
X64960500Y-153670000D02*
X64960500Y-153860500D01*
X64770000Y-153670000D02*
X64960500Y-153670000D01*
D12*
X64224000Y-154405000D02*
X66684000Y-154405000D01*
X66684000Y-154405000D02*
X66684000Y-152935000D01*
X66684000Y-152935000D02*
X64224000Y-152935000D01*
D11*
G04 #@! TO.C,D2*
X65278000Y-156527500D02*
X65278000Y-156464000D01*
X65278000Y-156972000D02*
X65278000Y-156527500D01*
X65214500Y-156718000D02*
X64960500Y-156908500D01*
X64960500Y-156527500D02*
X65214500Y-156718000D01*
X64960500Y-156718000D02*
X64960500Y-156527500D01*
X64960500Y-156718000D02*
X64960500Y-156908500D01*
X64770000Y-156718000D02*
X64960500Y-156718000D01*
D12*
X64224000Y-157453000D02*
X66684000Y-157453000D01*
X66684000Y-157453000D02*
X66684000Y-155983000D01*
X66684000Y-155983000D02*
X64224000Y-155983000D01*
D11*
G04 #@! TO.C,D3*
X65278000Y-147383500D02*
X65278000Y-147320000D01*
X65278000Y-147828000D02*
X65278000Y-147383500D01*
X65214500Y-147574000D02*
X64960500Y-147764500D01*
X64960500Y-147383500D02*
X65214500Y-147574000D01*
X64960500Y-147574000D02*
X64960500Y-147383500D01*
X64960500Y-147574000D02*
X64960500Y-147764500D01*
X64770000Y-147574000D02*
X64960500Y-147574000D01*
D12*
X64224000Y-148309000D02*
X66684000Y-148309000D01*
X66684000Y-148309000D02*
X66684000Y-146839000D01*
X66684000Y-146839000D02*
X64224000Y-146839000D01*
D11*
G04 #@! TO.C,D4*
X115633500Y-39638000D02*
X115570000Y-39638000D01*
X116078000Y-39638000D02*
X115633500Y-39638000D01*
X115824000Y-39701500D02*
X116014500Y-39955500D01*
X115633500Y-39955500D02*
X115824000Y-39701500D01*
X115824000Y-39955500D02*
X115633500Y-39955500D01*
X115824000Y-39955500D02*
X116014500Y-39955500D01*
X115824000Y-40146000D02*
X115824000Y-39955500D01*
D12*
X116559000Y-40692000D02*
X116559000Y-38232000D01*
X116559000Y-38232000D02*
X115089000Y-38232000D01*
X115089000Y-38232000D02*
X115089000Y-40692000D01*
D11*
G04 #@! TO.C,D5*
X121348500Y-39638000D02*
X121285000Y-39638000D01*
X121793000Y-39638000D02*
X121348500Y-39638000D01*
X121539000Y-39701500D02*
X121729500Y-39955500D01*
X121348500Y-39955500D02*
X121539000Y-39701500D01*
X121539000Y-39955500D02*
X121348500Y-39955500D01*
X121539000Y-39955500D02*
X121729500Y-39955500D01*
X121539000Y-40146000D02*
X121539000Y-39955500D01*
D12*
X122274000Y-40692000D02*
X122274000Y-38232000D01*
X122274000Y-38232000D02*
X120804000Y-38232000D01*
X120804000Y-38232000D02*
X120804000Y-40692000D01*
D11*
G04 #@! TO.C,D8*
X65278000Y-150431500D02*
X65278000Y-150368000D01*
X65278000Y-150876000D02*
X65278000Y-150431500D01*
X65214500Y-150622000D02*
X64960500Y-150812500D01*
X64960500Y-150431500D02*
X65214500Y-150622000D01*
X64960500Y-150622000D02*
X64960500Y-150431500D01*
X64960500Y-150622000D02*
X64960500Y-150812500D01*
X64770000Y-150622000D02*
X64960500Y-150622000D01*
D12*
X64224000Y-151357000D02*
X66684000Y-151357000D01*
X66684000Y-151357000D02*
X66684000Y-149887000D01*
X66684000Y-149887000D02*
X64224000Y-149887000D01*
G04 #@! TO.C,J1*
X148516000Y-121666000D02*
X148516000Y-124476000D01*
X148516000Y-124476000D02*
X158336000Y-124476000D01*
X158336000Y-124476000D02*
X158336000Y-123476000D01*
X158336000Y-123476000D02*
X159736000Y-123476000D01*
X159736000Y-123476000D02*
X159736000Y-121666000D01*
X148516000Y-121666000D02*
X148516000Y-118856000D01*
X148516000Y-118856000D02*
X158336000Y-118856000D01*
X158336000Y-118856000D02*
X158336000Y-119856000D01*
X158336000Y-119856000D02*
X159736000Y-119856000D01*
X159736000Y-119856000D02*
X159736000Y-121666000D01*
X148276000Y-121866000D02*
X148276000Y-124716000D01*
X148276000Y-124716000D02*
X151126000Y-124716000D01*
G04 #@! TO.C,J9*
X35558000Y-74362000D02*
X35558000Y-77212000D01*
X38408000Y-74362000D02*
X35558000Y-74362000D01*
X42518000Y-85822000D02*
X40708000Y-85822000D01*
X42518000Y-84422000D02*
X42518000Y-85822000D01*
X45618000Y-84422000D02*
X42518000Y-84422000D01*
X45618000Y-74602000D02*
X45618000Y-84422000D01*
X40708000Y-74602000D02*
X45618000Y-74602000D01*
X38898000Y-85822000D02*
X40708000Y-85822000D01*
X38898000Y-84422000D02*
X38898000Y-85822000D01*
X35798000Y-84422000D02*
X38898000Y-84422000D01*
X35798000Y-74602000D02*
X35798000Y-84422000D01*
X40708000Y-74602000D02*
X35798000Y-74602000D01*
G04 #@! TO.C,J11*
X51884000Y-74602000D02*
X46974000Y-74602000D01*
X46974000Y-74602000D02*
X46974000Y-84422000D01*
X46974000Y-84422000D02*
X50074000Y-84422000D01*
X50074000Y-84422000D02*
X50074000Y-85822000D01*
X50074000Y-85822000D02*
X51884000Y-85822000D01*
X51884000Y-74602000D02*
X56794000Y-74602000D01*
X56794000Y-74602000D02*
X56794000Y-84422000D01*
X56794000Y-84422000D02*
X53694000Y-84422000D01*
X53694000Y-84422000D02*
X53694000Y-85822000D01*
X53694000Y-85822000D02*
X51884000Y-85822000D01*
X49584000Y-74362000D02*
X46734000Y-74362000D01*
X46734000Y-74362000D02*
X46734000Y-77212000D01*
G04 #@! TD*
G04 #@! TO.C,C2*
D11*
X49490333Y-105767142D02*
X49442714Y-105814761D01*
X49299857Y-105862380D01*
X49204619Y-105862380D01*
X49061761Y-105814761D01*
X48966523Y-105719523D01*
X48918904Y-105624285D01*
X48871285Y-105433809D01*
X48871285Y-105290952D01*
X48918904Y-105100476D01*
X48966523Y-105005238D01*
X49061761Y-104910000D01*
X49204619Y-104862380D01*
X49299857Y-104862380D01*
X49442714Y-104910000D01*
X49490333Y-104957619D01*
X49871285Y-104957619D02*
X49918904Y-104910000D01*
X50014142Y-104862380D01*
X50252238Y-104862380D01*
X50347476Y-104910000D01*
X50395095Y-104957619D01*
X50442714Y-105052857D01*
X50442714Y-105148095D01*
X50395095Y-105290952D01*
X49823666Y-105862380D01*
X50442714Y-105862380D01*
G04 #@! TO.C,REF\002A\002A*
X142176666Y-58990380D02*
X141843333Y-58514190D01*
X141605238Y-58990380D02*
X141605238Y-57990380D01*
X141986190Y-57990380D01*
X142081428Y-58038000D01*
X142129047Y-58085619D01*
X142176666Y-58180857D01*
X142176666Y-58323714D01*
X142129047Y-58418952D01*
X142081428Y-58466571D01*
X141986190Y-58514190D01*
X141605238Y-58514190D01*
X142605238Y-58466571D02*
X142938571Y-58466571D01*
X143081428Y-58990380D02*
X142605238Y-58990380D01*
X142605238Y-57990380D01*
X143081428Y-57990380D01*
X143843333Y-58466571D02*
X143510000Y-58466571D01*
X143510000Y-58990380D02*
X143510000Y-57990380D01*
X143986190Y-57990380D01*
X144510000Y-57990380D02*
X144510000Y-58228476D01*
X144271904Y-58133238D02*
X144510000Y-58228476D01*
X144748095Y-58133238D01*
X144367142Y-58418952D02*
X144510000Y-58228476D01*
X144652857Y-58418952D01*
X145271904Y-57990380D02*
X145271904Y-58228476D01*
X145033809Y-58133238D02*
X145271904Y-58228476D01*
X145510000Y-58133238D01*
X145129047Y-58418952D02*
X145271904Y-58228476D01*
X145414761Y-58418952D01*
X59626666Y-58990380D02*
X59293333Y-58514190D01*
X59055238Y-58990380D02*
X59055238Y-57990380D01*
X59436190Y-57990380D01*
X59531428Y-58038000D01*
X59579047Y-58085619D01*
X59626666Y-58180857D01*
X59626666Y-58323714D01*
X59579047Y-58418952D01*
X59531428Y-58466571D01*
X59436190Y-58514190D01*
X59055238Y-58514190D01*
X60055238Y-58466571D02*
X60388571Y-58466571D01*
X60531428Y-58990380D02*
X60055238Y-58990380D01*
X60055238Y-57990380D01*
X60531428Y-57990380D01*
X61293333Y-58466571D02*
X60960000Y-58466571D01*
X60960000Y-58990380D02*
X60960000Y-57990380D01*
X61436190Y-57990380D01*
X61960000Y-57990380D02*
X61960000Y-58228476D01*
X61721904Y-58133238D02*
X61960000Y-58228476D01*
X62198095Y-58133238D01*
X61817142Y-58418952D02*
X61960000Y-58228476D01*
X62102857Y-58418952D01*
X62721904Y-57990380D02*
X62721904Y-58228476D01*
X62483809Y-58133238D02*
X62721904Y-58228476D01*
X62960000Y-58133238D01*
X62579047Y-58418952D02*
X62721904Y-58228476D01*
X62864761Y-58418952D01*
X142176666Y-135190380D02*
X141843333Y-134714190D01*
X141605238Y-135190380D02*
X141605238Y-134190380D01*
X141986190Y-134190380D01*
X142081428Y-134238000D01*
X142129047Y-134285619D01*
X142176666Y-134380857D01*
X142176666Y-134523714D01*
X142129047Y-134618952D01*
X142081428Y-134666571D01*
X141986190Y-134714190D01*
X141605238Y-134714190D01*
X142605238Y-134666571D02*
X142938571Y-134666571D01*
X143081428Y-135190380D02*
X142605238Y-135190380D01*
X142605238Y-134190380D01*
X143081428Y-134190380D01*
X143843333Y-134666571D02*
X143510000Y-134666571D01*
X143510000Y-135190380D02*
X143510000Y-134190380D01*
X143986190Y-134190380D01*
X144510000Y-134190380D02*
X144510000Y-134428476D01*
X144271904Y-134333238D02*
X144510000Y-134428476D01*
X144748095Y-134333238D01*
X144367142Y-134618952D02*
X144510000Y-134428476D01*
X144652857Y-134618952D01*
X145271904Y-134190380D02*
X145271904Y-134428476D01*
X145033809Y-134333238D02*
X145271904Y-134428476D01*
X145510000Y-134333238D01*
X145129047Y-134618952D02*
X145271904Y-134428476D01*
X145414761Y-134618952D01*
X59626666Y-135190380D02*
X59293333Y-134714190D01*
X59055238Y-135190380D02*
X59055238Y-134190380D01*
X59436190Y-134190380D01*
X59531428Y-134238000D01*
X59579047Y-134285619D01*
X59626666Y-134380857D01*
X59626666Y-134523714D01*
X59579047Y-134618952D01*
X59531428Y-134666571D01*
X59436190Y-134714190D01*
X59055238Y-134714190D01*
X60055238Y-134666571D02*
X60388571Y-134666571D01*
X60531428Y-135190380D02*
X60055238Y-135190380D01*
X60055238Y-134190380D01*
X60531428Y-134190380D01*
X61293333Y-134666571D02*
X60960000Y-134666571D01*
X60960000Y-135190380D02*
X60960000Y-134190380D01*
X61436190Y-134190380D01*
X61960000Y-134190380D02*
X61960000Y-134428476D01*
X61721904Y-134333238D02*
X61960000Y-134428476D01*
X62198095Y-134333238D01*
X61817142Y-134618952D02*
X61960000Y-134428476D01*
X62102857Y-134618952D01*
X62721904Y-134190380D02*
X62721904Y-134428476D01*
X62483809Y-134333238D02*
X62721904Y-134428476D01*
X62960000Y-134333238D01*
X62579047Y-134618952D02*
X62721904Y-134428476D01*
X62864761Y-134618952D01*
G04 #@! TO.C,C1*
X58175142Y-98464666D02*
X58222761Y-98512285D01*
X58270380Y-98655142D01*
X58270380Y-98750380D01*
X58222761Y-98893238D01*
X58127523Y-98988476D01*
X58032285Y-99036095D01*
X57841809Y-99083714D01*
X57698952Y-99083714D01*
X57508476Y-99036095D01*
X57413238Y-98988476D01*
X57318000Y-98893238D01*
X57270380Y-98750380D01*
X57270380Y-98655142D01*
X57318000Y-98512285D01*
X57365619Y-98464666D01*
X58270380Y-97512285D02*
X58270380Y-98083714D01*
X58270380Y-97798000D02*
X57270380Y-97798000D01*
X57413238Y-97893238D01*
X57508476Y-97988476D01*
X57556095Y-98083714D01*
G04 #@! TO.C,C5*
X83907333Y-58556142D02*
X83859714Y-58603761D01*
X83716857Y-58651380D01*
X83621619Y-58651380D01*
X83478761Y-58603761D01*
X83383523Y-58508523D01*
X83335904Y-58413285D01*
X83288285Y-58222809D01*
X83288285Y-58079952D01*
X83335904Y-57889476D01*
X83383523Y-57794238D01*
X83478761Y-57699000D01*
X83621619Y-57651380D01*
X83716857Y-57651380D01*
X83859714Y-57699000D01*
X83907333Y-57746619D01*
X84812095Y-57651380D02*
X84335904Y-57651380D01*
X84288285Y-58127571D01*
X84335904Y-58079952D01*
X84431142Y-58032333D01*
X84669238Y-58032333D01*
X84764476Y-58079952D01*
X84812095Y-58127571D01*
X84859714Y-58222809D01*
X84859714Y-58460904D01*
X84812095Y-58556142D01*
X84764476Y-58603761D01*
X84669238Y-58651380D01*
X84431142Y-58651380D01*
X84335904Y-58603761D01*
X84288285Y-58556142D01*
G04 #@! TO.C,C6*
X93321142Y-65952666D02*
X93368761Y-66000285D01*
X93416380Y-66143142D01*
X93416380Y-66238380D01*
X93368761Y-66381238D01*
X93273523Y-66476476D01*
X93178285Y-66524095D01*
X92987809Y-66571714D01*
X92844952Y-66571714D01*
X92654476Y-66524095D01*
X92559238Y-66476476D01*
X92464000Y-66381238D01*
X92416380Y-66238380D01*
X92416380Y-66143142D01*
X92464000Y-66000285D01*
X92511619Y-65952666D01*
X92416380Y-65095523D02*
X92416380Y-65286000D01*
X92464000Y-65381238D01*
X92511619Y-65428857D01*
X92654476Y-65524095D01*
X92844952Y-65571714D01*
X93225904Y-65571714D01*
X93321142Y-65524095D01*
X93368761Y-65476476D01*
X93416380Y-65381238D01*
X93416380Y-65190761D01*
X93368761Y-65095523D01*
X93321142Y-65047904D01*
X93225904Y-65000285D01*
X92987809Y-65000285D01*
X92892571Y-65047904D01*
X92844952Y-65095523D01*
X92797333Y-65190761D01*
X92797333Y-65381238D01*
X92844952Y-65476476D01*
X92892571Y-65524095D01*
X92987809Y-65571714D01*
G04 #@! TO.C,C7*
X101687333Y-110560142D02*
X101639714Y-110607761D01*
X101496857Y-110655380D01*
X101401619Y-110655380D01*
X101258761Y-110607761D01*
X101163523Y-110512523D01*
X101115904Y-110417285D01*
X101068285Y-110226809D01*
X101068285Y-110083952D01*
X101115904Y-109893476D01*
X101163523Y-109798238D01*
X101258761Y-109703000D01*
X101401619Y-109655380D01*
X101496857Y-109655380D01*
X101639714Y-109703000D01*
X101687333Y-109750619D01*
X102020666Y-109655380D02*
X102687333Y-109655380D01*
X102258761Y-110655380D01*
G04 #@! TO.C,C8*
X91908333Y-126087142D02*
X91860714Y-126134761D01*
X91717857Y-126182380D01*
X91622619Y-126182380D01*
X91479761Y-126134761D01*
X91384523Y-126039523D01*
X91336904Y-125944285D01*
X91289285Y-125753809D01*
X91289285Y-125610952D01*
X91336904Y-125420476D01*
X91384523Y-125325238D01*
X91479761Y-125230000D01*
X91622619Y-125182380D01*
X91717857Y-125182380D01*
X91860714Y-125230000D01*
X91908333Y-125277619D01*
X92479761Y-125610952D02*
X92384523Y-125563333D01*
X92336904Y-125515714D01*
X92289285Y-125420476D01*
X92289285Y-125372857D01*
X92336904Y-125277619D01*
X92384523Y-125230000D01*
X92479761Y-125182380D01*
X92670238Y-125182380D01*
X92765476Y-125230000D01*
X92813095Y-125277619D01*
X92860714Y-125372857D01*
X92860714Y-125420476D01*
X92813095Y-125515714D01*
X92765476Y-125563333D01*
X92670238Y-125610952D01*
X92479761Y-125610952D01*
X92384523Y-125658571D01*
X92336904Y-125706190D01*
X92289285Y-125801428D01*
X92289285Y-125991904D01*
X92336904Y-126087142D01*
X92384523Y-126134761D01*
X92479761Y-126182380D01*
X92670238Y-126182380D01*
X92765476Y-126134761D01*
X92813095Y-126087142D01*
X92860714Y-125991904D01*
X92860714Y-125801428D01*
X92813095Y-125706190D01*
X92765476Y-125658571D01*
X92670238Y-125610952D01*
G04 #@! TO.C,C9*
X87336333Y-54459142D02*
X87288714Y-54506761D01*
X87145857Y-54554380D01*
X87050619Y-54554380D01*
X86907761Y-54506761D01*
X86812523Y-54411523D01*
X86764904Y-54316285D01*
X86717285Y-54125809D01*
X86717285Y-53982952D01*
X86764904Y-53792476D01*
X86812523Y-53697238D01*
X86907761Y-53602000D01*
X87050619Y-53554380D01*
X87145857Y-53554380D01*
X87288714Y-53602000D01*
X87336333Y-53649619D01*
X87812523Y-54554380D02*
X88003000Y-54554380D01*
X88098238Y-54506761D01*
X88145857Y-54459142D01*
X88241095Y-54316285D01*
X88288714Y-54125809D01*
X88288714Y-53744857D01*
X88241095Y-53649619D01*
X88193476Y-53602000D01*
X88098238Y-53554380D01*
X87907761Y-53554380D01*
X87812523Y-53602000D01*
X87764904Y-53649619D01*
X87717285Y-53744857D01*
X87717285Y-53982952D01*
X87764904Y-54078190D01*
X87812523Y-54125809D01*
X87907761Y-54173428D01*
X88098238Y-54173428D01*
X88193476Y-54125809D01*
X88241095Y-54078190D01*
X88288714Y-53982952D01*
G04 #@! TO.C,C10*
X81416142Y-60713857D02*
X81463761Y-60761476D01*
X81511380Y-60904333D01*
X81511380Y-60999571D01*
X81463761Y-61142428D01*
X81368523Y-61237666D01*
X81273285Y-61285285D01*
X81082809Y-61332904D01*
X80939952Y-61332904D01*
X80749476Y-61285285D01*
X80654238Y-61237666D01*
X80559000Y-61142428D01*
X80511380Y-60999571D01*
X80511380Y-60904333D01*
X80559000Y-60761476D01*
X80606619Y-60713857D01*
X81511380Y-59761476D02*
X81511380Y-60332904D01*
X81511380Y-60047190D02*
X80511380Y-60047190D01*
X80654238Y-60142428D01*
X80749476Y-60237666D01*
X80797095Y-60332904D01*
X80511380Y-59142428D02*
X80511380Y-59047190D01*
X80559000Y-58951952D01*
X80606619Y-58904333D01*
X80701857Y-58856714D01*
X80892333Y-58809095D01*
X81130428Y-58809095D01*
X81320904Y-58856714D01*
X81416142Y-58904333D01*
X81463761Y-58951952D01*
X81511380Y-59047190D01*
X81511380Y-59142428D01*
X81463761Y-59237666D01*
X81416142Y-59285285D01*
X81320904Y-59332904D01*
X81130428Y-59380523D01*
X80892333Y-59380523D01*
X80701857Y-59332904D01*
X80606619Y-59285285D01*
X80559000Y-59237666D01*
X80511380Y-59142428D01*
G04 #@! TO.C,C11*
X84210142Y-60713857D02*
X84257761Y-60761476D01*
X84305380Y-60904333D01*
X84305380Y-60999571D01*
X84257761Y-61142428D01*
X84162523Y-61237666D01*
X84067285Y-61285285D01*
X83876809Y-61332904D01*
X83733952Y-61332904D01*
X83543476Y-61285285D01*
X83448238Y-61237666D01*
X83353000Y-61142428D01*
X83305380Y-60999571D01*
X83305380Y-60904333D01*
X83353000Y-60761476D01*
X83400619Y-60713857D01*
X84305380Y-59761476D02*
X84305380Y-60332904D01*
X84305380Y-60047190D02*
X83305380Y-60047190D01*
X83448238Y-60142428D01*
X83543476Y-60237666D01*
X83591095Y-60332904D01*
X84305380Y-58809095D02*
X84305380Y-59380523D01*
X84305380Y-59094809D02*
X83305380Y-59094809D01*
X83448238Y-59190047D01*
X83543476Y-59285285D01*
X83591095Y-59380523D01*
G04 #@! TO.C,J2*
X76116380Y-82375333D02*
X76830666Y-82375333D01*
X76973523Y-82422952D01*
X77068761Y-82518190D01*
X77116380Y-82661047D01*
X77116380Y-82756285D01*
X76211619Y-81946761D02*
X76164000Y-81899142D01*
X76116380Y-81803904D01*
X76116380Y-81565809D01*
X76164000Y-81470571D01*
X76211619Y-81422952D01*
X76306857Y-81375333D01*
X76402095Y-81375333D01*
X76544952Y-81422952D01*
X77116380Y-81994380D01*
X77116380Y-81375333D01*
G04 #@! TO.C,J3*
D16*
X97462033Y-49664260D02*
X98176355Y-49664260D01*
X98319219Y-49711881D01*
X98414462Y-49807124D01*
X98462083Y-49949988D01*
X98462083Y-50045231D01*
X97462033Y-49283288D02*
X97462033Y-48664210D01*
X97843005Y-48997560D01*
X97843005Y-48854695D01*
X97890626Y-48759452D01*
X97938247Y-48711831D01*
X98033490Y-48664210D01*
X98271597Y-48664210D01*
X98366840Y-48711831D01*
X98414462Y-48759452D01*
X98462083Y-48854695D01*
X98462083Y-49140424D01*
X98414462Y-49235667D01*
X98366840Y-49283288D01*
X110486137Y-52435749D02*
X110533819Y-52292703D01*
X110581500Y-52245021D01*
X110676864Y-52197340D01*
X110819910Y-52197340D01*
X110915274Y-52245021D01*
X110962956Y-52292703D01*
X111010638Y-52388067D01*
X111010638Y-52769522D01*
X110009318Y-52769522D01*
X110009318Y-52435749D01*
X110057000Y-52340385D01*
X110104681Y-52292703D01*
X110200045Y-52245021D01*
X110295409Y-52245021D01*
X110390773Y-52292703D01*
X110438455Y-52340385D01*
X110486137Y-52435749D01*
X110486137Y-52769522D01*
X111010638Y-51339065D02*
X110486137Y-51339065D01*
X110390773Y-51386747D01*
X110343091Y-51482111D01*
X110343091Y-51672839D01*
X110390773Y-51768202D01*
X110962956Y-51339065D02*
X111010638Y-51434429D01*
X111010638Y-51672839D01*
X110962956Y-51768202D01*
X110867592Y-51815884D01*
X110772228Y-51815884D01*
X110676864Y-51768202D01*
X110629182Y-51672839D01*
X110629182Y-51434429D01*
X110581500Y-51339065D01*
X111010638Y-50862246D02*
X110343091Y-50862246D01*
X110533819Y-50862246D02*
X110438455Y-50814564D01*
X110390773Y-50766882D01*
X110343091Y-50671519D01*
X110343091Y-50576155D01*
X111010638Y-50242381D02*
X110343091Y-50242381D01*
X110533819Y-50242381D02*
X110438455Y-50194700D01*
X110390773Y-50147018D01*
X110343091Y-50051654D01*
X110343091Y-49956290D01*
X110962956Y-49241061D02*
X111010638Y-49336425D01*
X111010638Y-49527153D01*
X110962956Y-49622517D01*
X110867592Y-49670199D01*
X110486137Y-49670199D01*
X110390773Y-49622517D01*
X110343091Y-49527153D01*
X110343091Y-49336425D01*
X110390773Y-49241061D01*
X110486137Y-49193380D01*
X110581500Y-49193380D01*
X110676864Y-49670199D01*
X111010638Y-48621197D02*
X110962956Y-48716560D01*
X110867592Y-48764242D01*
X110009318Y-48764242D01*
X111106001Y-48478151D02*
X111106001Y-47715240D01*
X110009318Y-47190740D02*
X110724546Y-47190740D01*
X110867592Y-47238421D01*
X110962956Y-47333785D01*
X111010638Y-47476831D01*
X111010638Y-47572195D01*
X111010638Y-46284783D02*
X110486137Y-46284783D01*
X110390773Y-46332465D01*
X110343091Y-46427829D01*
X110343091Y-46618557D01*
X110390773Y-46713920D01*
X110962956Y-46284783D02*
X111010638Y-46380147D01*
X111010638Y-46618557D01*
X110962956Y-46713920D01*
X110867592Y-46761602D01*
X110772228Y-46761602D01*
X110676864Y-46713920D01*
X110629182Y-46618557D01*
X110629182Y-46380147D01*
X110581500Y-46284783D01*
X110962956Y-45378827D02*
X111010638Y-45474191D01*
X111010638Y-45664919D01*
X110962956Y-45760282D01*
X110915274Y-45807964D01*
X110819910Y-45855646D01*
X110533819Y-45855646D01*
X110438455Y-45807964D01*
X110390773Y-45760282D01*
X110343091Y-45664919D01*
X110343091Y-45474191D01*
X110390773Y-45378827D01*
X111010638Y-44949690D02*
X110009318Y-44949690D01*
X110629182Y-44854326D02*
X111010638Y-44568235D01*
X110343091Y-44568235D02*
X110724546Y-44949690D01*
G04 #@! TO.C,L1*
D11*
X75319333Y-76282380D02*
X74843142Y-76282380D01*
X74843142Y-75282380D01*
X76176476Y-76282380D02*
X75605047Y-76282380D01*
X75890761Y-76282380D02*
X75890761Y-75282380D01*
X75795523Y-75425238D01*
X75700285Y-75520476D01*
X75605047Y-75568095D01*
G04 #@! TO.C,L2*
X85352333Y-130130380D02*
X84876142Y-130130380D01*
X84876142Y-129130380D01*
X85638047Y-129225619D02*
X85685666Y-129178000D01*
X85780904Y-129130380D01*
X86019000Y-129130380D01*
X86114238Y-129178000D01*
X86161857Y-129225619D01*
X86209476Y-129320857D01*
X86209476Y-129416095D01*
X86161857Y-129558952D01*
X85590428Y-130130380D01*
X86209476Y-130130380D01*
G04 #@! TO.C,R1*
X57110333Y-154122380D02*
X56777000Y-153646190D01*
X56538904Y-154122380D02*
X56538904Y-153122380D01*
X56919857Y-153122380D01*
X57015095Y-153170000D01*
X57062714Y-153217619D01*
X57110333Y-153312857D01*
X57110333Y-153455714D01*
X57062714Y-153550952D01*
X57015095Y-153598571D01*
X56919857Y-153646190D01*
X56538904Y-153646190D01*
X58062714Y-154122380D02*
X57491285Y-154122380D01*
X57777000Y-154122380D02*
X57777000Y-153122380D01*
X57681761Y-153265238D01*
X57586523Y-153360476D01*
X57491285Y-153408095D01*
G04 #@! TO.C,R2*
X57110333Y-157170380D02*
X56777000Y-156694190D01*
X56538904Y-157170380D02*
X56538904Y-156170380D01*
X56919857Y-156170380D01*
X57015095Y-156218000D01*
X57062714Y-156265619D01*
X57110333Y-156360857D01*
X57110333Y-156503714D01*
X57062714Y-156598952D01*
X57015095Y-156646571D01*
X56919857Y-156694190D01*
X56538904Y-156694190D01*
X57491285Y-156265619D02*
X57538904Y-156218000D01*
X57634142Y-156170380D01*
X57872238Y-156170380D01*
X57967476Y-156218000D01*
X58015095Y-156265619D01*
X58062714Y-156360857D01*
X58062714Y-156456095D01*
X58015095Y-156598952D01*
X57443666Y-157170380D01*
X58062714Y-157170380D01*
G04 #@! TO.C,R4*
X114514333Y-54935380D02*
X114181000Y-54459190D01*
X113942904Y-54935380D02*
X113942904Y-53935380D01*
X114323857Y-53935380D01*
X114419095Y-53983000D01*
X114466714Y-54030619D01*
X114514333Y-54125857D01*
X114514333Y-54268714D01*
X114466714Y-54363952D01*
X114419095Y-54411571D01*
X114323857Y-54459190D01*
X113942904Y-54459190D01*
X115371476Y-54268714D02*
X115371476Y-54935380D01*
X115133380Y-53887761D02*
X114895285Y-54602047D01*
X115514333Y-54602047D01*
G04 #@! TO.C,R5*
X123912333Y-54935380D02*
X123579000Y-54459190D01*
X123340904Y-54935380D02*
X123340904Y-53935380D01*
X123721857Y-53935380D01*
X123817095Y-53983000D01*
X123864714Y-54030619D01*
X123912333Y-54125857D01*
X123912333Y-54268714D01*
X123864714Y-54363952D01*
X123817095Y-54411571D01*
X123721857Y-54459190D01*
X123340904Y-54459190D01*
X124817095Y-53935380D02*
X124340904Y-53935380D01*
X124293285Y-54411571D01*
X124340904Y-54363952D01*
X124436142Y-54316333D01*
X124674238Y-54316333D01*
X124769476Y-54363952D01*
X124817095Y-54411571D01*
X124864714Y-54506809D01*
X124864714Y-54744904D01*
X124817095Y-54840142D01*
X124769476Y-54887761D01*
X124674238Y-54935380D01*
X124436142Y-54935380D01*
X124340904Y-54887761D01*
X124293285Y-54840142D01*
G04 #@! TO.C,R7*
X101687333Y-115293380D02*
X101354000Y-114817190D01*
X101115904Y-115293380D02*
X101115904Y-114293380D01*
X101496857Y-114293380D01*
X101592095Y-114341000D01*
X101639714Y-114388619D01*
X101687333Y-114483857D01*
X101687333Y-114626714D01*
X101639714Y-114721952D01*
X101592095Y-114769571D01*
X101496857Y-114817190D01*
X101115904Y-114817190D01*
X102020666Y-114293380D02*
X102687333Y-114293380D01*
X102258761Y-115293380D01*
G04 #@! TO.C,R8*
X90892333Y-54521380D02*
X90559000Y-54045190D01*
X90320904Y-54521380D02*
X90320904Y-53521380D01*
X90701857Y-53521380D01*
X90797095Y-53569000D01*
X90844714Y-53616619D01*
X90892333Y-53711857D01*
X90892333Y-53854714D01*
X90844714Y-53949952D01*
X90797095Y-53997571D01*
X90701857Y-54045190D01*
X90320904Y-54045190D01*
X91463761Y-53949952D02*
X91368523Y-53902333D01*
X91320904Y-53854714D01*
X91273285Y-53759476D01*
X91273285Y-53711857D01*
X91320904Y-53616619D01*
X91368523Y-53569000D01*
X91463761Y-53521380D01*
X91654238Y-53521380D01*
X91749476Y-53569000D01*
X91797095Y-53616619D01*
X91844714Y-53711857D01*
X91844714Y-53759476D01*
X91797095Y-53854714D01*
X91749476Y-53902333D01*
X91654238Y-53949952D01*
X91463761Y-53949952D01*
X91368523Y-53997571D01*
X91320904Y-54045190D01*
X91273285Y-54140428D01*
X91273285Y-54330904D01*
X91320904Y-54426142D01*
X91368523Y-54473761D01*
X91463761Y-54521380D01*
X91654238Y-54521380D01*
X91749476Y-54473761D01*
X91797095Y-54426142D01*
X91844714Y-54330904D01*
X91844714Y-54140428D01*
X91797095Y-54045190D01*
X91749476Y-53997571D01*
X91654238Y-53949952D01*
G04 #@! TO.C,R10*
X75952142Y-61064380D02*
X75618809Y-60588190D01*
X75380714Y-61064380D02*
X75380714Y-60064380D01*
X75761666Y-60064380D01*
X75856904Y-60112000D01*
X75904523Y-60159619D01*
X75952142Y-60254857D01*
X75952142Y-60397714D01*
X75904523Y-60492952D01*
X75856904Y-60540571D01*
X75761666Y-60588190D01*
X75380714Y-60588190D01*
X76904523Y-61064380D02*
X76333095Y-61064380D01*
X76618809Y-61064380D02*
X76618809Y-60064380D01*
X76523571Y-60207238D01*
X76428333Y-60302476D01*
X76333095Y-60350095D01*
X77523571Y-60064380D02*
X77618809Y-60064380D01*
X77714047Y-60112000D01*
X77761666Y-60159619D01*
X77809285Y-60254857D01*
X77856904Y-60445333D01*
X77856904Y-60683428D01*
X77809285Y-60873904D01*
X77761666Y-60969142D01*
X77714047Y-61016761D01*
X77618809Y-61064380D01*
X77523571Y-61064380D01*
X77428333Y-61016761D01*
X77380714Y-60969142D01*
X77333095Y-60873904D01*
X77285476Y-60683428D01*
X77285476Y-60445333D01*
X77333095Y-60254857D01*
X77380714Y-60159619D01*
X77428333Y-60112000D01*
X77523571Y-60064380D01*
G04 #@! TO.C,U1*
X43688095Y-97115380D02*
X43688095Y-97924904D01*
X43735714Y-98020142D01*
X43783333Y-98067761D01*
X43878571Y-98115380D01*
X44069047Y-98115380D01*
X44164285Y-98067761D01*
X44211904Y-98020142D01*
X44259523Y-97924904D01*
X44259523Y-97115380D01*
X45259523Y-98115380D02*
X44688095Y-98115380D01*
X44973809Y-98115380D02*
X44973809Y-97115380D01*
X44878571Y-97258238D01*
X44783333Y-97353476D01*
X44688095Y-97401095D01*
G04 #@! TO.C,U2*
D17*
X93496190Y-56421261D02*
X93496190Y-56935309D01*
X93526428Y-56995785D01*
X93556666Y-57026023D01*
X93617142Y-57056261D01*
X93738095Y-57056261D01*
X93798571Y-57026023D01*
X93828809Y-56995785D01*
X93859047Y-56935309D01*
X93859047Y-56421261D01*
X94131190Y-56481738D02*
X94161428Y-56451500D01*
X94221904Y-56421261D01*
X94373095Y-56421261D01*
X94433571Y-56451500D01*
X94463809Y-56481738D01*
X94494047Y-56542214D01*
X94494047Y-56602690D01*
X94463809Y-56693404D01*
X94100952Y-57056261D01*
X94494047Y-57056261D01*
G04 #@! TO.C,U3*
X103284261Y-125197809D02*
X103798309Y-125197809D01*
X103858785Y-125167571D01*
X103889023Y-125137333D01*
X103919261Y-125076857D01*
X103919261Y-124955904D01*
X103889023Y-124895428D01*
X103858785Y-124865190D01*
X103798309Y-124834952D01*
X103284261Y-124834952D01*
X103284261Y-124593047D02*
X103284261Y-124199952D01*
X103526166Y-124411619D01*
X103526166Y-124320904D01*
X103556404Y-124260428D01*
X103586642Y-124230190D01*
X103647119Y-124199952D01*
X103798309Y-124199952D01*
X103858785Y-124230190D01*
X103889023Y-124260428D01*
X103919261Y-124320904D01*
X103919261Y-124502333D01*
X103889023Y-124562809D01*
X103858785Y-124593047D01*
G04 #@! TO.C,J10*
D11*
X105235476Y-53681380D02*
X105235476Y-54395666D01*
X105187857Y-54538523D01*
X105092619Y-54633761D01*
X104949761Y-54681380D01*
X104854523Y-54681380D01*
X106235476Y-54681380D02*
X105664047Y-54681380D01*
X105949761Y-54681380D02*
X105949761Y-53681380D01*
X105854523Y-53824238D01*
X105759285Y-53919476D01*
X105664047Y-53967095D01*
X106854523Y-53681380D02*
X106949761Y-53681380D01*
X107045000Y-53729000D01*
X107092619Y-53776619D01*
X107140238Y-53871857D01*
X107187857Y-54062333D01*
X107187857Y-54300428D01*
X107140238Y-54490904D01*
X107092619Y-54586142D01*
X107045000Y-54633761D01*
X106949761Y-54681380D01*
X106854523Y-54681380D01*
X106759285Y-54633761D01*
X106711666Y-54586142D01*
X106664047Y-54490904D01*
X106616428Y-54300428D01*
X106616428Y-54062333D01*
X106664047Y-53871857D01*
X106711666Y-53776619D01*
X106759285Y-53729000D01*
X106854523Y-53681380D01*
G04 #@! TO.C,R12*
X117706380Y-45614857D02*
X117230190Y-45948190D01*
X117706380Y-46186285D02*
X116706380Y-46186285D01*
X116706380Y-45805333D01*
X116754000Y-45710095D01*
X116801619Y-45662476D01*
X116896857Y-45614857D01*
X117039714Y-45614857D01*
X117134952Y-45662476D01*
X117182571Y-45710095D01*
X117230190Y-45805333D01*
X117230190Y-46186285D01*
X117706380Y-44662476D02*
X117706380Y-45233904D01*
X117706380Y-44948190D02*
X116706380Y-44948190D01*
X116849238Y-45043428D01*
X116944476Y-45138666D01*
X116992095Y-45233904D01*
X116801619Y-44281523D02*
X116754000Y-44233904D01*
X116706380Y-44138666D01*
X116706380Y-43900571D01*
X116754000Y-43805333D01*
X116801619Y-43757714D01*
X116896857Y-43710095D01*
X116992095Y-43710095D01*
X117134952Y-43757714D01*
X117706380Y-44329142D01*
X117706380Y-43710095D01*
G04 #@! TO.C,R13*
X123421380Y-45614857D02*
X122945190Y-45948190D01*
X123421380Y-46186285D02*
X122421380Y-46186285D01*
X122421380Y-45805333D01*
X122469000Y-45710095D01*
X122516619Y-45662476D01*
X122611857Y-45614857D01*
X122754714Y-45614857D01*
X122849952Y-45662476D01*
X122897571Y-45710095D01*
X122945190Y-45805333D01*
X122945190Y-46186285D01*
X123421380Y-44662476D02*
X123421380Y-45233904D01*
X123421380Y-44948190D02*
X122421380Y-44948190D01*
X122564238Y-45043428D01*
X122659476Y-45138666D01*
X122707095Y-45233904D01*
X122421380Y-44329142D02*
X122421380Y-43710095D01*
X122802333Y-44043428D01*
X122802333Y-43900571D01*
X122849952Y-43805333D01*
X122897571Y-43757714D01*
X122992809Y-43710095D01*
X123230904Y-43710095D01*
X123326142Y-43757714D01*
X123373761Y-43805333D01*
X123421380Y-43900571D01*
X123421380Y-44186285D01*
X123373761Y-44281523D01*
X123326142Y-44329142D01*
G04 #@! TO.C,C15*
X65106642Y-77059142D02*
X65059023Y-77106761D01*
X64916166Y-77154380D01*
X64820928Y-77154380D01*
X64678071Y-77106761D01*
X64582833Y-77011523D01*
X64535214Y-76916285D01*
X64487595Y-76725809D01*
X64487595Y-76582952D01*
X64535214Y-76392476D01*
X64582833Y-76297238D01*
X64678071Y-76202000D01*
X64820928Y-76154380D01*
X64916166Y-76154380D01*
X65059023Y-76202000D01*
X65106642Y-76249619D01*
X66059023Y-77154380D02*
X65487595Y-77154380D01*
X65773309Y-77154380D02*
X65773309Y-76154380D01*
X65678071Y-76297238D01*
X65582833Y-76392476D01*
X65487595Y-76440095D01*
X66963785Y-76154380D02*
X66487595Y-76154380D01*
X66439976Y-76630571D01*
X66487595Y-76582952D01*
X66582833Y-76535333D01*
X66820928Y-76535333D01*
X66916166Y-76582952D01*
X66963785Y-76630571D01*
X67011404Y-76725809D01*
X67011404Y-76963904D01*
X66963785Y-77059142D01*
X66916166Y-77106761D01*
X66820928Y-77154380D01*
X66582833Y-77154380D01*
X66487595Y-77106761D01*
X66439976Y-77059142D01*
G04 #@! TO.C,C17*
X65143142Y-72487142D02*
X65095523Y-72534761D01*
X64952666Y-72582380D01*
X64857428Y-72582380D01*
X64714571Y-72534761D01*
X64619333Y-72439523D01*
X64571714Y-72344285D01*
X64524095Y-72153809D01*
X64524095Y-72010952D01*
X64571714Y-71820476D01*
X64619333Y-71725238D01*
X64714571Y-71630000D01*
X64857428Y-71582380D01*
X64952666Y-71582380D01*
X65095523Y-71630000D01*
X65143142Y-71677619D01*
X66095523Y-72582380D02*
X65524095Y-72582380D01*
X65809809Y-72582380D02*
X65809809Y-71582380D01*
X65714571Y-71725238D01*
X65619333Y-71820476D01*
X65524095Y-71868095D01*
X66428857Y-71582380D02*
X67095523Y-71582380D01*
X66666952Y-72582380D01*
G04 #@! TO.C,C12*
X65106642Y-81631142D02*
X65059023Y-81678761D01*
X64916166Y-81726380D01*
X64820928Y-81726380D01*
X64678071Y-81678761D01*
X64582833Y-81583523D01*
X64535214Y-81488285D01*
X64487595Y-81297809D01*
X64487595Y-81154952D01*
X64535214Y-80964476D01*
X64582833Y-80869238D01*
X64678071Y-80774000D01*
X64820928Y-80726380D01*
X64916166Y-80726380D01*
X65059023Y-80774000D01*
X65106642Y-80821619D01*
X66059023Y-81726380D02*
X65487595Y-81726380D01*
X65773309Y-81726380D02*
X65773309Y-80726380D01*
X65678071Y-80869238D01*
X65582833Y-80964476D01*
X65487595Y-81012095D01*
X66439976Y-80821619D02*
X66487595Y-80774000D01*
X66582833Y-80726380D01*
X66820928Y-80726380D01*
X66916166Y-80774000D01*
X66963785Y-80821619D01*
X67011404Y-80916857D01*
X67011404Y-81012095D01*
X66963785Y-81154952D01*
X66392357Y-81726380D01*
X67011404Y-81726380D01*
G04 #@! TO.C,C4*
X99909333Y-72487142D02*
X99861714Y-72534761D01*
X99718857Y-72582380D01*
X99623619Y-72582380D01*
X99480761Y-72534761D01*
X99385523Y-72439523D01*
X99337904Y-72344285D01*
X99290285Y-72153809D01*
X99290285Y-72010952D01*
X99337904Y-71820476D01*
X99385523Y-71725238D01*
X99480761Y-71630000D01*
X99623619Y-71582380D01*
X99718857Y-71582380D01*
X99861714Y-71630000D01*
X99909333Y-71677619D01*
X100766476Y-71915714D02*
X100766476Y-72582380D01*
X100528380Y-71534761D02*
X100290285Y-72249047D01*
X100909333Y-72249047D01*
G04 #@! TO.C,C20*
X99433142Y-77186142D02*
X99385523Y-77233761D01*
X99242666Y-77281380D01*
X99147428Y-77281380D01*
X99004571Y-77233761D01*
X98909333Y-77138523D01*
X98861714Y-77043285D01*
X98814095Y-76852809D01*
X98814095Y-76709952D01*
X98861714Y-76519476D01*
X98909333Y-76424238D01*
X99004571Y-76329000D01*
X99147428Y-76281380D01*
X99242666Y-76281380D01*
X99385523Y-76329000D01*
X99433142Y-76376619D01*
X99814095Y-76376619D02*
X99861714Y-76329000D01*
X99956952Y-76281380D01*
X100195047Y-76281380D01*
X100290285Y-76329000D01*
X100337904Y-76376619D01*
X100385523Y-76471857D01*
X100385523Y-76567095D01*
X100337904Y-76709952D01*
X99766476Y-77281380D01*
X100385523Y-77281380D01*
X101004571Y-76281380D02*
X101099809Y-76281380D01*
X101195047Y-76329000D01*
X101242666Y-76376619D01*
X101290285Y-76471857D01*
X101337904Y-76662333D01*
X101337904Y-76900428D01*
X101290285Y-77090904D01*
X101242666Y-77186142D01*
X101195047Y-77233761D01*
X101099809Y-77281380D01*
X101004571Y-77281380D01*
X100909333Y-77233761D01*
X100861714Y-77186142D01*
X100814095Y-77090904D01*
X100766476Y-76900428D01*
X100766476Y-76662333D01*
X100814095Y-76471857D01*
X100861714Y-76376619D01*
X100909333Y-76329000D01*
X101004571Y-76281380D01*
G04 #@! TO.C,C22*
X98273142Y-66301857D02*
X98320761Y-66349476D01*
X98368380Y-66492333D01*
X98368380Y-66587571D01*
X98320761Y-66730428D01*
X98225523Y-66825666D01*
X98130285Y-66873285D01*
X97939809Y-66920904D01*
X97796952Y-66920904D01*
X97606476Y-66873285D01*
X97511238Y-66825666D01*
X97416000Y-66730428D01*
X97368380Y-66587571D01*
X97368380Y-66492333D01*
X97416000Y-66349476D01*
X97463619Y-66301857D01*
X97463619Y-65920904D02*
X97416000Y-65873285D01*
X97368380Y-65778047D01*
X97368380Y-65539952D01*
X97416000Y-65444714D01*
X97463619Y-65397095D01*
X97558857Y-65349476D01*
X97654095Y-65349476D01*
X97796952Y-65397095D01*
X98368380Y-65968523D01*
X98368380Y-65349476D01*
X97463619Y-64968523D02*
X97416000Y-64920904D01*
X97368380Y-64825666D01*
X97368380Y-64587571D01*
X97416000Y-64492333D01*
X97463619Y-64444714D01*
X97558857Y-64397095D01*
X97654095Y-64397095D01*
X97796952Y-64444714D01*
X98368380Y-65016142D01*
X98368380Y-64397095D01*
G04 #@! TO.C,C3*
X96623142Y-135929666D02*
X96670761Y-135977285D01*
X96718380Y-136120142D01*
X96718380Y-136215380D01*
X96670761Y-136358238D01*
X96575523Y-136453476D01*
X96480285Y-136501095D01*
X96289809Y-136548714D01*
X96146952Y-136548714D01*
X95956476Y-136501095D01*
X95861238Y-136453476D01*
X95766000Y-136358238D01*
X95718380Y-136215380D01*
X95718380Y-136120142D01*
X95766000Y-135977285D01*
X95813619Y-135929666D01*
X95718380Y-135596333D02*
X95718380Y-134977285D01*
X96099333Y-135310619D01*
X96099333Y-135167761D01*
X96146952Y-135072523D01*
X96194571Y-135024904D01*
X96289809Y-134977285D01*
X96527904Y-134977285D01*
X96623142Y-135024904D01*
X96670761Y-135072523D01*
X96718380Y-135167761D01*
X96718380Y-135453476D01*
X96670761Y-135548714D01*
X96623142Y-135596333D01*
G04 #@! TO.C,C13*
X77970142Y-113895142D02*
X77922523Y-113942761D01*
X77779666Y-113990380D01*
X77684428Y-113990380D01*
X77541571Y-113942761D01*
X77446333Y-113847523D01*
X77398714Y-113752285D01*
X77351095Y-113561809D01*
X77351095Y-113418952D01*
X77398714Y-113228476D01*
X77446333Y-113133238D01*
X77541571Y-113038000D01*
X77684428Y-112990380D01*
X77779666Y-112990380D01*
X77922523Y-113038000D01*
X77970142Y-113085619D01*
X78922523Y-113990380D02*
X78351095Y-113990380D01*
X78636809Y-113990380D02*
X78636809Y-112990380D01*
X78541571Y-113133238D01*
X78446333Y-113228476D01*
X78351095Y-113276095D01*
X79255857Y-112990380D02*
X79874904Y-112990380D01*
X79541571Y-113371333D01*
X79684428Y-113371333D01*
X79779666Y-113418952D01*
X79827285Y-113466571D01*
X79874904Y-113561809D01*
X79874904Y-113799904D01*
X79827285Y-113895142D01*
X79779666Y-113942761D01*
X79684428Y-113990380D01*
X79398714Y-113990380D01*
X79303476Y-113942761D01*
X79255857Y-113895142D01*
G04 #@! TO.C,C16*
X77970142Y-106910142D02*
X77922523Y-106957761D01*
X77779666Y-107005380D01*
X77684428Y-107005380D01*
X77541571Y-106957761D01*
X77446333Y-106862523D01*
X77398714Y-106767285D01*
X77351095Y-106576809D01*
X77351095Y-106433952D01*
X77398714Y-106243476D01*
X77446333Y-106148238D01*
X77541571Y-106053000D01*
X77684428Y-106005380D01*
X77779666Y-106005380D01*
X77922523Y-106053000D01*
X77970142Y-106100619D01*
X78922523Y-107005380D02*
X78351095Y-107005380D01*
X78636809Y-107005380D02*
X78636809Y-106005380D01*
X78541571Y-106148238D01*
X78446333Y-106243476D01*
X78351095Y-106291095D01*
X79779666Y-106005380D02*
X79589190Y-106005380D01*
X79493952Y-106053000D01*
X79446333Y-106100619D01*
X79351095Y-106243476D01*
X79303476Y-106433952D01*
X79303476Y-106814904D01*
X79351095Y-106910142D01*
X79398714Y-106957761D01*
X79493952Y-107005380D01*
X79684428Y-107005380D01*
X79779666Y-106957761D01*
X79827285Y-106910142D01*
X79874904Y-106814904D01*
X79874904Y-106576809D01*
X79827285Y-106481571D01*
X79779666Y-106433952D01*
X79684428Y-106386333D01*
X79493952Y-106386333D01*
X79398714Y-106433952D01*
X79351095Y-106481571D01*
X79303476Y-106576809D01*
G04 #@! TO.C,C18*
X77970142Y-110339142D02*
X77922523Y-110386761D01*
X77779666Y-110434380D01*
X77684428Y-110434380D01*
X77541571Y-110386761D01*
X77446333Y-110291523D01*
X77398714Y-110196285D01*
X77351095Y-110005809D01*
X77351095Y-109862952D01*
X77398714Y-109672476D01*
X77446333Y-109577238D01*
X77541571Y-109482000D01*
X77684428Y-109434380D01*
X77779666Y-109434380D01*
X77922523Y-109482000D01*
X77970142Y-109529619D01*
X78922523Y-110434380D02*
X78351095Y-110434380D01*
X78636809Y-110434380D02*
X78636809Y-109434380D01*
X78541571Y-109577238D01*
X78446333Y-109672476D01*
X78351095Y-109720095D01*
X79493952Y-109862952D02*
X79398714Y-109815333D01*
X79351095Y-109767714D01*
X79303476Y-109672476D01*
X79303476Y-109624857D01*
X79351095Y-109529619D01*
X79398714Y-109482000D01*
X79493952Y-109434380D01*
X79684428Y-109434380D01*
X79779666Y-109482000D01*
X79827285Y-109529619D01*
X79874904Y-109624857D01*
X79874904Y-109672476D01*
X79827285Y-109767714D01*
X79779666Y-109815333D01*
X79684428Y-109862952D01*
X79493952Y-109862952D01*
X79398714Y-109910571D01*
X79351095Y-109958190D01*
X79303476Y-110053428D01*
X79303476Y-110243904D01*
X79351095Y-110339142D01*
X79398714Y-110386761D01*
X79493952Y-110434380D01*
X79684428Y-110434380D01*
X79779666Y-110386761D01*
X79827285Y-110339142D01*
X79874904Y-110243904D01*
X79874904Y-110053428D01*
X79827285Y-109958190D01*
X79779666Y-109910571D01*
X79684428Y-109862952D01*
G04 #@! TO.C,C19*
X105132142Y-136405857D02*
X105179761Y-136453476D01*
X105227380Y-136596333D01*
X105227380Y-136691571D01*
X105179761Y-136834428D01*
X105084523Y-136929666D01*
X104989285Y-136977285D01*
X104798809Y-137024904D01*
X104655952Y-137024904D01*
X104465476Y-136977285D01*
X104370238Y-136929666D01*
X104275000Y-136834428D01*
X104227380Y-136691571D01*
X104227380Y-136596333D01*
X104275000Y-136453476D01*
X104322619Y-136405857D01*
X105227380Y-135453476D02*
X105227380Y-136024904D01*
X105227380Y-135739190D02*
X104227380Y-135739190D01*
X104370238Y-135834428D01*
X104465476Y-135929666D01*
X104513095Y-136024904D01*
X105227380Y-134977285D02*
X105227380Y-134786809D01*
X105179761Y-134691571D01*
X105132142Y-134643952D01*
X104989285Y-134548714D01*
X104798809Y-134501095D01*
X104417857Y-134501095D01*
X104322619Y-134548714D01*
X104275000Y-134596333D01*
X104227380Y-134691571D01*
X104227380Y-134882047D01*
X104275000Y-134977285D01*
X104322619Y-135024904D01*
X104417857Y-135072523D01*
X104655952Y-135072523D01*
X104751190Y-135024904D01*
X104798809Y-134977285D01*
X104846428Y-134882047D01*
X104846428Y-134691571D01*
X104798809Y-134596333D01*
X104751190Y-134548714D01*
X104655952Y-134501095D01*
G04 #@! TO.C,C21*
X94226142Y-129769142D02*
X94178523Y-129816761D01*
X94035666Y-129864380D01*
X93940428Y-129864380D01*
X93797571Y-129816761D01*
X93702333Y-129721523D01*
X93654714Y-129626285D01*
X93607095Y-129435809D01*
X93607095Y-129292952D01*
X93654714Y-129102476D01*
X93702333Y-129007238D01*
X93797571Y-128912000D01*
X93940428Y-128864380D01*
X94035666Y-128864380D01*
X94178523Y-128912000D01*
X94226142Y-128959619D01*
X94607095Y-128959619D02*
X94654714Y-128912000D01*
X94749952Y-128864380D01*
X94988047Y-128864380D01*
X95083285Y-128912000D01*
X95130904Y-128959619D01*
X95178523Y-129054857D01*
X95178523Y-129150095D01*
X95130904Y-129292952D01*
X94559476Y-129864380D01*
X95178523Y-129864380D01*
X96130904Y-129864380D02*
X95559476Y-129864380D01*
X95845190Y-129864380D02*
X95845190Y-128864380D01*
X95749952Y-129007238D01*
X95654714Y-129102476D01*
X95559476Y-129150095D01*
G04 #@! TO.C,R3*
X56348333Y-147899380D02*
X56015000Y-147423190D01*
X55776904Y-147899380D02*
X55776904Y-146899380D01*
X56157857Y-146899380D01*
X56253095Y-146947000D01*
X56300714Y-146994619D01*
X56348333Y-147089857D01*
X56348333Y-147232714D01*
X56300714Y-147327952D01*
X56253095Y-147375571D01*
X56157857Y-147423190D01*
X55776904Y-147423190D01*
X56681666Y-146899380D02*
X57300714Y-146899380D01*
X56967380Y-147280333D01*
X57110238Y-147280333D01*
X57205476Y-147327952D01*
X57253095Y-147375571D01*
X57300714Y-147470809D01*
X57300714Y-147708904D01*
X57253095Y-147804142D01*
X57205476Y-147851761D01*
X57110238Y-147899380D01*
X56824523Y-147899380D01*
X56729285Y-147851761D01*
X56681666Y-147804142D01*
G04 #@! TO.C,R16*
X55364142Y-151074380D02*
X55030809Y-150598190D01*
X54792714Y-151074380D02*
X54792714Y-150074380D01*
X55173666Y-150074380D01*
X55268904Y-150122000D01*
X55316523Y-150169619D01*
X55364142Y-150264857D01*
X55364142Y-150407714D01*
X55316523Y-150502952D01*
X55268904Y-150550571D01*
X55173666Y-150598190D01*
X54792714Y-150598190D01*
X56316523Y-151074380D02*
X55745095Y-151074380D01*
X56030809Y-151074380D02*
X56030809Y-150074380D01*
X55935571Y-150217238D01*
X55840333Y-150312476D01*
X55745095Y-150360095D01*
X57173666Y-150074380D02*
X56983190Y-150074380D01*
X56887952Y-150122000D01*
X56840333Y-150169619D01*
X56745095Y-150312476D01*
X56697476Y-150502952D01*
X56697476Y-150883904D01*
X56745095Y-150979142D01*
X56792714Y-151026761D01*
X56887952Y-151074380D01*
X57078428Y-151074380D01*
X57173666Y-151026761D01*
X57221285Y-150979142D01*
X57268904Y-150883904D01*
X57268904Y-150645809D01*
X57221285Y-150550571D01*
X57173666Y-150502952D01*
X57078428Y-150455333D01*
X56887952Y-150455333D01*
X56792714Y-150502952D01*
X56745095Y-150550571D01*
X56697476Y-150645809D01*
G04 #@! TO.C,C23*
X123055142Y-95607142D02*
X123007523Y-95654761D01*
X122864666Y-95702380D01*
X122769428Y-95702380D01*
X122626571Y-95654761D01*
X122531333Y-95559523D01*
X122483714Y-95464285D01*
X122436095Y-95273809D01*
X122436095Y-95130952D01*
X122483714Y-94940476D01*
X122531333Y-94845238D01*
X122626571Y-94750000D01*
X122769428Y-94702380D01*
X122864666Y-94702380D01*
X123007523Y-94750000D01*
X123055142Y-94797619D01*
X123436095Y-94797619D02*
X123483714Y-94750000D01*
X123578952Y-94702380D01*
X123817047Y-94702380D01*
X123912285Y-94750000D01*
X123959904Y-94797619D01*
X124007523Y-94892857D01*
X124007523Y-94988095D01*
X123959904Y-95130952D01*
X123388476Y-95702380D01*
X124007523Y-95702380D01*
X124340857Y-94702380D02*
X124959904Y-94702380D01*
X124626571Y-95083333D01*
X124769428Y-95083333D01*
X124864666Y-95130952D01*
X124912285Y-95178571D01*
X124959904Y-95273809D01*
X124959904Y-95511904D01*
X124912285Y-95607142D01*
X124864666Y-95654761D01*
X124769428Y-95702380D01*
X124483714Y-95702380D01*
X124388476Y-95654761D01*
X124340857Y-95607142D01*
G04 #@! TO.C,C24*
X139057142Y-95607142D02*
X139009523Y-95654761D01*
X138866666Y-95702380D01*
X138771428Y-95702380D01*
X138628571Y-95654761D01*
X138533333Y-95559523D01*
X138485714Y-95464285D01*
X138438095Y-95273809D01*
X138438095Y-95130952D01*
X138485714Y-94940476D01*
X138533333Y-94845238D01*
X138628571Y-94750000D01*
X138771428Y-94702380D01*
X138866666Y-94702380D01*
X139009523Y-94750000D01*
X139057142Y-94797619D01*
X139438095Y-94797619D02*
X139485714Y-94750000D01*
X139580952Y-94702380D01*
X139819047Y-94702380D01*
X139914285Y-94750000D01*
X139961904Y-94797619D01*
X140009523Y-94892857D01*
X140009523Y-94988095D01*
X139961904Y-95130952D01*
X139390476Y-95702380D01*
X140009523Y-95702380D01*
X140866666Y-95035714D02*
X140866666Y-95702380D01*
X140628571Y-94654761D02*
X140390476Y-95369047D01*
X141009523Y-95369047D01*
G04 #@! TO.C,J4*
X123872666Y-85304380D02*
X123872666Y-86018666D01*
X123825047Y-86161523D01*
X123729809Y-86256761D01*
X123586952Y-86304380D01*
X123491714Y-86304380D01*
X124777428Y-85637714D02*
X124777428Y-86304380D01*
X124539333Y-85256761D02*
X124301238Y-85971047D01*
X124920285Y-85971047D01*
G04 #@! TO.C,J17*
X140541476Y-85304380D02*
X140541476Y-86018666D01*
X140493857Y-86161523D01*
X140398619Y-86256761D01*
X140255761Y-86304380D01*
X140160523Y-86304380D01*
X141541476Y-86304380D02*
X140970047Y-86304380D01*
X141255761Y-86304380D02*
X141255761Y-85304380D01*
X141160523Y-85447238D01*
X141065285Y-85542476D01*
X140970047Y-85590095D01*
X141874809Y-85304380D02*
X142541476Y-85304380D01*
X142112904Y-86304380D01*
G04 #@! TO.C,Q1*
X121125619Y-62892238D02*
X121078000Y-62987476D01*
X120982761Y-63082714D01*
X120839904Y-63225571D01*
X120792285Y-63320809D01*
X120792285Y-63416047D01*
X121030380Y-63368428D02*
X120982761Y-63463666D01*
X120887523Y-63558904D01*
X120697047Y-63606523D01*
X120363714Y-63606523D01*
X120173238Y-63558904D01*
X120078000Y-63463666D01*
X120030380Y-63368428D01*
X120030380Y-63177952D01*
X120078000Y-63082714D01*
X120173238Y-62987476D01*
X120363714Y-62939857D01*
X120697047Y-62939857D01*
X120887523Y-62987476D01*
X120982761Y-63082714D01*
X121030380Y-63177952D01*
X121030380Y-63368428D01*
X121030380Y-61987476D02*
X121030380Y-62558904D01*
X121030380Y-62273190D02*
X120030380Y-62273190D01*
X120173238Y-62368428D01*
X120268476Y-62463666D01*
X120316095Y-62558904D01*
G04 #@! TO.C,Q2*
X137000619Y-63214238D02*
X136953000Y-63309476D01*
X136857761Y-63404714D01*
X136714904Y-63547571D01*
X136667285Y-63642809D01*
X136667285Y-63738047D01*
X136905380Y-63690428D02*
X136857761Y-63785666D01*
X136762523Y-63880904D01*
X136572047Y-63928523D01*
X136238714Y-63928523D01*
X136048238Y-63880904D01*
X135953000Y-63785666D01*
X135905380Y-63690428D01*
X135905380Y-63499952D01*
X135953000Y-63404714D01*
X136048238Y-63309476D01*
X136238714Y-63261857D01*
X136572047Y-63261857D01*
X136762523Y-63309476D01*
X136857761Y-63404714D01*
X136905380Y-63499952D01*
X136905380Y-63690428D01*
X136000619Y-62880904D02*
X135953000Y-62833285D01*
X135905380Y-62738047D01*
X135905380Y-62499952D01*
X135953000Y-62404714D01*
X136000619Y-62357095D01*
X136095857Y-62309476D01*
X136191095Y-62309476D01*
X136333952Y-62357095D01*
X136905380Y-62928523D01*
X136905380Y-62309476D01*
G04 #@! TO.C,D9*
X115339904Y-87701380D02*
X115339904Y-86701380D01*
X115578000Y-86701380D01*
X115720857Y-86749000D01*
X115816095Y-86844238D01*
X115863714Y-86939476D01*
X115911333Y-87129952D01*
X115911333Y-87272809D01*
X115863714Y-87463285D01*
X115816095Y-87558523D01*
X115720857Y-87653761D01*
X115578000Y-87701380D01*
X115339904Y-87701380D01*
X116387523Y-87701380D02*
X116578000Y-87701380D01*
X116673238Y-87653761D01*
X116720857Y-87606142D01*
X116816095Y-87463285D01*
X116863714Y-87272809D01*
X116863714Y-86891857D01*
X116816095Y-86796619D01*
X116768476Y-86749000D01*
X116673238Y-86701380D01*
X116482761Y-86701380D01*
X116387523Y-86749000D01*
X116339904Y-86796619D01*
X116292285Y-86891857D01*
X116292285Y-87129952D01*
X116339904Y-87225190D01*
X116387523Y-87272809D01*
X116482761Y-87320428D01*
X116673238Y-87320428D01*
X116768476Y-87272809D01*
X116816095Y-87225190D01*
X116863714Y-87129952D01*
G04 #@! TO.C,D10*
X131754714Y-87574380D02*
X131754714Y-86574380D01*
X131992809Y-86574380D01*
X132135666Y-86622000D01*
X132230904Y-86717238D01*
X132278523Y-86812476D01*
X132326142Y-87002952D01*
X132326142Y-87145809D01*
X132278523Y-87336285D01*
X132230904Y-87431523D01*
X132135666Y-87526761D01*
X131992809Y-87574380D01*
X131754714Y-87574380D01*
X133278523Y-87574380D02*
X132707095Y-87574380D01*
X132992809Y-87574380D02*
X132992809Y-86574380D01*
X132897571Y-86717238D01*
X132802333Y-86812476D01*
X132707095Y-86860095D01*
X133897571Y-86574380D02*
X133992809Y-86574380D01*
X134088047Y-86622000D01*
X134135666Y-86669619D01*
X134183285Y-86764857D01*
X134230904Y-86955333D01*
X134230904Y-87193428D01*
X134183285Y-87383904D01*
X134135666Y-87479142D01*
X134088047Y-87526761D01*
X133992809Y-87574380D01*
X133897571Y-87574380D01*
X133802333Y-87526761D01*
X133754714Y-87479142D01*
X133707095Y-87383904D01*
X133659476Y-87193428D01*
X133659476Y-86955333D01*
X133707095Y-86764857D01*
X133754714Y-86669619D01*
X133802333Y-86622000D01*
X133897571Y-86574380D01*
G04 #@! TO.C,J7*
X117903666Y-87582380D02*
X117903666Y-88296666D01*
X117856047Y-88439523D01*
X117760809Y-88534761D01*
X117617952Y-88582380D01*
X117522714Y-88582380D01*
X118284619Y-87582380D02*
X118951285Y-87582380D01*
X118522714Y-88582380D01*
G04 #@! TO.C,J8*
X134159666Y-87582380D02*
X134159666Y-88296666D01*
X134112047Y-88439523D01*
X134016809Y-88534761D01*
X133873952Y-88582380D01*
X133778714Y-88582380D01*
X134778714Y-88010952D02*
X134683476Y-87963333D01*
X134635857Y-87915714D01*
X134588238Y-87820476D01*
X134588238Y-87772857D01*
X134635857Y-87677619D01*
X134683476Y-87630000D01*
X134778714Y-87582380D01*
X134969190Y-87582380D01*
X135064428Y-87630000D01*
X135112047Y-87677619D01*
X135159666Y-87772857D01*
X135159666Y-87820476D01*
X135112047Y-87915714D01*
X135064428Y-87963333D01*
X134969190Y-88010952D01*
X134778714Y-88010952D01*
X134683476Y-88058571D01*
X134635857Y-88106190D01*
X134588238Y-88201428D01*
X134588238Y-88391904D01*
X134635857Y-88487142D01*
X134683476Y-88534761D01*
X134778714Y-88582380D01*
X134969190Y-88582380D01*
X135064428Y-88534761D01*
X135112047Y-88487142D01*
X135159666Y-88391904D01*
X135159666Y-88201428D01*
X135112047Y-88106190D01*
X135064428Y-88058571D01*
X134969190Y-88010952D01*
G04 #@! TO.C,D1*
X64285904Y-155552380D02*
X64285904Y-154552380D01*
X64524000Y-154552380D01*
X64666857Y-154600000D01*
X64762095Y-154695238D01*
X64809714Y-154790476D01*
X64857333Y-154980952D01*
X64857333Y-155123809D01*
X64809714Y-155314285D01*
X64762095Y-155409523D01*
X64666857Y-155504761D01*
X64524000Y-155552380D01*
X64285904Y-155552380D01*
X65809714Y-155552380D02*
X65238285Y-155552380D01*
X65524000Y-155552380D02*
X65524000Y-154552380D01*
X65428761Y-154695238D01*
X65333523Y-154790476D01*
X65238285Y-154838095D01*
G04 #@! TO.C,D2*
X64285904Y-158600380D02*
X64285904Y-157600380D01*
X64524000Y-157600380D01*
X64666857Y-157648000D01*
X64762095Y-157743238D01*
X64809714Y-157838476D01*
X64857333Y-158028952D01*
X64857333Y-158171809D01*
X64809714Y-158362285D01*
X64762095Y-158457523D01*
X64666857Y-158552761D01*
X64524000Y-158600380D01*
X64285904Y-158600380D01*
X65238285Y-157695619D02*
X65285904Y-157648000D01*
X65381142Y-157600380D01*
X65619238Y-157600380D01*
X65714476Y-157648000D01*
X65762095Y-157695619D01*
X65809714Y-157790857D01*
X65809714Y-157886095D01*
X65762095Y-158028952D01*
X65190666Y-158600380D01*
X65809714Y-158600380D01*
G04 #@! TO.C,D3*
X64285904Y-149456380D02*
X64285904Y-148456380D01*
X64524000Y-148456380D01*
X64666857Y-148504000D01*
X64762095Y-148599238D01*
X64809714Y-148694476D01*
X64857333Y-148884952D01*
X64857333Y-149027809D01*
X64809714Y-149218285D01*
X64762095Y-149313523D01*
X64666857Y-149408761D01*
X64524000Y-149456380D01*
X64285904Y-149456380D01*
X65190666Y-148456380D02*
X65809714Y-148456380D01*
X65476380Y-148837333D01*
X65619238Y-148837333D01*
X65714476Y-148884952D01*
X65762095Y-148932571D01*
X65809714Y-149027809D01*
X65809714Y-149265904D01*
X65762095Y-149361142D01*
X65714476Y-149408761D01*
X65619238Y-149456380D01*
X65333523Y-149456380D01*
X65238285Y-149408761D01*
X65190666Y-149361142D01*
G04 #@! TO.C,D4*
X117706380Y-40630095D02*
X116706380Y-40630095D01*
X116706380Y-40392000D01*
X116754000Y-40249142D01*
X116849238Y-40153904D01*
X116944476Y-40106285D01*
X117134952Y-40058666D01*
X117277809Y-40058666D01*
X117468285Y-40106285D01*
X117563523Y-40153904D01*
X117658761Y-40249142D01*
X117706380Y-40392000D01*
X117706380Y-40630095D01*
X117039714Y-39201523D02*
X117706380Y-39201523D01*
X116658761Y-39439619D02*
X117373047Y-39677714D01*
X117373047Y-39058666D01*
G04 #@! TO.C,D5*
X123421380Y-40630095D02*
X122421380Y-40630095D01*
X122421380Y-40392000D01*
X122469000Y-40249142D01*
X122564238Y-40153904D01*
X122659476Y-40106285D01*
X122849952Y-40058666D01*
X122992809Y-40058666D01*
X123183285Y-40106285D01*
X123278523Y-40153904D01*
X123373761Y-40249142D01*
X123421380Y-40392000D01*
X123421380Y-40630095D01*
X122421380Y-39153904D02*
X122421380Y-39630095D01*
X122897571Y-39677714D01*
X122849952Y-39630095D01*
X122802333Y-39534857D01*
X122802333Y-39296761D01*
X122849952Y-39201523D01*
X122897571Y-39153904D01*
X122992809Y-39106285D01*
X123230904Y-39106285D01*
X123326142Y-39153904D01*
X123373761Y-39201523D01*
X123421380Y-39296761D01*
X123421380Y-39534857D01*
X123373761Y-39630095D01*
X123326142Y-39677714D01*
G04 #@! TO.C,D8*
X64285904Y-152504380D02*
X64285904Y-151504380D01*
X64524000Y-151504380D01*
X64666857Y-151552000D01*
X64762095Y-151647238D01*
X64809714Y-151742476D01*
X64857333Y-151932952D01*
X64857333Y-152075809D01*
X64809714Y-152266285D01*
X64762095Y-152361523D01*
X64666857Y-152456761D01*
X64524000Y-152504380D01*
X64285904Y-152504380D01*
X65428761Y-151932952D02*
X65333523Y-151885333D01*
X65285904Y-151837714D01*
X65238285Y-151742476D01*
X65238285Y-151694857D01*
X65285904Y-151599619D01*
X65333523Y-151552000D01*
X65428761Y-151504380D01*
X65619238Y-151504380D01*
X65714476Y-151552000D01*
X65762095Y-151599619D01*
X65809714Y-151694857D01*
X65809714Y-151742476D01*
X65762095Y-151837714D01*
X65714476Y-151885333D01*
X65619238Y-151932952D01*
X65428761Y-151932952D01*
X65333523Y-151980571D01*
X65285904Y-152028190D01*
X65238285Y-152123428D01*
X65238285Y-152313904D01*
X65285904Y-152409142D01*
X65333523Y-152456761D01*
X65428761Y-152504380D01*
X65619238Y-152504380D01*
X65714476Y-152456761D01*
X65762095Y-152409142D01*
X65809714Y-152313904D01*
X65809714Y-152123428D01*
X65762095Y-152028190D01*
X65714476Y-151980571D01*
X65619238Y-151932952D01*
G04 #@! TO.C,J1*
X146878380Y-121999333D02*
X147592666Y-121999333D01*
X147735523Y-122046952D01*
X147830761Y-122142190D01*
X147878380Y-122285047D01*
X147878380Y-122380285D01*
X147878380Y-120999333D02*
X147878380Y-121570761D01*
X147878380Y-121285047D02*
X146878380Y-121285047D01*
X147021238Y-121380285D01*
X147116476Y-121475523D01*
X147164095Y-121570761D01*
G04 #@! TO.C,J9*
X40374666Y-72964380D02*
X40374666Y-73678666D01*
X40327047Y-73821523D01*
X40231809Y-73916761D01*
X40088952Y-73964380D01*
X39993714Y-73964380D01*
X40898476Y-73964380D02*
X41088952Y-73964380D01*
X41184190Y-73916761D01*
X41231809Y-73869142D01*
X41327047Y-73726285D01*
X41374666Y-73535809D01*
X41374666Y-73154857D01*
X41327047Y-73059619D01*
X41279428Y-73012000D01*
X41184190Y-72964380D01*
X40993714Y-72964380D01*
X40898476Y-73012000D01*
X40850857Y-73059619D01*
X40803238Y-73154857D01*
X40803238Y-73392952D01*
X40850857Y-73488190D01*
X40898476Y-73535809D01*
X40993714Y-73583428D01*
X41184190Y-73583428D01*
X41279428Y-73535809D01*
X41327047Y-73488190D01*
X41374666Y-73392952D01*
G04 #@! TO.C,J11*
X51074476Y-72964380D02*
X51074476Y-73678666D01*
X51026857Y-73821523D01*
X50931619Y-73916761D01*
X50788761Y-73964380D01*
X50693523Y-73964380D01*
X52074476Y-73964380D02*
X51503047Y-73964380D01*
X51788761Y-73964380D02*
X51788761Y-72964380D01*
X51693523Y-73107238D01*
X51598285Y-73202476D01*
X51503047Y-73250095D01*
X53026857Y-73964380D02*
X52455428Y-73964380D01*
X52741142Y-73964380D02*
X52741142Y-72964380D01*
X52645904Y-73107238D01*
X52550666Y-73202476D01*
X52455428Y-73250095D01*
G04 #@! TD*
M02*
