G04 #@! TF.GenerationSoftware,KiCad,Pcbnew,(5.0.0)*
G04 #@! TF.CreationDate,2019-02-05T19:54:50-05:00*
G04 #@! TF.ProjectId,control board,636F6E74726F6C20626F6172642E6B69,rev?*
G04 #@! TF.SameCoordinates,Original*
G04 #@! TF.FileFunction,Copper,L1,Top,Signal*
G04 #@! TF.FilePolarity,Positive*
%FSLAX46Y46*%
G04 Gerber Fmt 4.6, Leading zero omitted, Abs format (unit mm)*
G04 Created by KiCad (PCBNEW (5.0.0)) date 02/05/19 19:54:50*
%MOMM*%
%LPD*%
G01*
G04 APERTURE LIST*
G04 #@! TA.AperFunction,NonConductor*
%ADD10C,0.300000*%
G04 #@! TD*
G04 #@! TA.AperFunction,EtchedComponent*
%ADD11C,0.010000*%
G04 #@! TD*
G04 #@! TA.AperFunction,Conductor*
%ADD12C,0.100000*%
G04 #@! TD*
G04 #@! TA.AperFunction,SMDPad,CuDef*
%ADD13C,0.950000*%
G04 #@! TD*
G04 #@! TA.AperFunction,ComponentPad*
%ADD14R,1.700000X1.700000*%
G04 #@! TD*
G04 #@! TA.AperFunction,ComponentPad*
%ADD15O,1.700000X1.700000*%
G04 #@! TD*
G04 #@! TA.AperFunction,ComponentPad*
%ADD16C,5.000000*%
G04 #@! TD*
G04 #@! TA.AperFunction,ComponentPad*
%ADD17R,1.524000X1.524000*%
G04 #@! TD*
G04 #@! TA.AperFunction,ComponentPad*
%ADD18C,1.524000*%
G04 #@! TD*
G04 #@! TA.AperFunction,ComponentPad*
%ADD19R,2.700000X3.300000*%
G04 #@! TD*
G04 #@! TA.AperFunction,ComponentPad*
%ADD20O,2.700000X3.300000*%
G04 #@! TD*
G04 #@! TA.AperFunction,ComponentPad*
%ADD21C,1.500000*%
G04 #@! TD*
G04 #@! TA.AperFunction,ComponentPad*
%ADD22C,1.350000*%
G04 #@! TD*
G04 #@! TA.AperFunction,ComponentPad*
%ADD23R,1.350000X1.350000*%
G04 #@! TD*
G04 #@! TA.AperFunction,ComponentPad*
%ADD24C,6.400000*%
G04 #@! TD*
G04 #@! TA.AperFunction,ComponentPad*
%ADD25C,1.700000*%
G04 #@! TD*
G04 #@! TA.AperFunction,ComponentPad*
%ADD26C,3.500000*%
G04 #@! TD*
G04 #@! TA.AperFunction,ViaPad*
%ADD27C,0.800000*%
G04 #@! TD*
G04 #@! TA.AperFunction,Conductor*
%ADD28C,0.250000*%
G04 #@! TD*
G04 #@! TA.AperFunction,Conductor*
%ADD29C,1.000000*%
G04 #@! TD*
G04 #@! TA.AperFunction,Conductor*
%ADD30C,3.000000*%
G04 #@! TD*
G04 #@! TA.AperFunction,Conductor*
%ADD31C,2.000000*%
G04 #@! TD*
G04 #@! TA.AperFunction,Conductor*
%ADD32C,1.500000*%
G04 #@! TD*
G04 APERTURE END LIST*
D10*
X133941714Y-153332571D02*
X133941714Y-152332571D01*
X133941714Y-152618285D02*
X134013142Y-152475428D01*
X134084571Y-152404000D01*
X134227428Y-152332571D01*
X134370285Y-152332571D01*
X135441714Y-153261142D02*
X135298857Y-153332571D01*
X135013142Y-153332571D01*
X134870285Y-153261142D01*
X134798857Y-153118285D01*
X134798857Y-152546857D01*
X134870285Y-152404000D01*
X135013142Y-152332571D01*
X135298857Y-152332571D01*
X135441714Y-152404000D01*
X135513142Y-152546857D01*
X135513142Y-152689714D01*
X134798857Y-152832571D01*
X136013142Y-152332571D02*
X136370285Y-153332571D01*
X136727428Y-152332571D01*
X137298857Y-153189714D02*
X137370285Y-153261142D01*
X137298857Y-153332571D01*
X137227428Y-153261142D01*
X137298857Y-153189714D01*
X137298857Y-153332571D01*
X139941714Y-153332571D02*
X139084571Y-153332571D01*
X139513142Y-153332571D02*
X139513142Y-151832571D01*
X139370285Y-152046857D01*
X139227428Y-152189714D01*
X139084571Y-152261142D01*
D11*
G04 #@! TO.C,G\002A\002A\002A*
G36*
X56291128Y-118540114D02*
X56312645Y-118557198D01*
X56346588Y-118586339D01*
X56393650Y-118627956D01*
X56404474Y-118637613D01*
X56515470Y-118741700D01*
X56628089Y-118856520D01*
X56737910Y-118977194D01*
X56840512Y-119098843D01*
X56931474Y-119216587D01*
X56941338Y-119230139D01*
X57098069Y-119461896D01*
X57236785Y-119698669D01*
X57358131Y-119941627D01*
X57442560Y-120139777D01*
X57466209Y-120202451D01*
X57492251Y-120276163D01*
X57518961Y-120355606D01*
X57544610Y-120435475D01*
X57567471Y-120510464D01*
X57585818Y-120575265D01*
X57591781Y-120598243D01*
X57601618Y-120637609D01*
X57707182Y-120677018D01*
X57758877Y-120695196D01*
X57820370Y-120715081D01*
X57886213Y-120735071D01*
X57950958Y-120753564D01*
X58009155Y-120768960D01*
X58055355Y-120779656D01*
X58058684Y-120780323D01*
X58078725Y-120786651D01*
X58109927Y-120799052D01*
X58147133Y-120815182D01*
X58185186Y-120832693D01*
X58218928Y-120849242D01*
X58243204Y-120862479D01*
X58251045Y-120867828D01*
X58265793Y-120878822D01*
X58290158Y-120895498D01*
X58307709Y-120907020D01*
X58354280Y-120942187D01*
X58404166Y-120988294D01*
X58451627Y-121039523D01*
X58490921Y-121090054D01*
X58496566Y-121098447D01*
X58527351Y-121151600D01*
X58551027Y-121207579D01*
X58568524Y-121270029D01*
X58580777Y-121342590D01*
X58588717Y-121428906D01*
X58590832Y-121466814D01*
X58594737Y-121535607D01*
X58600254Y-121590286D01*
X58609172Y-121634906D01*
X58623281Y-121673518D01*
X58644372Y-121710177D01*
X58674235Y-121748936D01*
X58714658Y-121793848D01*
X58752953Y-121833978D01*
X58794682Y-121877780D01*
X58832085Y-121918472D01*
X58866918Y-121958343D01*
X58900939Y-121999680D01*
X58935904Y-122044771D01*
X58973571Y-122095905D01*
X59015698Y-122155369D01*
X59064039Y-122225452D01*
X59120354Y-122308442D01*
X59142289Y-122340984D01*
X59188280Y-122408691D01*
X59234798Y-122476063D01*
X59279770Y-122540176D01*
X59321121Y-122598106D01*
X59356777Y-122646930D01*
X59384665Y-122683723D01*
X59391609Y-122692477D01*
X59441725Y-122757995D01*
X59478519Y-122814407D01*
X59503500Y-122864564D01*
X59518177Y-122911314D01*
X59522820Y-122940386D01*
X59524883Y-122987099D01*
X59518719Y-123022545D01*
X59502686Y-123053334D01*
X59491009Y-123068389D01*
X59477699Y-123085870D01*
X59470913Y-123102189D01*
X59469361Y-123123778D01*
X59471753Y-123157071D01*
X59472227Y-123161992D01*
X59471666Y-123235378D01*
X59455227Y-123299548D01*
X59423465Y-123353445D01*
X59376936Y-123396015D01*
X59337431Y-123417827D01*
X59310300Y-123431882D01*
X59292134Y-123445231D01*
X59287409Y-123452724D01*
X59282440Y-123467421D01*
X59269699Y-123491291D01*
X59258999Y-123508391D01*
X59221483Y-123549762D01*
X59171696Y-123582890D01*
X59115890Y-123603977D01*
X59095051Y-123607956D01*
X59040465Y-123607697D01*
X58977470Y-123594437D01*
X58910080Y-123569619D01*
X58842306Y-123534687D01*
X58785374Y-123496603D01*
X58751237Y-123473347D01*
X58724660Y-123461980D01*
X58704654Y-123463665D01*
X58690230Y-123479565D01*
X58680399Y-123510845D01*
X58674173Y-123558666D01*
X58670563Y-123624193D01*
X58670300Y-123632002D01*
X58669238Y-123676465D01*
X58669521Y-123714536D01*
X58671607Y-123750648D01*
X58675955Y-123789237D01*
X58683024Y-123834736D01*
X58693273Y-123891579D01*
X58701786Y-123936345D01*
X58717780Y-124024671D01*
X58728456Y-124097599D01*
X58733792Y-124158029D01*
X58733760Y-124208863D01*
X58728336Y-124253004D01*
X58717493Y-124293353D01*
X58701207Y-124332811D01*
X58698248Y-124338925D01*
X58657515Y-124403297D01*
X58611013Y-124452444D01*
X58578054Y-124484132D01*
X58545698Y-124518295D01*
X58520878Y-124547609D01*
X58520614Y-124547954D01*
X58475814Y-124596654D01*
X58416479Y-124646329D01*
X58346779Y-124694346D01*
X58270882Y-124738071D01*
X58192961Y-124774869D01*
X58119234Y-124801499D01*
X58060721Y-124818951D01*
X58080762Y-124784984D01*
X58094895Y-124746875D01*
X58101318Y-124697662D01*
X58099951Y-124643698D01*
X58090710Y-124591335D01*
X58083555Y-124568902D01*
X58050914Y-124500524D01*
X58003263Y-124429233D01*
X57939784Y-124354011D01*
X57859657Y-124273843D01*
X57809586Y-124228495D01*
X57731075Y-124151179D01*
X57666882Y-124068490D01*
X57612333Y-123974279D01*
X57604948Y-123959302D01*
X57559878Y-123849506D01*
X57532666Y-123743804D01*
X57523286Y-123642718D01*
X57531708Y-123546772D01*
X57557906Y-123456486D01*
X57601852Y-123372386D01*
X57638924Y-123322471D01*
X57664726Y-123289245D01*
X57677570Y-123265391D01*
X57676486Y-123250176D01*
X57660506Y-123242862D01*
X57628658Y-123242716D01*
X57579973Y-123248999D01*
X57549097Y-123254307D01*
X57499824Y-123261388D01*
X57445319Y-123266473D01*
X57399720Y-123268407D01*
X57362016Y-123269156D01*
X57339151Y-123271646D01*
X57326924Y-123276875D01*
X57321140Y-123285841D01*
X57320683Y-123287203D01*
X57307298Y-123309153D01*
X57283773Y-123332535D01*
X57256455Y-123352243D01*
X57231693Y-123363177D01*
X57225180Y-123363990D01*
X57209428Y-123367610D01*
X57196523Y-123381219D01*
X57182630Y-123408937D01*
X57182016Y-123410360D01*
X57149764Y-123464627D01*
X57106060Y-123507277D01*
X57065795Y-123530284D01*
X57042586Y-123545168D01*
X57019897Y-123570766D01*
X56997428Y-123607988D01*
X56974879Y-123657744D01*
X56951949Y-123720944D01*
X56928338Y-123798499D01*
X56903746Y-123891318D01*
X56877871Y-124000311D01*
X56850415Y-124126390D01*
X56821075Y-124270463D01*
X56820449Y-124273627D01*
X56794364Y-124402815D01*
X56770350Y-124515813D01*
X56747747Y-124615288D01*
X56725899Y-124703902D01*
X56704144Y-124784322D01*
X56681826Y-124859211D01*
X56658284Y-124931234D01*
X56656787Y-124935615D01*
X56630618Y-125008542D01*
X56602822Y-125078464D01*
X56571992Y-125148183D01*
X56536725Y-125220499D01*
X56495617Y-125298212D01*
X56447262Y-125384122D01*
X56390257Y-125481030D01*
X56348670Y-125549977D01*
X56278604Y-125665507D01*
X56217658Y-125766620D01*
X56164869Y-125855060D01*
X56119270Y-125932572D01*
X56079899Y-126000901D01*
X56045790Y-126061790D01*
X56015980Y-126116985D01*
X55989505Y-126168230D01*
X55965399Y-126217270D01*
X55942699Y-126265850D01*
X55920441Y-126315713D01*
X55902597Y-126357013D01*
X55857502Y-126471406D01*
X55821806Y-126582978D01*
X55794169Y-126697194D01*
X55773254Y-126819515D01*
X55758809Y-126943770D01*
X55746738Y-127052594D01*
X55732061Y-127147194D01*
X55713486Y-127232349D01*
X55689727Y-127312838D01*
X55659493Y-127393441D01*
X55621496Y-127478938D01*
X55605526Y-127512127D01*
X55524450Y-127656370D01*
X55427755Y-127789889D01*
X55315879Y-127912206D01*
X55189264Y-128022845D01*
X55048349Y-128121327D01*
X55038913Y-128127168D01*
X54995030Y-128155205D01*
X54958140Y-128182083D01*
X54927303Y-128209888D01*
X54901575Y-128240703D01*
X54880014Y-128276610D01*
X54861677Y-128319694D01*
X54845621Y-128372038D01*
X54830904Y-128435727D01*
X54816582Y-128512843D01*
X54801713Y-128605471D01*
X54791427Y-128674177D01*
X54774683Y-128783464D01*
X54758653Y-128877639D01*
X54742463Y-128960574D01*
X54725242Y-129036142D01*
X54706118Y-129108215D01*
X54684218Y-129180664D01*
X54662685Y-129245677D01*
X54635555Y-129328173D01*
X54612720Y-129405542D01*
X54593741Y-129480696D01*
X54578173Y-129556544D01*
X54565576Y-129635998D01*
X54555506Y-129721970D01*
X54547523Y-129817370D01*
X54541185Y-129925109D01*
X54536047Y-130048099D01*
X54534666Y-130088639D01*
X54530647Y-130208943D01*
X54526918Y-130312453D01*
X54523302Y-130401419D01*
X54519625Y-130478092D01*
X54515712Y-130544721D01*
X54511387Y-130603557D01*
X54506474Y-130656851D01*
X54500800Y-130706853D01*
X54494188Y-130755812D01*
X54486463Y-130805980D01*
X54477450Y-130859606D01*
X54472349Y-130888739D01*
X54438122Y-131112654D01*
X54415712Y-131332582D01*
X54404913Y-131553200D01*
X54405520Y-131779186D01*
X54417326Y-132015215D01*
X54420718Y-132060314D01*
X54428484Y-132146337D01*
X54438461Y-132237495D01*
X54450192Y-132330921D01*
X54463224Y-132423751D01*
X54477103Y-132513116D01*
X54491374Y-132596151D01*
X54505582Y-132669990D01*
X54519274Y-132731766D01*
X54531995Y-132778614D01*
X54536870Y-132792966D01*
X54565262Y-132849513D01*
X54605585Y-132896475D01*
X54659334Y-132934857D01*
X54728004Y-132965666D01*
X54813090Y-132989905D01*
X54837778Y-132995192D01*
X54916640Y-133012706D01*
X54978606Y-133030455D01*
X55025810Y-133049616D01*
X55060383Y-133071365D01*
X55084456Y-133096875D01*
X55100162Y-133127321D01*
X55104932Y-133142441D01*
X55122226Y-133183767D01*
X55154376Y-133235420D01*
X55200778Y-133296597D01*
X55260825Y-133366492D01*
X55324990Y-133435107D01*
X55439346Y-133553413D01*
X55413134Y-133563472D01*
X55367615Y-133578512D01*
X55311448Y-133593440D01*
X55249979Y-133607193D01*
X55188552Y-133618712D01*
X55132512Y-133626934D01*
X55087201Y-133630796D01*
X55073730Y-133630896D01*
X55037812Y-133628194D01*
X54999229Y-133622856D01*
X54992289Y-133621572D01*
X54959898Y-133613904D01*
X54919676Y-133602613D01*
X54889586Y-133593162D01*
X54860409Y-133583903D01*
X54837583Y-133578872D01*
X54815026Y-133577867D01*
X54786659Y-133580686D01*
X54746402Y-133587128D01*
X54740115Y-133588198D01*
X54677526Y-133597798D01*
X54629068Y-133602246D01*
X54590482Y-133601360D01*
X54557507Y-133594957D01*
X54525883Y-133582854D01*
X54517116Y-133578631D01*
X54469447Y-133544662D01*
X54434364Y-133498101D01*
X54414573Y-133442642D01*
X54413626Y-133437286D01*
X54406976Y-133413779D01*
X54392828Y-133398318D01*
X54368863Y-133385765D01*
X54339835Y-133368635D01*
X54310836Y-133344667D01*
X54286350Y-133318437D01*
X54270858Y-133294517D01*
X54267735Y-133282578D01*
X54265573Y-133274897D01*
X54256511Y-133271383D01*
X54236681Y-133271655D01*
X54202218Y-133275331D01*
X54198678Y-133275765D01*
X54166720Y-133278459D01*
X54120223Y-133280730D01*
X54063693Y-133282441D01*
X54001638Y-133283451D01*
X53943884Y-133283643D01*
X53869037Y-133282913D01*
X53808367Y-133281054D01*
X53757021Y-133277713D01*
X53710141Y-133272534D01*
X53662872Y-133265163D01*
X53643847Y-133261723D01*
X53529450Y-133236627D01*
X53430232Y-133206935D01*
X53346788Y-133172999D01*
X53279709Y-133135169D01*
X53229588Y-133093796D01*
X53197018Y-133049230D01*
X53182592Y-133001823D01*
X53181885Y-132988382D01*
X53177453Y-132970669D01*
X53169257Y-132965190D01*
X53147733Y-132956079D01*
X53128071Y-132930401D01*
X53111749Y-132890634D01*
X53102697Y-132853623D01*
X53094008Y-132815988D01*
X53083604Y-132782767D01*
X53073848Y-132761355D01*
X53063076Y-132747540D01*
X53049481Y-132738143D01*
X53028513Y-132731444D01*
X52995622Y-132725720D01*
X52970795Y-132722364D01*
X52926271Y-132709535D01*
X52891175Y-132683039D01*
X52864593Y-132641653D01*
X52845608Y-132584151D01*
X52837981Y-132544622D01*
X52832232Y-132496251D01*
X52829467Y-132442044D01*
X52829838Y-132380978D01*
X52833499Y-132312030D01*
X52840601Y-132234179D01*
X52851298Y-132146400D01*
X52865744Y-132047674D01*
X52884091Y-131936976D01*
X52906491Y-131813285D01*
X52918677Y-131750217D01*
X53489599Y-131750217D01*
X53490456Y-131832813D01*
X53492063Y-131931864D01*
X53492146Y-131936490D01*
X53494331Y-132044099D01*
X53496843Y-132134661D01*
X53499891Y-132210177D01*
X53503683Y-132272650D01*
X53508428Y-132324082D01*
X53514335Y-132366474D01*
X53521612Y-132401830D01*
X53530468Y-132432151D01*
X53541112Y-132459439D01*
X53548237Y-132474768D01*
X53584892Y-132533530D01*
X53631809Y-132584009D01*
X53685463Y-132623595D01*
X53742331Y-132649681D01*
X53797943Y-132659637D01*
X53815627Y-132659065D01*
X53825269Y-132653087D01*
X53830260Y-132637010D01*
X53833540Y-132610383D01*
X53836154Y-132582643D01*
X53839665Y-132540899D01*
X53843671Y-132490152D01*
X53847768Y-132435403D01*
X53849059Y-132417502D01*
X53854359Y-132351687D01*
X53861409Y-132276039D01*
X53869317Y-132199590D01*
X53877191Y-132131372D01*
X53877736Y-132126990D01*
X53886098Y-132052321D01*
X53891718Y-131981312D01*
X53894591Y-131910297D01*
X53894717Y-131835610D01*
X53892089Y-131753585D01*
X53886707Y-131660555D01*
X53878566Y-131552855D01*
X53877210Y-131536440D01*
X53867273Y-131399596D01*
X53861163Y-131274297D01*
X53858892Y-131162033D01*
X53860470Y-131064293D01*
X53865907Y-130982569D01*
X53872710Y-130931623D01*
X53878914Y-130893915D01*
X53882026Y-130864764D01*
X53881815Y-130838088D01*
X53878051Y-130807806D01*
X53870505Y-130767837D01*
X53865639Y-130744227D01*
X53856009Y-130699032D01*
X53848672Y-130669400D01*
X53842257Y-130652201D01*
X53835391Y-130644308D01*
X53826701Y-130642588D01*
X53821276Y-130643061D01*
X53810945Y-130646183D01*
X53801922Y-130654753D01*
X53792631Y-130671812D01*
X53781497Y-130700401D01*
X53766947Y-130743562D01*
X53763106Y-130755390D01*
X53742112Y-130817292D01*
X53716156Y-130889241D01*
X53687610Y-130965009D01*
X53658846Y-131038367D01*
X53632235Y-131103085D01*
X53619871Y-131131627D01*
X53605359Y-131166964D01*
X53587438Y-131214471D01*
X53568256Y-131268094D01*
X53549958Y-131321781D01*
X53534692Y-131369478D01*
X53530346Y-131384040D01*
X53519023Y-131424329D01*
X53509823Y-131461223D01*
X53502574Y-131497201D01*
X53497106Y-131534746D01*
X53493246Y-131576339D01*
X53490822Y-131624461D01*
X53489664Y-131681593D01*
X53489599Y-131750217D01*
X52918677Y-131750217D01*
X52933099Y-131675577D01*
X52964066Y-131522830D01*
X52999546Y-131354023D01*
X53039691Y-131168132D01*
X53052902Y-131107815D01*
X53125084Y-130779202D01*
X53115860Y-130622040D01*
X53105325Y-130386208D01*
X53101115Y-130143528D01*
X53103287Y-129892012D01*
X53111893Y-129629678D01*
X53126990Y-129354540D01*
X53148630Y-129064614D01*
X53163265Y-128898963D01*
X53168606Y-128838709D01*
X53172880Y-128785034D01*
X53175900Y-128740769D01*
X53177481Y-128708744D01*
X53177439Y-128691790D01*
X53176970Y-128689899D01*
X53165778Y-128688818D01*
X53140550Y-128690507D01*
X53106040Y-128694595D01*
X53093471Y-128696401D01*
X52923644Y-128721351D01*
X52769184Y-128742953D01*
X52626779Y-128761601D01*
X52493120Y-128777690D01*
X52364893Y-128791615D01*
X52238788Y-128803771D01*
X52111493Y-128814553D01*
X52086509Y-128816508D01*
X52002636Y-128822757D01*
X51921663Y-128828244D01*
X51841915Y-128833003D01*
X51761715Y-128837067D01*
X51679386Y-128840467D01*
X51593256Y-128843237D01*
X51501645Y-128845410D01*
X51402881Y-128847017D01*
X51295284Y-128848092D01*
X51177181Y-128848668D01*
X51046896Y-128848776D01*
X50902752Y-128848451D01*
X50743074Y-128847723D01*
X50566185Y-128846627D01*
X50548222Y-128846503D01*
X50373673Y-128845441D01*
X50211121Y-128844750D01*
X50061436Y-128844429D01*
X49925483Y-128844473D01*
X49804132Y-128844879D01*
X49698250Y-128845645D01*
X49608704Y-128846767D01*
X49536362Y-128848242D01*
X49482091Y-128850068D01*
X49476660Y-128850319D01*
X49400233Y-128853747D01*
X49312054Y-128857317D01*
X49219415Y-128860758D01*
X49129608Y-128863798D01*
X49052797Y-128866088D01*
X48766687Y-128864370D01*
X48481568Y-128843802D01*
X48198179Y-128804581D01*
X47917258Y-128746906D01*
X47639542Y-128670975D01*
X47365772Y-128576985D01*
X47096684Y-128465136D01*
X46833018Y-128335624D01*
X46614397Y-128212208D01*
X46544238Y-128170398D01*
X46487838Y-128137582D01*
X46442781Y-128112687D01*
X46406654Y-128094638D01*
X46377044Y-128082362D01*
X46351536Y-128074785D01*
X46327716Y-128070834D01*
X46303171Y-128069434D01*
X46293261Y-128069347D01*
X46232336Y-128073818D01*
X46175891Y-128088528D01*
X46118181Y-128115403D01*
X46072889Y-128143190D01*
X46025705Y-128177240D01*
X45976677Y-128218433D01*
X45925098Y-128267660D01*
X45870259Y-128325815D01*
X45811455Y-128393791D01*
X45747976Y-128472480D01*
X45679117Y-128562775D01*
X45604170Y-128665568D01*
X45522427Y-128781754D01*
X45433182Y-128912223D01*
X45335727Y-129057870D01*
X45273287Y-129152507D01*
X45206559Y-129254961D01*
X45150066Y-129343685D01*
X45102845Y-129420356D01*
X45063931Y-129486653D01*
X45032358Y-129544256D01*
X45007164Y-129594842D01*
X44987382Y-129640091D01*
X44976222Y-129669540D01*
X44941728Y-129774163D01*
X44914638Y-129873915D01*
X44894288Y-129973077D01*
X44880014Y-130075931D01*
X44871153Y-130186758D01*
X44867042Y-130309842D01*
X44866560Y-130377247D01*
X44867263Y-130456622D01*
X44869534Y-130534394D01*
X44873616Y-130612929D01*
X44879751Y-130694593D01*
X44888182Y-130781754D01*
X44899151Y-130876775D01*
X44912901Y-130982025D01*
X44929674Y-131099869D01*
X44949712Y-131232674D01*
X44962907Y-131317364D01*
X44974100Y-131390125D01*
X44986634Y-131474223D01*
X44999408Y-131562102D01*
X45011320Y-131646207D01*
X45018989Y-131701987D01*
X45028357Y-131769966D01*
X45036195Y-131822388D01*
X45043269Y-131862600D01*
X45050344Y-131893957D01*
X45058188Y-131919809D01*
X45067567Y-131943509D01*
X45079245Y-131968407D01*
X45080434Y-131970818D01*
X45113257Y-132024718D01*
X45159578Y-132083157D01*
X45215805Y-132142255D01*
X45278347Y-132198131D01*
X45321901Y-132231764D01*
X45355329Y-132255132D01*
X45398673Y-132284279D01*
X45448382Y-132316936D01*
X45500902Y-132350834D01*
X45552684Y-132383706D01*
X45600176Y-132413280D01*
X45639826Y-132437290D01*
X45668083Y-132453465D01*
X45672774Y-132455929D01*
X45696415Y-132468607D01*
X45711908Y-132478088D01*
X45714284Y-132480043D01*
X45724255Y-132488051D01*
X45744792Y-132502872D01*
X45761910Y-132514750D01*
X45791453Y-132536678D01*
X45818055Y-132559245D01*
X45827770Y-132568790D01*
X45842450Y-132586045D01*
X45844799Y-132597263D01*
X45835859Y-132609974D01*
X45833785Y-132612281D01*
X45824564Y-132626939D01*
X45822409Y-132644253D01*
X45828247Y-132665487D01*
X45843010Y-132691901D01*
X45867623Y-132724757D01*
X45903018Y-132765318D01*
X45950122Y-132814844D01*
X46009865Y-132874599D01*
X46069891Y-132933037D01*
X46113529Y-132975390D01*
X46152134Y-133013287D01*
X46183726Y-133044748D01*
X46206330Y-133067799D01*
X46217967Y-133080462D01*
X46219110Y-133082195D01*
X46210485Y-133086218D01*
X46187706Y-133092154D01*
X46155414Y-133098820D01*
X46150053Y-133099807D01*
X46069240Y-133109167D01*
X45971548Y-133110992D01*
X45856807Y-133105276D01*
X45724851Y-133092013D01*
X45633322Y-133079853D01*
X45556899Y-133069686D01*
X45476566Y-133060412D01*
X45398194Y-133052624D01*
X45327657Y-133046909D01*
X45277497Y-133044095D01*
X45221065Y-133041720D01*
X45180318Y-133039285D01*
X45151901Y-133036246D01*
X45132455Y-133032059D01*
X45118622Y-133026182D01*
X45107046Y-133018071D01*
X45104705Y-133016133D01*
X45080284Y-132987418D01*
X45070562Y-132952768D01*
X45074698Y-132908518D01*
X45077421Y-132896990D01*
X45089311Y-132850595D01*
X45050613Y-132810261D01*
X45027350Y-132783400D01*
X44998992Y-132746874D01*
X44970516Y-132707189D01*
X44961424Y-132693727D01*
X44922521Y-132636566D01*
X44890329Y-132593289D01*
X44862356Y-132561104D01*
X44836104Y-132537217D01*
X44809078Y-132518836D01*
X44801145Y-132514357D01*
X44755443Y-132494236D01*
X44720059Y-132489029D01*
X44695560Y-132498731D01*
X44684910Y-132515133D01*
X44667501Y-132556402D01*
X44644306Y-132603754D01*
X44618258Y-132651889D01*
X44592286Y-132695504D01*
X44569324Y-132729298D01*
X44560474Y-132740202D01*
X44540415Y-132762201D01*
X44529444Y-132771314D01*
X44524006Y-132768913D01*
X44520546Y-132756365D01*
X44520392Y-132755640D01*
X44518795Y-132739760D01*
X44516983Y-132707735D01*
X44515070Y-132662464D01*
X44513168Y-132606849D01*
X44511389Y-132543792D01*
X44510212Y-132493702D01*
X44503847Y-132326124D01*
X44491992Y-132145463D01*
X44475214Y-131956692D01*
X44454087Y-131764789D01*
X44429178Y-131574728D01*
X44401059Y-131391486D01*
X44370300Y-131220038D01*
X44356299Y-131150677D01*
X44347494Y-131108359D01*
X44338681Y-131065503D01*
X44332774Y-131036377D01*
X44316226Y-130955942D01*
X44296603Y-130864033D01*
X44274685Y-130764038D01*
X44251251Y-130659346D01*
X44227079Y-130553349D01*
X44202950Y-130449436D01*
X44179641Y-130350996D01*
X44157934Y-130261420D01*
X44138607Y-130184096D01*
X44124053Y-130128386D01*
X44114560Y-130103546D01*
X44101097Y-130091066D01*
X44081149Y-130091009D01*
X44052199Y-130103441D01*
X44011731Y-130128426D01*
X44007300Y-130131385D01*
X43900206Y-130214674D01*
X43804683Y-130313077D01*
X43720748Y-130426561D01*
X43648417Y-130555096D01*
X43587705Y-130698650D01*
X43538629Y-130857192D01*
X43501205Y-131030691D01*
X43480333Y-131174489D01*
X43473177Y-131245692D01*
X43466645Y-131330228D01*
X43460913Y-131423693D01*
X43456161Y-131521685D01*
X43452569Y-131619804D01*
X43450313Y-131713646D01*
X43449573Y-131798809D01*
X43450528Y-131870891D01*
X43451254Y-131891266D01*
X43461359Y-132027903D01*
X43479616Y-132149642D01*
X43506651Y-132259087D01*
X43543091Y-132358841D01*
X43583555Y-132440892D01*
X43627720Y-132507331D01*
X43686906Y-132576744D01*
X43758048Y-132646128D01*
X43838080Y-132712477D01*
X43918822Y-132769488D01*
X43972814Y-132804756D01*
X44012798Y-132831865D01*
X44040869Y-132852832D01*
X44059124Y-132869674D01*
X44069658Y-132884407D01*
X44074566Y-132899049D01*
X44075945Y-132915618D01*
X44075985Y-132920741D01*
X44079074Y-132947173D01*
X44090124Y-132973773D01*
X44111808Y-133006676D01*
X44115706Y-133011949D01*
X44151746Y-133058104D01*
X44196048Y-133111560D01*
X44244528Y-133167663D01*
X44293097Y-133221759D01*
X44337670Y-133269192D01*
X44368819Y-133300277D01*
X44425593Y-133354377D01*
X44372232Y-133378074D01*
X44328251Y-133396359D01*
X44287071Y-133410150D01*
X44245590Y-133419680D01*
X44200707Y-133425187D01*
X44149319Y-133426907D01*
X44088324Y-133425077D01*
X44014620Y-133419932D01*
X43927563Y-133411951D01*
X43854454Y-133404960D01*
X43796610Y-133399994D01*
X43750366Y-133396945D01*
X43712058Y-133395704D01*
X43678020Y-133396160D01*
X43644588Y-133398205D01*
X43608096Y-133401730D01*
X43603039Y-133402280D01*
X43538891Y-133407738D01*
X43489597Y-133407730D01*
X43451585Y-133401628D01*
X43421283Y-133388801D01*
X43395120Y-133368621D01*
X43391427Y-133365016D01*
X43365168Y-133331585D01*
X43349808Y-133292642D01*
X43344230Y-133243965D01*
X43346158Y-133193998D01*
X43348590Y-133161606D01*
X43348141Y-133137381D01*
X43342587Y-133118091D01*
X43329706Y-133100504D01*
X43307275Y-133081390D01*
X43273070Y-133057515D01*
X43234901Y-133032267D01*
X43170292Y-132987175D01*
X43122568Y-132948050D01*
X43090816Y-132914066D01*
X43075817Y-132888886D01*
X43062431Y-132867640D01*
X43042761Y-132860561D01*
X43037953Y-132860414D01*
X43021008Y-132863664D01*
X43004954Y-132875716D01*
X42985778Y-132900025D01*
X42977098Y-132912802D01*
X42958073Y-132939511D01*
X42942162Y-132958384D01*
X42933132Y-132965190D01*
X42920596Y-132955866D01*
X42906638Y-132928531D01*
X42891653Y-132884136D01*
X42877957Y-132831839D01*
X42865146Y-132776701D01*
X42856771Y-132734500D01*
X42852683Y-132699683D01*
X42852734Y-132666698D01*
X42856774Y-132629993D01*
X42864655Y-132584013D01*
X42870499Y-132553153D01*
X42880994Y-132493703D01*
X42891033Y-132428777D01*
X42899382Y-132366801D01*
X42904275Y-132322252D01*
X42907934Y-132268340D01*
X42910672Y-132197853D01*
X42912503Y-132113243D01*
X42913439Y-132016962D01*
X42913492Y-131911462D01*
X42912677Y-131799195D01*
X42911005Y-131682613D01*
X42908491Y-131564168D01*
X42905146Y-131446312D01*
X42900985Y-131331498D01*
X42898750Y-131279265D01*
X42893278Y-131139871D01*
X42889607Y-131005814D01*
X42887715Y-130878907D01*
X42887583Y-130760962D01*
X42889192Y-130653794D01*
X42892521Y-130559214D01*
X42897552Y-130479038D01*
X42904263Y-130415078D01*
X42908438Y-130388677D01*
X42925442Y-130306595D01*
X42944488Y-130238633D01*
X42967907Y-130179868D01*
X42998034Y-130125372D01*
X43037201Y-130070218D01*
X43087741Y-130009481D01*
X43088354Y-130008781D01*
X43248652Y-129819062D01*
X43392090Y-129635100D01*
X43519488Y-129455552D01*
X43631664Y-129279078D01*
X43729436Y-129104334D01*
X43813623Y-128929978D01*
X43885044Y-128754669D01*
X43926914Y-128633676D01*
X43953270Y-128549169D01*
X43972938Y-128479232D01*
X43986450Y-128420803D01*
X43994335Y-128370822D01*
X43997125Y-128326230D01*
X43995352Y-128283966D01*
X43992194Y-128257590D01*
X43979372Y-128184644D01*
X43960228Y-128096938D01*
X43935572Y-127997375D01*
X43906214Y-127888860D01*
X43872963Y-127774297D01*
X43836628Y-127656592D01*
X43798021Y-127538648D01*
X43765821Y-127445452D01*
X43742276Y-127378990D01*
X43715608Y-127303707D01*
X43688745Y-127227869D01*
X43664613Y-127159736D01*
X43659541Y-127145414D01*
X43599014Y-126971852D01*
X43546009Y-126813771D01*
X43500113Y-126669333D01*
X43460913Y-126536703D01*
X43427994Y-126414041D01*
X43400944Y-126299511D01*
X43379349Y-126191275D01*
X43362796Y-126087498D01*
X43350870Y-125986339D01*
X43343160Y-125885963D01*
X43339250Y-125784533D01*
X43338552Y-125719045D01*
X43338444Y-125652116D01*
X43338088Y-125601852D01*
X43337243Y-125565866D01*
X43335670Y-125541775D01*
X43333127Y-125527192D01*
X43329373Y-125519732D01*
X43324170Y-125517010D01*
X43318149Y-125516639D01*
X43299155Y-125524492D01*
X43273833Y-125546408D01*
X43258636Y-125563223D01*
X43230228Y-125593309D01*
X43194099Y-125626721D01*
X43159514Y-125655092D01*
X43128455Y-125676787D01*
X43092588Y-125699088D01*
X43055766Y-125719953D01*
X43021843Y-125737338D01*
X42994673Y-125749202D01*
X42978109Y-125753501D01*
X42975360Y-125752690D01*
X42975439Y-125741927D01*
X42980336Y-125719072D01*
X42985252Y-125701566D01*
X42997327Y-125653534D01*
X42999298Y-125621629D01*
X42990888Y-125605666D01*
X42971822Y-125605460D01*
X42941824Y-125620826D01*
X42905203Y-125647854D01*
X42853240Y-125684489D01*
X42792012Y-125719303D01*
X42726112Y-125750379D01*
X42660135Y-125775801D01*
X42598676Y-125793650D01*
X42546328Y-125802007D01*
X42534983Y-125802389D01*
X42519401Y-125800511D01*
X42515003Y-125791104D01*
X42518070Y-125771433D01*
X42524689Y-125738368D01*
X42530206Y-125708448D01*
X42535775Y-125676420D01*
X42493873Y-125681575D01*
X42465797Y-125686449D01*
X42426182Y-125695122D01*
X42381780Y-125706069D01*
X42362157Y-125711298D01*
X42311005Y-125723461D01*
X42254851Y-125733963D01*
X42203869Y-125740965D01*
X42192141Y-125742031D01*
X42111939Y-125748195D01*
X42131141Y-125710556D01*
X42145373Y-125676984D01*
X42155961Y-125642223D01*
X42157231Y-125636208D01*
X42164117Y-125599500D01*
X42127069Y-125605447D01*
X42095843Y-125611613D01*
X42057694Y-125620675D01*
X42037940Y-125625929D01*
X41969407Y-125637977D01*
X41895898Y-125639057D01*
X41829921Y-125629534D01*
X41803223Y-125622659D01*
X41785562Y-125617458D01*
X41781987Y-125615981D01*
X41785333Y-125607474D01*
X41797151Y-125587447D01*
X41815003Y-125559995D01*
X41817706Y-125555996D01*
X41842550Y-125514508D01*
X41855023Y-125482129D01*
X41854873Y-125460285D01*
X41841848Y-125450400D01*
X41836484Y-125449965D01*
X41818017Y-125451835D01*
X41786810Y-125456806D01*
X41748737Y-125463914D01*
X41737520Y-125466182D01*
X41658731Y-125482400D01*
X41564814Y-125438328D01*
X41480349Y-125401978D01*
X41404081Y-125377035D01*
X41330037Y-125362175D01*
X41252244Y-125356071D01*
X41194672Y-125356232D01*
X41143693Y-125358132D01*
X41107369Y-125360924D01*
X41081304Y-125365337D01*
X41061103Y-125372099D01*
X41043453Y-125381295D01*
X41020185Y-125393210D01*
X41004084Y-125398085D01*
X41000780Y-125397360D01*
X41002198Y-125386864D01*
X41010984Y-125363914D01*
X41025421Y-125332798D01*
X41031391Y-125320965D01*
X41059668Y-125274785D01*
X41095553Y-125228882D01*
X41134781Y-125187856D01*
X41173092Y-125156311D01*
X41196648Y-125142531D01*
X41214099Y-125127093D01*
X41218485Y-125104409D01*
X41218485Y-125076236D01*
X41137522Y-125082981D01*
X41092490Y-125085652D01*
X41065664Y-125084607D01*
X41056564Y-125079827D01*
X41056559Y-125079673D01*
X41062914Y-125068992D01*
X41079993Y-125048521D01*
X41104813Y-125021705D01*
X41121440Y-125004741D01*
X41196529Y-124940324D01*
X41277663Y-124891711D01*
X41365726Y-124858778D01*
X41461599Y-124841398D01*
X41566163Y-124839449D01*
X41680301Y-124852805D01*
X41804894Y-124881342D01*
X41866184Y-124899604D01*
X41921388Y-124917698D01*
X41973807Y-124936239D01*
X42027026Y-124956684D01*
X42084632Y-124980491D01*
X42150209Y-125009121D01*
X42227342Y-125044032D01*
X42274141Y-125065584D01*
X42353716Y-125101694D01*
X42420082Y-125129835D01*
X42476858Y-125150973D01*
X42527663Y-125166072D01*
X42576113Y-125176096D01*
X42625827Y-125182010D01*
X42680423Y-125184778D01*
X42723434Y-125185361D01*
X42777767Y-125184632D01*
X42831538Y-125182317D01*
X42878659Y-125178773D01*
X42913038Y-125174355D01*
X42913934Y-125174190D01*
X43022986Y-125147156D01*
X43142529Y-125105171D01*
X43271746Y-125048610D01*
X43409817Y-124977850D01*
X43555924Y-124893269D01*
X43640973Y-124839991D01*
X43693552Y-124806238D01*
X43742478Y-124774914D01*
X43784838Y-124747878D01*
X43817720Y-124726987D01*
X43838210Y-124714101D01*
X43840998Y-124712382D01*
X43856558Y-124702786D01*
X43886002Y-124684538D01*
X43927042Y-124659061D01*
X43977394Y-124627775D01*
X44034769Y-124592099D01*
X44096881Y-124553455D01*
X44118847Y-124539783D01*
X44236892Y-124466645D01*
X44341451Y-124402650D01*
X44434918Y-124346410D01*
X44519682Y-124296539D01*
X44598134Y-124251649D01*
X44672666Y-124210353D01*
X44745667Y-124171265D01*
X44819530Y-124132997D01*
X44823697Y-124130873D01*
X45033308Y-124030305D01*
X45234580Y-123946547D01*
X45427963Y-123879505D01*
X45613910Y-123829089D01*
X45792871Y-123795207D01*
X45965300Y-123777768D01*
X46131647Y-123776681D01*
X46292364Y-123791853D01*
X46400084Y-123811726D01*
X46441632Y-123821036D01*
X46494884Y-123833063D01*
X46552976Y-123846255D01*
X46608972Y-123859038D01*
X46834006Y-123904701D01*
X47075721Y-123942497D01*
X47333423Y-123972371D01*
X47606420Y-123994270D01*
X47894017Y-124008141D01*
X48195523Y-124013930D01*
X48510243Y-124011581D01*
X48559202Y-124010508D01*
X48902045Y-123996817D01*
X49241506Y-123972297D01*
X49575988Y-123937242D01*
X49903894Y-123891946D01*
X50223626Y-123836704D01*
X50533587Y-123771807D01*
X50832179Y-123697551D01*
X51117804Y-123614228D01*
X51388866Y-123522133D01*
X51548347Y-123460984D01*
X51618606Y-123432697D01*
X51673146Y-123410418D01*
X51713954Y-123393121D01*
X51743016Y-123379785D01*
X51762319Y-123369386D01*
X51773850Y-123360899D01*
X51779594Y-123353301D01*
X51781539Y-123345569D01*
X51781710Y-123340750D01*
X51775285Y-123320522D01*
X51765041Y-123311772D01*
X51760299Y-123306397D01*
X51771145Y-123299199D01*
X51799083Y-123289205D01*
X51800759Y-123288676D01*
X51828761Y-123279060D01*
X51869536Y-123264007D01*
X51918248Y-123245349D01*
X51970061Y-123224919D01*
X51986573Y-123218279D01*
X52039705Y-123197508D01*
X52092697Y-123178021D01*
X52140245Y-123161691D01*
X52177042Y-123150390D01*
X52184706Y-123148379D01*
X52218579Y-123139487D01*
X52237681Y-123132133D01*
X52245857Y-123123802D01*
X52246952Y-123111983D01*
X52246542Y-123107959D01*
X52239842Y-123089530D01*
X52221715Y-123077919D01*
X52208733Y-123073729D01*
X52184625Y-123065989D01*
X52169469Y-123059293D01*
X52168116Y-123058261D01*
X52174798Y-123054426D01*
X52196852Y-123047658D01*
X52230964Y-123038719D01*
X52273817Y-123028368D01*
X52322097Y-123017365D01*
X52372487Y-123006469D01*
X52421672Y-122996442D01*
X52466336Y-122988043D01*
X52496085Y-122983083D01*
X52538704Y-122977844D01*
X52582984Y-122974372D01*
X52608636Y-122973536D01*
X52637880Y-122972980D01*
X52652549Y-122969775D01*
X52657118Y-122961452D01*
X52656261Y-122947271D01*
X52650026Y-122928582D01*
X52633409Y-122912867D01*
X52608303Y-122898780D01*
X52573521Y-122884335D01*
X52537891Y-122873754D01*
X52524959Y-122871332D01*
X52501014Y-122866384D01*
X52487599Y-122860243D01*
X52486559Y-122858280D01*
X52495513Y-122849623D01*
X52520211Y-122840196D01*
X52557407Y-122830746D01*
X52603857Y-122822017D01*
X52656313Y-122814756D01*
X52691347Y-122811239D01*
X52740515Y-122807945D01*
X52801693Y-122805177D01*
X52867845Y-122803185D01*
X52931935Y-122802220D01*
X52945966Y-122802170D01*
X53031369Y-122800674D01*
X53107445Y-122795872D01*
X53183747Y-122786996D01*
X53236845Y-122778869D01*
X53302538Y-122769011D01*
X53376957Y-122759310D01*
X53450930Y-122750887D01*
X53514909Y-122744892D01*
X53595432Y-122736917D01*
X53660497Y-122726743D01*
X53713632Y-122713793D01*
X53723468Y-122710711D01*
X53754680Y-122701641D01*
X53800514Y-122689800D01*
X53856915Y-122676163D01*
X53919826Y-122661705D01*
X53985192Y-122647400D01*
X54000409Y-122644179D01*
X54132276Y-122615624D01*
X54247316Y-122588771D01*
X54347598Y-122562928D01*
X54435194Y-122537407D01*
X54512175Y-122511516D01*
X54580613Y-122484567D01*
X54642578Y-122455868D01*
X54700141Y-122424729D01*
X54748747Y-122394795D01*
X54784366Y-122370211D01*
X54822149Y-122341757D01*
X54858942Y-122312113D01*
X54891593Y-122283957D01*
X54916951Y-122259967D01*
X54931862Y-122242821D01*
X54934485Y-122236972D01*
X54941729Y-122223218D01*
X54951954Y-122214662D01*
X54961528Y-122205456D01*
X54982252Y-122183262D01*
X55012844Y-122149522D01*
X55052019Y-122105680D01*
X55098497Y-122053181D01*
X55150992Y-121993468D01*
X55208222Y-121927985D01*
X55268903Y-121858175D01*
X55273423Y-121852960D01*
X55409922Y-121696960D01*
X55536525Y-121555546D01*
X55654287Y-121427717D01*
X55764263Y-121312472D01*
X55867511Y-121208813D01*
X55965087Y-121115738D01*
X56058047Y-121032248D01*
X56147447Y-120957342D01*
X56234343Y-120890018D01*
X56319792Y-120829279D01*
X56404849Y-120774123D01*
X56426643Y-120760806D01*
X56468677Y-120734953D01*
X56496798Y-120716053D01*
X56513713Y-120701755D01*
X56522130Y-120689703D01*
X56524755Y-120677543D01*
X56524818Y-120675431D01*
X56520097Y-120653029D01*
X56506300Y-120616620D01*
X56484548Y-120568286D01*
X56455965Y-120510110D01*
X56421673Y-120444177D01*
X56382792Y-120372569D01*
X56340445Y-120297368D01*
X56295754Y-120220659D01*
X56249841Y-120144524D01*
X56203828Y-120071046D01*
X56176986Y-120029631D01*
X56040734Y-119834175D01*
X55890127Y-119639631D01*
X55728650Y-119449994D01*
X55559788Y-119269254D01*
X55387023Y-119101406D01*
X55295221Y-119019171D01*
X55254984Y-118984012D01*
X55220294Y-118953328D01*
X55193494Y-118929221D01*
X55176925Y-118913793D01*
X55172609Y-118909123D01*
X55180118Y-118909200D01*
X55201385Y-118918923D01*
X55234525Y-118937067D01*
X55277651Y-118962408D01*
X55328878Y-118993723D01*
X55386318Y-119029789D01*
X55448086Y-119069382D01*
X55512295Y-119111277D01*
X55577058Y-119154252D01*
X55640490Y-119197082D01*
X55700705Y-119238545D01*
X55755814Y-119277416D01*
X55803934Y-119312472D01*
X55843177Y-119342489D01*
X55853669Y-119350926D01*
X56007897Y-119479880D01*
X56147861Y-119603337D01*
X56276445Y-119724099D01*
X56396531Y-119844970D01*
X56511002Y-119968754D01*
X56622739Y-120098253D01*
X56625596Y-120101677D01*
X56653976Y-120136512D01*
X56688240Y-120179824D01*
X56726147Y-120228646D01*
X56765452Y-120280010D01*
X56803916Y-120330947D01*
X56839293Y-120378492D01*
X56869342Y-120419674D01*
X56891821Y-120451528D01*
X56903661Y-120469658D01*
X56919288Y-120489495D01*
X56938214Y-120495499D01*
X56948949Y-120495014D01*
X56960436Y-120493337D01*
X56969245Y-120488970D01*
X56976758Y-120479002D01*
X56984359Y-120460520D01*
X56993429Y-120430611D01*
X57005352Y-120386363D01*
X57011330Y-120363615D01*
X57024501Y-120315024D01*
X57037038Y-120271660D01*
X57047708Y-120237591D01*
X57055281Y-120216885D01*
X57056574Y-120214222D01*
X57063834Y-120196851D01*
X57066864Y-120176184D01*
X57065292Y-120149229D01*
X57058746Y-120112998D01*
X57046851Y-120064497D01*
X57030551Y-120005361D01*
X56963631Y-119788441D01*
X56888975Y-119583906D01*
X56804467Y-119386965D01*
X56707991Y-119192834D01*
X56597433Y-118996722D01*
X56551222Y-118920577D01*
X56531231Y-118889521D01*
X56503259Y-118847788D01*
X56469949Y-118799151D01*
X56433944Y-118747384D01*
X56397887Y-118696261D01*
X56364423Y-118649555D01*
X56336193Y-118611040D01*
X56315843Y-118584489D01*
X56315448Y-118583998D01*
X56294197Y-118557029D01*
X56282597Y-118540447D01*
X56281343Y-118534669D01*
X56291128Y-118540114D01*
X56291128Y-118540114D01*
G37*
X56291128Y-118540114D02*
X56312645Y-118557198D01*
X56346588Y-118586339D01*
X56393650Y-118627956D01*
X56404474Y-118637613D01*
X56515470Y-118741700D01*
X56628089Y-118856520D01*
X56737910Y-118977194D01*
X56840512Y-119098843D01*
X56931474Y-119216587D01*
X56941338Y-119230139D01*
X57098069Y-119461896D01*
X57236785Y-119698669D01*
X57358131Y-119941627D01*
X57442560Y-120139777D01*
X57466209Y-120202451D01*
X57492251Y-120276163D01*
X57518961Y-120355606D01*
X57544610Y-120435475D01*
X57567471Y-120510464D01*
X57585818Y-120575265D01*
X57591781Y-120598243D01*
X57601618Y-120637609D01*
X57707182Y-120677018D01*
X57758877Y-120695196D01*
X57820370Y-120715081D01*
X57886213Y-120735071D01*
X57950958Y-120753564D01*
X58009155Y-120768960D01*
X58055355Y-120779656D01*
X58058684Y-120780323D01*
X58078725Y-120786651D01*
X58109927Y-120799052D01*
X58147133Y-120815182D01*
X58185186Y-120832693D01*
X58218928Y-120849242D01*
X58243204Y-120862479D01*
X58251045Y-120867828D01*
X58265793Y-120878822D01*
X58290158Y-120895498D01*
X58307709Y-120907020D01*
X58354280Y-120942187D01*
X58404166Y-120988294D01*
X58451627Y-121039523D01*
X58490921Y-121090054D01*
X58496566Y-121098447D01*
X58527351Y-121151600D01*
X58551027Y-121207579D01*
X58568524Y-121270029D01*
X58580777Y-121342590D01*
X58588717Y-121428906D01*
X58590832Y-121466814D01*
X58594737Y-121535607D01*
X58600254Y-121590286D01*
X58609172Y-121634906D01*
X58623281Y-121673518D01*
X58644372Y-121710177D01*
X58674235Y-121748936D01*
X58714658Y-121793848D01*
X58752953Y-121833978D01*
X58794682Y-121877780D01*
X58832085Y-121918472D01*
X58866918Y-121958343D01*
X58900939Y-121999680D01*
X58935904Y-122044771D01*
X58973571Y-122095905D01*
X59015698Y-122155369D01*
X59064039Y-122225452D01*
X59120354Y-122308442D01*
X59142289Y-122340984D01*
X59188280Y-122408691D01*
X59234798Y-122476063D01*
X59279770Y-122540176D01*
X59321121Y-122598106D01*
X59356777Y-122646930D01*
X59384665Y-122683723D01*
X59391609Y-122692477D01*
X59441725Y-122757995D01*
X59478519Y-122814407D01*
X59503500Y-122864564D01*
X59518177Y-122911314D01*
X59522820Y-122940386D01*
X59524883Y-122987099D01*
X59518719Y-123022545D01*
X59502686Y-123053334D01*
X59491009Y-123068389D01*
X59477699Y-123085870D01*
X59470913Y-123102189D01*
X59469361Y-123123778D01*
X59471753Y-123157071D01*
X59472227Y-123161992D01*
X59471666Y-123235378D01*
X59455227Y-123299548D01*
X59423465Y-123353445D01*
X59376936Y-123396015D01*
X59337431Y-123417827D01*
X59310300Y-123431882D01*
X59292134Y-123445231D01*
X59287409Y-123452724D01*
X59282440Y-123467421D01*
X59269699Y-123491291D01*
X59258999Y-123508391D01*
X59221483Y-123549762D01*
X59171696Y-123582890D01*
X59115890Y-123603977D01*
X59095051Y-123607956D01*
X59040465Y-123607697D01*
X58977470Y-123594437D01*
X58910080Y-123569619D01*
X58842306Y-123534687D01*
X58785374Y-123496603D01*
X58751237Y-123473347D01*
X58724660Y-123461980D01*
X58704654Y-123463665D01*
X58690230Y-123479565D01*
X58680399Y-123510845D01*
X58674173Y-123558666D01*
X58670563Y-123624193D01*
X58670300Y-123632002D01*
X58669238Y-123676465D01*
X58669521Y-123714536D01*
X58671607Y-123750648D01*
X58675955Y-123789237D01*
X58683024Y-123834736D01*
X58693273Y-123891579D01*
X58701786Y-123936345D01*
X58717780Y-124024671D01*
X58728456Y-124097599D01*
X58733792Y-124158029D01*
X58733760Y-124208863D01*
X58728336Y-124253004D01*
X58717493Y-124293353D01*
X58701207Y-124332811D01*
X58698248Y-124338925D01*
X58657515Y-124403297D01*
X58611013Y-124452444D01*
X58578054Y-124484132D01*
X58545698Y-124518295D01*
X58520878Y-124547609D01*
X58520614Y-124547954D01*
X58475814Y-124596654D01*
X58416479Y-124646329D01*
X58346779Y-124694346D01*
X58270882Y-124738071D01*
X58192961Y-124774869D01*
X58119234Y-124801499D01*
X58060721Y-124818951D01*
X58080762Y-124784984D01*
X58094895Y-124746875D01*
X58101318Y-124697662D01*
X58099951Y-124643698D01*
X58090710Y-124591335D01*
X58083555Y-124568902D01*
X58050914Y-124500524D01*
X58003263Y-124429233D01*
X57939784Y-124354011D01*
X57859657Y-124273843D01*
X57809586Y-124228495D01*
X57731075Y-124151179D01*
X57666882Y-124068490D01*
X57612333Y-123974279D01*
X57604948Y-123959302D01*
X57559878Y-123849506D01*
X57532666Y-123743804D01*
X57523286Y-123642718D01*
X57531708Y-123546772D01*
X57557906Y-123456486D01*
X57601852Y-123372386D01*
X57638924Y-123322471D01*
X57664726Y-123289245D01*
X57677570Y-123265391D01*
X57676486Y-123250176D01*
X57660506Y-123242862D01*
X57628658Y-123242716D01*
X57579973Y-123248999D01*
X57549097Y-123254307D01*
X57499824Y-123261388D01*
X57445319Y-123266473D01*
X57399720Y-123268407D01*
X57362016Y-123269156D01*
X57339151Y-123271646D01*
X57326924Y-123276875D01*
X57321140Y-123285841D01*
X57320683Y-123287203D01*
X57307298Y-123309153D01*
X57283773Y-123332535D01*
X57256455Y-123352243D01*
X57231693Y-123363177D01*
X57225180Y-123363990D01*
X57209428Y-123367610D01*
X57196523Y-123381219D01*
X57182630Y-123408937D01*
X57182016Y-123410360D01*
X57149764Y-123464627D01*
X57106060Y-123507277D01*
X57065795Y-123530284D01*
X57042586Y-123545168D01*
X57019897Y-123570766D01*
X56997428Y-123607988D01*
X56974879Y-123657744D01*
X56951949Y-123720944D01*
X56928338Y-123798499D01*
X56903746Y-123891318D01*
X56877871Y-124000311D01*
X56850415Y-124126390D01*
X56821075Y-124270463D01*
X56820449Y-124273627D01*
X56794364Y-124402815D01*
X56770350Y-124515813D01*
X56747747Y-124615288D01*
X56725899Y-124703902D01*
X56704144Y-124784322D01*
X56681826Y-124859211D01*
X56658284Y-124931234D01*
X56656787Y-124935615D01*
X56630618Y-125008542D01*
X56602822Y-125078464D01*
X56571992Y-125148183D01*
X56536725Y-125220499D01*
X56495617Y-125298212D01*
X56447262Y-125384122D01*
X56390257Y-125481030D01*
X56348670Y-125549977D01*
X56278604Y-125665507D01*
X56217658Y-125766620D01*
X56164869Y-125855060D01*
X56119270Y-125932572D01*
X56079899Y-126000901D01*
X56045790Y-126061790D01*
X56015980Y-126116985D01*
X55989505Y-126168230D01*
X55965399Y-126217270D01*
X55942699Y-126265850D01*
X55920441Y-126315713D01*
X55902597Y-126357013D01*
X55857502Y-126471406D01*
X55821806Y-126582978D01*
X55794169Y-126697194D01*
X55773254Y-126819515D01*
X55758809Y-126943770D01*
X55746738Y-127052594D01*
X55732061Y-127147194D01*
X55713486Y-127232349D01*
X55689727Y-127312838D01*
X55659493Y-127393441D01*
X55621496Y-127478938D01*
X55605526Y-127512127D01*
X55524450Y-127656370D01*
X55427755Y-127789889D01*
X55315879Y-127912206D01*
X55189264Y-128022845D01*
X55048349Y-128121327D01*
X55038913Y-128127168D01*
X54995030Y-128155205D01*
X54958140Y-128182083D01*
X54927303Y-128209888D01*
X54901575Y-128240703D01*
X54880014Y-128276610D01*
X54861677Y-128319694D01*
X54845621Y-128372038D01*
X54830904Y-128435727D01*
X54816582Y-128512843D01*
X54801713Y-128605471D01*
X54791427Y-128674177D01*
X54774683Y-128783464D01*
X54758653Y-128877639D01*
X54742463Y-128960574D01*
X54725242Y-129036142D01*
X54706118Y-129108215D01*
X54684218Y-129180664D01*
X54662685Y-129245677D01*
X54635555Y-129328173D01*
X54612720Y-129405542D01*
X54593741Y-129480696D01*
X54578173Y-129556544D01*
X54565576Y-129635998D01*
X54555506Y-129721970D01*
X54547523Y-129817370D01*
X54541185Y-129925109D01*
X54536047Y-130048099D01*
X54534666Y-130088639D01*
X54530647Y-130208943D01*
X54526918Y-130312453D01*
X54523302Y-130401419D01*
X54519625Y-130478092D01*
X54515712Y-130544721D01*
X54511387Y-130603557D01*
X54506474Y-130656851D01*
X54500800Y-130706853D01*
X54494188Y-130755812D01*
X54486463Y-130805980D01*
X54477450Y-130859606D01*
X54472349Y-130888739D01*
X54438122Y-131112654D01*
X54415712Y-131332582D01*
X54404913Y-131553200D01*
X54405520Y-131779186D01*
X54417326Y-132015215D01*
X54420718Y-132060314D01*
X54428484Y-132146337D01*
X54438461Y-132237495D01*
X54450192Y-132330921D01*
X54463224Y-132423751D01*
X54477103Y-132513116D01*
X54491374Y-132596151D01*
X54505582Y-132669990D01*
X54519274Y-132731766D01*
X54531995Y-132778614D01*
X54536870Y-132792966D01*
X54565262Y-132849513D01*
X54605585Y-132896475D01*
X54659334Y-132934857D01*
X54728004Y-132965666D01*
X54813090Y-132989905D01*
X54837778Y-132995192D01*
X54916640Y-133012706D01*
X54978606Y-133030455D01*
X55025810Y-133049616D01*
X55060383Y-133071365D01*
X55084456Y-133096875D01*
X55100162Y-133127321D01*
X55104932Y-133142441D01*
X55122226Y-133183767D01*
X55154376Y-133235420D01*
X55200778Y-133296597D01*
X55260825Y-133366492D01*
X55324990Y-133435107D01*
X55439346Y-133553413D01*
X55413134Y-133563472D01*
X55367615Y-133578512D01*
X55311448Y-133593440D01*
X55249979Y-133607193D01*
X55188552Y-133618712D01*
X55132512Y-133626934D01*
X55087201Y-133630796D01*
X55073730Y-133630896D01*
X55037812Y-133628194D01*
X54999229Y-133622856D01*
X54992289Y-133621572D01*
X54959898Y-133613904D01*
X54919676Y-133602613D01*
X54889586Y-133593162D01*
X54860409Y-133583903D01*
X54837583Y-133578872D01*
X54815026Y-133577867D01*
X54786659Y-133580686D01*
X54746402Y-133587128D01*
X54740115Y-133588198D01*
X54677526Y-133597798D01*
X54629068Y-133602246D01*
X54590482Y-133601360D01*
X54557507Y-133594957D01*
X54525883Y-133582854D01*
X54517116Y-133578631D01*
X54469447Y-133544662D01*
X54434364Y-133498101D01*
X54414573Y-133442642D01*
X54413626Y-133437286D01*
X54406976Y-133413779D01*
X54392828Y-133398318D01*
X54368863Y-133385765D01*
X54339835Y-133368635D01*
X54310836Y-133344667D01*
X54286350Y-133318437D01*
X54270858Y-133294517D01*
X54267735Y-133282578D01*
X54265573Y-133274897D01*
X54256511Y-133271383D01*
X54236681Y-133271655D01*
X54202218Y-133275331D01*
X54198678Y-133275765D01*
X54166720Y-133278459D01*
X54120223Y-133280730D01*
X54063693Y-133282441D01*
X54001638Y-133283451D01*
X53943884Y-133283643D01*
X53869037Y-133282913D01*
X53808367Y-133281054D01*
X53757021Y-133277713D01*
X53710141Y-133272534D01*
X53662872Y-133265163D01*
X53643847Y-133261723D01*
X53529450Y-133236627D01*
X53430232Y-133206935D01*
X53346788Y-133172999D01*
X53279709Y-133135169D01*
X53229588Y-133093796D01*
X53197018Y-133049230D01*
X53182592Y-133001823D01*
X53181885Y-132988382D01*
X53177453Y-132970669D01*
X53169257Y-132965190D01*
X53147733Y-132956079D01*
X53128071Y-132930401D01*
X53111749Y-132890634D01*
X53102697Y-132853623D01*
X53094008Y-132815988D01*
X53083604Y-132782767D01*
X53073848Y-132761355D01*
X53063076Y-132747540D01*
X53049481Y-132738143D01*
X53028513Y-132731444D01*
X52995622Y-132725720D01*
X52970795Y-132722364D01*
X52926271Y-132709535D01*
X52891175Y-132683039D01*
X52864593Y-132641653D01*
X52845608Y-132584151D01*
X52837981Y-132544622D01*
X52832232Y-132496251D01*
X52829467Y-132442044D01*
X52829838Y-132380978D01*
X52833499Y-132312030D01*
X52840601Y-132234179D01*
X52851298Y-132146400D01*
X52865744Y-132047674D01*
X52884091Y-131936976D01*
X52906491Y-131813285D01*
X52918677Y-131750217D01*
X53489599Y-131750217D01*
X53490456Y-131832813D01*
X53492063Y-131931864D01*
X53492146Y-131936490D01*
X53494331Y-132044099D01*
X53496843Y-132134661D01*
X53499891Y-132210177D01*
X53503683Y-132272650D01*
X53508428Y-132324082D01*
X53514335Y-132366474D01*
X53521612Y-132401830D01*
X53530468Y-132432151D01*
X53541112Y-132459439D01*
X53548237Y-132474768D01*
X53584892Y-132533530D01*
X53631809Y-132584009D01*
X53685463Y-132623595D01*
X53742331Y-132649681D01*
X53797943Y-132659637D01*
X53815627Y-132659065D01*
X53825269Y-132653087D01*
X53830260Y-132637010D01*
X53833540Y-132610383D01*
X53836154Y-132582643D01*
X53839665Y-132540899D01*
X53843671Y-132490152D01*
X53847768Y-132435403D01*
X53849059Y-132417502D01*
X53854359Y-132351687D01*
X53861409Y-132276039D01*
X53869317Y-132199590D01*
X53877191Y-132131372D01*
X53877736Y-132126990D01*
X53886098Y-132052321D01*
X53891718Y-131981312D01*
X53894591Y-131910297D01*
X53894717Y-131835610D01*
X53892089Y-131753585D01*
X53886707Y-131660555D01*
X53878566Y-131552855D01*
X53877210Y-131536440D01*
X53867273Y-131399596D01*
X53861163Y-131274297D01*
X53858892Y-131162033D01*
X53860470Y-131064293D01*
X53865907Y-130982569D01*
X53872710Y-130931623D01*
X53878914Y-130893915D01*
X53882026Y-130864764D01*
X53881815Y-130838088D01*
X53878051Y-130807806D01*
X53870505Y-130767837D01*
X53865639Y-130744227D01*
X53856009Y-130699032D01*
X53848672Y-130669400D01*
X53842257Y-130652201D01*
X53835391Y-130644308D01*
X53826701Y-130642588D01*
X53821276Y-130643061D01*
X53810945Y-130646183D01*
X53801922Y-130654753D01*
X53792631Y-130671812D01*
X53781497Y-130700401D01*
X53766947Y-130743562D01*
X53763106Y-130755390D01*
X53742112Y-130817292D01*
X53716156Y-130889241D01*
X53687610Y-130965009D01*
X53658846Y-131038367D01*
X53632235Y-131103085D01*
X53619871Y-131131627D01*
X53605359Y-131166964D01*
X53587438Y-131214471D01*
X53568256Y-131268094D01*
X53549958Y-131321781D01*
X53534692Y-131369478D01*
X53530346Y-131384040D01*
X53519023Y-131424329D01*
X53509823Y-131461223D01*
X53502574Y-131497201D01*
X53497106Y-131534746D01*
X53493246Y-131576339D01*
X53490822Y-131624461D01*
X53489664Y-131681593D01*
X53489599Y-131750217D01*
X52918677Y-131750217D01*
X52933099Y-131675577D01*
X52964066Y-131522830D01*
X52999546Y-131354023D01*
X53039691Y-131168132D01*
X53052902Y-131107815D01*
X53125084Y-130779202D01*
X53115860Y-130622040D01*
X53105325Y-130386208D01*
X53101115Y-130143528D01*
X53103287Y-129892012D01*
X53111893Y-129629678D01*
X53126990Y-129354540D01*
X53148630Y-129064614D01*
X53163265Y-128898963D01*
X53168606Y-128838709D01*
X53172880Y-128785034D01*
X53175900Y-128740769D01*
X53177481Y-128708744D01*
X53177439Y-128691790D01*
X53176970Y-128689899D01*
X53165778Y-128688818D01*
X53140550Y-128690507D01*
X53106040Y-128694595D01*
X53093471Y-128696401D01*
X52923644Y-128721351D01*
X52769184Y-128742953D01*
X52626779Y-128761601D01*
X52493120Y-128777690D01*
X52364893Y-128791615D01*
X52238788Y-128803771D01*
X52111493Y-128814553D01*
X52086509Y-128816508D01*
X52002636Y-128822757D01*
X51921663Y-128828244D01*
X51841915Y-128833003D01*
X51761715Y-128837067D01*
X51679386Y-128840467D01*
X51593256Y-128843237D01*
X51501645Y-128845410D01*
X51402881Y-128847017D01*
X51295284Y-128848092D01*
X51177181Y-128848668D01*
X51046896Y-128848776D01*
X50902752Y-128848451D01*
X50743074Y-128847723D01*
X50566185Y-128846627D01*
X50548222Y-128846503D01*
X50373673Y-128845441D01*
X50211121Y-128844750D01*
X50061436Y-128844429D01*
X49925483Y-128844473D01*
X49804132Y-128844879D01*
X49698250Y-128845645D01*
X49608704Y-128846767D01*
X49536362Y-128848242D01*
X49482091Y-128850068D01*
X49476660Y-128850319D01*
X49400233Y-128853747D01*
X49312054Y-128857317D01*
X49219415Y-128860758D01*
X49129608Y-128863798D01*
X49052797Y-128866088D01*
X48766687Y-128864370D01*
X48481568Y-128843802D01*
X48198179Y-128804581D01*
X47917258Y-128746906D01*
X47639542Y-128670975D01*
X47365772Y-128576985D01*
X47096684Y-128465136D01*
X46833018Y-128335624D01*
X46614397Y-128212208D01*
X46544238Y-128170398D01*
X46487838Y-128137582D01*
X46442781Y-128112687D01*
X46406654Y-128094638D01*
X46377044Y-128082362D01*
X46351536Y-128074785D01*
X46327716Y-128070834D01*
X46303171Y-128069434D01*
X46293261Y-128069347D01*
X46232336Y-128073818D01*
X46175891Y-128088528D01*
X46118181Y-128115403D01*
X46072889Y-128143190D01*
X46025705Y-128177240D01*
X45976677Y-128218433D01*
X45925098Y-128267660D01*
X45870259Y-128325815D01*
X45811455Y-128393791D01*
X45747976Y-128472480D01*
X45679117Y-128562775D01*
X45604170Y-128665568D01*
X45522427Y-128781754D01*
X45433182Y-128912223D01*
X45335727Y-129057870D01*
X45273287Y-129152507D01*
X45206559Y-129254961D01*
X45150066Y-129343685D01*
X45102845Y-129420356D01*
X45063931Y-129486653D01*
X45032358Y-129544256D01*
X45007164Y-129594842D01*
X44987382Y-129640091D01*
X44976222Y-129669540D01*
X44941728Y-129774163D01*
X44914638Y-129873915D01*
X44894288Y-129973077D01*
X44880014Y-130075931D01*
X44871153Y-130186758D01*
X44867042Y-130309842D01*
X44866560Y-130377247D01*
X44867263Y-130456622D01*
X44869534Y-130534394D01*
X44873616Y-130612929D01*
X44879751Y-130694593D01*
X44888182Y-130781754D01*
X44899151Y-130876775D01*
X44912901Y-130982025D01*
X44929674Y-131099869D01*
X44949712Y-131232674D01*
X44962907Y-131317364D01*
X44974100Y-131390125D01*
X44986634Y-131474223D01*
X44999408Y-131562102D01*
X45011320Y-131646207D01*
X45018989Y-131701987D01*
X45028357Y-131769966D01*
X45036195Y-131822388D01*
X45043269Y-131862600D01*
X45050344Y-131893957D01*
X45058188Y-131919809D01*
X45067567Y-131943509D01*
X45079245Y-131968407D01*
X45080434Y-131970818D01*
X45113257Y-132024718D01*
X45159578Y-132083157D01*
X45215805Y-132142255D01*
X45278347Y-132198131D01*
X45321901Y-132231764D01*
X45355329Y-132255132D01*
X45398673Y-132284279D01*
X45448382Y-132316936D01*
X45500902Y-132350834D01*
X45552684Y-132383706D01*
X45600176Y-132413280D01*
X45639826Y-132437290D01*
X45668083Y-132453465D01*
X45672774Y-132455929D01*
X45696415Y-132468607D01*
X45711908Y-132478088D01*
X45714284Y-132480043D01*
X45724255Y-132488051D01*
X45744792Y-132502872D01*
X45761910Y-132514750D01*
X45791453Y-132536678D01*
X45818055Y-132559245D01*
X45827770Y-132568790D01*
X45842450Y-132586045D01*
X45844799Y-132597263D01*
X45835859Y-132609974D01*
X45833785Y-132612281D01*
X45824564Y-132626939D01*
X45822409Y-132644253D01*
X45828247Y-132665487D01*
X45843010Y-132691901D01*
X45867623Y-132724757D01*
X45903018Y-132765318D01*
X45950122Y-132814844D01*
X46009865Y-132874599D01*
X46069891Y-132933037D01*
X46113529Y-132975390D01*
X46152134Y-133013287D01*
X46183726Y-133044748D01*
X46206330Y-133067799D01*
X46217967Y-133080462D01*
X46219110Y-133082195D01*
X46210485Y-133086218D01*
X46187706Y-133092154D01*
X46155414Y-133098820D01*
X46150053Y-133099807D01*
X46069240Y-133109167D01*
X45971548Y-133110992D01*
X45856807Y-133105276D01*
X45724851Y-133092013D01*
X45633322Y-133079853D01*
X45556899Y-133069686D01*
X45476566Y-133060412D01*
X45398194Y-133052624D01*
X45327657Y-133046909D01*
X45277497Y-133044095D01*
X45221065Y-133041720D01*
X45180318Y-133039285D01*
X45151901Y-133036246D01*
X45132455Y-133032059D01*
X45118622Y-133026182D01*
X45107046Y-133018071D01*
X45104705Y-133016133D01*
X45080284Y-132987418D01*
X45070562Y-132952768D01*
X45074698Y-132908518D01*
X45077421Y-132896990D01*
X45089311Y-132850595D01*
X45050613Y-132810261D01*
X45027350Y-132783400D01*
X44998992Y-132746874D01*
X44970516Y-132707189D01*
X44961424Y-132693727D01*
X44922521Y-132636566D01*
X44890329Y-132593289D01*
X44862356Y-132561104D01*
X44836104Y-132537217D01*
X44809078Y-132518836D01*
X44801145Y-132514357D01*
X44755443Y-132494236D01*
X44720059Y-132489029D01*
X44695560Y-132498731D01*
X44684910Y-132515133D01*
X44667501Y-132556402D01*
X44644306Y-132603754D01*
X44618258Y-132651889D01*
X44592286Y-132695504D01*
X44569324Y-132729298D01*
X44560474Y-132740202D01*
X44540415Y-132762201D01*
X44529444Y-132771314D01*
X44524006Y-132768913D01*
X44520546Y-132756365D01*
X44520392Y-132755640D01*
X44518795Y-132739760D01*
X44516983Y-132707735D01*
X44515070Y-132662464D01*
X44513168Y-132606849D01*
X44511389Y-132543792D01*
X44510212Y-132493702D01*
X44503847Y-132326124D01*
X44491992Y-132145463D01*
X44475214Y-131956692D01*
X44454087Y-131764789D01*
X44429178Y-131574728D01*
X44401059Y-131391486D01*
X44370300Y-131220038D01*
X44356299Y-131150677D01*
X44347494Y-131108359D01*
X44338681Y-131065503D01*
X44332774Y-131036377D01*
X44316226Y-130955942D01*
X44296603Y-130864033D01*
X44274685Y-130764038D01*
X44251251Y-130659346D01*
X44227079Y-130553349D01*
X44202950Y-130449436D01*
X44179641Y-130350996D01*
X44157934Y-130261420D01*
X44138607Y-130184096D01*
X44124053Y-130128386D01*
X44114560Y-130103546D01*
X44101097Y-130091066D01*
X44081149Y-130091009D01*
X44052199Y-130103441D01*
X44011731Y-130128426D01*
X44007300Y-130131385D01*
X43900206Y-130214674D01*
X43804683Y-130313077D01*
X43720748Y-130426561D01*
X43648417Y-130555096D01*
X43587705Y-130698650D01*
X43538629Y-130857192D01*
X43501205Y-131030691D01*
X43480333Y-131174489D01*
X43473177Y-131245692D01*
X43466645Y-131330228D01*
X43460913Y-131423693D01*
X43456161Y-131521685D01*
X43452569Y-131619804D01*
X43450313Y-131713646D01*
X43449573Y-131798809D01*
X43450528Y-131870891D01*
X43451254Y-131891266D01*
X43461359Y-132027903D01*
X43479616Y-132149642D01*
X43506651Y-132259087D01*
X43543091Y-132358841D01*
X43583555Y-132440892D01*
X43627720Y-132507331D01*
X43686906Y-132576744D01*
X43758048Y-132646128D01*
X43838080Y-132712477D01*
X43918822Y-132769488D01*
X43972814Y-132804756D01*
X44012798Y-132831865D01*
X44040869Y-132852832D01*
X44059124Y-132869674D01*
X44069658Y-132884407D01*
X44074566Y-132899049D01*
X44075945Y-132915618D01*
X44075985Y-132920741D01*
X44079074Y-132947173D01*
X44090124Y-132973773D01*
X44111808Y-133006676D01*
X44115706Y-133011949D01*
X44151746Y-133058104D01*
X44196048Y-133111560D01*
X44244528Y-133167663D01*
X44293097Y-133221759D01*
X44337670Y-133269192D01*
X44368819Y-133300277D01*
X44425593Y-133354377D01*
X44372232Y-133378074D01*
X44328251Y-133396359D01*
X44287071Y-133410150D01*
X44245590Y-133419680D01*
X44200707Y-133425187D01*
X44149319Y-133426907D01*
X44088324Y-133425077D01*
X44014620Y-133419932D01*
X43927563Y-133411951D01*
X43854454Y-133404960D01*
X43796610Y-133399994D01*
X43750366Y-133396945D01*
X43712058Y-133395704D01*
X43678020Y-133396160D01*
X43644588Y-133398205D01*
X43608096Y-133401730D01*
X43603039Y-133402280D01*
X43538891Y-133407738D01*
X43489597Y-133407730D01*
X43451585Y-133401628D01*
X43421283Y-133388801D01*
X43395120Y-133368621D01*
X43391427Y-133365016D01*
X43365168Y-133331585D01*
X43349808Y-133292642D01*
X43344230Y-133243965D01*
X43346158Y-133193998D01*
X43348590Y-133161606D01*
X43348141Y-133137381D01*
X43342587Y-133118091D01*
X43329706Y-133100504D01*
X43307275Y-133081390D01*
X43273070Y-133057515D01*
X43234901Y-133032267D01*
X43170292Y-132987175D01*
X43122568Y-132948050D01*
X43090816Y-132914066D01*
X43075817Y-132888886D01*
X43062431Y-132867640D01*
X43042761Y-132860561D01*
X43037953Y-132860414D01*
X43021008Y-132863664D01*
X43004954Y-132875716D01*
X42985778Y-132900025D01*
X42977098Y-132912802D01*
X42958073Y-132939511D01*
X42942162Y-132958384D01*
X42933132Y-132965190D01*
X42920596Y-132955866D01*
X42906638Y-132928531D01*
X42891653Y-132884136D01*
X42877957Y-132831839D01*
X42865146Y-132776701D01*
X42856771Y-132734500D01*
X42852683Y-132699683D01*
X42852734Y-132666698D01*
X42856774Y-132629993D01*
X42864655Y-132584013D01*
X42870499Y-132553153D01*
X42880994Y-132493703D01*
X42891033Y-132428777D01*
X42899382Y-132366801D01*
X42904275Y-132322252D01*
X42907934Y-132268340D01*
X42910672Y-132197853D01*
X42912503Y-132113243D01*
X42913439Y-132016962D01*
X42913492Y-131911462D01*
X42912677Y-131799195D01*
X42911005Y-131682613D01*
X42908491Y-131564168D01*
X42905146Y-131446312D01*
X42900985Y-131331498D01*
X42898750Y-131279265D01*
X42893278Y-131139871D01*
X42889607Y-131005814D01*
X42887715Y-130878907D01*
X42887583Y-130760962D01*
X42889192Y-130653794D01*
X42892521Y-130559214D01*
X42897552Y-130479038D01*
X42904263Y-130415078D01*
X42908438Y-130388677D01*
X42925442Y-130306595D01*
X42944488Y-130238633D01*
X42967907Y-130179868D01*
X42998034Y-130125372D01*
X43037201Y-130070218D01*
X43087741Y-130009481D01*
X43088354Y-130008781D01*
X43248652Y-129819062D01*
X43392090Y-129635100D01*
X43519488Y-129455552D01*
X43631664Y-129279078D01*
X43729436Y-129104334D01*
X43813623Y-128929978D01*
X43885044Y-128754669D01*
X43926914Y-128633676D01*
X43953270Y-128549169D01*
X43972938Y-128479232D01*
X43986450Y-128420803D01*
X43994335Y-128370822D01*
X43997125Y-128326230D01*
X43995352Y-128283966D01*
X43992194Y-128257590D01*
X43979372Y-128184644D01*
X43960228Y-128096938D01*
X43935572Y-127997375D01*
X43906214Y-127888860D01*
X43872963Y-127774297D01*
X43836628Y-127656592D01*
X43798021Y-127538648D01*
X43765821Y-127445452D01*
X43742276Y-127378990D01*
X43715608Y-127303707D01*
X43688745Y-127227869D01*
X43664613Y-127159736D01*
X43659541Y-127145414D01*
X43599014Y-126971852D01*
X43546009Y-126813771D01*
X43500113Y-126669333D01*
X43460913Y-126536703D01*
X43427994Y-126414041D01*
X43400944Y-126299511D01*
X43379349Y-126191275D01*
X43362796Y-126087498D01*
X43350870Y-125986339D01*
X43343160Y-125885963D01*
X43339250Y-125784533D01*
X43338552Y-125719045D01*
X43338444Y-125652116D01*
X43338088Y-125601852D01*
X43337243Y-125565866D01*
X43335670Y-125541775D01*
X43333127Y-125527192D01*
X43329373Y-125519732D01*
X43324170Y-125517010D01*
X43318149Y-125516639D01*
X43299155Y-125524492D01*
X43273833Y-125546408D01*
X43258636Y-125563223D01*
X43230228Y-125593309D01*
X43194099Y-125626721D01*
X43159514Y-125655092D01*
X43128455Y-125676787D01*
X43092588Y-125699088D01*
X43055766Y-125719953D01*
X43021843Y-125737338D01*
X42994673Y-125749202D01*
X42978109Y-125753501D01*
X42975360Y-125752690D01*
X42975439Y-125741927D01*
X42980336Y-125719072D01*
X42985252Y-125701566D01*
X42997327Y-125653534D01*
X42999298Y-125621629D01*
X42990888Y-125605666D01*
X42971822Y-125605460D01*
X42941824Y-125620826D01*
X42905203Y-125647854D01*
X42853240Y-125684489D01*
X42792012Y-125719303D01*
X42726112Y-125750379D01*
X42660135Y-125775801D01*
X42598676Y-125793650D01*
X42546328Y-125802007D01*
X42534983Y-125802389D01*
X42519401Y-125800511D01*
X42515003Y-125791104D01*
X42518070Y-125771433D01*
X42524689Y-125738368D01*
X42530206Y-125708448D01*
X42535775Y-125676420D01*
X42493873Y-125681575D01*
X42465797Y-125686449D01*
X42426182Y-125695122D01*
X42381780Y-125706069D01*
X42362157Y-125711298D01*
X42311005Y-125723461D01*
X42254851Y-125733963D01*
X42203869Y-125740965D01*
X42192141Y-125742031D01*
X42111939Y-125748195D01*
X42131141Y-125710556D01*
X42145373Y-125676984D01*
X42155961Y-125642223D01*
X42157231Y-125636208D01*
X42164117Y-125599500D01*
X42127069Y-125605447D01*
X42095843Y-125611613D01*
X42057694Y-125620675D01*
X42037940Y-125625929D01*
X41969407Y-125637977D01*
X41895898Y-125639057D01*
X41829921Y-125629534D01*
X41803223Y-125622659D01*
X41785562Y-125617458D01*
X41781987Y-125615981D01*
X41785333Y-125607474D01*
X41797151Y-125587447D01*
X41815003Y-125559995D01*
X41817706Y-125555996D01*
X41842550Y-125514508D01*
X41855023Y-125482129D01*
X41854873Y-125460285D01*
X41841848Y-125450400D01*
X41836484Y-125449965D01*
X41818017Y-125451835D01*
X41786810Y-125456806D01*
X41748737Y-125463914D01*
X41737520Y-125466182D01*
X41658731Y-125482400D01*
X41564814Y-125438328D01*
X41480349Y-125401978D01*
X41404081Y-125377035D01*
X41330037Y-125362175D01*
X41252244Y-125356071D01*
X41194672Y-125356232D01*
X41143693Y-125358132D01*
X41107369Y-125360924D01*
X41081304Y-125365337D01*
X41061103Y-125372099D01*
X41043453Y-125381295D01*
X41020185Y-125393210D01*
X41004084Y-125398085D01*
X41000780Y-125397360D01*
X41002198Y-125386864D01*
X41010984Y-125363914D01*
X41025421Y-125332798D01*
X41031391Y-125320965D01*
X41059668Y-125274785D01*
X41095553Y-125228882D01*
X41134781Y-125187856D01*
X41173092Y-125156311D01*
X41196648Y-125142531D01*
X41214099Y-125127093D01*
X41218485Y-125104409D01*
X41218485Y-125076236D01*
X41137522Y-125082981D01*
X41092490Y-125085652D01*
X41065664Y-125084607D01*
X41056564Y-125079827D01*
X41056559Y-125079673D01*
X41062914Y-125068992D01*
X41079993Y-125048521D01*
X41104813Y-125021705D01*
X41121440Y-125004741D01*
X41196529Y-124940324D01*
X41277663Y-124891711D01*
X41365726Y-124858778D01*
X41461599Y-124841398D01*
X41566163Y-124839449D01*
X41680301Y-124852805D01*
X41804894Y-124881342D01*
X41866184Y-124899604D01*
X41921388Y-124917698D01*
X41973807Y-124936239D01*
X42027026Y-124956684D01*
X42084632Y-124980491D01*
X42150209Y-125009121D01*
X42227342Y-125044032D01*
X42274141Y-125065584D01*
X42353716Y-125101694D01*
X42420082Y-125129835D01*
X42476858Y-125150973D01*
X42527663Y-125166072D01*
X42576113Y-125176096D01*
X42625827Y-125182010D01*
X42680423Y-125184778D01*
X42723434Y-125185361D01*
X42777767Y-125184632D01*
X42831538Y-125182317D01*
X42878659Y-125178773D01*
X42913038Y-125174355D01*
X42913934Y-125174190D01*
X43022986Y-125147156D01*
X43142529Y-125105171D01*
X43271746Y-125048610D01*
X43409817Y-124977850D01*
X43555924Y-124893269D01*
X43640973Y-124839991D01*
X43693552Y-124806238D01*
X43742478Y-124774914D01*
X43784838Y-124747878D01*
X43817720Y-124726987D01*
X43838210Y-124714101D01*
X43840998Y-124712382D01*
X43856558Y-124702786D01*
X43886002Y-124684538D01*
X43927042Y-124659061D01*
X43977394Y-124627775D01*
X44034769Y-124592099D01*
X44096881Y-124553455D01*
X44118847Y-124539783D01*
X44236892Y-124466645D01*
X44341451Y-124402650D01*
X44434918Y-124346410D01*
X44519682Y-124296539D01*
X44598134Y-124251649D01*
X44672666Y-124210353D01*
X44745667Y-124171265D01*
X44819530Y-124132997D01*
X44823697Y-124130873D01*
X45033308Y-124030305D01*
X45234580Y-123946547D01*
X45427963Y-123879505D01*
X45613910Y-123829089D01*
X45792871Y-123795207D01*
X45965300Y-123777768D01*
X46131647Y-123776681D01*
X46292364Y-123791853D01*
X46400084Y-123811726D01*
X46441632Y-123821036D01*
X46494884Y-123833063D01*
X46552976Y-123846255D01*
X46608972Y-123859038D01*
X46834006Y-123904701D01*
X47075721Y-123942497D01*
X47333423Y-123972371D01*
X47606420Y-123994270D01*
X47894017Y-124008141D01*
X48195523Y-124013930D01*
X48510243Y-124011581D01*
X48559202Y-124010508D01*
X48902045Y-123996817D01*
X49241506Y-123972297D01*
X49575988Y-123937242D01*
X49903894Y-123891946D01*
X50223626Y-123836704D01*
X50533587Y-123771807D01*
X50832179Y-123697551D01*
X51117804Y-123614228D01*
X51388866Y-123522133D01*
X51548347Y-123460984D01*
X51618606Y-123432697D01*
X51673146Y-123410418D01*
X51713954Y-123393121D01*
X51743016Y-123379785D01*
X51762319Y-123369386D01*
X51773850Y-123360899D01*
X51779594Y-123353301D01*
X51781539Y-123345569D01*
X51781710Y-123340750D01*
X51775285Y-123320522D01*
X51765041Y-123311772D01*
X51760299Y-123306397D01*
X51771145Y-123299199D01*
X51799083Y-123289205D01*
X51800759Y-123288676D01*
X51828761Y-123279060D01*
X51869536Y-123264007D01*
X51918248Y-123245349D01*
X51970061Y-123224919D01*
X51986573Y-123218279D01*
X52039705Y-123197508D01*
X52092697Y-123178021D01*
X52140245Y-123161691D01*
X52177042Y-123150390D01*
X52184706Y-123148379D01*
X52218579Y-123139487D01*
X52237681Y-123132133D01*
X52245857Y-123123802D01*
X52246952Y-123111983D01*
X52246542Y-123107959D01*
X52239842Y-123089530D01*
X52221715Y-123077919D01*
X52208733Y-123073729D01*
X52184625Y-123065989D01*
X52169469Y-123059293D01*
X52168116Y-123058261D01*
X52174798Y-123054426D01*
X52196852Y-123047658D01*
X52230964Y-123038719D01*
X52273817Y-123028368D01*
X52322097Y-123017365D01*
X52372487Y-123006469D01*
X52421672Y-122996442D01*
X52466336Y-122988043D01*
X52496085Y-122983083D01*
X52538704Y-122977844D01*
X52582984Y-122974372D01*
X52608636Y-122973536D01*
X52637880Y-122972980D01*
X52652549Y-122969775D01*
X52657118Y-122961452D01*
X52656261Y-122947271D01*
X52650026Y-122928582D01*
X52633409Y-122912867D01*
X52608303Y-122898780D01*
X52573521Y-122884335D01*
X52537891Y-122873754D01*
X52524959Y-122871332D01*
X52501014Y-122866384D01*
X52487599Y-122860243D01*
X52486559Y-122858280D01*
X52495513Y-122849623D01*
X52520211Y-122840196D01*
X52557407Y-122830746D01*
X52603857Y-122822017D01*
X52656313Y-122814756D01*
X52691347Y-122811239D01*
X52740515Y-122807945D01*
X52801693Y-122805177D01*
X52867845Y-122803185D01*
X52931935Y-122802220D01*
X52945966Y-122802170D01*
X53031369Y-122800674D01*
X53107445Y-122795872D01*
X53183747Y-122786996D01*
X53236845Y-122778869D01*
X53302538Y-122769011D01*
X53376957Y-122759310D01*
X53450930Y-122750887D01*
X53514909Y-122744892D01*
X53595432Y-122736917D01*
X53660497Y-122726743D01*
X53713632Y-122713793D01*
X53723468Y-122710711D01*
X53754680Y-122701641D01*
X53800514Y-122689800D01*
X53856915Y-122676163D01*
X53919826Y-122661705D01*
X53985192Y-122647400D01*
X54000409Y-122644179D01*
X54132276Y-122615624D01*
X54247316Y-122588771D01*
X54347598Y-122562928D01*
X54435194Y-122537407D01*
X54512175Y-122511516D01*
X54580613Y-122484567D01*
X54642578Y-122455868D01*
X54700141Y-122424729D01*
X54748747Y-122394795D01*
X54784366Y-122370211D01*
X54822149Y-122341757D01*
X54858942Y-122312113D01*
X54891593Y-122283957D01*
X54916951Y-122259967D01*
X54931862Y-122242821D01*
X54934485Y-122236972D01*
X54941729Y-122223218D01*
X54951954Y-122214662D01*
X54961528Y-122205456D01*
X54982252Y-122183262D01*
X55012844Y-122149522D01*
X55052019Y-122105680D01*
X55098497Y-122053181D01*
X55150992Y-121993468D01*
X55208222Y-121927985D01*
X55268903Y-121858175D01*
X55273423Y-121852960D01*
X55409922Y-121696960D01*
X55536525Y-121555546D01*
X55654287Y-121427717D01*
X55764263Y-121312472D01*
X55867511Y-121208813D01*
X55965087Y-121115738D01*
X56058047Y-121032248D01*
X56147447Y-120957342D01*
X56234343Y-120890018D01*
X56319792Y-120829279D01*
X56404849Y-120774123D01*
X56426643Y-120760806D01*
X56468677Y-120734953D01*
X56496798Y-120716053D01*
X56513713Y-120701755D01*
X56522130Y-120689703D01*
X56524755Y-120677543D01*
X56524818Y-120675431D01*
X56520097Y-120653029D01*
X56506300Y-120616620D01*
X56484548Y-120568286D01*
X56455965Y-120510110D01*
X56421673Y-120444177D01*
X56382792Y-120372569D01*
X56340445Y-120297368D01*
X56295754Y-120220659D01*
X56249841Y-120144524D01*
X56203828Y-120071046D01*
X56176986Y-120029631D01*
X56040734Y-119834175D01*
X55890127Y-119639631D01*
X55728650Y-119449994D01*
X55559788Y-119269254D01*
X55387023Y-119101406D01*
X55295221Y-119019171D01*
X55254984Y-118984012D01*
X55220294Y-118953328D01*
X55193494Y-118929221D01*
X55176925Y-118913793D01*
X55172609Y-118909123D01*
X55180118Y-118909200D01*
X55201385Y-118918923D01*
X55234525Y-118937067D01*
X55277651Y-118962408D01*
X55328878Y-118993723D01*
X55386318Y-119029789D01*
X55448086Y-119069382D01*
X55512295Y-119111277D01*
X55577058Y-119154252D01*
X55640490Y-119197082D01*
X55700705Y-119238545D01*
X55755814Y-119277416D01*
X55803934Y-119312472D01*
X55843177Y-119342489D01*
X55853669Y-119350926D01*
X56007897Y-119479880D01*
X56147861Y-119603337D01*
X56276445Y-119724099D01*
X56396531Y-119844970D01*
X56511002Y-119968754D01*
X56622739Y-120098253D01*
X56625596Y-120101677D01*
X56653976Y-120136512D01*
X56688240Y-120179824D01*
X56726147Y-120228646D01*
X56765452Y-120280010D01*
X56803916Y-120330947D01*
X56839293Y-120378492D01*
X56869342Y-120419674D01*
X56891821Y-120451528D01*
X56903661Y-120469658D01*
X56919288Y-120489495D01*
X56938214Y-120495499D01*
X56948949Y-120495014D01*
X56960436Y-120493337D01*
X56969245Y-120488970D01*
X56976758Y-120479002D01*
X56984359Y-120460520D01*
X56993429Y-120430611D01*
X57005352Y-120386363D01*
X57011330Y-120363615D01*
X57024501Y-120315024D01*
X57037038Y-120271660D01*
X57047708Y-120237591D01*
X57055281Y-120216885D01*
X57056574Y-120214222D01*
X57063834Y-120196851D01*
X57066864Y-120176184D01*
X57065292Y-120149229D01*
X57058746Y-120112998D01*
X57046851Y-120064497D01*
X57030551Y-120005361D01*
X56963631Y-119788441D01*
X56888975Y-119583906D01*
X56804467Y-119386965D01*
X56707991Y-119192834D01*
X56597433Y-118996722D01*
X56551222Y-118920577D01*
X56531231Y-118889521D01*
X56503259Y-118847788D01*
X56469949Y-118799151D01*
X56433944Y-118747384D01*
X56397887Y-118696261D01*
X56364423Y-118649555D01*
X56336193Y-118611040D01*
X56315843Y-118584489D01*
X56315448Y-118583998D01*
X56294197Y-118557029D01*
X56282597Y-118540447D01*
X56281343Y-118534669D01*
X56291128Y-118540114D01*
G36*
X55163085Y-118901527D02*
X55158322Y-118906290D01*
X55153560Y-118901527D01*
X55158322Y-118896765D01*
X55163085Y-118901527D01*
X55163085Y-118901527D01*
G37*
X55163085Y-118901527D02*
X55158322Y-118906290D01*
X55153560Y-118901527D01*
X55158322Y-118896765D01*
X55163085Y-118901527D01*
G04 #@! TD*
D12*
G04 #@! TO.N,GND*
G04 #@! TO.C,C9*
G36*
X94748779Y-133983144D02*
X94771834Y-133986563D01*
X94794443Y-133992227D01*
X94816387Y-134000079D01*
X94837457Y-134010044D01*
X94857448Y-134022026D01*
X94876168Y-134035910D01*
X94893438Y-134051562D01*
X94909090Y-134068832D01*
X94922974Y-134087552D01*
X94934956Y-134107543D01*
X94944921Y-134128613D01*
X94952773Y-134150557D01*
X94958437Y-134173166D01*
X94961856Y-134196221D01*
X94963000Y-134219500D01*
X94963000Y-134794500D01*
X94961856Y-134817779D01*
X94958437Y-134840834D01*
X94952773Y-134863443D01*
X94944921Y-134885387D01*
X94934956Y-134906457D01*
X94922974Y-134926448D01*
X94909090Y-134945168D01*
X94893438Y-134962438D01*
X94876168Y-134978090D01*
X94857448Y-134991974D01*
X94837457Y-135003956D01*
X94816387Y-135013921D01*
X94794443Y-135021773D01*
X94771834Y-135027437D01*
X94748779Y-135030856D01*
X94725500Y-135032000D01*
X94250500Y-135032000D01*
X94227221Y-135030856D01*
X94204166Y-135027437D01*
X94181557Y-135021773D01*
X94159613Y-135013921D01*
X94138543Y-135003956D01*
X94118552Y-134991974D01*
X94099832Y-134978090D01*
X94082562Y-134962438D01*
X94066910Y-134945168D01*
X94053026Y-134926448D01*
X94041044Y-134906457D01*
X94031079Y-134885387D01*
X94023227Y-134863443D01*
X94017563Y-134840834D01*
X94014144Y-134817779D01*
X94013000Y-134794500D01*
X94013000Y-134219500D01*
X94014144Y-134196221D01*
X94017563Y-134173166D01*
X94023227Y-134150557D01*
X94031079Y-134128613D01*
X94041044Y-134107543D01*
X94053026Y-134087552D01*
X94066910Y-134068832D01*
X94082562Y-134051562D01*
X94099832Y-134035910D01*
X94118552Y-134022026D01*
X94138543Y-134010044D01*
X94159613Y-134000079D01*
X94181557Y-133992227D01*
X94204166Y-133986563D01*
X94227221Y-133983144D01*
X94250500Y-133982000D01*
X94725500Y-133982000D01*
X94748779Y-133983144D01*
X94748779Y-133983144D01*
G37*
D13*
G04 #@! TD*
G04 #@! TO.P,C9,1*
G04 #@! TO.N,GND*
X94488000Y-134507000D03*
D12*
G04 #@! TO.N,+3V3*
G04 #@! TO.C,C9*
G36*
X94748779Y-135733144D02*
X94771834Y-135736563D01*
X94794443Y-135742227D01*
X94816387Y-135750079D01*
X94837457Y-135760044D01*
X94857448Y-135772026D01*
X94876168Y-135785910D01*
X94893438Y-135801562D01*
X94909090Y-135818832D01*
X94922974Y-135837552D01*
X94934956Y-135857543D01*
X94944921Y-135878613D01*
X94952773Y-135900557D01*
X94958437Y-135923166D01*
X94961856Y-135946221D01*
X94963000Y-135969500D01*
X94963000Y-136544500D01*
X94961856Y-136567779D01*
X94958437Y-136590834D01*
X94952773Y-136613443D01*
X94944921Y-136635387D01*
X94934956Y-136656457D01*
X94922974Y-136676448D01*
X94909090Y-136695168D01*
X94893438Y-136712438D01*
X94876168Y-136728090D01*
X94857448Y-136741974D01*
X94837457Y-136753956D01*
X94816387Y-136763921D01*
X94794443Y-136771773D01*
X94771834Y-136777437D01*
X94748779Y-136780856D01*
X94725500Y-136782000D01*
X94250500Y-136782000D01*
X94227221Y-136780856D01*
X94204166Y-136777437D01*
X94181557Y-136771773D01*
X94159613Y-136763921D01*
X94138543Y-136753956D01*
X94118552Y-136741974D01*
X94099832Y-136728090D01*
X94082562Y-136712438D01*
X94066910Y-136695168D01*
X94053026Y-136676448D01*
X94041044Y-136656457D01*
X94031079Y-136635387D01*
X94023227Y-136613443D01*
X94017563Y-136590834D01*
X94014144Y-136567779D01*
X94013000Y-136544500D01*
X94013000Y-135969500D01*
X94014144Y-135946221D01*
X94017563Y-135923166D01*
X94023227Y-135900557D01*
X94031079Y-135878613D01*
X94041044Y-135857543D01*
X94053026Y-135837552D01*
X94066910Y-135818832D01*
X94082562Y-135801562D01*
X94099832Y-135785910D01*
X94118552Y-135772026D01*
X94138543Y-135760044D01*
X94159613Y-135750079D01*
X94181557Y-135742227D01*
X94204166Y-135736563D01*
X94227221Y-135733144D01*
X94250500Y-135732000D01*
X94725500Y-135732000D01*
X94748779Y-135733144D01*
X94748779Y-135733144D01*
G37*
D13*
G04 #@! TD*
G04 #@! TO.P,C9,2*
G04 #@! TO.N,+3V3*
X94488000Y-136257000D03*
D12*
G04 #@! TO.N,GND*
G04 #@! TO.C,C5*
G36*
X102241779Y-134223144D02*
X102264834Y-134226563D01*
X102287443Y-134232227D01*
X102309387Y-134240079D01*
X102330457Y-134250044D01*
X102350448Y-134262026D01*
X102369168Y-134275910D01*
X102386438Y-134291562D01*
X102402090Y-134308832D01*
X102415974Y-134327552D01*
X102427956Y-134347543D01*
X102437921Y-134368613D01*
X102445773Y-134390557D01*
X102451437Y-134413166D01*
X102454856Y-134436221D01*
X102456000Y-134459500D01*
X102456000Y-135034500D01*
X102454856Y-135057779D01*
X102451437Y-135080834D01*
X102445773Y-135103443D01*
X102437921Y-135125387D01*
X102427956Y-135146457D01*
X102415974Y-135166448D01*
X102402090Y-135185168D01*
X102386438Y-135202438D01*
X102369168Y-135218090D01*
X102350448Y-135231974D01*
X102330457Y-135243956D01*
X102309387Y-135253921D01*
X102287443Y-135261773D01*
X102264834Y-135267437D01*
X102241779Y-135270856D01*
X102218500Y-135272000D01*
X101743500Y-135272000D01*
X101720221Y-135270856D01*
X101697166Y-135267437D01*
X101674557Y-135261773D01*
X101652613Y-135253921D01*
X101631543Y-135243956D01*
X101611552Y-135231974D01*
X101592832Y-135218090D01*
X101575562Y-135202438D01*
X101559910Y-135185168D01*
X101546026Y-135166448D01*
X101534044Y-135146457D01*
X101524079Y-135125387D01*
X101516227Y-135103443D01*
X101510563Y-135080834D01*
X101507144Y-135057779D01*
X101506000Y-135034500D01*
X101506000Y-134459500D01*
X101507144Y-134436221D01*
X101510563Y-134413166D01*
X101516227Y-134390557D01*
X101524079Y-134368613D01*
X101534044Y-134347543D01*
X101546026Y-134327552D01*
X101559910Y-134308832D01*
X101575562Y-134291562D01*
X101592832Y-134275910D01*
X101611552Y-134262026D01*
X101631543Y-134250044D01*
X101652613Y-134240079D01*
X101674557Y-134232227D01*
X101697166Y-134226563D01*
X101720221Y-134223144D01*
X101743500Y-134222000D01*
X102218500Y-134222000D01*
X102241779Y-134223144D01*
X102241779Y-134223144D01*
G37*
D13*
G04 #@! TD*
G04 #@! TO.P,C5,1*
G04 #@! TO.N,GND*
X101981000Y-134747000D03*
D12*
G04 #@! TO.N,+3V3*
G04 #@! TO.C,C5*
G36*
X102241779Y-135973144D02*
X102264834Y-135976563D01*
X102287443Y-135982227D01*
X102309387Y-135990079D01*
X102330457Y-136000044D01*
X102350448Y-136012026D01*
X102369168Y-136025910D01*
X102386438Y-136041562D01*
X102402090Y-136058832D01*
X102415974Y-136077552D01*
X102427956Y-136097543D01*
X102437921Y-136118613D01*
X102445773Y-136140557D01*
X102451437Y-136163166D01*
X102454856Y-136186221D01*
X102456000Y-136209500D01*
X102456000Y-136784500D01*
X102454856Y-136807779D01*
X102451437Y-136830834D01*
X102445773Y-136853443D01*
X102437921Y-136875387D01*
X102427956Y-136896457D01*
X102415974Y-136916448D01*
X102402090Y-136935168D01*
X102386438Y-136952438D01*
X102369168Y-136968090D01*
X102350448Y-136981974D01*
X102330457Y-136993956D01*
X102309387Y-137003921D01*
X102287443Y-137011773D01*
X102264834Y-137017437D01*
X102241779Y-137020856D01*
X102218500Y-137022000D01*
X101743500Y-137022000D01*
X101720221Y-137020856D01*
X101697166Y-137017437D01*
X101674557Y-137011773D01*
X101652613Y-137003921D01*
X101631543Y-136993956D01*
X101611552Y-136981974D01*
X101592832Y-136968090D01*
X101575562Y-136952438D01*
X101559910Y-136935168D01*
X101546026Y-136916448D01*
X101534044Y-136896457D01*
X101524079Y-136875387D01*
X101516227Y-136853443D01*
X101510563Y-136830834D01*
X101507144Y-136807779D01*
X101506000Y-136784500D01*
X101506000Y-136209500D01*
X101507144Y-136186221D01*
X101510563Y-136163166D01*
X101516227Y-136140557D01*
X101524079Y-136118613D01*
X101534044Y-136097543D01*
X101546026Y-136077552D01*
X101559910Y-136058832D01*
X101575562Y-136041562D01*
X101592832Y-136025910D01*
X101611552Y-136012026D01*
X101631543Y-136000044D01*
X101652613Y-135990079D01*
X101674557Y-135982227D01*
X101697166Y-135976563D01*
X101720221Y-135973144D01*
X101743500Y-135972000D01*
X102218500Y-135972000D01*
X102241779Y-135973144D01*
X102241779Y-135973144D01*
G37*
D13*
G04 #@! TD*
G04 #@! TO.P,C5,2*
G04 #@! TO.N,+3V3*
X101981000Y-136497000D03*
D12*
G04 #@! TO.N,+3V3*
G04 #@! TO.C,C6*
G36*
X101745888Y-128722086D02*
X101768943Y-128725505D01*
X101791552Y-128731169D01*
X101813496Y-128739021D01*
X101834566Y-128748986D01*
X101854557Y-128760968D01*
X101873277Y-128774852D01*
X101890547Y-128790504D01*
X101906199Y-128807774D01*
X101920083Y-128826494D01*
X101932065Y-128846485D01*
X101942030Y-128867555D01*
X101949882Y-128889499D01*
X101955546Y-128912108D01*
X101958965Y-128935163D01*
X101960109Y-128958442D01*
X101960109Y-129533442D01*
X101958965Y-129556721D01*
X101955546Y-129579776D01*
X101949882Y-129602385D01*
X101942030Y-129624329D01*
X101932065Y-129645399D01*
X101920083Y-129665390D01*
X101906199Y-129684110D01*
X101890547Y-129701380D01*
X101873277Y-129717032D01*
X101854557Y-129730916D01*
X101834566Y-129742898D01*
X101813496Y-129752863D01*
X101791552Y-129760715D01*
X101768943Y-129766379D01*
X101745888Y-129769798D01*
X101722609Y-129770942D01*
X101247609Y-129770942D01*
X101224330Y-129769798D01*
X101201275Y-129766379D01*
X101178666Y-129760715D01*
X101156722Y-129752863D01*
X101135652Y-129742898D01*
X101115661Y-129730916D01*
X101096941Y-129717032D01*
X101079671Y-129701380D01*
X101064019Y-129684110D01*
X101050135Y-129665390D01*
X101038153Y-129645399D01*
X101028188Y-129624329D01*
X101020336Y-129602385D01*
X101014672Y-129579776D01*
X101011253Y-129556721D01*
X101010109Y-129533442D01*
X101010109Y-128958442D01*
X101011253Y-128935163D01*
X101014672Y-128912108D01*
X101020336Y-128889499D01*
X101028188Y-128867555D01*
X101038153Y-128846485D01*
X101050135Y-128826494D01*
X101064019Y-128807774D01*
X101079671Y-128790504D01*
X101096941Y-128774852D01*
X101115661Y-128760968D01*
X101135652Y-128748986D01*
X101156722Y-128739021D01*
X101178666Y-128731169D01*
X101201275Y-128725505D01*
X101224330Y-128722086D01*
X101247609Y-128720942D01*
X101722609Y-128720942D01*
X101745888Y-128722086D01*
X101745888Y-128722086D01*
G37*
D13*
G04 #@! TD*
G04 #@! TO.P,C6,2*
G04 #@! TO.N,+3V3*
X101485109Y-129245942D03*
D12*
G04 #@! TO.N,GND*
G04 #@! TO.C,C6*
G36*
X101745888Y-130472086D02*
X101768943Y-130475505D01*
X101791552Y-130481169D01*
X101813496Y-130489021D01*
X101834566Y-130498986D01*
X101854557Y-130510968D01*
X101873277Y-130524852D01*
X101890547Y-130540504D01*
X101906199Y-130557774D01*
X101920083Y-130576494D01*
X101932065Y-130596485D01*
X101942030Y-130617555D01*
X101949882Y-130639499D01*
X101955546Y-130662108D01*
X101958965Y-130685163D01*
X101960109Y-130708442D01*
X101960109Y-131283442D01*
X101958965Y-131306721D01*
X101955546Y-131329776D01*
X101949882Y-131352385D01*
X101942030Y-131374329D01*
X101932065Y-131395399D01*
X101920083Y-131415390D01*
X101906199Y-131434110D01*
X101890547Y-131451380D01*
X101873277Y-131467032D01*
X101854557Y-131480916D01*
X101834566Y-131492898D01*
X101813496Y-131502863D01*
X101791552Y-131510715D01*
X101768943Y-131516379D01*
X101745888Y-131519798D01*
X101722609Y-131520942D01*
X101247609Y-131520942D01*
X101224330Y-131519798D01*
X101201275Y-131516379D01*
X101178666Y-131510715D01*
X101156722Y-131502863D01*
X101135652Y-131492898D01*
X101115661Y-131480916D01*
X101096941Y-131467032D01*
X101079671Y-131451380D01*
X101064019Y-131434110D01*
X101050135Y-131415390D01*
X101038153Y-131395399D01*
X101028188Y-131374329D01*
X101020336Y-131352385D01*
X101014672Y-131329776D01*
X101011253Y-131306721D01*
X101010109Y-131283442D01*
X101010109Y-130708442D01*
X101011253Y-130685163D01*
X101014672Y-130662108D01*
X101020336Y-130639499D01*
X101028188Y-130617555D01*
X101038153Y-130596485D01*
X101050135Y-130576494D01*
X101064019Y-130557774D01*
X101079671Y-130540504D01*
X101096941Y-130524852D01*
X101115661Y-130510968D01*
X101135652Y-130498986D01*
X101156722Y-130489021D01*
X101178666Y-130481169D01*
X101201275Y-130475505D01*
X101224330Y-130472086D01*
X101247609Y-130470942D01*
X101722609Y-130470942D01*
X101745888Y-130472086D01*
X101745888Y-130472086D01*
G37*
D13*
G04 #@! TD*
G04 #@! TO.P,C6,1*
G04 #@! TO.N,GND*
X101485109Y-130995942D03*
D12*
G04 #@! TO.N,GND*
G04 #@! TO.C,C7*
G36*
X94872779Y-128685144D02*
X94895834Y-128688563D01*
X94918443Y-128694227D01*
X94940387Y-128702079D01*
X94961457Y-128712044D01*
X94981448Y-128724026D01*
X95000168Y-128737910D01*
X95017438Y-128753562D01*
X95033090Y-128770832D01*
X95046974Y-128789552D01*
X95058956Y-128809543D01*
X95068921Y-128830613D01*
X95076773Y-128852557D01*
X95082437Y-128875166D01*
X95085856Y-128898221D01*
X95087000Y-128921500D01*
X95087000Y-129396500D01*
X95085856Y-129419779D01*
X95082437Y-129442834D01*
X95076773Y-129465443D01*
X95068921Y-129487387D01*
X95058956Y-129508457D01*
X95046974Y-129528448D01*
X95033090Y-129547168D01*
X95017438Y-129564438D01*
X95000168Y-129580090D01*
X94981448Y-129593974D01*
X94961457Y-129605956D01*
X94940387Y-129615921D01*
X94918443Y-129623773D01*
X94895834Y-129629437D01*
X94872779Y-129632856D01*
X94849500Y-129634000D01*
X94274500Y-129634000D01*
X94251221Y-129632856D01*
X94228166Y-129629437D01*
X94205557Y-129623773D01*
X94183613Y-129615921D01*
X94162543Y-129605956D01*
X94142552Y-129593974D01*
X94123832Y-129580090D01*
X94106562Y-129564438D01*
X94090910Y-129547168D01*
X94077026Y-129528448D01*
X94065044Y-129508457D01*
X94055079Y-129487387D01*
X94047227Y-129465443D01*
X94041563Y-129442834D01*
X94038144Y-129419779D01*
X94037000Y-129396500D01*
X94037000Y-128921500D01*
X94038144Y-128898221D01*
X94041563Y-128875166D01*
X94047227Y-128852557D01*
X94055079Y-128830613D01*
X94065044Y-128809543D01*
X94077026Y-128789552D01*
X94090910Y-128770832D01*
X94106562Y-128753562D01*
X94123832Y-128737910D01*
X94142552Y-128724026D01*
X94162543Y-128712044D01*
X94183613Y-128702079D01*
X94205557Y-128694227D01*
X94228166Y-128688563D01*
X94251221Y-128685144D01*
X94274500Y-128684000D01*
X94849500Y-128684000D01*
X94872779Y-128685144D01*
X94872779Y-128685144D01*
G37*
D13*
G04 #@! TD*
G04 #@! TO.P,C7,1*
G04 #@! TO.N,GND*
X94562000Y-129159000D03*
D12*
G04 #@! TO.N,+3V3*
G04 #@! TO.C,C7*
G36*
X96622779Y-128685144D02*
X96645834Y-128688563D01*
X96668443Y-128694227D01*
X96690387Y-128702079D01*
X96711457Y-128712044D01*
X96731448Y-128724026D01*
X96750168Y-128737910D01*
X96767438Y-128753562D01*
X96783090Y-128770832D01*
X96796974Y-128789552D01*
X96808956Y-128809543D01*
X96818921Y-128830613D01*
X96826773Y-128852557D01*
X96832437Y-128875166D01*
X96835856Y-128898221D01*
X96837000Y-128921500D01*
X96837000Y-129396500D01*
X96835856Y-129419779D01*
X96832437Y-129442834D01*
X96826773Y-129465443D01*
X96818921Y-129487387D01*
X96808956Y-129508457D01*
X96796974Y-129528448D01*
X96783090Y-129547168D01*
X96767438Y-129564438D01*
X96750168Y-129580090D01*
X96731448Y-129593974D01*
X96711457Y-129605956D01*
X96690387Y-129615921D01*
X96668443Y-129623773D01*
X96645834Y-129629437D01*
X96622779Y-129632856D01*
X96599500Y-129634000D01*
X96024500Y-129634000D01*
X96001221Y-129632856D01*
X95978166Y-129629437D01*
X95955557Y-129623773D01*
X95933613Y-129615921D01*
X95912543Y-129605956D01*
X95892552Y-129593974D01*
X95873832Y-129580090D01*
X95856562Y-129564438D01*
X95840910Y-129547168D01*
X95827026Y-129528448D01*
X95815044Y-129508457D01*
X95805079Y-129487387D01*
X95797227Y-129465443D01*
X95791563Y-129442834D01*
X95788144Y-129419779D01*
X95787000Y-129396500D01*
X95787000Y-128921500D01*
X95788144Y-128898221D01*
X95791563Y-128875166D01*
X95797227Y-128852557D01*
X95805079Y-128830613D01*
X95815044Y-128809543D01*
X95827026Y-128789552D01*
X95840910Y-128770832D01*
X95856562Y-128753562D01*
X95873832Y-128737910D01*
X95892552Y-128724026D01*
X95912543Y-128712044D01*
X95933613Y-128702079D01*
X95955557Y-128694227D01*
X95978166Y-128688563D01*
X96001221Y-128685144D01*
X96024500Y-128684000D01*
X96599500Y-128684000D01*
X96622779Y-128685144D01*
X96622779Y-128685144D01*
G37*
D13*
G04 #@! TD*
G04 #@! TO.P,C7,2*
G04 #@! TO.N,+3V3*
X96312000Y-129159000D03*
D12*
G04 #@! TO.N,+3V3*
G04 #@! TO.C,C8*
G36*
X94748779Y-130413144D02*
X94771834Y-130416563D01*
X94794443Y-130422227D01*
X94816387Y-130430079D01*
X94837457Y-130440044D01*
X94857448Y-130452026D01*
X94876168Y-130465910D01*
X94893438Y-130481562D01*
X94909090Y-130498832D01*
X94922974Y-130517552D01*
X94934956Y-130537543D01*
X94944921Y-130558613D01*
X94952773Y-130580557D01*
X94958437Y-130603166D01*
X94961856Y-130626221D01*
X94963000Y-130649500D01*
X94963000Y-131224500D01*
X94961856Y-131247779D01*
X94958437Y-131270834D01*
X94952773Y-131293443D01*
X94944921Y-131315387D01*
X94934956Y-131336457D01*
X94922974Y-131356448D01*
X94909090Y-131375168D01*
X94893438Y-131392438D01*
X94876168Y-131408090D01*
X94857448Y-131421974D01*
X94837457Y-131433956D01*
X94816387Y-131443921D01*
X94794443Y-131451773D01*
X94771834Y-131457437D01*
X94748779Y-131460856D01*
X94725500Y-131462000D01*
X94250500Y-131462000D01*
X94227221Y-131460856D01*
X94204166Y-131457437D01*
X94181557Y-131451773D01*
X94159613Y-131443921D01*
X94138543Y-131433956D01*
X94118552Y-131421974D01*
X94099832Y-131408090D01*
X94082562Y-131392438D01*
X94066910Y-131375168D01*
X94053026Y-131356448D01*
X94041044Y-131336457D01*
X94031079Y-131315387D01*
X94023227Y-131293443D01*
X94017563Y-131270834D01*
X94014144Y-131247779D01*
X94013000Y-131224500D01*
X94013000Y-130649500D01*
X94014144Y-130626221D01*
X94017563Y-130603166D01*
X94023227Y-130580557D01*
X94031079Y-130558613D01*
X94041044Y-130537543D01*
X94053026Y-130517552D01*
X94066910Y-130498832D01*
X94082562Y-130481562D01*
X94099832Y-130465910D01*
X94118552Y-130452026D01*
X94138543Y-130440044D01*
X94159613Y-130430079D01*
X94181557Y-130422227D01*
X94204166Y-130416563D01*
X94227221Y-130413144D01*
X94250500Y-130412000D01*
X94725500Y-130412000D01*
X94748779Y-130413144D01*
X94748779Y-130413144D01*
G37*
D13*
G04 #@! TD*
G04 #@! TO.P,C8,2*
G04 #@! TO.N,+3V3*
X94488000Y-130937000D03*
D12*
G04 #@! TO.N,GND*
G04 #@! TO.C,C8*
G36*
X94748779Y-132163144D02*
X94771834Y-132166563D01*
X94794443Y-132172227D01*
X94816387Y-132180079D01*
X94837457Y-132190044D01*
X94857448Y-132202026D01*
X94876168Y-132215910D01*
X94893438Y-132231562D01*
X94909090Y-132248832D01*
X94922974Y-132267552D01*
X94934956Y-132287543D01*
X94944921Y-132308613D01*
X94952773Y-132330557D01*
X94958437Y-132353166D01*
X94961856Y-132376221D01*
X94963000Y-132399500D01*
X94963000Y-132974500D01*
X94961856Y-132997779D01*
X94958437Y-133020834D01*
X94952773Y-133043443D01*
X94944921Y-133065387D01*
X94934956Y-133086457D01*
X94922974Y-133106448D01*
X94909090Y-133125168D01*
X94893438Y-133142438D01*
X94876168Y-133158090D01*
X94857448Y-133171974D01*
X94837457Y-133183956D01*
X94816387Y-133193921D01*
X94794443Y-133201773D01*
X94771834Y-133207437D01*
X94748779Y-133210856D01*
X94725500Y-133212000D01*
X94250500Y-133212000D01*
X94227221Y-133210856D01*
X94204166Y-133207437D01*
X94181557Y-133201773D01*
X94159613Y-133193921D01*
X94138543Y-133183956D01*
X94118552Y-133171974D01*
X94099832Y-133158090D01*
X94082562Y-133142438D01*
X94066910Y-133125168D01*
X94053026Y-133106448D01*
X94041044Y-133086457D01*
X94031079Y-133065387D01*
X94023227Y-133043443D01*
X94017563Y-133020834D01*
X94014144Y-132997779D01*
X94013000Y-132974500D01*
X94013000Y-132399500D01*
X94014144Y-132376221D01*
X94017563Y-132353166D01*
X94023227Y-132330557D01*
X94031079Y-132308613D01*
X94041044Y-132287543D01*
X94053026Y-132267552D01*
X94066910Y-132248832D01*
X94082562Y-132231562D01*
X94099832Y-132215910D01*
X94118552Y-132202026D01*
X94138543Y-132190044D01*
X94159613Y-132180079D01*
X94181557Y-132172227D01*
X94204166Y-132166563D01*
X94227221Y-132163144D01*
X94250500Y-132162000D01*
X94725500Y-132162000D01*
X94748779Y-132163144D01*
X94748779Y-132163144D01*
G37*
D13*
G04 #@! TD*
G04 #@! TO.P,C8,1*
G04 #@! TO.N,GND*
X94488000Y-132687000D03*
D12*
G04 #@! TO.N,GND*
G04 #@! TO.C,C10*
G36*
X98481779Y-135797144D02*
X98504834Y-135800563D01*
X98527443Y-135806227D01*
X98549387Y-135814079D01*
X98570457Y-135824044D01*
X98590448Y-135836026D01*
X98609168Y-135849910D01*
X98626438Y-135865562D01*
X98642090Y-135882832D01*
X98655974Y-135901552D01*
X98667956Y-135921543D01*
X98677921Y-135942613D01*
X98685773Y-135964557D01*
X98691437Y-135987166D01*
X98694856Y-136010221D01*
X98696000Y-136033500D01*
X98696000Y-136508500D01*
X98694856Y-136531779D01*
X98691437Y-136554834D01*
X98685773Y-136577443D01*
X98677921Y-136599387D01*
X98667956Y-136620457D01*
X98655974Y-136640448D01*
X98642090Y-136659168D01*
X98626438Y-136676438D01*
X98609168Y-136692090D01*
X98590448Y-136705974D01*
X98570457Y-136717956D01*
X98549387Y-136727921D01*
X98527443Y-136735773D01*
X98504834Y-136741437D01*
X98481779Y-136744856D01*
X98458500Y-136746000D01*
X97883500Y-136746000D01*
X97860221Y-136744856D01*
X97837166Y-136741437D01*
X97814557Y-136735773D01*
X97792613Y-136727921D01*
X97771543Y-136717956D01*
X97751552Y-136705974D01*
X97732832Y-136692090D01*
X97715562Y-136676438D01*
X97699910Y-136659168D01*
X97686026Y-136640448D01*
X97674044Y-136620457D01*
X97664079Y-136599387D01*
X97656227Y-136577443D01*
X97650563Y-136554834D01*
X97647144Y-136531779D01*
X97646000Y-136508500D01*
X97646000Y-136033500D01*
X97647144Y-136010221D01*
X97650563Y-135987166D01*
X97656227Y-135964557D01*
X97664079Y-135942613D01*
X97674044Y-135921543D01*
X97686026Y-135901552D01*
X97699910Y-135882832D01*
X97715562Y-135865562D01*
X97732832Y-135849910D01*
X97751552Y-135836026D01*
X97771543Y-135824044D01*
X97792613Y-135814079D01*
X97814557Y-135806227D01*
X97837166Y-135800563D01*
X97860221Y-135797144D01*
X97883500Y-135796000D01*
X98458500Y-135796000D01*
X98481779Y-135797144D01*
X98481779Y-135797144D01*
G37*
D13*
G04 #@! TD*
G04 #@! TO.P,C10,1*
G04 #@! TO.N,GND*
X98171000Y-136271000D03*
D12*
G04 #@! TO.N,+3V3*
G04 #@! TO.C,C10*
G36*
X96731779Y-135797144D02*
X96754834Y-135800563D01*
X96777443Y-135806227D01*
X96799387Y-135814079D01*
X96820457Y-135824044D01*
X96840448Y-135836026D01*
X96859168Y-135849910D01*
X96876438Y-135865562D01*
X96892090Y-135882832D01*
X96905974Y-135901552D01*
X96917956Y-135921543D01*
X96927921Y-135942613D01*
X96935773Y-135964557D01*
X96941437Y-135987166D01*
X96944856Y-136010221D01*
X96946000Y-136033500D01*
X96946000Y-136508500D01*
X96944856Y-136531779D01*
X96941437Y-136554834D01*
X96935773Y-136577443D01*
X96927921Y-136599387D01*
X96917956Y-136620457D01*
X96905974Y-136640448D01*
X96892090Y-136659168D01*
X96876438Y-136676438D01*
X96859168Y-136692090D01*
X96840448Y-136705974D01*
X96820457Y-136717956D01*
X96799387Y-136727921D01*
X96777443Y-136735773D01*
X96754834Y-136741437D01*
X96731779Y-136744856D01*
X96708500Y-136746000D01*
X96133500Y-136746000D01*
X96110221Y-136744856D01*
X96087166Y-136741437D01*
X96064557Y-136735773D01*
X96042613Y-136727921D01*
X96021543Y-136717956D01*
X96001552Y-136705974D01*
X95982832Y-136692090D01*
X95965562Y-136676438D01*
X95949910Y-136659168D01*
X95936026Y-136640448D01*
X95924044Y-136620457D01*
X95914079Y-136599387D01*
X95906227Y-136577443D01*
X95900563Y-136554834D01*
X95897144Y-136531779D01*
X95896000Y-136508500D01*
X95896000Y-136033500D01*
X95897144Y-136010221D01*
X95900563Y-135987166D01*
X95906227Y-135964557D01*
X95914079Y-135942613D01*
X95924044Y-135921543D01*
X95936026Y-135901552D01*
X95949910Y-135882832D01*
X95965562Y-135865562D01*
X95982832Y-135849910D01*
X96001552Y-135836026D01*
X96021543Y-135824044D01*
X96042613Y-135814079D01*
X96064557Y-135806227D01*
X96087166Y-135800563D01*
X96110221Y-135797144D01*
X96133500Y-135796000D01*
X96708500Y-135796000D01*
X96731779Y-135797144D01*
X96731779Y-135797144D01*
G37*
D13*
G04 #@! TD*
G04 #@! TO.P,C10,2*
G04 #@! TO.N,+3V3*
X96421000Y-136271000D03*
D14*
G04 #@! TO.P,J1,1*
G04 #@! TO.N,GND*
X99568000Y-119126000D03*
D15*
G04 #@! TO.P,J1,2*
G04 #@! TO.N,Net-(J1-Pad2)*
X99568000Y-121666000D03*
G04 #@! TD*
D14*
G04 #@! TO.P,J2,1*
G04 #@! TO.N,+3V3*
X113538000Y-145796000D03*
D15*
G04 #@! TO.P,J2,2*
G04 #@! TO.N,/SWCLK*
X113538000Y-143256000D03*
G04 #@! TO.P,J2,3*
G04 #@! TO.N,GND*
X113538000Y-140716000D03*
G04 #@! TO.P,J2,4*
G04 #@! TO.N,/SWDIO*
X113538000Y-138176000D03*
G04 #@! TO.P,J2,5*
G04 #@! TO.N,/NRST*
X113538000Y-135636000D03*
G04 #@! TO.P,J2,6*
G04 #@! TO.N,/JTDO*
X113538000Y-133096000D03*
G04 #@! TD*
D16*
G04 #@! TO.P,P1,*
G04 #@! TO.N,*
X121158000Y-130644000D03*
X121158000Y-72644000D03*
X72158000Y-72644000D03*
X72158000Y-130644000D03*
D17*
G04 #@! TO.P,P1,1*
G04 #@! TO.N,Net-(P1-Pad1)*
X73428000Y-77514000D03*
D18*
G04 #@! TO.P,P1,2*
G04 #@! TO.N,+5V*
X70888000Y-77514000D03*
G04 #@! TO.P,P1,3*
G04 #@! TO.N,Net-(P1-Pad3)*
X73428000Y-80054000D03*
G04 #@! TO.P,P1,4*
G04 #@! TO.N,+5V*
X70888000Y-80054000D03*
G04 #@! TO.P,P1,5*
G04 #@! TO.N,Net-(P1-Pad5)*
X73428000Y-82594000D03*
G04 #@! TO.P,P1,6*
G04 #@! TO.N,GND*
X70888000Y-82594000D03*
G04 #@! TO.P,P1,7*
G04 #@! TO.N,/STM_RESET*
X73428000Y-85134000D03*
G04 #@! TO.P,P1,8*
G04 #@! TO.N,/ODROID_TX*
X70888000Y-85134000D03*
G04 #@! TO.P,P1,9*
G04 #@! TO.N,GND*
X73428000Y-87674000D03*
G04 #@! TO.P,P1,10*
G04 #@! TO.N,/ODROID_RX*
X70888000Y-87674000D03*
G04 #@! TO.P,P1,11*
G04 #@! TO.N,Net-(P1-Pad11)*
X73428000Y-90214000D03*
G04 #@! TO.P,P1,12*
G04 #@! TO.N,Net-(P1-Pad12)*
X70888000Y-90214000D03*
G04 #@! TO.P,P1,13*
G04 #@! TO.N,Net-(P1-Pad13)*
X73428000Y-92754000D03*
G04 #@! TO.P,P1,14*
G04 #@! TO.N,GND*
X70888000Y-92754000D03*
G04 #@! TO.P,P1,15*
G04 #@! TO.N,Net-(P1-Pad15)*
X73428000Y-95294000D03*
G04 #@! TO.P,P1,16*
G04 #@! TO.N,Net-(P1-Pad16)*
X70888000Y-95294000D03*
G04 #@! TO.P,P1,17*
G04 #@! TO.N,Net-(P1-Pad17)*
X73428000Y-97834000D03*
G04 #@! TO.P,P1,18*
G04 #@! TO.N,Net-(P1-Pad18)*
X70888000Y-97834000D03*
G04 #@! TO.P,P1,19*
G04 #@! TO.N,Net-(P1-Pad19)*
X73428000Y-100374000D03*
G04 #@! TO.P,P1,20*
G04 #@! TO.N,GND*
X70888000Y-100374000D03*
G04 #@! TO.P,P1,21*
G04 #@! TO.N,Net-(P1-Pad21)*
X73428000Y-102914000D03*
G04 #@! TO.P,P1,22*
G04 #@! TO.N,Net-(P1-Pad22)*
X70888000Y-102914000D03*
G04 #@! TO.P,P1,23*
G04 #@! TO.N,Net-(P1-Pad23)*
X73428000Y-105454000D03*
G04 #@! TO.P,P1,24*
G04 #@! TO.N,Net-(P1-Pad24)*
X70888000Y-105454000D03*
G04 #@! TO.P,P1,25*
G04 #@! TO.N,GND*
X73428000Y-107994000D03*
G04 #@! TO.P,P1,26*
G04 #@! TO.N,Net-(P1-Pad26)*
X70888000Y-107994000D03*
G04 #@! TO.P,P1,27*
G04 #@! TO.N,Net-(P1-Pad27)*
X73428000Y-110534000D03*
G04 #@! TO.P,P1,28*
G04 #@! TO.N,Net-(P1-Pad28)*
X70888000Y-110534000D03*
G04 #@! TO.P,P1,29*
G04 #@! TO.N,Net-(P1-Pad29)*
X73428000Y-113074000D03*
G04 #@! TO.P,P1,30*
G04 #@! TO.N,GND*
X70888000Y-113074000D03*
G04 #@! TO.P,P1,31*
G04 #@! TO.N,Net-(P1-Pad31)*
X73428000Y-115614000D03*
G04 #@! TO.P,P1,32*
G04 #@! TO.N,Net-(P1-Pad32)*
X70888000Y-115614000D03*
G04 #@! TO.P,P1,33*
G04 #@! TO.N,Net-(P1-Pad33)*
X73428000Y-118154000D03*
G04 #@! TO.P,P1,34*
G04 #@! TO.N,GND*
X70888000Y-118154000D03*
G04 #@! TO.P,P1,35*
G04 #@! TO.N,Net-(P1-Pad35)*
X73428000Y-120694000D03*
G04 #@! TO.P,P1,36*
G04 #@! TO.N,Net-(P1-Pad36)*
X70888000Y-120694000D03*
G04 #@! TO.P,P1,37*
G04 #@! TO.N,Net-(P1-Pad37)*
X73428000Y-123234000D03*
G04 #@! TO.P,P1,38*
G04 #@! TO.N,Net-(P1-Pad38)*
X70888000Y-123234000D03*
G04 #@! TO.P,P1,39*
G04 #@! TO.N,GND*
X73428000Y-125774000D03*
G04 #@! TO.P,P1,40*
G04 #@! TO.N,Net-(P1-Pad40)*
X70888000Y-125774000D03*
G04 #@! TD*
D19*
G04 #@! TO.P,J7,1*
G04 #@! TO.N,GND*
X104394000Y-51650000D03*
D20*
G04 #@! TO.P,J7,2*
X108594000Y-51650000D03*
G04 #@! TO.P,J7,3*
X112794000Y-51650000D03*
G04 #@! TO.P,J7,4*
X116994000Y-51650000D03*
G04 #@! TO.P,J7,5*
G04 #@! TO.N,+3V3*
X104394000Y-57150000D03*
G04 #@! TO.P,J7,6*
G04 #@! TO.N,+5V*
X108594000Y-57150000D03*
G04 #@! TO.P,J7,7*
G04 #@! TO.N,+24V*
X112794000Y-57150000D03*
G04 #@! TO.P,J7,8*
G04 #@! TO.N,+48V*
X116994000Y-57150000D03*
G04 #@! TD*
D12*
G04 #@! TO.N,+5V*
G04 #@! TO.C,R13*
G36*
X80842779Y-69757144D02*
X80865834Y-69760563D01*
X80888443Y-69766227D01*
X80910387Y-69774079D01*
X80931457Y-69784044D01*
X80951448Y-69796026D01*
X80970168Y-69809910D01*
X80987438Y-69825562D01*
X81003090Y-69842832D01*
X81016974Y-69861552D01*
X81028956Y-69881543D01*
X81038921Y-69902613D01*
X81046773Y-69924557D01*
X81052437Y-69947166D01*
X81055856Y-69970221D01*
X81057000Y-69993500D01*
X81057000Y-70468500D01*
X81055856Y-70491779D01*
X81052437Y-70514834D01*
X81046773Y-70537443D01*
X81038921Y-70559387D01*
X81028956Y-70580457D01*
X81016974Y-70600448D01*
X81003090Y-70619168D01*
X80987438Y-70636438D01*
X80970168Y-70652090D01*
X80951448Y-70665974D01*
X80931457Y-70677956D01*
X80910387Y-70687921D01*
X80888443Y-70695773D01*
X80865834Y-70701437D01*
X80842779Y-70704856D01*
X80819500Y-70706000D01*
X80244500Y-70706000D01*
X80221221Y-70704856D01*
X80198166Y-70701437D01*
X80175557Y-70695773D01*
X80153613Y-70687921D01*
X80132543Y-70677956D01*
X80112552Y-70665974D01*
X80093832Y-70652090D01*
X80076562Y-70636438D01*
X80060910Y-70619168D01*
X80047026Y-70600448D01*
X80035044Y-70580457D01*
X80025079Y-70559387D01*
X80017227Y-70537443D01*
X80011563Y-70514834D01*
X80008144Y-70491779D01*
X80007000Y-70468500D01*
X80007000Y-69993500D01*
X80008144Y-69970221D01*
X80011563Y-69947166D01*
X80017227Y-69924557D01*
X80025079Y-69902613D01*
X80035044Y-69881543D01*
X80047026Y-69861552D01*
X80060910Y-69842832D01*
X80076562Y-69825562D01*
X80093832Y-69809910D01*
X80112552Y-69796026D01*
X80132543Y-69784044D01*
X80153613Y-69774079D01*
X80175557Y-69766227D01*
X80198166Y-69760563D01*
X80221221Y-69757144D01*
X80244500Y-69756000D01*
X80819500Y-69756000D01*
X80842779Y-69757144D01*
X80842779Y-69757144D01*
G37*
D13*
G04 #@! TD*
G04 #@! TO.P,R13,1*
G04 #@! TO.N,+5V*
X80532000Y-70231000D03*
D12*
G04 #@! TO.N,/5V_MEASURE*
G04 #@! TO.C,R13*
G36*
X82592779Y-69757144D02*
X82615834Y-69760563D01*
X82638443Y-69766227D01*
X82660387Y-69774079D01*
X82681457Y-69784044D01*
X82701448Y-69796026D01*
X82720168Y-69809910D01*
X82737438Y-69825562D01*
X82753090Y-69842832D01*
X82766974Y-69861552D01*
X82778956Y-69881543D01*
X82788921Y-69902613D01*
X82796773Y-69924557D01*
X82802437Y-69947166D01*
X82805856Y-69970221D01*
X82807000Y-69993500D01*
X82807000Y-70468500D01*
X82805856Y-70491779D01*
X82802437Y-70514834D01*
X82796773Y-70537443D01*
X82788921Y-70559387D01*
X82778956Y-70580457D01*
X82766974Y-70600448D01*
X82753090Y-70619168D01*
X82737438Y-70636438D01*
X82720168Y-70652090D01*
X82701448Y-70665974D01*
X82681457Y-70677956D01*
X82660387Y-70687921D01*
X82638443Y-70695773D01*
X82615834Y-70701437D01*
X82592779Y-70704856D01*
X82569500Y-70706000D01*
X81994500Y-70706000D01*
X81971221Y-70704856D01*
X81948166Y-70701437D01*
X81925557Y-70695773D01*
X81903613Y-70687921D01*
X81882543Y-70677956D01*
X81862552Y-70665974D01*
X81843832Y-70652090D01*
X81826562Y-70636438D01*
X81810910Y-70619168D01*
X81797026Y-70600448D01*
X81785044Y-70580457D01*
X81775079Y-70559387D01*
X81767227Y-70537443D01*
X81761563Y-70514834D01*
X81758144Y-70491779D01*
X81757000Y-70468500D01*
X81757000Y-69993500D01*
X81758144Y-69970221D01*
X81761563Y-69947166D01*
X81767227Y-69924557D01*
X81775079Y-69902613D01*
X81785044Y-69881543D01*
X81797026Y-69861552D01*
X81810910Y-69842832D01*
X81826562Y-69825562D01*
X81843832Y-69809910D01*
X81862552Y-69796026D01*
X81882543Y-69784044D01*
X81903613Y-69774079D01*
X81925557Y-69766227D01*
X81948166Y-69760563D01*
X81971221Y-69757144D01*
X81994500Y-69756000D01*
X82569500Y-69756000D01*
X82592779Y-69757144D01*
X82592779Y-69757144D01*
G37*
D13*
G04 #@! TD*
G04 #@! TO.P,R13,2*
G04 #@! TO.N,/5V_MEASURE*
X82282000Y-70231000D03*
D12*
G04 #@! TO.N,GND*
G04 #@! TO.C,R14*
G36*
X87037779Y-69757144D02*
X87060834Y-69760563D01*
X87083443Y-69766227D01*
X87105387Y-69774079D01*
X87126457Y-69784044D01*
X87146448Y-69796026D01*
X87165168Y-69809910D01*
X87182438Y-69825562D01*
X87198090Y-69842832D01*
X87211974Y-69861552D01*
X87223956Y-69881543D01*
X87233921Y-69902613D01*
X87241773Y-69924557D01*
X87247437Y-69947166D01*
X87250856Y-69970221D01*
X87252000Y-69993500D01*
X87252000Y-70468500D01*
X87250856Y-70491779D01*
X87247437Y-70514834D01*
X87241773Y-70537443D01*
X87233921Y-70559387D01*
X87223956Y-70580457D01*
X87211974Y-70600448D01*
X87198090Y-70619168D01*
X87182438Y-70636438D01*
X87165168Y-70652090D01*
X87146448Y-70665974D01*
X87126457Y-70677956D01*
X87105387Y-70687921D01*
X87083443Y-70695773D01*
X87060834Y-70701437D01*
X87037779Y-70704856D01*
X87014500Y-70706000D01*
X86439500Y-70706000D01*
X86416221Y-70704856D01*
X86393166Y-70701437D01*
X86370557Y-70695773D01*
X86348613Y-70687921D01*
X86327543Y-70677956D01*
X86307552Y-70665974D01*
X86288832Y-70652090D01*
X86271562Y-70636438D01*
X86255910Y-70619168D01*
X86242026Y-70600448D01*
X86230044Y-70580457D01*
X86220079Y-70559387D01*
X86212227Y-70537443D01*
X86206563Y-70514834D01*
X86203144Y-70491779D01*
X86202000Y-70468500D01*
X86202000Y-69993500D01*
X86203144Y-69970221D01*
X86206563Y-69947166D01*
X86212227Y-69924557D01*
X86220079Y-69902613D01*
X86230044Y-69881543D01*
X86242026Y-69861552D01*
X86255910Y-69842832D01*
X86271562Y-69825562D01*
X86288832Y-69809910D01*
X86307552Y-69796026D01*
X86327543Y-69784044D01*
X86348613Y-69774079D01*
X86370557Y-69766227D01*
X86393166Y-69760563D01*
X86416221Y-69757144D01*
X86439500Y-69756000D01*
X87014500Y-69756000D01*
X87037779Y-69757144D01*
X87037779Y-69757144D01*
G37*
D13*
G04 #@! TD*
G04 #@! TO.P,R14,2*
G04 #@! TO.N,GND*
X86727000Y-70231000D03*
D12*
G04 #@! TO.N,/5V_MEASURE*
G04 #@! TO.C,R14*
G36*
X85287779Y-69757144D02*
X85310834Y-69760563D01*
X85333443Y-69766227D01*
X85355387Y-69774079D01*
X85376457Y-69784044D01*
X85396448Y-69796026D01*
X85415168Y-69809910D01*
X85432438Y-69825562D01*
X85448090Y-69842832D01*
X85461974Y-69861552D01*
X85473956Y-69881543D01*
X85483921Y-69902613D01*
X85491773Y-69924557D01*
X85497437Y-69947166D01*
X85500856Y-69970221D01*
X85502000Y-69993500D01*
X85502000Y-70468500D01*
X85500856Y-70491779D01*
X85497437Y-70514834D01*
X85491773Y-70537443D01*
X85483921Y-70559387D01*
X85473956Y-70580457D01*
X85461974Y-70600448D01*
X85448090Y-70619168D01*
X85432438Y-70636438D01*
X85415168Y-70652090D01*
X85396448Y-70665974D01*
X85376457Y-70677956D01*
X85355387Y-70687921D01*
X85333443Y-70695773D01*
X85310834Y-70701437D01*
X85287779Y-70704856D01*
X85264500Y-70706000D01*
X84689500Y-70706000D01*
X84666221Y-70704856D01*
X84643166Y-70701437D01*
X84620557Y-70695773D01*
X84598613Y-70687921D01*
X84577543Y-70677956D01*
X84557552Y-70665974D01*
X84538832Y-70652090D01*
X84521562Y-70636438D01*
X84505910Y-70619168D01*
X84492026Y-70600448D01*
X84480044Y-70580457D01*
X84470079Y-70559387D01*
X84462227Y-70537443D01*
X84456563Y-70514834D01*
X84453144Y-70491779D01*
X84452000Y-70468500D01*
X84452000Y-69993500D01*
X84453144Y-69970221D01*
X84456563Y-69947166D01*
X84462227Y-69924557D01*
X84470079Y-69902613D01*
X84480044Y-69881543D01*
X84492026Y-69861552D01*
X84505910Y-69842832D01*
X84521562Y-69825562D01*
X84538832Y-69809910D01*
X84557552Y-69796026D01*
X84577543Y-69784044D01*
X84598613Y-69774079D01*
X84620557Y-69766227D01*
X84643166Y-69760563D01*
X84666221Y-69757144D01*
X84689500Y-69756000D01*
X85264500Y-69756000D01*
X85287779Y-69757144D01*
X85287779Y-69757144D01*
G37*
D13*
G04 #@! TD*
G04 #@! TO.P,R14,1*
G04 #@! TO.N,/5V_MEASURE*
X84977000Y-70231000D03*
D21*
G04 #@! TO.P,Y1,1*
G04 #@! TO.N,Net-(C2-Pad1)*
X85344000Y-137922000D03*
G04 #@! TO.P,Y1,2*
G04 #@! TO.N,Net-(C3-Pad1)*
X85344000Y-133042000D03*
G04 #@! TD*
D22*
G04 #@! TO.P,J4,4*
G04 #@! TO.N,GND*
X120269000Y-110967000D03*
G04 #@! TO.P,J4,3*
G04 #@! TO.N,Net-(J4-Pad3)*
X120269000Y-112967000D03*
G04 #@! TO.P,J4,2*
G04 #@! TO.N,Net-(J4-Pad2)*
X120269000Y-114967000D03*
D23*
G04 #@! TO.P,J4,1*
G04 #@! TO.N,+48V*
X120269000Y-116967000D03*
G04 #@! TD*
G04 #@! TO.P,J6,1*
G04 #@! TO.N,+48V*
X120269000Y-99187000D03*
D22*
G04 #@! TO.P,J6,2*
G04 #@! TO.N,Net-(J6-Pad2)*
X120269000Y-97187000D03*
G04 #@! TO.P,J6,3*
G04 #@! TO.N,Net-(J6-Pad3)*
X120269000Y-95187000D03*
G04 #@! TO.P,J6,4*
G04 #@! TO.N,GND*
X120269000Y-93187000D03*
G04 #@! TD*
G04 #@! TO.P,J5,3*
G04 #@! TO.N,/MOTOR_1*
X155893000Y-127762000D03*
G04 #@! TO.P,J5,2*
G04 #@! TO.N,Net-(J5-Pad2)*
X157893000Y-127762000D03*
D23*
G04 #@! TO.P,J5,1*
G04 #@! TO.N,GND*
X159893000Y-127762000D03*
G04 #@! TD*
G04 #@! TO.P,J10,1*
G04 #@! TO.N,GND*
X159893000Y-122555000D03*
D22*
G04 #@! TO.P,J10,2*
G04 #@! TO.N,Net-(J10-Pad2)*
X157893000Y-122555000D03*
G04 #@! TO.P,J10,3*
G04 #@! TO.N,/MOTOR_2*
X155893000Y-122555000D03*
G04 #@! TD*
G04 #@! TO.P,J11,3*
G04 #@! TO.N,/MOTOR_3*
X155893000Y-117348000D03*
G04 #@! TO.P,J11,2*
G04 #@! TO.N,Net-(J11-Pad2)*
X157893000Y-117348000D03*
D23*
G04 #@! TO.P,J11,1*
G04 #@! TO.N,GND*
X159893000Y-117348000D03*
G04 #@! TD*
G04 #@! TO.P,J12,1*
G04 #@! TO.N,GND*
X159893000Y-112141000D03*
D22*
G04 #@! TO.P,J12,2*
G04 #@! TO.N,Net-(J12-Pad2)*
X157893000Y-112141000D03*
G04 #@! TO.P,J12,3*
G04 #@! TO.N,/MOTOR_4*
X155893000Y-112141000D03*
G04 #@! TD*
G04 #@! TO.P,J13,3*
G04 #@! TO.N,/MOTOR_5*
X155893000Y-106934000D03*
G04 #@! TO.P,J13,2*
G04 #@! TO.N,Net-(J13-Pad2)*
X157893000Y-106934000D03*
D23*
G04 #@! TO.P,J13,1*
G04 #@! TO.N,GND*
X159893000Y-106934000D03*
G04 #@! TD*
G04 #@! TO.P,J14,1*
G04 #@! TO.N,GND*
X159893000Y-101727000D03*
D22*
G04 #@! TO.P,J14,2*
G04 #@! TO.N,Net-(J14-Pad2)*
X157893000Y-101727000D03*
G04 #@! TO.P,J14,3*
G04 #@! TO.N,/MOTOR_6*
X155893000Y-101727000D03*
G04 #@! TD*
G04 #@! TO.P,J15,3*
G04 #@! TO.N,/MOTOR_7*
X155893000Y-96520000D03*
G04 #@! TO.P,J15,2*
G04 #@! TO.N,Net-(J15-Pad2)*
X157893000Y-96520000D03*
D23*
G04 #@! TO.P,J15,1*
G04 #@! TO.N,GND*
X159893000Y-96520000D03*
G04 #@! TD*
G04 #@! TO.P,J16,1*
G04 #@! TO.N,GND*
X159893000Y-91313000D03*
D22*
G04 #@! TO.P,J16,2*
G04 #@! TO.N,Net-(J16-Pad2)*
X157893000Y-91313000D03*
G04 #@! TO.P,J16,3*
G04 #@! TO.N,/MOTOR_8*
X155893000Y-91313000D03*
G04 #@! TD*
D12*
G04 #@! TO.N,+3V3*
G04 #@! TO.C,R3*
G36*
X110115779Y-127591144D02*
X110138834Y-127594563D01*
X110161443Y-127600227D01*
X110183387Y-127608079D01*
X110204457Y-127618044D01*
X110224448Y-127630026D01*
X110243168Y-127643910D01*
X110260438Y-127659562D01*
X110276090Y-127676832D01*
X110289974Y-127695552D01*
X110301956Y-127715543D01*
X110311921Y-127736613D01*
X110319773Y-127758557D01*
X110325437Y-127781166D01*
X110328856Y-127804221D01*
X110330000Y-127827500D01*
X110330000Y-128402500D01*
X110328856Y-128425779D01*
X110325437Y-128448834D01*
X110319773Y-128471443D01*
X110311921Y-128493387D01*
X110301956Y-128514457D01*
X110289974Y-128534448D01*
X110276090Y-128553168D01*
X110260438Y-128570438D01*
X110243168Y-128586090D01*
X110224448Y-128599974D01*
X110204457Y-128611956D01*
X110183387Y-128621921D01*
X110161443Y-128629773D01*
X110138834Y-128635437D01*
X110115779Y-128638856D01*
X110092500Y-128640000D01*
X109617500Y-128640000D01*
X109594221Y-128638856D01*
X109571166Y-128635437D01*
X109548557Y-128629773D01*
X109526613Y-128621921D01*
X109505543Y-128611956D01*
X109485552Y-128599974D01*
X109466832Y-128586090D01*
X109449562Y-128570438D01*
X109433910Y-128553168D01*
X109420026Y-128534448D01*
X109408044Y-128514457D01*
X109398079Y-128493387D01*
X109390227Y-128471443D01*
X109384563Y-128448834D01*
X109381144Y-128425779D01*
X109380000Y-128402500D01*
X109380000Y-127827500D01*
X109381144Y-127804221D01*
X109384563Y-127781166D01*
X109390227Y-127758557D01*
X109398079Y-127736613D01*
X109408044Y-127715543D01*
X109420026Y-127695552D01*
X109433910Y-127676832D01*
X109449562Y-127659562D01*
X109466832Y-127643910D01*
X109485552Y-127630026D01*
X109505543Y-127618044D01*
X109526613Y-127608079D01*
X109548557Y-127600227D01*
X109571166Y-127594563D01*
X109594221Y-127591144D01*
X109617500Y-127590000D01*
X110092500Y-127590000D01*
X110115779Y-127591144D01*
X110115779Y-127591144D01*
G37*
D13*
G04 #@! TD*
G04 #@! TO.P,R3,2*
G04 #@! TO.N,+3V3*
X109855000Y-128115000D03*
D12*
G04 #@! TO.N,/ICM_SDA*
G04 #@! TO.C,R3*
G36*
X110115779Y-125841144D02*
X110138834Y-125844563D01*
X110161443Y-125850227D01*
X110183387Y-125858079D01*
X110204457Y-125868044D01*
X110224448Y-125880026D01*
X110243168Y-125893910D01*
X110260438Y-125909562D01*
X110276090Y-125926832D01*
X110289974Y-125945552D01*
X110301956Y-125965543D01*
X110311921Y-125986613D01*
X110319773Y-126008557D01*
X110325437Y-126031166D01*
X110328856Y-126054221D01*
X110330000Y-126077500D01*
X110330000Y-126652500D01*
X110328856Y-126675779D01*
X110325437Y-126698834D01*
X110319773Y-126721443D01*
X110311921Y-126743387D01*
X110301956Y-126764457D01*
X110289974Y-126784448D01*
X110276090Y-126803168D01*
X110260438Y-126820438D01*
X110243168Y-126836090D01*
X110224448Y-126849974D01*
X110204457Y-126861956D01*
X110183387Y-126871921D01*
X110161443Y-126879773D01*
X110138834Y-126885437D01*
X110115779Y-126888856D01*
X110092500Y-126890000D01*
X109617500Y-126890000D01*
X109594221Y-126888856D01*
X109571166Y-126885437D01*
X109548557Y-126879773D01*
X109526613Y-126871921D01*
X109505543Y-126861956D01*
X109485552Y-126849974D01*
X109466832Y-126836090D01*
X109449562Y-126820438D01*
X109433910Y-126803168D01*
X109420026Y-126784448D01*
X109408044Y-126764457D01*
X109398079Y-126743387D01*
X109390227Y-126721443D01*
X109384563Y-126698834D01*
X109381144Y-126675779D01*
X109380000Y-126652500D01*
X109380000Y-126077500D01*
X109381144Y-126054221D01*
X109384563Y-126031166D01*
X109390227Y-126008557D01*
X109398079Y-125986613D01*
X109408044Y-125965543D01*
X109420026Y-125945552D01*
X109433910Y-125926832D01*
X109449562Y-125909562D01*
X109466832Y-125893910D01*
X109485552Y-125880026D01*
X109505543Y-125868044D01*
X109526613Y-125858079D01*
X109548557Y-125850227D01*
X109571166Y-125844563D01*
X109594221Y-125841144D01*
X109617500Y-125840000D01*
X110092500Y-125840000D01*
X110115779Y-125841144D01*
X110115779Y-125841144D01*
G37*
D13*
G04 #@! TD*
G04 #@! TO.P,R3,1*
G04 #@! TO.N,/ICM_SDA*
X109855000Y-126365000D03*
D12*
G04 #@! TO.N,/ICM_SCL*
G04 #@! TO.C,R4*
G36*
X112020779Y-125841144D02*
X112043834Y-125844563D01*
X112066443Y-125850227D01*
X112088387Y-125858079D01*
X112109457Y-125868044D01*
X112129448Y-125880026D01*
X112148168Y-125893910D01*
X112165438Y-125909562D01*
X112181090Y-125926832D01*
X112194974Y-125945552D01*
X112206956Y-125965543D01*
X112216921Y-125986613D01*
X112224773Y-126008557D01*
X112230437Y-126031166D01*
X112233856Y-126054221D01*
X112235000Y-126077500D01*
X112235000Y-126652500D01*
X112233856Y-126675779D01*
X112230437Y-126698834D01*
X112224773Y-126721443D01*
X112216921Y-126743387D01*
X112206956Y-126764457D01*
X112194974Y-126784448D01*
X112181090Y-126803168D01*
X112165438Y-126820438D01*
X112148168Y-126836090D01*
X112129448Y-126849974D01*
X112109457Y-126861956D01*
X112088387Y-126871921D01*
X112066443Y-126879773D01*
X112043834Y-126885437D01*
X112020779Y-126888856D01*
X111997500Y-126890000D01*
X111522500Y-126890000D01*
X111499221Y-126888856D01*
X111476166Y-126885437D01*
X111453557Y-126879773D01*
X111431613Y-126871921D01*
X111410543Y-126861956D01*
X111390552Y-126849974D01*
X111371832Y-126836090D01*
X111354562Y-126820438D01*
X111338910Y-126803168D01*
X111325026Y-126784448D01*
X111313044Y-126764457D01*
X111303079Y-126743387D01*
X111295227Y-126721443D01*
X111289563Y-126698834D01*
X111286144Y-126675779D01*
X111285000Y-126652500D01*
X111285000Y-126077500D01*
X111286144Y-126054221D01*
X111289563Y-126031166D01*
X111295227Y-126008557D01*
X111303079Y-125986613D01*
X111313044Y-125965543D01*
X111325026Y-125945552D01*
X111338910Y-125926832D01*
X111354562Y-125909562D01*
X111371832Y-125893910D01*
X111390552Y-125880026D01*
X111410543Y-125868044D01*
X111431613Y-125858079D01*
X111453557Y-125850227D01*
X111476166Y-125844563D01*
X111499221Y-125841144D01*
X111522500Y-125840000D01*
X111997500Y-125840000D01*
X112020779Y-125841144D01*
X112020779Y-125841144D01*
G37*
D13*
G04 #@! TD*
G04 #@! TO.P,R4,1*
G04 #@! TO.N,/ICM_SCL*
X111760000Y-126365000D03*
D12*
G04 #@! TO.N,+3V3*
G04 #@! TO.C,R4*
G36*
X112020779Y-127591144D02*
X112043834Y-127594563D01*
X112066443Y-127600227D01*
X112088387Y-127608079D01*
X112109457Y-127618044D01*
X112129448Y-127630026D01*
X112148168Y-127643910D01*
X112165438Y-127659562D01*
X112181090Y-127676832D01*
X112194974Y-127695552D01*
X112206956Y-127715543D01*
X112216921Y-127736613D01*
X112224773Y-127758557D01*
X112230437Y-127781166D01*
X112233856Y-127804221D01*
X112235000Y-127827500D01*
X112235000Y-128402500D01*
X112233856Y-128425779D01*
X112230437Y-128448834D01*
X112224773Y-128471443D01*
X112216921Y-128493387D01*
X112206956Y-128514457D01*
X112194974Y-128534448D01*
X112181090Y-128553168D01*
X112165438Y-128570438D01*
X112148168Y-128586090D01*
X112129448Y-128599974D01*
X112109457Y-128611956D01*
X112088387Y-128621921D01*
X112066443Y-128629773D01*
X112043834Y-128635437D01*
X112020779Y-128638856D01*
X111997500Y-128640000D01*
X111522500Y-128640000D01*
X111499221Y-128638856D01*
X111476166Y-128635437D01*
X111453557Y-128629773D01*
X111431613Y-128621921D01*
X111410543Y-128611956D01*
X111390552Y-128599974D01*
X111371832Y-128586090D01*
X111354562Y-128570438D01*
X111338910Y-128553168D01*
X111325026Y-128534448D01*
X111313044Y-128514457D01*
X111303079Y-128493387D01*
X111295227Y-128471443D01*
X111289563Y-128448834D01*
X111286144Y-128425779D01*
X111285000Y-128402500D01*
X111285000Y-127827500D01*
X111286144Y-127804221D01*
X111289563Y-127781166D01*
X111295227Y-127758557D01*
X111303079Y-127736613D01*
X111313044Y-127715543D01*
X111325026Y-127695552D01*
X111338910Y-127676832D01*
X111354562Y-127659562D01*
X111371832Y-127643910D01*
X111390552Y-127630026D01*
X111410543Y-127618044D01*
X111431613Y-127608079D01*
X111453557Y-127600227D01*
X111476166Y-127594563D01*
X111499221Y-127591144D01*
X111522500Y-127590000D01*
X111997500Y-127590000D01*
X112020779Y-127591144D01*
X112020779Y-127591144D01*
G37*
D13*
G04 #@! TD*
G04 #@! TO.P,R4,2*
G04 #@! TO.N,+3V3*
X111760000Y-128115000D03*
D24*
G04 #@! TO.P,REF\002A\002A,1*
G04 #@! TO.N,N/C*
X143510000Y-62738000D03*
G04 #@! TD*
G04 #@! TO.P,REF\002A\002A,1*
G04 #@! TO.N,N/C*
X60960000Y-62738000D03*
G04 #@! TD*
G04 #@! TO.P,REF\002A\002A,1*
G04 #@! TO.N,N/C*
X143510000Y-138938000D03*
G04 #@! TD*
G04 #@! TO.P,REF\002A\002A,1*
G04 #@! TO.N,N/C*
X60960000Y-138938000D03*
G04 #@! TD*
D14*
G04 #@! TO.P,J3,1*
G04 #@! TO.N,Net-(C15-Pad1)*
X54356000Y-76708000D03*
D25*
G04 #@! TO.P,J3,2*
G04 #@! TO.N,Net-(J3-Pad2)*
X54356000Y-79208000D03*
G04 #@! TO.P,J3,3*
G04 #@! TO.N,Net-(J3-Pad3)*
X52356000Y-79208000D03*
G04 #@! TO.P,J3,4*
G04 #@! TO.N,GND*
X52356000Y-76708000D03*
D26*
G04 #@! TO.P,J3,5*
X49646000Y-71938000D03*
X49646000Y-83978000D03*
G04 #@! TD*
D17*
G04 #@! TO.P,J8,1*
G04 #@! TO.N,GND*
X65024000Y-51054000D03*
D18*
G04 #@! TO.P,J8,2*
G04 #@! TO.N,+3V3*
X77724000Y-51054000D03*
G04 #@! TD*
D12*
G04 #@! TO.N,/NRST*
G04 #@! TO.C,C17*
G36*
X96830779Y-132876144D02*
X96853834Y-132879563D01*
X96876443Y-132885227D01*
X96898387Y-132893079D01*
X96919457Y-132903044D01*
X96939448Y-132915026D01*
X96958168Y-132928910D01*
X96975438Y-132944562D01*
X96991090Y-132961832D01*
X97004974Y-132980552D01*
X97016956Y-133000543D01*
X97026921Y-133021613D01*
X97034773Y-133043557D01*
X97040437Y-133066166D01*
X97043856Y-133089221D01*
X97045000Y-133112500D01*
X97045000Y-133587500D01*
X97043856Y-133610779D01*
X97040437Y-133633834D01*
X97034773Y-133656443D01*
X97026921Y-133678387D01*
X97016956Y-133699457D01*
X97004974Y-133719448D01*
X96991090Y-133738168D01*
X96975438Y-133755438D01*
X96958168Y-133771090D01*
X96939448Y-133784974D01*
X96919457Y-133796956D01*
X96898387Y-133806921D01*
X96876443Y-133814773D01*
X96853834Y-133820437D01*
X96830779Y-133823856D01*
X96807500Y-133825000D01*
X96232500Y-133825000D01*
X96209221Y-133823856D01*
X96186166Y-133820437D01*
X96163557Y-133814773D01*
X96141613Y-133806921D01*
X96120543Y-133796956D01*
X96100552Y-133784974D01*
X96081832Y-133771090D01*
X96064562Y-133755438D01*
X96048910Y-133738168D01*
X96035026Y-133719448D01*
X96023044Y-133699457D01*
X96013079Y-133678387D01*
X96005227Y-133656443D01*
X95999563Y-133633834D01*
X95996144Y-133610779D01*
X95995000Y-133587500D01*
X95995000Y-133112500D01*
X95996144Y-133089221D01*
X95999563Y-133066166D01*
X96005227Y-133043557D01*
X96013079Y-133021613D01*
X96023044Y-133000543D01*
X96035026Y-132980552D01*
X96048910Y-132961832D01*
X96064562Y-132944562D01*
X96081832Y-132928910D01*
X96100552Y-132915026D01*
X96120543Y-132903044D01*
X96141613Y-132893079D01*
X96163557Y-132885227D01*
X96186166Y-132879563D01*
X96209221Y-132876144D01*
X96232500Y-132875000D01*
X96807500Y-132875000D01*
X96830779Y-132876144D01*
X96830779Y-132876144D01*
G37*
D13*
G04 #@! TD*
G04 #@! TO.P,C17,1*
G04 #@! TO.N,/NRST*
X96520000Y-133350000D03*
D12*
G04 #@! TO.N,GND*
G04 #@! TO.C,C17*
G36*
X98580779Y-132876144D02*
X98603834Y-132879563D01*
X98626443Y-132885227D01*
X98648387Y-132893079D01*
X98669457Y-132903044D01*
X98689448Y-132915026D01*
X98708168Y-132928910D01*
X98725438Y-132944562D01*
X98741090Y-132961832D01*
X98754974Y-132980552D01*
X98766956Y-133000543D01*
X98776921Y-133021613D01*
X98784773Y-133043557D01*
X98790437Y-133066166D01*
X98793856Y-133089221D01*
X98795000Y-133112500D01*
X98795000Y-133587500D01*
X98793856Y-133610779D01*
X98790437Y-133633834D01*
X98784773Y-133656443D01*
X98776921Y-133678387D01*
X98766956Y-133699457D01*
X98754974Y-133719448D01*
X98741090Y-133738168D01*
X98725438Y-133755438D01*
X98708168Y-133771090D01*
X98689448Y-133784974D01*
X98669457Y-133796956D01*
X98648387Y-133806921D01*
X98626443Y-133814773D01*
X98603834Y-133820437D01*
X98580779Y-133823856D01*
X98557500Y-133825000D01*
X97982500Y-133825000D01*
X97959221Y-133823856D01*
X97936166Y-133820437D01*
X97913557Y-133814773D01*
X97891613Y-133806921D01*
X97870543Y-133796956D01*
X97850552Y-133784974D01*
X97831832Y-133771090D01*
X97814562Y-133755438D01*
X97798910Y-133738168D01*
X97785026Y-133719448D01*
X97773044Y-133699457D01*
X97763079Y-133678387D01*
X97755227Y-133656443D01*
X97749563Y-133633834D01*
X97746144Y-133610779D01*
X97745000Y-133587500D01*
X97745000Y-133112500D01*
X97746144Y-133089221D01*
X97749563Y-133066166D01*
X97755227Y-133043557D01*
X97763079Y-133021613D01*
X97773044Y-133000543D01*
X97785026Y-132980552D01*
X97798910Y-132961832D01*
X97814562Y-132944562D01*
X97831832Y-132928910D01*
X97850552Y-132915026D01*
X97870543Y-132903044D01*
X97891613Y-132893079D01*
X97913557Y-132885227D01*
X97936166Y-132879563D01*
X97959221Y-132876144D01*
X97982500Y-132875000D01*
X98557500Y-132875000D01*
X98580779Y-132876144D01*
X98580779Y-132876144D01*
G37*
D13*
G04 #@! TD*
G04 #@! TO.P,C17,2*
G04 #@! TO.N,GND*
X98270000Y-133350000D03*
D23*
G04 #@! TO.P,J9,1*
G04 #@! TO.N,GND*
X139192000Y-88138000D03*
D22*
G04 #@! TO.P,J9,2*
G04 #@! TO.N,/SWITCH_E*
X139192000Y-90138000D03*
G04 #@! TO.P,J9,3*
G04 #@! TO.N,/SWITCH_D*
X139192000Y-92138000D03*
G04 #@! TO.P,J9,4*
G04 #@! TO.N,/SWITCH_C*
X139192000Y-94138000D03*
G04 #@! TO.P,J9,5*
G04 #@! TO.N,/SWITCH_B*
X139192000Y-96138000D03*
G04 #@! TO.P,J9,6*
G04 #@! TO.N,/SWITCH_A*
X139192000Y-98138000D03*
G04 #@! TD*
D15*
G04 #@! TO.P,J17,2*
G04 #@! TO.N,Net-(C15-Pad1)*
X60960000Y-85598000D03*
D14*
G04 #@! TO.P,J17,1*
G04 #@! TO.N,+5V*
X63500000Y-85598000D03*
G04 #@! TD*
G04 #@! TO.P,J18,1*
G04 #@! TO.N,Net-(J18-Pad1)*
X63500000Y-96266000D03*
D15*
G04 #@! TO.P,J18,2*
G04 #@! TO.N,Net-(J18-Pad2)*
X60960000Y-96266000D03*
G04 #@! TD*
D12*
G04 #@! TO.N,GND*
G04 #@! TO.C,D8*
G36*
X82352779Y-61248144D02*
X82375834Y-61251563D01*
X82398443Y-61257227D01*
X82420387Y-61265079D01*
X82441457Y-61275044D01*
X82461448Y-61287026D01*
X82480168Y-61300910D01*
X82497438Y-61316562D01*
X82513090Y-61333832D01*
X82526974Y-61352552D01*
X82538956Y-61372543D01*
X82548921Y-61393613D01*
X82556773Y-61415557D01*
X82562437Y-61438166D01*
X82565856Y-61461221D01*
X82567000Y-61484500D01*
X82567000Y-61959500D01*
X82565856Y-61982779D01*
X82562437Y-62005834D01*
X82556773Y-62028443D01*
X82548921Y-62050387D01*
X82538956Y-62071457D01*
X82526974Y-62091448D01*
X82513090Y-62110168D01*
X82497438Y-62127438D01*
X82480168Y-62143090D01*
X82461448Y-62156974D01*
X82441457Y-62168956D01*
X82420387Y-62178921D01*
X82398443Y-62186773D01*
X82375834Y-62192437D01*
X82352779Y-62195856D01*
X82329500Y-62197000D01*
X81754500Y-62197000D01*
X81731221Y-62195856D01*
X81708166Y-62192437D01*
X81685557Y-62186773D01*
X81663613Y-62178921D01*
X81642543Y-62168956D01*
X81622552Y-62156974D01*
X81603832Y-62143090D01*
X81586562Y-62127438D01*
X81570910Y-62110168D01*
X81557026Y-62091448D01*
X81545044Y-62071457D01*
X81535079Y-62050387D01*
X81527227Y-62028443D01*
X81521563Y-62005834D01*
X81518144Y-61982779D01*
X81517000Y-61959500D01*
X81517000Y-61484500D01*
X81518144Y-61461221D01*
X81521563Y-61438166D01*
X81527227Y-61415557D01*
X81535079Y-61393613D01*
X81545044Y-61372543D01*
X81557026Y-61352552D01*
X81570910Y-61333832D01*
X81586562Y-61316562D01*
X81603832Y-61300910D01*
X81622552Y-61287026D01*
X81642543Y-61275044D01*
X81663613Y-61265079D01*
X81685557Y-61257227D01*
X81708166Y-61251563D01*
X81731221Y-61248144D01*
X81754500Y-61247000D01*
X82329500Y-61247000D01*
X82352779Y-61248144D01*
X82352779Y-61248144D01*
G37*
D13*
G04 #@! TD*
G04 #@! TO.P,D8,1*
G04 #@! TO.N,GND*
X82042000Y-61722000D03*
D12*
G04 #@! TO.N,Net-(D8-Pad2)*
G04 #@! TO.C,D8*
G36*
X84102779Y-61248144D02*
X84125834Y-61251563D01*
X84148443Y-61257227D01*
X84170387Y-61265079D01*
X84191457Y-61275044D01*
X84211448Y-61287026D01*
X84230168Y-61300910D01*
X84247438Y-61316562D01*
X84263090Y-61333832D01*
X84276974Y-61352552D01*
X84288956Y-61372543D01*
X84298921Y-61393613D01*
X84306773Y-61415557D01*
X84312437Y-61438166D01*
X84315856Y-61461221D01*
X84317000Y-61484500D01*
X84317000Y-61959500D01*
X84315856Y-61982779D01*
X84312437Y-62005834D01*
X84306773Y-62028443D01*
X84298921Y-62050387D01*
X84288956Y-62071457D01*
X84276974Y-62091448D01*
X84263090Y-62110168D01*
X84247438Y-62127438D01*
X84230168Y-62143090D01*
X84211448Y-62156974D01*
X84191457Y-62168956D01*
X84170387Y-62178921D01*
X84148443Y-62186773D01*
X84125834Y-62192437D01*
X84102779Y-62195856D01*
X84079500Y-62197000D01*
X83504500Y-62197000D01*
X83481221Y-62195856D01*
X83458166Y-62192437D01*
X83435557Y-62186773D01*
X83413613Y-62178921D01*
X83392543Y-62168956D01*
X83372552Y-62156974D01*
X83353832Y-62143090D01*
X83336562Y-62127438D01*
X83320910Y-62110168D01*
X83307026Y-62091448D01*
X83295044Y-62071457D01*
X83285079Y-62050387D01*
X83277227Y-62028443D01*
X83271563Y-62005834D01*
X83268144Y-61982779D01*
X83267000Y-61959500D01*
X83267000Y-61484500D01*
X83268144Y-61461221D01*
X83271563Y-61438166D01*
X83277227Y-61415557D01*
X83285079Y-61393613D01*
X83295044Y-61372543D01*
X83307026Y-61352552D01*
X83320910Y-61333832D01*
X83336562Y-61316562D01*
X83353832Y-61300910D01*
X83372552Y-61287026D01*
X83392543Y-61275044D01*
X83413613Y-61265079D01*
X83435557Y-61257227D01*
X83458166Y-61251563D01*
X83481221Y-61248144D01*
X83504500Y-61247000D01*
X84079500Y-61247000D01*
X84102779Y-61248144D01*
X84102779Y-61248144D01*
G37*
D13*
G04 #@! TD*
G04 #@! TO.P,D8,2*
G04 #@! TO.N,Net-(D8-Pad2)*
X83792000Y-61722000D03*
D12*
G04 #@! TO.N,+5V*
G04 #@! TO.C,R6*
G36*
X90452779Y-61248144D02*
X90475834Y-61251563D01*
X90498443Y-61257227D01*
X90520387Y-61265079D01*
X90541457Y-61275044D01*
X90561448Y-61287026D01*
X90580168Y-61300910D01*
X90597438Y-61316562D01*
X90613090Y-61333832D01*
X90626974Y-61352552D01*
X90638956Y-61372543D01*
X90648921Y-61393613D01*
X90656773Y-61415557D01*
X90662437Y-61438166D01*
X90665856Y-61461221D01*
X90667000Y-61484500D01*
X90667000Y-61959500D01*
X90665856Y-61982779D01*
X90662437Y-62005834D01*
X90656773Y-62028443D01*
X90648921Y-62050387D01*
X90638956Y-62071457D01*
X90626974Y-62091448D01*
X90613090Y-62110168D01*
X90597438Y-62127438D01*
X90580168Y-62143090D01*
X90561448Y-62156974D01*
X90541457Y-62168956D01*
X90520387Y-62178921D01*
X90498443Y-62186773D01*
X90475834Y-62192437D01*
X90452779Y-62195856D01*
X90429500Y-62197000D01*
X89854500Y-62197000D01*
X89831221Y-62195856D01*
X89808166Y-62192437D01*
X89785557Y-62186773D01*
X89763613Y-62178921D01*
X89742543Y-62168956D01*
X89722552Y-62156974D01*
X89703832Y-62143090D01*
X89686562Y-62127438D01*
X89670910Y-62110168D01*
X89657026Y-62091448D01*
X89645044Y-62071457D01*
X89635079Y-62050387D01*
X89627227Y-62028443D01*
X89621563Y-62005834D01*
X89618144Y-61982779D01*
X89617000Y-61959500D01*
X89617000Y-61484500D01*
X89618144Y-61461221D01*
X89621563Y-61438166D01*
X89627227Y-61415557D01*
X89635079Y-61393613D01*
X89645044Y-61372543D01*
X89657026Y-61352552D01*
X89670910Y-61333832D01*
X89686562Y-61316562D01*
X89703832Y-61300910D01*
X89722552Y-61287026D01*
X89742543Y-61275044D01*
X89763613Y-61265079D01*
X89785557Y-61257227D01*
X89808166Y-61251563D01*
X89831221Y-61248144D01*
X89854500Y-61247000D01*
X90429500Y-61247000D01*
X90452779Y-61248144D01*
X90452779Y-61248144D01*
G37*
D13*
G04 #@! TD*
G04 #@! TO.P,R6,2*
G04 #@! TO.N,+5V*
X90142000Y-61722000D03*
D12*
G04 #@! TO.N,Net-(D8-Pad2)*
G04 #@! TO.C,R6*
G36*
X88702779Y-61248144D02*
X88725834Y-61251563D01*
X88748443Y-61257227D01*
X88770387Y-61265079D01*
X88791457Y-61275044D01*
X88811448Y-61287026D01*
X88830168Y-61300910D01*
X88847438Y-61316562D01*
X88863090Y-61333832D01*
X88876974Y-61352552D01*
X88888956Y-61372543D01*
X88898921Y-61393613D01*
X88906773Y-61415557D01*
X88912437Y-61438166D01*
X88915856Y-61461221D01*
X88917000Y-61484500D01*
X88917000Y-61959500D01*
X88915856Y-61982779D01*
X88912437Y-62005834D01*
X88906773Y-62028443D01*
X88898921Y-62050387D01*
X88888956Y-62071457D01*
X88876974Y-62091448D01*
X88863090Y-62110168D01*
X88847438Y-62127438D01*
X88830168Y-62143090D01*
X88811448Y-62156974D01*
X88791457Y-62168956D01*
X88770387Y-62178921D01*
X88748443Y-62186773D01*
X88725834Y-62192437D01*
X88702779Y-62195856D01*
X88679500Y-62197000D01*
X88104500Y-62197000D01*
X88081221Y-62195856D01*
X88058166Y-62192437D01*
X88035557Y-62186773D01*
X88013613Y-62178921D01*
X87992543Y-62168956D01*
X87972552Y-62156974D01*
X87953832Y-62143090D01*
X87936562Y-62127438D01*
X87920910Y-62110168D01*
X87907026Y-62091448D01*
X87895044Y-62071457D01*
X87885079Y-62050387D01*
X87877227Y-62028443D01*
X87871563Y-62005834D01*
X87868144Y-61982779D01*
X87867000Y-61959500D01*
X87867000Y-61484500D01*
X87868144Y-61461221D01*
X87871563Y-61438166D01*
X87877227Y-61415557D01*
X87885079Y-61393613D01*
X87895044Y-61372543D01*
X87907026Y-61352552D01*
X87920910Y-61333832D01*
X87936562Y-61316562D01*
X87953832Y-61300910D01*
X87972552Y-61287026D01*
X87992543Y-61275044D01*
X88013613Y-61265079D01*
X88035557Y-61257227D01*
X88058166Y-61251563D01*
X88081221Y-61248144D01*
X88104500Y-61247000D01*
X88679500Y-61247000D01*
X88702779Y-61248144D01*
X88702779Y-61248144D01*
G37*
D13*
G04 #@! TD*
G04 #@! TO.P,R6,1*
G04 #@! TO.N,Net-(D8-Pad2)*
X88392000Y-61722000D03*
D27*
G04 #@! TO.N,GND*
X114397790Y-71159038D03*
X155194000Y-78486000D03*
X82042000Y-61722000D03*
X102870000Y-121666000D03*
X98298000Y-133350000D03*
X43688000Y-93218000D03*
X43688000Y-90170000D03*
X50038000Y-94858000D03*
X49138000Y-94858000D03*
X50038000Y-95758000D03*
X48238000Y-94858000D03*
X49138000Y-95758000D03*
X48238000Y-95758000D03*
X94488000Y-134493000D03*
X87630000Y-118110000D03*
X87376000Y-111506000D03*
X87376000Y-114808000D03*
X83820000Y-123444000D03*
X78994000Y-138176000D03*
X79248000Y-133096000D03*
X93980000Y-107315000D03*
X97282000Y-107315000D03*
X100838000Y-107315000D03*
X109982000Y-109601000D03*
X87122000Y-70231000D03*
X79248000Y-123571000D03*
X114427000Y-106426000D03*
X114427000Y-121666000D03*
X94835109Y-140208000D03*
X114681000Y-98425000D03*
X114808000Y-113538000D03*
X94615000Y-129159000D03*
X94488000Y-132715000D03*
X102108000Y-134747000D03*
X101473000Y-131064000D03*
X122428000Y-124460000D03*
X118618000Y-126746000D03*
X98298000Y-136398000D03*
X81026000Y-152146000D03*
X94234000Y-151892000D03*
X92075000Y-79756000D03*
G04 #@! TO.N,+3V3*
X161798000Y-78486000D03*
X92202000Y-83566000D03*
X92202000Y-77978000D03*
X100330000Y-90932000D03*
X107442000Y-90932000D03*
X50038000Y-93472000D03*
X56388000Y-94234000D03*
X109855000Y-128143000D03*
X79502000Y-130175000D03*
X114427000Y-104281000D03*
X114427000Y-119521000D03*
X94488000Y-136271000D03*
X96393000Y-136271000D03*
X102108000Y-136525000D03*
X101473000Y-129286000D03*
X96266000Y-129159000D03*
X94488000Y-130937000D03*
X122428000Y-122682000D03*
X120396000Y-126746000D03*
X115824000Y-124841000D03*
X55488000Y-94234000D03*
X54588000Y-94234000D03*
X56388000Y-93334000D03*
X55488000Y-93334000D03*
X54588000Y-93334000D03*
X56388000Y-92434000D03*
X55488000Y-92434000D03*
X54588000Y-92434000D03*
X56388000Y-91534000D03*
X55488000Y-91534000D03*
X54588000Y-91534000D03*
X49138000Y-93472000D03*
X48238000Y-93472000D03*
X50038000Y-92572000D03*
X49138000Y-92572000D03*
X48238000Y-92572000D03*
X102362000Y-82550000D03*
G04 #@! TO.N,/NRST*
X86868000Y-131826000D03*
X96520000Y-133350000D03*
X91694000Y-146050000D03*
X83566000Y-146050000D03*
G04 #@! TO.N,/JTDO*
X99822000Y-136652000D03*
X106426000Y-135636000D03*
G04 #@! TO.N,+48V*
X123190000Y-106426000D03*
G04 #@! TO.N,/HIH_SCL*
X104394000Y-98298000D03*
X103886000Y-94234000D03*
G04 #@! TO.N,/HIH_SDA*
X105119000Y-97282000D03*
X104906653Y-94229347D03*
G04 #@! TO.N,/SWITCH_A*
X121666000Y-105410000D03*
X100833347Y-124455347D03*
G04 #@! TO.N,/SWITCH_B*
X122174000Y-104394000D03*
X103632000Y-124714000D03*
G04 #@! TO.N,/3.3V_MEASURE*
X84328000Y-127254000D03*
X86614000Y-129794000D03*
G04 #@! TO.N,/5V_MEASURE*
X89662000Y-132326942D03*
G04 #@! TO.N,/48V_MEASURE*
X90424000Y-131318000D03*
X110744000Y-111252000D03*
G04 #@! TO.N,Net-(P1-Pad33)*
X80913000Y-111633000D03*
G04 #@! TO.N,Net-(P1-Pad35)*
X80913000Y-114808000D03*
G04 #@! TO.N,Net-(P1-Pad37)*
X80913000Y-117983000D03*
G04 #@! TO.N,/MISC_RE*
X87894735Y-129021265D03*
X90795696Y-137438305D03*
G04 #@! TO.N,/MISC_DE*
X88392000Y-128016000D03*
X89685678Y-137691678D03*
G04 #@! TO.N,/ODROID_RX*
X77216000Y-91694000D03*
X89408000Y-127508000D03*
G04 #@! TO.N,/ODROID_TX*
X75692000Y-88646000D03*
X90424000Y-127508000D03*
G04 #@! TO.N,/ICM_SDA*
X113284000Y-124968000D03*
X106934000Y-128778000D03*
G04 #@! TO.N,/ICM_SCL*
X113247000Y-125967317D03*
X107696000Y-122301000D03*
G04 #@! TO.N,/MISC_TX*
X106172000Y-125730000D03*
X101854000Y-142748000D03*
G04 #@! TO.N,/MISC_RX*
X100785109Y-142748000D03*
X106929347Y-127512653D03*
G04 #@! TO.N,/SWITCH_E*
X99514753Y-132343553D03*
X122174000Y-101600000D03*
G04 #@! TO.N,/SWITCH_D*
X99414253Y-131217747D03*
X122174000Y-102616000D03*
G04 #@! TO.N,/SWITCH_C*
X121579357Y-103545357D03*
X102620653Y-124718653D03*
G04 #@! TO.N,/24V_MEASURE*
X107950000Y-94488000D03*
X103124000Y-109982000D03*
G04 #@! TD*
D28*
G04 #@! TO.N,+3V3*
X111760000Y-128115000D02*
X109883000Y-128115000D01*
X109883000Y-128115000D02*
X109855000Y-128143000D01*
G04 #@! TO.N,/NRST*
X106208999Y-143473001D02*
X95213001Y-143473001D01*
X113538000Y-136144000D02*
X106208999Y-143473001D01*
X95213001Y-143473001D02*
X91440000Y-139700000D01*
X91440000Y-139700000D02*
X89916000Y-139700000D01*
X86868000Y-136652000D02*
X86868000Y-131826000D01*
X89916000Y-139700000D02*
X86868000Y-136652000D01*
X95213001Y-143473001D02*
X94270999Y-143473001D01*
X94270999Y-143473001D02*
X91694000Y-146050000D01*
X91694000Y-146050000D02*
X83566000Y-146050000D01*
G04 #@! TO.N,/JTDO*
X104902000Y-135636000D02*
X102616000Y-133350000D01*
X102616000Y-133350000D02*
X100838000Y-133350000D01*
X100838000Y-133350000D02*
X99822000Y-134366000D01*
X99822000Y-134366000D02*
X99822000Y-136652000D01*
X104902000Y-135636000D02*
X106426000Y-135636000D01*
D29*
G04 #@! TO.N,+48V*
X116994000Y-57450000D02*
X116994000Y-57150000D01*
X116994000Y-73216002D02*
X116994000Y-57150000D01*
X121412000Y-77634002D02*
X116994000Y-73216002D01*
X122263998Y-78486000D02*
X121412000Y-77634002D01*
X121944000Y-116967000D02*
X120269000Y-116967000D01*
X123317000Y-115594000D02*
X121944000Y-116967000D01*
X121412000Y-77634002D02*
X123317000Y-79539002D01*
X123317000Y-96393000D02*
X123317000Y-115594000D01*
X121944000Y-99187000D02*
X120269000Y-99187000D01*
X123317000Y-97814000D02*
X121944000Y-99187000D01*
X123317000Y-96393000D02*
X123317000Y-97814000D01*
X123317000Y-79539002D02*
X123317000Y-96393000D01*
D28*
G04 #@! TO.N,/HIH_SCL*
X104394000Y-98298000D02*
X104394000Y-94742000D01*
X104394000Y-94742000D02*
X103886000Y-94234000D01*
G04 #@! TO.N,/HIH_SDA*
X104844010Y-96441325D02*
X104844009Y-94564905D01*
X105119000Y-97282000D02*
X105119000Y-96716315D01*
X105119000Y-96716315D02*
X104844010Y-96441325D01*
X104844009Y-94564905D02*
X104844009Y-94291991D01*
X104844009Y-94291991D02*
X104906653Y-94229347D01*
G04 #@! TO.N,/SWITCH_A*
X105236030Y-121161504D02*
X120987534Y-105410000D01*
X120987534Y-105410000D02*
X121666000Y-105410000D01*
X101821654Y-125443654D02*
X104172346Y-125443654D01*
X100833347Y-124455347D02*
X101821654Y-125443654D01*
X105236030Y-121161504D02*
X105236030Y-124913370D01*
X105236030Y-124913370D02*
X104698800Y-125450600D01*
X104698800Y-125450600D02*
X104089200Y-125450600D01*
G04 #@! TO.N,/SWITCH_B*
X104786020Y-120975104D02*
X121367124Y-104394000D01*
X121367124Y-104394000D02*
X122174000Y-104394000D01*
X103632000Y-124714000D02*
X104786020Y-123559980D01*
X104786020Y-122047000D02*
X104786020Y-123559980D01*
X104786020Y-122047000D02*
X104786020Y-120975104D01*
X104786020Y-122095802D02*
X104786020Y-122047000D01*
X104786020Y-123559980D02*
X104775000Y-123571000D01*
G04 #@! TO.N,/3.3V_MEASURE*
X84328000Y-127254000D02*
X86614000Y-129540000D01*
X86614000Y-129540000D02*
X86614000Y-129794000D01*
G04 #@! TO.N,/5V_MEASURE*
X83312000Y-70231000D02*
X82282000Y-70231000D01*
X84977000Y-70231000D02*
X83312000Y-70231000D01*
X83058000Y-70485000D02*
X83312000Y-70231000D01*
X83058000Y-95375590D02*
X83058000Y-70485000D01*
X91149001Y-103466591D02*
X83058000Y-95375590D01*
X91149001Y-127856001D02*
X91149001Y-103466591D01*
X89662000Y-132326942D02*
X89662000Y-129343002D01*
X89662000Y-129343002D02*
X91149001Y-127856001D01*
D30*
G04 #@! TO.N,+5V*
X108594000Y-61800000D02*
X104608000Y-65786000D01*
X108594000Y-57150000D02*
X108594000Y-61800000D01*
X104608000Y-65786000D02*
X72134371Y-65786001D01*
X67957999Y-77123999D02*
X70888000Y-80054000D01*
X67957999Y-69962373D02*
X67957999Y-77123999D01*
X72134371Y-65786001D02*
X67957999Y-69962373D01*
X70888000Y-77514000D02*
X70888000Y-80054000D01*
X68348000Y-77514000D02*
X67957999Y-77123999D01*
X70888000Y-77514000D02*
X68348000Y-77514000D01*
D28*
X76579370Y-70231000D02*
X72134371Y-65786001D01*
X80532000Y-70231000D02*
X76579370Y-70231000D01*
D31*
X63500000Y-85598000D02*
X63500000Y-82748000D01*
D30*
X63500000Y-82748000D02*
X63500000Y-74422000D01*
X63500000Y-74422000D02*
X68580000Y-69342000D01*
D28*
X90142000Y-61722000D02*
X93952000Y-65532000D01*
X93952000Y-65532000D02*
X94234000Y-65532000D01*
G04 #@! TO.N,/48V_MEASURE*
X90823999Y-128817413D02*
X91694000Y-127947412D01*
X90424000Y-131318000D02*
X90823999Y-130918001D01*
X90823999Y-130918001D02*
X90823999Y-128817413D01*
X91694000Y-127947412D02*
X91694000Y-116586000D01*
X91694000Y-116586000D02*
X97028000Y-111252000D01*
X97028000Y-111252000D02*
X110744000Y-111252000D01*
G04 #@! TO.N,Net-(P1-Pad33)*
X73428000Y-118154000D02*
X79949000Y-111633000D01*
X79949000Y-111633000D02*
X80913000Y-111633000D01*
G04 #@! TO.N,Net-(P1-Pad35)*
X73428000Y-120694000D02*
X75027000Y-120694000D01*
X75027000Y-120694000D02*
X80913000Y-114808000D01*
G04 #@! TO.N,Net-(P1-Pad37)*
X73428000Y-123234000D02*
X75662000Y-123234000D01*
X75662000Y-123234000D02*
X80913000Y-117983000D01*
G04 #@! TO.N,/MISC_RE*
X87894735Y-129586950D02*
X88138000Y-129830215D01*
X87894735Y-129021265D02*
X87894735Y-129586950D01*
X90795696Y-137654662D02*
X90795696Y-137438305D01*
X90033679Y-138416679D02*
X90795696Y-137654662D01*
X89337677Y-138416679D02*
X90033679Y-138416679D01*
X88138000Y-129830215D02*
X88138000Y-137217002D01*
X88138000Y-137217002D02*
X89337677Y-138416679D01*
G04 #@! TO.N,/MISC_DE*
X88791999Y-136797999D02*
X89685678Y-137691678D01*
X88392000Y-128016000D02*
X88791999Y-128415999D01*
X88791999Y-128415999D02*
X88791999Y-136797999D01*
G04 #@! TO.N,/ODROID_RX*
X89408000Y-103886000D02*
X77216000Y-91694000D01*
X89408000Y-127508000D02*
X89408000Y-103886000D01*
G04 #@! TO.N,/ODROID_TX*
X75692000Y-88646000D02*
X90424000Y-103378000D01*
X90424000Y-103378000D02*
X90424000Y-127508000D01*
G04 #@! TO.N,/ICM_SDA*
X105446999Y-127290999D02*
X106934000Y-128778000D01*
X105446999Y-125381999D02*
X105446999Y-127290999D01*
X113284000Y-124968000D02*
X105860998Y-124968000D01*
X105860998Y-124968000D02*
X105446999Y-125381999D01*
X109855000Y-126365000D02*
X109855000Y-124968000D01*
G04 #@! TO.N,/ICM_SCL*
X113357685Y-125967317D02*
X113247000Y-125967317D01*
X112335000Y-126365000D02*
X112716000Y-125984000D01*
X111760000Y-126365000D02*
X112335000Y-126365000D01*
X112716000Y-125984000D02*
X113341002Y-125984000D01*
X107696000Y-122301000D02*
X112141000Y-122301000D01*
X114009001Y-124169001D02*
X114009001Y-125316001D01*
X112141000Y-122301000D02*
X114009001Y-124169001D01*
X114009001Y-125316001D02*
X113341002Y-125984000D01*
G04 #@! TO.N,/MISC_TX*
X106172000Y-125730000D02*
X108458000Y-128016000D01*
X108458000Y-128016000D02*
X108458000Y-136144000D01*
X108458000Y-136144000D02*
X101854000Y-142748000D01*
G04 #@! TO.N,/MISC_RX*
X107659001Y-135874108D02*
X100785109Y-142748000D01*
X107659001Y-128242307D02*
X107659001Y-135874108D01*
X107659001Y-128242307D02*
X106929347Y-127512653D01*
D32*
G04 #@! TO.N,Net-(C15-Pad1)*
X54356000Y-76708000D02*
X56642000Y-76708000D01*
D30*
X56642000Y-76708000D02*
X58420000Y-78486000D01*
X58420000Y-78486000D02*
X58928000Y-78994000D01*
X58928000Y-78994000D02*
X58928000Y-83820000D01*
X58928000Y-83820000D02*
X60706000Y-85598000D01*
D28*
G04 #@! TO.N,/SWITCH_E*
X99514753Y-132343553D02*
X98515001Y-131343801D01*
X121862998Y-101600000D02*
X122174000Y-101600000D01*
X98515001Y-131343801D02*
X98515001Y-124947997D01*
X98515001Y-124947997D02*
X121862998Y-101600000D01*
G04 #@! TO.N,/SWITCH_D*
X99414253Y-131217747D02*
X98965011Y-130768505D01*
X98965011Y-130768505D02*
X98965011Y-125134397D01*
X98965011Y-125134397D02*
X101671408Y-122428000D01*
X103886000Y-121723002D02*
X103886000Y-120213408D01*
X101671408Y-122428000D02*
X103181002Y-122428000D01*
X103181002Y-122428000D02*
X103886000Y-121723002D01*
X103886000Y-120213408D02*
X121483408Y-102616000D01*
X121483408Y-102616000D02*
X122174000Y-102616000D01*
G04 #@! TO.N,/SWITCH_C*
X102616000Y-123629412D02*
X104336010Y-121909402D01*
X104336010Y-121909402D02*
X104336010Y-120788704D01*
X104336010Y-120788704D02*
X121579357Y-103545357D01*
X102620653Y-124718653D02*
X102620653Y-123702653D01*
X102620653Y-123702653D02*
X102616000Y-123698000D01*
G04 #@! TO.N,Net-(D8-Pad2)*
X83792000Y-61722000D02*
X88392000Y-61722000D01*
G04 #@! TO.N,/24V_MEASURE*
X103124000Y-109728000D02*
X103124000Y-109982000D01*
X107950000Y-94488000D02*
X107950000Y-104902000D01*
X107950000Y-104902000D02*
X103124000Y-109728000D01*
G04 #@! TD*
M02*
