G04 #@! TF.GenerationSoftware,KiCad,Pcbnew,(5.0.0)*
G04 #@! TF.CreationDate,2019-02-05T19:54:50-05:00*
G04 #@! TF.ProjectId,control board,636F6E74726F6C20626F6172642E6B69,rev?*
G04 #@! TF.SameCoordinates,Original*
G04 #@! TF.FileFunction,Copper,L2,Inr,Signal*
G04 #@! TF.FilePolarity,Positive*
%FSLAX46Y46*%
G04 Gerber Fmt 4.6, Leading zero omitted, Abs format (unit mm)*
G04 Created by KiCad (PCBNEW (5.0.0)) date 02/05/19 19:54:50*
%MOMM*%
%LPD*%
G01*
G04 APERTURE LIST*
G04 #@! TA.AperFunction,ViaPad*
%ADD10R,1.700000X1.700000*%
G04 #@! TD*
G04 #@! TA.AperFunction,ViaPad*
%ADD11O,1.700000X1.700000*%
G04 #@! TD*
G04 #@! TA.AperFunction,ViaPad*
%ADD12C,5.000000*%
G04 #@! TD*
G04 #@! TA.AperFunction,ViaPad*
%ADD13R,1.524000X1.524000*%
G04 #@! TD*
G04 #@! TA.AperFunction,ViaPad*
%ADD14C,1.524000*%
G04 #@! TD*
G04 #@! TA.AperFunction,ViaPad*
%ADD15R,2.700000X3.300000*%
G04 #@! TD*
G04 #@! TA.AperFunction,ViaPad*
%ADD16O,2.700000X3.300000*%
G04 #@! TD*
G04 #@! TA.AperFunction,ViaPad*
%ADD17C,1.500000*%
G04 #@! TD*
G04 #@! TA.AperFunction,ViaPad*
%ADD18C,1.350000*%
G04 #@! TD*
G04 #@! TA.AperFunction,ViaPad*
%ADD19R,1.350000X1.350000*%
G04 #@! TD*
G04 #@! TA.AperFunction,ViaPad*
%ADD20C,6.400000*%
G04 #@! TD*
G04 #@! TA.AperFunction,ViaPad*
%ADD21C,1.700000*%
G04 #@! TD*
G04 #@! TA.AperFunction,ViaPad*
%ADD22C,3.500000*%
G04 #@! TD*
G04 #@! TA.AperFunction,ViaPad*
%ADD23C,0.800000*%
G04 #@! TD*
G04 #@! TA.AperFunction,Conductor*
%ADD24C,0.254000*%
G04 #@! TD*
G04 APERTURE END LIST*
D10*
G04 #@! TO.N,GND*
G04 #@! TO.C,J1*
X99568000Y-119126000D03*
D11*
G04 #@! TO.N,Net-(J1-Pad2)*
X99568000Y-121666000D03*
G04 #@! TD*
D10*
G04 #@! TO.N,+3V3*
G04 #@! TO.C,J2*
X113538000Y-145796000D03*
D11*
G04 #@! TO.N,/SWCLK*
X113538000Y-143256000D03*
G04 #@! TO.N,GND*
X113538000Y-140716000D03*
G04 #@! TO.N,/SWDIO*
X113538000Y-138176000D03*
G04 #@! TO.N,/NRST*
X113538000Y-135636000D03*
G04 #@! TO.N,/JTDO*
X113538000Y-133096000D03*
G04 #@! TD*
D12*
G04 #@! TO.N,*
G04 #@! TO.C,P1*
X121158000Y-130644000D03*
X121158000Y-72644000D03*
X72158000Y-72644000D03*
X72158000Y-130644000D03*
D13*
G04 #@! TO.N,Net-(P1-Pad1)*
X73428000Y-77514000D03*
D14*
G04 #@! TO.N,+5V*
X70888000Y-77514000D03*
G04 #@! TO.N,Net-(P1-Pad3)*
X73428000Y-80054000D03*
G04 #@! TO.N,+5V*
X70888000Y-80054000D03*
G04 #@! TO.N,Net-(P1-Pad5)*
X73428000Y-82594000D03*
G04 #@! TO.N,GND*
X70888000Y-82594000D03*
G04 #@! TO.N,/STM_RESET*
X73428000Y-85134000D03*
G04 #@! TO.N,/ODROID_TX*
X70888000Y-85134000D03*
G04 #@! TO.N,GND*
X73428000Y-87674000D03*
G04 #@! TO.N,/ODROID_RX*
X70888000Y-87674000D03*
G04 #@! TO.N,Net-(P1-Pad11)*
X73428000Y-90214000D03*
G04 #@! TO.N,Net-(P1-Pad12)*
X70888000Y-90214000D03*
G04 #@! TO.N,Net-(P1-Pad13)*
X73428000Y-92754000D03*
G04 #@! TO.N,GND*
X70888000Y-92754000D03*
G04 #@! TO.N,Net-(P1-Pad15)*
X73428000Y-95294000D03*
G04 #@! TO.N,Net-(P1-Pad16)*
X70888000Y-95294000D03*
G04 #@! TO.N,Net-(P1-Pad17)*
X73428000Y-97834000D03*
G04 #@! TO.N,Net-(P1-Pad18)*
X70888000Y-97834000D03*
G04 #@! TO.N,Net-(P1-Pad19)*
X73428000Y-100374000D03*
G04 #@! TO.N,GND*
X70888000Y-100374000D03*
G04 #@! TO.N,Net-(P1-Pad21)*
X73428000Y-102914000D03*
G04 #@! TO.N,Net-(P1-Pad22)*
X70888000Y-102914000D03*
G04 #@! TO.N,Net-(P1-Pad23)*
X73428000Y-105454000D03*
G04 #@! TO.N,Net-(P1-Pad24)*
X70888000Y-105454000D03*
G04 #@! TO.N,GND*
X73428000Y-107994000D03*
G04 #@! TO.N,Net-(P1-Pad26)*
X70888000Y-107994000D03*
G04 #@! TO.N,Net-(P1-Pad27)*
X73428000Y-110534000D03*
G04 #@! TO.N,Net-(P1-Pad28)*
X70888000Y-110534000D03*
G04 #@! TO.N,Net-(P1-Pad29)*
X73428000Y-113074000D03*
G04 #@! TO.N,GND*
X70888000Y-113074000D03*
G04 #@! TO.N,Net-(P1-Pad31)*
X73428000Y-115614000D03*
G04 #@! TO.N,Net-(P1-Pad32)*
X70888000Y-115614000D03*
G04 #@! TO.N,Net-(P1-Pad33)*
X73428000Y-118154000D03*
G04 #@! TO.N,GND*
X70888000Y-118154000D03*
G04 #@! TO.N,Net-(P1-Pad35)*
X73428000Y-120694000D03*
G04 #@! TO.N,Net-(P1-Pad36)*
X70888000Y-120694000D03*
G04 #@! TO.N,Net-(P1-Pad37)*
X73428000Y-123234000D03*
G04 #@! TO.N,Net-(P1-Pad38)*
X70888000Y-123234000D03*
G04 #@! TO.N,GND*
X73428000Y-125774000D03*
G04 #@! TO.N,Net-(P1-Pad40)*
X70888000Y-125774000D03*
G04 #@! TD*
D15*
G04 #@! TO.N,GND*
G04 #@! TO.C,J7*
X104394000Y-51650000D03*
D16*
X108594000Y-51650000D03*
X112794000Y-51650000D03*
X116994000Y-51650000D03*
G04 #@! TO.N,+3V3*
X104394000Y-57150000D03*
G04 #@! TO.N,+5V*
X108594000Y-57150000D03*
G04 #@! TO.N,+24V*
X112794000Y-57150000D03*
G04 #@! TO.N,+48V*
X116994000Y-57150000D03*
G04 #@! TD*
D17*
G04 #@! TO.N,Net-(C2-Pad1)*
G04 #@! TO.C,Y1*
X85344000Y-137922000D03*
G04 #@! TO.N,Net-(C3-Pad1)*
X85344000Y-133042000D03*
G04 #@! TD*
D18*
G04 #@! TO.N,GND*
G04 #@! TO.C,J4*
X120269000Y-110967000D03*
G04 #@! TO.N,Net-(J4-Pad3)*
X120269000Y-112967000D03*
G04 #@! TO.N,Net-(J4-Pad2)*
X120269000Y-114967000D03*
D19*
G04 #@! TO.N,+48V*
X120269000Y-116967000D03*
G04 #@! TD*
G04 #@! TO.N,+48V*
G04 #@! TO.C,J6*
X120269000Y-99187000D03*
D18*
G04 #@! TO.N,Net-(J6-Pad2)*
X120269000Y-97187000D03*
G04 #@! TO.N,Net-(J6-Pad3)*
X120269000Y-95187000D03*
G04 #@! TO.N,GND*
X120269000Y-93187000D03*
G04 #@! TD*
G04 #@! TO.N,/MOTOR_1*
G04 #@! TO.C,J5*
X155893000Y-127762000D03*
G04 #@! TO.N,Net-(J5-Pad2)*
X157893000Y-127762000D03*
D19*
G04 #@! TO.N,GND*
X159893000Y-127762000D03*
G04 #@! TD*
G04 #@! TO.N,GND*
G04 #@! TO.C,J10*
X159893000Y-122555000D03*
D18*
G04 #@! TO.N,Net-(J10-Pad2)*
X157893000Y-122555000D03*
G04 #@! TO.N,/MOTOR_2*
X155893000Y-122555000D03*
G04 #@! TD*
G04 #@! TO.N,/MOTOR_3*
G04 #@! TO.C,J11*
X155893000Y-117348000D03*
G04 #@! TO.N,Net-(J11-Pad2)*
X157893000Y-117348000D03*
D19*
G04 #@! TO.N,GND*
X159893000Y-117348000D03*
G04 #@! TD*
G04 #@! TO.N,GND*
G04 #@! TO.C,J12*
X159893000Y-112141000D03*
D18*
G04 #@! TO.N,Net-(J12-Pad2)*
X157893000Y-112141000D03*
G04 #@! TO.N,/MOTOR_4*
X155893000Y-112141000D03*
G04 #@! TD*
G04 #@! TO.N,/MOTOR_5*
G04 #@! TO.C,J13*
X155893000Y-106934000D03*
G04 #@! TO.N,Net-(J13-Pad2)*
X157893000Y-106934000D03*
D19*
G04 #@! TO.N,GND*
X159893000Y-106934000D03*
G04 #@! TD*
G04 #@! TO.N,GND*
G04 #@! TO.C,J14*
X159893000Y-101727000D03*
D18*
G04 #@! TO.N,Net-(J14-Pad2)*
X157893000Y-101727000D03*
G04 #@! TO.N,/MOTOR_6*
X155893000Y-101727000D03*
G04 #@! TD*
G04 #@! TO.N,/MOTOR_7*
G04 #@! TO.C,J15*
X155893000Y-96520000D03*
G04 #@! TO.N,Net-(J15-Pad2)*
X157893000Y-96520000D03*
D19*
G04 #@! TO.N,GND*
X159893000Y-96520000D03*
G04 #@! TD*
G04 #@! TO.N,GND*
G04 #@! TO.C,J16*
X159893000Y-91313000D03*
D18*
G04 #@! TO.N,Net-(J16-Pad2)*
X157893000Y-91313000D03*
G04 #@! TO.N,/MOTOR_8*
X155893000Y-91313000D03*
G04 #@! TD*
D20*
G04 #@! TO.N,N/C*
G04 #@! TO.C,REF\002A\002A*
X143510000Y-62738000D03*
G04 #@! TD*
G04 #@! TO.N,N/C*
G04 #@! TO.C,REF\002A\002A*
X60960000Y-62738000D03*
G04 #@! TD*
G04 #@! TO.N,N/C*
G04 #@! TO.C,REF\002A\002A*
X143510000Y-138938000D03*
G04 #@! TD*
G04 #@! TO.N,N/C*
G04 #@! TO.C,REF\002A\002A*
X60960000Y-138938000D03*
G04 #@! TD*
D10*
G04 #@! TO.N,Net-(C15-Pad1)*
G04 #@! TO.C,J3*
X54356000Y-76708000D03*
D21*
G04 #@! TO.N,Net-(J3-Pad2)*
X54356000Y-79208000D03*
G04 #@! TO.N,Net-(J3-Pad3)*
X52356000Y-79208000D03*
G04 #@! TO.N,GND*
X52356000Y-76708000D03*
D22*
X49646000Y-71938000D03*
X49646000Y-83978000D03*
G04 #@! TD*
D13*
G04 #@! TO.N,GND*
G04 #@! TO.C,J8*
X65024000Y-51054000D03*
D14*
G04 #@! TO.N,+3V3*
X77724000Y-51054000D03*
G04 #@! TD*
D19*
G04 #@! TO.N,GND*
G04 #@! TO.C,J9*
X139192000Y-88138000D03*
D18*
G04 #@! TO.N,/SWITCH_E*
X139192000Y-90138000D03*
G04 #@! TO.N,/SWITCH_D*
X139192000Y-92138000D03*
G04 #@! TO.N,/SWITCH_C*
X139192000Y-94138000D03*
G04 #@! TO.N,/SWITCH_B*
X139192000Y-96138000D03*
G04 #@! TO.N,/SWITCH_A*
X139192000Y-98138000D03*
G04 #@! TD*
D11*
G04 #@! TO.N,Net-(C15-Pad1)*
G04 #@! TO.C,J17*
X60960000Y-85598000D03*
D10*
G04 #@! TO.N,+5V*
X63500000Y-85598000D03*
G04 #@! TD*
G04 #@! TO.N,Net-(J18-Pad1)*
G04 #@! TO.C,J18*
X63500000Y-96266000D03*
D11*
G04 #@! TO.N,Net-(J18-Pad2)*
X60960000Y-96266000D03*
G04 #@! TD*
D23*
G04 #@! TO.N,GND*
X114397790Y-71159038D03*
X155194000Y-78486000D03*
X82042000Y-61722000D03*
X102870000Y-121666000D03*
X98298000Y-133350000D03*
X43688000Y-93218000D03*
X43688000Y-90170000D03*
X50038000Y-94858000D03*
X49138000Y-94858000D03*
X50038000Y-95758000D03*
X48238000Y-94858000D03*
X49138000Y-95758000D03*
X48238000Y-95758000D03*
X94488000Y-134493000D03*
X87630000Y-118110000D03*
X87376000Y-111506000D03*
X87376000Y-114808000D03*
X83820000Y-123444000D03*
X78994000Y-138176000D03*
X79248000Y-133096000D03*
X93980000Y-107315000D03*
X97282000Y-107315000D03*
X100838000Y-107315000D03*
X109982000Y-109601000D03*
X87122000Y-70231000D03*
X79248000Y-123571000D03*
X114427000Y-106426000D03*
X114427000Y-121666000D03*
X94835109Y-140208000D03*
X114681000Y-98425000D03*
X114808000Y-113538000D03*
X94615000Y-129159000D03*
X94488000Y-132715000D03*
X102108000Y-134747000D03*
X101473000Y-131064000D03*
X122428000Y-124460000D03*
X118618000Y-126746000D03*
X98298000Y-136398000D03*
X81026000Y-152146000D03*
X94234000Y-151892000D03*
X92075000Y-79756000D03*
G04 #@! TO.N,+3V3*
X161798000Y-78486000D03*
X92202000Y-83566000D03*
X92202000Y-77978000D03*
X100330000Y-90932000D03*
X107442000Y-90932000D03*
X50038000Y-93472000D03*
X56388000Y-94234000D03*
X109855000Y-128143000D03*
X79502000Y-130175000D03*
X114427000Y-104281000D03*
X114427000Y-119521000D03*
X94488000Y-136271000D03*
X96393000Y-136271000D03*
X102108000Y-136525000D03*
X101473000Y-129286000D03*
X96266000Y-129159000D03*
X94488000Y-130937000D03*
X122428000Y-122682000D03*
X120396000Y-126746000D03*
X115824000Y-124841000D03*
X55488000Y-94234000D03*
X54588000Y-94234000D03*
X56388000Y-93334000D03*
X55488000Y-93334000D03*
X54588000Y-93334000D03*
X56388000Y-92434000D03*
X55488000Y-92434000D03*
X54588000Y-92434000D03*
X56388000Y-91534000D03*
X55488000Y-91534000D03*
X54588000Y-91534000D03*
X49138000Y-93472000D03*
X48238000Y-93472000D03*
X50038000Y-92572000D03*
X49138000Y-92572000D03*
X48238000Y-92572000D03*
X102362000Y-82550000D03*
G04 #@! TO.N,/NRST*
X86868000Y-131826000D03*
X96520000Y-133350000D03*
X91694000Y-146050000D03*
X83566000Y-146050000D03*
G04 #@! TO.N,/JTDO*
X99822000Y-136652000D03*
X106426000Y-135636000D03*
G04 #@! TO.N,+48V*
X123190000Y-106426000D03*
G04 #@! TO.N,/HIH_SCL*
X104394000Y-98298000D03*
X103886000Y-94234000D03*
G04 #@! TO.N,/HIH_SDA*
X105119000Y-97282000D03*
X104906653Y-94229347D03*
G04 #@! TO.N,/SWITCH_A*
X121666000Y-105410000D03*
X100833347Y-124455347D03*
G04 #@! TO.N,/SWITCH_B*
X122174000Y-104394000D03*
X103632000Y-124714000D03*
G04 #@! TO.N,/3.3V_MEASURE*
X84328000Y-127254000D03*
X86614000Y-129794000D03*
G04 #@! TO.N,/5V_MEASURE*
X89662000Y-132326942D03*
G04 #@! TO.N,/48V_MEASURE*
X90424000Y-131318000D03*
X110744000Y-111252000D03*
G04 #@! TO.N,Net-(P1-Pad33)*
X80913000Y-111633000D03*
G04 #@! TO.N,Net-(P1-Pad35)*
X80913000Y-114808000D03*
G04 #@! TO.N,Net-(P1-Pad37)*
X80913000Y-117983000D03*
G04 #@! TO.N,/MISC_RE*
X87894735Y-129021265D03*
X90795696Y-137438305D03*
G04 #@! TO.N,/MISC_DE*
X88392000Y-128016000D03*
X89685678Y-137691678D03*
G04 #@! TO.N,/ODROID_RX*
X77216000Y-91694000D03*
X89408000Y-127508000D03*
G04 #@! TO.N,/ODROID_TX*
X75692000Y-88646000D03*
X90424000Y-127508000D03*
G04 #@! TO.N,/ICM_SDA*
X113284000Y-124968000D03*
X106934000Y-128778000D03*
G04 #@! TO.N,/ICM_SCL*
X113247000Y-125967317D03*
X107696000Y-122301000D03*
G04 #@! TO.N,/MISC_TX*
X106172000Y-125730000D03*
X101854000Y-142748000D03*
G04 #@! TO.N,/MISC_RX*
X100785109Y-142748000D03*
X106929347Y-127512653D03*
G04 #@! TO.N,/SWITCH_E*
X99514753Y-132343553D03*
X122174000Y-101600000D03*
G04 #@! TO.N,/SWITCH_D*
X99414253Y-131217747D03*
X122174000Y-102616000D03*
G04 #@! TO.N,/SWITCH_C*
X121579357Y-103545357D03*
X102620653Y-124718653D03*
G04 #@! TO.N,/24V_MEASURE*
X107950000Y-94488000D03*
X103124000Y-109982000D03*
G04 #@! TD*
D24*
G04 #@! TO.N,+3V3*
G36*
X104871764Y-29329257D02*
X108181370Y-29552856D01*
X111477444Y-29926359D01*
X114753161Y-30448995D01*
X118001824Y-31119695D01*
X121216703Y-31937068D01*
X124391175Y-32899432D01*
X127518763Y-34004822D01*
X130592953Y-35250938D01*
X133607475Y-36635237D01*
X136556084Y-38154851D01*
X139432732Y-39806661D01*
X142231484Y-41587265D01*
X144946591Y-43493001D01*
X147572442Y-45519933D01*
X150103615Y-47663871D01*
X152534978Y-49920471D01*
X154861446Y-52285016D01*
X157078255Y-54752662D01*
X159180844Y-57318328D01*
X161164886Y-59976740D01*
X163026289Y-62722411D01*
X164761229Y-65549703D01*
X166366120Y-68452774D01*
X167837677Y-71425677D01*
X169172844Y-74462240D01*
X170368906Y-77556285D01*
X171423367Y-80701359D01*
X172334084Y-83891066D01*
X173099162Y-87118781D01*
X173717039Y-90377900D01*
X174186434Y-93661684D01*
X174506384Y-96963378D01*
X174676229Y-100276190D01*
X174695622Y-103593298D01*
X174564520Y-106907854D01*
X174283194Y-110213072D01*
X173852225Y-113502108D01*
X173272499Y-116768208D01*
X172545203Y-120004675D01*
X171671848Y-123204796D01*
X170654223Y-126362005D01*
X169494424Y-129469806D01*
X168194843Y-132521788D01*
X166758157Y-135511671D01*
X165187304Y-138433329D01*
X163485543Y-141280703D01*
X161656362Y-144047961D01*
X159703539Y-146729384D01*
X157631096Y-149319452D01*
X155443274Y-151812862D01*
X153144616Y-154204439D01*
X150739811Y-156489302D01*
X148233874Y-158662690D01*
X145631892Y-160720191D01*
X142939253Y-162657539D01*
X140161513Y-164470740D01*
X137304386Y-166156065D01*
X134373722Y-167710062D01*
X131375635Y-169129488D01*
X128316186Y-170411477D01*
X125424000Y-171471867D01*
X125424000Y-154884071D01*
X125463399Y-154686000D01*
X125406354Y-154399217D01*
X125243905Y-154156095D01*
X125000783Y-153993646D01*
X124786388Y-153951000D01*
X68507612Y-153951000D01*
X68293217Y-153993646D01*
X68050095Y-154156095D01*
X67887646Y-154399217D01*
X67830601Y-154686000D01*
X67870000Y-154884071D01*
X67870001Y-167202259D01*
X65973474Y-166199580D01*
X63114286Y-164517739D01*
X60334326Y-162707920D01*
X57639346Y-160773873D01*
X55034852Y-158719545D01*
X52526251Y-156549204D01*
X50118670Y-154267286D01*
X47876459Y-151940126D01*
X79991000Y-151940126D01*
X79991000Y-152351874D01*
X80148569Y-152732280D01*
X80439720Y-153023431D01*
X80820126Y-153181000D01*
X81231874Y-153181000D01*
X81612280Y-153023431D01*
X81903431Y-152732280D01*
X82061000Y-152351874D01*
X82061000Y-151940126D01*
X81955790Y-151686126D01*
X93199000Y-151686126D01*
X93199000Y-152097874D01*
X93356569Y-152478280D01*
X93647720Y-152769431D01*
X94028126Y-152927000D01*
X94439874Y-152927000D01*
X94820280Y-152769431D01*
X95111431Y-152478280D01*
X95269000Y-152097874D01*
X95269000Y-151686126D01*
X95111431Y-151305720D01*
X94820280Y-151014569D01*
X94439874Y-150857000D01*
X94028126Y-150857000D01*
X93647720Y-151014569D01*
X93356569Y-151305720D01*
X93199000Y-151686126D01*
X81955790Y-151686126D01*
X81903431Y-151559720D01*
X81612280Y-151268569D01*
X81231874Y-151111000D01*
X80820126Y-151111000D01*
X80439720Y-151268569D01*
X80148569Y-151559720D01*
X79991000Y-151940126D01*
X47876459Y-151940126D01*
X47817086Y-151878504D01*
X45626228Y-149387767D01*
X43550628Y-146800231D01*
X42852531Y-145844126D01*
X82531000Y-145844126D01*
X82531000Y-146255874D01*
X82688569Y-146636280D01*
X82979720Y-146927431D01*
X83360126Y-147085000D01*
X83771874Y-147085000D01*
X84152280Y-146927431D01*
X84443431Y-146636280D01*
X84601000Y-146255874D01*
X84601000Y-145844126D01*
X90659000Y-145844126D01*
X90659000Y-146255874D01*
X90816569Y-146636280D01*
X91107720Y-146927431D01*
X91488126Y-147085000D01*
X91899874Y-147085000D01*
X92280280Y-146927431D01*
X92571431Y-146636280D01*
X92729000Y-146255874D01*
X92729000Y-146081750D01*
X112053000Y-146081750D01*
X112053000Y-146772310D01*
X112149673Y-147005699D01*
X112328302Y-147184327D01*
X112561691Y-147281000D01*
X113252250Y-147281000D01*
X113411000Y-147122250D01*
X113411000Y-145923000D01*
X113665000Y-145923000D01*
X113665000Y-147122250D01*
X113823750Y-147281000D01*
X114514309Y-147281000D01*
X114747698Y-147184327D01*
X114926327Y-147005699D01*
X115023000Y-146772310D01*
X115023000Y-146081750D01*
X114864250Y-145923000D01*
X113665000Y-145923000D01*
X113411000Y-145923000D01*
X112211750Y-145923000D01*
X112053000Y-146081750D01*
X92729000Y-146081750D01*
X92729000Y-145844126D01*
X92571431Y-145463720D01*
X92280280Y-145172569D01*
X91899874Y-145015000D01*
X91488126Y-145015000D01*
X91107720Y-145172569D01*
X90816569Y-145463720D01*
X90659000Y-145844126D01*
X84601000Y-145844126D01*
X84443431Y-145463720D01*
X84152280Y-145172569D01*
X83771874Y-145015000D01*
X83360126Y-145015000D01*
X82979720Y-145172569D01*
X82688569Y-145463720D01*
X82531000Y-145844126D01*
X42852531Y-145844126D01*
X41594531Y-144121186D01*
X39761990Y-141356184D01*
X38056740Y-138510860D01*
X37875727Y-138175171D01*
X57125000Y-138175171D01*
X57125000Y-139700829D01*
X57708844Y-141110353D01*
X58787647Y-142189156D01*
X60197171Y-142773000D01*
X61722829Y-142773000D01*
X62280208Y-142542126D01*
X99750109Y-142542126D01*
X99750109Y-142953874D01*
X99907678Y-143334280D01*
X100198829Y-143625431D01*
X100579235Y-143783000D01*
X100990983Y-143783000D01*
X101319555Y-143646902D01*
X101648126Y-143783000D01*
X102059874Y-143783000D01*
X102440280Y-143625431D01*
X102731431Y-143334280D01*
X102889000Y-142953874D01*
X102889000Y-142542126D01*
X102731431Y-142161720D01*
X102440280Y-141870569D01*
X102059874Y-141713000D01*
X101648126Y-141713000D01*
X101319555Y-141849098D01*
X100990983Y-141713000D01*
X100579235Y-141713000D01*
X100198829Y-141870569D01*
X99907678Y-142161720D01*
X99750109Y-142542126D01*
X62280208Y-142542126D01*
X63132353Y-142189156D01*
X64211156Y-141110353D01*
X64670198Y-140002126D01*
X93800109Y-140002126D01*
X93800109Y-140413874D01*
X93957678Y-140794280D01*
X94248829Y-141085431D01*
X94629235Y-141243000D01*
X95040983Y-141243000D01*
X95421389Y-141085431D01*
X95712540Y-140794280D01*
X95870109Y-140413874D01*
X95870109Y-140002126D01*
X95712540Y-139621720D01*
X95421389Y-139330569D01*
X95040983Y-139173000D01*
X94629235Y-139173000D01*
X94248829Y-139330569D01*
X93957678Y-139621720D01*
X93800109Y-140002126D01*
X64670198Y-140002126D01*
X64795000Y-139700829D01*
X64795000Y-138175171D01*
X64710068Y-137970126D01*
X77959000Y-137970126D01*
X77959000Y-138381874D01*
X78116569Y-138762280D01*
X78407720Y-139053431D01*
X78788126Y-139211000D01*
X79199874Y-139211000D01*
X79580280Y-139053431D01*
X79871431Y-138762280D01*
X80029000Y-138381874D01*
X80029000Y-137970126D01*
X79894953Y-137646506D01*
X83959000Y-137646506D01*
X83959000Y-138197494D01*
X84169853Y-138706540D01*
X84559460Y-139096147D01*
X85068506Y-139307000D01*
X85619494Y-139307000D01*
X86128540Y-139096147D01*
X86518147Y-138706540D01*
X86729000Y-138197494D01*
X86729000Y-137646506D01*
X86662436Y-137485804D01*
X88650678Y-137485804D01*
X88650678Y-137897552D01*
X88808247Y-138277958D01*
X89099398Y-138569109D01*
X89479804Y-138726678D01*
X89891552Y-138726678D01*
X90271958Y-138569109D01*
X90432802Y-138408265D01*
X90589822Y-138473305D01*
X91001570Y-138473305D01*
X91381976Y-138315736D01*
X91673127Y-138024585D01*
X91830696Y-137644179D01*
X91830696Y-137232431D01*
X91673127Y-136852025D01*
X91381976Y-136560874D01*
X91001570Y-136403305D01*
X90589822Y-136403305D01*
X90209416Y-136560874D01*
X90048572Y-136721718D01*
X89891552Y-136656678D01*
X89479804Y-136656678D01*
X89099398Y-136814247D01*
X88808247Y-137105398D01*
X88650678Y-137485804D01*
X86662436Y-137485804D01*
X86518147Y-137137460D01*
X86128540Y-136747853D01*
X85619494Y-136537000D01*
X85068506Y-136537000D01*
X84559460Y-136747853D01*
X84169853Y-137137460D01*
X83959000Y-137646506D01*
X79894953Y-137646506D01*
X79871431Y-137589720D01*
X79580280Y-137298569D01*
X79199874Y-137141000D01*
X78788126Y-137141000D01*
X78407720Y-137298569D01*
X78116569Y-137589720D01*
X77959000Y-137970126D01*
X64710068Y-137970126D01*
X64211156Y-136765647D01*
X63637635Y-136192126D01*
X97263000Y-136192126D01*
X97263000Y-136603874D01*
X97420569Y-136984280D01*
X97711720Y-137275431D01*
X98092126Y-137433000D01*
X98503874Y-137433000D01*
X98884280Y-137275431D01*
X98937792Y-137221919D01*
X98944569Y-137238280D01*
X99235720Y-137529431D01*
X99616126Y-137687000D01*
X100027874Y-137687000D01*
X100408280Y-137529431D01*
X100699431Y-137238280D01*
X100857000Y-136857874D01*
X100857000Y-136446126D01*
X100699431Y-136065720D01*
X100408280Y-135774569D01*
X100027874Y-135617000D01*
X99616126Y-135617000D01*
X99235720Y-135774569D01*
X99182208Y-135828081D01*
X99175431Y-135811720D01*
X98884280Y-135520569D01*
X98503874Y-135363000D01*
X98092126Y-135363000D01*
X97711720Y-135520569D01*
X97420569Y-135811720D01*
X97263000Y-136192126D01*
X63637635Y-136192126D01*
X63132353Y-135686844D01*
X61722829Y-135103000D01*
X60197171Y-135103000D01*
X58787647Y-135686844D01*
X57708844Y-136765647D01*
X57125000Y-138175171D01*
X37875727Y-138175171D01*
X36482339Y-135591144D01*
X35041996Y-132603000D01*
X33938566Y-130020410D01*
X69023000Y-130020410D01*
X69023000Y-131267590D01*
X69500276Y-132419835D01*
X70382165Y-133301724D01*
X71534410Y-133779000D01*
X72781590Y-133779000D01*
X73933835Y-133301724D01*
X74345433Y-132890126D01*
X78213000Y-132890126D01*
X78213000Y-133301874D01*
X78370569Y-133682280D01*
X78661720Y-133973431D01*
X79042126Y-134131000D01*
X79453874Y-134131000D01*
X79834280Y-133973431D01*
X80125431Y-133682280D01*
X80283000Y-133301874D01*
X80283000Y-132890126D01*
X80231796Y-132766506D01*
X83959000Y-132766506D01*
X83959000Y-133317494D01*
X84169853Y-133826540D01*
X84559460Y-134216147D01*
X85068506Y-134427000D01*
X85619494Y-134427000D01*
X86128540Y-134216147D01*
X86518147Y-133826540D01*
X86729000Y-133317494D01*
X86729000Y-132861000D01*
X87073874Y-132861000D01*
X87454280Y-132703431D01*
X87745431Y-132412280D01*
X87866054Y-132121068D01*
X88627000Y-132121068D01*
X88627000Y-132532816D01*
X88784569Y-132913222D01*
X89075720Y-133204373D01*
X89456126Y-133361942D01*
X89867874Y-133361942D01*
X90248280Y-133204373D01*
X90539431Y-132913222D01*
X90697000Y-132532816D01*
X90697000Y-132509126D01*
X93453000Y-132509126D01*
X93453000Y-132920874D01*
X93610569Y-133301280D01*
X93901720Y-133592431D01*
X93929650Y-133604000D01*
X93901720Y-133615569D01*
X93610569Y-133906720D01*
X93453000Y-134287126D01*
X93453000Y-134698874D01*
X93610569Y-135079280D01*
X93901720Y-135370431D01*
X94282126Y-135528000D01*
X94693874Y-135528000D01*
X95074280Y-135370431D01*
X95365431Y-135079280D01*
X95523000Y-134698874D01*
X95523000Y-134541126D01*
X101073000Y-134541126D01*
X101073000Y-134952874D01*
X101230569Y-135333280D01*
X101521720Y-135624431D01*
X101902126Y-135782000D01*
X102313874Y-135782000D01*
X102694280Y-135624431D01*
X102888585Y-135430126D01*
X105391000Y-135430126D01*
X105391000Y-135841874D01*
X105548569Y-136222280D01*
X105839720Y-136513431D01*
X106220126Y-136671000D01*
X106631874Y-136671000D01*
X107012280Y-136513431D01*
X107303431Y-136222280D01*
X107461000Y-135841874D01*
X107461000Y-135430126D01*
X107303431Y-135049720D01*
X107012280Y-134758569D01*
X106631874Y-134601000D01*
X106220126Y-134601000D01*
X105839720Y-134758569D01*
X105548569Y-135049720D01*
X105391000Y-135430126D01*
X102888585Y-135430126D01*
X102985431Y-135333280D01*
X103143000Y-134952874D01*
X103143000Y-134541126D01*
X102985431Y-134160720D01*
X102694280Y-133869569D01*
X102313874Y-133712000D01*
X101902126Y-133712000D01*
X101521720Y-133869569D01*
X101230569Y-134160720D01*
X101073000Y-134541126D01*
X95523000Y-134541126D01*
X95523000Y-134287126D01*
X95365431Y-133906720D01*
X95074280Y-133615569D01*
X95046350Y-133604000D01*
X95074280Y-133592431D01*
X95365431Y-133301280D01*
X95430526Y-133144126D01*
X95485000Y-133144126D01*
X95485000Y-133555874D01*
X95642569Y-133936280D01*
X95933720Y-134227431D01*
X96314126Y-134385000D01*
X96725874Y-134385000D01*
X97106280Y-134227431D01*
X97397431Y-133936280D01*
X97409000Y-133908350D01*
X97420569Y-133936280D01*
X97711720Y-134227431D01*
X98092126Y-134385000D01*
X98503874Y-134385000D01*
X98884280Y-134227431D01*
X99175431Y-133936280D01*
X99333000Y-133555874D01*
X99333000Y-133378553D01*
X99720627Y-133378553D01*
X100101033Y-133220984D01*
X100226017Y-133096000D01*
X112023908Y-133096000D01*
X112139161Y-133675418D01*
X112467375Y-134166625D01*
X112765761Y-134366000D01*
X112467375Y-134565375D01*
X112139161Y-135056582D01*
X112023908Y-135636000D01*
X112139161Y-136215418D01*
X112467375Y-136706625D01*
X112765761Y-136906000D01*
X112467375Y-137105375D01*
X112139161Y-137596582D01*
X112023908Y-138176000D01*
X112139161Y-138755418D01*
X112467375Y-139246625D01*
X112765761Y-139446000D01*
X112467375Y-139645375D01*
X112139161Y-140136582D01*
X112023908Y-140716000D01*
X112139161Y-141295418D01*
X112467375Y-141786625D01*
X112765761Y-141986000D01*
X112467375Y-142185375D01*
X112139161Y-142676582D01*
X112023908Y-143256000D01*
X112139161Y-143835418D01*
X112467375Y-144326625D01*
X112489033Y-144341096D01*
X112328302Y-144407673D01*
X112149673Y-144586301D01*
X112053000Y-144819690D01*
X112053000Y-145510250D01*
X112211750Y-145669000D01*
X113411000Y-145669000D01*
X113411000Y-145649000D01*
X113665000Y-145649000D01*
X113665000Y-145669000D01*
X114864250Y-145669000D01*
X115023000Y-145510250D01*
X115023000Y-144819690D01*
X114926327Y-144586301D01*
X114747698Y-144407673D01*
X114586967Y-144341096D01*
X114608625Y-144326625D01*
X114936839Y-143835418D01*
X115052092Y-143256000D01*
X114936839Y-142676582D01*
X114608625Y-142185375D01*
X114310239Y-141986000D01*
X114608625Y-141786625D01*
X114936839Y-141295418D01*
X115052092Y-140716000D01*
X114936839Y-140136582D01*
X114608625Y-139645375D01*
X114310239Y-139446000D01*
X114608625Y-139246625D01*
X114936839Y-138755418D01*
X115052092Y-138176000D01*
X115051928Y-138175171D01*
X139675000Y-138175171D01*
X139675000Y-139700829D01*
X140258844Y-141110353D01*
X141337647Y-142189156D01*
X142747171Y-142773000D01*
X144272829Y-142773000D01*
X145682353Y-142189156D01*
X146761156Y-141110353D01*
X147345000Y-139700829D01*
X147345000Y-138175171D01*
X146761156Y-136765647D01*
X145682353Y-135686844D01*
X144272829Y-135103000D01*
X142747171Y-135103000D01*
X141337647Y-135686844D01*
X140258844Y-136765647D01*
X139675000Y-138175171D01*
X115051928Y-138175171D01*
X114936839Y-137596582D01*
X114608625Y-137105375D01*
X114310239Y-136906000D01*
X114608625Y-136706625D01*
X114936839Y-136215418D01*
X115052092Y-135636000D01*
X114936839Y-135056582D01*
X114608625Y-134565375D01*
X114310239Y-134366000D01*
X114608625Y-134166625D01*
X114936839Y-133675418D01*
X115052092Y-133096000D01*
X114936839Y-132516582D01*
X114608625Y-132025375D01*
X114117418Y-131697161D01*
X113684256Y-131611000D01*
X113391744Y-131611000D01*
X112958582Y-131697161D01*
X112467375Y-132025375D01*
X112139161Y-132516582D01*
X112023908Y-133096000D01*
X100226017Y-133096000D01*
X100392184Y-132929833D01*
X100549753Y-132549427D01*
X100549753Y-132137679D01*
X100392184Y-131757273D01*
X100334814Y-131699903D01*
X100449253Y-131423621D01*
X100449253Y-131297041D01*
X100595569Y-131650280D01*
X100886720Y-131941431D01*
X101267126Y-132099000D01*
X101678874Y-132099000D01*
X102059280Y-131941431D01*
X102350431Y-131650280D01*
X102508000Y-131269874D01*
X102508000Y-130858126D01*
X102350431Y-130477720D01*
X102059280Y-130186569D01*
X101678874Y-130029000D01*
X101267126Y-130029000D01*
X100886720Y-130186569D01*
X100595569Y-130477720D01*
X100438000Y-130858126D01*
X100438000Y-130984706D01*
X100291684Y-130631467D01*
X100000533Y-130340316D01*
X99620127Y-130182747D01*
X99208379Y-130182747D01*
X98827973Y-130340316D01*
X98536822Y-130631467D01*
X98379253Y-131011873D01*
X98379253Y-131423621D01*
X98536822Y-131804027D01*
X98594192Y-131861397D01*
X98479753Y-132137679D01*
X98479753Y-132315000D01*
X98092126Y-132315000D01*
X97711720Y-132472569D01*
X97420569Y-132763720D01*
X97409000Y-132791650D01*
X97397431Y-132763720D01*
X97106280Y-132472569D01*
X96725874Y-132315000D01*
X96314126Y-132315000D01*
X95933720Y-132472569D01*
X95642569Y-132763720D01*
X95485000Y-133144126D01*
X95430526Y-133144126D01*
X95523000Y-132920874D01*
X95523000Y-132509126D01*
X95365431Y-132128720D01*
X95074280Y-131837569D01*
X94693874Y-131680000D01*
X94282126Y-131680000D01*
X93901720Y-131837569D01*
X93610569Y-132128720D01*
X93453000Y-132509126D01*
X90697000Y-132509126D01*
X90697000Y-132325196D01*
X91010280Y-132195431D01*
X91301431Y-131904280D01*
X91459000Y-131523874D01*
X91459000Y-131112126D01*
X91301431Y-130731720D01*
X91010280Y-130440569D01*
X90629874Y-130283000D01*
X90218126Y-130283000D01*
X89837720Y-130440569D01*
X89546569Y-130731720D01*
X89389000Y-131112126D01*
X89389000Y-131319746D01*
X89075720Y-131449511D01*
X88784569Y-131740662D01*
X88627000Y-132121068D01*
X87866054Y-132121068D01*
X87903000Y-132031874D01*
X87903000Y-131620126D01*
X87745431Y-131239720D01*
X87454280Y-130948569D01*
X87073874Y-130791000D01*
X86911614Y-130791000D01*
X87200280Y-130671431D01*
X87491431Y-130380280D01*
X87634900Y-130033914D01*
X87688861Y-130056265D01*
X88100609Y-130056265D01*
X88481015Y-129898696D01*
X88772166Y-129607545D01*
X88929735Y-129227139D01*
X88929735Y-128953126D01*
X93580000Y-128953126D01*
X93580000Y-129364874D01*
X93737569Y-129745280D01*
X94028720Y-130036431D01*
X94409126Y-130194000D01*
X94820874Y-130194000D01*
X95201280Y-130036431D01*
X95217301Y-130020410D01*
X118023000Y-130020410D01*
X118023000Y-131267590D01*
X118500276Y-132419835D01*
X119382165Y-133301724D01*
X120534410Y-133779000D01*
X121781590Y-133779000D01*
X122933835Y-133301724D01*
X123815724Y-132419835D01*
X124293000Y-131267590D01*
X124293000Y-130020410D01*
X123815724Y-128868165D01*
X122933835Y-127986276D01*
X121781590Y-127509000D01*
X120534410Y-127509000D01*
X119382165Y-127986276D01*
X118500276Y-128868165D01*
X118023000Y-130020410D01*
X95217301Y-130020410D01*
X95492431Y-129745280D01*
X95650000Y-129364874D01*
X95650000Y-128953126D01*
X95492431Y-128572720D01*
X95201280Y-128281569D01*
X94820874Y-128124000D01*
X94409126Y-128124000D01*
X94028720Y-128281569D01*
X93737569Y-128572720D01*
X93580000Y-128953126D01*
X88929735Y-128953126D01*
X88929735Y-128913539D01*
X88978280Y-128893431D01*
X89269431Y-128602280D01*
X89293986Y-128543000D01*
X89613874Y-128543000D01*
X89916000Y-128417856D01*
X90218126Y-128543000D01*
X90629874Y-128543000D01*
X91010280Y-128385431D01*
X91301431Y-128094280D01*
X91459000Y-127713874D01*
X91459000Y-127302126D01*
X91301431Y-126921720D01*
X91010280Y-126630569D01*
X90629874Y-126473000D01*
X90218126Y-126473000D01*
X89916000Y-126598144D01*
X89613874Y-126473000D01*
X89202126Y-126473000D01*
X88821720Y-126630569D01*
X88530569Y-126921720D01*
X88506014Y-126981000D01*
X88186126Y-126981000D01*
X87805720Y-127138569D01*
X87514569Y-127429720D01*
X87357000Y-127810126D01*
X87357000Y-128123726D01*
X87308455Y-128143834D01*
X87017304Y-128434985D01*
X86873835Y-128781351D01*
X86819874Y-128759000D01*
X86408126Y-128759000D01*
X86027720Y-128916569D01*
X85736569Y-129207720D01*
X85579000Y-129588126D01*
X85579000Y-129999874D01*
X85736569Y-130380280D01*
X86027720Y-130671431D01*
X86408126Y-130829000D01*
X86570386Y-130829000D01*
X86281720Y-130948569D01*
X85990569Y-131239720D01*
X85833000Y-131620126D01*
X85833000Y-131745437D01*
X85619494Y-131657000D01*
X85068506Y-131657000D01*
X84559460Y-131867853D01*
X84169853Y-132257460D01*
X83959000Y-132766506D01*
X80231796Y-132766506D01*
X80125431Y-132509720D01*
X79834280Y-132218569D01*
X79453874Y-132061000D01*
X79042126Y-132061000D01*
X78661720Y-132218569D01*
X78370569Y-132509720D01*
X78213000Y-132890126D01*
X74345433Y-132890126D01*
X74815724Y-132419835D01*
X75293000Y-131267590D01*
X75293000Y-130020410D01*
X74815724Y-128868165D01*
X73933835Y-127986276D01*
X72781590Y-127509000D01*
X71534410Y-127509000D01*
X70382165Y-127986276D01*
X69500276Y-128868165D01*
X69023000Y-130020410D01*
X33938566Y-130020410D01*
X33738693Y-129552606D01*
X32575111Y-126446240D01*
X31553628Y-123290254D01*
X30676373Y-120091214D01*
X29945130Y-116855644D01*
X29361420Y-113590245D01*
X28926438Y-110301734D01*
X28641081Y-106996877D01*
X28505935Y-103682441D01*
X28521279Y-100365356D01*
X28687085Y-97052319D01*
X28916719Y-94652126D01*
X47203000Y-94652126D01*
X47203000Y-95063874D01*
X47304120Y-95308000D01*
X47203000Y-95552126D01*
X47203000Y-95963874D01*
X47360569Y-96344280D01*
X47651720Y-96635431D01*
X48032126Y-96793000D01*
X48443874Y-96793000D01*
X48688000Y-96691880D01*
X48932126Y-96793000D01*
X49343874Y-96793000D01*
X49588000Y-96691880D01*
X49832126Y-96793000D01*
X50243874Y-96793000D01*
X50624280Y-96635431D01*
X50915431Y-96344280D01*
X50947855Y-96266000D01*
X59445908Y-96266000D01*
X59561161Y-96845418D01*
X59889375Y-97336625D01*
X60380582Y-97664839D01*
X60813744Y-97751000D01*
X61106256Y-97751000D01*
X61539418Y-97664839D01*
X62030625Y-97336625D01*
X62042816Y-97318381D01*
X62051843Y-97363765D01*
X62192191Y-97573809D01*
X62402235Y-97714157D01*
X62650000Y-97763440D01*
X64350000Y-97763440D01*
X64597765Y-97714157D01*
X64807809Y-97573809D01*
X64948157Y-97363765D01*
X64997440Y-97116000D01*
X64997440Y-95416000D01*
X64948157Y-95168235D01*
X64807809Y-94958191D01*
X64597765Y-94817843D01*
X64350000Y-94768560D01*
X62650000Y-94768560D01*
X62402235Y-94817843D01*
X62192191Y-94958191D01*
X62051843Y-95168235D01*
X62042816Y-95213619D01*
X62030625Y-95195375D01*
X61539418Y-94867161D01*
X61106256Y-94781000D01*
X60813744Y-94781000D01*
X60380582Y-94867161D01*
X59889375Y-95195375D01*
X59561161Y-95686582D01*
X59445908Y-96266000D01*
X50947855Y-96266000D01*
X51073000Y-95963874D01*
X51073000Y-95552126D01*
X50971880Y-95308000D01*
X51073000Y-95063874D01*
X51073000Y-94652126D01*
X50915431Y-94271720D01*
X50624280Y-93980569D01*
X50243874Y-93823000D01*
X49832126Y-93823000D01*
X49588000Y-93924120D01*
X49343874Y-93823000D01*
X48932126Y-93823000D01*
X48688000Y-93924120D01*
X48443874Y-93823000D01*
X48032126Y-93823000D01*
X47651720Y-93980569D01*
X47360569Y-94271720D01*
X47203000Y-94652126D01*
X28916719Y-94652126D01*
X29003006Y-93750241D01*
X29107595Y-93012126D01*
X42653000Y-93012126D01*
X42653000Y-93423874D01*
X42810569Y-93804280D01*
X43101720Y-94095431D01*
X43482126Y-94253000D01*
X43893874Y-94253000D01*
X44274280Y-94095431D01*
X44565431Y-93804280D01*
X44723000Y-93423874D01*
X44723000Y-93012126D01*
X44565431Y-92631720D01*
X44274280Y-92340569D01*
X43893874Y-92183000D01*
X43482126Y-92183000D01*
X43101720Y-92340569D01*
X42810569Y-92631720D01*
X42653000Y-93012126D01*
X29107595Y-93012126D01*
X29468396Y-90465876D01*
X29562885Y-89964126D01*
X42653000Y-89964126D01*
X42653000Y-90375874D01*
X42810569Y-90756280D01*
X43101720Y-91047431D01*
X43482126Y-91205000D01*
X43893874Y-91205000D01*
X44274280Y-91047431D01*
X44565431Y-90756280D01*
X44723000Y-90375874D01*
X44723000Y-89964126D01*
X44565431Y-89583720D01*
X44274280Y-89292569D01*
X43893874Y-89135000D01*
X43482126Y-89135000D01*
X43101720Y-89292569D01*
X42810569Y-89583720D01*
X42653000Y-89964126D01*
X29562885Y-89964126D01*
X30082289Y-87206049D01*
X30843435Y-83977375D01*
X30978082Y-83503594D01*
X47261000Y-83503594D01*
X47261000Y-84452406D01*
X47624095Y-85328994D01*
X48295006Y-85999905D01*
X49171594Y-86363000D01*
X50120406Y-86363000D01*
X50996994Y-85999905D01*
X51398899Y-85598000D01*
X59445908Y-85598000D01*
X59561161Y-86177418D01*
X59889375Y-86668625D01*
X60380582Y-86996839D01*
X60813744Y-87083000D01*
X61106256Y-87083000D01*
X61539418Y-86996839D01*
X62030625Y-86668625D01*
X62042816Y-86650381D01*
X62051843Y-86695765D01*
X62192191Y-86905809D01*
X62402235Y-87046157D01*
X62650000Y-87095440D01*
X64350000Y-87095440D01*
X64597765Y-87046157D01*
X64807809Y-86905809D01*
X64948157Y-86695765D01*
X64997440Y-86448000D01*
X64997440Y-84748000D01*
X64948157Y-84500235D01*
X64807809Y-84290191D01*
X64597765Y-84149843D01*
X64350000Y-84100560D01*
X62650000Y-84100560D01*
X62402235Y-84149843D01*
X62192191Y-84290191D01*
X62051843Y-84500235D01*
X62042816Y-84545619D01*
X62030625Y-84527375D01*
X61539418Y-84199161D01*
X61106256Y-84113000D01*
X60813744Y-84113000D01*
X60380582Y-84199161D01*
X59889375Y-84527375D01*
X59561161Y-85018582D01*
X59445908Y-85598000D01*
X51398899Y-85598000D01*
X51667905Y-85328994D01*
X52031000Y-84452406D01*
X52031000Y-83503594D01*
X51667905Y-82627006D01*
X50996994Y-81956095D01*
X50120406Y-81593000D01*
X49171594Y-81593000D01*
X48295006Y-81956095D01*
X47624095Y-82627006D01*
X47261000Y-83503594D01*
X30978082Y-83503594D01*
X31750257Y-80786567D01*
X32800885Y-77640195D01*
X33273708Y-76412615D01*
X50871000Y-76412615D01*
X50871000Y-77003385D01*
X51097078Y-77549185D01*
X51505893Y-77958000D01*
X51097078Y-78366815D01*
X50871000Y-78912615D01*
X50871000Y-79503385D01*
X51097078Y-80049185D01*
X51514815Y-80466922D01*
X52060615Y-80693000D01*
X52651385Y-80693000D01*
X53197185Y-80466922D01*
X53356000Y-80308107D01*
X53514815Y-80466922D01*
X54060615Y-80693000D01*
X54651385Y-80693000D01*
X55197185Y-80466922D01*
X55614922Y-80049185D01*
X55841000Y-79503385D01*
X55841000Y-78912615D01*
X55614922Y-78366815D01*
X55412477Y-78164370D01*
X55453765Y-78156157D01*
X55663809Y-78015809D01*
X55804157Y-77805765D01*
X55853440Y-77558000D01*
X55853440Y-77236119D01*
X69491000Y-77236119D01*
X69491000Y-77791881D01*
X69703680Y-78305337D01*
X70096663Y-78698320D01*
X70303513Y-78784000D01*
X70096663Y-78869680D01*
X69703680Y-79262663D01*
X69491000Y-79776119D01*
X69491000Y-80331881D01*
X69703680Y-80845337D01*
X70096663Y-81238320D01*
X70303513Y-81324000D01*
X70096663Y-81409680D01*
X69703680Y-81802663D01*
X69491000Y-82316119D01*
X69491000Y-82871881D01*
X69703680Y-83385337D01*
X70096663Y-83778320D01*
X70303513Y-83864000D01*
X70096663Y-83949680D01*
X69703680Y-84342663D01*
X69491000Y-84856119D01*
X69491000Y-85411881D01*
X69703680Y-85925337D01*
X70096663Y-86318320D01*
X70303513Y-86404000D01*
X70096663Y-86489680D01*
X69703680Y-86882663D01*
X69491000Y-87396119D01*
X69491000Y-87951881D01*
X69703680Y-88465337D01*
X70096663Y-88858320D01*
X70303513Y-88944000D01*
X70096663Y-89029680D01*
X69703680Y-89422663D01*
X69491000Y-89936119D01*
X69491000Y-90491881D01*
X69703680Y-91005337D01*
X70096663Y-91398320D01*
X70303513Y-91484000D01*
X70096663Y-91569680D01*
X69703680Y-91962663D01*
X69491000Y-92476119D01*
X69491000Y-93031881D01*
X69703680Y-93545337D01*
X70096663Y-93938320D01*
X70303513Y-94024000D01*
X70096663Y-94109680D01*
X69703680Y-94502663D01*
X69491000Y-95016119D01*
X69491000Y-95571881D01*
X69703680Y-96085337D01*
X70096663Y-96478320D01*
X70303513Y-96564000D01*
X70096663Y-96649680D01*
X69703680Y-97042663D01*
X69491000Y-97556119D01*
X69491000Y-98111881D01*
X69703680Y-98625337D01*
X70096663Y-99018320D01*
X70303513Y-99104000D01*
X70096663Y-99189680D01*
X69703680Y-99582663D01*
X69491000Y-100096119D01*
X69491000Y-100651881D01*
X69703680Y-101165337D01*
X70096663Y-101558320D01*
X70303513Y-101644000D01*
X70096663Y-101729680D01*
X69703680Y-102122663D01*
X69491000Y-102636119D01*
X69491000Y-103191881D01*
X69703680Y-103705337D01*
X70096663Y-104098320D01*
X70303513Y-104184000D01*
X70096663Y-104269680D01*
X69703680Y-104662663D01*
X69491000Y-105176119D01*
X69491000Y-105731881D01*
X69703680Y-106245337D01*
X70096663Y-106638320D01*
X70303513Y-106724000D01*
X70096663Y-106809680D01*
X69703680Y-107202663D01*
X69491000Y-107716119D01*
X69491000Y-108271881D01*
X69703680Y-108785337D01*
X70096663Y-109178320D01*
X70303513Y-109264000D01*
X70096663Y-109349680D01*
X69703680Y-109742663D01*
X69491000Y-110256119D01*
X69491000Y-110811881D01*
X69703680Y-111325337D01*
X70096663Y-111718320D01*
X70303513Y-111804000D01*
X70096663Y-111889680D01*
X69703680Y-112282663D01*
X69491000Y-112796119D01*
X69491000Y-113351881D01*
X69703680Y-113865337D01*
X70096663Y-114258320D01*
X70303513Y-114344000D01*
X70096663Y-114429680D01*
X69703680Y-114822663D01*
X69491000Y-115336119D01*
X69491000Y-115891881D01*
X69703680Y-116405337D01*
X70096663Y-116798320D01*
X70303513Y-116884000D01*
X70096663Y-116969680D01*
X69703680Y-117362663D01*
X69491000Y-117876119D01*
X69491000Y-118431881D01*
X69703680Y-118945337D01*
X70096663Y-119338320D01*
X70303513Y-119424000D01*
X70096663Y-119509680D01*
X69703680Y-119902663D01*
X69491000Y-120416119D01*
X69491000Y-120971881D01*
X69703680Y-121485337D01*
X70096663Y-121878320D01*
X70303513Y-121964000D01*
X70096663Y-122049680D01*
X69703680Y-122442663D01*
X69491000Y-122956119D01*
X69491000Y-123511881D01*
X69703680Y-124025337D01*
X70096663Y-124418320D01*
X70303513Y-124504000D01*
X70096663Y-124589680D01*
X69703680Y-124982663D01*
X69491000Y-125496119D01*
X69491000Y-126051881D01*
X69703680Y-126565337D01*
X70096663Y-126958320D01*
X70610119Y-127171000D01*
X71165881Y-127171000D01*
X71679337Y-126958320D01*
X72072320Y-126565337D01*
X72158000Y-126358487D01*
X72243680Y-126565337D01*
X72636663Y-126958320D01*
X73150119Y-127171000D01*
X73705881Y-127171000D01*
X74002525Y-127048126D01*
X83293000Y-127048126D01*
X83293000Y-127459874D01*
X83450569Y-127840280D01*
X83741720Y-128131431D01*
X84122126Y-128289000D01*
X84533874Y-128289000D01*
X84914280Y-128131431D01*
X85205431Y-127840280D01*
X85363000Y-127459874D01*
X85363000Y-127048126D01*
X85205431Y-126667720D01*
X84914280Y-126376569D01*
X84533874Y-126219000D01*
X84122126Y-126219000D01*
X83741720Y-126376569D01*
X83450569Y-126667720D01*
X83293000Y-127048126D01*
X74002525Y-127048126D01*
X74219337Y-126958320D01*
X74612320Y-126565337D01*
X74825000Y-126051881D01*
X74825000Y-125496119D01*
X74612320Y-124982663D01*
X74219337Y-124589680D01*
X74012487Y-124504000D01*
X74219337Y-124418320D01*
X74612320Y-124025337D01*
X74825000Y-123511881D01*
X74825000Y-123365126D01*
X78213000Y-123365126D01*
X78213000Y-123776874D01*
X78370569Y-124157280D01*
X78661720Y-124448431D01*
X79042126Y-124606000D01*
X79453874Y-124606000D01*
X79834280Y-124448431D01*
X80125431Y-124157280D01*
X80283000Y-123776874D01*
X80283000Y-123365126D01*
X80230395Y-123238126D01*
X82785000Y-123238126D01*
X82785000Y-123649874D01*
X82942569Y-124030280D01*
X83233720Y-124321431D01*
X83614126Y-124479000D01*
X84025874Y-124479000D01*
X84406280Y-124321431D01*
X84478238Y-124249473D01*
X99798347Y-124249473D01*
X99798347Y-124661221D01*
X99955916Y-125041627D01*
X100247067Y-125332778D01*
X100627473Y-125490347D01*
X101039221Y-125490347D01*
X101419627Y-125332778D01*
X101656599Y-125095806D01*
X101743222Y-125304933D01*
X102034373Y-125596084D01*
X102414779Y-125753653D01*
X102826527Y-125753653D01*
X103131943Y-125627146D01*
X103426126Y-125749000D01*
X103837874Y-125749000D01*
X104218280Y-125591431D01*
X104285585Y-125524126D01*
X105137000Y-125524126D01*
X105137000Y-125935874D01*
X105294569Y-126316280D01*
X105585720Y-126607431D01*
X105966126Y-126765000D01*
X106213289Y-126765000D01*
X106051916Y-126926373D01*
X105894347Y-127306779D01*
X105894347Y-127718527D01*
X106051916Y-128098933D01*
X106100636Y-128147653D01*
X106056569Y-128191720D01*
X105899000Y-128572126D01*
X105899000Y-128983874D01*
X106056569Y-129364280D01*
X106347720Y-129655431D01*
X106728126Y-129813000D01*
X107139874Y-129813000D01*
X107520280Y-129655431D01*
X107811431Y-129364280D01*
X107969000Y-128983874D01*
X107969000Y-128572126D01*
X107811431Y-128191720D01*
X107762711Y-128143000D01*
X107806778Y-128098933D01*
X107964347Y-127718527D01*
X107964347Y-127306779D01*
X107806778Y-126926373D01*
X107515627Y-126635222D01*
X107135221Y-126477653D01*
X106888058Y-126477653D01*
X107049431Y-126316280D01*
X107207000Y-125935874D01*
X107207000Y-125761443D01*
X112212000Y-125761443D01*
X112212000Y-126173191D01*
X112369569Y-126553597D01*
X112660720Y-126844748D01*
X113041126Y-127002317D01*
X113452874Y-127002317D01*
X113833280Y-126844748D01*
X114124431Y-126553597D01*
X114130010Y-126540126D01*
X117583000Y-126540126D01*
X117583000Y-126951874D01*
X117740569Y-127332280D01*
X118031720Y-127623431D01*
X118412126Y-127781000D01*
X118823874Y-127781000D01*
X119204280Y-127623431D01*
X119326286Y-127501425D01*
X154583000Y-127501425D01*
X154583000Y-128022575D01*
X154782436Y-128504055D01*
X155150945Y-128872564D01*
X155632425Y-129072000D01*
X156153575Y-129072000D01*
X156635055Y-128872564D01*
X156893000Y-128614619D01*
X157150945Y-128872564D01*
X157632425Y-129072000D01*
X158153575Y-129072000D01*
X158635055Y-128872564D01*
X158701158Y-128806461D01*
X158760191Y-128894809D01*
X158970235Y-129035157D01*
X159218000Y-129084440D01*
X160568000Y-129084440D01*
X160815765Y-129035157D01*
X161025809Y-128894809D01*
X161166157Y-128684765D01*
X161215440Y-128437000D01*
X161215440Y-127087000D01*
X161166157Y-126839235D01*
X161025809Y-126629191D01*
X160815765Y-126488843D01*
X160568000Y-126439560D01*
X159218000Y-126439560D01*
X158970235Y-126488843D01*
X158760191Y-126629191D01*
X158701158Y-126717539D01*
X158635055Y-126651436D01*
X158153575Y-126452000D01*
X157632425Y-126452000D01*
X157150945Y-126651436D01*
X156893000Y-126909381D01*
X156635055Y-126651436D01*
X156153575Y-126452000D01*
X155632425Y-126452000D01*
X155150945Y-126651436D01*
X154782436Y-127019945D01*
X154583000Y-127501425D01*
X119326286Y-127501425D01*
X119495431Y-127332280D01*
X119653000Y-126951874D01*
X119653000Y-126540126D01*
X119495431Y-126159720D01*
X119204280Y-125868569D01*
X118823874Y-125711000D01*
X118412126Y-125711000D01*
X118031720Y-125868569D01*
X117740569Y-126159720D01*
X117583000Y-126540126D01*
X114130010Y-126540126D01*
X114282000Y-126173191D01*
X114282000Y-125761443D01*
X114178811Y-125512322D01*
X114319000Y-125173874D01*
X114319000Y-124762126D01*
X114161431Y-124381720D01*
X114033837Y-124254126D01*
X121393000Y-124254126D01*
X121393000Y-124665874D01*
X121550569Y-125046280D01*
X121841720Y-125337431D01*
X122222126Y-125495000D01*
X122633874Y-125495000D01*
X123014280Y-125337431D01*
X123305431Y-125046280D01*
X123463000Y-124665874D01*
X123463000Y-124254126D01*
X123305431Y-123873720D01*
X123014280Y-123582569D01*
X122633874Y-123425000D01*
X122222126Y-123425000D01*
X121841720Y-123582569D01*
X121550569Y-123873720D01*
X121393000Y-124254126D01*
X114033837Y-124254126D01*
X113870280Y-124090569D01*
X113489874Y-123933000D01*
X113078126Y-123933000D01*
X112697720Y-124090569D01*
X112406569Y-124381720D01*
X112249000Y-124762126D01*
X112249000Y-125173874D01*
X112352189Y-125422995D01*
X112212000Y-125761443D01*
X107207000Y-125761443D01*
X107207000Y-125524126D01*
X107049431Y-125143720D01*
X106758280Y-124852569D01*
X106377874Y-124695000D01*
X105966126Y-124695000D01*
X105585720Y-124852569D01*
X105294569Y-125143720D01*
X105137000Y-125524126D01*
X104285585Y-125524126D01*
X104509431Y-125300280D01*
X104667000Y-124919874D01*
X104667000Y-124508126D01*
X104509431Y-124127720D01*
X104218280Y-123836569D01*
X103837874Y-123679000D01*
X103426126Y-123679000D01*
X103120710Y-123805507D01*
X102826527Y-123683653D01*
X102414779Y-123683653D01*
X102034373Y-123841222D01*
X101797401Y-124078194D01*
X101710778Y-123869067D01*
X101419627Y-123577916D01*
X101039221Y-123420347D01*
X100627473Y-123420347D01*
X100247067Y-123577916D01*
X99955916Y-123869067D01*
X99798347Y-124249473D01*
X84478238Y-124249473D01*
X84697431Y-124030280D01*
X84855000Y-123649874D01*
X84855000Y-123238126D01*
X84697431Y-122857720D01*
X84406280Y-122566569D01*
X84025874Y-122409000D01*
X83614126Y-122409000D01*
X83233720Y-122566569D01*
X82942569Y-122857720D01*
X82785000Y-123238126D01*
X80230395Y-123238126D01*
X80125431Y-122984720D01*
X79834280Y-122693569D01*
X79453874Y-122536000D01*
X79042126Y-122536000D01*
X78661720Y-122693569D01*
X78370569Y-122984720D01*
X78213000Y-123365126D01*
X74825000Y-123365126D01*
X74825000Y-122956119D01*
X74612320Y-122442663D01*
X74219337Y-122049680D01*
X74012487Y-121964000D01*
X74219337Y-121878320D01*
X74431657Y-121666000D01*
X98053908Y-121666000D01*
X98169161Y-122245418D01*
X98497375Y-122736625D01*
X98988582Y-123064839D01*
X99421744Y-123151000D01*
X99714256Y-123151000D01*
X100147418Y-123064839D01*
X100638625Y-122736625D01*
X100966839Y-122245418D01*
X101082092Y-121666000D01*
X101041142Y-121460126D01*
X101835000Y-121460126D01*
X101835000Y-121871874D01*
X101992569Y-122252280D01*
X102283720Y-122543431D01*
X102664126Y-122701000D01*
X103075874Y-122701000D01*
X103456280Y-122543431D01*
X103747431Y-122252280D01*
X103812526Y-122095126D01*
X106661000Y-122095126D01*
X106661000Y-122506874D01*
X106818569Y-122887280D01*
X107109720Y-123178431D01*
X107490126Y-123336000D01*
X107901874Y-123336000D01*
X108282280Y-123178431D01*
X108573431Y-122887280D01*
X108731000Y-122506874D01*
X108731000Y-122095126D01*
X108573431Y-121714720D01*
X108318837Y-121460126D01*
X113392000Y-121460126D01*
X113392000Y-121871874D01*
X113549569Y-122252280D01*
X113840720Y-122543431D01*
X114221126Y-122701000D01*
X114632874Y-122701000D01*
X115013280Y-122543431D01*
X115262286Y-122294425D01*
X154583000Y-122294425D01*
X154583000Y-122815575D01*
X154782436Y-123297055D01*
X155150945Y-123665564D01*
X155632425Y-123865000D01*
X156153575Y-123865000D01*
X156635055Y-123665564D01*
X156893000Y-123407619D01*
X157150945Y-123665564D01*
X157632425Y-123865000D01*
X158153575Y-123865000D01*
X158635055Y-123665564D01*
X158701158Y-123599461D01*
X158760191Y-123687809D01*
X158970235Y-123828157D01*
X159218000Y-123877440D01*
X160568000Y-123877440D01*
X160815765Y-123828157D01*
X161025809Y-123687809D01*
X161166157Y-123477765D01*
X161215440Y-123230000D01*
X161215440Y-121880000D01*
X161166157Y-121632235D01*
X161025809Y-121422191D01*
X160815765Y-121281843D01*
X160568000Y-121232560D01*
X159218000Y-121232560D01*
X158970235Y-121281843D01*
X158760191Y-121422191D01*
X158701158Y-121510539D01*
X158635055Y-121444436D01*
X158153575Y-121245000D01*
X157632425Y-121245000D01*
X157150945Y-121444436D01*
X156893000Y-121702381D01*
X156635055Y-121444436D01*
X156153575Y-121245000D01*
X155632425Y-121245000D01*
X155150945Y-121444436D01*
X154782436Y-121812945D01*
X154583000Y-122294425D01*
X115262286Y-122294425D01*
X115304431Y-122252280D01*
X115462000Y-121871874D01*
X115462000Y-121460126D01*
X115304431Y-121079720D01*
X115013280Y-120788569D01*
X114632874Y-120631000D01*
X114221126Y-120631000D01*
X113840720Y-120788569D01*
X113549569Y-121079720D01*
X113392000Y-121460126D01*
X108318837Y-121460126D01*
X108282280Y-121423569D01*
X107901874Y-121266000D01*
X107490126Y-121266000D01*
X107109720Y-121423569D01*
X106818569Y-121714720D01*
X106661000Y-122095126D01*
X103812526Y-122095126D01*
X103905000Y-121871874D01*
X103905000Y-121460126D01*
X103747431Y-121079720D01*
X103456280Y-120788569D01*
X103075874Y-120631000D01*
X102664126Y-120631000D01*
X102283720Y-120788569D01*
X101992569Y-121079720D01*
X101835000Y-121460126D01*
X101041142Y-121460126D01*
X100966839Y-121086582D01*
X100638625Y-120595375D01*
X100620381Y-120583184D01*
X100665765Y-120574157D01*
X100875809Y-120433809D01*
X101016157Y-120223765D01*
X101065440Y-119976000D01*
X101065440Y-118276000D01*
X101016157Y-118028235D01*
X100875809Y-117818191D01*
X100665765Y-117677843D01*
X100418000Y-117628560D01*
X98718000Y-117628560D01*
X98470235Y-117677843D01*
X98260191Y-117818191D01*
X98119843Y-118028235D01*
X98070560Y-118276000D01*
X98070560Y-119976000D01*
X98119843Y-120223765D01*
X98260191Y-120433809D01*
X98470235Y-120574157D01*
X98515619Y-120583184D01*
X98497375Y-120595375D01*
X98169161Y-121086582D01*
X98053908Y-121666000D01*
X74431657Y-121666000D01*
X74612320Y-121485337D01*
X74825000Y-120971881D01*
X74825000Y-120416119D01*
X74612320Y-119902663D01*
X74219337Y-119509680D01*
X74012487Y-119424000D01*
X74219337Y-119338320D01*
X74612320Y-118945337D01*
X74825000Y-118431881D01*
X74825000Y-117876119D01*
X74783996Y-117777126D01*
X79878000Y-117777126D01*
X79878000Y-118188874D01*
X80035569Y-118569280D01*
X80326720Y-118860431D01*
X80707126Y-119018000D01*
X81118874Y-119018000D01*
X81499280Y-118860431D01*
X81790431Y-118569280D01*
X81948000Y-118188874D01*
X81948000Y-117904126D01*
X86595000Y-117904126D01*
X86595000Y-118315874D01*
X86752569Y-118696280D01*
X87043720Y-118987431D01*
X87424126Y-119145000D01*
X87835874Y-119145000D01*
X88216280Y-118987431D01*
X88507431Y-118696280D01*
X88665000Y-118315874D01*
X88665000Y-117904126D01*
X88507431Y-117523720D01*
X88216280Y-117232569D01*
X87835874Y-117075000D01*
X87424126Y-117075000D01*
X87043720Y-117232569D01*
X86752569Y-117523720D01*
X86595000Y-117904126D01*
X81948000Y-117904126D01*
X81948000Y-117777126D01*
X81790431Y-117396720D01*
X81499280Y-117105569D01*
X81118874Y-116948000D01*
X80707126Y-116948000D01*
X80326720Y-117105569D01*
X80035569Y-117396720D01*
X79878000Y-117777126D01*
X74783996Y-117777126D01*
X74612320Y-117362663D01*
X74219337Y-116969680D01*
X74012487Y-116884000D01*
X74219337Y-116798320D01*
X74612320Y-116405337D01*
X74659265Y-116292000D01*
X118946560Y-116292000D01*
X118946560Y-117642000D01*
X118995843Y-117889765D01*
X119136191Y-118099809D01*
X119346235Y-118240157D01*
X119594000Y-118289440D01*
X120944000Y-118289440D01*
X121191765Y-118240157D01*
X121401809Y-118099809D01*
X121542157Y-117889765D01*
X121591440Y-117642000D01*
X121591440Y-117087425D01*
X154583000Y-117087425D01*
X154583000Y-117608575D01*
X154782436Y-118090055D01*
X155150945Y-118458564D01*
X155632425Y-118658000D01*
X156153575Y-118658000D01*
X156635055Y-118458564D01*
X156893000Y-118200619D01*
X157150945Y-118458564D01*
X157632425Y-118658000D01*
X158153575Y-118658000D01*
X158635055Y-118458564D01*
X158701158Y-118392461D01*
X158760191Y-118480809D01*
X158970235Y-118621157D01*
X159218000Y-118670440D01*
X160568000Y-118670440D01*
X160815765Y-118621157D01*
X161025809Y-118480809D01*
X161166157Y-118270765D01*
X161215440Y-118023000D01*
X161215440Y-116673000D01*
X161166157Y-116425235D01*
X161025809Y-116215191D01*
X160815765Y-116074843D01*
X160568000Y-116025560D01*
X159218000Y-116025560D01*
X158970235Y-116074843D01*
X158760191Y-116215191D01*
X158701158Y-116303539D01*
X158635055Y-116237436D01*
X158153575Y-116038000D01*
X157632425Y-116038000D01*
X157150945Y-116237436D01*
X156893000Y-116495381D01*
X156635055Y-116237436D01*
X156153575Y-116038000D01*
X155632425Y-116038000D01*
X155150945Y-116237436D01*
X154782436Y-116605945D01*
X154583000Y-117087425D01*
X121591440Y-117087425D01*
X121591440Y-116292000D01*
X121542157Y-116044235D01*
X121401809Y-115834191D01*
X121313461Y-115775158D01*
X121379564Y-115709055D01*
X121579000Y-115227575D01*
X121579000Y-114706425D01*
X121379564Y-114224945D01*
X121121619Y-113967000D01*
X121379564Y-113709055D01*
X121579000Y-113227575D01*
X121579000Y-112706425D01*
X121379564Y-112224945D01*
X121121619Y-111967000D01*
X121208194Y-111880425D01*
X154583000Y-111880425D01*
X154583000Y-112401575D01*
X154782436Y-112883055D01*
X155150945Y-113251564D01*
X155632425Y-113451000D01*
X156153575Y-113451000D01*
X156635055Y-113251564D01*
X156893000Y-112993619D01*
X157150945Y-113251564D01*
X157632425Y-113451000D01*
X158153575Y-113451000D01*
X158635055Y-113251564D01*
X158701158Y-113185461D01*
X158760191Y-113273809D01*
X158970235Y-113414157D01*
X159218000Y-113463440D01*
X160568000Y-113463440D01*
X160815765Y-113414157D01*
X161025809Y-113273809D01*
X161166157Y-113063765D01*
X161215440Y-112816000D01*
X161215440Y-111466000D01*
X161166157Y-111218235D01*
X161025809Y-111008191D01*
X160815765Y-110867843D01*
X160568000Y-110818560D01*
X159218000Y-110818560D01*
X158970235Y-110867843D01*
X158760191Y-111008191D01*
X158701158Y-111096539D01*
X158635055Y-111030436D01*
X158153575Y-110831000D01*
X157632425Y-110831000D01*
X157150945Y-111030436D01*
X156893000Y-111288381D01*
X156635055Y-111030436D01*
X156153575Y-110831000D01*
X155632425Y-110831000D01*
X155150945Y-111030436D01*
X154782436Y-111398945D01*
X154583000Y-111880425D01*
X121208194Y-111880425D01*
X121379564Y-111709055D01*
X121579000Y-111227575D01*
X121579000Y-110706425D01*
X121379564Y-110224945D01*
X121011055Y-109856436D01*
X120529575Y-109657000D01*
X120008425Y-109657000D01*
X119526945Y-109856436D01*
X119158436Y-110224945D01*
X118959000Y-110706425D01*
X118959000Y-111227575D01*
X119158436Y-111709055D01*
X119416381Y-111967000D01*
X119158436Y-112224945D01*
X118959000Y-112706425D01*
X118959000Y-113227575D01*
X119158436Y-113709055D01*
X119416381Y-113967000D01*
X119158436Y-114224945D01*
X118959000Y-114706425D01*
X118959000Y-115227575D01*
X119158436Y-115709055D01*
X119224539Y-115775158D01*
X119136191Y-115834191D01*
X118995843Y-116044235D01*
X118946560Y-116292000D01*
X74659265Y-116292000D01*
X74825000Y-115891881D01*
X74825000Y-115336119D01*
X74612320Y-114822663D01*
X74391783Y-114602126D01*
X79878000Y-114602126D01*
X79878000Y-115013874D01*
X80035569Y-115394280D01*
X80326720Y-115685431D01*
X80707126Y-115843000D01*
X81118874Y-115843000D01*
X81499280Y-115685431D01*
X81790431Y-115394280D01*
X81948000Y-115013874D01*
X81948000Y-114602126D01*
X86341000Y-114602126D01*
X86341000Y-115013874D01*
X86498569Y-115394280D01*
X86789720Y-115685431D01*
X87170126Y-115843000D01*
X87581874Y-115843000D01*
X87962280Y-115685431D01*
X88253431Y-115394280D01*
X88411000Y-115013874D01*
X88411000Y-114602126D01*
X88253431Y-114221720D01*
X87962280Y-113930569D01*
X87581874Y-113773000D01*
X87170126Y-113773000D01*
X86789720Y-113930569D01*
X86498569Y-114221720D01*
X86341000Y-114602126D01*
X81948000Y-114602126D01*
X81790431Y-114221720D01*
X81499280Y-113930569D01*
X81118874Y-113773000D01*
X80707126Y-113773000D01*
X80326720Y-113930569D01*
X80035569Y-114221720D01*
X79878000Y-114602126D01*
X74391783Y-114602126D01*
X74219337Y-114429680D01*
X74012487Y-114344000D01*
X74219337Y-114258320D01*
X74612320Y-113865337D01*
X74825000Y-113351881D01*
X74825000Y-113332126D01*
X113773000Y-113332126D01*
X113773000Y-113743874D01*
X113930569Y-114124280D01*
X114221720Y-114415431D01*
X114602126Y-114573000D01*
X115013874Y-114573000D01*
X115394280Y-114415431D01*
X115685431Y-114124280D01*
X115843000Y-113743874D01*
X115843000Y-113332126D01*
X115685431Y-112951720D01*
X115394280Y-112660569D01*
X115013874Y-112503000D01*
X114602126Y-112503000D01*
X114221720Y-112660569D01*
X113930569Y-112951720D01*
X113773000Y-113332126D01*
X74825000Y-113332126D01*
X74825000Y-112796119D01*
X74612320Y-112282663D01*
X74219337Y-111889680D01*
X74012487Y-111804000D01*
X74219337Y-111718320D01*
X74510531Y-111427126D01*
X79878000Y-111427126D01*
X79878000Y-111838874D01*
X80035569Y-112219280D01*
X80326720Y-112510431D01*
X80707126Y-112668000D01*
X81118874Y-112668000D01*
X81499280Y-112510431D01*
X81790431Y-112219280D01*
X81948000Y-111838874D01*
X81948000Y-111427126D01*
X81895395Y-111300126D01*
X86341000Y-111300126D01*
X86341000Y-111711874D01*
X86498569Y-112092280D01*
X86789720Y-112383431D01*
X87170126Y-112541000D01*
X87581874Y-112541000D01*
X87962280Y-112383431D01*
X88253431Y-112092280D01*
X88411000Y-111711874D01*
X88411000Y-111300126D01*
X88253431Y-110919720D01*
X87962280Y-110628569D01*
X87581874Y-110471000D01*
X87170126Y-110471000D01*
X86789720Y-110628569D01*
X86498569Y-110919720D01*
X86341000Y-111300126D01*
X81895395Y-111300126D01*
X81790431Y-111046720D01*
X81499280Y-110755569D01*
X81118874Y-110598000D01*
X80707126Y-110598000D01*
X80326720Y-110755569D01*
X80035569Y-111046720D01*
X79878000Y-111427126D01*
X74510531Y-111427126D01*
X74612320Y-111325337D01*
X74825000Y-110811881D01*
X74825000Y-110256119D01*
X74626181Y-109776126D01*
X102089000Y-109776126D01*
X102089000Y-110187874D01*
X102246569Y-110568280D01*
X102537720Y-110859431D01*
X102918126Y-111017000D01*
X103329874Y-111017000D01*
X103710280Y-110859431D01*
X104001431Y-110568280D01*
X104159000Y-110187874D01*
X104159000Y-109776126D01*
X104001431Y-109395720D01*
X104000837Y-109395126D01*
X108947000Y-109395126D01*
X108947000Y-109806874D01*
X109104569Y-110187280D01*
X109395720Y-110478431D01*
X109776126Y-110636000D01*
X109896289Y-110636000D01*
X109866569Y-110665720D01*
X109709000Y-111046126D01*
X109709000Y-111457874D01*
X109866569Y-111838280D01*
X110157720Y-112129431D01*
X110538126Y-112287000D01*
X110949874Y-112287000D01*
X111330280Y-112129431D01*
X111621431Y-111838280D01*
X111779000Y-111457874D01*
X111779000Y-111046126D01*
X111621431Y-110665720D01*
X111330280Y-110374569D01*
X110949874Y-110217000D01*
X110829711Y-110217000D01*
X110859431Y-110187280D01*
X111017000Y-109806874D01*
X111017000Y-109395126D01*
X110859431Y-109014720D01*
X110568280Y-108723569D01*
X110187874Y-108566000D01*
X109776126Y-108566000D01*
X109395720Y-108723569D01*
X109104569Y-109014720D01*
X108947000Y-109395126D01*
X104000837Y-109395126D01*
X103710280Y-109104569D01*
X103329874Y-108947000D01*
X102918126Y-108947000D01*
X102537720Y-109104569D01*
X102246569Y-109395720D01*
X102089000Y-109776126D01*
X74626181Y-109776126D01*
X74612320Y-109742663D01*
X74219337Y-109349680D01*
X74012487Y-109264000D01*
X74219337Y-109178320D01*
X74612320Y-108785337D01*
X74825000Y-108271881D01*
X74825000Y-107716119D01*
X74612320Y-107202663D01*
X74518783Y-107109126D01*
X92945000Y-107109126D01*
X92945000Y-107520874D01*
X93102569Y-107901280D01*
X93393720Y-108192431D01*
X93774126Y-108350000D01*
X94185874Y-108350000D01*
X94566280Y-108192431D01*
X94857431Y-107901280D01*
X95015000Y-107520874D01*
X95015000Y-107109126D01*
X96247000Y-107109126D01*
X96247000Y-107520874D01*
X96404569Y-107901280D01*
X96695720Y-108192431D01*
X97076126Y-108350000D01*
X97487874Y-108350000D01*
X97868280Y-108192431D01*
X98159431Y-107901280D01*
X98317000Y-107520874D01*
X98317000Y-107109126D01*
X99803000Y-107109126D01*
X99803000Y-107520874D01*
X99960569Y-107901280D01*
X100251720Y-108192431D01*
X100632126Y-108350000D01*
X101043874Y-108350000D01*
X101424280Y-108192431D01*
X101715431Y-107901280D01*
X101873000Y-107520874D01*
X101873000Y-107109126D01*
X101715431Y-106728720D01*
X101424280Y-106437569D01*
X101043874Y-106280000D01*
X100632126Y-106280000D01*
X100251720Y-106437569D01*
X99960569Y-106728720D01*
X99803000Y-107109126D01*
X98317000Y-107109126D01*
X98159431Y-106728720D01*
X97868280Y-106437569D01*
X97487874Y-106280000D01*
X97076126Y-106280000D01*
X96695720Y-106437569D01*
X96404569Y-106728720D01*
X96247000Y-107109126D01*
X95015000Y-107109126D01*
X94857431Y-106728720D01*
X94566280Y-106437569D01*
X94185874Y-106280000D01*
X93774126Y-106280000D01*
X93393720Y-106437569D01*
X93102569Y-106728720D01*
X92945000Y-107109126D01*
X74518783Y-107109126D01*
X74219337Y-106809680D01*
X74012487Y-106724000D01*
X74219337Y-106638320D01*
X74612320Y-106245337D01*
X74622762Y-106220126D01*
X113392000Y-106220126D01*
X113392000Y-106631874D01*
X113549569Y-107012280D01*
X113840720Y-107303431D01*
X114221126Y-107461000D01*
X114632874Y-107461000D01*
X115013280Y-107303431D01*
X115304431Y-107012280D01*
X115462000Y-106631874D01*
X115462000Y-106220126D01*
X115304431Y-105839720D01*
X115013280Y-105548569D01*
X114632874Y-105391000D01*
X114221126Y-105391000D01*
X113840720Y-105548569D01*
X113549569Y-105839720D01*
X113392000Y-106220126D01*
X74622762Y-106220126D01*
X74825000Y-105731881D01*
X74825000Y-105176119D01*
X74612320Y-104662663D01*
X74219337Y-104269680D01*
X74012487Y-104184000D01*
X74219337Y-104098320D01*
X74612320Y-103705337D01*
X74763861Y-103339483D01*
X120544357Y-103339483D01*
X120544357Y-103751231D01*
X120701926Y-104131637D01*
X120993077Y-104422788D01*
X121139000Y-104483231D01*
X121139000Y-104508014D01*
X121079720Y-104532569D01*
X120788569Y-104823720D01*
X120631000Y-105204126D01*
X120631000Y-105615874D01*
X120788569Y-105996280D01*
X121079720Y-106287431D01*
X121460126Y-106445000D01*
X121871874Y-106445000D01*
X122155000Y-106327726D01*
X122155000Y-106631874D01*
X122312569Y-107012280D01*
X122603720Y-107303431D01*
X122984126Y-107461000D01*
X123395874Y-107461000D01*
X123776280Y-107303431D01*
X124067431Y-107012280D01*
X124207789Y-106673425D01*
X154583000Y-106673425D01*
X154583000Y-107194575D01*
X154782436Y-107676055D01*
X155150945Y-108044564D01*
X155632425Y-108244000D01*
X156153575Y-108244000D01*
X156635055Y-108044564D01*
X156893000Y-107786619D01*
X157150945Y-108044564D01*
X157632425Y-108244000D01*
X158153575Y-108244000D01*
X158635055Y-108044564D01*
X158701158Y-107978461D01*
X158760191Y-108066809D01*
X158970235Y-108207157D01*
X159218000Y-108256440D01*
X160568000Y-108256440D01*
X160815765Y-108207157D01*
X161025809Y-108066809D01*
X161166157Y-107856765D01*
X161215440Y-107609000D01*
X161215440Y-106259000D01*
X161166157Y-106011235D01*
X161025809Y-105801191D01*
X160815765Y-105660843D01*
X160568000Y-105611560D01*
X159218000Y-105611560D01*
X158970235Y-105660843D01*
X158760191Y-105801191D01*
X158701158Y-105889539D01*
X158635055Y-105823436D01*
X158153575Y-105624000D01*
X157632425Y-105624000D01*
X157150945Y-105823436D01*
X156893000Y-106081381D01*
X156635055Y-105823436D01*
X156153575Y-105624000D01*
X155632425Y-105624000D01*
X155150945Y-105823436D01*
X154782436Y-106191945D01*
X154583000Y-106673425D01*
X124207789Y-106673425D01*
X124225000Y-106631874D01*
X124225000Y-106220126D01*
X124067431Y-105839720D01*
X123776280Y-105548569D01*
X123395874Y-105391000D01*
X122984126Y-105391000D01*
X122701000Y-105508274D01*
X122701000Y-105295986D01*
X122760280Y-105271431D01*
X123051431Y-104980280D01*
X123209000Y-104599874D01*
X123209000Y-104188126D01*
X123051431Y-103807720D01*
X122760280Y-103516569D01*
X122732350Y-103505000D01*
X122760280Y-103493431D01*
X123051431Y-103202280D01*
X123209000Y-102821874D01*
X123209000Y-102410126D01*
X123083856Y-102108000D01*
X123209000Y-101805874D01*
X123209000Y-101466425D01*
X154583000Y-101466425D01*
X154583000Y-101987575D01*
X154782436Y-102469055D01*
X155150945Y-102837564D01*
X155632425Y-103037000D01*
X156153575Y-103037000D01*
X156635055Y-102837564D01*
X156893000Y-102579619D01*
X157150945Y-102837564D01*
X157632425Y-103037000D01*
X158153575Y-103037000D01*
X158635055Y-102837564D01*
X158701158Y-102771461D01*
X158760191Y-102859809D01*
X158970235Y-103000157D01*
X159218000Y-103049440D01*
X160568000Y-103049440D01*
X160815765Y-103000157D01*
X161025809Y-102859809D01*
X161166157Y-102649765D01*
X161215440Y-102402000D01*
X161215440Y-101052000D01*
X161166157Y-100804235D01*
X161025809Y-100594191D01*
X160815765Y-100453843D01*
X160568000Y-100404560D01*
X159218000Y-100404560D01*
X158970235Y-100453843D01*
X158760191Y-100594191D01*
X158701158Y-100682539D01*
X158635055Y-100616436D01*
X158153575Y-100417000D01*
X157632425Y-100417000D01*
X157150945Y-100616436D01*
X156893000Y-100874381D01*
X156635055Y-100616436D01*
X156153575Y-100417000D01*
X155632425Y-100417000D01*
X155150945Y-100616436D01*
X154782436Y-100984945D01*
X154583000Y-101466425D01*
X123209000Y-101466425D01*
X123209000Y-101394126D01*
X123051431Y-101013720D01*
X122760280Y-100722569D01*
X122379874Y-100565000D01*
X121968126Y-100565000D01*
X121587720Y-100722569D01*
X121296569Y-101013720D01*
X121139000Y-101394126D01*
X121139000Y-101805874D01*
X121264144Y-102108000D01*
X121139000Y-102410126D01*
X121139000Y-102607483D01*
X120993077Y-102667926D01*
X120701926Y-102959077D01*
X120544357Y-103339483D01*
X74763861Y-103339483D01*
X74825000Y-103191881D01*
X74825000Y-102636119D01*
X74612320Y-102122663D01*
X74219337Y-101729680D01*
X74012487Y-101644000D01*
X74219337Y-101558320D01*
X74612320Y-101165337D01*
X74825000Y-100651881D01*
X74825000Y-100096119D01*
X74612320Y-99582663D01*
X74219337Y-99189680D01*
X74012487Y-99104000D01*
X74219337Y-99018320D01*
X74612320Y-98625337D01*
X74825000Y-98111881D01*
X74825000Y-98092126D01*
X103359000Y-98092126D01*
X103359000Y-98503874D01*
X103516569Y-98884280D01*
X103807720Y-99175431D01*
X104188126Y-99333000D01*
X104599874Y-99333000D01*
X104980280Y-99175431D01*
X105271431Y-98884280D01*
X105429000Y-98503874D01*
X105429000Y-98273870D01*
X105561163Y-98219126D01*
X113646000Y-98219126D01*
X113646000Y-98630874D01*
X113803569Y-99011280D01*
X114094720Y-99302431D01*
X114475126Y-99460000D01*
X114886874Y-99460000D01*
X115267280Y-99302431D01*
X115558431Y-99011280D01*
X115716000Y-98630874D01*
X115716000Y-98512000D01*
X118946560Y-98512000D01*
X118946560Y-99862000D01*
X118995843Y-100109765D01*
X119136191Y-100319809D01*
X119346235Y-100460157D01*
X119594000Y-100509440D01*
X120944000Y-100509440D01*
X121191765Y-100460157D01*
X121401809Y-100319809D01*
X121542157Y-100109765D01*
X121591440Y-99862000D01*
X121591440Y-98512000D01*
X121542157Y-98264235D01*
X121401809Y-98054191D01*
X121313461Y-97995158D01*
X121379564Y-97929055D01*
X121579000Y-97447575D01*
X121579000Y-96926425D01*
X121379564Y-96444945D01*
X121121619Y-96187000D01*
X121379564Y-95929055D01*
X121579000Y-95447575D01*
X121579000Y-94926425D01*
X121379564Y-94444945D01*
X121121619Y-94187000D01*
X121379564Y-93929055D01*
X121579000Y-93447575D01*
X121579000Y-92926425D01*
X121379564Y-92444945D01*
X121011055Y-92076436D01*
X120529575Y-91877000D01*
X120008425Y-91877000D01*
X119526945Y-92076436D01*
X119158436Y-92444945D01*
X118959000Y-92926425D01*
X118959000Y-93447575D01*
X119158436Y-93929055D01*
X119416381Y-94187000D01*
X119158436Y-94444945D01*
X118959000Y-94926425D01*
X118959000Y-95447575D01*
X119158436Y-95929055D01*
X119416381Y-96187000D01*
X119158436Y-96444945D01*
X118959000Y-96926425D01*
X118959000Y-97447575D01*
X119158436Y-97929055D01*
X119224539Y-97995158D01*
X119136191Y-98054191D01*
X118995843Y-98264235D01*
X118946560Y-98512000D01*
X115716000Y-98512000D01*
X115716000Y-98219126D01*
X115558431Y-97838720D01*
X115267280Y-97547569D01*
X114886874Y-97390000D01*
X114475126Y-97390000D01*
X114094720Y-97547569D01*
X113803569Y-97838720D01*
X113646000Y-98219126D01*
X105561163Y-98219126D01*
X105705280Y-98159431D01*
X105996431Y-97868280D01*
X106154000Y-97487874D01*
X106154000Y-97076126D01*
X105996431Y-96695720D01*
X105705280Y-96404569D01*
X105324874Y-96247000D01*
X104913126Y-96247000D01*
X104532720Y-96404569D01*
X104241569Y-96695720D01*
X104084000Y-97076126D01*
X104084000Y-97306130D01*
X103807720Y-97420569D01*
X103516569Y-97711720D01*
X103359000Y-98092126D01*
X74825000Y-98092126D01*
X74825000Y-97556119D01*
X74612320Y-97042663D01*
X74219337Y-96649680D01*
X74012487Y-96564000D01*
X74219337Y-96478320D01*
X74612320Y-96085337D01*
X74825000Y-95571881D01*
X74825000Y-95016119D01*
X74612320Y-94502663D01*
X74219337Y-94109680D01*
X74022449Y-94028126D01*
X102851000Y-94028126D01*
X102851000Y-94439874D01*
X103008569Y-94820280D01*
X103299720Y-95111431D01*
X103680126Y-95269000D01*
X104091874Y-95269000D01*
X104401943Y-95140565D01*
X104700779Y-95264347D01*
X105112527Y-95264347D01*
X105492933Y-95106778D01*
X105784084Y-94815627D01*
X105941653Y-94435221D01*
X105941653Y-94282126D01*
X106915000Y-94282126D01*
X106915000Y-94693874D01*
X107072569Y-95074280D01*
X107363720Y-95365431D01*
X107744126Y-95523000D01*
X108155874Y-95523000D01*
X108536280Y-95365431D01*
X108827431Y-95074280D01*
X108985000Y-94693874D01*
X108985000Y-94282126D01*
X108827431Y-93901720D01*
X108536280Y-93610569D01*
X108155874Y-93453000D01*
X107744126Y-93453000D01*
X107363720Y-93610569D01*
X107072569Y-93901720D01*
X106915000Y-94282126D01*
X105941653Y-94282126D01*
X105941653Y-94023473D01*
X105784084Y-93643067D01*
X105492933Y-93351916D01*
X105112527Y-93194347D01*
X104700779Y-93194347D01*
X104390710Y-93322782D01*
X104091874Y-93199000D01*
X103680126Y-93199000D01*
X103299720Y-93356569D01*
X103008569Y-93647720D01*
X102851000Y-94028126D01*
X74022449Y-94028126D01*
X74012487Y-94024000D01*
X74219337Y-93938320D01*
X74612320Y-93545337D01*
X74825000Y-93031881D01*
X74825000Y-92476119D01*
X74612320Y-91962663D01*
X74219337Y-91569680D01*
X74022449Y-91488126D01*
X76181000Y-91488126D01*
X76181000Y-91899874D01*
X76338569Y-92280280D01*
X76629720Y-92571431D01*
X77010126Y-92729000D01*
X77421874Y-92729000D01*
X77802280Y-92571431D01*
X78093431Y-92280280D01*
X78251000Y-91899874D01*
X78251000Y-91488126D01*
X78093431Y-91107720D01*
X77802280Y-90816569D01*
X77421874Y-90659000D01*
X77010126Y-90659000D01*
X76629720Y-90816569D01*
X76338569Y-91107720D01*
X76181000Y-91488126D01*
X74022449Y-91488126D01*
X74012487Y-91484000D01*
X74219337Y-91398320D01*
X74612320Y-91005337D01*
X74825000Y-90491881D01*
X74825000Y-89936119D01*
X74612320Y-89422663D01*
X74219337Y-89029680D01*
X74012487Y-88944000D01*
X74219337Y-88858320D01*
X74612320Y-88465337D01*
X74622762Y-88440126D01*
X74657000Y-88440126D01*
X74657000Y-88851874D01*
X74814569Y-89232280D01*
X75105720Y-89523431D01*
X75486126Y-89681000D01*
X75897874Y-89681000D01*
X76278280Y-89523431D01*
X76569431Y-89232280D01*
X76727000Y-88851874D01*
X76727000Y-88440126D01*
X76569431Y-88059720D01*
X76278280Y-87768569D01*
X75897874Y-87611000D01*
X75486126Y-87611000D01*
X75105720Y-87768569D01*
X74814569Y-88059720D01*
X74657000Y-88440126D01*
X74622762Y-88440126D01*
X74825000Y-87951881D01*
X74825000Y-87463000D01*
X137869560Y-87463000D01*
X137869560Y-88813000D01*
X137918843Y-89060765D01*
X138059191Y-89270809D01*
X138147539Y-89329842D01*
X138081436Y-89395945D01*
X137882000Y-89877425D01*
X137882000Y-90398575D01*
X138081436Y-90880055D01*
X138339381Y-91138000D01*
X138081436Y-91395945D01*
X137882000Y-91877425D01*
X137882000Y-92398575D01*
X138081436Y-92880055D01*
X138339381Y-93138000D01*
X138081436Y-93395945D01*
X137882000Y-93877425D01*
X137882000Y-94398575D01*
X138081436Y-94880055D01*
X138339381Y-95138000D01*
X138081436Y-95395945D01*
X137882000Y-95877425D01*
X137882000Y-96398575D01*
X138081436Y-96880055D01*
X138339381Y-97138000D01*
X138081436Y-97395945D01*
X137882000Y-97877425D01*
X137882000Y-98398575D01*
X138081436Y-98880055D01*
X138449945Y-99248564D01*
X138931425Y-99448000D01*
X139452575Y-99448000D01*
X139934055Y-99248564D01*
X140302564Y-98880055D01*
X140502000Y-98398575D01*
X140502000Y-97877425D01*
X140302564Y-97395945D01*
X140044619Y-97138000D01*
X140302564Y-96880055D01*
X140502000Y-96398575D01*
X140502000Y-96259425D01*
X154583000Y-96259425D01*
X154583000Y-96780575D01*
X154782436Y-97262055D01*
X155150945Y-97630564D01*
X155632425Y-97830000D01*
X156153575Y-97830000D01*
X156635055Y-97630564D01*
X156893000Y-97372619D01*
X157150945Y-97630564D01*
X157632425Y-97830000D01*
X158153575Y-97830000D01*
X158635055Y-97630564D01*
X158701158Y-97564461D01*
X158760191Y-97652809D01*
X158970235Y-97793157D01*
X159218000Y-97842440D01*
X160568000Y-97842440D01*
X160815765Y-97793157D01*
X161025809Y-97652809D01*
X161166157Y-97442765D01*
X161215440Y-97195000D01*
X161215440Y-95845000D01*
X161166157Y-95597235D01*
X161025809Y-95387191D01*
X160815765Y-95246843D01*
X160568000Y-95197560D01*
X159218000Y-95197560D01*
X158970235Y-95246843D01*
X158760191Y-95387191D01*
X158701158Y-95475539D01*
X158635055Y-95409436D01*
X158153575Y-95210000D01*
X157632425Y-95210000D01*
X157150945Y-95409436D01*
X156893000Y-95667381D01*
X156635055Y-95409436D01*
X156153575Y-95210000D01*
X155632425Y-95210000D01*
X155150945Y-95409436D01*
X154782436Y-95777945D01*
X154583000Y-96259425D01*
X140502000Y-96259425D01*
X140502000Y-95877425D01*
X140302564Y-95395945D01*
X140044619Y-95138000D01*
X140302564Y-94880055D01*
X140502000Y-94398575D01*
X140502000Y-93877425D01*
X140302564Y-93395945D01*
X140044619Y-93138000D01*
X140302564Y-92880055D01*
X140502000Y-92398575D01*
X140502000Y-91877425D01*
X140302564Y-91395945D01*
X140044619Y-91138000D01*
X140130194Y-91052425D01*
X154583000Y-91052425D01*
X154583000Y-91573575D01*
X154782436Y-92055055D01*
X155150945Y-92423564D01*
X155632425Y-92623000D01*
X156153575Y-92623000D01*
X156635055Y-92423564D01*
X156893000Y-92165619D01*
X157150945Y-92423564D01*
X157632425Y-92623000D01*
X158153575Y-92623000D01*
X158635055Y-92423564D01*
X158701158Y-92357461D01*
X158760191Y-92445809D01*
X158970235Y-92586157D01*
X159218000Y-92635440D01*
X160568000Y-92635440D01*
X160815765Y-92586157D01*
X161025809Y-92445809D01*
X161166157Y-92235765D01*
X161215440Y-91988000D01*
X161215440Y-90638000D01*
X161166157Y-90390235D01*
X161025809Y-90180191D01*
X160815765Y-90039843D01*
X160568000Y-89990560D01*
X159218000Y-89990560D01*
X158970235Y-90039843D01*
X158760191Y-90180191D01*
X158701158Y-90268539D01*
X158635055Y-90202436D01*
X158153575Y-90003000D01*
X157632425Y-90003000D01*
X157150945Y-90202436D01*
X156893000Y-90460381D01*
X156635055Y-90202436D01*
X156153575Y-90003000D01*
X155632425Y-90003000D01*
X155150945Y-90202436D01*
X154782436Y-90570945D01*
X154583000Y-91052425D01*
X140130194Y-91052425D01*
X140302564Y-90880055D01*
X140502000Y-90398575D01*
X140502000Y-89877425D01*
X140302564Y-89395945D01*
X140236461Y-89329842D01*
X140324809Y-89270809D01*
X140465157Y-89060765D01*
X140514440Y-88813000D01*
X140514440Y-87463000D01*
X140465157Y-87215235D01*
X140324809Y-87005191D01*
X140114765Y-86864843D01*
X139867000Y-86815560D01*
X138517000Y-86815560D01*
X138269235Y-86864843D01*
X138059191Y-87005191D01*
X137918843Y-87215235D01*
X137869560Y-87463000D01*
X74825000Y-87463000D01*
X74825000Y-87396119D01*
X74612320Y-86882663D01*
X74219337Y-86489680D01*
X74012487Y-86404000D01*
X74219337Y-86318320D01*
X74612320Y-85925337D01*
X74825000Y-85411881D01*
X74825000Y-84856119D01*
X74612320Y-84342663D01*
X74219337Y-83949680D01*
X74012487Y-83864000D01*
X74219337Y-83778320D01*
X74612320Y-83385337D01*
X74825000Y-82871881D01*
X74825000Y-82316119D01*
X74612320Y-81802663D01*
X74219337Y-81409680D01*
X74012487Y-81324000D01*
X74219337Y-81238320D01*
X74612320Y-80845337D01*
X74825000Y-80331881D01*
X74825000Y-79776119D01*
X74731391Y-79550126D01*
X91040000Y-79550126D01*
X91040000Y-79961874D01*
X91197569Y-80342280D01*
X91488720Y-80633431D01*
X91869126Y-80791000D01*
X92280874Y-80791000D01*
X92661280Y-80633431D01*
X92952431Y-80342280D01*
X93110000Y-79961874D01*
X93110000Y-79550126D01*
X92952431Y-79169720D01*
X92661280Y-78878569D01*
X92280874Y-78721000D01*
X91869126Y-78721000D01*
X91488720Y-78878569D01*
X91197569Y-79169720D01*
X91040000Y-79550126D01*
X74731391Y-79550126D01*
X74612320Y-79262663D01*
X74259310Y-78909653D01*
X74437765Y-78874157D01*
X74647809Y-78733809D01*
X74788157Y-78523765D01*
X74836619Y-78280126D01*
X154159000Y-78280126D01*
X154159000Y-78691874D01*
X154316569Y-79072280D01*
X154607720Y-79363431D01*
X154988126Y-79521000D01*
X155399874Y-79521000D01*
X155780280Y-79363431D01*
X156071431Y-79072280D01*
X156229000Y-78691874D01*
X156229000Y-78280126D01*
X156071431Y-77899720D01*
X155780280Y-77608569D01*
X155399874Y-77451000D01*
X154988126Y-77451000D01*
X154607720Y-77608569D01*
X154316569Y-77899720D01*
X154159000Y-78280126D01*
X74836619Y-78280126D01*
X74837440Y-78276000D01*
X74837440Y-76752000D01*
X74788157Y-76504235D01*
X74647809Y-76294191D01*
X74437765Y-76153843D01*
X74190000Y-76104560D01*
X72666000Y-76104560D01*
X72418235Y-76153843D01*
X72208191Y-76294191D01*
X72067843Y-76504235D01*
X72032347Y-76682690D01*
X71679337Y-76329680D01*
X71165881Y-76117000D01*
X70610119Y-76117000D01*
X70096663Y-76329680D01*
X69703680Y-76722663D01*
X69491000Y-77236119D01*
X55853440Y-77236119D01*
X55853440Y-75858000D01*
X55804157Y-75610235D01*
X55663809Y-75400191D01*
X55453765Y-75259843D01*
X55206000Y-75210560D01*
X53506000Y-75210560D01*
X53258235Y-75259843D01*
X53060043Y-75392272D01*
X52651385Y-75223000D01*
X52060615Y-75223000D01*
X51514815Y-75449078D01*
X51097078Y-75866815D01*
X50871000Y-76412615D01*
X33273708Y-76412615D01*
X33993172Y-74544689D01*
X35324635Y-71506498D01*
X35345806Y-71463594D01*
X47261000Y-71463594D01*
X47261000Y-72412406D01*
X47624095Y-73288994D01*
X48295006Y-73959905D01*
X49171594Y-74323000D01*
X50120406Y-74323000D01*
X50996994Y-73959905D01*
X51667905Y-73288994D01*
X52031000Y-72412406D01*
X52031000Y-72020410D01*
X69023000Y-72020410D01*
X69023000Y-73267590D01*
X69500276Y-74419835D01*
X70382165Y-75301724D01*
X71534410Y-75779000D01*
X72781590Y-75779000D01*
X73933835Y-75301724D01*
X74815724Y-74419835D01*
X75293000Y-73267590D01*
X75293000Y-72020410D01*
X74815724Y-70868165D01*
X73972685Y-70025126D01*
X86087000Y-70025126D01*
X86087000Y-70436874D01*
X86244569Y-70817280D01*
X86535720Y-71108431D01*
X86916126Y-71266000D01*
X87327874Y-71266000D01*
X87708280Y-71108431D01*
X87863547Y-70953164D01*
X113362790Y-70953164D01*
X113362790Y-71364912D01*
X113520359Y-71745318D01*
X113811510Y-72036469D01*
X114191916Y-72194038D01*
X114603664Y-72194038D01*
X114984070Y-72036469D01*
X115000129Y-72020410D01*
X118023000Y-72020410D01*
X118023000Y-73267590D01*
X118500276Y-74419835D01*
X119382165Y-75301724D01*
X120534410Y-75779000D01*
X121781590Y-75779000D01*
X122933835Y-75301724D01*
X123815724Y-74419835D01*
X124293000Y-73267590D01*
X124293000Y-72020410D01*
X123815724Y-70868165D01*
X122933835Y-69986276D01*
X121781590Y-69509000D01*
X120534410Y-69509000D01*
X119382165Y-69986276D01*
X118500276Y-70868165D01*
X118023000Y-72020410D01*
X115000129Y-72020410D01*
X115275221Y-71745318D01*
X115432790Y-71364912D01*
X115432790Y-70953164D01*
X115275221Y-70572758D01*
X114984070Y-70281607D01*
X114603664Y-70124038D01*
X114191916Y-70124038D01*
X113811510Y-70281607D01*
X113520359Y-70572758D01*
X113362790Y-70953164D01*
X87863547Y-70953164D01*
X87999431Y-70817280D01*
X88157000Y-70436874D01*
X88157000Y-70025126D01*
X87999431Y-69644720D01*
X87708280Y-69353569D01*
X87327874Y-69196000D01*
X86916126Y-69196000D01*
X86535720Y-69353569D01*
X86244569Y-69644720D01*
X86087000Y-70025126D01*
X73972685Y-70025126D01*
X73933835Y-69986276D01*
X72781590Y-69509000D01*
X71534410Y-69509000D01*
X70382165Y-69986276D01*
X69500276Y-70868165D01*
X69023000Y-72020410D01*
X52031000Y-72020410D01*
X52031000Y-71463594D01*
X51667905Y-70587006D01*
X50996994Y-69916095D01*
X50120406Y-69553000D01*
X49171594Y-69553000D01*
X48295006Y-69916095D01*
X47624095Y-70587006D01*
X47261000Y-71463594D01*
X35345806Y-71463594D01*
X36792560Y-68531810D01*
X38393909Y-65626786D01*
X40125405Y-62797368D01*
X40681343Y-61975171D01*
X57125000Y-61975171D01*
X57125000Y-63500829D01*
X57708844Y-64910353D01*
X58787647Y-65989156D01*
X60197171Y-66573000D01*
X61722829Y-66573000D01*
X63132353Y-65989156D01*
X64211156Y-64910353D01*
X64795000Y-63500829D01*
X64795000Y-61975171D01*
X64604858Y-61516126D01*
X81007000Y-61516126D01*
X81007000Y-61927874D01*
X81164569Y-62308280D01*
X81455720Y-62599431D01*
X81836126Y-62757000D01*
X82247874Y-62757000D01*
X82628280Y-62599431D01*
X82919431Y-62308280D01*
X83057408Y-61975171D01*
X139675000Y-61975171D01*
X139675000Y-63500829D01*
X140258844Y-64910353D01*
X141337647Y-65989156D01*
X142747171Y-66573000D01*
X144272829Y-66573000D01*
X145682353Y-65989156D01*
X146761156Y-64910353D01*
X147345000Y-63500829D01*
X147345000Y-61975171D01*
X146761156Y-60565647D01*
X145682353Y-59486844D01*
X144272829Y-58903000D01*
X142747171Y-58903000D01*
X141337647Y-59486844D01*
X140258844Y-60565647D01*
X139675000Y-61975171D01*
X83057408Y-61975171D01*
X83077000Y-61927874D01*
X83077000Y-61516126D01*
X82919431Y-61135720D01*
X82628280Y-60844569D01*
X82247874Y-60687000D01*
X81836126Y-60687000D01*
X81455720Y-60844569D01*
X81164569Y-61135720D01*
X81007000Y-61516126D01*
X64604858Y-61516126D01*
X64211156Y-60565647D01*
X63132353Y-59486844D01*
X61722829Y-58903000D01*
X60197171Y-58903000D01*
X58787647Y-59486844D01*
X57708844Y-60565647D01*
X57125000Y-61975171D01*
X40681343Y-61975171D01*
X41983468Y-60049413D01*
X43964240Y-57388617D01*
X44882503Y-56265322D01*
X97559000Y-56265322D01*
X97559000Y-57114678D01*
X97884034Y-57899380D01*
X98484620Y-58499966D01*
X99269322Y-58825000D01*
X100118678Y-58825000D01*
X100903380Y-58499966D01*
X101503966Y-57899380D01*
X101761764Y-57277000D01*
X102409000Y-57277000D01*
X102409000Y-57577000D01*
X102608700Y-58326959D01*
X103080196Y-58943409D01*
X103751706Y-59332501D01*
X103958677Y-59386677D01*
X104267000Y-59271829D01*
X104267000Y-57277000D01*
X104521000Y-57277000D01*
X104521000Y-59271829D01*
X104829323Y-59386677D01*
X105036294Y-59332501D01*
X105707804Y-58943409D01*
X106179300Y-58326959D01*
X106379000Y-57577000D01*
X106379000Y-57277000D01*
X104521000Y-57277000D01*
X104267000Y-57277000D01*
X102409000Y-57277000D01*
X101761764Y-57277000D01*
X101829000Y-57114678D01*
X101829000Y-56723000D01*
X102409000Y-56723000D01*
X102409000Y-57023000D01*
X104267000Y-57023000D01*
X104267000Y-55028171D01*
X104521000Y-55028171D01*
X104521000Y-57023000D01*
X106379000Y-57023000D01*
X106379000Y-56723000D01*
X106360760Y-56654498D01*
X106609000Y-56654498D01*
X106609000Y-57645503D01*
X106724171Y-58224508D01*
X107162896Y-58881105D01*
X107819493Y-59319829D01*
X108594000Y-59473888D01*
X109368508Y-59319829D01*
X110025105Y-58881105D01*
X110463829Y-58224508D01*
X110579000Y-57645502D01*
X110579000Y-56654498D01*
X110809000Y-56654498D01*
X110809000Y-57645503D01*
X110924171Y-58224508D01*
X111362896Y-58881105D01*
X112019493Y-59319829D01*
X112794000Y-59473888D01*
X113568508Y-59319829D01*
X114225105Y-58881105D01*
X114663829Y-58224508D01*
X114779000Y-57645502D01*
X114779000Y-56654498D01*
X115009000Y-56654498D01*
X115009000Y-57645503D01*
X115124171Y-58224508D01*
X115562896Y-58881105D01*
X116219493Y-59319829D01*
X116994000Y-59473888D01*
X117768508Y-59319829D01*
X118425105Y-58881105D01*
X118863829Y-58224508D01*
X118979000Y-57645502D01*
X118979000Y-56654497D01*
X118901589Y-56265322D01*
X119559000Y-56265322D01*
X119559000Y-57114678D01*
X119884034Y-57899380D01*
X120484620Y-58499966D01*
X121269322Y-58825000D01*
X122118678Y-58825000D01*
X122903380Y-58499966D01*
X123503966Y-57899380D01*
X123829000Y-57114678D01*
X123829000Y-56265322D01*
X123503966Y-55480620D01*
X122903380Y-54880034D01*
X122118678Y-54555000D01*
X121269322Y-54555000D01*
X120484620Y-54880034D01*
X119884034Y-55480620D01*
X119559000Y-56265322D01*
X118901589Y-56265322D01*
X118863829Y-56075492D01*
X118425105Y-55418895D01*
X117768507Y-54980171D01*
X116994000Y-54826112D01*
X116219492Y-54980171D01*
X115562895Y-55418895D01*
X115124171Y-56075493D01*
X115009000Y-56654498D01*
X114779000Y-56654498D01*
X114779000Y-56654497D01*
X114663829Y-56075492D01*
X114225105Y-55418895D01*
X113568507Y-54980171D01*
X112794000Y-54826112D01*
X112019492Y-54980171D01*
X111362895Y-55418895D01*
X110924171Y-56075493D01*
X110809000Y-56654498D01*
X110579000Y-56654498D01*
X110579000Y-56654497D01*
X110463829Y-56075492D01*
X110025105Y-55418895D01*
X109368507Y-54980171D01*
X108594000Y-54826112D01*
X107819492Y-54980171D01*
X107162895Y-55418895D01*
X106724171Y-56075493D01*
X106609000Y-56654498D01*
X106360760Y-56654498D01*
X106179300Y-55973041D01*
X105707804Y-55356591D01*
X105036294Y-54967499D01*
X104829323Y-54913323D01*
X104521000Y-55028171D01*
X104267000Y-55028171D01*
X103958677Y-54913323D01*
X103751706Y-54967499D01*
X103080196Y-55356591D01*
X102608700Y-55973041D01*
X102409000Y-56723000D01*
X101829000Y-56723000D01*
X101829000Y-56265322D01*
X101503966Y-55480620D01*
X100903380Y-54880034D01*
X100118678Y-54555000D01*
X99269322Y-54555000D01*
X98484620Y-54880034D01*
X97884034Y-55480620D01*
X97559000Y-56265322D01*
X44882503Y-56265322D01*
X46063711Y-54820371D01*
X48277509Y-52350023D01*
X50297455Y-50292000D01*
X63614560Y-50292000D01*
X63614560Y-51816000D01*
X63663843Y-52063765D01*
X63804191Y-52273809D01*
X64014235Y-52414157D01*
X64262000Y-52463440D01*
X65786000Y-52463440D01*
X66033765Y-52414157D01*
X66243809Y-52273809D01*
X66384157Y-52063765D01*
X66390035Y-52034213D01*
X76923392Y-52034213D01*
X76992857Y-52276397D01*
X77516302Y-52463144D01*
X78071368Y-52435362D01*
X78455143Y-52276397D01*
X78524608Y-52034213D01*
X77724000Y-51233605D01*
X76923392Y-52034213D01*
X66390035Y-52034213D01*
X66433440Y-51816000D01*
X66433440Y-50846302D01*
X76314856Y-50846302D01*
X76342638Y-51401368D01*
X76501603Y-51785143D01*
X76743787Y-51854608D01*
X77544395Y-51054000D01*
X77903605Y-51054000D01*
X78704213Y-51854608D01*
X78946397Y-51785143D01*
X79133144Y-51261698D01*
X79105362Y-50706632D01*
X78946397Y-50322857D01*
X78704213Y-50253392D01*
X77903605Y-51054000D01*
X77544395Y-51054000D01*
X76743787Y-50253392D01*
X76501603Y-50322857D01*
X76314856Y-50846302D01*
X66433440Y-50846302D01*
X66433440Y-50292000D01*
X66390036Y-50073787D01*
X76923392Y-50073787D01*
X77724000Y-50874395D01*
X78524608Y-50073787D01*
X78503444Y-50000000D01*
X102396560Y-50000000D01*
X102396560Y-53300000D01*
X102445843Y-53547765D01*
X102586191Y-53757809D01*
X102796235Y-53898157D01*
X103044000Y-53947440D01*
X105744000Y-53947440D01*
X105991765Y-53898157D01*
X106201809Y-53757809D01*
X106342157Y-53547765D01*
X106391440Y-53300000D01*
X106391440Y-51154498D01*
X106609000Y-51154498D01*
X106609000Y-52145503D01*
X106724171Y-52724508D01*
X107162896Y-53381105D01*
X107819493Y-53819829D01*
X108594000Y-53973888D01*
X109368508Y-53819829D01*
X110025105Y-53381105D01*
X110463829Y-52724508D01*
X110579000Y-52145502D01*
X110579000Y-51154498D01*
X110809000Y-51154498D01*
X110809000Y-52145503D01*
X110924171Y-52724508D01*
X111362896Y-53381105D01*
X112019493Y-53819829D01*
X112794000Y-53973888D01*
X113568508Y-53819829D01*
X114225105Y-53381105D01*
X114663829Y-52724508D01*
X114779000Y-52145502D01*
X114779000Y-51154498D01*
X115009000Y-51154498D01*
X115009000Y-52145503D01*
X115124171Y-52724508D01*
X115562896Y-53381105D01*
X116219493Y-53819829D01*
X116994000Y-53973888D01*
X117768508Y-53819829D01*
X118425105Y-53381105D01*
X118863829Y-52724508D01*
X118979000Y-52145502D01*
X118979000Y-51154497D01*
X118863829Y-50575492D01*
X118425105Y-49918895D01*
X117768507Y-49480171D01*
X116994000Y-49326112D01*
X116219492Y-49480171D01*
X115562895Y-49918895D01*
X115124171Y-50575493D01*
X115009000Y-51154498D01*
X114779000Y-51154498D01*
X114779000Y-51154497D01*
X114663829Y-50575492D01*
X114225105Y-49918895D01*
X113568507Y-49480171D01*
X112794000Y-49326112D01*
X112019492Y-49480171D01*
X111362895Y-49918895D01*
X110924171Y-50575493D01*
X110809000Y-51154498D01*
X110579000Y-51154498D01*
X110579000Y-51154497D01*
X110463829Y-50575492D01*
X110025105Y-49918895D01*
X109368507Y-49480171D01*
X108594000Y-49326112D01*
X107819492Y-49480171D01*
X107162895Y-49918895D01*
X106724171Y-50575493D01*
X106609000Y-51154498D01*
X106391440Y-51154498D01*
X106391440Y-50000000D01*
X106342157Y-49752235D01*
X106201809Y-49542191D01*
X105991765Y-49401843D01*
X105744000Y-49352560D01*
X103044000Y-49352560D01*
X102796235Y-49401843D01*
X102586191Y-49542191D01*
X102445843Y-49752235D01*
X102396560Y-50000000D01*
X78503444Y-50000000D01*
X78455143Y-49831603D01*
X77931698Y-49644856D01*
X77376632Y-49672638D01*
X76992857Y-49831603D01*
X76923392Y-50073787D01*
X66390036Y-50073787D01*
X66384157Y-50044235D01*
X66243809Y-49834191D01*
X66033765Y-49693843D01*
X65786000Y-49644560D01*
X64262000Y-49644560D01*
X64014235Y-49693843D01*
X63804191Y-49834191D01*
X63663843Y-50044235D01*
X63614560Y-50292000D01*
X50297455Y-50292000D01*
X50601091Y-49982641D01*
X53029676Y-47723098D01*
X55558254Y-45576054D01*
X58181637Y-43545916D01*
X60894408Y-41636876D01*
X63690977Y-39852865D01*
X66565629Y-38197533D01*
X69512374Y-36674328D01*
X72525203Y-35286355D01*
X75597860Y-34036495D01*
X78724085Y-32927294D01*
X81897408Y-31961050D01*
X85111283Y-31139755D01*
X88359110Y-30465096D01*
X91634194Y-29938463D01*
X94929815Y-29560938D01*
X98239149Y-29333303D01*
X101555401Y-29256023D01*
X104871764Y-29329257D01*
X104871764Y-29329257D01*
G37*
X104871764Y-29329257D02*
X108181370Y-29552856D01*
X111477444Y-29926359D01*
X114753161Y-30448995D01*
X118001824Y-31119695D01*
X121216703Y-31937068D01*
X124391175Y-32899432D01*
X127518763Y-34004822D01*
X130592953Y-35250938D01*
X133607475Y-36635237D01*
X136556084Y-38154851D01*
X139432732Y-39806661D01*
X142231484Y-41587265D01*
X144946591Y-43493001D01*
X147572442Y-45519933D01*
X150103615Y-47663871D01*
X152534978Y-49920471D01*
X154861446Y-52285016D01*
X157078255Y-54752662D01*
X159180844Y-57318328D01*
X161164886Y-59976740D01*
X163026289Y-62722411D01*
X164761229Y-65549703D01*
X166366120Y-68452774D01*
X167837677Y-71425677D01*
X169172844Y-74462240D01*
X170368906Y-77556285D01*
X171423367Y-80701359D01*
X172334084Y-83891066D01*
X173099162Y-87118781D01*
X173717039Y-90377900D01*
X174186434Y-93661684D01*
X174506384Y-96963378D01*
X174676229Y-100276190D01*
X174695622Y-103593298D01*
X174564520Y-106907854D01*
X174283194Y-110213072D01*
X173852225Y-113502108D01*
X173272499Y-116768208D01*
X172545203Y-120004675D01*
X171671848Y-123204796D01*
X170654223Y-126362005D01*
X169494424Y-129469806D01*
X168194843Y-132521788D01*
X166758157Y-135511671D01*
X165187304Y-138433329D01*
X163485543Y-141280703D01*
X161656362Y-144047961D01*
X159703539Y-146729384D01*
X157631096Y-149319452D01*
X155443274Y-151812862D01*
X153144616Y-154204439D01*
X150739811Y-156489302D01*
X148233874Y-158662690D01*
X145631892Y-160720191D01*
X142939253Y-162657539D01*
X140161513Y-164470740D01*
X137304386Y-166156065D01*
X134373722Y-167710062D01*
X131375635Y-169129488D01*
X128316186Y-170411477D01*
X125424000Y-171471867D01*
X125424000Y-154884071D01*
X125463399Y-154686000D01*
X125406354Y-154399217D01*
X125243905Y-154156095D01*
X125000783Y-153993646D01*
X124786388Y-153951000D01*
X68507612Y-153951000D01*
X68293217Y-153993646D01*
X68050095Y-154156095D01*
X67887646Y-154399217D01*
X67830601Y-154686000D01*
X67870000Y-154884071D01*
X67870001Y-167202259D01*
X65973474Y-166199580D01*
X63114286Y-164517739D01*
X60334326Y-162707920D01*
X57639346Y-160773873D01*
X55034852Y-158719545D01*
X52526251Y-156549204D01*
X50118670Y-154267286D01*
X47876459Y-151940126D01*
X79991000Y-151940126D01*
X79991000Y-152351874D01*
X80148569Y-152732280D01*
X80439720Y-153023431D01*
X80820126Y-153181000D01*
X81231874Y-153181000D01*
X81612280Y-153023431D01*
X81903431Y-152732280D01*
X82061000Y-152351874D01*
X82061000Y-151940126D01*
X81955790Y-151686126D01*
X93199000Y-151686126D01*
X93199000Y-152097874D01*
X93356569Y-152478280D01*
X93647720Y-152769431D01*
X94028126Y-152927000D01*
X94439874Y-152927000D01*
X94820280Y-152769431D01*
X95111431Y-152478280D01*
X95269000Y-152097874D01*
X95269000Y-151686126D01*
X95111431Y-151305720D01*
X94820280Y-151014569D01*
X94439874Y-150857000D01*
X94028126Y-150857000D01*
X93647720Y-151014569D01*
X93356569Y-151305720D01*
X93199000Y-151686126D01*
X81955790Y-151686126D01*
X81903431Y-151559720D01*
X81612280Y-151268569D01*
X81231874Y-151111000D01*
X80820126Y-151111000D01*
X80439720Y-151268569D01*
X80148569Y-151559720D01*
X79991000Y-151940126D01*
X47876459Y-151940126D01*
X47817086Y-151878504D01*
X45626228Y-149387767D01*
X43550628Y-146800231D01*
X42852531Y-145844126D01*
X82531000Y-145844126D01*
X82531000Y-146255874D01*
X82688569Y-146636280D01*
X82979720Y-146927431D01*
X83360126Y-147085000D01*
X83771874Y-147085000D01*
X84152280Y-146927431D01*
X84443431Y-146636280D01*
X84601000Y-146255874D01*
X84601000Y-145844126D01*
X90659000Y-145844126D01*
X90659000Y-146255874D01*
X90816569Y-146636280D01*
X91107720Y-146927431D01*
X91488126Y-147085000D01*
X91899874Y-147085000D01*
X92280280Y-146927431D01*
X92571431Y-146636280D01*
X92729000Y-146255874D01*
X92729000Y-146081750D01*
X112053000Y-146081750D01*
X112053000Y-146772310D01*
X112149673Y-147005699D01*
X112328302Y-147184327D01*
X112561691Y-147281000D01*
X113252250Y-147281000D01*
X113411000Y-147122250D01*
X113411000Y-145923000D01*
X113665000Y-145923000D01*
X113665000Y-147122250D01*
X113823750Y-147281000D01*
X114514309Y-147281000D01*
X114747698Y-147184327D01*
X114926327Y-147005699D01*
X115023000Y-146772310D01*
X115023000Y-146081750D01*
X114864250Y-145923000D01*
X113665000Y-145923000D01*
X113411000Y-145923000D01*
X112211750Y-145923000D01*
X112053000Y-146081750D01*
X92729000Y-146081750D01*
X92729000Y-145844126D01*
X92571431Y-145463720D01*
X92280280Y-145172569D01*
X91899874Y-145015000D01*
X91488126Y-145015000D01*
X91107720Y-145172569D01*
X90816569Y-145463720D01*
X90659000Y-145844126D01*
X84601000Y-145844126D01*
X84443431Y-145463720D01*
X84152280Y-145172569D01*
X83771874Y-145015000D01*
X83360126Y-145015000D01*
X82979720Y-145172569D01*
X82688569Y-145463720D01*
X82531000Y-145844126D01*
X42852531Y-145844126D01*
X41594531Y-144121186D01*
X39761990Y-141356184D01*
X38056740Y-138510860D01*
X37875727Y-138175171D01*
X57125000Y-138175171D01*
X57125000Y-139700829D01*
X57708844Y-141110353D01*
X58787647Y-142189156D01*
X60197171Y-142773000D01*
X61722829Y-142773000D01*
X62280208Y-142542126D01*
X99750109Y-142542126D01*
X99750109Y-142953874D01*
X99907678Y-143334280D01*
X100198829Y-143625431D01*
X100579235Y-143783000D01*
X100990983Y-143783000D01*
X101319555Y-143646902D01*
X101648126Y-143783000D01*
X102059874Y-143783000D01*
X102440280Y-143625431D01*
X102731431Y-143334280D01*
X102889000Y-142953874D01*
X102889000Y-142542126D01*
X102731431Y-142161720D01*
X102440280Y-141870569D01*
X102059874Y-141713000D01*
X101648126Y-141713000D01*
X101319555Y-141849098D01*
X100990983Y-141713000D01*
X100579235Y-141713000D01*
X100198829Y-141870569D01*
X99907678Y-142161720D01*
X99750109Y-142542126D01*
X62280208Y-142542126D01*
X63132353Y-142189156D01*
X64211156Y-141110353D01*
X64670198Y-140002126D01*
X93800109Y-140002126D01*
X93800109Y-140413874D01*
X93957678Y-140794280D01*
X94248829Y-141085431D01*
X94629235Y-141243000D01*
X95040983Y-141243000D01*
X95421389Y-141085431D01*
X95712540Y-140794280D01*
X95870109Y-140413874D01*
X95870109Y-140002126D01*
X95712540Y-139621720D01*
X95421389Y-139330569D01*
X95040983Y-139173000D01*
X94629235Y-139173000D01*
X94248829Y-139330569D01*
X93957678Y-139621720D01*
X93800109Y-140002126D01*
X64670198Y-140002126D01*
X64795000Y-139700829D01*
X64795000Y-138175171D01*
X64710068Y-137970126D01*
X77959000Y-137970126D01*
X77959000Y-138381874D01*
X78116569Y-138762280D01*
X78407720Y-139053431D01*
X78788126Y-139211000D01*
X79199874Y-139211000D01*
X79580280Y-139053431D01*
X79871431Y-138762280D01*
X80029000Y-138381874D01*
X80029000Y-137970126D01*
X79894953Y-137646506D01*
X83959000Y-137646506D01*
X83959000Y-138197494D01*
X84169853Y-138706540D01*
X84559460Y-139096147D01*
X85068506Y-139307000D01*
X85619494Y-139307000D01*
X86128540Y-139096147D01*
X86518147Y-138706540D01*
X86729000Y-138197494D01*
X86729000Y-137646506D01*
X86662436Y-137485804D01*
X88650678Y-137485804D01*
X88650678Y-137897552D01*
X88808247Y-138277958D01*
X89099398Y-138569109D01*
X89479804Y-138726678D01*
X89891552Y-138726678D01*
X90271958Y-138569109D01*
X90432802Y-138408265D01*
X90589822Y-138473305D01*
X91001570Y-138473305D01*
X91381976Y-138315736D01*
X91673127Y-138024585D01*
X91830696Y-137644179D01*
X91830696Y-137232431D01*
X91673127Y-136852025D01*
X91381976Y-136560874D01*
X91001570Y-136403305D01*
X90589822Y-136403305D01*
X90209416Y-136560874D01*
X90048572Y-136721718D01*
X89891552Y-136656678D01*
X89479804Y-136656678D01*
X89099398Y-136814247D01*
X88808247Y-137105398D01*
X88650678Y-137485804D01*
X86662436Y-137485804D01*
X86518147Y-137137460D01*
X86128540Y-136747853D01*
X85619494Y-136537000D01*
X85068506Y-136537000D01*
X84559460Y-136747853D01*
X84169853Y-137137460D01*
X83959000Y-137646506D01*
X79894953Y-137646506D01*
X79871431Y-137589720D01*
X79580280Y-137298569D01*
X79199874Y-137141000D01*
X78788126Y-137141000D01*
X78407720Y-137298569D01*
X78116569Y-137589720D01*
X77959000Y-137970126D01*
X64710068Y-137970126D01*
X64211156Y-136765647D01*
X63637635Y-136192126D01*
X97263000Y-136192126D01*
X97263000Y-136603874D01*
X97420569Y-136984280D01*
X97711720Y-137275431D01*
X98092126Y-137433000D01*
X98503874Y-137433000D01*
X98884280Y-137275431D01*
X98937792Y-137221919D01*
X98944569Y-137238280D01*
X99235720Y-137529431D01*
X99616126Y-137687000D01*
X100027874Y-137687000D01*
X100408280Y-137529431D01*
X100699431Y-137238280D01*
X100857000Y-136857874D01*
X100857000Y-136446126D01*
X100699431Y-136065720D01*
X100408280Y-135774569D01*
X100027874Y-135617000D01*
X99616126Y-135617000D01*
X99235720Y-135774569D01*
X99182208Y-135828081D01*
X99175431Y-135811720D01*
X98884280Y-135520569D01*
X98503874Y-135363000D01*
X98092126Y-135363000D01*
X97711720Y-135520569D01*
X97420569Y-135811720D01*
X97263000Y-136192126D01*
X63637635Y-136192126D01*
X63132353Y-135686844D01*
X61722829Y-135103000D01*
X60197171Y-135103000D01*
X58787647Y-135686844D01*
X57708844Y-136765647D01*
X57125000Y-138175171D01*
X37875727Y-138175171D01*
X36482339Y-135591144D01*
X35041996Y-132603000D01*
X33938566Y-130020410D01*
X69023000Y-130020410D01*
X69023000Y-131267590D01*
X69500276Y-132419835D01*
X70382165Y-133301724D01*
X71534410Y-133779000D01*
X72781590Y-133779000D01*
X73933835Y-133301724D01*
X74345433Y-132890126D01*
X78213000Y-132890126D01*
X78213000Y-133301874D01*
X78370569Y-133682280D01*
X78661720Y-133973431D01*
X79042126Y-134131000D01*
X79453874Y-134131000D01*
X79834280Y-133973431D01*
X80125431Y-133682280D01*
X80283000Y-133301874D01*
X80283000Y-132890126D01*
X80231796Y-132766506D01*
X83959000Y-132766506D01*
X83959000Y-133317494D01*
X84169853Y-133826540D01*
X84559460Y-134216147D01*
X85068506Y-134427000D01*
X85619494Y-134427000D01*
X86128540Y-134216147D01*
X86518147Y-133826540D01*
X86729000Y-133317494D01*
X86729000Y-132861000D01*
X87073874Y-132861000D01*
X87454280Y-132703431D01*
X87745431Y-132412280D01*
X87866054Y-132121068D01*
X88627000Y-132121068D01*
X88627000Y-132532816D01*
X88784569Y-132913222D01*
X89075720Y-133204373D01*
X89456126Y-133361942D01*
X89867874Y-133361942D01*
X90248280Y-133204373D01*
X90539431Y-132913222D01*
X90697000Y-132532816D01*
X90697000Y-132509126D01*
X93453000Y-132509126D01*
X93453000Y-132920874D01*
X93610569Y-133301280D01*
X93901720Y-133592431D01*
X93929650Y-133604000D01*
X93901720Y-133615569D01*
X93610569Y-133906720D01*
X93453000Y-134287126D01*
X93453000Y-134698874D01*
X93610569Y-135079280D01*
X93901720Y-135370431D01*
X94282126Y-135528000D01*
X94693874Y-135528000D01*
X95074280Y-135370431D01*
X95365431Y-135079280D01*
X95523000Y-134698874D01*
X95523000Y-134541126D01*
X101073000Y-134541126D01*
X101073000Y-134952874D01*
X101230569Y-135333280D01*
X101521720Y-135624431D01*
X101902126Y-135782000D01*
X102313874Y-135782000D01*
X102694280Y-135624431D01*
X102888585Y-135430126D01*
X105391000Y-135430126D01*
X105391000Y-135841874D01*
X105548569Y-136222280D01*
X105839720Y-136513431D01*
X106220126Y-136671000D01*
X106631874Y-136671000D01*
X107012280Y-136513431D01*
X107303431Y-136222280D01*
X107461000Y-135841874D01*
X107461000Y-135430126D01*
X107303431Y-135049720D01*
X107012280Y-134758569D01*
X106631874Y-134601000D01*
X106220126Y-134601000D01*
X105839720Y-134758569D01*
X105548569Y-135049720D01*
X105391000Y-135430126D01*
X102888585Y-135430126D01*
X102985431Y-135333280D01*
X103143000Y-134952874D01*
X103143000Y-134541126D01*
X102985431Y-134160720D01*
X102694280Y-133869569D01*
X102313874Y-133712000D01*
X101902126Y-133712000D01*
X101521720Y-133869569D01*
X101230569Y-134160720D01*
X101073000Y-134541126D01*
X95523000Y-134541126D01*
X95523000Y-134287126D01*
X95365431Y-133906720D01*
X95074280Y-133615569D01*
X95046350Y-133604000D01*
X95074280Y-133592431D01*
X95365431Y-133301280D01*
X95430526Y-133144126D01*
X95485000Y-133144126D01*
X95485000Y-133555874D01*
X95642569Y-133936280D01*
X95933720Y-134227431D01*
X96314126Y-134385000D01*
X96725874Y-134385000D01*
X97106280Y-134227431D01*
X97397431Y-133936280D01*
X97409000Y-133908350D01*
X97420569Y-133936280D01*
X97711720Y-134227431D01*
X98092126Y-134385000D01*
X98503874Y-134385000D01*
X98884280Y-134227431D01*
X99175431Y-133936280D01*
X99333000Y-133555874D01*
X99333000Y-133378553D01*
X99720627Y-133378553D01*
X100101033Y-133220984D01*
X100226017Y-133096000D01*
X112023908Y-133096000D01*
X112139161Y-133675418D01*
X112467375Y-134166625D01*
X112765761Y-134366000D01*
X112467375Y-134565375D01*
X112139161Y-135056582D01*
X112023908Y-135636000D01*
X112139161Y-136215418D01*
X112467375Y-136706625D01*
X112765761Y-136906000D01*
X112467375Y-137105375D01*
X112139161Y-137596582D01*
X112023908Y-138176000D01*
X112139161Y-138755418D01*
X112467375Y-139246625D01*
X112765761Y-139446000D01*
X112467375Y-139645375D01*
X112139161Y-140136582D01*
X112023908Y-140716000D01*
X112139161Y-141295418D01*
X112467375Y-141786625D01*
X112765761Y-141986000D01*
X112467375Y-142185375D01*
X112139161Y-142676582D01*
X112023908Y-143256000D01*
X112139161Y-143835418D01*
X112467375Y-144326625D01*
X112489033Y-144341096D01*
X112328302Y-144407673D01*
X112149673Y-144586301D01*
X112053000Y-144819690D01*
X112053000Y-145510250D01*
X112211750Y-145669000D01*
X113411000Y-145669000D01*
X113411000Y-145649000D01*
X113665000Y-145649000D01*
X113665000Y-145669000D01*
X114864250Y-145669000D01*
X115023000Y-145510250D01*
X115023000Y-144819690D01*
X114926327Y-144586301D01*
X114747698Y-144407673D01*
X114586967Y-144341096D01*
X114608625Y-144326625D01*
X114936839Y-143835418D01*
X115052092Y-143256000D01*
X114936839Y-142676582D01*
X114608625Y-142185375D01*
X114310239Y-141986000D01*
X114608625Y-141786625D01*
X114936839Y-141295418D01*
X115052092Y-140716000D01*
X114936839Y-140136582D01*
X114608625Y-139645375D01*
X114310239Y-139446000D01*
X114608625Y-139246625D01*
X114936839Y-138755418D01*
X115052092Y-138176000D01*
X115051928Y-138175171D01*
X139675000Y-138175171D01*
X139675000Y-139700829D01*
X140258844Y-141110353D01*
X141337647Y-142189156D01*
X142747171Y-142773000D01*
X144272829Y-142773000D01*
X145682353Y-142189156D01*
X146761156Y-141110353D01*
X147345000Y-139700829D01*
X147345000Y-138175171D01*
X146761156Y-136765647D01*
X145682353Y-135686844D01*
X144272829Y-135103000D01*
X142747171Y-135103000D01*
X141337647Y-135686844D01*
X140258844Y-136765647D01*
X139675000Y-138175171D01*
X115051928Y-138175171D01*
X114936839Y-137596582D01*
X114608625Y-137105375D01*
X114310239Y-136906000D01*
X114608625Y-136706625D01*
X114936839Y-136215418D01*
X115052092Y-135636000D01*
X114936839Y-135056582D01*
X114608625Y-134565375D01*
X114310239Y-134366000D01*
X114608625Y-134166625D01*
X114936839Y-133675418D01*
X115052092Y-133096000D01*
X114936839Y-132516582D01*
X114608625Y-132025375D01*
X114117418Y-131697161D01*
X113684256Y-131611000D01*
X113391744Y-131611000D01*
X112958582Y-131697161D01*
X112467375Y-132025375D01*
X112139161Y-132516582D01*
X112023908Y-133096000D01*
X100226017Y-133096000D01*
X100392184Y-132929833D01*
X100549753Y-132549427D01*
X100549753Y-132137679D01*
X100392184Y-131757273D01*
X100334814Y-131699903D01*
X100449253Y-131423621D01*
X100449253Y-131297041D01*
X100595569Y-131650280D01*
X100886720Y-131941431D01*
X101267126Y-132099000D01*
X101678874Y-132099000D01*
X102059280Y-131941431D01*
X102350431Y-131650280D01*
X102508000Y-131269874D01*
X102508000Y-130858126D01*
X102350431Y-130477720D01*
X102059280Y-130186569D01*
X101678874Y-130029000D01*
X101267126Y-130029000D01*
X100886720Y-130186569D01*
X100595569Y-130477720D01*
X100438000Y-130858126D01*
X100438000Y-130984706D01*
X100291684Y-130631467D01*
X100000533Y-130340316D01*
X99620127Y-130182747D01*
X99208379Y-130182747D01*
X98827973Y-130340316D01*
X98536822Y-130631467D01*
X98379253Y-131011873D01*
X98379253Y-131423621D01*
X98536822Y-131804027D01*
X98594192Y-131861397D01*
X98479753Y-132137679D01*
X98479753Y-132315000D01*
X98092126Y-132315000D01*
X97711720Y-132472569D01*
X97420569Y-132763720D01*
X97409000Y-132791650D01*
X97397431Y-132763720D01*
X97106280Y-132472569D01*
X96725874Y-132315000D01*
X96314126Y-132315000D01*
X95933720Y-132472569D01*
X95642569Y-132763720D01*
X95485000Y-133144126D01*
X95430526Y-133144126D01*
X95523000Y-132920874D01*
X95523000Y-132509126D01*
X95365431Y-132128720D01*
X95074280Y-131837569D01*
X94693874Y-131680000D01*
X94282126Y-131680000D01*
X93901720Y-131837569D01*
X93610569Y-132128720D01*
X93453000Y-132509126D01*
X90697000Y-132509126D01*
X90697000Y-132325196D01*
X91010280Y-132195431D01*
X91301431Y-131904280D01*
X91459000Y-131523874D01*
X91459000Y-131112126D01*
X91301431Y-130731720D01*
X91010280Y-130440569D01*
X90629874Y-130283000D01*
X90218126Y-130283000D01*
X89837720Y-130440569D01*
X89546569Y-130731720D01*
X89389000Y-131112126D01*
X89389000Y-131319746D01*
X89075720Y-131449511D01*
X88784569Y-131740662D01*
X88627000Y-132121068D01*
X87866054Y-132121068D01*
X87903000Y-132031874D01*
X87903000Y-131620126D01*
X87745431Y-131239720D01*
X87454280Y-130948569D01*
X87073874Y-130791000D01*
X86911614Y-130791000D01*
X87200280Y-130671431D01*
X87491431Y-130380280D01*
X87634900Y-130033914D01*
X87688861Y-130056265D01*
X88100609Y-130056265D01*
X88481015Y-129898696D01*
X88772166Y-129607545D01*
X88929735Y-129227139D01*
X88929735Y-128953126D01*
X93580000Y-128953126D01*
X93580000Y-129364874D01*
X93737569Y-129745280D01*
X94028720Y-130036431D01*
X94409126Y-130194000D01*
X94820874Y-130194000D01*
X95201280Y-130036431D01*
X95217301Y-130020410D01*
X118023000Y-130020410D01*
X118023000Y-131267590D01*
X118500276Y-132419835D01*
X119382165Y-133301724D01*
X120534410Y-133779000D01*
X121781590Y-133779000D01*
X122933835Y-133301724D01*
X123815724Y-132419835D01*
X124293000Y-131267590D01*
X124293000Y-130020410D01*
X123815724Y-128868165D01*
X122933835Y-127986276D01*
X121781590Y-127509000D01*
X120534410Y-127509000D01*
X119382165Y-127986276D01*
X118500276Y-128868165D01*
X118023000Y-130020410D01*
X95217301Y-130020410D01*
X95492431Y-129745280D01*
X95650000Y-129364874D01*
X95650000Y-128953126D01*
X95492431Y-128572720D01*
X95201280Y-128281569D01*
X94820874Y-128124000D01*
X94409126Y-128124000D01*
X94028720Y-128281569D01*
X93737569Y-128572720D01*
X93580000Y-128953126D01*
X88929735Y-128953126D01*
X88929735Y-128913539D01*
X88978280Y-128893431D01*
X89269431Y-128602280D01*
X89293986Y-128543000D01*
X89613874Y-128543000D01*
X89916000Y-128417856D01*
X90218126Y-128543000D01*
X90629874Y-128543000D01*
X91010280Y-128385431D01*
X91301431Y-128094280D01*
X91459000Y-127713874D01*
X91459000Y-127302126D01*
X91301431Y-126921720D01*
X91010280Y-126630569D01*
X90629874Y-126473000D01*
X90218126Y-126473000D01*
X89916000Y-126598144D01*
X89613874Y-126473000D01*
X89202126Y-126473000D01*
X88821720Y-126630569D01*
X88530569Y-126921720D01*
X88506014Y-126981000D01*
X88186126Y-126981000D01*
X87805720Y-127138569D01*
X87514569Y-127429720D01*
X87357000Y-127810126D01*
X87357000Y-128123726D01*
X87308455Y-128143834D01*
X87017304Y-128434985D01*
X86873835Y-128781351D01*
X86819874Y-128759000D01*
X86408126Y-128759000D01*
X86027720Y-128916569D01*
X85736569Y-129207720D01*
X85579000Y-129588126D01*
X85579000Y-129999874D01*
X85736569Y-130380280D01*
X86027720Y-130671431D01*
X86408126Y-130829000D01*
X86570386Y-130829000D01*
X86281720Y-130948569D01*
X85990569Y-131239720D01*
X85833000Y-131620126D01*
X85833000Y-131745437D01*
X85619494Y-131657000D01*
X85068506Y-131657000D01*
X84559460Y-131867853D01*
X84169853Y-132257460D01*
X83959000Y-132766506D01*
X80231796Y-132766506D01*
X80125431Y-132509720D01*
X79834280Y-132218569D01*
X79453874Y-132061000D01*
X79042126Y-132061000D01*
X78661720Y-132218569D01*
X78370569Y-132509720D01*
X78213000Y-132890126D01*
X74345433Y-132890126D01*
X74815724Y-132419835D01*
X75293000Y-131267590D01*
X75293000Y-130020410D01*
X74815724Y-128868165D01*
X73933835Y-127986276D01*
X72781590Y-127509000D01*
X71534410Y-127509000D01*
X70382165Y-127986276D01*
X69500276Y-128868165D01*
X69023000Y-130020410D01*
X33938566Y-130020410D01*
X33738693Y-129552606D01*
X32575111Y-126446240D01*
X31553628Y-123290254D01*
X30676373Y-120091214D01*
X29945130Y-116855644D01*
X29361420Y-113590245D01*
X28926438Y-110301734D01*
X28641081Y-106996877D01*
X28505935Y-103682441D01*
X28521279Y-100365356D01*
X28687085Y-97052319D01*
X28916719Y-94652126D01*
X47203000Y-94652126D01*
X47203000Y-95063874D01*
X47304120Y-95308000D01*
X47203000Y-95552126D01*
X47203000Y-95963874D01*
X47360569Y-96344280D01*
X47651720Y-96635431D01*
X48032126Y-96793000D01*
X48443874Y-96793000D01*
X48688000Y-96691880D01*
X48932126Y-96793000D01*
X49343874Y-96793000D01*
X49588000Y-96691880D01*
X49832126Y-96793000D01*
X50243874Y-96793000D01*
X50624280Y-96635431D01*
X50915431Y-96344280D01*
X50947855Y-96266000D01*
X59445908Y-96266000D01*
X59561161Y-96845418D01*
X59889375Y-97336625D01*
X60380582Y-97664839D01*
X60813744Y-97751000D01*
X61106256Y-97751000D01*
X61539418Y-97664839D01*
X62030625Y-97336625D01*
X62042816Y-97318381D01*
X62051843Y-97363765D01*
X62192191Y-97573809D01*
X62402235Y-97714157D01*
X62650000Y-97763440D01*
X64350000Y-97763440D01*
X64597765Y-97714157D01*
X64807809Y-97573809D01*
X64948157Y-97363765D01*
X64997440Y-97116000D01*
X64997440Y-95416000D01*
X64948157Y-95168235D01*
X64807809Y-94958191D01*
X64597765Y-94817843D01*
X64350000Y-94768560D01*
X62650000Y-94768560D01*
X62402235Y-94817843D01*
X62192191Y-94958191D01*
X62051843Y-95168235D01*
X62042816Y-95213619D01*
X62030625Y-95195375D01*
X61539418Y-94867161D01*
X61106256Y-94781000D01*
X60813744Y-94781000D01*
X60380582Y-94867161D01*
X59889375Y-95195375D01*
X59561161Y-95686582D01*
X59445908Y-96266000D01*
X50947855Y-96266000D01*
X51073000Y-95963874D01*
X51073000Y-95552126D01*
X50971880Y-95308000D01*
X51073000Y-95063874D01*
X51073000Y-94652126D01*
X50915431Y-94271720D01*
X50624280Y-93980569D01*
X50243874Y-93823000D01*
X49832126Y-93823000D01*
X49588000Y-93924120D01*
X49343874Y-93823000D01*
X48932126Y-93823000D01*
X48688000Y-93924120D01*
X48443874Y-93823000D01*
X48032126Y-93823000D01*
X47651720Y-93980569D01*
X47360569Y-94271720D01*
X47203000Y-94652126D01*
X28916719Y-94652126D01*
X29003006Y-93750241D01*
X29107595Y-93012126D01*
X42653000Y-93012126D01*
X42653000Y-93423874D01*
X42810569Y-93804280D01*
X43101720Y-94095431D01*
X43482126Y-94253000D01*
X43893874Y-94253000D01*
X44274280Y-94095431D01*
X44565431Y-93804280D01*
X44723000Y-93423874D01*
X44723000Y-93012126D01*
X44565431Y-92631720D01*
X44274280Y-92340569D01*
X43893874Y-92183000D01*
X43482126Y-92183000D01*
X43101720Y-92340569D01*
X42810569Y-92631720D01*
X42653000Y-93012126D01*
X29107595Y-93012126D01*
X29468396Y-90465876D01*
X29562885Y-89964126D01*
X42653000Y-89964126D01*
X42653000Y-90375874D01*
X42810569Y-90756280D01*
X43101720Y-91047431D01*
X43482126Y-91205000D01*
X43893874Y-91205000D01*
X44274280Y-91047431D01*
X44565431Y-90756280D01*
X44723000Y-90375874D01*
X44723000Y-89964126D01*
X44565431Y-89583720D01*
X44274280Y-89292569D01*
X43893874Y-89135000D01*
X43482126Y-89135000D01*
X43101720Y-89292569D01*
X42810569Y-89583720D01*
X42653000Y-89964126D01*
X29562885Y-89964126D01*
X30082289Y-87206049D01*
X30843435Y-83977375D01*
X30978082Y-83503594D01*
X47261000Y-83503594D01*
X47261000Y-84452406D01*
X47624095Y-85328994D01*
X48295006Y-85999905D01*
X49171594Y-86363000D01*
X50120406Y-86363000D01*
X50996994Y-85999905D01*
X51398899Y-85598000D01*
X59445908Y-85598000D01*
X59561161Y-86177418D01*
X59889375Y-86668625D01*
X60380582Y-86996839D01*
X60813744Y-87083000D01*
X61106256Y-87083000D01*
X61539418Y-86996839D01*
X62030625Y-86668625D01*
X62042816Y-86650381D01*
X62051843Y-86695765D01*
X62192191Y-86905809D01*
X62402235Y-87046157D01*
X62650000Y-87095440D01*
X64350000Y-87095440D01*
X64597765Y-87046157D01*
X64807809Y-86905809D01*
X64948157Y-86695765D01*
X64997440Y-86448000D01*
X64997440Y-84748000D01*
X64948157Y-84500235D01*
X64807809Y-84290191D01*
X64597765Y-84149843D01*
X64350000Y-84100560D01*
X62650000Y-84100560D01*
X62402235Y-84149843D01*
X62192191Y-84290191D01*
X62051843Y-84500235D01*
X62042816Y-84545619D01*
X62030625Y-84527375D01*
X61539418Y-84199161D01*
X61106256Y-84113000D01*
X60813744Y-84113000D01*
X60380582Y-84199161D01*
X59889375Y-84527375D01*
X59561161Y-85018582D01*
X59445908Y-85598000D01*
X51398899Y-85598000D01*
X51667905Y-85328994D01*
X52031000Y-84452406D01*
X52031000Y-83503594D01*
X51667905Y-82627006D01*
X50996994Y-81956095D01*
X50120406Y-81593000D01*
X49171594Y-81593000D01*
X48295006Y-81956095D01*
X47624095Y-82627006D01*
X47261000Y-83503594D01*
X30978082Y-83503594D01*
X31750257Y-80786567D01*
X32800885Y-77640195D01*
X33273708Y-76412615D01*
X50871000Y-76412615D01*
X50871000Y-77003385D01*
X51097078Y-77549185D01*
X51505893Y-77958000D01*
X51097078Y-78366815D01*
X50871000Y-78912615D01*
X50871000Y-79503385D01*
X51097078Y-80049185D01*
X51514815Y-80466922D01*
X52060615Y-80693000D01*
X52651385Y-80693000D01*
X53197185Y-80466922D01*
X53356000Y-80308107D01*
X53514815Y-80466922D01*
X54060615Y-80693000D01*
X54651385Y-80693000D01*
X55197185Y-80466922D01*
X55614922Y-80049185D01*
X55841000Y-79503385D01*
X55841000Y-78912615D01*
X55614922Y-78366815D01*
X55412477Y-78164370D01*
X55453765Y-78156157D01*
X55663809Y-78015809D01*
X55804157Y-77805765D01*
X55853440Y-77558000D01*
X55853440Y-77236119D01*
X69491000Y-77236119D01*
X69491000Y-77791881D01*
X69703680Y-78305337D01*
X70096663Y-78698320D01*
X70303513Y-78784000D01*
X70096663Y-78869680D01*
X69703680Y-79262663D01*
X69491000Y-79776119D01*
X69491000Y-80331881D01*
X69703680Y-80845337D01*
X70096663Y-81238320D01*
X70303513Y-81324000D01*
X70096663Y-81409680D01*
X69703680Y-81802663D01*
X69491000Y-82316119D01*
X69491000Y-82871881D01*
X69703680Y-83385337D01*
X70096663Y-83778320D01*
X70303513Y-83864000D01*
X70096663Y-83949680D01*
X69703680Y-84342663D01*
X69491000Y-84856119D01*
X69491000Y-85411881D01*
X69703680Y-85925337D01*
X70096663Y-86318320D01*
X70303513Y-86404000D01*
X70096663Y-86489680D01*
X69703680Y-86882663D01*
X69491000Y-87396119D01*
X69491000Y-87951881D01*
X69703680Y-88465337D01*
X70096663Y-88858320D01*
X70303513Y-88944000D01*
X70096663Y-89029680D01*
X69703680Y-89422663D01*
X69491000Y-89936119D01*
X69491000Y-90491881D01*
X69703680Y-91005337D01*
X70096663Y-91398320D01*
X70303513Y-91484000D01*
X70096663Y-91569680D01*
X69703680Y-91962663D01*
X69491000Y-92476119D01*
X69491000Y-93031881D01*
X69703680Y-93545337D01*
X70096663Y-93938320D01*
X70303513Y-94024000D01*
X70096663Y-94109680D01*
X69703680Y-94502663D01*
X69491000Y-95016119D01*
X69491000Y-95571881D01*
X69703680Y-96085337D01*
X70096663Y-96478320D01*
X70303513Y-96564000D01*
X70096663Y-96649680D01*
X69703680Y-97042663D01*
X69491000Y-97556119D01*
X69491000Y-98111881D01*
X69703680Y-98625337D01*
X70096663Y-99018320D01*
X70303513Y-99104000D01*
X70096663Y-99189680D01*
X69703680Y-99582663D01*
X69491000Y-100096119D01*
X69491000Y-100651881D01*
X69703680Y-101165337D01*
X70096663Y-101558320D01*
X70303513Y-101644000D01*
X70096663Y-101729680D01*
X69703680Y-102122663D01*
X69491000Y-102636119D01*
X69491000Y-103191881D01*
X69703680Y-103705337D01*
X70096663Y-104098320D01*
X70303513Y-104184000D01*
X70096663Y-104269680D01*
X69703680Y-104662663D01*
X69491000Y-105176119D01*
X69491000Y-105731881D01*
X69703680Y-106245337D01*
X70096663Y-106638320D01*
X70303513Y-106724000D01*
X70096663Y-106809680D01*
X69703680Y-107202663D01*
X69491000Y-107716119D01*
X69491000Y-108271881D01*
X69703680Y-108785337D01*
X70096663Y-109178320D01*
X70303513Y-109264000D01*
X70096663Y-109349680D01*
X69703680Y-109742663D01*
X69491000Y-110256119D01*
X69491000Y-110811881D01*
X69703680Y-111325337D01*
X70096663Y-111718320D01*
X70303513Y-111804000D01*
X70096663Y-111889680D01*
X69703680Y-112282663D01*
X69491000Y-112796119D01*
X69491000Y-113351881D01*
X69703680Y-113865337D01*
X70096663Y-114258320D01*
X70303513Y-114344000D01*
X70096663Y-114429680D01*
X69703680Y-114822663D01*
X69491000Y-115336119D01*
X69491000Y-115891881D01*
X69703680Y-116405337D01*
X70096663Y-116798320D01*
X70303513Y-116884000D01*
X70096663Y-116969680D01*
X69703680Y-117362663D01*
X69491000Y-117876119D01*
X69491000Y-118431881D01*
X69703680Y-118945337D01*
X70096663Y-119338320D01*
X70303513Y-119424000D01*
X70096663Y-119509680D01*
X69703680Y-119902663D01*
X69491000Y-120416119D01*
X69491000Y-120971881D01*
X69703680Y-121485337D01*
X70096663Y-121878320D01*
X70303513Y-121964000D01*
X70096663Y-122049680D01*
X69703680Y-122442663D01*
X69491000Y-122956119D01*
X69491000Y-123511881D01*
X69703680Y-124025337D01*
X70096663Y-124418320D01*
X70303513Y-124504000D01*
X70096663Y-124589680D01*
X69703680Y-124982663D01*
X69491000Y-125496119D01*
X69491000Y-126051881D01*
X69703680Y-126565337D01*
X70096663Y-126958320D01*
X70610119Y-127171000D01*
X71165881Y-127171000D01*
X71679337Y-126958320D01*
X72072320Y-126565337D01*
X72158000Y-126358487D01*
X72243680Y-126565337D01*
X72636663Y-126958320D01*
X73150119Y-127171000D01*
X73705881Y-127171000D01*
X74002525Y-127048126D01*
X83293000Y-127048126D01*
X83293000Y-127459874D01*
X83450569Y-127840280D01*
X83741720Y-128131431D01*
X84122126Y-128289000D01*
X84533874Y-128289000D01*
X84914280Y-128131431D01*
X85205431Y-127840280D01*
X85363000Y-127459874D01*
X85363000Y-127048126D01*
X85205431Y-126667720D01*
X84914280Y-126376569D01*
X84533874Y-126219000D01*
X84122126Y-126219000D01*
X83741720Y-126376569D01*
X83450569Y-126667720D01*
X83293000Y-127048126D01*
X74002525Y-127048126D01*
X74219337Y-126958320D01*
X74612320Y-126565337D01*
X74825000Y-126051881D01*
X74825000Y-125496119D01*
X74612320Y-124982663D01*
X74219337Y-124589680D01*
X74012487Y-124504000D01*
X74219337Y-124418320D01*
X74612320Y-124025337D01*
X74825000Y-123511881D01*
X74825000Y-123365126D01*
X78213000Y-123365126D01*
X78213000Y-123776874D01*
X78370569Y-124157280D01*
X78661720Y-124448431D01*
X79042126Y-124606000D01*
X79453874Y-124606000D01*
X79834280Y-124448431D01*
X80125431Y-124157280D01*
X80283000Y-123776874D01*
X80283000Y-123365126D01*
X80230395Y-123238126D01*
X82785000Y-123238126D01*
X82785000Y-123649874D01*
X82942569Y-124030280D01*
X83233720Y-124321431D01*
X83614126Y-124479000D01*
X84025874Y-124479000D01*
X84406280Y-124321431D01*
X84478238Y-124249473D01*
X99798347Y-124249473D01*
X99798347Y-124661221D01*
X99955916Y-125041627D01*
X100247067Y-125332778D01*
X100627473Y-125490347D01*
X101039221Y-125490347D01*
X101419627Y-125332778D01*
X101656599Y-125095806D01*
X101743222Y-125304933D01*
X102034373Y-125596084D01*
X102414779Y-125753653D01*
X102826527Y-125753653D01*
X103131943Y-125627146D01*
X103426126Y-125749000D01*
X103837874Y-125749000D01*
X104218280Y-125591431D01*
X104285585Y-125524126D01*
X105137000Y-125524126D01*
X105137000Y-125935874D01*
X105294569Y-126316280D01*
X105585720Y-126607431D01*
X105966126Y-126765000D01*
X106213289Y-126765000D01*
X106051916Y-126926373D01*
X105894347Y-127306779D01*
X105894347Y-127718527D01*
X106051916Y-128098933D01*
X106100636Y-128147653D01*
X106056569Y-128191720D01*
X105899000Y-128572126D01*
X105899000Y-128983874D01*
X106056569Y-129364280D01*
X106347720Y-129655431D01*
X106728126Y-129813000D01*
X107139874Y-129813000D01*
X107520280Y-129655431D01*
X107811431Y-129364280D01*
X107969000Y-128983874D01*
X107969000Y-128572126D01*
X107811431Y-128191720D01*
X107762711Y-128143000D01*
X107806778Y-128098933D01*
X107964347Y-127718527D01*
X107964347Y-127306779D01*
X107806778Y-126926373D01*
X107515627Y-126635222D01*
X107135221Y-126477653D01*
X106888058Y-126477653D01*
X107049431Y-126316280D01*
X107207000Y-125935874D01*
X107207000Y-125761443D01*
X112212000Y-125761443D01*
X112212000Y-126173191D01*
X112369569Y-126553597D01*
X112660720Y-126844748D01*
X113041126Y-127002317D01*
X113452874Y-127002317D01*
X113833280Y-126844748D01*
X114124431Y-126553597D01*
X114130010Y-126540126D01*
X117583000Y-126540126D01*
X117583000Y-126951874D01*
X117740569Y-127332280D01*
X118031720Y-127623431D01*
X118412126Y-127781000D01*
X118823874Y-127781000D01*
X119204280Y-127623431D01*
X119326286Y-127501425D01*
X154583000Y-127501425D01*
X154583000Y-128022575D01*
X154782436Y-128504055D01*
X155150945Y-128872564D01*
X155632425Y-129072000D01*
X156153575Y-129072000D01*
X156635055Y-128872564D01*
X156893000Y-128614619D01*
X157150945Y-128872564D01*
X157632425Y-129072000D01*
X158153575Y-129072000D01*
X158635055Y-128872564D01*
X158701158Y-128806461D01*
X158760191Y-128894809D01*
X158970235Y-129035157D01*
X159218000Y-129084440D01*
X160568000Y-129084440D01*
X160815765Y-129035157D01*
X161025809Y-128894809D01*
X161166157Y-128684765D01*
X161215440Y-128437000D01*
X161215440Y-127087000D01*
X161166157Y-126839235D01*
X161025809Y-126629191D01*
X160815765Y-126488843D01*
X160568000Y-126439560D01*
X159218000Y-126439560D01*
X158970235Y-126488843D01*
X158760191Y-126629191D01*
X158701158Y-126717539D01*
X158635055Y-126651436D01*
X158153575Y-126452000D01*
X157632425Y-126452000D01*
X157150945Y-126651436D01*
X156893000Y-126909381D01*
X156635055Y-126651436D01*
X156153575Y-126452000D01*
X155632425Y-126452000D01*
X155150945Y-126651436D01*
X154782436Y-127019945D01*
X154583000Y-127501425D01*
X119326286Y-127501425D01*
X119495431Y-127332280D01*
X119653000Y-126951874D01*
X119653000Y-126540126D01*
X119495431Y-126159720D01*
X119204280Y-125868569D01*
X118823874Y-125711000D01*
X118412126Y-125711000D01*
X118031720Y-125868569D01*
X117740569Y-126159720D01*
X117583000Y-126540126D01*
X114130010Y-126540126D01*
X114282000Y-126173191D01*
X114282000Y-125761443D01*
X114178811Y-125512322D01*
X114319000Y-125173874D01*
X114319000Y-124762126D01*
X114161431Y-124381720D01*
X114033837Y-124254126D01*
X121393000Y-124254126D01*
X121393000Y-124665874D01*
X121550569Y-125046280D01*
X121841720Y-125337431D01*
X122222126Y-125495000D01*
X122633874Y-125495000D01*
X123014280Y-125337431D01*
X123305431Y-125046280D01*
X123463000Y-124665874D01*
X123463000Y-124254126D01*
X123305431Y-123873720D01*
X123014280Y-123582569D01*
X122633874Y-123425000D01*
X122222126Y-123425000D01*
X121841720Y-123582569D01*
X121550569Y-123873720D01*
X121393000Y-124254126D01*
X114033837Y-124254126D01*
X113870280Y-124090569D01*
X113489874Y-123933000D01*
X113078126Y-123933000D01*
X112697720Y-124090569D01*
X112406569Y-124381720D01*
X112249000Y-124762126D01*
X112249000Y-125173874D01*
X112352189Y-125422995D01*
X112212000Y-125761443D01*
X107207000Y-125761443D01*
X107207000Y-125524126D01*
X107049431Y-125143720D01*
X106758280Y-124852569D01*
X106377874Y-124695000D01*
X105966126Y-124695000D01*
X105585720Y-124852569D01*
X105294569Y-125143720D01*
X105137000Y-125524126D01*
X104285585Y-125524126D01*
X104509431Y-125300280D01*
X104667000Y-124919874D01*
X104667000Y-124508126D01*
X104509431Y-124127720D01*
X104218280Y-123836569D01*
X103837874Y-123679000D01*
X103426126Y-123679000D01*
X103120710Y-123805507D01*
X102826527Y-123683653D01*
X102414779Y-123683653D01*
X102034373Y-123841222D01*
X101797401Y-124078194D01*
X101710778Y-123869067D01*
X101419627Y-123577916D01*
X101039221Y-123420347D01*
X100627473Y-123420347D01*
X100247067Y-123577916D01*
X99955916Y-123869067D01*
X99798347Y-124249473D01*
X84478238Y-124249473D01*
X84697431Y-124030280D01*
X84855000Y-123649874D01*
X84855000Y-123238126D01*
X84697431Y-122857720D01*
X84406280Y-122566569D01*
X84025874Y-122409000D01*
X83614126Y-122409000D01*
X83233720Y-122566569D01*
X82942569Y-122857720D01*
X82785000Y-123238126D01*
X80230395Y-123238126D01*
X80125431Y-122984720D01*
X79834280Y-122693569D01*
X79453874Y-122536000D01*
X79042126Y-122536000D01*
X78661720Y-122693569D01*
X78370569Y-122984720D01*
X78213000Y-123365126D01*
X74825000Y-123365126D01*
X74825000Y-122956119D01*
X74612320Y-122442663D01*
X74219337Y-122049680D01*
X74012487Y-121964000D01*
X74219337Y-121878320D01*
X74431657Y-121666000D01*
X98053908Y-121666000D01*
X98169161Y-122245418D01*
X98497375Y-122736625D01*
X98988582Y-123064839D01*
X99421744Y-123151000D01*
X99714256Y-123151000D01*
X100147418Y-123064839D01*
X100638625Y-122736625D01*
X100966839Y-122245418D01*
X101082092Y-121666000D01*
X101041142Y-121460126D01*
X101835000Y-121460126D01*
X101835000Y-121871874D01*
X101992569Y-122252280D01*
X102283720Y-122543431D01*
X102664126Y-122701000D01*
X103075874Y-122701000D01*
X103456280Y-122543431D01*
X103747431Y-122252280D01*
X103812526Y-122095126D01*
X106661000Y-122095126D01*
X106661000Y-122506874D01*
X106818569Y-122887280D01*
X107109720Y-123178431D01*
X107490126Y-123336000D01*
X107901874Y-123336000D01*
X108282280Y-123178431D01*
X108573431Y-122887280D01*
X108731000Y-122506874D01*
X108731000Y-122095126D01*
X108573431Y-121714720D01*
X108318837Y-121460126D01*
X113392000Y-121460126D01*
X113392000Y-121871874D01*
X113549569Y-122252280D01*
X113840720Y-122543431D01*
X114221126Y-122701000D01*
X114632874Y-122701000D01*
X115013280Y-122543431D01*
X115262286Y-122294425D01*
X154583000Y-122294425D01*
X154583000Y-122815575D01*
X154782436Y-123297055D01*
X155150945Y-123665564D01*
X155632425Y-123865000D01*
X156153575Y-123865000D01*
X156635055Y-123665564D01*
X156893000Y-123407619D01*
X157150945Y-123665564D01*
X157632425Y-123865000D01*
X158153575Y-123865000D01*
X158635055Y-123665564D01*
X158701158Y-123599461D01*
X158760191Y-123687809D01*
X158970235Y-123828157D01*
X159218000Y-123877440D01*
X160568000Y-123877440D01*
X160815765Y-123828157D01*
X161025809Y-123687809D01*
X161166157Y-123477765D01*
X161215440Y-123230000D01*
X161215440Y-121880000D01*
X161166157Y-121632235D01*
X161025809Y-121422191D01*
X160815765Y-121281843D01*
X160568000Y-121232560D01*
X159218000Y-121232560D01*
X158970235Y-121281843D01*
X158760191Y-121422191D01*
X158701158Y-121510539D01*
X158635055Y-121444436D01*
X158153575Y-121245000D01*
X157632425Y-121245000D01*
X157150945Y-121444436D01*
X156893000Y-121702381D01*
X156635055Y-121444436D01*
X156153575Y-121245000D01*
X155632425Y-121245000D01*
X155150945Y-121444436D01*
X154782436Y-121812945D01*
X154583000Y-122294425D01*
X115262286Y-122294425D01*
X115304431Y-122252280D01*
X115462000Y-121871874D01*
X115462000Y-121460126D01*
X115304431Y-121079720D01*
X115013280Y-120788569D01*
X114632874Y-120631000D01*
X114221126Y-120631000D01*
X113840720Y-120788569D01*
X113549569Y-121079720D01*
X113392000Y-121460126D01*
X108318837Y-121460126D01*
X108282280Y-121423569D01*
X107901874Y-121266000D01*
X107490126Y-121266000D01*
X107109720Y-121423569D01*
X106818569Y-121714720D01*
X106661000Y-122095126D01*
X103812526Y-122095126D01*
X103905000Y-121871874D01*
X103905000Y-121460126D01*
X103747431Y-121079720D01*
X103456280Y-120788569D01*
X103075874Y-120631000D01*
X102664126Y-120631000D01*
X102283720Y-120788569D01*
X101992569Y-121079720D01*
X101835000Y-121460126D01*
X101041142Y-121460126D01*
X100966839Y-121086582D01*
X100638625Y-120595375D01*
X100620381Y-120583184D01*
X100665765Y-120574157D01*
X100875809Y-120433809D01*
X101016157Y-120223765D01*
X101065440Y-119976000D01*
X101065440Y-118276000D01*
X101016157Y-118028235D01*
X100875809Y-117818191D01*
X100665765Y-117677843D01*
X100418000Y-117628560D01*
X98718000Y-117628560D01*
X98470235Y-117677843D01*
X98260191Y-117818191D01*
X98119843Y-118028235D01*
X98070560Y-118276000D01*
X98070560Y-119976000D01*
X98119843Y-120223765D01*
X98260191Y-120433809D01*
X98470235Y-120574157D01*
X98515619Y-120583184D01*
X98497375Y-120595375D01*
X98169161Y-121086582D01*
X98053908Y-121666000D01*
X74431657Y-121666000D01*
X74612320Y-121485337D01*
X74825000Y-120971881D01*
X74825000Y-120416119D01*
X74612320Y-119902663D01*
X74219337Y-119509680D01*
X74012487Y-119424000D01*
X74219337Y-119338320D01*
X74612320Y-118945337D01*
X74825000Y-118431881D01*
X74825000Y-117876119D01*
X74783996Y-117777126D01*
X79878000Y-117777126D01*
X79878000Y-118188874D01*
X80035569Y-118569280D01*
X80326720Y-118860431D01*
X80707126Y-119018000D01*
X81118874Y-119018000D01*
X81499280Y-118860431D01*
X81790431Y-118569280D01*
X81948000Y-118188874D01*
X81948000Y-117904126D01*
X86595000Y-117904126D01*
X86595000Y-118315874D01*
X86752569Y-118696280D01*
X87043720Y-118987431D01*
X87424126Y-119145000D01*
X87835874Y-119145000D01*
X88216280Y-118987431D01*
X88507431Y-118696280D01*
X88665000Y-118315874D01*
X88665000Y-117904126D01*
X88507431Y-117523720D01*
X88216280Y-117232569D01*
X87835874Y-117075000D01*
X87424126Y-117075000D01*
X87043720Y-117232569D01*
X86752569Y-117523720D01*
X86595000Y-117904126D01*
X81948000Y-117904126D01*
X81948000Y-117777126D01*
X81790431Y-117396720D01*
X81499280Y-117105569D01*
X81118874Y-116948000D01*
X80707126Y-116948000D01*
X80326720Y-117105569D01*
X80035569Y-117396720D01*
X79878000Y-117777126D01*
X74783996Y-117777126D01*
X74612320Y-117362663D01*
X74219337Y-116969680D01*
X74012487Y-116884000D01*
X74219337Y-116798320D01*
X74612320Y-116405337D01*
X74659265Y-116292000D01*
X118946560Y-116292000D01*
X118946560Y-117642000D01*
X118995843Y-117889765D01*
X119136191Y-118099809D01*
X119346235Y-118240157D01*
X119594000Y-118289440D01*
X120944000Y-118289440D01*
X121191765Y-118240157D01*
X121401809Y-118099809D01*
X121542157Y-117889765D01*
X121591440Y-117642000D01*
X121591440Y-117087425D01*
X154583000Y-117087425D01*
X154583000Y-117608575D01*
X154782436Y-118090055D01*
X155150945Y-118458564D01*
X155632425Y-118658000D01*
X156153575Y-118658000D01*
X156635055Y-118458564D01*
X156893000Y-118200619D01*
X157150945Y-118458564D01*
X157632425Y-118658000D01*
X158153575Y-118658000D01*
X158635055Y-118458564D01*
X158701158Y-118392461D01*
X158760191Y-118480809D01*
X158970235Y-118621157D01*
X159218000Y-118670440D01*
X160568000Y-118670440D01*
X160815765Y-118621157D01*
X161025809Y-118480809D01*
X161166157Y-118270765D01*
X161215440Y-118023000D01*
X161215440Y-116673000D01*
X161166157Y-116425235D01*
X161025809Y-116215191D01*
X160815765Y-116074843D01*
X160568000Y-116025560D01*
X159218000Y-116025560D01*
X158970235Y-116074843D01*
X158760191Y-116215191D01*
X158701158Y-116303539D01*
X158635055Y-116237436D01*
X158153575Y-116038000D01*
X157632425Y-116038000D01*
X157150945Y-116237436D01*
X156893000Y-116495381D01*
X156635055Y-116237436D01*
X156153575Y-116038000D01*
X155632425Y-116038000D01*
X155150945Y-116237436D01*
X154782436Y-116605945D01*
X154583000Y-117087425D01*
X121591440Y-117087425D01*
X121591440Y-116292000D01*
X121542157Y-116044235D01*
X121401809Y-115834191D01*
X121313461Y-115775158D01*
X121379564Y-115709055D01*
X121579000Y-115227575D01*
X121579000Y-114706425D01*
X121379564Y-114224945D01*
X121121619Y-113967000D01*
X121379564Y-113709055D01*
X121579000Y-113227575D01*
X121579000Y-112706425D01*
X121379564Y-112224945D01*
X121121619Y-111967000D01*
X121208194Y-111880425D01*
X154583000Y-111880425D01*
X154583000Y-112401575D01*
X154782436Y-112883055D01*
X155150945Y-113251564D01*
X155632425Y-113451000D01*
X156153575Y-113451000D01*
X156635055Y-113251564D01*
X156893000Y-112993619D01*
X157150945Y-113251564D01*
X157632425Y-113451000D01*
X158153575Y-113451000D01*
X158635055Y-113251564D01*
X158701158Y-113185461D01*
X158760191Y-113273809D01*
X158970235Y-113414157D01*
X159218000Y-113463440D01*
X160568000Y-113463440D01*
X160815765Y-113414157D01*
X161025809Y-113273809D01*
X161166157Y-113063765D01*
X161215440Y-112816000D01*
X161215440Y-111466000D01*
X161166157Y-111218235D01*
X161025809Y-111008191D01*
X160815765Y-110867843D01*
X160568000Y-110818560D01*
X159218000Y-110818560D01*
X158970235Y-110867843D01*
X158760191Y-111008191D01*
X158701158Y-111096539D01*
X158635055Y-111030436D01*
X158153575Y-110831000D01*
X157632425Y-110831000D01*
X157150945Y-111030436D01*
X156893000Y-111288381D01*
X156635055Y-111030436D01*
X156153575Y-110831000D01*
X155632425Y-110831000D01*
X155150945Y-111030436D01*
X154782436Y-111398945D01*
X154583000Y-111880425D01*
X121208194Y-111880425D01*
X121379564Y-111709055D01*
X121579000Y-111227575D01*
X121579000Y-110706425D01*
X121379564Y-110224945D01*
X121011055Y-109856436D01*
X120529575Y-109657000D01*
X120008425Y-109657000D01*
X119526945Y-109856436D01*
X119158436Y-110224945D01*
X118959000Y-110706425D01*
X118959000Y-111227575D01*
X119158436Y-111709055D01*
X119416381Y-111967000D01*
X119158436Y-112224945D01*
X118959000Y-112706425D01*
X118959000Y-113227575D01*
X119158436Y-113709055D01*
X119416381Y-113967000D01*
X119158436Y-114224945D01*
X118959000Y-114706425D01*
X118959000Y-115227575D01*
X119158436Y-115709055D01*
X119224539Y-115775158D01*
X119136191Y-115834191D01*
X118995843Y-116044235D01*
X118946560Y-116292000D01*
X74659265Y-116292000D01*
X74825000Y-115891881D01*
X74825000Y-115336119D01*
X74612320Y-114822663D01*
X74391783Y-114602126D01*
X79878000Y-114602126D01*
X79878000Y-115013874D01*
X80035569Y-115394280D01*
X80326720Y-115685431D01*
X80707126Y-115843000D01*
X81118874Y-115843000D01*
X81499280Y-115685431D01*
X81790431Y-115394280D01*
X81948000Y-115013874D01*
X81948000Y-114602126D01*
X86341000Y-114602126D01*
X86341000Y-115013874D01*
X86498569Y-115394280D01*
X86789720Y-115685431D01*
X87170126Y-115843000D01*
X87581874Y-115843000D01*
X87962280Y-115685431D01*
X88253431Y-115394280D01*
X88411000Y-115013874D01*
X88411000Y-114602126D01*
X88253431Y-114221720D01*
X87962280Y-113930569D01*
X87581874Y-113773000D01*
X87170126Y-113773000D01*
X86789720Y-113930569D01*
X86498569Y-114221720D01*
X86341000Y-114602126D01*
X81948000Y-114602126D01*
X81790431Y-114221720D01*
X81499280Y-113930569D01*
X81118874Y-113773000D01*
X80707126Y-113773000D01*
X80326720Y-113930569D01*
X80035569Y-114221720D01*
X79878000Y-114602126D01*
X74391783Y-114602126D01*
X74219337Y-114429680D01*
X74012487Y-114344000D01*
X74219337Y-114258320D01*
X74612320Y-113865337D01*
X74825000Y-113351881D01*
X74825000Y-113332126D01*
X113773000Y-113332126D01*
X113773000Y-113743874D01*
X113930569Y-114124280D01*
X114221720Y-114415431D01*
X114602126Y-114573000D01*
X115013874Y-114573000D01*
X115394280Y-114415431D01*
X115685431Y-114124280D01*
X115843000Y-113743874D01*
X115843000Y-113332126D01*
X115685431Y-112951720D01*
X115394280Y-112660569D01*
X115013874Y-112503000D01*
X114602126Y-112503000D01*
X114221720Y-112660569D01*
X113930569Y-112951720D01*
X113773000Y-113332126D01*
X74825000Y-113332126D01*
X74825000Y-112796119D01*
X74612320Y-112282663D01*
X74219337Y-111889680D01*
X74012487Y-111804000D01*
X74219337Y-111718320D01*
X74510531Y-111427126D01*
X79878000Y-111427126D01*
X79878000Y-111838874D01*
X80035569Y-112219280D01*
X80326720Y-112510431D01*
X80707126Y-112668000D01*
X81118874Y-112668000D01*
X81499280Y-112510431D01*
X81790431Y-112219280D01*
X81948000Y-111838874D01*
X81948000Y-111427126D01*
X81895395Y-111300126D01*
X86341000Y-111300126D01*
X86341000Y-111711874D01*
X86498569Y-112092280D01*
X86789720Y-112383431D01*
X87170126Y-112541000D01*
X87581874Y-112541000D01*
X87962280Y-112383431D01*
X88253431Y-112092280D01*
X88411000Y-111711874D01*
X88411000Y-111300126D01*
X88253431Y-110919720D01*
X87962280Y-110628569D01*
X87581874Y-110471000D01*
X87170126Y-110471000D01*
X86789720Y-110628569D01*
X86498569Y-110919720D01*
X86341000Y-111300126D01*
X81895395Y-111300126D01*
X81790431Y-111046720D01*
X81499280Y-110755569D01*
X81118874Y-110598000D01*
X80707126Y-110598000D01*
X80326720Y-110755569D01*
X80035569Y-111046720D01*
X79878000Y-111427126D01*
X74510531Y-111427126D01*
X74612320Y-111325337D01*
X74825000Y-110811881D01*
X74825000Y-110256119D01*
X74626181Y-109776126D01*
X102089000Y-109776126D01*
X102089000Y-110187874D01*
X102246569Y-110568280D01*
X102537720Y-110859431D01*
X102918126Y-111017000D01*
X103329874Y-111017000D01*
X103710280Y-110859431D01*
X104001431Y-110568280D01*
X104159000Y-110187874D01*
X104159000Y-109776126D01*
X104001431Y-109395720D01*
X104000837Y-109395126D01*
X108947000Y-109395126D01*
X108947000Y-109806874D01*
X109104569Y-110187280D01*
X109395720Y-110478431D01*
X109776126Y-110636000D01*
X109896289Y-110636000D01*
X109866569Y-110665720D01*
X109709000Y-111046126D01*
X109709000Y-111457874D01*
X109866569Y-111838280D01*
X110157720Y-112129431D01*
X110538126Y-112287000D01*
X110949874Y-112287000D01*
X111330280Y-112129431D01*
X111621431Y-111838280D01*
X111779000Y-111457874D01*
X111779000Y-111046126D01*
X111621431Y-110665720D01*
X111330280Y-110374569D01*
X110949874Y-110217000D01*
X110829711Y-110217000D01*
X110859431Y-110187280D01*
X111017000Y-109806874D01*
X111017000Y-109395126D01*
X110859431Y-109014720D01*
X110568280Y-108723569D01*
X110187874Y-108566000D01*
X109776126Y-108566000D01*
X109395720Y-108723569D01*
X109104569Y-109014720D01*
X108947000Y-109395126D01*
X104000837Y-109395126D01*
X103710280Y-109104569D01*
X103329874Y-108947000D01*
X102918126Y-108947000D01*
X102537720Y-109104569D01*
X102246569Y-109395720D01*
X102089000Y-109776126D01*
X74626181Y-109776126D01*
X74612320Y-109742663D01*
X74219337Y-109349680D01*
X74012487Y-109264000D01*
X74219337Y-109178320D01*
X74612320Y-108785337D01*
X74825000Y-108271881D01*
X74825000Y-107716119D01*
X74612320Y-107202663D01*
X74518783Y-107109126D01*
X92945000Y-107109126D01*
X92945000Y-107520874D01*
X93102569Y-107901280D01*
X93393720Y-108192431D01*
X93774126Y-108350000D01*
X94185874Y-108350000D01*
X94566280Y-108192431D01*
X94857431Y-107901280D01*
X95015000Y-107520874D01*
X95015000Y-107109126D01*
X96247000Y-107109126D01*
X96247000Y-107520874D01*
X96404569Y-107901280D01*
X96695720Y-108192431D01*
X97076126Y-108350000D01*
X97487874Y-108350000D01*
X97868280Y-108192431D01*
X98159431Y-107901280D01*
X98317000Y-107520874D01*
X98317000Y-107109126D01*
X99803000Y-107109126D01*
X99803000Y-107520874D01*
X99960569Y-107901280D01*
X100251720Y-108192431D01*
X100632126Y-108350000D01*
X101043874Y-108350000D01*
X101424280Y-108192431D01*
X101715431Y-107901280D01*
X101873000Y-107520874D01*
X101873000Y-107109126D01*
X101715431Y-106728720D01*
X101424280Y-106437569D01*
X101043874Y-106280000D01*
X100632126Y-106280000D01*
X100251720Y-106437569D01*
X99960569Y-106728720D01*
X99803000Y-107109126D01*
X98317000Y-107109126D01*
X98159431Y-106728720D01*
X97868280Y-106437569D01*
X97487874Y-106280000D01*
X97076126Y-106280000D01*
X96695720Y-106437569D01*
X96404569Y-106728720D01*
X96247000Y-107109126D01*
X95015000Y-107109126D01*
X94857431Y-106728720D01*
X94566280Y-106437569D01*
X94185874Y-106280000D01*
X93774126Y-106280000D01*
X93393720Y-106437569D01*
X93102569Y-106728720D01*
X92945000Y-107109126D01*
X74518783Y-107109126D01*
X74219337Y-106809680D01*
X74012487Y-106724000D01*
X74219337Y-106638320D01*
X74612320Y-106245337D01*
X74622762Y-106220126D01*
X113392000Y-106220126D01*
X113392000Y-106631874D01*
X113549569Y-107012280D01*
X113840720Y-107303431D01*
X114221126Y-107461000D01*
X114632874Y-107461000D01*
X115013280Y-107303431D01*
X115304431Y-107012280D01*
X115462000Y-106631874D01*
X115462000Y-106220126D01*
X115304431Y-105839720D01*
X115013280Y-105548569D01*
X114632874Y-105391000D01*
X114221126Y-105391000D01*
X113840720Y-105548569D01*
X113549569Y-105839720D01*
X113392000Y-106220126D01*
X74622762Y-106220126D01*
X74825000Y-105731881D01*
X74825000Y-105176119D01*
X74612320Y-104662663D01*
X74219337Y-104269680D01*
X74012487Y-104184000D01*
X74219337Y-104098320D01*
X74612320Y-103705337D01*
X74763861Y-103339483D01*
X120544357Y-103339483D01*
X120544357Y-103751231D01*
X120701926Y-104131637D01*
X120993077Y-104422788D01*
X121139000Y-104483231D01*
X121139000Y-104508014D01*
X121079720Y-104532569D01*
X120788569Y-104823720D01*
X120631000Y-105204126D01*
X120631000Y-105615874D01*
X120788569Y-105996280D01*
X121079720Y-106287431D01*
X121460126Y-106445000D01*
X121871874Y-106445000D01*
X122155000Y-106327726D01*
X122155000Y-106631874D01*
X122312569Y-107012280D01*
X122603720Y-107303431D01*
X122984126Y-107461000D01*
X123395874Y-107461000D01*
X123776280Y-107303431D01*
X124067431Y-107012280D01*
X124207789Y-106673425D01*
X154583000Y-106673425D01*
X154583000Y-107194575D01*
X154782436Y-107676055D01*
X155150945Y-108044564D01*
X155632425Y-108244000D01*
X156153575Y-108244000D01*
X156635055Y-108044564D01*
X156893000Y-107786619D01*
X157150945Y-108044564D01*
X157632425Y-108244000D01*
X158153575Y-108244000D01*
X158635055Y-108044564D01*
X158701158Y-107978461D01*
X158760191Y-108066809D01*
X158970235Y-108207157D01*
X159218000Y-108256440D01*
X160568000Y-108256440D01*
X160815765Y-108207157D01*
X161025809Y-108066809D01*
X161166157Y-107856765D01*
X161215440Y-107609000D01*
X161215440Y-106259000D01*
X161166157Y-106011235D01*
X161025809Y-105801191D01*
X160815765Y-105660843D01*
X160568000Y-105611560D01*
X159218000Y-105611560D01*
X158970235Y-105660843D01*
X158760191Y-105801191D01*
X158701158Y-105889539D01*
X158635055Y-105823436D01*
X158153575Y-105624000D01*
X157632425Y-105624000D01*
X157150945Y-105823436D01*
X156893000Y-106081381D01*
X156635055Y-105823436D01*
X156153575Y-105624000D01*
X155632425Y-105624000D01*
X155150945Y-105823436D01*
X154782436Y-106191945D01*
X154583000Y-106673425D01*
X124207789Y-106673425D01*
X124225000Y-106631874D01*
X124225000Y-106220126D01*
X124067431Y-105839720D01*
X123776280Y-105548569D01*
X123395874Y-105391000D01*
X122984126Y-105391000D01*
X122701000Y-105508274D01*
X122701000Y-105295986D01*
X122760280Y-105271431D01*
X123051431Y-104980280D01*
X123209000Y-104599874D01*
X123209000Y-104188126D01*
X123051431Y-103807720D01*
X122760280Y-103516569D01*
X122732350Y-103505000D01*
X122760280Y-103493431D01*
X123051431Y-103202280D01*
X123209000Y-102821874D01*
X123209000Y-102410126D01*
X123083856Y-102108000D01*
X123209000Y-101805874D01*
X123209000Y-101466425D01*
X154583000Y-101466425D01*
X154583000Y-101987575D01*
X154782436Y-102469055D01*
X155150945Y-102837564D01*
X155632425Y-103037000D01*
X156153575Y-103037000D01*
X156635055Y-102837564D01*
X156893000Y-102579619D01*
X157150945Y-102837564D01*
X157632425Y-103037000D01*
X158153575Y-103037000D01*
X158635055Y-102837564D01*
X158701158Y-102771461D01*
X158760191Y-102859809D01*
X158970235Y-103000157D01*
X159218000Y-103049440D01*
X160568000Y-103049440D01*
X160815765Y-103000157D01*
X161025809Y-102859809D01*
X161166157Y-102649765D01*
X161215440Y-102402000D01*
X161215440Y-101052000D01*
X161166157Y-100804235D01*
X161025809Y-100594191D01*
X160815765Y-100453843D01*
X160568000Y-100404560D01*
X159218000Y-100404560D01*
X158970235Y-100453843D01*
X158760191Y-100594191D01*
X158701158Y-100682539D01*
X158635055Y-100616436D01*
X158153575Y-100417000D01*
X157632425Y-100417000D01*
X157150945Y-100616436D01*
X156893000Y-100874381D01*
X156635055Y-100616436D01*
X156153575Y-100417000D01*
X155632425Y-100417000D01*
X155150945Y-100616436D01*
X154782436Y-100984945D01*
X154583000Y-101466425D01*
X123209000Y-101466425D01*
X123209000Y-101394126D01*
X123051431Y-101013720D01*
X122760280Y-100722569D01*
X122379874Y-100565000D01*
X121968126Y-100565000D01*
X121587720Y-100722569D01*
X121296569Y-101013720D01*
X121139000Y-101394126D01*
X121139000Y-101805874D01*
X121264144Y-102108000D01*
X121139000Y-102410126D01*
X121139000Y-102607483D01*
X120993077Y-102667926D01*
X120701926Y-102959077D01*
X120544357Y-103339483D01*
X74763861Y-103339483D01*
X74825000Y-103191881D01*
X74825000Y-102636119D01*
X74612320Y-102122663D01*
X74219337Y-101729680D01*
X74012487Y-101644000D01*
X74219337Y-101558320D01*
X74612320Y-101165337D01*
X74825000Y-100651881D01*
X74825000Y-100096119D01*
X74612320Y-99582663D01*
X74219337Y-99189680D01*
X74012487Y-99104000D01*
X74219337Y-99018320D01*
X74612320Y-98625337D01*
X74825000Y-98111881D01*
X74825000Y-98092126D01*
X103359000Y-98092126D01*
X103359000Y-98503874D01*
X103516569Y-98884280D01*
X103807720Y-99175431D01*
X104188126Y-99333000D01*
X104599874Y-99333000D01*
X104980280Y-99175431D01*
X105271431Y-98884280D01*
X105429000Y-98503874D01*
X105429000Y-98273870D01*
X105561163Y-98219126D01*
X113646000Y-98219126D01*
X113646000Y-98630874D01*
X113803569Y-99011280D01*
X114094720Y-99302431D01*
X114475126Y-99460000D01*
X114886874Y-99460000D01*
X115267280Y-99302431D01*
X115558431Y-99011280D01*
X115716000Y-98630874D01*
X115716000Y-98512000D01*
X118946560Y-98512000D01*
X118946560Y-99862000D01*
X118995843Y-100109765D01*
X119136191Y-100319809D01*
X119346235Y-100460157D01*
X119594000Y-100509440D01*
X120944000Y-100509440D01*
X121191765Y-100460157D01*
X121401809Y-100319809D01*
X121542157Y-100109765D01*
X121591440Y-99862000D01*
X121591440Y-98512000D01*
X121542157Y-98264235D01*
X121401809Y-98054191D01*
X121313461Y-97995158D01*
X121379564Y-97929055D01*
X121579000Y-97447575D01*
X121579000Y-96926425D01*
X121379564Y-96444945D01*
X121121619Y-96187000D01*
X121379564Y-95929055D01*
X121579000Y-95447575D01*
X121579000Y-94926425D01*
X121379564Y-94444945D01*
X121121619Y-94187000D01*
X121379564Y-93929055D01*
X121579000Y-93447575D01*
X121579000Y-92926425D01*
X121379564Y-92444945D01*
X121011055Y-92076436D01*
X120529575Y-91877000D01*
X120008425Y-91877000D01*
X119526945Y-92076436D01*
X119158436Y-92444945D01*
X118959000Y-92926425D01*
X118959000Y-93447575D01*
X119158436Y-93929055D01*
X119416381Y-94187000D01*
X119158436Y-94444945D01*
X118959000Y-94926425D01*
X118959000Y-95447575D01*
X119158436Y-95929055D01*
X119416381Y-96187000D01*
X119158436Y-96444945D01*
X118959000Y-96926425D01*
X118959000Y-97447575D01*
X119158436Y-97929055D01*
X119224539Y-97995158D01*
X119136191Y-98054191D01*
X118995843Y-98264235D01*
X118946560Y-98512000D01*
X115716000Y-98512000D01*
X115716000Y-98219126D01*
X115558431Y-97838720D01*
X115267280Y-97547569D01*
X114886874Y-97390000D01*
X114475126Y-97390000D01*
X114094720Y-97547569D01*
X113803569Y-97838720D01*
X113646000Y-98219126D01*
X105561163Y-98219126D01*
X105705280Y-98159431D01*
X105996431Y-97868280D01*
X106154000Y-97487874D01*
X106154000Y-97076126D01*
X105996431Y-96695720D01*
X105705280Y-96404569D01*
X105324874Y-96247000D01*
X104913126Y-96247000D01*
X104532720Y-96404569D01*
X104241569Y-96695720D01*
X104084000Y-97076126D01*
X104084000Y-97306130D01*
X103807720Y-97420569D01*
X103516569Y-97711720D01*
X103359000Y-98092126D01*
X74825000Y-98092126D01*
X74825000Y-97556119D01*
X74612320Y-97042663D01*
X74219337Y-96649680D01*
X74012487Y-96564000D01*
X74219337Y-96478320D01*
X74612320Y-96085337D01*
X74825000Y-95571881D01*
X74825000Y-95016119D01*
X74612320Y-94502663D01*
X74219337Y-94109680D01*
X74022449Y-94028126D01*
X102851000Y-94028126D01*
X102851000Y-94439874D01*
X103008569Y-94820280D01*
X103299720Y-95111431D01*
X103680126Y-95269000D01*
X104091874Y-95269000D01*
X104401943Y-95140565D01*
X104700779Y-95264347D01*
X105112527Y-95264347D01*
X105492933Y-95106778D01*
X105784084Y-94815627D01*
X105941653Y-94435221D01*
X105941653Y-94282126D01*
X106915000Y-94282126D01*
X106915000Y-94693874D01*
X107072569Y-95074280D01*
X107363720Y-95365431D01*
X107744126Y-95523000D01*
X108155874Y-95523000D01*
X108536280Y-95365431D01*
X108827431Y-95074280D01*
X108985000Y-94693874D01*
X108985000Y-94282126D01*
X108827431Y-93901720D01*
X108536280Y-93610569D01*
X108155874Y-93453000D01*
X107744126Y-93453000D01*
X107363720Y-93610569D01*
X107072569Y-93901720D01*
X106915000Y-94282126D01*
X105941653Y-94282126D01*
X105941653Y-94023473D01*
X105784084Y-93643067D01*
X105492933Y-93351916D01*
X105112527Y-93194347D01*
X104700779Y-93194347D01*
X104390710Y-93322782D01*
X104091874Y-93199000D01*
X103680126Y-93199000D01*
X103299720Y-93356569D01*
X103008569Y-93647720D01*
X102851000Y-94028126D01*
X74022449Y-94028126D01*
X74012487Y-94024000D01*
X74219337Y-93938320D01*
X74612320Y-93545337D01*
X74825000Y-93031881D01*
X74825000Y-92476119D01*
X74612320Y-91962663D01*
X74219337Y-91569680D01*
X74022449Y-91488126D01*
X76181000Y-91488126D01*
X76181000Y-91899874D01*
X76338569Y-92280280D01*
X76629720Y-92571431D01*
X77010126Y-92729000D01*
X77421874Y-92729000D01*
X77802280Y-92571431D01*
X78093431Y-92280280D01*
X78251000Y-91899874D01*
X78251000Y-91488126D01*
X78093431Y-91107720D01*
X77802280Y-90816569D01*
X77421874Y-90659000D01*
X77010126Y-90659000D01*
X76629720Y-90816569D01*
X76338569Y-91107720D01*
X76181000Y-91488126D01*
X74022449Y-91488126D01*
X74012487Y-91484000D01*
X74219337Y-91398320D01*
X74612320Y-91005337D01*
X74825000Y-90491881D01*
X74825000Y-89936119D01*
X74612320Y-89422663D01*
X74219337Y-89029680D01*
X74012487Y-88944000D01*
X74219337Y-88858320D01*
X74612320Y-88465337D01*
X74622762Y-88440126D01*
X74657000Y-88440126D01*
X74657000Y-88851874D01*
X74814569Y-89232280D01*
X75105720Y-89523431D01*
X75486126Y-89681000D01*
X75897874Y-89681000D01*
X76278280Y-89523431D01*
X76569431Y-89232280D01*
X76727000Y-88851874D01*
X76727000Y-88440126D01*
X76569431Y-88059720D01*
X76278280Y-87768569D01*
X75897874Y-87611000D01*
X75486126Y-87611000D01*
X75105720Y-87768569D01*
X74814569Y-88059720D01*
X74657000Y-88440126D01*
X74622762Y-88440126D01*
X74825000Y-87951881D01*
X74825000Y-87463000D01*
X137869560Y-87463000D01*
X137869560Y-88813000D01*
X137918843Y-89060765D01*
X138059191Y-89270809D01*
X138147539Y-89329842D01*
X138081436Y-89395945D01*
X137882000Y-89877425D01*
X137882000Y-90398575D01*
X138081436Y-90880055D01*
X138339381Y-91138000D01*
X138081436Y-91395945D01*
X137882000Y-91877425D01*
X137882000Y-92398575D01*
X138081436Y-92880055D01*
X138339381Y-93138000D01*
X138081436Y-93395945D01*
X137882000Y-93877425D01*
X137882000Y-94398575D01*
X138081436Y-94880055D01*
X138339381Y-95138000D01*
X138081436Y-95395945D01*
X137882000Y-95877425D01*
X137882000Y-96398575D01*
X138081436Y-96880055D01*
X138339381Y-97138000D01*
X138081436Y-97395945D01*
X137882000Y-97877425D01*
X137882000Y-98398575D01*
X138081436Y-98880055D01*
X138449945Y-99248564D01*
X138931425Y-99448000D01*
X139452575Y-99448000D01*
X139934055Y-99248564D01*
X140302564Y-98880055D01*
X140502000Y-98398575D01*
X140502000Y-97877425D01*
X140302564Y-97395945D01*
X140044619Y-97138000D01*
X140302564Y-96880055D01*
X140502000Y-96398575D01*
X140502000Y-96259425D01*
X154583000Y-96259425D01*
X154583000Y-96780575D01*
X154782436Y-97262055D01*
X155150945Y-97630564D01*
X155632425Y-97830000D01*
X156153575Y-97830000D01*
X156635055Y-97630564D01*
X156893000Y-97372619D01*
X157150945Y-97630564D01*
X157632425Y-97830000D01*
X158153575Y-97830000D01*
X158635055Y-97630564D01*
X158701158Y-97564461D01*
X158760191Y-97652809D01*
X158970235Y-97793157D01*
X159218000Y-97842440D01*
X160568000Y-97842440D01*
X160815765Y-97793157D01*
X161025809Y-97652809D01*
X161166157Y-97442765D01*
X161215440Y-97195000D01*
X161215440Y-95845000D01*
X161166157Y-95597235D01*
X161025809Y-95387191D01*
X160815765Y-95246843D01*
X160568000Y-95197560D01*
X159218000Y-95197560D01*
X158970235Y-95246843D01*
X158760191Y-95387191D01*
X158701158Y-95475539D01*
X158635055Y-95409436D01*
X158153575Y-95210000D01*
X157632425Y-95210000D01*
X157150945Y-95409436D01*
X156893000Y-95667381D01*
X156635055Y-95409436D01*
X156153575Y-95210000D01*
X155632425Y-95210000D01*
X155150945Y-95409436D01*
X154782436Y-95777945D01*
X154583000Y-96259425D01*
X140502000Y-96259425D01*
X140502000Y-95877425D01*
X140302564Y-95395945D01*
X140044619Y-95138000D01*
X140302564Y-94880055D01*
X140502000Y-94398575D01*
X140502000Y-93877425D01*
X140302564Y-93395945D01*
X140044619Y-93138000D01*
X140302564Y-92880055D01*
X140502000Y-92398575D01*
X140502000Y-91877425D01*
X140302564Y-91395945D01*
X140044619Y-91138000D01*
X140130194Y-91052425D01*
X154583000Y-91052425D01*
X154583000Y-91573575D01*
X154782436Y-92055055D01*
X155150945Y-92423564D01*
X155632425Y-92623000D01*
X156153575Y-92623000D01*
X156635055Y-92423564D01*
X156893000Y-92165619D01*
X157150945Y-92423564D01*
X157632425Y-92623000D01*
X158153575Y-92623000D01*
X158635055Y-92423564D01*
X158701158Y-92357461D01*
X158760191Y-92445809D01*
X158970235Y-92586157D01*
X159218000Y-92635440D01*
X160568000Y-92635440D01*
X160815765Y-92586157D01*
X161025809Y-92445809D01*
X161166157Y-92235765D01*
X161215440Y-91988000D01*
X161215440Y-90638000D01*
X161166157Y-90390235D01*
X161025809Y-90180191D01*
X160815765Y-90039843D01*
X160568000Y-89990560D01*
X159218000Y-89990560D01*
X158970235Y-90039843D01*
X158760191Y-90180191D01*
X158701158Y-90268539D01*
X158635055Y-90202436D01*
X158153575Y-90003000D01*
X157632425Y-90003000D01*
X157150945Y-90202436D01*
X156893000Y-90460381D01*
X156635055Y-90202436D01*
X156153575Y-90003000D01*
X155632425Y-90003000D01*
X155150945Y-90202436D01*
X154782436Y-90570945D01*
X154583000Y-91052425D01*
X140130194Y-91052425D01*
X140302564Y-90880055D01*
X140502000Y-90398575D01*
X140502000Y-89877425D01*
X140302564Y-89395945D01*
X140236461Y-89329842D01*
X140324809Y-89270809D01*
X140465157Y-89060765D01*
X140514440Y-88813000D01*
X140514440Y-87463000D01*
X140465157Y-87215235D01*
X140324809Y-87005191D01*
X140114765Y-86864843D01*
X139867000Y-86815560D01*
X138517000Y-86815560D01*
X138269235Y-86864843D01*
X138059191Y-87005191D01*
X137918843Y-87215235D01*
X137869560Y-87463000D01*
X74825000Y-87463000D01*
X74825000Y-87396119D01*
X74612320Y-86882663D01*
X74219337Y-86489680D01*
X74012487Y-86404000D01*
X74219337Y-86318320D01*
X74612320Y-85925337D01*
X74825000Y-85411881D01*
X74825000Y-84856119D01*
X74612320Y-84342663D01*
X74219337Y-83949680D01*
X74012487Y-83864000D01*
X74219337Y-83778320D01*
X74612320Y-83385337D01*
X74825000Y-82871881D01*
X74825000Y-82316119D01*
X74612320Y-81802663D01*
X74219337Y-81409680D01*
X74012487Y-81324000D01*
X74219337Y-81238320D01*
X74612320Y-80845337D01*
X74825000Y-80331881D01*
X74825000Y-79776119D01*
X74731391Y-79550126D01*
X91040000Y-79550126D01*
X91040000Y-79961874D01*
X91197569Y-80342280D01*
X91488720Y-80633431D01*
X91869126Y-80791000D01*
X92280874Y-80791000D01*
X92661280Y-80633431D01*
X92952431Y-80342280D01*
X93110000Y-79961874D01*
X93110000Y-79550126D01*
X92952431Y-79169720D01*
X92661280Y-78878569D01*
X92280874Y-78721000D01*
X91869126Y-78721000D01*
X91488720Y-78878569D01*
X91197569Y-79169720D01*
X91040000Y-79550126D01*
X74731391Y-79550126D01*
X74612320Y-79262663D01*
X74259310Y-78909653D01*
X74437765Y-78874157D01*
X74647809Y-78733809D01*
X74788157Y-78523765D01*
X74836619Y-78280126D01*
X154159000Y-78280126D01*
X154159000Y-78691874D01*
X154316569Y-79072280D01*
X154607720Y-79363431D01*
X154988126Y-79521000D01*
X155399874Y-79521000D01*
X155780280Y-79363431D01*
X156071431Y-79072280D01*
X156229000Y-78691874D01*
X156229000Y-78280126D01*
X156071431Y-77899720D01*
X155780280Y-77608569D01*
X155399874Y-77451000D01*
X154988126Y-77451000D01*
X154607720Y-77608569D01*
X154316569Y-77899720D01*
X154159000Y-78280126D01*
X74836619Y-78280126D01*
X74837440Y-78276000D01*
X74837440Y-76752000D01*
X74788157Y-76504235D01*
X74647809Y-76294191D01*
X74437765Y-76153843D01*
X74190000Y-76104560D01*
X72666000Y-76104560D01*
X72418235Y-76153843D01*
X72208191Y-76294191D01*
X72067843Y-76504235D01*
X72032347Y-76682690D01*
X71679337Y-76329680D01*
X71165881Y-76117000D01*
X70610119Y-76117000D01*
X70096663Y-76329680D01*
X69703680Y-76722663D01*
X69491000Y-77236119D01*
X55853440Y-77236119D01*
X55853440Y-75858000D01*
X55804157Y-75610235D01*
X55663809Y-75400191D01*
X55453765Y-75259843D01*
X55206000Y-75210560D01*
X53506000Y-75210560D01*
X53258235Y-75259843D01*
X53060043Y-75392272D01*
X52651385Y-75223000D01*
X52060615Y-75223000D01*
X51514815Y-75449078D01*
X51097078Y-75866815D01*
X50871000Y-76412615D01*
X33273708Y-76412615D01*
X33993172Y-74544689D01*
X35324635Y-71506498D01*
X35345806Y-71463594D01*
X47261000Y-71463594D01*
X47261000Y-72412406D01*
X47624095Y-73288994D01*
X48295006Y-73959905D01*
X49171594Y-74323000D01*
X50120406Y-74323000D01*
X50996994Y-73959905D01*
X51667905Y-73288994D01*
X52031000Y-72412406D01*
X52031000Y-72020410D01*
X69023000Y-72020410D01*
X69023000Y-73267590D01*
X69500276Y-74419835D01*
X70382165Y-75301724D01*
X71534410Y-75779000D01*
X72781590Y-75779000D01*
X73933835Y-75301724D01*
X74815724Y-74419835D01*
X75293000Y-73267590D01*
X75293000Y-72020410D01*
X74815724Y-70868165D01*
X73972685Y-70025126D01*
X86087000Y-70025126D01*
X86087000Y-70436874D01*
X86244569Y-70817280D01*
X86535720Y-71108431D01*
X86916126Y-71266000D01*
X87327874Y-71266000D01*
X87708280Y-71108431D01*
X87863547Y-70953164D01*
X113362790Y-70953164D01*
X113362790Y-71364912D01*
X113520359Y-71745318D01*
X113811510Y-72036469D01*
X114191916Y-72194038D01*
X114603664Y-72194038D01*
X114984070Y-72036469D01*
X115000129Y-72020410D01*
X118023000Y-72020410D01*
X118023000Y-73267590D01*
X118500276Y-74419835D01*
X119382165Y-75301724D01*
X120534410Y-75779000D01*
X121781590Y-75779000D01*
X122933835Y-75301724D01*
X123815724Y-74419835D01*
X124293000Y-73267590D01*
X124293000Y-72020410D01*
X123815724Y-70868165D01*
X122933835Y-69986276D01*
X121781590Y-69509000D01*
X120534410Y-69509000D01*
X119382165Y-69986276D01*
X118500276Y-70868165D01*
X118023000Y-72020410D01*
X115000129Y-72020410D01*
X115275221Y-71745318D01*
X115432790Y-71364912D01*
X115432790Y-70953164D01*
X115275221Y-70572758D01*
X114984070Y-70281607D01*
X114603664Y-70124038D01*
X114191916Y-70124038D01*
X113811510Y-70281607D01*
X113520359Y-70572758D01*
X113362790Y-70953164D01*
X87863547Y-70953164D01*
X87999431Y-70817280D01*
X88157000Y-70436874D01*
X88157000Y-70025126D01*
X87999431Y-69644720D01*
X87708280Y-69353569D01*
X87327874Y-69196000D01*
X86916126Y-69196000D01*
X86535720Y-69353569D01*
X86244569Y-69644720D01*
X86087000Y-70025126D01*
X73972685Y-70025126D01*
X73933835Y-69986276D01*
X72781590Y-69509000D01*
X71534410Y-69509000D01*
X70382165Y-69986276D01*
X69500276Y-70868165D01*
X69023000Y-72020410D01*
X52031000Y-72020410D01*
X52031000Y-71463594D01*
X51667905Y-70587006D01*
X50996994Y-69916095D01*
X50120406Y-69553000D01*
X49171594Y-69553000D01*
X48295006Y-69916095D01*
X47624095Y-70587006D01*
X47261000Y-71463594D01*
X35345806Y-71463594D01*
X36792560Y-68531810D01*
X38393909Y-65626786D01*
X40125405Y-62797368D01*
X40681343Y-61975171D01*
X57125000Y-61975171D01*
X57125000Y-63500829D01*
X57708844Y-64910353D01*
X58787647Y-65989156D01*
X60197171Y-66573000D01*
X61722829Y-66573000D01*
X63132353Y-65989156D01*
X64211156Y-64910353D01*
X64795000Y-63500829D01*
X64795000Y-61975171D01*
X64604858Y-61516126D01*
X81007000Y-61516126D01*
X81007000Y-61927874D01*
X81164569Y-62308280D01*
X81455720Y-62599431D01*
X81836126Y-62757000D01*
X82247874Y-62757000D01*
X82628280Y-62599431D01*
X82919431Y-62308280D01*
X83057408Y-61975171D01*
X139675000Y-61975171D01*
X139675000Y-63500829D01*
X140258844Y-64910353D01*
X141337647Y-65989156D01*
X142747171Y-66573000D01*
X144272829Y-66573000D01*
X145682353Y-65989156D01*
X146761156Y-64910353D01*
X147345000Y-63500829D01*
X147345000Y-61975171D01*
X146761156Y-60565647D01*
X145682353Y-59486844D01*
X144272829Y-58903000D01*
X142747171Y-58903000D01*
X141337647Y-59486844D01*
X140258844Y-60565647D01*
X139675000Y-61975171D01*
X83057408Y-61975171D01*
X83077000Y-61927874D01*
X83077000Y-61516126D01*
X82919431Y-61135720D01*
X82628280Y-60844569D01*
X82247874Y-60687000D01*
X81836126Y-60687000D01*
X81455720Y-60844569D01*
X81164569Y-61135720D01*
X81007000Y-61516126D01*
X64604858Y-61516126D01*
X64211156Y-60565647D01*
X63132353Y-59486844D01*
X61722829Y-58903000D01*
X60197171Y-58903000D01*
X58787647Y-59486844D01*
X57708844Y-60565647D01*
X57125000Y-61975171D01*
X40681343Y-61975171D01*
X41983468Y-60049413D01*
X43964240Y-57388617D01*
X44882503Y-56265322D01*
X97559000Y-56265322D01*
X97559000Y-57114678D01*
X97884034Y-57899380D01*
X98484620Y-58499966D01*
X99269322Y-58825000D01*
X100118678Y-58825000D01*
X100903380Y-58499966D01*
X101503966Y-57899380D01*
X101761764Y-57277000D01*
X102409000Y-57277000D01*
X102409000Y-57577000D01*
X102608700Y-58326959D01*
X103080196Y-58943409D01*
X103751706Y-59332501D01*
X103958677Y-59386677D01*
X104267000Y-59271829D01*
X104267000Y-57277000D01*
X104521000Y-57277000D01*
X104521000Y-59271829D01*
X104829323Y-59386677D01*
X105036294Y-59332501D01*
X105707804Y-58943409D01*
X106179300Y-58326959D01*
X106379000Y-57577000D01*
X106379000Y-57277000D01*
X104521000Y-57277000D01*
X104267000Y-57277000D01*
X102409000Y-57277000D01*
X101761764Y-57277000D01*
X101829000Y-57114678D01*
X101829000Y-56723000D01*
X102409000Y-56723000D01*
X102409000Y-57023000D01*
X104267000Y-57023000D01*
X104267000Y-55028171D01*
X104521000Y-55028171D01*
X104521000Y-57023000D01*
X106379000Y-57023000D01*
X106379000Y-56723000D01*
X106360760Y-56654498D01*
X106609000Y-56654498D01*
X106609000Y-57645503D01*
X106724171Y-58224508D01*
X107162896Y-58881105D01*
X107819493Y-59319829D01*
X108594000Y-59473888D01*
X109368508Y-59319829D01*
X110025105Y-58881105D01*
X110463829Y-58224508D01*
X110579000Y-57645502D01*
X110579000Y-56654498D01*
X110809000Y-56654498D01*
X110809000Y-57645503D01*
X110924171Y-58224508D01*
X111362896Y-58881105D01*
X112019493Y-59319829D01*
X112794000Y-59473888D01*
X113568508Y-59319829D01*
X114225105Y-58881105D01*
X114663829Y-58224508D01*
X114779000Y-57645502D01*
X114779000Y-56654498D01*
X115009000Y-56654498D01*
X115009000Y-57645503D01*
X115124171Y-58224508D01*
X115562896Y-58881105D01*
X116219493Y-59319829D01*
X116994000Y-59473888D01*
X117768508Y-59319829D01*
X118425105Y-58881105D01*
X118863829Y-58224508D01*
X118979000Y-57645502D01*
X118979000Y-56654497D01*
X118901589Y-56265322D01*
X119559000Y-56265322D01*
X119559000Y-57114678D01*
X119884034Y-57899380D01*
X120484620Y-58499966D01*
X121269322Y-58825000D01*
X122118678Y-58825000D01*
X122903380Y-58499966D01*
X123503966Y-57899380D01*
X123829000Y-57114678D01*
X123829000Y-56265322D01*
X123503966Y-55480620D01*
X122903380Y-54880034D01*
X122118678Y-54555000D01*
X121269322Y-54555000D01*
X120484620Y-54880034D01*
X119884034Y-55480620D01*
X119559000Y-56265322D01*
X118901589Y-56265322D01*
X118863829Y-56075492D01*
X118425105Y-55418895D01*
X117768507Y-54980171D01*
X116994000Y-54826112D01*
X116219492Y-54980171D01*
X115562895Y-55418895D01*
X115124171Y-56075493D01*
X115009000Y-56654498D01*
X114779000Y-56654498D01*
X114779000Y-56654497D01*
X114663829Y-56075492D01*
X114225105Y-55418895D01*
X113568507Y-54980171D01*
X112794000Y-54826112D01*
X112019492Y-54980171D01*
X111362895Y-55418895D01*
X110924171Y-56075493D01*
X110809000Y-56654498D01*
X110579000Y-56654498D01*
X110579000Y-56654497D01*
X110463829Y-56075492D01*
X110025105Y-55418895D01*
X109368507Y-54980171D01*
X108594000Y-54826112D01*
X107819492Y-54980171D01*
X107162895Y-55418895D01*
X106724171Y-56075493D01*
X106609000Y-56654498D01*
X106360760Y-56654498D01*
X106179300Y-55973041D01*
X105707804Y-55356591D01*
X105036294Y-54967499D01*
X104829323Y-54913323D01*
X104521000Y-55028171D01*
X104267000Y-55028171D01*
X103958677Y-54913323D01*
X103751706Y-54967499D01*
X103080196Y-55356591D01*
X102608700Y-55973041D01*
X102409000Y-56723000D01*
X101829000Y-56723000D01*
X101829000Y-56265322D01*
X101503966Y-55480620D01*
X100903380Y-54880034D01*
X100118678Y-54555000D01*
X99269322Y-54555000D01*
X98484620Y-54880034D01*
X97884034Y-55480620D01*
X97559000Y-56265322D01*
X44882503Y-56265322D01*
X46063711Y-54820371D01*
X48277509Y-52350023D01*
X50297455Y-50292000D01*
X63614560Y-50292000D01*
X63614560Y-51816000D01*
X63663843Y-52063765D01*
X63804191Y-52273809D01*
X64014235Y-52414157D01*
X64262000Y-52463440D01*
X65786000Y-52463440D01*
X66033765Y-52414157D01*
X66243809Y-52273809D01*
X66384157Y-52063765D01*
X66390035Y-52034213D01*
X76923392Y-52034213D01*
X76992857Y-52276397D01*
X77516302Y-52463144D01*
X78071368Y-52435362D01*
X78455143Y-52276397D01*
X78524608Y-52034213D01*
X77724000Y-51233605D01*
X76923392Y-52034213D01*
X66390035Y-52034213D01*
X66433440Y-51816000D01*
X66433440Y-50846302D01*
X76314856Y-50846302D01*
X76342638Y-51401368D01*
X76501603Y-51785143D01*
X76743787Y-51854608D01*
X77544395Y-51054000D01*
X77903605Y-51054000D01*
X78704213Y-51854608D01*
X78946397Y-51785143D01*
X79133144Y-51261698D01*
X79105362Y-50706632D01*
X78946397Y-50322857D01*
X78704213Y-50253392D01*
X77903605Y-51054000D01*
X77544395Y-51054000D01*
X76743787Y-50253392D01*
X76501603Y-50322857D01*
X76314856Y-50846302D01*
X66433440Y-50846302D01*
X66433440Y-50292000D01*
X66390036Y-50073787D01*
X76923392Y-50073787D01*
X77724000Y-50874395D01*
X78524608Y-50073787D01*
X78503444Y-50000000D01*
X102396560Y-50000000D01*
X102396560Y-53300000D01*
X102445843Y-53547765D01*
X102586191Y-53757809D01*
X102796235Y-53898157D01*
X103044000Y-53947440D01*
X105744000Y-53947440D01*
X105991765Y-53898157D01*
X106201809Y-53757809D01*
X106342157Y-53547765D01*
X106391440Y-53300000D01*
X106391440Y-51154498D01*
X106609000Y-51154498D01*
X106609000Y-52145503D01*
X106724171Y-52724508D01*
X107162896Y-53381105D01*
X107819493Y-53819829D01*
X108594000Y-53973888D01*
X109368508Y-53819829D01*
X110025105Y-53381105D01*
X110463829Y-52724508D01*
X110579000Y-52145502D01*
X110579000Y-51154498D01*
X110809000Y-51154498D01*
X110809000Y-52145503D01*
X110924171Y-52724508D01*
X111362896Y-53381105D01*
X112019493Y-53819829D01*
X112794000Y-53973888D01*
X113568508Y-53819829D01*
X114225105Y-53381105D01*
X114663829Y-52724508D01*
X114779000Y-52145502D01*
X114779000Y-51154498D01*
X115009000Y-51154498D01*
X115009000Y-52145503D01*
X115124171Y-52724508D01*
X115562896Y-53381105D01*
X116219493Y-53819829D01*
X116994000Y-53973888D01*
X117768508Y-53819829D01*
X118425105Y-53381105D01*
X118863829Y-52724508D01*
X118979000Y-52145502D01*
X118979000Y-51154497D01*
X118863829Y-50575492D01*
X118425105Y-49918895D01*
X117768507Y-49480171D01*
X116994000Y-49326112D01*
X116219492Y-49480171D01*
X115562895Y-49918895D01*
X115124171Y-50575493D01*
X115009000Y-51154498D01*
X114779000Y-51154498D01*
X114779000Y-51154497D01*
X114663829Y-50575492D01*
X114225105Y-49918895D01*
X113568507Y-49480171D01*
X112794000Y-49326112D01*
X112019492Y-49480171D01*
X111362895Y-49918895D01*
X110924171Y-50575493D01*
X110809000Y-51154498D01*
X110579000Y-51154498D01*
X110579000Y-51154497D01*
X110463829Y-50575492D01*
X110025105Y-49918895D01*
X109368507Y-49480171D01*
X108594000Y-49326112D01*
X107819492Y-49480171D01*
X107162895Y-49918895D01*
X106724171Y-50575493D01*
X106609000Y-51154498D01*
X106391440Y-51154498D01*
X106391440Y-50000000D01*
X106342157Y-49752235D01*
X106201809Y-49542191D01*
X105991765Y-49401843D01*
X105744000Y-49352560D01*
X103044000Y-49352560D01*
X102796235Y-49401843D01*
X102586191Y-49542191D01*
X102445843Y-49752235D01*
X102396560Y-50000000D01*
X78503444Y-50000000D01*
X78455143Y-49831603D01*
X77931698Y-49644856D01*
X77376632Y-49672638D01*
X76992857Y-49831603D01*
X76923392Y-50073787D01*
X66390036Y-50073787D01*
X66384157Y-50044235D01*
X66243809Y-49834191D01*
X66033765Y-49693843D01*
X65786000Y-49644560D01*
X64262000Y-49644560D01*
X64014235Y-49693843D01*
X63804191Y-49834191D01*
X63663843Y-50044235D01*
X63614560Y-50292000D01*
X50297455Y-50292000D01*
X50601091Y-49982641D01*
X53029676Y-47723098D01*
X55558254Y-45576054D01*
X58181637Y-43545916D01*
X60894408Y-41636876D01*
X63690977Y-39852865D01*
X66565629Y-38197533D01*
X69512374Y-36674328D01*
X72525203Y-35286355D01*
X75597860Y-34036495D01*
X78724085Y-32927294D01*
X81897408Y-31961050D01*
X85111283Y-31139755D01*
X88359110Y-30465096D01*
X91634194Y-29938463D01*
X94929815Y-29560938D01*
X98239149Y-29333303D01*
X101555401Y-29256023D01*
X104871764Y-29329257D01*
G04 #@! TD*
M02*
