G04 #@! TF.GenerationSoftware,KiCad,Pcbnew,(5.0.0)*
G04 #@! TF.CreationDate,2019-02-04T22:48:53-05:00*
G04 #@! TF.ProjectId,control board,636F6E74726F6C20626F6172642E6B69,rev?*
G04 #@! TF.SameCoordinates,Original*
G04 #@! TF.FileFunction,Soldermask,Bot*
G04 #@! TF.FilePolarity,Negative*
%FSLAX46Y46*%
G04 Gerber Fmt 4.6, Leading zero omitted, Abs format (unit mm)*
G04 Created by KiCad (PCBNEW (5.0.0)) date 02/04/19 22:48:53*
%MOMM*%
%LPD*%
G01*
G04 APERTURE LIST*
%ADD10R,1.252400X0.552400*%
%ADD11C,0.100000*%
%ADD12C,1.102400*%
%ADD13R,1.852400X1.852400*%
%ADD14O,1.852400X1.852400*%
%ADD15R,1.052400X0.952400*%
%ADD16C,5.152400*%
%ADD17R,1.676400X1.676400*%
%ADD18C,1.676400*%
%ADD19R,2.852400X3.452400*%
%ADD20O,2.852400X3.452400*%
%ADD21C,3.152400*%
%ADD22C,1.652400*%
%ADD23R,1.652400X0.402400*%
%ADD24R,0.402400X1.652400*%
%ADD25C,1.502400*%
%ADD26R,1.502400X1.502400*%
%ADD27R,2.152400X3.952400*%
%ADD28R,2.152400X1.652400*%
%ADD29C,0.400000*%
%ADD30R,0.552400X0.827400*%
%ADD31R,0.827400X0.552400*%
%ADD32C,6.552400*%
%ADD33C,1.852400*%
%ADD34C,3.652400*%
%ADD35R,1.702400X0.752400*%
%ADD36R,1.702400X1.452400*%
G04 APERTURE END LIST*
D10*
G04 #@! TO.C,U6*
X114672000Y-101686000D03*
X114672000Y-101036000D03*
X114672000Y-100386000D03*
X114672000Y-99736000D03*
X110372000Y-99736000D03*
X110372000Y-100386000D03*
X110372000Y-101036000D03*
X110372000Y-101686000D03*
G04 #@! TD*
D11*
G04 #@! TO.C,C13*
G36*
X114729614Y-118921127D02*
X114756367Y-118925096D01*
X114782602Y-118931667D01*
X114808068Y-118940779D01*
X114832517Y-118952342D01*
X114855715Y-118966247D01*
X114877439Y-118982358D01*
X114897479Y-119000521D01*
X114915642Y-119020561D01*
X114931753Y-119042285D01*
X114945658Y-119065483D01*
X114957221Y-119089932D01*
X114966333Y-119115398D01*
X114972904Y-119141633D01*
X114976873Y-119168386D01*
X114978200Y-119195400D01*
X114978200Y-119846600D01*
X114976873Y-119873614D01*
X114972904Y-119900367D01*
X114966333Y-119926602D01*
X114957221Y-119952068D01*
X114945658Y-119976517D01*
X114931753Y-119999715D01*
X114915642Y-120021439D01*
X114897479Y-120041479D01*
X114877439Y-120059642D01*
X114855715Y-120075753D01*
X114832517Y-120089658D01*
X114808068Y-120101221D01*
X114782602Y-120110333D01*
X114756367Y-120116904D01*
X114729614Y-120120873D01*
X114702600Y-120122200D01*
X114151400Y-120122200D01*
X114124386Y-120120873D01*
X114097633Y-120116904D01*
X114071398Y-120110333D01*
X114045932Y-120101221D01*
X114021483Y-120089658D01*
X113998285Y-120075753D01*
X113976561Y-120059642D01*
X113956521Y-120041479D01*
X113938358Y-120021439D01*
X113922247Y-119999715D01*
X113908342Y-119976517D01*
X113896779Y-119952068D01*
X113887667Y-119926602D01*
X113881096Y-119900367D01*
X113877127Y-119873614D01*
X113875800Y-119846600D01*
X113875800Y-119195400D01*
X113877127Y-119168386D01*
X113881096Y-119141633D01*
X113887667Y-119115398D01*
X113896779Y-119089932D01*
X113908342Y-119065483D01*
X113922247Y-119042285D01*
X113938358Y-119020561D01*
X113956521Y-119000521D01*
X113976561Y-118982358D01*
X113998285Y-118966247D01*
X114021483Y-118952342D01*
X114045932Y-118940779D01*
X114071398Y-118931667D01*
X114097633Y-118925096D01*
X114124386Y-118921127D01*
X114151400Y-118919800D01*
X114702600Y-118919800D01*
X114729614Y-118921127D01*
X114729614Y-118921127D01*
G37*
D12*
X114427000Y-119521000D03*
D11*
G36*
X114729614Y-120671127D02*
X114756367Y-120675096D01*
X114782602Y-120681667D01*
X114808068Y-120690779D01*
X114832517Y-120702342D01*
X114855715Y-120716247D01*
X114877439Y-120732358D01*
X114897479Y-120750521D01*
X114915642Y-120770561D01*
X114931753Y-120792285D01*
X114945658Y-120815483D01*
X114957221Y-120839932D01*
X114966333Y-120865398D01*
X114972904Y-120891633D01*
X114976873Y-120918386D01*
X114978200Y-120945400D01*
X114978200Y-121596600D01*
X114976873Y-121623614D01*
X114972904Y-121650367D01*
X114966333Y-121676602D01*
X114957221Y-121702068D01*
X114945658Y-121726517D01*
X114931753Y-121749715D01*
X114915642Y-121771439D01*
X114897479Y-121791479D01*
X114877439Y-121809642D01*
X114855715Y-121825753D01*
X114832517Y-121839658D01*
X114808068Y-121851221D01*
X114782602Y-121860333D01*
X114756367Y-121866904D01*
X114729614Y-121870873D01*
X114702600Y-121872200D01*
X114151400Y-121872200D01*
X114124386Y-121870873D01*
X114097633Y-121866904D01*
X114071398Y-121860333D01*
X114045932Y-121851221D01*
X114021483Y-121839658D01*
X113998285Y-121825753D01*
X113976561Y-121809642D01*
X113956521Y-121791479D01*
X113938358Y-121771439D01*
X113922247Y-121749715D01*
X113908342Y-121726517D01*
X113896779Y-121702068D01*
X113887667Y-121676602D01*
X113881096Y-121650367D01*
X113877127Y-121623614D01*
X113875800Y-121596600D01*
X113875800Y-120945400D01*
X113877127Y-120918386D01*
X113881096Y-120891633D01*
X113887667Y-120865398D01*
X113896779Y-120839932D01*
X113908342Y-120815483D01*
X113922247Y-120792285D01*
X113938358Y-120770561D01*
X113956521Y-120750521D01*
X113976561Y-120732358D01*
X113998285Y-120716247D01*
X114021483Y-120702342D01*
X114045932Y-120690779D01*
X114071398Y-120681667D01*
X114097633Y-120675096D01*
X114124386Y-120671127D01*
X114151400Y-120669800D01*
X114702600Y-120669800D01*
X114729614Y-120671127D01*
X114729614Y-120671127D01*
G37*
D12*
X114427000Y-121271000D03*
G04 #@! TD*
D11*
G04 #@! TO.C,C14*
G36*
X114729614Y-105431127D02*
X114756367Y-105435096D01*
X114782602Y-105441667D01*
X114808068Y-105450779D01*
X114832517Y-105462342D01*
X114855715Y-105476247D01*
X114877439Y-105492358D01*
X114897479Y-105510521D01*
X114915642Y-105530561D01*
X114931753Y-105552285D01*
X114945658Y-105575483D01*
X114957221Y-105599932D01*
X114966333Y-105625398D01*
X114972904Y-105651633D01*
X114976873Y-105678386D01*
X114978200Y-105705400D01*
X114978200Y-106356600D01*
X114976873Y-106383614D01*
X114972904Y-106410367D01*
X114966333Y-106436602D01*
X114957221Y-106462068D01*
X114945658Y-106486517D01*
X114931753Y-106509715D01*
X114915642Y-106531439D01*
X114897479Y-106551479D01*
X114877439Y-106569642D01*
X114855715Y-106585753D01*
X114832517Y-106599658D01*
X114808068Y-106611221D01*
X114782602Y-106620333D01*
X114756367Y-106626904D01*
X114729614Y-106630873D01*
X114702600Y-106632200D01*
X114151400Y-106632200D01*
X114124386Y-106630873D01*
X114097633Y-106626904D01*
X114071398Y-106620333D01*
X114045932Y-106611221D01*
X114021483Y-106599658D01*
X113998285Y-106585753D01*
X113976561Y-106569642D01*
X113956521Y-106551479D01*
X113938358Y-106531439D01*
X113922247Y-106509715D01*
X113908342Y-106486517D01*
X113896779Y-106462068D01*
X113887667Y-106436602D01*
X113881096Y-106410367D01*
X113877127Y-106383614D01*
X113875800Y-106356600D01*
X113875800Y-105705400D01*
X113877127Y-105678386D01*
X113881096Y-105651633D01*
X113887667Y-105625398D01*
X113896779Y-105599932D01*
X113908342Y-105575483D01*
X113922247Y-105552285D01*
X113938358Y-105530561D01*
X113956521Y-105510521D01*
X113976561Y-105492358D01*
X113998285Y-105476247D01*
X114021483Y-105462342D01*
X114045932Y-105450779D01*
X114071398Y-105441667D01*
X114097633Y-105435096D01*
X114124386Y-105431127D01*
X114151400Y-105429800D01*
X114702600Y-105429800D01*
X114729614Y-105431127D01*
X114729614Y-105431127D01*
G37*
D12*
X114427000Y-106031000D03*
D11*
G36*
X114729614Y-103681127D02*
X114756367Y-103685096D01*
X114782602Y-103691667D01*
X114808068Y-103700779D01*
X114832517Y-103712342D01*
X114855715Y-103726247D01*
X114877439Y-103742358D01*
X114897479Y-103760521D01*
X114915642Y-103780561D01*
X114931753Y-103802285D01*
X114945658Y-103825483D01*
X114957221Y-103849932D01*
X114966333Y-103875398D01*
X114972904Y-103901633D01*
X114976873Y-103928386D01*
X114978200Y-103955400D01*
X114978200Y-104606600D01*
X114976873Y-104633614D01*
X114972904Y-104660367D01*
X114966333Y-104686602D01*
X114957221Y-104712068D01*
X114945658Y-104736517D01*
X114931753Y-104759715D01*
X114915642Y-104781439D01*
X114897479Y-104801479D01*
X114877439Y-104819642D01*
X114855715Y-104835753D01*
X114832517Y-104849658D01*
X114808068Y-104861221D01*
X114782602Y-104870333D01*
X114756367Y-104876904D01*
X114729614Y-104880873D01*
X114702600Y-104882200D01*
X114151400Y-104882200D01*
X114124386Y-104880873D01*
X114097633Y-104876904D01*
X114071398Y-104870333D01*
X114045932Y-104861221D01*
X114021483Y-104849658D01*
X113998285Y-104835753D01*
X113976561Y-104819642D01*
X113956521Y-104801479D01*
X113938358Y-104781439D01*
X113922247Y-104759715D01*
X113908342Y-104736517D01*
X113896779Y-104712068D01*
X113887667Y-104686602D01*
X113881096Y-104660367D01*
X113877127Y-104633614D01*
X113875800Y-104606600D01*
X113875800Y-103955400D01*
X113877127Y-103928386D01*
X113881096Y-103901633D01*
X113887667Y-103875398D01*
X113896779Y-103849932D01*
X113908342Y-103825483D01*
X113922247Y-103802285D01*
X113938358Y-103780561D01*
X113956521Y-103760521D01*
X113976561Y-103742358D01*
X113998285Y-103726247D01*
X114021483Y-103712342D01*
X114045932Y-103700779D01*
X114071398Y-103691667D01*
X114097633Y-103685096D01*
X114124386Y-103681127D01*
X114151400Y-103679800D01*
X114702600Y-103679800D01*
X114729614Y-103681127D01*
X114729614Y-103681127D01*
G37*
D12*
X114427000Y-104281000D03*
G04 #@! TD*
D13*
G04 #@! TO.C,J1*
X99568000Y-119126000D03*
D14*
X99568000Y-121666000D03*
G04 #@! TD*
D13*
G04 #@! TO.C,J2*
X113538000Y-145796000D03*
D14*
X113538000Y-143256000D03*
X113538000Y-140716000D03*
X113538000Y-138176000D03*
X113538000Y-135636000D03*
X113538000Y-133096000D03*
G04 #@! TD*
D15*
G04 #@! TO.C,Q2*
X83836000Y-125410000D03*
X83836000Y-123510000D03*
X85836000Y-124460000D03*
G04 #@! TD*
D10*
G04 #@! TO.C,U4*
X110372000Y-116926000D03*
X110372000Y-116276000D03*
X110372000Y-115626000D03*
X110372000Y-114976000D03*
X114672000Y-114976000D03*
X114672000Y-115626000D03*
X114672000Y-116276000D03*
X114672000Y-116926000D03*
G04 #@! TD*
D16*
G04 #@! TO.C,P1*
X121158000Y-130644000D03*
X121158000Y-72644000D03*
X72158000Y-72644000D03*
X72158000Y-130644000D03*
D17*
X73428000Y-77514000D03*
D18*
X70888000Y-77514000D03*
X73428000Y-80054000D03*
X70888000Y-80054000D03*
X73428000Y-82594000D03*
X70888000Y-82594000D03*
X73428000Y-85134000D03*
X70888000Y-85134000D03*
X73428000Y-87674000D03*
X70888000Y-87674000D03*
X73428000Y-90214000D03*
X70888000Y-90214000D03*
X73428000Y-92754000D03*
X70888000Y-92754000D03*
X73428000Y-95294000D03*
X70888000Y-95294000D03*
X73428000Y-97834000D03*
X70888000Y-97834000D03*
X73428000Y-100374000D03*
X70888000Y-100374000D03*
X73428000Y-102914000D03*
X70888000Y-102914000D03*
X73428000Y-105454000D03*
X70888000Y-105454000D03*
X73428000Y-107994000D03*
X70888000Y-107994000D03*
X73428000Y-110534000D03*
X70888000Y-110534000D03*
X73428000Y-113074000D03*
X70888000Y-113074000D03*
X73428000Y-115614000D03*
X70888000Y-115614000D03*
X73428000Y-118154000D03*
X70888000Y-118154000D03*
X73428000Y-120694000D03*
X70888000Y-120694000D03*
X73428000Y-123234000D03*
X70888000Y-123234000D03*
X73428000Y-125774000D03*
X70888000Y-125774000D03*
G04 #@! TD*
D19*
G04 #@! TO.C,J7*
X104394000Y-51650000D03*
D20*
X108594000Y-51650000D03*
X112794000Y-51650000D03*
X116994000Y-51650000D03*
X104394000Y-57150000D03*
X108594000Y-57150000D03*
X112794000Y-57150000D03*
X116994000Y-57150000D03*
D21*
X99694000Y-56690000D03*
X121694000Y-56690000D03*
G04 #@! TD*
D11*
G04 #@! TO.C,C2*
G36*
X81124614Y-137626127D02*
X81151367Y-137630096D01*
X81177602Y-137636667D01*
X81203068Y-137645779D01*
X81227517Y-137657342D01*
X81250715Y-137671247D01*
X81272439Y-137687358D01*
X81292479Y-137705521D01*
X81310642Y-137725561D01*
X81326753Y-137747285D01*
X81340658Y-137770483D01*
X81352221Y-137794932D01*
X81361333Y-137820398D01*
X81367904Y-137846633D01*
X81371873Y-137873386D01*
X81373200Y-137900400D01*
X81373200Y-138451600D01*
X81371873Y-138478614D01*
X81367904Y-138505367D01*
X81361333Y-138531602D01*
X81352221Y-138557068D01*
X81340658Y-138581517D01*
X81326753Y-138604715D01*
X81310642Y-138626439D01*
X81292479Y-138646479D01*
X81272439Y-138664642D01*
X81250715Y-138680753D01*
X81227517Y-138694658D01*
X81203068Y-138706221D01*
X81177602Y-138715333D01*
X81151367Y-138721904D01*
X81124614Y-138725873D01*
X81097600Y-138727200D01*
X80446400Y-138727200D01*
X80419386Y-138725873D01*
X80392633Y-138721904D01*
X80366398Y-138715333D01*
X80340932Y-138706221D01*
X80316483Y-138694658D01*
X80293285Y-138680753D01*
X80271561Y-138664642D01*
X80251521Y-138646479D01*
X80233358Y-138626439D01*
X80217247Y-138604715D01*
X80203342Y-138581517D01*
X80191779Y-138557068D01*
X80182667Y-138531602D01*
X80176096Y-138505367D01*
X80172127Y-138478614D01*
X80170800Y-138451600D01*
X80170800Y-137900400D01*
X80172127Y-137873386D01*
X80176096Y-137846633D01*
X80182667Y-137820398D01*
X80191779Y-137794932D01*
X80203342Y-137770483D01*
X80217247Y-137747285D01*
X80233358Y-137725561D01*
X80251521Y-137705521D01*
X80271561Y-137687358D01*
X80293285Y-137671247D01*
X80316483Y-137657342D01*
X80340932Y-137645779D01*
X80366398Y-137636667D01*
X80392633Y-137630096D01*
X80419386Y-137626127D01*
X80446400Y-137624800D01*
X81097600Y-137624800D01*
X81124614Y-137626127D01*
X81124614Y-137626127D01*
G37*
D12*
X80772000Y-138176000D03*
D11*
G36*
X79374614Y-137626127D02*
X79401367Y-137630096D01*
X79427602Y-137636667D01*
X79453068Y-137645779D01*
X79477517Y-137657342D01*
X79500715Y-137671247D01*
X79522439Y-137687358D01*
X79542479Y-137705521D01*
X79560642Y-137725561D01*
X79576753Y-137747285D01*
X79590658Y-137770483D01*
X79602221Y-137794932D01*
X79611333Y-137820398D01*
X79617904Y-137846633D01*
X79621873Y-137873386D01*
X79623200Y-137900400D01*
X79623200Y-138451600D01*
X79621873Y-138478614D01*
X79617904Y-138505367D01*
X79611333Y-138531602D01*
X79602221Y-138557068D01*
X79590658Y-138581517D01*
X79576753Y-138604715D01*
X79560642Y-138626439D01*
X79542479Y-138646479D01*
X79522439Y-138664642D01*
X79500715Y-138680753D01*
X79477517Y-138694658D01*
X79453068Y-138706221D01*
X79427602Y-138715333D01*
X79401367Y-138721904D01*
X79374614Y-138725873D01*
X79347600Y-138727200D01*
X78696400Y-138727200D01*
X78669386Y-138725873D01*
X78642633Y-138721904D01*
X78616398Y-138715333D01*
X78590932Y-138706221D01*
X78566483Y-138694658D01*
X78543285Y-138680753D01*
X78521561Y-138664642D01*
X78501521Y-138646479D01*
X78483358Y-138626439D01*
X78467247Y-138604715D01*
X78453342Y-138581517D01*
X78441779Y-138557068D01*
X78432667Y-138531602D01*
X78426096Y-138505367D01*
X78422127Y-138478614D01*
X78420800Y-138451600D01*
X78420800Y-137900400D01*
X78422127Y-137873386D01*
X78426096Y-137846633D01*
X78432667Y-137820398D01*
X78441779Y-137794932D01*
X78453342Y-137770483D01*
X78467247Y-137747285D01*
X78483358Y-137725561D01*
X78501521Y-137705521D01*
X78521561Y-137687358D01*
X78543285Y-137671247D01*
X78566483Y-137657342D01*
X78590932Y-137645779D01*
X78616398Y-137636667D01*
X78642633Y-137630096D01*
X78669386Y-137626127D01*
X78696400Y-137624800D01*
X79347600Y-137624800D01*
X79374614Y-137626127D01*
X79374614Y-137626127D01*
G37*
D12*
X79022000Y-138176000D03*
G04 #@! TD*
D11*
G04 #@! TO.C,C3*
G36*
X79600614Y-132546127D02*
X79627367Y-132550096D01*
X79653602Y-132556667D01*
X79679068Y-132565779D01*
X79703517Y-132577342D01*
X79726715Y-132591247D01*
X79748439Y-132607358D01*
X79768479Y-132625521D01*
X79786642Y-132645561D01*
X79802753Y-132667285D01*
X79816658Y-132690483D01*
X79828221Y-132714932D01*
X79837333Y-132740398D01*
X79843904Y-132766633D01*
X79847873Y-132793386D01*
X79849200Y-132820400D01*
X79849200Y-133371600D01*
X79847873Y-133398614D01*
X79843904Y-133425367D01*
X79837333Y-133451602D01*
X79828221Y-133477068D01*
X79816658Y-133501517D01*
X79802753Y-133524715D01*
X79786642Y-133546439D01*
X79768479Y-133566479D01*
X79748439Y-133584642D01*
X79726715Y-133600753D01*
X79703517Y-133614658D01*
X79679068Y-133626221D01*
X79653602Y-133635333D01*
X79627367Y-133641904D01*
X79600614Y-133645873D01*
X79573600Y-133647200D01*
X78922400Y-133647200D01*
X78895386Y-133645873D01*
X78868633Y-133641904D01*
X78842398Y-133635333D01*
X78816932Y-133626221D01*
X78792483Y-133614658D01*
X78769285Y-133600753D01*
X78747561Y-133584642D01*
X78727521Y-133566479D01*
X78709358Y-133546439D01*
X78693247Y-133524715D01*
X78679342Y-133501517D01*
X78667779Y-133477068D01*
X78658667Y-133451602D01*
X78652096Y-133425367D01*
X78648127Y-133398614D01*
X78646800Y-133371600D01*
X78646800Y-132820400D01*
X78648127Y-132793386D01*
X78652096Y-132766633D01*
X78658667Y-132740398D01*
X78667779Y-132714932D01*
X78679342Y-132690483D01*
X78693247Y-132667285D01*
X78709358Y-132645561D01*
X78727521Y-132625521D01*
X78747561Y-132607358D01*
X78769285Y-132591247D01*
X78792483Y-132577342D01*
X78816932Y-132565779D01*
X78842398Y-132556667D01*
X78868633Y-132550096D01*
X78895386Y-132546127D01*
X78922400Y-132544800D01*
X79573600Y-132544800D01*
X79600614Y-132546127D01*
X79600614Y-132546127D01*
G37*
D12*
X79248000Y-133096000D03*
D11*
G36*
X81350614Y-132546127D02*
X81377367Y-132550096D01*
X81403602Y-132556667D01*
X81429068Y-132565779D01*
X81453517Y-132577342D01*
X81476715Y-132591247D01*
X81498439Y-132607358D01*
X81518479Y-132625521D01*
X81536642Y-132645561D01*
X81552753Y-132667285D01*
X81566658Y-132690483D01*
X81578221Y-132714932D01*
X81587333Y-132740398D01*
X81593904Y-132766633D01*
X81597873Y-132793386D01*
X81599200Y-132820400D01*
X81599200Y-133371600D01*
X81597873Y-133398614D01*
X81593904Y-133425367D01*
X81587333Y-133451602D01*
X81578221Y-133477068D01*
X81566658Y-133501517D01*
X81552753Y-133524715D01*
X81536642Y-133546439D01*
X81518479Y-133566479D01*
X81498439Y-133584642D01*
X81476715Y-133600753D01*
X81453517Y-133614658D01*
X81429068Y-133626221D01*
X81403602Y-133635333D01*
X81377367Y-133641904D01*
X81350614Y-133645873D01*
X81323600Y-133647200D01*
X80672400Y-133647200D01*
X80645386Y-133645873D01*
X80618633Y-133641904D01*
X80592398Y-133635333D01*
X80566932Y-133626221D01*
X80542483Y-133614658D01*
X80519285Y-133600753D01*
X80497561Y-133584642D01*
X80477521Y-133566479D01*
X80459358Y-133546439D01*
X80443247Y-133524715D01*
X80429342Y-133501517D01*
X80417779Y-133477068D01*
X80408667Y-133451602D01*
X80402096Y-133425367D01*
X80398127Y-133398614D01*
X80396800Y-133371600D01*
X80396800Y-132820400D01*
X80398127Y-132793386D01*
X80402096Y-132766633D01*
X80408667Y-132740398D01*
X80417779Y-132714932D01*
X80429342Y-132690483D01*
X80443247Y-132667285D01*
X80459358Y-132645561D01*
X80477521Y-132625521D01*
X80497561Y-132607358D01*
X80519285Y-132591247D01*
X80542483Y-132577342D01*
X80566932Y-132565779D01*
X80592398Y-132556667D01*
X80618633Y-132550096D01*
X80645386Y-132546127D01*
X80672400Y-132544800D01*
X81323600Y-132544800D01*
X81350614Y-132546127D01*
X81350614Y-132546127D01*
G37*
D12*
X80998000Y-133096000D03*
G04 #@! TD*
D11*
G04 #@! TO.C,R7*
G36*
X79783943Y-129641169D02*
X79810696Y-129645138D01*
X79836931Y-129651709D01*
X79862397Y-129660821D01*
X79886846Y-129672384D01*
X79910044Y-129686289D01*
X79931768Y-129702400D01*
X79951808Y-129720563D01*
X79969971Y-129740603D01*
X79986082Y-129762327D01*
X79999987Y-129785525D01*
X80011550Y-129809974D01*
X80020662Y-129835440D01*
X80027233Y-129861675D01*
X80031202Y-129888428D01*
X80032529Y-129915442D01*
X80032529Y-130566642D01*
X80031202Y-130593656D01*
X80027233Y-130620409D01*
X80020662Y-130646644D01*
X80011550Y-130672110D01*
X79999987Y-130696559D01*
X79986082Y-130719757D01*
X79969971Y-130741481D01*
X79951808Y-130761521D01*
X79931768Y-130779684D01*
X79910044Y-130795795D01*
X79886846Y-130809700D01*
X79862397Y-130821263D01*
X79836931Y-130830375D01*
X79810696Y-130836946D01*
X79783943Y-130840915D01*
X79756929Y-130842242D01*
X79205729Y-130842242D01*
X79178715Y-130840915D01*
X79151962Y-130836946D01*
X79125727Y-130830375D01*
X79100261Y-130821263D01*
X79075812Y-130809700D01*
X79052614Y-130795795D01*
X79030890Y-130779684D01*
X79010850Y-130761521D01*
X78992687Y-130741481D01*
X78976576Y-130719757D01*
X78962671Y-130696559D01*
X78951108Y-130672110D01*
X78941996Y-130646644D01*
X78935425Y-130620409D01*
X78931456Y-130593656D01*
X78930129Y-130566642D01*
X78930129Y-129915442D01*
X78931456Y-129888428D01*
X78935425Y-129861675D01*
X78941996Y-129835440D01*
X78951108Y-129809974D01*
X78962671Y-129785525D01*
X78976576Y-129762327D01*
X78992687Y-129740603D01*
X79010850Y-129720563D01*
X79030890Y-129702400D01*
X79052614Y-129686289D01*
X79075812Y-129672384D01*
X79100261Y-129660821D01*
X79125727Y-129651709D01*
X79151962Y-129645138D01*
X79178715Y-129641169D01*
X79205729Y-129639842D01*
X79756929Y-129639842D01*
X79783943Y-129641169D01*
X79783943Y-129641169D01*
G37*
D12*
X79481329Y-130241042D03*
D11*
G36*
X79783943Y-127891169D02*
X79810696Y-127895138D01*
X79836931Y-127901709D01*
X79862397Y-127910821D01*
X79886846Y-127922384D01*
X79910044Y-127936289D01*
X79931768Y-127952400D01*
X79951808Y-127970563D01*
X79969971Y-127990603D01*
X79986082Y-128012327D01*
X79999987Y-128035525D01*
X80011550Y-128059974D01*
X80020662Y-128085440D01*
X80027233Y-128111675D01*
X80031202Y-128138428D01*
X80032529Y-128165442D01*
X80032529Y-128816642D01*
X80031202Y-128843656D01*
X80027233Y-128870409D01*
X80020662Y-128896644D01*
X80011550Y-128922110D01*
X79999987Y-128946559D01*
X79986082Y-128969757D01*
X79969971Y-128991481D01*
X79951808Y-129011521D01*
X79931768Y-129029684D01*
X79910044Y-129045795D01*
X79886846Y-129059700D01*
X79862397Y-129071263D01*
X79836931Y-129080375D01*
X79810696Y-129086946D01*
X79783943Y-129090915D01*
X79756929Y-129092242D01*
X79205729Y-129092242D01*
X79178715Y-129090915D01*
X79151962Y-129086946D01*
X79125727Y-129080375D01*
X79100261Y-129071263D01*
X79075812Y-129059700D01*
X79052614Y-129045795D01*
X79030890Y-129029684D01*
X79010850Y-129011521D01*
X78992687Y-128991481D01*
X78976576Y-128969757D01*
X78962671Y-128946559D01*
X78951108Y-128922110D01*
X78941996Y-128896644D01*
X78935425Y-128870409D01*
X78931456Y-128843656D01*
X78930129Y-128816642D01*
X78930129Y-128165442D01*
X78931456Y-128138428D01*
X78935425Y-128111675D01*
X78941996Y-128085440D01*
X78951108Y-128059974D01*
X78962671Y-128035525D01*
X78976576Y-128012327D01*
X78992687Y-127990603D01*
X79010850Y-127970563D01*
X79030890Y-127952400D01*
X79052614Y-127936289D01*
X79075812Y-127922384D01*
X79100261Y-127910821D01*
X79125727Y-127901709D01*
X79151962Y-127895138D01*
X79178715Y-127891169D01*
X79205729Y-127889842D01*
X79756929Y-127889842D01*
X79783943Y-127891169D01*
X79783943Y-127891169D01*
G37*
D12*
X79481329Y-128491042D03*
G04 #@! TD*
D11*
G04 #@! TO.C,R8*
G36*
X79783943Y-123446169D02*
X79810696Y-123450138D01*
X79836931Y-123456709D01*
X79862397Y-123465821D01*
X79886846Y-123477384D01*
X79910044Y-123491289D01*
X79931768Y-123507400D01*
X79951808Y-123525563D01*
X79969971Y-123545603D01*
X79986082Y-123567327D01*
X79999987Y-123590525D01*
X80011550Y-123614974D01*
X80020662Y-123640440D01*
X80027233Y-123666675D01*
X80031202Y-123693428D01*
X80032529Y-123720442D01*
X80032529Y-124371642D01*
X80031202Y-124398656D01*
X80027233Y-124425409D01*
X80020662Y-124451644D01*
X80011550Y-124477110D01*
X79999987Y-124501559D01*
X79986082Y-124524757D01*
X79969971Y-124546481D01*
X79951808Y-124566521D01*
X79931768Y-124584684D01*
X79910044Y-124600795D01*
X79886846Y-124614700D01*
X79862397Y-124626263D01*
X79836931Y-124635375D01*
X79810696Y-124641946D01*
X79783943Y-124645915D01*
X79756929Y-124647242D01*
X79205729Y-124647242D01*
X79178715Y-124645915D01*
X79151962Y-124641946D01*
X79125727Y-124635375D01*
X79100261Y-124626263D01*
X79075812Y-124614700D01*
X79052614Y-124600795D01*
X79030890Y-124584684D01*
X79010850Y-124566521D01*
X78992687Y-124546481D01*
X78976576Y-124524757D01*
X78962671Y-124501559D01*
X78951108Y-124477110D01*
X78941996Y-124451644D01*
X78935425Y-124425409D01*
X78931456Y-124398656D01*
X78930129Y-124371642D01*
X78930129Y-123720442D01*
X78931456Y-123693428D01*
X78935425Y-123666675D01*
X78941996Y-123640440D01*
X78951108Y-123614974D01*
X78962671Y-123590525D01*
X78976576Y-123567327D01*
X78992687Y-123545603D01*
X79010850Y-123525563D01*
X79030890Y-123507400D01*
X79052614Y-123491289D01*
X79075812Y-123477384D01*
X79100261Y-123465821D01*
X79125727Y-123456709D01*
X79151962Y-123450138D01*
X79178715Y-123446169D01*
X79205729Y-123444842D01*
X79756929Y-123444842D01*
X79783943Y-123446169D01*
X79783943Y-123446169D01*
G37*
D12*
X79481329Y-124046042D03*
D11*
G36*
X79783943Y-125196169D02*
X79810696Y-125200138D01*
X79836931Y-125206709D01*
X79862397Y-125215821D01*
X79886846Y-125227384D01*
X79910044Y-125241289D01*
X79931768Y-125257400D01*
X79951808Y-125275563D01*
X79969971Y-125295603D01*
X79986082Y-125317327D01*
X79999987Y-125340525D01*
X80011550Y-125364974D01*
X80020662Y-125390440D01*
X80027233Y-125416675D01*
X80031202Y-125443428D01*
X80032529Y-125470442D01*
X80032529Y-126121642D01*
X80031202Y-126148656D01*
X80027233Y-126175409D01*
X80020662Y-126201644D01*
X80011550Y-126227110D01*
X79999987Y-126251559D01*
X79986082Y-126274757D01*
X79969971Y-126296481D01*
X79951808Y-126316521D01*
X79931768Y-126334684D01*
X79910044Y-126350795D01*
X79886846Y-126364700D01*
X79862397Y-126376263D01*
X79836931Y-126385375D01*
X79810696Y-126391946D01*
X79783943Y-126395915D01*
X79756929Y-126397242D01*
X79205729Y-126397242D01*
X79178715Y-126395915D01*
X79151962Y-126391946D01*
X79125727Y-126385375D01*
X79100261Y-126376263D01*
X79075812Y-126364700D01*
X79052614Y-126350795D01*
X79030890Y-126334684D01*
X79010850Y-126316521D01*
X78992687Y-126296481D01*
X78976576Y-126274757D01*
X78962671Y-126251559D01*
X78951108Y-126227110D01*
X78941996Y-126201644D01*
X78935425Y-126175409D01*
X78931456Y-126148656D01*
X78930129Y-126121642D01*
X78930129Y-125470442D01*
X78931456Y-125443428D01*
X78935425Y-125416675D01*
X78941996Y-125390440D01*
X78951108Y-125364974D01*
X78962671Y-125340525D01*
X78976576Y-125317327D01*
X78992687Y-125295603D01*
X79010850Y-125275563D01*
X79030890Y-125257400D01*
X79052614Y-125241289D01*
X79075812Y-125227384D01*
X79100261Y-125215821D01*
X79125727Y-125206709D01*
X79151962Y-125200138D01*
X79178715Y-125196169D01*
X79205729Y-125194842D01*
X79756929Y-125194842D01*
X79783943Y-125196169D01*
X79783943Y-125196169D01*
G37*
D12*
X79481329Y-125796042D03*
G04 #@! TD*
D11*
G04 #@! TO.C,R9*
G36*
X94282614Y-111160127D02*
X94309367Y-111164096D01*
X94335602Y-111170667D01*
X94361068Y-111179779D01*
X94385517Y-111191342D01*
X94408715Y-111205247D01*
X94430439Y-111221358D01*
X94450479Y-111239521D01*
X94468642Y-111259561D01*
X94484753Y-111281285D01*
X94498658Y-111304483D01*
X94510221Y-111328932D01*
X94519333Y-111354398D01*
X94525904Y-111380633D01*
X94529873Y-111407386D01*
X94531200Y-111434400D01*
X94531200Y-112085600D01*
X94529873Y-112112614D01*
X94525904Y-112139367D01*
X94519333Y-112165602D01*
X94510221Y-112191068D01*
X94498658Y-112215517D01*
X94484753Y-112238715D01*
X94468642Y-112260439D01*
X94450479Y-112280479D01*
X94430439Y-112298642D01*
X94408715Y-112314753D01*
X94385517Y-112328658D01*
X94361068Y-112340221D01*
X94335602Y-112349333D01*
X94309367Y-112355904D01*
X94282614Y-112359873D01*
X94255600Y-112361200D01*
X93704400Y-112361200D01*
X93677386Y-112359873D01*
X93650633Y-112355904D01*
X93624398Y-112349333D01*
X93598932Y-112340221D01*
X93574483Y-112328658D01*
X93551285Y-112314753D01*
X93529561Y-112298642D01*
X93509521Y-112280479D01*
X93491358Y-112260439D01*
X93475247Y-112238715D01*
X93461342Y-112215517D01*
X93449779Y-112191068D01*
X93440667Y-112165602D01*
X93434096Y-112139367D01*
X93430127Y-112112614D01*
X93428800Y-112085600D01*
X93428800Y-111434400D01*
X93430127Y-111407386D01*
X93434096Y-111380633D01*
X93440667Y-111354398D01*
X93449779Y-111328932D01*
X93461342Y-111304483D01*
X93475247Y-111281285D01*
X93491358Y-111259561D01*
X93509521Y-111239521D01*
X93529561Y-111221358D01*
X93551285Y-111205247D01*
X93574483Y-111191342D01*
X93598932Y-111179779D01*
X93624398Y-111170667D01*
X93650633Y-111164096D01*
X93677386Y-111160127D01*
X93704400Y-111158800D01*
X94255600Y-111158800D01*
X94282614Y-111160127D01*
X94282614Y-111160127D01*
G37*
D12*
X93980000Y-111760000D03*
D11*
G36*
X94282614Y-112910127D02*
X94309367Y-112914096D01*
X94335602Y-112920667D01*
X94361068Y-112929779D01*
X94385517Y-112941342D01*
X94408715Y-112955247D01*
X94430439Y-112971358D01*
X94450479Y-112989521D01*
X94468642Y-113009561D01*
X94484753Y-113031285D01*
X94498658Y-113054483D01*
X94510221Y-113078932D01*
X94519333Y-113104398D01*
X94525904Y-113130633D01*
X94529873Y-113157386D01*
X94531200Y-113184400D01*
X94531200Y-113835600D01*
X94529873Y-113862614D01*
X94525904Y-113889367D01*
X94519333Y-113915602D01*
X94510221Y-113941068D01*
X94498658Y-113965517D01*
X94484753Y-113988715D01*
X94468642Y-114010439D01*
X94450479Y-114030479D01*
X94430439Y-114048642D01*
X94408715Y-114064753D01*
X94385517Y-114078658D01*
X94361068Y-114090221D01*
X94335602Y-114099333D01*
X94309367Y-114105904D01*
X94282614Y-114109873D01*
X94255600Y-114111200D01*
X93704400Y-114111200D01*
X93677386Y-114109873D01*
X93650633Y-114105904D01*
X93624398Y-114099333D01*
X93598932Y-114090221D01*
X93574483Y-114078658D01*
X93551285Y-114064753D01*
X93529561Y-114048642D01*
X93509521Y-114030479D01*
X93491358Y-114010439D01*
X93475247Y-113988715D01*
X93461342Y-113965517D01*
X93449779Y-113941068D01*
X93440667Y-113915602D01*
X93434096Y-113889367D01*
X93430127Y-113862614D01*
X93428800Y-113835600D01*
X93428800Y-113184400D01*
X93430127Y-113157386D01*
X93434096Y-113130633D01*
X93440667Y-113104398D01*
X93449779Y-113078932D01*
X93461342Y-113054483D01*
X93475247Y-113031285D01*
X93491358Y-113009561D01*
X93509521Y-112989521D01*
X93529561Y-112971358D01*
X93551285Y-112955247D01*
X93574483Y-112941342D01*
X93598932Y-112929779D01*
X93624398Y-112920667D01*
X93650633Y-112914096D01*
X93677386Y-112910127D01*
X93704400Y-112908800D01*
X94255600Y-112908800D01*
X94282614Y-112910127D01*
X94282614Y-112910127D01*
G37*
D12*
X93980000Y-113510000D03*
G04 #@! TD*
D11*
G04 #@! TO.C,R10*
G36*
X97584614Y-111160127D02*
X97611367Y-111164096D01*
X97637602Y-111170667D01*
X97663068Y-111179779D01*
X97687517Y-111191342D01*
X97710715Y-111205247D01*
X97732439Y-111221358D01*
X97752479Y-111239521D01*
X97770642Y-111259561D01*
X97786753Y-111281285D01*
X97800658Y-111304483D01*
X97812221Y-111328932D01*
X97821333Y-111354398D01*
X97827904Y-111380633D01*
X97831873Y-111407386D01*
X97833200Y-111434400D01*
X97833200Y-112085600D01*
X97831873Y-112112614D01*
X97827904Y-112139367D01*
X97821333Y-112165602D01*
X97812221Y-112191068D01*
X97800658Y-112215517D01*
X97786753Y-112238715D01*
X97770642Y-112260439D01*
X97752479Y-112280479D01*
X97732439Y-112298642D01*
X97710715Y-112314753D01*
X97687517Y-112328658D01*
X97663068Y-112340221D01*
X97637602Y-112349333D01*
X97611367Y-112355904D01*
X97584614Y-112359873D01*
X97557600Y-112361200D01*
X97006400Y-112361200D01*
X96979386Y-112359873D01*
X96952633Y-112355904D01*
X96926398Y-112349333D01*
X96900932Y-112340221D01*
X96876483Y-112328658D01*
X96853285Y-112314753D01*
X96831561Y-112298642D01*
X96811521Y-112280479D01*
X96793358Y-112260439D01*
X96777247Y-112238715D01*
X96763342Y-112215517D01*
X96751779Y-112191068D01*
X96742667Y-112165602D01*
X96736096Y-112139367D01*
X96732127Y-112112614D01*
X96730800Y-112085600D01*
X96730800Y-111434400D01*
X96732127Y-111407386D01*
X96736096Y-111380633D01*
X96742667Y-111354398D01*
X96751779Y-111328932D01*
X96763342Y-111304483D01*
X96777247Y-111281285D01*
X96793358Y-111259561D01*
X96811521Y-111239521D01*
X96831561Y-111221358D01*
X96853285Y-111205247D01*
X96876483Y-111191342D01*
X96900932Y-111179779D01*
X96926398Y-111170667D01*
X96952633Y-111164096D01*
X96979386Y-111160127D01*
X97006400Y-111158800D01*
X97557600Y-111158800D01*
X97584614Y-111160127D01*
X97584614Y-111160127D01*
G37*
D12*
X97282000Y-111760000D03*
D11*
G36*
X97584614Y-112910127D02*
X97611367Y-112914096D01*
X97637602Y-112920667D01*
X97663068Y-112929779D01*
X97687517Y-112941342D01*
X97710715Y-112955247D01*
X97732439Y-112971358D01*
X97752479Y-112989521D01*
X97770642Y-113009561D01*
X97786753Y-113031285D01*
X97800658Y-113054483D01*
X97812221Y-113078932D01*
X97821333Y-113104398D01*
X97827904Y-113130633D01*
X97831873Y-113157386D01*
X97833200Y-113184400D01*
X97833200Y-113835600D01*
X97831873Y-113862614D01*
X97827904Y-113889367D01*
X97821333Y-113915602D01*
X97812221Y-113941068D01*
X97800658Y-113965517D01*
X97786753Y-113988715D01*
X97770642Y-114010439D01*
X97752479Y-114030479D01*
X97732439Y-114048642D01*
X97710715Y-114064753D01*
X97687517Y-114078658D01*
X97663068Y-114090221D01*
X97637602Y-114099333D01*
X97611367Y-114105904D01*
X97584614Y-114109873D01*
X97557600Y-114111200D01*
X97006400Y-114111200D01*
X96979386Y-114109873D01*
X96952633Y-114105904D01*
X96926398Y-114099333D01*
X96900932Y-114090221D01*
X96876483Y-114078658D01*
X96853285Y-114064753D01*
X96831561Y-114048642D01*
X96811521Y-114030479D01*
X96793358Y-114010439D01*
X96777247Y-113988715D01*
X96763342Y-113965517D01*
X96751779Y-113941068D01*
X96742667Y-113915602D01*
X96736096Y-113889367D01*
X96732127Y-113862614D01*
X96730800Y-113835600D01*
X96730800Y-113184400D01*
X96732127Y-113157386D01*
X96736096Y-113130633D01*
X96742667Y-113104398D01*
X96751779Y-113078932D01*
X96763342Y-113054483D01*
X96777247Y-113031285D01*
X96793358Y-113009561D01*
X96811521Y-112989521D01*
X96831561Y-112971358D01*
X96853285Y-112955247D01*
X96876483Y-112941342D01*
X96900932Y-112929779D01*
X96926398Y-112920667D01*
X96952633Y-112914096D01*
X96979386Y-112910127D01*
X97006400Y-112908800D01*
X97557600Y-112908800D01*
X97584614Y-112910127D01*
X97584614Y-112910127D01*
G37*
D12*
X97282000Y-113510000D03*
G04 #@! TD*
D11*
G04 #@! TO.C,R11*
G36*
X101140614Y-112910127D02*
X101167367Y-112914096D01*
X101193602Y-112920667D01*
X101219068Y-112929779D01*
X101243517Y-112941342D01*
X101266715Y-112955247D01*
X101288439Y-112971358D01*
X101308479Y-112989521D01*
X101326642Y-113009561D01*
X101342753Y-113031285D01*
X101356658Y-113054483D01*
X101368221Y-113078932D01*
X101377333Y-113104398D01*
X101383904Y-113130633D01*
X101387873Y-113157386D01*
X101389200Y-113184400D01*
X101389200Y-113835600D01*
X101387873Y-113862614D01*
X101383904Y-113889367D01*
X101377333Y-113915602D01*
X101368221Y-113941068D01*
X101356658Y-113965517D01*
X101342753Y-113988715D01*
X101326642Y-114010439D01*
X101308479Y-114030479D01*
X101288439Y-114048642D01*
X101266715Y-114064753D01*
X101243517Y-114078658D01*
X101219068Y-114090221D01*
X101193602Y-114099333D01*
X101167367Y-114105904D01*
X101140614Y-114109873D01*
X101113600Y-114111200D01*
X100562400Y-114111200D01*
X100535386Y-114109873D01*
X100508633Y-114105904D01*
X100482398Y-114099333D01*
X100456932Y-114090221D01*
X100432483Y-114078658D01*
X100409285Y-114064753D01*
X100387561Y-114048642D01*
X100367521Y-114030479D01*
X100349358Y-114010439D01*
X100333247Y-113988715D01*
X100319342Y-113965517D01*
X100307779Y-113941068D01*
X100298667Y-113915602D01*
X100292096Y-113889367D01*
X100288127Y-113862614D01*
X100286800Y-113835600D01*
X100286800Y-113184400D01*
X100288127Y-113157386D01*
X100292096Y-113130633D01*
X100298667Y-113104398D01*
X100307779Y-113078932D01*
X100319342Y-113054483D01*
X100333247Y-113031285D01*
X100349358Y-113009561D01*
X100367521Y-112989521D01*
X100387561Y-112971358D01*
X100409285Y-112955247D01*
X100432483Y-112941342D01*
X100456932Y-112929779D01*
X100482398Y-112920667D01*
X100508633Y-112914096D01*
X100535386Y-112910127D01*
X100562400Y-112908800D01*
X101113600Y-112908800D01*
X101140614Y-112910127D01*
X101140614Y-112910127D01*
G37*
D12*
X100838000Y-113510000D03*
D11*
G36*
X101140614Y-111160127D02*
X101167367Y-111164096D01*
X101193602Y-111170667D01*
X101219068Y-111179779D01*
X101243517Y-111191342D01*
X101266715Y-111205247D01*
X101288439Y-111221358D01*
X101308479Y-111239521D01*
X101326642Y-111259561D01*
X101342753Y-111281285D01*
X101356658Y-111304483D01*
X101368221Y-111328932D01*
X101377333Y-111354398D01*
X101383904Y-111380633D01*
X101387873Y-111407386D01*
X101389200Y-111434400D01*
X101389200Y-112085600D01*
X101387873Y-112112614D01*
X101383904Y-112139367D01*
X101377333Y-112165602D01*
X101368221Y-112191068D01*
X101356658Y-112215517D01*
X101342753Y-112238715D01*
X101326642Y-112260439D01*
X101308479Y-112280479D01*
X101288439Y-112298642D01*
X101266715Y-112314753D01*
X101243517Y-112328658D01*
X101219068Y-112340221D01*
X101193602Y-112349333D01*
X101167367Y-112355904D01*
X101140614Y-112359873D01*
X101113600Y-112361200D01*
X100562400Y-112361200D01*
X100535386Y-112359873D01*
X100508633Y-112355904D01*
X100482398Y-112349333D01*
X100456932Y-112340221D01*
X100432483Y-112328658D01*
X100409285Y-112314753D01*
X100387561Y-112298642D01*
X100367521Y-112280479D01*
X100349358Y-112260439D01*
X100333247Y-112238715D01*
X100319342Y-112215517D01*
X100307779Y-112191068D01*
X100298667Y-112165602D01*
X100292096Y-112139367D01*
X100288127Y-112112614D01*
X100286800Y-112085600D01*
X100286800Y-111434400D01*
X100288127Y-111407386D01*
X100292096Y-111380633D01*
X100298667Y-111354398D01*
X100307779Y-111328932D01*
X100319342Y-111304483D01*
X100333247Y-111281285D01*
X100349358Y-111259561D01*
X100367521Y-111239521D01*
X100387561Y-111221358D01*
X100409285Y-111205247D01*
X100432483Y-111191342D01*
X100456932Y-111179779D01*
X100482398Y-111170667D01*
X100508633Y-111164096D01*
X100535386Y-111160127D01*
X100562400Y-111158800D01*
X101113600Y-111158800D01*
X101140614Y-111160127D01*
X101140614Y-111160127D01*
G37*
D12*
X100838000Y-111760000D03*
G04 #@! TD*
D11*
G04 #@! TO.C,R15*
G36*
X115491614Y-109156127D02*
X115518367Y-109160096D01*
X115544602Y-109166667D01*
X115570068Y-109175779D01*
X115594517Y-109187342D01*
X115617715Y-109201247D01*
X115639439Y-109217358D01*
X115659479Y-109235521D01*
X115677642Y-109255561D01*
X115693753Y-109277285D01*
X115707658Y-109300483D01*
X115719221Y-109324932D01*
X115728333Y-109350398D01*
X115734904Y-109376633D01*
X115738873Y-109403386D01*
X115740200Y-109430400D01*
X115740200Y-110081600D01*
X115738873Y-110108614D01*
X115734904Y-110135367D01*
X115728333Y-110161602D01*
X115719221Y-110187068D01*
X115707658Y-110211517D01*
X115693753Y-110234715D01*
X115677642Y-110256439D01*
X115659479Y-110276479D01*
X115639439Y-110294642D01*
X115617715Y-110310753D01*
X115594517Y-110324658D01*
X115570068Y-110336221D01*
X115544602Y-110345333D01*
X115518367Y-110351904D01*
X115491614Y-110355873D01*
X115464600Y-110357200D01*
X114913400Y-110357200D01*
X114886386Y-110355873D01*
X114859633Y-110351904D01*
X114833398Y-110345333D01*
X114807932Y-110336221D01*
X114783483Y-110324658D01*
X114760285Y-110310753D01*
X114738561Y-110294642D01*
X114718521Y-110276479D01*
X114700358Y-110256439D01*
X114684247Y-110234715D01*
X114670342Y-110211517D01*
X114658779Y-110187068D01*
X114649667Y-110161602D01*
X114643096Y-110135367D01*
X114639127Y-110108614D01*
X114637800Y-110081600D01*
X114637800Y-109430400D01*
X114639127Y-109403386D01*
X114643096Y-109376633D01*
X114649667Y-109350398D01*
X114658779Y-109324932D01*
X114670342Y-109300483D01*
X114684247Y-109277285D01*
X114700358Y-109255561D01*
X114718521Y-109235521D01*
X114738561Y-109217358D01*
X114760285Y-109201247D01*
X114783483Y-109187342D01*
X114807932Y-109175779D01*
X114833398Y-109166667D01*
X114859633Y-109160096D01*
X114886386Y-109156127D01*
X114913400Y-109154800D01*
X115464600Y-109154800D01*
X115491614Y-109156127D01*
X115491614Y-109156127D01*
G37*
D12*
X115189000Y-109756000D03*
D11*
G36*
X115491614Y-110906127D02*
X115518367Y-110910096D01*
X115544602Y-110916667D01*
X115570068Y-110925779D01*
X115594517Y-110937342D01*
X115617715Y-110951247D01*
X115639439Y-110967358D01*
X115659479Y-110985521D01*
X115677642Y-111005561D01*
X115693753Y-111027285D01*
X115707658Y-111050483D01*
X115719221Y-111074932D01*
X115728333Y-111100398D01*
X115734904Y-111126633D01*
X115738873Y-111153386D01*
X115740200Y-111180400D01*
X115740200Y-111831600D01*
X115738873Y-111858614D01*
X115734904Y-111885367D01*
X115728333Y-111911602D01*
X115719221Y-111937068D01*
X115707658Y-111961517D01*
X115693753Y-111984715D01*
X115677642Y-112006439D01*
X115659479Y-112026479D01*
X115639439Y-112044642D01*
X115617715Y-112060753D01*
X115594517Y-112074658D01*
X115570068Y-112086221D01*
X115544602Y-112095333D01*
X115518367Y-112101904D01*
X115491614Y-112105873D01*
X115464600Y-112107200D01*
X114913400Y-112107200D01*
X114886386Y-112105873D01*
X114859633Y-112101904D01*
X114833398Y-112095333D01*
X114807932Y-112086221D01*
X114783483Y-112074658D01*
X114760285Y-112060753D01*
X114738561Y-112044642D01*
X114718521Y-112026479D01*
X114700358Y-112006439D01*
X114684247Y-111984715D01*
X114670342Y-111961517D01*
X114658779Y-111937068D01*
X114649667Y-111911602D01*
X114643096Y-111885367D01*
X114639127Y-111858614D01*
X114637800Y-111831600D01*
X114637800Y-111180400D01*
X114639127Y-111153386D01*
X114643096Y-111126633D01*
X114649667Y-111100398D01*
X114658779Y-111074932D01*
X114670342Y-111050483D01*
X114684247Y-111027285D01*
X114700358Y-111005561D01*
X114718521Y-110985521D01*
X114738561Y-110967358D01*
X114760285Y-110951247D01*
X114783483Y-110937342D01*
X114807932Y-110925779D01*
X114833398Y-110916667D01*
X114859633Y-110910096D01*
X114886386Y-110906127D01*
X114913400Y-110904800D01*
X115464600Y-110904800D01*
X115491614Y-110906127D01*
X115491614Y-110906127D01*
G37*
D12*
X115189000Y-111506000D03*
G04 #@! TD*
D11*
G04 #@! TO.C,R16*
G36*
X112479614Y-109051127D02*
X112506367Y-109055096D01*
X112532602Y-109061667D01*
X112558068Y-109070779D01*
X112582517Y-109082342D01*
X112605715Y-109096247D01*
X112627439Y-109112358D01*
X112647479Y-109130521D01*
X112665642Y-109150561D01*
X112681753Y-109172285D01*
X112695658Y-109195483D01*
X112707221Y-109219932D01*
X112716333Y-109245398D01*
X112722904Y-109271633D01*
X112726873Y-109298386D01*
X112728200Y-109325400D01*
X112728200Y-109876600D01*
X112726873Y-109903614D01*
X112722904Y-109930367D01*
X112716333Y-109956602D01*
X112707221Y-109982068D01*
X112695658Y-110006517D01*
X112681753Y-110029715D01*
X112665642Y-110051439D01*
X112647479Y-110071479D01*
X112627439Y-110089642D01*
X112605715Y-110105753D01*
X112582517Y-110119658D01*
X112558068Y-110131221D01*
X112532602Y-110140333D01*
X112506367Y-110146904D01*
X112479614Y-110150873D01*
X112452600Y-110152200D01*
X111801400Y-110152200D01*
X111774386Y-110150873D01*
X111747633Y-110146904D01*
X111721398Y-110140333D01*
X111695932Y-110131221D01*
X111671483Y-110119658D01*
X111648285Y-110105753D01*
X111626561Y-110089642D01*
X111606521Y-110071479D01*
X111588358Y-110051439D01*
X111572247Y-110029715D01*
X111558342Y-110006517D01*
X111546779Y-109982068D01*
X111537667Y-109956602D01*
X111531096Y-109930367D01*
X111527127Y-109903614D01*
X111525800Y-109876600D01*
X111525800Y-109325400D01*
X111527127Y-109298386D01*
X111531096Y-109271633D01*
X111537667Y-109245398D01*
X111546779Y-109219932D01*
X111558342Y-109195483D01*
X111572247Y-109172285D01*
X111588358Y-109150561D01*
X111606521Y-109130521D01*
X111626561Y-109112358D01*
X111648285Y-109096247D01*
X111671483Y-109082342D01*
X111695932Y-109070779D01*
X111721398Y-109061667D01*
X111747633Y-109055096D01*
X111774386Y-109051127D01*
X111801400Y-109049800D01*
X112452600Y-109049800D01*
X112479614Y-109051127D01*
X112479614Y-109051127D01*
G37*
D12*
X112127000Y-109601000D03*
D11*
G36*
X110729614Y-109051127D02*
X110756367Y-109055096D01*
X110782602Y-109061667D01*
X110808068Y-109070779D01*
X110832517Y-109082342D01*
X110855715Y-109096247D01*
X110877439Y-109112358D01*
X110897479Y-109130521D01*
X110915642Y-109150561D01*
X110931753Y-109172285D01*
X110945658Y-109195483D01*
X110957221Y-109219932D01*
X110966333Y-109245398D01*
X110972904Y-109271633D01*
X110976873Y-109298386D01*
X110978200Y-109325400D01*
X110978200Y-109876600D01*
X110976873Y-109903614D01*
X110972904Y-109930367D01*
X110966333Y-109956602D01*
X110957221Y-109982068D01*
X110945658Y-110006517D01*
X110931753Y-110029715D01*
X110915642Y-110051439D01*
X110897479Y-110071479D01*
X110877439Y-110089642D01*
X110855715Y-110105753D01*
X110832517Y-110119658D01*
X110808068Y-110131221D01*
X110782602Y-110140333D01*
X110756367Y-110146904D01*
X110729614Y-110150873D01*
X110702600Y-110152200D01*
X110051400Y-110152200D01*
X110024386Y-110150873D01*
X109997633Y-110146904D01*
X109971398Y-110140333D01*
X109945932Y-110131221D01*
X109921483Y-110119658D01*
X109898285Y-110105753D01*
X109876561Y-110089642D01*
X109856521Y-110071479D01*
X109838358Y-110051439D01*
X109822247Y-110029715D01*
X109808342Y-110006517D01*
X109796779Y-109982068D01*
X109787667Y-109956602D01*
X109781096Y-109930367D01*
X109777127Y-109903614D01*
X109775800Y-109876600D01*
X109775800Y-109325400D01*
X109777127Y-109298386D01*
X109781096Y-109271633D01*
X109787667Y-109245398D01*
X109796779Y-109219932D01*
X109808342Y-109195483D01*
X109822247Y-109172285D01*
X109838358Y-109150561D01*
X109856521Y-109130521D01*
X109876561Y-109112358D01*
X109898285Y-109096247D01*
X109921483Y-109082342D01*
X109945932Y-109070779D01*
X109971398Y-109061667D01*
X109997633Y-109055096D01*
X110024386Y-109051127D01*
X110051400Y-109049800D01*
X110702600Y-109049800D01*
X110729614Y-109051127D01*
X110729614Y-109051127D01*
G37*
D12*
X110377000Y-109601000D03*
G04 #@! TD*
D11*
G04 #@! TO.C,R17*
G36*
X81265614Y-111083127D02*
X81292367Y-111087096D01*
X81318602Y-111093667D01*
X81344068Y-111102779D01*
X81368517Y-111114342D01*
X81391715Y-111128247D01*
X81413439Y-111144358D01*
X81433479Y-111162521D01*
X81451642Y-111182561D01*
X81467753Y-111204285D01*
X81481658Y-111227483D01*
X81493221Y-111251932D01*
X81502333Y-111277398D01*
X81508904Y-111303633D01*
X81512873Y-111330386D01*
X81514200Y-111357400D01*
X81514200Y-111908600D01*
X81512873Y-111935614D01*
X81508904Y-111962367D01*
X81502333Y-111988602D01*
X81493221Y-112014068D01*
X81481658Y-112038517D01*
X81467753Y-112061715D01*
X81451642Y-112083439D01*
X81433479Y-112103479D01*
X81413439Y-112121642D01*
X81391715Y-112137753D01*
X81368517Y-112151658D01*
X81344068Y-112163221D01*
X81318602Y-112172333D01*
X81292367Y-112178904D01*
X81265614Y-112182873D01*
X81238600Y-112184200D01*
X80587400Y-112184200D01*
X80560386Y-112182873D01*
X80533633Y-112178904D01*
X80507398Y-112172333D01*
X80481932Y-112163221D01*
X80457483Y-112151658D01*
X80434285Y-112137753D01*
X80412561Y-112121642D01*
X80392521Y-112103479D01*
X80374358Y-112083439D01*
X80358247Y-112061715D01*
X80344342Y-112038517D01*
X80332779Y-112014068D01*
X80323667Y-111988602D01*
X80317096Y-111962367D01*
X80313127Y-111935614D01*
X80311800Y-111908600D01*
X80311800Y-111357400D01*
X80313127Y-111330386D01*
X80317096Y-111303633D01*
X80323667Y-111277398D01*
X80332779Y-111251932D01*
X80344342Y-111227483D01*
X80358247Y-111204285D01*
X80374358Y-111182561D01*
X80392521Y-111162521D01*
X80412561Y-111144358D01*
X80434285Y-111128247D01*
X80457483Y-111114342D01*
X80481932Y-111102779D01*
X80507398Y-111093667D01*
X80533633Y-111087096D01*
X80560386Y-111083127D01*
X80587400Y-111081800D01*
X81238600Y-111081800D01*
X81265614Y-111083127D01*
X81265614Y-111083127D01*
G37*
D12*
X80913000Y-111633000D03*
D11*
G36*
X83015614Y-111083127D02*
X83042367Y-111087096D01*
X83068602Y-111093667D01*
X83094068Y-111102779D01*
X83118517Y-111114342D01*
X83141715Y-111128247D01*
X83163439Y-111144358D01*
X83183479Y-111162521D01*
X83201642Y-111182561D01*
X83217753Y-111204285D01*
X83231658Y-111227483D01*
X83243221Y-111251932D01*
X83252333Y-111277398D01*
X83258904Y-111303633D01*
X83262873Y-111330386D01*
X83264200Y-111357400D01*
X83264200Y-111908600D01*
X83262873Y-111935614D01*
X83258904Y-111962367D01*
X83252333Y-111988602D01*
X83243221Y-112014068D01*
X83231658Y-112038517D01*
X83217753Y-112061715D01*
X83201642Y-112083439D01*
X83183479Y-112103479D01*
X83163439Y-112121642D01*
X83141715Y-112137753D01*
X83118517Y-112151658D01*
X83094068Y-112163221D01*
X83068602Y-112172333D01*
X83042367Y-112178904D01*
X83015614Y-112182873D01*
X82988600Y-112184200D01*
X82337400Y-112184200D01*
X82310386Y-112182873D01*
X82283633Y-112178904D01*
X82257398Y-112172333D01*
X82231932Y-112163221D01*
X82207483Y-112151658D01*
X82184285Y-112137753D01*
X82162561Y-112121642D01*
X82142521Y-112103479D01*
X82124358Y-112083439D01*
X82108247Y-112061715D01*
X82094342Y-112038517D01*
X82082779Y-112014068D01*
X82073667Y-111988602D01*
X82067096Y-111962367D01*
X82063127Y-111935614D01*
X82061800Y-111908600D01*
X82061800Y-111357400D01*
X82063127Y-111330386D01*
X82067096Y-111303633D01*
X82073667Y-111277398D01*
X82082779Y-111251932D01*
X82094342Y-111227483D01*
X82108247Y-111204285D01*
X82124358Y-111182561D01*
X82142521Y-111162521D01*
X82162561Y-111144358D01*
X82184285Y-111128247D01*
X82207483Y-111114342D01*
X82231932Y-111102779D01*
X82257398Y-111093667D01*
X82283633Y-111087096D01*
X82310386Y-111083127D01*
X82337400Y-111081800D01*
X82988600Y-111081800D01*
X83015614Y-111083127D01*
X83015614Y-111083127D01*
G37*
D12*
X82663000Y-111633000D03*
G04 #@! TD*
D11*
G04 #@! TO.C,R18*
G36*
X83015614Y-114258127D02*
X83042367Y-114262096D01*
X83068602Y-114268667D01*
X83094068Y-114277779D01*
X83118517Y-114289342D01*
X83141715Y-114303247D01*
X83163439Y-114319358D01*
X83183479Y-114337521D01*
X83201642Y-114357561D01*
X83217753Y-114379285D01*
X83231658Y-114402483D01*
X83243221Y-114426932D01*
X83252333Y-114452398D01*
X83258904Y-114478633D01*
X83262873Y-114505386D01*
X83264200Y-114532400D01*
X83264200Y-115083600D01*
X83262873Y-115110614D01*
X83258904Y-115137367D01*
X83252333Y-115163602D01*
X83243221Y-115189068D01*
X83231658Y-115213517D01*
X83217753Y-115236715D01*
X83201642Y-115258439D01*
X83183479Y-115278479D01*
X83163439Y-115296642D01*
X83141715Y-115312753D01*
X83118517Y-115326658D01*
X83094068Y-115338221D01*
X83068602Y-115347333D01*
X83042367Y-115353904D01*
X83015614Y-115357873D01*
X82988600Y-115359200D01*
X82337400Y-115359200D01*
X82310386Y-115357873D01*
X82283633Y-115353904D01*
X82257398Y-115347333D01*
X82231932Y-115338221D01*
X82207483Y-115326658D01*
X82184285Y-115312753D01*
X82162561Y-115296642D01*
X82142521Y-115278479D01*
X82124358Y-115258439D01*
X82108247Y-115236715D01*
X82094342Y-115213517D01*
X82082779Y-115189068D01*
X82073667Y-115163602D01*
X82067096Y-115137367D01*
X82063127Y-115110614D01*
X82061800Y-115083600D01*
X82061800Y-114532400D01*
X82063127Y-114505386D01*
X82067096Y-114478633D01*
X82073667Y-114452398D01*
X82082779Y-114426932D01*
X82094342Y-114402483D01*
X82108247Y-114379285D01*
X82124358Y-114357561D01*
X82142521Y-114337521D01*
X82162561Y-114319358D01*
X82184285Y-114303247D01*
X82207483Y-114289342D01*
X82231932Y-114277779D01*
X82257398Y-114268667D01*
X82283633Y-114262096D01*
X82310386Y-114258127D01*
X82337400Y-114256800D01*
X82988600Y-114256800D01*
X83015614Y-114258127D01*
X83015614Y-114258127D01*
G37*
D12*
X82663000Y-114808000D03*
D11*
G36*
X81265614Y-114258127D02*
X81292367Y-114262096D01*
X81318602Y-114268667D01*
X81344068Y-114277779D01*
X81368517Y-114289342D01*
X81391715Y-114303247D01*
X81413439Y-114319358D01*
X81433479Y-114337521D01*
X81451642Y-114357561D01*
X81467753Y-114379285D01*
X81481658Y-114402483D01*
X81493221Y-114426932D01*
X81502333Y-114452398D01*
X81508904Y-114478633D01*
X81512873Y-114505386D01*
X81514200Y-114532400D01*
X81514200Y-115083600D01*
X81512873Y-115110614D01*
X81508904Y-115137367D01*
X81502333Y-115163602D01*
X81493221Y-115189068D01*
X81481658Y-115213517D01*
X81467753Y-115236715D01*
X81451642Y-115258439D01*
X81433479Y-115278479D01*
X81413439Y-115296642D01*
X81391715Y-115312753D01*
X81368517Y-115326658D01*
X81344068Y-115338221D01*
X81318602Y-115347333D01*
X81292367Y-115353904D01*
X81265614Y-115357873D01*
X81238600Y-115359200D01*
X80587400Y-115359200D01*
X80560386Y-115357873D01*
X80533633Y-115353904D01*
X80507398Y-115347333D01*
X80481932Y-115338221D01*
X80457483Y-115326658D01*
X80434285Y-115312753D01*
X80412561Y-115296642D01*
X80392521Y-115278479D01*
X80374358Y-115258439D01*
X80358247Y-115236715D01*
X80344342Y-115213517D01*
X80332779Y-115189068D01*
X80323667Y-115163602D01*
X80317096Y-115137367D01*
X80313127Y-115110614D01*
X80311800Y-115083600D01*
X80311800Y-114532400D01*
X80313127Y-114505386D01*
X80317096Y-114478633D01*
X80323667Y-114452398D01*
X80332779Y-114426932D01*
X80344342Y-114402483D01*
X80358247Y-114379285D01*
X80374358Y-114357561D01*
X80392521Y-114337521D01*
X80412561Y-114319358D01*
X80434285Y-114303247D01*
X80457483Y-114289342D01*
X80481932Y-114277779D01*
X80507398Y-114268667D01*
X80533633Y-114262096D01*
X80560386Y-114258127D01*
X80587400Y-114256800D01*
X81238600Y-114256800D01*
X81265614Y-114258127D01*
X81265614Y-114258127D01*
G37*
D12*
X80913000Y-114808000D03*
G04 #@! TD*
D11*
G04 #@! TO.C,R19*
G36*
X83015614Y-117433127D02*
X83042367Y-117437096D01*
X83068602Y-117443667D01*
X83094068Y-117452779D01*
X83118517Y-117464342D01*
X83141715Y-117478247D01*
X83163439Y-117494358D01*
X83183479Y-117512521D01*
X83201642Y-117532561D01*
X83217753Y-117554285D01*
X83231658Y-117577483D01*
X83243221Y-117601932D01*
X83252333Y-117627398D01*
X83258904Y-117653633D01*
X83262873Y-117680386D01*
X83264200Y-117707400D01*
X83264200Y-118258600D01*
X83262873Y-118285614D01*
X83258904Y-118312367D01*
X83252333Y-118338602D01*
X83243221Y-118364068D01*
X83231658Y-118388517D01*
X83217753Y-118411715D01*
X83201642Y-118433439D01*
X83183479Y-118453479D01*
X83163439Y-118471642D01*
X83141715Y-118487753D01*
X83118517Y-118501658D01*
X83094068Y-118513221D01*
X83068602Y-118522333D01*
X83042367Y-118528904D01*
X83015614Y-118532873D01*
X82988600Y-118534200D01*
X82337400Y-118534200D01*
X82310386Y-118532873D01*
X82283633Y-118528904D01*
X82257398Y-118522333D01*
X82231932Y-118513221D01*
X82207483Y-118501658D01*
X82184285Y-118487753D01*
X82162561Y-118471642D01*
X82142521Y-118453479D01*
X82124358Y-118433439D01*
X82108247Y-118411715D01*
X82094342Y-118388517D01*
X82082779Y-118364068D01*
X82073667Y-118338602D01*
X82067096Y-118312367D01*
X82063127Y-118285614D01*
X82061800Y-118258600D01*
X82061800Y-117707400D01*
X82063127Y-117680386D01*
X82067096Y-117653633D01*
X82073667Y-117627398D01*
X82082779Y-117601932D01*
X82094342Y-117577483D01*
X82108247Y-117554285D01*
X82124358Y-117532561D01*
X82142521Y-117512521D01*
X82162561Y-117494358D01*
X82184285Y-117478247D01*
X82207483Y-117464342D01*
X82231932Y-117452779D01*
X82257398Y-117443667D01*
X82283633Y-117437096D01*
X82310386Y-117433127D01*
X82337400Y-117431800D01*
X82988600Y-117431800D01*
X83015614Y-117433127D01*
X83015614Y-117433127D01*
G37*
D12*
X82663000Y-117983000D03*
D11*
G36*
X81265614Y-117433127D02*
X81292367Y-117437096D01*
X81318602Y-117443667D01*
X81344068Y-117452779D01*
X81368517Y-117464342D01*
X81391715Y-117478247D01*
X81413439Y-117494358D01*
X81433479Y-117512521D01*
X81451642Y-117532561D01*
X81467753Y-117554285D01*
X81481658Y-117577483D01*
X81493221Y-117601932D01*
X81502333Y-117627398D01*
X81508904Y-117653633D01*
X81512873Y-117680386D01*
X81514200Y-117707400D01*
X81514200Y-118258600D01*
X81512873Y-118285614D01*
X81508904Y-118312367D01*
X81502333Y-118338602D01*
X81493221Y-118364068D01*
X81481658Y-118388517D01*
X81467753Y-118411715D01*
X81451642Y-118433439D01*
X81433479Y-118453479D01*
X81413439Y-118471642D01*
X81391715Y-118487753D01*
X81368517Y-118501658D01*
X81344068Y-118513221D01*
X81318602Y-118522333D01*
X81292367Y-118528904D01*
X81265614Y-118532873D01*
X81238600Y-118534200D01*
X80587400Y-118534200D01*
X80560386Y-118532873D01*
X80533633Y-118528904D01*
X80507398Y-118522333D01*
X80481932Y-118513221D01*
X80457483Y-118501658D01*
X80434285Y-118487753D01*
X80412561Y-118471642D01*
X80392521Y-118453479D01*
X80374358Y-118433439D01*
X80358247Y-118411715D01*
X80344342Y-118388517D01*
X80332779Y-118364068D01*
X80323667Y-118338602D01*
X80317096Y-118312367D01*
X80313127Y-118285614D01*
X80311800Y-118258600D01*
X80311800Y-117707400D01*
X80313127Y-117680386D01*
X80317096Y-117653633D01*
X80323667Y-117627398D01*
X80332779Y-117601932D01*
X80344342Y-117577483D01*
X80358247Y-117554285D01*
X80374358Y-117532561D01*
X80392521Y-117512521D01*
X80412561Y-117494358D01*
X80434285Y-117478247D01*
X80457483Y-117464342D01*
X80481932Y-117452779D01*
X80507398Y-117443667D01*
X80533633Y-117437096D01*
X80560386Y-117433127D01*
X80587400Y-117431800D01*
X81238600Y-117431800D01*
X81265614Y-117433127D01*
X81265614Y-117433127D01*
G37*
D12*
X80913000Y-117983000D03*
G04 #@! TD*
D22*
G04 #@! TO.C,Y1*
X85344000Y-137922000D03*
X85344000Y-133042000D03*
G04 #@! TD*
D11*
G04 #@! TO.C,D1*
G36*
X94282614Y-108620127D02*
X94309367Y-108624096D01*
X94335602Y-108630667D01*
X94361068Y-108639779D01*
X94385517Y-108651342D01*
X94408715Y-108665247D01*
X94430439Y-108681358D01*
X94450479Y-108699521D01*
X94468642Y-108719561D01*
X94484753Y-108741285D01*
X94498658Y-108764483D01*
X94510221Y-108788932D01*
X94519333Y-108814398D01*
X94525904Y-108840633D01*
X94529873Y-108867386D01*
X94531200Y-108894400D01*
X94531200Y-109545600D01*
X94529873Y-109572614D01*
X94525904Y-109599367D01*
X94519333Y-109625602D01*
X94510221Y-109651068D01*
X94498658Y-109675517D01*
X94484753Y-109698715D01*
X94468642Y-109720439D01*
X94450479Y-109740479D01*
X94430439Y-109758642D01*
X94408715Y-109774753D01*
X94385517Y-109788658D01*
X94361068Y-109800221D01*
X94335602Y-109809333D01*
X94309367Y-109815904D01*
X94282614Y-109819873D01*
X94255600Y-109821200D01*
X93704400Y-109821200D01*
X93677386Y-109819873D01*
X93650633Y-109815904D01*
X93624398Y-109809333D01*
X93598932Y-109800221D01*
X93574483Y-109788658D01*
X93551285Y-109774753D01*
X93529561Y-109758642D01*
X93509521Y-109740479D01*
X93491358Y-109720439D01*
X93475247Y-109698715D01*
X93461342Y-109675517D01*
X93449779Y-109651068D01*
X93440667Y-109625602D01*
X93434096Y-109599367D01*
X93430127Y-109572614D01*
X93428800Y-109545600D01*
X93428800Y-108894400D01*
X93430127Y-108867386D01*
X93434096Y-108840633D01*
X93440667Y-108814398D01*
X93449779Y-108788932D01*
X93461342Y-108764483D01*
X93475247Y-108741285D01*
X93491358Y-108719561D01*
X93509521Y-108699521D01*
X93529561Y-108681358D01*
X93551285Y-108665247D01*
X93574483Y-108651342D01*
X93598932Y-108639779D01*
X93624398Y-108630667D01*
X93650633Y-108624096D01*
X93677386Y-108620127D01*
X93704400Y-108618800D01*
X94255600Y-108618800D01*
X94282614Y-108620127D01*
X94282614Y-108620127D01*
G37*
D12*
X93980000Y-109220000D03*
D11*
G36*
X94282614Y-106870127D02*
X94309367Y-106874096D01*
X94335602Y-106880667D01*
X94361068Y-106889779D01*
X94385517Y-106901342D01*
X94408715Y-106915247D01*
X94430439Y-106931358D01*
X94450479Y-106949521D01*
X94468642Y-106969561D01*
X94484753Y-106991285D01*
X94498658Y-107014483D01*
X94510221Y-107038932D01*
X94519333Y-107064398D01*
X94525904Y-107090633D01*
X94529873Y-107117386D01*
X94531200Y-107144400D01*
X94531200Y-107795600D01*
X94529873Y-107822614D01*
X94525904Y-107849367D01*
X94519333Y-107875602D01*
X94510221Y-107901068D01*
X94498658Y-107925517D01*
X94484753Y-107948715D01*
X94468642Y-107970439D01*
X94450479Y-107990479D01*
X94430439Y-108008642D01*
X94408715Y-108024753D01*
X94385517Y-108038658D01*
X94361068Y-108050221D01*
X94335602Y-108059333D01*
X94309367Y-108065904D01*
X94282614Y-108069873D01*
X94255600Y-108071200D01*
X93704400Y-108071200D01*
X93677386Y-108069873D01*
X93650633Y-108065904D01*
X93624398Y-108059333D01*
X93598932Y-108050221D01*
X93574483Y-108038658D01*
X93551285Y-108024753D01*
X93529561Y-108008642D01*
X93509521Y-107990479D01*
X93491358Y-107970439D01*
X93475247Y-107948715D01*
X93461342Y-107925517D01*
X93449779Y-107901068D01*
X93440667Y-107875602D01*
X93434096Y-107849367D01*
X93430127Y-107822614D01*
X93428800Y-107795600D01*
X93428800Y-107144400D01*
X93430127Y-107117386D01*
X93434096Y-107090633D01*
X93440667Y-107064398D01*
X93449779Y-107038932D01*
X93461342Y-107014483D01*
X93475247Y-106991285D01*
X93491358Y-106969561D01*
X93509521Y-106949521D01*
X93529561Y-106931358D01*
X93551285Y-106915247D01*
X93574483Y-106901342D01*
X93598932Y-106889779D01*
X93624398Y-106880667D01*
X93650633Y-106874096D01*
X93677386Y-106870127D01*
X93704400Y-106868800D01*
X94255600Y-106868800D01*
X94282614Y-106870127D01*
X94282614Y-106870127D01*
G37*
D12*
X93980000Y-107470000D03*
G04 #@! TD*
D11*
G04 #@! TO.C,D2*
G36*
X97584614Y-108620127D02*
X97611367Y-108624096D01*
X97637602Y-108630667D01*
X97663068Y-108639779D01*
X97687517Y-108651342D01*
X97710715Y-108665247D01*
X97732439Y-108681358D01*
X97752479Y-108699521D01*
X97770642Y-108719561D01*
X97786753Y-108741285D01*
X97800658Y-108764483D01*
X97812221Y-108788932D01*
X97821333Y-108814398D01*
X97827904Y-108840633D01*
X97831873Y-108867386D01*
X97833200Y-108894400D01*
X97833200Y-109545600D01*
X97831873Y-109572614D01*
X97827904Y-109599367D01*
X97821333Y-109625602D01*
X97812221Y-109651068D01*
X97800658Y-109675517D01*
X97786753Y-109698715D01*
X97770642Y-109720439D01*
X97752479Y-109740479D01*
X97732439Y-109758642D01*
X97710715Y-109774753D01*
X97687517Y-109788658D01*
X97663068Y-109800221D01*
X97637602Y-109809333D01*
X97611367Y-109815904D01*
X97584614Y-109819873D01*
X97557600Y-109821200D01*
X97006400Y-109821200D01*
X96979386Y-109819873D01*
X96952633Y-109815904D01*
X96926398Y-109809333D01*
X96900932Y-109800221D01*
X96876483Y-109788658D01*
X96853285Y-109774753D01*
X96831561Y-109758642D01*
X96811521Y-109740479D01*
X96793358Y-109720439D01*
X96777247Y-109698715D01*
X96763342Y-109675517D01*
X96751779Y-109651068D01*
X96742667Y-109625602D01*
X96736096Y-109599367D01*
X96732127Y-109572614D01*
X96730800Y-109545600D01*
X96730800Y-108894400D01*
X96732127Y-108867386D01*
X96736096Y-108840633D01*
X96742667Y-108814398D01*
X96751779Y-108788932D01*
X96763342Y-108764483D01*
X96777247Y-108741285D01*
X96793358Y-108719561D01*
X96811521Y-108699521D01*
X96831561Y-108681358D01*
X96853285Y-108665247D01*
X96876483Y-108651342D01*
X96900932Y-108639779D01*
X96926398Y-108630667D01*
X96952633Y-108624096D01*
X96979386Y-108620127D01*
X97006400Y-108618800D01*
X97557600Y-108618800D01*
X97584614Y-108620127D01*
X97584614Y-108620127D01*
G37*
D12*
X97282000Y-109220000D03*
D11*
G36*
X97584614Y-106870127D02*
X97611367Y-106874096D01*
X97637602Y-106880667D01*
X97663068Y-106889779D01*
X97687517Y-106901342D01*
X97710715Y-106915247D01*
X97732439Y-106931358D01*
X97752479Y-106949521D01*
X97770642Y-106969561D01*
X97786753Y-106991285D01*
X97800658Y-107014483D01*
X97812221Y-107038932D01*
X97821333Y-107064398D01*
X97827904Y-107090633D01*
X97831873Y-107117386D01*
X97833200Y-107144400D01*
X97833200Y-107795600D01*
X97831873Y-107822614D01*
X97827904Y-107849367D01*
X97821333Y-107875602D01*
X97812221Y-107901068D01*
X97800658Y-107925517D01*
X97786753Y-107948715D01*
X97770642Y-107970439D01*
X97752479Y-107990479D01*
X97732439Y-108008642D01*
X97710715Y-108024753D01*
X97687517Y-108038658D01*
X97663068Y-108050221D01*
X97637602Y-108059333D01*
X97611367Y-108065904D01*
X97584614Y-108069873D01*
X97557600Y-108071200D01*
X97006400Y-108071200D01*
X96979386Y-108069873D01*
X96952633Y-108065904D01*
X96926398Y-108059333D01*
X96900932Y-108050221D01*
X96876483Y-108038658D01*
X96853285Y-108024753D01*
X96831561Y-108008642D01*
X96811521Y-107990479D01*
X96793358Y-107970439D01*
X96777247Y-107948715D01*
X96763342Y-107925517D01*
X96751779Y-107901068D01*
X96742667Y-107875602D01*
X96736096Y-107849367D01*
X96732127Y-107822614D01*
X96730800Y-107795600D01*
X96730800Y-107144400D01*
X96732127Y-107117386D01*
X96736096Y-107090633D01*
X96742667Y-107064398D01*
X96751779Y-107038932D01*
X96763342Y-107014483D01*
X96777247Y-106991285D01*
X96793358Y-106969561D01*
X96811521Y-106949521D01*
X96831561Y-106931358D01*
X96853285Y-106915247D01*
X96876483Y-106901342D01*
X96900932Y-106889779D01*
X96926398Y-106880667D01*
X96952633Y-106874096D01*
X96979386Y-106870127D01*
X97006400Y-106868800D01*
X97557600Y-106868800D01*
X97584614Y-106870127D01*
X97584614Y-106870127D01*
G37*
D12*
X97282000Y-107470000D03*
G04 #@! TD*
D11*
G04 #@! TO.C,D3*
G36*
X101140614Y-106870127D02*
X101167367Y-106874096D01*
X101193602Y-106880667D01*
X101219068Y-106889779D01*
X101243517Y-106901342D01*
X101266715Y-106915247D01*
X101288439Y-106931358D01*
X101308479Y-106949521D01*
X101326642Y-106969561D01*
X101342753Y-106991285D01*
X101356658Y-107014483D01*
X101368221Y-107038932D01*
X101377333Y-107064398D01*
X101383904Y-107090633D01*
X101387873Y-107117386D01*
X101389200Y-107144400D01*
X101389200Y-107795600D01*
X101387873Y-107822614D01*
X101383904Y-107849367D01*
X101377333Y-107875602D01*
X101368221Y-107901068D01*
X101356658Y-107925517D01*
X101342753Y-107948715D01*
X101326642Y-107970439D01*
X101308479Y-107990479D01*
X101288439Y-108008642D01*
X101266715Y-108024753D01*
X101243517Y-108038658D01*
X101219068Y-108050221D01*
X101193602Y-108059333D01*
X101167367Y-108065904D01*
X101140614Y-108069873D01*
X101113600Y-108071200D01*
X100562400Y-108071200D01*
X100535386Y-108069873D01*
X100508633Y-108065904D01*
X100482398Y-108059333D01*
X100456932Y-108050221D01*
X100432483Y-108038658D01*
X100409285Y-108024753D01*
X100387561Y-108008642D01*
X100367521Y-107990479D01*
X100349358Y-107970439D01*
X100333247Y-107948715D01*
X100319342Y-107925517D01*
X100307779Y-107901068D01*
X100298667Y-107875602D01*
X100292096Y-107849367D01*
X100288127Y-107822614D01*
X100286800Y-107795600D01*
X100286800Y-107144400D01*
X100288127Y-107117386D01*
X100292096Y-107090633D01*
X100298667Y-107064398D01*
X100307779Y-107038932D01*
X100319342Y-107014483D01*
X100333247Y-106991285D01*
X100349358Y-106969561D01*
X100367521Y-106949521D01*
X100387561Y-106931358D01*
X100409285Y-106915247D01*
X100432483Y-106901342D01*
X100456932Y-106889779D01*
X100482398Y-106880667D01*
X100508633Y-106874096D01*
X100535386Y-106870127D01*
X100562400Y-106868800D01*
X101113600Y-106868800D01*
X101140614Y-106870127D01*
X101140614Y-106870127D01*
G37*
D12*
X100838000Y-107470000D03*
D11*
G36*
X101140614Y-108620127D02*
X101167367Y-108624096D01*
X101193602Y-108630667D01*
X101219068Y-108639779D01*
X101243517Y-108651342D01*
X101266715Y-108665247D01*
X101288439Y-108681358D01*
X101308479Y-108699521D01*
X101326642Y-108719561D01*
X101342753Y-108741285D01*
X101356658Y-108764483D01*
X101368221Y-108788932D01*
X101377333Y-108814398D01*
X101383904Y-108840633D01*
X101387873Y-108867386D01*
X101389200Y-108894400D01*
X101389200Y-109545600D01*
X101387873Y-109572614D01*
X101383904Y-109599367D01*
X101377333Y-109625602D01*
X101368221Y-109651068D01*
X101356658Y-109675517D01*
X101342753Y-109698715D01*
X101326642Y-109720439D01*
X101308479Y-109740479D01*
X101288439Y-109758642D01*
X101266715Y-109774753D01*
X101243517Y-109788658D01*
X101219068Y-109800221D01*
X101193602Y-109809333D01*
X101167367Y-109815904D01*
X101140614Y-109819873D01*
X101113600Y-109821200D01*
X100562400Y-109821200D01*
X100535386Y-109819873D01*
X100508633Y-109815904D01*
X100482398Y-109809333D01*
X100456932Y-109800221D01*
X100432483Y-109788658D01*
X100409285Y-109774753D01*
X100387561Y-109758642D01*
X100367521Y-109740479D01*
X100349358Y-109720439D01*
X100333247Y-109698715D01*
X100319342Y-109675517D01*
X100307779Y-109651068D01*
X100298667Y-109625602D01*
X100292096Y-109599367D01*
X100288127Y-109572614D01*
X100286800Y-109545600D01*
X100286800Y-108894400D01*
X100288127Y-108867386D01*
X100292096Y-108840633D01*
X100298667Y-108814398D01*
X100307779Y-108788932D01*
X100319342Y-108764483D01*
X100333247Y-108741285D01*
X100349358Y-108719561D01*
X100367521Y-108699521D01*
X100387561Y-108681358D01*
X100409285Y-108665247D01*
X100432483Y-108651342D01*
X100456932Y-108639779D01*
X100482398Y-108630667D01*
X100508633Y-108624096D01*
X100535386Y-108620127D01*
X100562400Y-108618800D01*
X101113600Y-108618800D01*
X101140614Y-108620127D01*
X101140614Y-108620127D01*
G37*
D12*
X100838000Y-109220000D03*
G04 #@! TD*
D11*
G04 #@! TO.C,D4*
G36*
X87700614Y-111083127D02*
X87727367Y-111087096D01*
X87753602Y-111093667D01*
X87779068Y-111102779D01*
X87803517Y-111114342D01*
X87826715Y-111128247D01*
X87848439Y-111144358D01*
X87868479Y-111162521D01*
X87886642Y-111182561D01*
X87902753Y-111204285D01*
X87916658Y-111227483D01*
X87928221Y-111251932D01*
X87937333Y-111277398D01*
X87943904Y-111303633D01*
X87947873Y-111330386D01*
X87949200Y-111357400D01*
X87949200Y-111908600D01*
X87947873Y-111935614D01*
X87943904Y-111962367D01*
X87937333Y-111988602D01*
X87928221Y-112014068D01*
X87916658Y-112038517D01*
X87902753Y-112061715D01*
X87886642Y-112083439D01*
X87868479Y-112103479D01*
X87848439Y-112121642D01*
X87826715Y-112137753D01*
X87803517Y-112151658D01*
X87779068Y-112163221D01*
X87753602Y-112172333D01*
X87727367Y-112178904D01*
X87700614Y-112182873D01*
X87673600Y-112184200D01*
X87022400Y-112184200D01*
X86995386Y-112182873D01*
X86968633Y-112178904D01*
X86942398Y-112172333D01*
X86916932Y-112163221D01*
X86892483Y-112151658D01*
X86869285Y-112137753D01*
X86847561Y-112121642D01*
X86827521Y-112103479D01*
X86809358Y-112083439D01*
X86793247Y-112061715D01*
X86779342Y-112038517D01*
X86767779Y-112014068D01*
X86758667Y-111988602D01*
X86752096Y-111962367D01*
X86748127Y-111935614D01*
X86746800Y-111908600D01*
X86746800Y-111357400D01*
X86748127Y-111330386D01*
X86752096Y-111303633D01*
X86758667Y-111277398D01*
X86767779Y-111251932D01*
X86779342Y-111227483D01*
X86793247Y-111204285D01*
X86809358Y-111182561D01*
X86827521Y-111162521D01*
X86847561Y-111144358D01*
X86869285Y-111128247D01*
X86892483Y-111114342D01*
X86916932Y-111102779D01*
X86942398Y-111093667D01*
X86968633Y-111087096D01*
X86995386Y-111083127D01*
X87022400Y-111081800D01*
X87673600Y-111081800D01*
X87700614Y-111083127D01*
X87700614Y-111083127D01*
G37*
D12*
X87348000Y-111633000D03*
D11*
G36*
X85950614Y-111083127D02*
X85977367Y-111087096D01*
X86003602Y-111093667D01*
X86029068Y-111102779D01*
X86053517Y-111114342D01*
X86076715Y-111128247D01*
X86098439Y-111144358D01*
X86118479Y-111162521D01*
X86136642Y-111182561D01*
X86152753Y-111204285D01*
X86166658Y-111227483D01*
X86178221Y-111251932D01*
X86187333Y-111277398D01*
X86193904Y-111303633D01*
X86197873Y-111330386D01*
X86199200Y-111357400D01*
X86199200Y-111908600D01*
X86197873Y-111935614D01*
X86193904Y-111962367D01*
X86187333Y-111988602D01*
X86178221Y-112014068D01*
X86166658Y-112038517D01*
X86152753Y-112061715D01*
X86136642Y-112083439D01*
X86118479Y-112103479D01*
X86098439Y-112121642D01*
X86076715Y-112137753D01*
X86053517Y-112151658D01*
X86029068Y-112163221D01*
X86003602Y-112172333D01*
X85977367Y-112178904D01*
X85950614Y-112182873D01*
X85923600Y-112184200D01*
X85272400Y-112184200D01*
X85245386Y-112182873D01*
X85218633Y-112178904D01*
X85192398Y-112172333D01*
X85166932Y-112163221D01*
X85142483Y-112151658D01*
X85119285Y-112137753D01*
X85097561Y-112121642D01*
X85077521Y-112103479D01*
X85059358Y-112083439D01*
X85043247Y-112061715D01*
X85029342Y-112038517D01*
X85017779Y-112014068D01*
X85008667Y-111988602D01*
X85002096Y-111962367D01*
X84998127Y-111935614D01*
X84996800Y-111908600D01*
X84996800Y-111357400D01*
X84998127Y-111330386D01*
X85002096Y-111303633D01*
X85008667Y-111277398D01*
X85017779Y-111251932D01*
X85029342Y-111227483D01*
X85043247Y-111204285D01*
X85059358Y-111182561D01*
X85077521Y-111162521D01*
X85097561Y-111144358D01*
X85119285Y-111128247D01*
X85142483Y-111114342D01*
X85166932Y-111102779D01*
X85192398Y-111093667D01*
X85218633Y-111087096D01*
X85245386Y-111083127D01*
X85272400Y-111081800D01*
X85923600Y-111081800D01*
X85950614Y-111083127D01*
X85950614Y-111083127D01*
G37*
D12*
X85598000Y-111633000D03*
G04 #@! TD*
D11*
G04 #@! TO.C,D5*
G36*
X87700614Y-114258127D02*
X87727367Y-114262096D01*
X87753602Y-114268667D01*
X87779068Y-114277779D01*
X87803517Y-114289342D01*
X87826715Y-114303247D01*
X87848439Y-114319358D01*
X87868479Y-114337521D01*
X87886642Y-114357561D01*
X87902753Y-114379285D01*
X87916658Y-114402483D01*
X87928221Y-114426932D01*
X87937333Y-114452398D01*
X87943904Y-114478633D01*
X87947873Y-114505386D01*
X87949200Y-114532400D01*
X87949200Y-115083600D01*
X87947873Y-115110614D01*
X87943904Y-115137367D01*
X87937333Y-115163602D01*
X87928221Y-115189068D01*
X87916658Y-115213517D01*
X87902753Y-115236715D01*
X87886642Y-115258439D01*
X87868479Y-115278479D01*
X87848439Y-115296642D01*
X87826715Y-115312753D01*
X87803517Y-115326658D01*
X87779068Y-115338221D01*
X87753602Y-115347333D01*
X87727367Y-115353904D01*
X87700614Y-115357873D01*
X87673600Y-115359200D01*
X87022400Y-115359200D01*
X86995386Y-115357873D01*
X86968633Y-115353904D01*
X86942398Y-115347333D01*
X86916932Y-115338221D01*
X86892483Y-115326658D01*
X86869285Y-115312753D01*
X86847561Y-115296642D01*
X86827521Y-115278479D01*
X86809358Y-115258439D01*
X86793247Y-115236715D01*
X86779342Y-115213517D01*
X86767779Y-115189068D01*
X86758667Y-115163602D01*
X86752096Y-115137367D01*
X86748127Y-115110614D01*
X86746800Y-115083600D01*
X86746800Y-114532400D01*
X86748127Y-114505386D01*
X86752096Y-114478633D01*
X86758667Y-114452398D01*
X86767779Y-114426932D01*
X86779342Y-114402483D01*
X86793247Y-114379285D01*
X86809358Y-114357561D01*
X86827521Y-114337521D01*
X86847561Y-114319358D01*
X86869285Y-114303247D01*
X86892483Y-114289342D01*
X86916932Y-114277779D01*
X86942398Y-114268667D01*
X86968633Y-114262096D01*
X86995386Y-114258127D01*
X87022400Y-114256800D01*
X87673600Y-114256800D01*
X87700614Y-114258127D01*
X87700614Y-114258127D01*
G37*
D12*
X87348000Y-114808000D03*
D11*
G36*
X85950614Y-114258127D02*
X85977367Y-114262096D01*
X86003602Y-114268667D01*
X86029068Y-114277779D01*
X86053517Y-114289342D01*
X86076715Y-114303247D01*
X86098439Y-114319358D01*
X86118479Y-114337521D01*
X86136642Y-114357561D01*
X86152753Y-114379285D01*
X86166658Y-114402483D01*
X86178221Y-114426932D01*
X86187333Y-114452398D01*
X86193904Y-114478633D01*
X86197873Y-114505386D01*
X86199200Y-114532400D01*
X86199200Y-115083600D01*
X86197873Y-115110614D01*
X86193904Y-115137367D01*
X86187333Y-115163602D01*
X86178221Y-115189068D01*
X86166658Y-115213517D01*
X86152753Y-115236715D01*
X86136642Y-115258439D01*
X86118479Y-115278479D01*
X86098439Y-115296642D01*
X86076715Y-115312753D01*
X86053517Y-115326658D01*
X86029068Y-115338221D01*
X86003602Y-115347333D01*
X85977367Y-115353904D01*
X85950614Y-115357873D01*
X85923600Y-115359200D01*
X85272400Y-115359200D01*
X85245386Y-115357873D01*
X85218633Y-115353904D01*
X85192398Y-115347333D01*
X85166932Y-115338221D01*
X85142483Y-115326658D01*
X85119285Y-115312753D01*
X85097561Y-115296642D01*
X85077521Y-115278479D01*
X85059358Y-115258439D01*
X85043247Y-115236715D01*
X85029342Y-115213517D01*
X85017779Y-115189068D01*
X85008667Y-115163602D01*
X85002096Y-115137367D01*
X84998127Y-115110614D01*
X84996800Y-115083600D01*
X84996800Y-114532400D01*
X84998127Y-114505386D01*
X85002096Y-114478633D01*
X85008667Y-114452398D01*
X85017779Y-114426932D01*
X85029342Y-114402483D01*
X85043247Y-114379285D01*
X85059358Y-114357561D01*
X85077521Y-114337521D01*
X85097561Y-114319358D01*
X85119285Y-114303247D01*
X85142483Y-114289342D01*
X85166932Y-114277779D01*
X85192398Y-114268667D01*
X85218633Y-114262096D01*
X85245386Y-114258127D01*
X85272400Y-114256800D01*
X85923600Y-114256800D01*
X85950614Y-114258127D01*
X85950614Y-114258127D01*
G37*
D12*
X85598000Y-114808000D03*
G04 #@! TD*
D11*
G04 #@! TO.C,D6*
G36*
X86105614Y-117433127D02*
X86132367Y-117437096D01*
X86158602Y-117443667D01*
X86184068Y-117452779D01*
X86208517Y-117464342D01*
X86231715Y-117478247D01*
X86253439Y-117494358D01*
X86273479Y-117512521D01*
X86291642Y-117532561D01*
X86307753Y-117554285D01*
X86321658Y-117577483D01*
X86333221Y-117601932D01*
X86342333Y-117627398D01*
X86348904Y-117653633D01*
X86352873Y-117680386D01*
X86354200Y-117707400D01*
X86354200Y-118258600D01*
X86352873Y-118285614D01*
X86348904Y-118312367D01*
X86342333Y-118338602D01*
X86333221Y-118364068D01*
X86321658Y-118388517D01*
X86307753Y-118411715D01*
X86291642Y-118433439D01*
X86273479Y-118453479D01*
X86253439Y-118471642D01*
X86231715Y-118487753D01*
X86208517Y-118501658D01*
X86184068Y-118513221D01*
X86158602Y-118522333D01*
X86132367Y-118528904D01*
X86105614Y-118532873D01*
X86078600Y-118534200D01*
X85427400Y-118534200D01*
X85400386Y-118532873D01*
X85373633Y-118528904D01*
X85347398Y-118522333D01*
X85321932Y-118513221D01*
X85297483Y-118501658D01*
X85274285Y-118487753D01*
X85252561Y-118471642D01*
X85232521Y-118453479D01*
X85214358Y-118433439D01*
X85198247Y-118411715D01*
X85184342Y-118388517D01*
X85172779Y-118364068D01*
X85163667Y-118338602D01*
X85157096Y-118312367D01*
X85153127Y-118285614D01*
X85151800Y-118258600D01*
X85151800Y-117707400D01*
X85153127Y-117680386D01*
X85157096Y-117653633D01*
X85163667Y-117627398D01*
X85172779Y-117601932D01*
X85184342Y-117577483D01*
X85198247Y-117554285D01*
X85214358Y-117532561D01*
X85232521Y-117512521D01*
X85252561Y-117494358D01*
X85274285Y-117478247D01*
X85297483Y-117464342D01*
X85321932Y-117452779D01*
X85347398Y-117443667D01*
X85373633Y-117437096D01*
X85400386Y-117433127D01*
X85427400Y-117431800D01*
X86078600Y-117431800D01*
X86105614Y-117433127D01*
X86105614Y-117433127D01*
G37*
D12*
X85753000Y-117983000D03*
D11*
G36*
X87855614Y-117433127D02*
X87882367Y-117437096D01*
X87908602Y-117443667D01*
X87934068Y-117452779D01*
X87958517Y-117464342D01*
X87981715Y-117478247D01*
X88003439Y-117494358D01*
X88023479Y-117512521D01*
X88041642Y-117532561D01*
X88057753Y-117554285D01*
X88071658Y-117577483D01*
X88083221Y-117601932D01*
X88092333Y-117627398D01*
X88098904Y-117653633D01*
X88102873Y-117680386D01*
X88104200Y-117707400D01*
X88104200Y-118258600D01*
X88102873Y-118285614D01*
X88098904Y-118312367D01*
X88092333Y-118338602D01*
X88083221Y-118364068D01*
X88071658Y-118388517D01*
X88057753Y-118411715D01*
X88041642Y-118433439D01*
X88023479Y-118453479D01*
X88003439Y-118471642D01*
X87981715Y-118487753D01*
X87958517Y-118501658D01*
X87934068Y-118513221D01*
X87908602Y-118522333D01*
X87882367Y-118528904D01*
X87855614Y-118532873D01*
X87828600Y-118534200D01*
X87177400Y-118534200D01*
X87150386Y-118532873D01*
X87123633Y-118528904D01*
X87097398Y-118522333D01*
X87071932Y-118513221D01*
X87047483Y-118501658D01*
X87024285Y-118487753D01*
X87002561Y-118471642D01*
X86982521Y-118453479D01*
X86964358Y-118433439D01*
X86948247Y-118411715D01*
X86934342Y-118388517D01*
X86922779Y-118364068D01*
X86913667Y-118338602D01*
X86907096Y-118312367D01*
X86903127Y-118285614D01*
X86901800Y-118258600D01*
X86901800Y-117707400D01*
X86903127Y-117680386D01*
X86907096Y-117653633D01*
X86913667Y-117627398D01*
X86922779Y-117601932D01*
X86934342Y-117577483D01*
X86948247Y-117554285D01*
X86964358Y-117532561D01*
X86982521Y-117512521D01*
X87002561Y-117494358D01*
X87024285Y-117478247D01*
X87047483Y-117464342D01*
X87071932Y-117452779D01*
X87097398Y-117443667D01*
X87123633Y-117437096D01*
X87150386Y-117433127D01*
X87177400Y-117431800D01*
X87828600Y-117431800D01*
X87855614Y-117433127D01*
X87855614Y-117433127D01*
G37*
D12*
X87503000Y-117983000D03*
G04 #@! TD*
D23*
G04 #@! TO.C,U1*
X92360109Y-136551942D03*
X92360109Y-136051942D03*
X92360109Y-135551942D03*
X92360109Y-135051942D03*
X92360109Y-134551942D03*
X92360109Y-134051942D03*
X92360109Y-133551942D03*
X92360109Y-133051942D03*
X92360109Y-132551942D03*
X92360109Y-132051942D03*
X92360109Y-131551942D03*
X92360109Y-131051942D03*
X92360109Y-130551942D03*
X92360109Y-130051942D03*
X92360109Y-129551942D03*
X92360109Y-129051942D03*
D24*
X94560109Y-126851942D03*
X95060109Y-126851942D03*
X95560109Y-126851942D03*
X96060109Y-126851942D03*
X96560109Y-126851942D03*
X97060109Y-126851942D03*
X97560109Y-126851942D03*
X98060109Y-126851942D03*
X98560109Y-126851942D03*
X99060109Y-126851942D03*
X99560109Y-126851942D03*
X100060109Y-126851942D03*
X100560109Y-126851942D03*
X101060109Y-126851942D03*
X101560109Y-126851942D03*
X102060109Y-126851942D03*
D23*
X104260109Y-129051942D03*
X104260109Y-129551942D03*
X104260109Y-130051942D03*
X104260109Y-130551942D03*
X104260109Y-131051942D03*
X104260109Y-131551942D03*
X104260109Y-132051942D03*
X104260109Y-132551942D03*
X104260109Y-133051942D03*
X104260109Y-133551942D03*
X104260109Y-134051942D03*
X104260109Y-134551942D03*
X104260109Y-135051942D03*
X104260109Y-135551942D03*
X104260109Y-136051942D03*
X104260109Y-136551942D03*
D24*
X102060109Y-138751942D03*
X101560109Y-138751942D03*
X101060109Y-138751942D03*
X100560109Y-138751942D03*
X100060109Y-138751942D03*
X99560109Y-138751942D03*
X99060109Y-138751942D03*
X98560109Y-138751942D03*
X98060109Y-138751942D03*
X97560109Y-138751942D03*
X97060109Y-138751942D03*
X96560109Y-138751942D03*
X96060109Y-138751942D03*
X95560109Y-138751942D03*
X95060109Y-138751942D03*
X94560109Y-138751942D03*
G04 #@! TD*
D25*
G04 #@! TO.C,J4*
X120269000Y-110967000D03*
X120269000Y-112967000D03*
X120269000Y-114967000D03*
D26*
X120269000Y-116967000D03*
G04 #@! TD*
G04 #@! TO.C,J6*
X120269000Y-99187000D03*
D25*
X120269000Y-97187000D03*
X120269000Y-95187000D03*
X120269000Y-93187000D03*
G04 #@! TD*
G04 #@! TO.C,J5*
X155893000Y-127762000D03*
X157893000Y-127762000D03*
D26*
X159893000Y-127762000D03*
G04 #@! TD*
G04 #@! TO.C,J10*
X159893000Y-122555000D03*
D25*
X157893000Y-122555000D03*
X155893000Y-122555000D03*
G04 #@! TD*
G04 #@! TO.C,J11*
X155893000Y-117348000D03*
X157893000Y-117348000D03*
D26*
X159893000Y-117348000D03*
G04 #@! TD*
G04 #@! TO.C,J12*
X159893000Y-112141000D03*
D25*
X157893000Y-112141000D03*
X155893000Y-112141000D03*
G04 #@! TD*
G04 #@! TO.C,J13*
X155893000Y-106934000D03*
X157893000Y-106934000D03*
D26*
X159893000Y-106934000D03*
G04 #@! TD*
G04 #@! TO.C,J14*
X159893000Y-101727000D03*
D25*
X157893000Y-101727000D03*
X155893000Y-101727000D03*
G04 #@! TD*
G04 #@! TO.C,J15*
X155893000Y-96520000D03*
X157893000Y-96520000D03*
D26*
X159893000Y-96520000D03*
G04 #@! TD*
G04 #@! TO.C,J16*
X159893000Y-91313000D03*
D25*
X157893000Y-91313000D03*
X155893000Y-91313000D03*
G04 #@! TD*
D11*
G04 #@! TO.C,C11*
G36*
X118998614Y-126196127D02*
X119025367Y-126200096D01*
X119051602Y-126206667D01*
X119077068Y-126215779D01*
X119101517Y-126227342D01*
X119124715Y-126241247D01*
X119146439Y-126257358D01*
X119166479Y-126275521D01*
X119184642Y-126295561D01*
X119200753Y-126317285D01*
X119214658Y-126340483D01*
X119226221Y-126364932D01*
X119235333Y-126390398D01*
X119241904Y-126416633D01*
X119245873Y-126443386D01*
X119247200Y-126470400D01*
X119247200Y-127021600D01*
X119245873Y-127048614D01*
X119241904Y-127075367D01*
X119235333Y-127101602D01*
X119226221Y-127127068D01*
X119214658Y-127151517D01*
X119200753Y-127174715D01*
X119184642Y-127196439D01*
X119166479Y-127216479D01*
X119146439Y-127234642D01*
X119124715Y-127250753D01*
X119101517Y-127264658D01*
X119077068Y-127276221D01*
X119051602Y-127285333D01*
X119025367Y-127291904D01*
X118998614Y-127295873D01*
X118971600Y-127297200D01*
X118320400Y-127297200D01*
X118293386Y-127295873D01*
X118266633Y-127291904D01*
X118240398Y-127285333D01*
X118214932Y-127276221D01*
X118190483Y-127264658D01*
X118167285Y-127250753D01*
X118145561Y-127234642D01*
X118125521Y-127216479D01*
X118107358Y-127196439D01*
X118091247Y-127174715D01*
X118077342Y-127151517D01*
X118065779Y-127127068D01*
X118056667Y-127101602D01*
X118050096Y-127075367D01*
X118046127Y-127048614D01*
X118044800Y-127021600D01*
X118044800Y-126470400D01*
X118046127Y-126443386D01*
X118050096Y-126416633D01*
X118056667Y-126390398D01*
X118065779Y-126364932D01*
X118077342Y-126340483D01*
X118091247Y-126317285D01*
X118107358Y-126295561D01*
X118125521Y-126275521D01*
X118145561Y-126257358D01*
X118167285Y-126241247D01*
X118190483Y-126227342D01*
X118214932Y-126215779D01*
X118240398Y-126206667D01*
X118266633Y-126200096D01*
X118293386Y-126196127D01*
X118320400Y-126194800D01*
X118971600Y-126194800D01*
X118998614Y-126196127D01*
X118998614Y-126196127D01*
G37*
D12*
X118646000Y-126746000D03*
D11*
G36*
X120748614Y-126196127D02*
X120775367Y-126200096D01*
X120801602Y-126206667D01*
X120827068Y-126215779D01*
X120851517Y-126227342D01*
X120874715Y-126241247D01*
X120896439Y-126257358D01*
X120916479Y-126275521D01*
X120934642Y-126295561D01*
X120950753Y-126317285D01*
X120964658Y-126340483D01*
X120976221Y-126364932D01*
X120985333Y-126390398D01*
X120991904Y-126416633D01*
X120995873Y-126443386D01*
X120997200Y-126470400D01*
X120997200Y-127021600D01*
X120995873Y-127048614D01*
X120991904Y-127075367D01*
X120985333Y-127101602D01*
X120976221Y-127127068D01*
X120964658Y-127151517D01*
X120950753Y-127174715D01*
X120934642Y-127196439D01*
X120916479Y-127216479D01*
X120896439Y-127234642D01*
X120874715Y-127250753D01*
X120851517Y-127264658D01*
X120827068Y-127276221D01*
X120801602Y-127285333D01*
X120775367Y-127291904D01*
X120748614Y-127295873D01*
X120721600Y-127297200D01*
X120070400Y-127297200D01*
X120043386Y-127295873D01*
X120016633Y-127291904D01*
X119990398Y-127285333D01*
X119964932Y-127276221D01*
X119940483Y-127264658D01*
X119917285Y-127250753D01*
X119895561Y-127234642D01*
X119875521Y-127216479D01*
X119857358Y-127196439D01*
X119841247Y-127174715D01*
X119827342Y-127151517D01*
X119815779Y-127127068D01*
X119806667Y-127101602D01*
X119800096Y-127075367D01*
X119796127Y-127048614D01*
X119794800Y-127021600D01*
X119794800Y-126470400D01*
X119796127Y-126443386D01*
X119800096Y-126416633D01*
X119806667Y-126390398D01*
X119815779Y-126364932D01*
X119827342Y-126340483D01*
X119841247Y-126317285D01*
X119857358Y-126295561D01*
X119875521Y-126275521D01*
X119895561Y-126257358D01*
X119917285Y-126241247D01*
X119940483Y-126227342D01*
X119964932Y-126215779D01*
X119990398Y-126206667D01*
X120016633Y-126200096D01*
X120043386Y-126196127D01*
X120070400Y-126194800D01*
X120721600Y-126194800D01*
X120748614Y-126196127D01*
X120748614Y-126196127D01*
G37*
D12*
X120396000Y-126746000D03*
G04 #@! TD*
D11*
G04 #@! TO.C,C12*
G36*
X122730614Y-122082127D02*
X122757367Y-122086096D01*
X122783602Y-122092667D01*
X122809068Y-122101779D01*
X122833517Y-122113342D01*
X122856715Y-122127247D01*
X122878439Y-122143358D01*
X122898479Y-122161521D01*
X122916642Y-122181561D01*
X122932753Y-122203285D01*
X122946658Y-122226483D01*
X122958221Y-122250932D01*
X122967333Y-122276398D01*
X122973904Y-122302633D01*
X122977873Y-122329386D01*
X122979200Y-122356400D01*
X122979200Y-123007600D01*
X122977873Y-123034614D01*
X122973904Y-123061367D01*
X122967333Y-123087602D01*
X122958221Y-123113068D01*
X122946658Y-123137517D01*
X122932753Y-123160715D01*
X122916642Y-123182439D01*
X122898479Y-123202479D01*
X122878439Y-123220642D01*
X122856715Y-123236753D01*
X122833517Y-123250658D01*
X122809068Y-123262221D01*
X122783602Y-123271333D01*
X122757367Y-123277904D01*
X122730614Y-123281873D01*
X122703600Y-123283200D01*
X122152400Y-123283200D01*
X122125386Y-123281873D01*
X122098633Y-123277904D01*
X122072398Y-123271333D01*
X122046932Y-123262221D01*
X122022483Y-123250658D01*
X121999285Y-123236753D01*
X121977561Y-123220642D01*
X121957521Y-123202479D01*
X121939358Y-123182439D01*
X121923247Y-123160715D01*
X121909342Y-123137517D01*
X121897779Y-123113068D01*
X121888667Y-123087602D01*
X121882096Y-123061367D01*
X121878127Y-123034614D01*
X121876800Y-123007600D01*
X121876800Y-122356400D01*
X121878127Y-122329386D01*
X121882096Y-122302633D01*
X121888667Y-122276398D01*
X121897779Y-122250932D01*
X121909342Y-122226483D01*
X121923247Y-122203285D01*
X121939358Y-122181561D01*
X121957521Y-122161521D01*
X121977561Y-122143358D01*
X121999285Y-122127247D01*
X122022483Y-122113342D01*
X122046932Y-122101779D01*
X122072398Y-122092667D01*
X122098633Y-122086096D01*
X122125386Y-122082127D01*
X122152400Y-122080800D01*
X122703600Y-122080800D01*
X122730614Y-122082127D01*
X122730614Y-122082127D01*
G37*
D12*
X122428000Y-122682000D03*
D11*
G36*
X122730614Y-123832127D02*
X122757367Y-123836096D01*
X122783602Y-123842667D01*
X122809068Y-123851779D01*
X122833517Y-123863342D01*
X122856715Y-123877247D01*
X122878439Y-123893358D01*
X122898479Y-123911521D01*
X122916642Y-123931561D01*
X122932753Y-123953285D01*
X122946658Y-123976483D01*
X122958221Y-124000932D01*
X122967333Y-124026398D01*
X122973904Y-124052633D01*
X122977873Y-124079386D01*
X122979200Y-124106400D01*
X122979200Y-124757600D01*
X122977873Y-124784614D01*
X122973904Y-124811367D01*
X122967333Y-124837602D01*
X122958221Y-124863068D01*
X122946658Y-124887517D01*
X122932753Y-124910715D01*
X122916642Y-124932439D01*
X122898479Y-124952479D01*
X122878439Y-124970642D01*
X122856715Y-124986753D01*
X122833517Y-125000658D01*
X122809068Y-125012221D01*
X122783602Y-125021333D01*
X122757367Y-125027904D01*
X122730614Y-125031873D01*
X122703600Y-125033200D01*
X122152400Y-125033200D01*
X122125386Y-125031873D01*
X122098633Y-125027904D01*
X122072398Y-125021333D01*
X122046932Y-125012221D01*
X122022483Y-125000658D01*
X121999285Y-124986753D01*
X121977561Y-124970642D01*
X121957521Y-124952479D01*
X121939358Y-124932439D01*
X121923247Y-124910715D01*
X121909342Y-124887517D01*
X121897779Y-124863068D01*
X121888667Y-124837602D01*
X121882096Y-124811367D01*
X121878127Y-124784614D01*
X121876800Y-124757600D01*
X121876800Y-124106400D01*
X121878127Y-124079386D01*
X121882096Y-124052633D01*
X121888667Y-124026398D01*
X121897779Y-124000932D01*
X121909342Y-123976483D01*
X121923247Y-123953285D01*
X121939358Y-123931561D01*
X121957521Y-123911521D01*
X121977561Y-123893358D01*
X121999285Y-123877247D01*
X122022483Y-123863342D01*
X122046932Y-123851779D01*
X122072398Y-123842667D01*
X122098633Y-123836096D01*
X122125386Y-123832127D01*
X122152400Y-123830800D01*
X122703600Y-123830800D01*
X122730614Y-123832127D01*
X122730614Y-123832127D01*
G37*
D12*
X122428000Y-124432000D03*
G04 #@! TD*
D27*
G04 #@! TO.C,U3*
X55474000Y-92964000D03*
D28*
X49174000Y-92964000D03*
X49174000Y-90664000D03*
X49174000Y-95264000D03*
G04 #@! TD*
D29*
G04 #@! TO.C,U5*
X117614000Y-122298500D03*
D11*
G36*
X117888736Y-122650866D02*
X117884400Y-122665160D01*
X117877358Y-122678334D01*
X117867882Y-122689882D01*
X117856334Y-122699358D01*
X117843160Y-122706400D01*
X117828866Y-122710736D01*
X117814000Y-122712200D01*
X117664000Y-122712200D01*
X117649134Y-122710736D01*
X117634840Y-122706400D01*
X117621666Y-122699358D01*
X117610118Y-122689882D01*
X117360118Y-122439882D01*
X117350642Y-122428334D01*
X117343600Y-122415160D01*
X117339264Y-122400866D01*
X117337800Y-122386000D01*
X117337800Y-121961000D01*
X117339264Y-121946134D01*
X117343600Y-121931840D01*
X117350642Y-121918666D01*
X117360118Y-121907118D01*
X117371666Y-121897642D01*
X117384840Y-121890600D01*
X117399134Y-121886264D01*
X117414000Y-121884800D01*
X117814000Y-121884800D01*
X117828866Y-121886264D01*
X117843160Y-121890600D01*
X117856334Y-121897642D01*
X117867882Y-121907118D01*
X117877358Y-121918666D01*
X117884400Y-121931840D01*
X117888736Y-121946134D01*
X117890200Y-121961000D01*
X117890200Y-122636000D01*
X117888736Y-122650866D01*
X117888736Y-122650866D01*
G37*
D30*
X118114000Y-122298500D03*
X118614000Y-122298500D03*
D29*
X119114000Y-122298500D03*
D11*
G36*
X119388736Y-122400866D02*
X119384400Y-122415160D01*
X119377358Y-122428334D01*
X119367882Y-122439882D01*
X119117882Y-122689882D01*
X119106334Y-122699358D01*
X119093160Y-122706400D01*
X119078866Y-122710736D01*
X119064000Y-122712200D01*
X118914000Y-122712200D01*
X118899134Y-122710736D01*
X118884840Y-122706400D01*
X118871666Y-122699358D01*
X118860118Y-122689882D01*
X118850642Y-122678334D01*
X118843600Y-122665160D01*
X118839264Y-122650866D01*
X118837800Y-122636000D01*
X118837800Y-121961000D01*
X118839264Y-121946134D01*
X118843600Y-121931840D01*
X118850642Y-121918666D01*
X118860118Y-121907118D01*
X118871666Y-121897642D01*
X118884840Y-121890600D01*
X118899134Y-121886264D01*
X118914000Y-121884800D01*
X119314000Y-121884800D01*
X119328866Y-121886264D01*
X119343160Y-121890600D01*
X119356334Y-121897642D01*
X119367882Y-121907118D01*
X119377358Y-121918666D01*
X119384400Y-121931840D01*
X119388736Y-121946134D01*
X119390200Y-121961000D01*
X119390200Y-122386000D01*
X119388736Y-122400866D01*
X119388736Y-122400866D01*
G37*
D29*
X119251500Y-122936000D03*
D11*
G36*
X119663736Y-123150866D02*
X119659400Y-123165160D01*
X119652358Y-123178334D01*
X119642882Y-123189882D01*
X119631334Y-123199358D01*
X119618160Y-123206400D01*
X119603866Y-123210736D01*
X119589000Y-123212200D01*
X118914000Y-123212200D01*
X118899134Y-123210736D01*
X118884840Y-123206400D01*
X118871666Y-123199358D01*
X118860118Y-123189882D01*
X118850642Y-123178334D01*
X118843600Y-123165160D01*
X118839264Y-123150866D01*
X118837800Y-123136000D01*
X118837800Y-122986000D01*
X118839264Y-122971134D01*
X118843600Y-122956840D01*
X118850642Y-122943666D01*
X118860118Y-122932118D01*
X119110118Y-122682118D01*
X119121666Y-122672642D01*
X119134840Y-122665600D01*
X119149134Y-122661264D01*
X119164000Y-122659800D01*
X119589000Y-122659800D01*
X119603866Y-122661264D01*
X119618160Y-122665600D01*
X119631334Y-122672642D01*
X119642882Y-122682118D01*
X119652358Y-122693666D01*
X119659400Y-122706840D01*
X119663736Y-122721134D01*
X119665200Y-122736000D01*
X119665200Y-123136000D01*
X119663736Y-123150866D01*
X119663736Y-123150866D01*
G37*
D31*
X119251500Y-123436000D03*
D29*
X119251500Y-123936000D03*
D11*
G36*
X119663736Y-124150866D02*
X119659400Y-124165160D01*
X119652358Y-124178334D01*
X119642882Y-124189882D01*
X119631334Y-124199358D01*
X119618160Y-124206400D01*
X119603866Y-124210736D01*
X119589000Y-124212200D01*
X119164000Y-124212200D01*
X119149134Y-124210736D01*
X119134840Y-124206400D01*
X119121666Y-124199358D01*
X119110118Y-124189882D01*
X118860118Y-123939882D01*
X118850642Y-123928334D01*
X118843600Y-123915160D01*
X118839264Y-123900866D01*
X118837800Y-123886000D01*
X118837800Y-123736000D01*
X118839264Y-123721134D01*
X118843600Y-123706840D01*
X118850642Y-123693666D01*
X118860118Y-123682118D01*
X118871666Y-123672642D01*
X118884840Y-123665600D01*
X118899134Y-123661264D01*
X118914000Y-123659800D01*
X119589000Y-123659800D01*
X119603866Y-123661264D01*
X119618160Y-123665600D01*
X119631334Y-123672642D01*
X119642882Y-123682118D01*
X119652358Y-123693666D01*
X119659400Y-123706840D01*
X119663736Y-123721134D01*
X119665200Y-123736000D01*
X119665200Y-124136000D01*
X119663736Y-124150866D01*
X119663736Y-124150866D01*
G37*
D29*
X119114000Y-124573500D03*
D11*
G36*
X119388736Y-124925866D02*
X119384400Y-124940160D01*
X119377358Y-124953334D01*
X119367882Y-124964882D01*
X119356334Y-124974358D01*
X119343160Y-124981400D01*
X119328866Y-124985736D01*
X119314000Y-124987200D01*
X118914000Y-124987200D01*
X118899134Y-124985736D01*
X118884840Y-124981400D01*
X118871666Y-124974358D01*
X118860118Y-124964882D01*
X118850642Y-124953334D01*
X118843600Y-124940160D01*
X118839264Y-124925866D01*
X118837800Y-124911000D01*
X118837800Y-124236000D01*
X118839264Y-124221134D01*
X118843600Y-124206840D01*
X118850642Y-124193666D01*
X118860118Y-124182118D01*
X118871666Y-124172642D01*
X118884840Y-124165600D01*
X118899134Y-124161264D01*
X118914000Y-124159800D01*
X119064000Y-124159800D01*
X119078866Y-124161264D01*
X119093160Y-124165600D01*
X119106334Y-124172642D01*
X119117882Y-124182118D01*
X119367882Y-124432118D01*
X119377358Y-124443666D01*
X119384400Y-124456840D01*
X119388736Y-124471134D01*
X119390200Y-124486000D01*
X119390200Y-124911000D01*
X119388736Y-124925866D01*
X119388736Y-124925866D01*
G37*
D30*
X118614000Y-124573500D03*
X118114000Y-124573500D03*
D29*
X117614000Y-124573500D03*
D11*
G36*
X117888736Y-124925866D02*
X117884400Y-124940160D01*
X117877358Y-124953334D01*
X117867882Y-124964882D01*
X117856334Y-124974358D01*
X117843160Y-124981400D01*
X117828866Y-124985736D01*
X117814000Y-124987200D01*
X117414000Y-124987200D01*
X117399134Y-124985736D01*
X117384840Y-124981400D01*
X117371666Y-124974358D01*
X117360118Y-124964882D01*
X117350642Y-124953334D01*
X117343600Y-124940160D01*
X117339264Y-124925866D01*
X117337800Y-124911000D01*
X117337800Y-124486000D01*
X117339264Y-124471134D01*
X117343600Y-124456840D01*
X117350642Y-124443666D01*
X117360118Y-124432118D01*
X117610118Y-124182118D01*
X117621666Y-124172642D01*
X117634840Y-124165600D01*
X117649134Y-124161264D01*
X117664000Y-124159800D01*
X117814000Y-124159800D01*
X117828866Y-124161264D01*
X117843160Y-124165600D01*
X117856334Y-124172642D01*
X117867882Y-124182118D01*
X117877358Y-124193666D01*
X117884400Y-124206840D01*
X117888736Y-124221134D01*
X117890200Y-124236000D01*
X117890200Y-124911000D01*
X117888736Y-124925866D01*
X117888736Y-124925866D01*
G37*
D29*
X117476500Y-123936000D03*
D11*
G36*
X117888736Y-123900866D02*
X117884400Y-123915160D01*
X117877358Y-123928334D01*
X117867882Y-123939882D01*
X117617882Y-124189882D01*
X117606334Y-124199358D01*
X117593160Y-124206400D01*
X117578866Y-124210736D01*
X117564000Y-124212200D01*
X117139000Y-124212200D01*
X117124134Y-124210736D01*
X117109840Y-124206400D01*
X117096666Y-124199358D01*
X117085118Y-124189882D01*
X117075642Y-124178334D01*
X117068600Y-124165160D01*
X117064264Y-124150866D01*
X117062800Y-124136000D01*
X117062800Y-123736000D01*
X117064264Y-123721134D01*
X117068600Y-123706840D01*
X117075642Y-123693666D01*
X117085118Y-123682118D01*
X117096666Y-123672642D01*
X117109840Y-123665600D01*
X117124134Y-123661264D01*
X117139000Y-123659800D01*
X117814000Y-123659800D01*
X117828866Y-123661264D01*
X117843160Y-123665600D01*
X117856334Y-123672642D01*
X117867882Y-123682118D01*
X117877358Y-123693666D01*
X117884400Y-123706840D01*
X117888736Y-123721134D01*
X117890200Y-123736000D01*
X117890200Y-123886000D01*
X117888736Y-123900866D01*
X117888736Y-123900866D01*
G37*
D31*
X117476500Y-123436000D03*
D29*
X117476500Y-122936000D03*
D11*
G36*
X117888736Y-123150866D02*
X117884400Y-123165160D01*
X117877358Y-123178334D01*
X117867882Y-123189882D01*
X117856334Y-123199358D01*
X117843160Y-123206400D01*
X117828866Y-123210736D01*
X117814000Y-123212200D01*
X117139000Y-123212200D01*
X117124134Y-123210736D01*
X117109840Y-123206400D01*
X117096666Y-123199358D01*
X117085118Y-123189882D01*
X117075642Y-123178334D01*
X117068600Y-123165160D01*
X117064264Y-123150866D01*
X117062800Y-123136000D01*
X117062800Y-122736000D01*
X117064264Y-122721134D01*
X117068600Y-122706840D01*
X117075642Y-122693666D01*
X117085118Y-122682118D01*
X117096666Y-122672642D01*
X117109840Y-122665600D01*
X117124134Y-122661264D01*
X117139000Y-122659800D01*
X117564000Y-122659800D01*
X117578866Y-122661264D01*
X117593160Y-122665600D01*
X117606334Y-122672642D01*
X117617882Y-122682118D01*
X117867882Y-122932118D01*
X117877358Y-122943666D01*
X117884400Y-122956840D01*
X117888736Y-122971134D01*
X117890200Y-122986000D01*
X117890200Y-123136000D01*
X117888736Y-123150866D01*
X117888736Y-123150866D01*
G37*
G04 #@! TD*
D32*
G04 #@! TO.C,REF\002A\002A*
X143510000Y-62738000D03*
G04 #@! TD*
G04 #@! TO.C,REF\002A\002A*
X60960000Y-62738000D03*
G04 #@! TD*
G04 #@! TO.C,REF\002A\002A*
X143510000Y-138938000D03*
G04 #@! TD*
G04 #@! TO.C,REF\002A\002A*
X60960000Y-138938000D03*
G04 #@! TD*
D13*
G04 #@! TO.C,J3*
X54356000Y-76708000D03*
D33*
X54356000Y-79208000D03*
X52356000Y-79208000D03*
X52356000Y-76708000D03*
D34*
X49646000Y-71938000D03*
X49646000Y-83978000D03*
G04 #@! TD*
D11*
G04 #@! TO.C,C1*
G36*
X92377614Y-77378127D02*
X92404367Y-77382096D01*
X92430602Y-77388667D01*
X92456068Y-77397779D01*
X92480517Y-77409342D01*
X92503715Y-77423247D01*
X92525439Y-77439358D01*
X92545479Y-77457521D01*
X92563642Y-77477561D01*
X92579753Y-77499285D01*
X92593658Y-77522483D01*
X92605221Y-77546932D01*
X92614333Y-77572398D01*
X92620904Y-77598633D01*
X92624873Y-77625386D01*
X92626200Y-77652400D01*
X92626200Y-78303600D01*
X92624873Y-78330614D01*
X92620904Y-78357367D01*
X92614333Y-78383602D01*
X92605221Y-78409068D01*
X92593658Y-78433517D01*
X92579753Y-78456715D01*
X92563642Y-78478439D01*
X92545479Y-78498479D01*
X92525439Y-78516642D01*
X92503715Y-78532753D01*
X92480517Y-78546658D01*
X92456068Y-78558221D01*
X92430602Y-78567333D01*
X92404367Y-78573904D01*
X92377614Y-78577873D01*
X92350600Y-78579200D01*
X91799400Y-78579200D01*
X91772386Y-78577873D01*
X91745633Y-78573904D01*
X91719398Y-78567333D01*
X91693932Y-78558221D01*
X91669483Y-78546658D01*
X91646285Y-78532753D01*
X91624561Y-78516642D01*
X91604521Y-78498479D01*
X91586358Y-78478439D01*
X91570247Y-78456715D01*
X91556342Y-78433517D01*
X91544779Y-78409068D01*
X91535667Y-78383602D01*
X91529096Y-78357367D01*
X91525127Y-78330614D01*
X91523800Y-78303600D01*
X91523800Y-77652400D01*
X91525127Y-77625386D01*
X91529096Y-77598633D01*
X91535667Y-77572398D01*
X91544779Y-77546932D01*
X91556342Y-77522483D01*
X91570247Y-77499285D01*
X91586358Y-77477561D01*
X91604521Y-77457521D01*
X91624561Y-77439358D01*
X91646285Y-77423247D01*
X91669483Y-77409342D01*
X91693932Y-77397779D01*
X91719398Y-77388667D01*
X91745633Y-77382096D01*
X91772386Y-77378127D01*
X91799400Y-77376800D01*
X92350600Y-77376800D01*
X92377614Y-77378127D01*
X92377614Y-77378127D01*
G37*
D12*
X92075000Y-77978000D03*
D11*
G36*
X92377614Y-79128127D02*
X92404367Y-79132096D01*
X92430602Y-79138667D01*
X92456068Y-79147779D01*
X92480517Y-79159342D01*
X92503715Y-79173247D01*
X92525439Y-79189358D01*
X92545479Y-79207521D01*
X92563642Y-79227561D01*
X92579753Y-79249285D01*
X92593658Y-79272483D01*
X92605221Y-79296932D01*
X92614333Y-79322398D01*
X92620904Y-79348633D01*
X92624873Y-79375386D01*
X92626200Y-79402400D01*
X92626200Y-80053600D01*
X92624873Y-80080614D01*
X92620904Y-80107367D01*
X92614333Y-80133602D01*
X92605221Y-80159068D01*
X92593658Y-80183517D01*
X92579753Y-80206715D01*
X92563642Y-80228439D01*
X92545479Y-80248479D01*
X92525439Y-80266642D01*
X92503715Y-80282753D01*
X92480517Y-80296658D01*
X92456068Y-80308221D01*
X92430602Y-80317333D01*
X92404367Y-80323904D01*
X92377614Y-80327873D01*
X92350600Y-80329200D01*
X91799400Y-80329200D01*
X91772386Y-80327873D01*
X91745633Y-80323904D01*
X91719398Y-80317333D01*
X91693932Y-80308221D01*
X91669483Y-80296658D01*
X91646285Y-80282753D01*
X91624561Y-80266642D01*
X91604521Y-80248479D01*
X91586358Y-80228439D01*
X91570247Y-80206715D01*
X91556342Y-80183517D01*
X91544779Y-80159068D01*
X91535667Y-80133602D01*
X91529096Y-80107367D01*
X91525127Y-80080614D01*
X91523800Y-80053600D01*
X91523800Y-79402400D01*
X91525127Y-79375386D01*
X91529096Y-79348633D01*
X91535667Y-79322398D01*
X91544779Y-79296932D01*
X91556342Y-79272483D01*
X91570247Y-79249285D01*
X91586358Y-79227561D01*
X91604521Y-79207521D01*
X91624561Y-79189358D01*
X91646285Y-79173247D01*
X91669483Y-79159342D01*
X91693932Y-79147779D01*
X91719398Y-79138667D01*
X91745633Y-79132096D01*
X91772386Y-79128127D01*
X91799400Y-79126800D01*
X92350600Y-79126800D01*
X92377614Y-79128127D01*
X92377614Y-79128127D01*
G37*
D12*
X92075000Y-79728000D03*
G04 #@! TD*
D11*
G04 #@! TO.C,C4*
G36*
X92377614Y-81075127D02*
X92404367Y-81079096D01*
X92430602Y-81085667D01*
X92456068Y-81094779D01*
X92480517Y-81106342D01*
X92503715Y-81120247D01*
X92525439Y-81136358D01*
X92545479Y-81154521D01*
X92563642Y-81174561D01*
X92579753Y-81196285D01*
X92593658Y-81219483D01*
X92605221Y-81243932D01*
X92614333Y-81269398D01*
X92620904Y-81295633D01*
X92624873Y-81322386D01*
X92626200Y-81349400D01*
X92626200Y-82000600D01*
X92624873Y-82027614D01*
X92620904Y-82054367D01*
X92614333Y-82080602D01*
X92605221Y-82106068D01*
X92593658Y-82130517D01*
X92579753Y-82153715D01*
X92563642Y-82175439D01*
X92545479Y-82195479D01*
X92525439Y-82213642D01*
X92503715Y-82229753D01*
X92480517Y-82243658D01*
X92456068Y-82255221D01*
X92430602Y-82264333D01*
X92404367Y-82270904D01*
X92377614Y-82274873D01*
X92350600Y-82276200D01*
X91799400Y-82276200D01*
X91772386Y-82274873D01*
X91745633Y-82270904D01*
X91719398Y-82264333D01*
X91693932Y-82255221D01*
X91669483Y-82243658D01*
X91646285Y-82229753D01*
X91624561Y-82213642D01*
X91604521Y-82195479D01*
X91586358Y-82175439D01*
X91570247Y-82153715D01*
X91556342Y-82130517D01*
X91544779Y-82106068D01*
X91535667Y-82080602D01*
X91529096Y-82054367D01*
X91525127Y-82027614D01*
X91523800Y-82000600D01*
X91523800Y-81349400D01*
X91525127Y-81322386D01*
X91529096Y-81295633D01*
X91535667Y-81269398D01*
X91544779Y-81243932D01*
X91556342Y-81219483D01*
X91570247Y-81196285D01*
X91586358Y-81174561D01*
X91604521Y-81154521D01*
X91624561Y-81136358D01*
X91646285Y-81120247D01*
X91669483Y-81106342D01*
X91693932Y-81094779D01*
X91719398Y-81085667D01*
X91745633Y-81079096D01*
X91772386Y-81075127D01*
X91799400Y-81073800D01*
X92350600Y-81073800D01*
X92377614Y-81075127D01*
X92377614Y-81075127D01*
G37*
D12*
X92075000Y-81675000D03*
D11*
G36*
X92377614Y-82825127D02*
X92404367Y-82829096D01*
X92430602Y-82835667D01*
X92456068Y-82844779D01*
X92480517Y-82856342D01*
X92503715Y-82870247D01*
X92525439Y-82886358D01*
X92545479Y-82904521D01*
X92563642Y-82924561D01*
X92579753Y-82946285D01*
X92593658Y-82969483D01*
X92605221Y-82993932D01*
X92614333Y-83019398D01*
X92620904Y-83045633D01*
X92624873Y-83072386D01*
X92626200Y-83099400D01*
X92626200Y-83750600D01*
X92624873Y-83777614D01*
X92620904Y-83804367D01*
X92614333Y-83830602D01*
X92605221Y-83856068D01*
X92593658Y-83880517D01*
X92579753Y-83903715D01*
X92563642Y-83925439D01*
X92545479Y-83945479D01*
X92525439Y-83963642D01*
X92503715Y-83979753D01*
X92480517Y-83993658D01*
X92456068Y-84005221D01*
X92430602Y-84014333D01*
X92404367Y-84020904D01*
X92377614Y-84024873D01*
X92350600Y-84026200D01*
X91799400Y-84026200D01*
X91772386Y-84024873D01*
X91745633Y-84020904D01*
X91719398Y-84014333D01*
X91693932Y-84005221D01*
X91669483Y-83993658D01*
X91646285Y-83979753D01*
X91624561Y-83963642D01*
X91604521Y-83945479D01*
X91586358Y-83925439D01*
X91570247Y-83903715D01*
X91556342Y-83880517D01*
X91544779Y-83856068D01*
X91535667Y-83830602D01*
X91529096Y-83804367D01*
X91525127Y-83777614D01*
X91523800Y-83750600D01*
X91523800Y-83099400D01*
X91525127Y-83072386D01*
X91529096Y-83045633D01*
X91535667Y-83019398D01*
X91544779Y-82993932D01*
X91556342Y-82969483D01*
X91570247Y-82946285D01*
X91586358Y-82924561D01*
X91604521Y-82904521D01*
X91624561Y-82886358D01*
X91646285Y-82870247D01*
X91669483Y-82856342D01*
X91693932Y-82844779D01*
X91719398Y-82835667D01*
X91745633Y-82829096D01*
X91772386Y-82825127D01*
X91799400Y-82823800D01*
X92350600Y-82823800D01*
X92377614Y-82825127D01*
X92377614Y-82825127D01*
G37*
D12*
X92075000Y-83425000D03*
G04 #@! TD*
D11*
G04 #@! TO.C,R1*
G36*
X102460614Y-90382127D02*
X102487367Y-90386096D01*
X102513602Y-90392667D01*
X102539068Y-90401779D01*
X102563517Y-90413342D01*
X102586715Y-90427247D01*
X102608439Y-90443358D01*
X102628479Y-90461521D01*
X102646642Y-90481561D01*
X102662753Y-90503285D01*
X102676658Y-90526483D01*
X102688221Y-90550932D01*
X102697333Y-90576398D01*
X102703904Y-90602633D01*
X102707873Y-90629386D01*
X102709200Y-90656400D01*
X102709200Y-91207600D01*
X102707873Y-91234614D01*
X102703904Y-91261367D01*
X102697333Y-91287602D01*
X102688221Y-91313068D01*
X102676658Y-91337517D01*
X102662753Y-91360715D01*
X102646642Y-91382439D01*
X102628479Y-91402479D01*
X102608439Y-91420642D01*
X102586715Y-91436753D01*
X102563517Y-91450658D01*
X102539068Y-91462221D01*
X102513602Y-91471333D01*
X102487367Y-91477904D01*
X102460614Y-91481873D01*
X102433600Y-91483200D01*
X101782400Y-91483200D01*
X101755386Y-91481873D01*
X101728633Y-91477904D01*
X101702398Y-91471333D01*
X101676932Y-91462221D01*
X101652483Y-91450658D01*
X101629285Y-91436753D01*
X101607561Y-91420642D01*
X101587521Y-91402479D01*
X101569358Y-91382439D01*
X101553247Y-91360715D01*
X101539342Y-91337517D01*
X101527779Y-91313068D01*
X101518667Y-91287602D01*
X101512096Y-91261367D01*
X101508127Y-91234614D01*
X101506800Y-91207600D01*
X101506800Y-90656400D01*
X101508127Y-90629386D01*
X101512096Y-90602633D01*
X101518667Y-90576398D01*
X101527779Y-90550932D01*
X101539342Y-90526483D01*
X101553247Y-90503285D01*
X101569358Y-90481561D01*
X101587521Y-90461521D01*
X101607561Y-90443358D01*
X101629285Y-90427247D01*
X101652483Y-90413342D01*
X101676932Y-90401779D01*
X101702398Y-90392667D01*
X101728633Y-90386096D01*
X101755386Y-90382127D01*
X101782400Y-90380800D01*
X102433600Y-90380800D01*
X102460614Y-90382127D01*
X102460614Y-90382127D01*
G37*
D12*
X102108000Y-90932000D03*
D11*
G36*
X100710614Y-90382127D02*
X100737367Y-90386096D01*
X100763602Y-90392667D01*
X100789068Y-90401779D01*
X100813517Y-90413342D01*
X100836715Y-90427247D01*
X100858439Y-90443358D01*
X100878479Y-90461521D01*
X100896642Y-90481561D01*
X100912753Y-90503285D01*
X100926658Y-90526483D01*
X100938221Y-90550932D01*
X100947333Y-90576398D01*
X100953904Y-90602633D01*
X100957873Y-90629386D01*
X100959200Y-90656400D01*
X100959200Y-91207600D01*
X100957873Y-91234614D01*
X100953904Y-91261367D01*
X100947333Y-91287602D01*
X100938221Y-91313068D01*
X100926658Y-91337517D01*
X100912753Y-91360715D01*
X100896642Y-91382439D01*
X100878479Y-91402479D01*
X100858439Y-91420642D01*
X100836715Y-91436753D01*
X100813517Y-91450658D01*
X100789068Y-91462221D01*
X100763602Y-91471333D01*
X100737367Y-91477904D01*
X100710614Y-91481873D01*
X100683600Y-91483200D01*
X100032400Y-91483200D01*
X100005386Y-91481873D01*
X99978633Y-91477904D01*
X99952398Y-91471333D01*
X99926932Y-91462221D01*
X99902483Y-91450658D01*
X99879285Y-91436753D01*
X99857561Y-91420642D01*
X99837521Y-91402479D01*
X99819358Y-91382439D01*
X99803247Y-91360715D01*
X99789342Y-91337517D01*
X99777779Y-91313068D01*
X99768667Y-91287602D01*
X99762096Y-91261367D01*
X99758127Y-91234614D01*
X99756800Y-91207600D01*
X99756800Y-90656400D01*
X99758127Y-90629386D01*
X99762096Y-90602633D01*
X99768667Y-90576398D01*
X99777779Y-90550932D01*
X99789342Y-90526483D01*
X99803247Y-90503285D01*
X99819358Y-90481561D01*
X99837521Y-90461521D01*
X99857561Y-90443358D01*
X99879285Y-90427247D01*
X99902483Y-90413342D01*
X99926932Y-90401779D01*
X99952398Y-90392667D01*
X99978633Y-90386096D01*
X100005386Y-90382127D01*
X100032400Y-90380800D01*
X100683600Y-90380800D01*
X100710614Y-90382127D01*
X100710614Y-90382127D01*
G37*
D12*
X100358000Y-90932000D03*
G04 #@! TD*
D11*
G04 #@! TO.C,R2*
G36*
X107766614Y-90382127D02*
X107793367Y-90386096D01*
X107819602Y-90392667D01*
X107845068Y-90401779D01*
X107869517Y-90413342D01*
X107892715Y-90427247D01*
X107914439Y-90443358D01*
X107934479Y-90461521D01*
X107952642Y-90481561D01*
X107968753Y-90503285D01*
X107982658Y-90526483D01*
X107994221Y-90550932D01*
X108003333Y-90576398D01*
X108009904Y-90602633D01*
X108013873Y-90629386D01*
X108015200Y-90656400D01*
X108015200Y-91207600D01*
X108013873Y-91234614D01*
X108009904Y-91261367D01*
X108003333Y-91287602D01*
X107994221Y-91313068D01*
X107982658Y-91337517D01*
X107968753Y-91360715D01*
X107952642Y-91382439D01*
X107934479Y-91402479D01*
X107914439Y-91420642D01*
X107892715Y-91436753D01*
X107869517Y-91450658D01*
X107845068Y-91462221D01*
X107819602Y-91471333D01*
X107793367Y-91477904D01*
X107766614Y-91481873D01*
X107739600Y-91483200D01*
X107088400Y-91483200D01*
X107061386Y-91481873D01*
X107034633Y-91477904D01*
X107008398Y-91471333D01*
X106982932Y-91462221D01*
X106958483Y-91450658D01*
X106935285Y-91436753D01*
X106913561Y-91420642D01*
X106893521Y-91402479D01*
X106875358Y-91382439D01*
X106859247Y-91360715D01*
X106845342Y-91337517D01*
X106833779Y-91313068D01*
X106824667Y-91287602D01*
X106818096Y-91261367D01*
X106814127Y-91234614D01*
X106812800Y-91207600D01*
X106812800Y-90656400D01*
X106814127Y-90629386D01*
X106818096Y-90602633D01*
X106824667Y-90576398D01*
X106833779Y-90550932D01*
X106845342Y-90526483D01*
X106859247Y-90503285D01*
X106875358Y-90481561D01*
X106893521Y-90461521D01*
X106913561Y-90443358D01*
X106935285Y-90427247D01*
X106958483Y-90413342D01*
X106982932Y-90401779D01*
X107008398Y-90392667D01*
X107034633Y-90386096D01*
X107061386Y-90382127D01*
X107088400Y-90380800D01*
X107739600Y-90380800D01*
X107766614Y-90382127D01*
X107766614Y-90382127D01*
G37*
D12*
X107414000Y-90932000D03*
D11*
G36*
X106016614Y-90382127D02*
X106043367Y-90386096D01*
X106069602Y-90392667D01*
X106095068Y-90401779D01*
X106119517Y-90413342D01*
X106142715Y-90427247D01*
X106164439Y-90443358D01*
X106184479Y-90461521D01*
X106202642Y-90481561D01*
X106218753Y-90503285D01*
X106232658Y-90526483D01*
X106244221Y-90550932D01*
X106253333Y-90576398D01*
X106259904Y-90602633D01*
X106263873Y-90629386D01*
X106265200Y-90656400D01*
X106265200Y-91207600D01*
X106263873Y-91234614D01*
X106259904Y-91261367D01*
X106253333Y-91287602D01*
X106244221Y-91313068D01*
X106232658Y-91337517D01*
X106218753Y-91360715D01*
X106202642Y-91382439D01*
X106184479Y-91402479D01*
X106164439Y-91420642D01*
X106142715Y-91436753D01*
X106119517Y-91450658D01*
X106095068Y-91462221D01*
X106069602Y-91471333D01*
X106043367Y-91477904D01*
X106016614Y-91481873D01*
X105989600Y-91483200D01*
X105338400Y-91483200D01*
X105311386Y-91481873D01*
X105284633Y-91477904D01*
X105258398Y-91471333D01*
X105232932Y-91462221D01*
X105208483Y-91450658D01*
X105185285Y-91436753D01*
X105163561Y-91420642D01*
X105143521Y-91402479D01*
X105125358Y-91382439D01*
X105109247Y-91360715D01*
X105095342Y-91337517D01*
X105083779Y-91313068D01*
X105074667Y-91287602D01*
X105068096Y-91261367D01*
X105064127Y-91234614D01*
X105062800Y-91207600D01*
X105062800Y-90656400D01*
X105064127Y-90629386D01*
X105068096Y-90602633D01*
X105074667Y-90576398D01*
X105083779Y-90550932D01*
X105095342Y-90526483D01*
X105109247Y-90503285D01*
X105125358Y-90481561D01*
X105143521Y-90461521D01*
X105163561Y-90443358D01*
X105185285Y-90427247D01*
X105208483Y-90413342D01*
X105232932Y-90401779D01*
X105258398Y-90392667D01*
X105284633Y-90386096D01*
X105311386Y-90382127D01*
X105338400Y-90380800D01*
X105989600Y-90380800D01*
X106016614Y-90382127D01*
X106016614Y-90382127D01*
G37*
D12*
X105664000Y-90932000D03*
G04 #@! TD*
D35*
G04 #@! TO.C,U2*
X95162001Y-81729999D03*
X95162001Y-80459999D03*
X95162001Y-79189999D03*
X95162001Y-77919999D03*
X100562001Y-77919999D03*
X100562001Y-79189999D03*
X100562001Y-80459999D03*
X100562001Y-81729999D03*
G04 #@! TD*
D11*
G04 #@! TO.C,C15*
G36*
X44068614Y-89620127D02*
X44095367Y-89624096D01*
X44121602Y-89630667D01*
X44147068Y-89639779D01*
X44171517Y-89651342D01*
X44194715Y-89665247D01*
X44216439Y-89681358D01*
X44236479Y-89699521D01*
X44254642Y-89719561D01*
X44270753Y-89741285D01*
X44284658Y-89764483D01*
X44296221Y-89788932D01*
X44305333Y-89814398D01*
X44311904Y-89840633D01*
X44315873Y-89867386D01*
X44317200Y-89894400D01*
X44317200Y-90445600D01*
X44315873Y-90472614D01*
X44311904Y-90499367D01*
X44305333Y-90525602D01*
X44296221Y-90551068D01*
X44284658Y-90575517D01*
X44270753Y-90598715D01*
X44254642Y-90620439D01*
X44236479Y-90640479D01*
X44216439Y-90658642D01*
X44194715Y-90674753D01*
X44171517Y-90688658D01*
X44147068Y-90700221D01*
X44121602Y-90709333D01*
X44095367Y-90715904D01*
X44068614Y-90719873D01*
X44041600Y-90721200D01*
X43390400Y-90721200D01*
X43363386Y-90719873D01*
X43336633Y-90715904D01*
X43310398Y-90709333D01*
X43284932Y-90700221D01*
X43260483Y-90688658D01*
X43237285Y-90674753D01*
X43215561Y-90658642D01*
X43195521Y-90640479D01*
X43177358Y-90620439D01*
X43161247Y-90598715D01*
X43147342Y-90575517D01*
X43135779Y-90551068D01*
X43126667Y-90525602D01*
X43120096Y-90499367D01*
X43116127Y-90472614D01*
X43114800Y-90445600D01*
X43114800Y-89894400D01*
X43116127Y-89867386D01*
X43120096Y-89840633D01*
X43126667Y-89814398D01*
X43135779Y-89788932D01*
X43147342Y-89764483D01*
X43161247Y-89741285D01*
X43177358Y-89719561D01*
X43195521Y-89699521D01*
X43215561Y-89681358D01*
X43237285Y-89665247D01*
X43260483Y-89651342D01*
X43284932Y-89639779D01*
X43310398Y-89630667D01*
X43336633Y-89624096D01*
X43363386Y-89620127D01*
X43390400Y-89618800D01*
X44041600Y-89618800D01*
X44068614Y-89620127D01*
X44068614Y-89620127D01*
G37*
D12*
X43716000Y-90170000D03*
D11*
G36*
X45818614Y-89620127D02*
X45845367Y-89624096D01*
X45871602Y-89630667D01*
X45897068Y-89639779D01*
X45921517Y-89651342D01*
X45944715Y-89665247D01*
X45966439Y-89681358D01*
X45986479Y-89699521D01*
X46004642Y-89719561D01*
X46020753Y-89741285D01*
X46034658Y-89764483D01*
X46046221Y-89788932D01*
X46055333Y-89814398D01*
X46061904Y-89840633D01*
X46065873Y-89867386D01*
X46067200Y-89894400D01*
X46067200Y-90445600D01*
X46065873Y-90472614D01*
X46061904Y-90499367D01*
X46055333Y-90525602D01*
X46046221Y-90551068D01*
X46034658Y-90575517D01*
X46020753Y-90598715D01*
X46004642Y-90620439D01*
X45986479Y-90640479D01*
X45966439Y-90658642D01*
X45944715Y-90674753D01*
X45921517Y-90688658D01*
X45897068Y-90700221D01*
X45871602Y-90709333D01*
X45845367Y-90715904D01*
X45818614Y-90719873D01*
X45791600Y-90721200D01*
X45140400Y-90721200D01*
X45113386Y-90719873D01*
X45086633Y-90715904D01*
X45060398Y-90709333D01*
X45034932Y-90700221D01*
X45010483Y-90688658D01*
X44987285Y-90674753D01*
X44965561Y-90658642D01*
X44945521Y-90640479D01*
X44927358Y-90620439D01*
X44911247Y-90598715D01*
X44897342Y-90575517D01*
X44885779Y-90551068D01*
X44876667Y-90525602D01*
X44870096Y-90499367D01*
X44866127Y-90472614D01*
X44864800Y-90445600D01*
X44864800Y-89894400D01*
X44866127Y-89867386D01*
X44870096Y-89840633D01*
X44876667Y-89814398D01*
X44885779Y-89788932D01*
X44897342Y-89764483D01*
X44911247Y-89741285D01*
X44927358Y-89719561D01*
X44945521Y-89699521D01*
X44965561Y-89681358D01*
X44987285Y-89665247D01*
X45010483Y-89651342D01*
X45034932Y-89639779D01*
X45060398Y-89630667D01*
X45086633Y-89624096D01*
X45113386Y-89620127D01*
X45140400Y-89618800D01*
X45791600Y-89618800D01*
X45818614Y-89620127D01*
X45818614Y-89620127D01*
G37*
D12*
X45466000Y-90170000D03*
G04 #@! TD*
D11*
G04 #@! TO.C,C16*
G36*
X45818614Y-92668127D02*
X45845367Y-92672096D01*
X45871602Y-92678667D01*
X45897068Y-92687779D01*
X45921517Y-92699342D01*
X45944715Y-92713247D01*
X45966439Y-92729358D01*
X45986479Y-92747521D01*
X46004642Y-92767561D01*
X46020753Y-92789285D01*
X46034658Y-92812483D01*
X46046221Y-92836932D01*
X46055333Y-92862398D01*
X46061904Y-92888633D01*
X46065873Y-92915386D01*
X46067200Y-92942400D01*
X46067200Y-93493600D01*
X46065873Y-93520614D01*
X46061904Y-93547367D01*
X46055333Y-93573602D01*
X46046221Y-93599068D01*
X46034658Y-93623517D01*
X46020753Y-93646715D01*
X46004642Y-93668439D01*
X45986479Y-93688479D01*
X45966439Y-93706642D01*
X45944715Y-93722753D01*
X45921517Y-93736658D01*
X45897068Y-93748221D01*
X45871602Y-93757333D01*
X45845367Y-93763904D01*
X45818614Y-93767873D01*
X45791600Y-93769200D01*
X45140400Y-93769200D01*
X45113386Y-93767873D01*
X45086633Y-93763904D01*
X45060398Y-93757333D01*
X45034932Y-93748221D01*
X45010483Y-93736658D01*
X44987285Y-93722753D01*
X44965561Y-93706642D01*
X44945521Y-93688479D01*
X44927358Y-93668439D01*
X44911247Y-93646715D01*
X44897342Y-93623517D01*
X44885779Y-93599068D01*
X44876667Y-93573602D01*
X44870096Y-93547367D01*
X44866127Y-93520614D01*
X44864800Y-93493600D01*
X44864800Y-92942400D01*
X44866127Y-92915386D01*
X44870096Y-92888633D01*
X44876667Y-92862398D01*
X44885779Y-92836932D01*
X44897342Y-92812483D01*
X44911247Y-92789285D01*
X44927358Y-92767561D01*
X44945521Y-92747521D01*
X44965561Y-92729358D01*
X44987285Y-92713247D01*
X45010483Y-92699342D01*
X45034932Y-92687779D01*
X45060398Y-92678667D01*
X45086633Y-92672096D01*
X45113386Y-92668127D01*
X45140400Y-92666800D01*
X45791600Y-92666800D01*
X45818614Y-92668127D01*
X45818614Y-92668127D01*
G37*
D12*
X45466000Y-93218000D03*
D11*
G36*
X44068614Y-92668127D02*
X44095367Y-92672096D01*
X44121602Y-92678667D01*
X44147068Y-92687779D01*
X44171517Y-92699342D01*
X44194715Y-92713247D01*
X44216439Y-92729358D01*
X44236479Y-92747521D01*
X44254642Y-92767561D01*
X44270753Y-92789285D01*
X44284658Y-92812483D01*
X44296221Y-92836932D01*
X44305333Y-92862398D01*
X44311904Y-92888633D01*
X44315873Y-92915386D01*
X44317200Y-92942400D01*
X44317200Y-93493600D01*
X44315873Y-93520614D01*
X44311904Y-93547367D01*
X44305333Y-93573602D01*
X44296221Y-93599068D01*
X44284658Y-93623517D01*
X44270753Y-93646715D01*
X44254642Y-93668439D01*
X44236479Y-93688479D01*
X44216439Y-93706642D01*
X44194715Y-93722753D01*
X44171517Y-93736658D01*
X44147068Y-93748221D01*
X44121602Y-93757333D01*
X44095367Y-93763904D01*
X44068614Y-93767873D01*
X44041600Y-93769200D01*
X43390400Y-93769200D01*
X43363386Y-93767873D01*
X43336633Y-93763904D01*
X43310398Y-93757333D01*
X43284932Y-93748221D01*
X43260483Y-93736658D01*
X43237285Y-93722753D01*
X43215561Y-93706642D01*
X43195521Y-93688479D01*
X43177358Y-93668439D01*
X43161247Y-93646715D01*
X43147342Y-93623517D01*
X43135779Y-93599068D01*
X43126667Y-93573602D01*
X43120096Y-93547367D01*
X43116127Y-93520614D01*
X43114800Y-93493600D01*
X43114800Y-92942400D01*
X43116127Y-92915386D01*
X43120096Y-92888633D01*
X43126667Y-92862398D01*
X43135779Y-92836932D01*
X43147342Y-92812483D01*
X43161247Y-92789285D01*
X43177358Y-92767561D01*
X43195521Y-92747521D01*
X43215561Y-92729358D01*
X43237285Y-92713247D01*
X43260483Y-92699342D01*
X43284932Y-92687779D01*
X43310398Y-92678667D01*
X43336633Y-92672096D01*
X43363386Y-92668127D01*
X43390400Y-92666800D01*
X44041600Y-92666800D01*
X44068614Y-92668127D01*
X44068614Y-92668127D01*
G37*
D12*
X43716000Y-93218000D03*
G04 #@! TD*
D17*
G04 #@! TO.C,J8*
X65024000Y-51054000D03*
D18*
X77724000Y-51054000D03*
G04 #@! TD*
D11*
G04 #@! TO.C,C18*
G36*
X103172614Y-121066127D02*
X103199367Y-121070096D01*
X103225602Y-121076667D01*
X103251068Y-121085779D01*
X103275517Y-121097342D01*
X103298715Y-121111247D01*
X103320439Y-121127358D01*
X103340479Y-121145521D01*
X103358642Y-121165561D01*
X103374753Y-121187285D01*
X103388658Y-121210483D01*
X103400221Y-121234932D01*
X103409333Y-121260398D01*
X103415904Y-121286633D01*
X103419873Y-121313386D01*
X103421200Y-121340400D01*
X103421200Y-121991600D01*
X103419873Y-122018614D01*
X103415904Y-122045367D01*
X103409333Y-122071602D01*
X103400221Y-122097068D01*
X103388658Y-122121517D01*
X103374753Y-122144715D01*
X103358642Y-122166439D01*
X103340479Y-122186479D01*
X103320439Y-122204642D01*
X103298715Y-122220753D01*
X103275517Y-122234658D01*
X103251068Y-122246221D01*
X103225602Y-122255333D01*
X103199367Y-122261904D01*
X103172614Y-122265873D01*
X103145600Y-122267200D01*
X102594400Y-122267200D01*
X102567386Y-122265873D01*
X102540633Y-122261904D01*
X102514398Y-122255333D01*
X102488932Y-122246221D01*
X102464483Y-122234658D01*
X102441285Y-122220753D01*
X102419561Y-122204642D01*
X102399521Y-122186479D01*
X102381358Y-122166439D01*
X102365247Y-122144715D01*
X102351342Y-122121517D01*
X102339779Y-122097068D01*
X102330667Y-122071602D01*
X102324096Y-122045367D01*
X102320127Y-122018614D01*
X102318800Y-121991600D01*
X102318800Y-121340400D01*
X102320127Y-121313386D01*
X102324096Y-121286633D01*
X102330667Y-121260398D01*
X102339779Y-121234932D01*
X102351342Y-121210483D01*
X102365247Y-121187285D01*
X102381358Y-121165561D01*
X102399521Y-121145521D01*
X102419561Y-121127358D01*
X102441285Y-121111247D01*
X102464483Y-121097342D01*
X102488932Y-121085779D01*
X102514398Y-121076667D01*
X102540633Y-121070096D01*
X102567386Y-121066127D01*
X102594400Y-121064800D01*
X103145600Y-121064800D01*
X103172614Y-121066127D01*
X103172614Y-121066127D01*
G37*
D12*
X102870000Y-121666000D03*
D11*
G36*
X103172614Y-122816127D02*
X103199367Y-122820096D01*
X103225602Y-122826667D01*
X103251068Y-122835779D01*
X103275517Y-122847342D01*
X103298715Y-122861247D01*
X103320439Y-122877358D01*
X103340479Y-122895521D01*
X103358642Y-122915561D01*
X103374753Y-122937285D01*
X103388658Y-122960483D01*
X103400221Y-122984932D01*
X103409333Y-123010398D01*
X103415904Y-123036633D01*
X103419873Y-123063386D01*
X103421200Y-123090400D01*
X103421200Y-123741600D01*
X103419873Y-123768614D01*
X103415904Y-123795367D01*
X103409333Y-123821602D01*
X103400221Y-123847068D01*
X103388658Y-123871517D01*
X103374753Y-123894715D01*
X103358642Y-123916439D01*
X103340479Y-123936479D01*
X103320439Y-123954642D01*
X103298715Y-123970753D01*
X103275517Y-123984658D01*
X103251068Y-123996221D01*
X103225602Y-124005333D01*
X103199367Y-124011904D01*
X103172614Y-124015873D01*
X103145600Y-124017200D01*
X102594400Y-124017200D01*
X102567386Y-124015873D01*
X102540633Y-124011904D01*
X102514398Y-124005333D01*
X102488932Y-123996221D01*
X102464483Y-123984658D01*
X102441285Y-123970753D01*
X102419561Y-123954642D01*
X102399521Y-123936479D01*
X102381358Y-123916439D01*
X102365247Y-123894715D01*
X102351342Y-123871517D01*
X102339779Y-123847068D01*
X102330667Y-123821602D01*
X102324096Y-123795367D01*
X102320127Y-123768614D01*
X102318800Y-123741600D01*
X102318800Y-123090400D01*
X102320127Y-123063386D01*
X102324096Y-123036633D01*
X102330667Y-123010398D01*
X102339779Y-122984932D01*
X102351342Y-122960483D01*
X102365247Y-122937285D01*
X102381358Y-122915561D01*
X102399521Y-122895521D01*
X102419561Y-122877358D01*
X102441285Y-122861247D01*
X102464483Y-122847342D01*
X102488932Y-122835779D01*
X102514398Y-122826667D01*
X102540633Y-122820096D01*
X102567386Y-122816127D01*
X102594400Y-122814800D01*
X103145600Y-122814800D01*
X103172614Y-122816127D01*
X103172614Y-122816127D01*
G37*
D12*
X102870000Y-123416000D03*
G04 #@! TD*
D36*
G04 #@! TO.C,SW1*
X91610000Y-150586000D03*
X91610000Y-146086000D03*
X83650000Y-146086000D03*
X83650000Y-150586000D03*
G04 #@! TD*
D26*
G04 #@! TO.C,J9*
X139192000Y-88138000D03*
D25*
X139192000Y-90138000D03*
X139192000Y-92138000D03*
X139192000Y-94138000D03*
X139192000Y-96138000D03*
X139192000Y-98138000D03*
G04 #@! TD*
D14*
G04 #@! TO.C,J17*
X60960000Y-85598000D03*
D13*
X63500000Y-85598000D03*
G04 #@! TD*
G04 #@! TO.C,J18*
X63500000Y-96266000D03*
D14*
X60960000Y-96266000D03*
G04 #@! TD*
D11*
G04 #@! TO.C,D7*
G36*
X157296614Y-77936127D02*
X157323367Y-77940096D01*
X157349602Y-77946667D01*
X157375068Y-77955779D01*
X157399517Y-77967342D01*
X157422715Y-77981247D01*
X157444439Y-77997358D01*
X157464479Y-78015521D01*
X157482642Y-78035561D01*
X157498753Y-78057285D01*
X157512658Y-78080483D01*
X157524221Y-78104932D01*
X157533333Y-78130398D01*
X157539904Y-78156633D01*
X157543873Y-78183386D01*
X157545200Y-78210400D01*
X157545200Y-78761600D01*
X157543873Y-78788614D01*
X157539904Y-78815367D01*
X157533333Y-78841602D01*
X157524221Y-78867068D01*
X157512658Y-78891517D01*
X157498753Y-78914715D01*
X157482642Y-78936439D01*
X157464479Y-78956479D01*
X157444439Y-78974642D01*
X157422715Y-78990753D01*
X157399517Y-79004658D01*
X157375068Y-79016221D01*
X157349602Y-79025333D01*
X157323367Y-79031904D01*
X157296614Y-79035873D01*
X157269600Y-79037200D01*
X156618400Y-79037200D01*
X156591386Y-79035873D01*
X156564633Y-79031904D01*
X156538398Y-79025333D01*
X156512932Y-79016221D01*
X156488483Y-79004658D01*
X156465285Y-78990753D01*
X156443561Y-78974642D01*
X156423521Y-78956479D01*
X156405358Y-78936439D01*
X156389247Y-78914715D01*
X156375342Y-78891517D01*
X156363779Y-78867068D01*
X156354667Y-78841602D01*
X156348096Y-78815367D01*
X156344127Y-78788614D01*
X156342800Y-78761600D01*
X156342800Y-78210400D01*
X156344127Y-78183386D01*
X156348096Y-78156633D01*
X156354667Y-78130398D01*
X156363779Y-78104932D01*
X156375342Y-78080483D01*
X156389247Y-78057285D01*
X156405358Y-78035561D01*
X156423521Y-78015521D01*
X156443561Y-77997358D01*
X156465285Y-77981247D01*
X156488483Y-77967342D01*
X156512932Y-77955779D01*
X156538398Y-77946667D01*
X156564633Y-77940096D01*
X156591386Y-77936127D01*
X156618400Y-77934800D01*
X157269600Y-77934800D01*
X157296614Y-77936127D01*
X157296614Y-77936127D01*
G37*
D12*
X156944000Y-78486000D03*
D11*
G36*
X155546614Y-77936127D02*
X155573367Y-77940096D01*
X155599602Y-77946667D01*
X155625068Y-77955779D01*
X155649517Y-77967342D01*
X155672715Y-77981247D01*
X155694439Y-77997358D01*
X155714479Y-78015521D01*
X155732642Y-78035561D01*
X155748753Y-78057285D01*
X155762658Y-78080483D01*
X155774221Y-78104932D01*
X155783333Y-78130398D01*
X155789904Y-78156633D01*
X155793873Y-78183386D01*
X155795200Y-78210400D01*
X155795200Y-78761600D01*
X155793873Y-78788614D01*
X155789904Y-78815367D01*
X155783333Y-78841602D01*
X155774221Y-78867068D01*
X155762658Y-78891517D01*
X155748753Y-78914715D01*
X155732642Y-78936439D01*
X155714479Y-78956479D01*
X155694439Y-78974642D01*
X155672715Y-78990753D01*
X155649517Y-79004658D01*
X155625068Y-79016221D01*
X155599602Y-79025333D01*
X155573367Y-79031904D01*
X155546614Y-79035873D01*
X155519600Y-79037200D01*
X154868400Y-79037200D01*
X154841386Y-79035873D01*
X154814633Y-79031904D01*
X154788398Y-79025333D01*
X154762932Y-79016221D01*
X154738483Y-79004658D01*
X154715285Y-78990753D01*
X154693561Y-78974642D01*
X154673521Y-78956479D01*
X154655358Y-78936439D01*
X154639247Y-78914715D01*
X154625342Y-78891517D01*
X154613779Y-78867068D01*
X154604667Y-78841602D01*
X154598096Y-78815367D01*
X154594127Y-78788614D01*
X154592800Y-78761600D01*
X154592800Y-78210400D01*
X154594127Y-78183386D01*
X154598096Y-78156633D01*
X154604667Y-78130398D01*
X154613779Y-78104932D01*
X154625342Y-78080483D01*
X154639247Y-78057285D01*
X154655358Y-78035561D01*
X154673521Y-78015521D01*
X154693561Y-77997358D01*
X154715285Y-77981247D01*
X154738483Y-77967342D01*
X154762932Y-77955779D01*
X154788398Y-77946667D01*
X154814633Y-77940096D01*
X154841386Y-77936127D01*
X154868400Y-77934800D01*
X155519600Y-77934800D01*
X155546614Y-77936127D01*
X155546614Y-77936127D01*
G37*
D12*
X155194000Y-78486000D03*
G04 #@! TD*
D11*
G04 #@! TO.C,R5*
G36*
X160372614Y-77936127D02*
X160399367Y-77940096D01*
X160425602Y-77946667D01*
X160451068Y-77955779D01*
X160475517Y-77967342D01*
X160498715Y-77981247D01*
X160520439Y-77997358D01*
X160540479Y-78015521D01*
X160558642Y-78035561D01*
X160574753Y-78057285D01*
X160588658Y-78080483D01*
X160600221Y-78104932D01*
X160609333Y-78130398D01*
X160615904Y-78156633D01*
X160619873Y-78183386D01*
X160621200Y-78210400D01*
X160621200Y-78761600D01*
X160619873Y-78788614D01*
X160615904Y-78815367D01*
X160609333Y-78841602D01*
X160600221Y-78867068D01*
X160588658Y-78891517D01*
X160574753Y-78914715D01*
X160558642Y-78936439D01*
X160540479Y-78956479D01*
X160520439Y-78974642D01*
X160498715Y-78990753D01*
X160475517Y-79004658D01*
X160451068Y-79016221D01*
X160425602Y-79025333D01*
X160399367Y-79031904D01*
X160372614Y-79035873D01*
X160345600Y-79037200D01*
X159694400Y-79037200D01*
X159667386Y-79035873D01*
X159640633Y-79031904D01*
X159614398Y-79025333D01*
X159588932Y-79016221D01*
X159564483Y-79004658D01*
X159541285Y-78990753D01*
X159519561Y-78974642D01*
X159499521Y-78956479D01*
X159481358Y-78936439D01*
X159465247Y-78914715D01*
X159451342Y-78891517D01*
X159439779Y-78867068D01*
X159430667Y-78841602D01*
X159424096Y-78815367D01*
X159420127Y-78788614D01*
X159418800Y-78761600D01*
X159418800Y-78210400D01*
X159420127Y-78183386D01*
X159424096Y-78156633D01*
X159430667Y-78130398D01*
X159439779Y-78104932D01*
X159451342Y-78080483D01*
X159465247Y-78057285D01*
X159481358Y-78035561D01*
X159499521Y-78015521D01*
X159519561Y-77997358D01*
X159541285Y-77981247D01*
X159564483Y-77967342D01*
X159588932Y-77955779D01*
X159614398Y-77946667D01*
X159640633Y-77940096D01*
X159667386Y-77936127D01*
X159694400Y-77934800D01*
X160345600Y-77934800D01*
X160372614Y-77936127D01*
X160372614Y-77936127D01*
G37*
D12*
X160020000Y-78486000D03*
D11*
G36*
X162122614Y-77936127D02*
X162149367Y-77940096D01*
X162175602Y-77946667D01*
X162201068Y-77955779D01*
X162225517Y-77967342D01*
X162248715Y-77981247D01*
X162270439Y-77997358D01*
X162290479Y-78015521D01*
X162308642Y-78035561D01*
X162324753Y-78057285D01*
X162338658Y-78080483D01*
X162350221Y-78104932D01*
X162359333Y-78130398D01*
X162365904Y-78156633D01*
X162369873Y-78183386D01*
X162371200Y-78210400D01*
X162371200Y-78761600D01*
X162369873Y-78788614D01*
X162365904Y-78815367D01*
X162359333Y-78841602D01*
X162350221Y-78867068D01*
X162338658Y-78891517D01*
X162324753Y-78914715D01*
X162308642Y-78936439D01*
X162290479Y-78956479D01*
X162270439Y-78974642D01*
X162248715Y-78990753D01*
X162225517Y-79004658D01*
X162201068Y-79016221D01*
X162175602Y-79025333D01*
X162149367Y-79031904D01*
X162122614Y-79035873D01*
X162095600Y-79037200D01*
X161444400Y-79037200D01*
X161417386Y-79035873D01*
X161390633Y-79031904D01*
X161364398Y-79025333D01*
X161338932Y-79016221D01*
X161314483Y-79004658D01*
X161291285Y-78990753D01*
X161269561Y-78974642D01*
X161249521Y-78956479D01*
X161231358Y-78936439D01*
X161215247Y-78914715D01*
X161201342Y-78891517D01*
X161189779Y-78867068D01*
X161180667Y-78841602D01*
X161174096Y-78815367D01*
X161170127Y-78788614D01*
X161168800Y-78761600D01*
X161168800Y-78210400D01*
X161170127Y-78183386D01*
X161174096Y-78156633D01*
X161180667Y-78130398D01*
X161189779Y-78104932D01*
X161201342Y-78080483D01*
X161215247Y-78057285D01*
X161231358Y-78035561D01*
X161249521Y-78015521D01*
X161269561Y-77997358D01*
X161291285Y-77981247D01*
X161314483Y-77967342D01*
X161338932Y-77955779D01*
X161364398Y-77946667D01*
X161390633Y-77940096D01*
X161417386Y-77936127D01*
X161444400Y-77934800D01*
X162095600Y-77934800D01*
X162122614Y-77936127D01*
X162122614Y-77936127D01*
G37*
D12*
X161770000Y-78486000D03*
G04 #@! TD*
D11*
G04 #@! TO.C,R12*
G36*
X110188405Y-70616164D02*
X110215158Y-70620133D01*
X110241393Y-70626704D01*
X110266859Y-70635816D01*
X110291308Y-70647379D01*
X110314506Y-70661284D01*
X110336230Y-70677395D01*
X110356270Y-70695558D01*
X110374433Y-70715598D01*
X110390544Y-70737322D01*
X110404449Y-70760520D01*
X110416012Y-70784969D01*
X110425124Y-70810435D01*
X110431695Y-70836670D01*
X110435664Y-70863423D01*
X110436991Y-70890437D01*
X110436991Y-71441637D01*
X110435664Y-71468651D01*
X110431695Y-71495404D01*
X110425124Y-71521639D01*
X110416012Y-71547105D01*
X110404449Y-71571554D01*
X110390544Y-71594752D01*
X110374433Y-71616476D01*
X110356270Y-71636516D01*
X110336230Y-71654679D01*
X110314506Y-71670790D01*
X110291308Y-71684695D01*
X110266859Y-71696258D01*
X110241393Y-71705370D01*
X110215158Y-71711941D01*
X110188405Y-71715910D01*
X110161391Y-71717237D01*
X109510191Y-71717237D01*
X109483177Y-71715910D01*
X109456424Y-71711941D01*
X109430189Y-71705370D01*
X109404723Y-71696258D01*
X109380274Y-71684695D01*
X109357076Y-71670790D01*
X109335352Y-71654679D01*
X109315312Y-71636516D01*
X109297149Y-71616476D01*
X109281038Y-71594752D01*
X109267133Y-71571554D01*
X109255570Y-71547105D01*
X109246458Y-71521639D01*
X109239887Y-71495404D01*
X109235918Y-71468651D01*
X109234591Y-71441637D01*
X109234591Y-70890437D01*
X109235918Y-70863423D01*
X109239887Y-70836670D01*
X109246458Y-70810435D01*
X109255570Y-70784969D01*
X109267133Y-70760520D01*
X109281038Y-70737322D01*
X109297149Y-70715598D01*
X109315312Y-70695558D01*
X109335352Y-70677395D01*
X109357076Y-70661284D01*
X109380274Y-70647379D01*
X109404723Y-70635816D01*
X109430189Y-70626704D01*
X109456424Y-70620133D01*
X109483177Y-70616164D01*
X109510191Y-70614837D01*
X110161391Y-70614837D01*
X110188405Y-70616164D01*
X110188405Y-70616164D01*
G37*
D12*
X109835791Y-71166037D03*
D11*
G36*
X108438405Y-70616164D02*
X108465158Y-70620133D01*
X108491393Y-70626704D01*
X108516859Y-70635816D01*
X108541308Y-70647379D01*
X108564506Y-70661284D01*
X108586230Y-70677395D01*
X108606270Y-70695558D01*
X108624433Y-70715598D01*
X108640544Y-70737322D01*
X108654449Y-70760520D01*
X108666012Y-70784969D01*
X108675124Y-70810435D01*
X108681695Y-70836670D01*
X108685664Y-70863423D01*
X108686991Y-70890437D01*
X108686991Y-71441637D01*
X108685664Y-71468651D01*
X108681695Y-71495404D01*
X108675124Y-71521639D01*
X108666012Y-71547105D01*
X108654449Y-71571554D01*
X108640544Y-71594752D01*
X108624433Y-71616476D01*
X108606270Y-71636516D01*
X108586230Y-71654679D01*
X108564506Y-71670790D01*
X108541308Y-71684695D01*
X108516859Y-71696258D01*
X108491393Y-71705370D01*
X108465158Y-71711941D01*
X108438405Y-71715910D01*
X108411391Y-71717237D01*
X107760191Y-71717237D01*
X107733177Y-71715910D01*
X107706424Y-71711941D01*
X107680189Y-71705370D01*
X107654723Y-71696258D01*
X107630274Y-71684695D01*
X107607076Y-71670790D01*
X107585352Y-71654679D01*
X107565312Y-71636516D01*
X107547149Y-71616476D01*
X107531038Y-71594752D01*
X107517133Y-71571554D01*
X107505570Y-71547105D01*
X107496458Y-71521639D01*
X107489887Y-71495404D01*
X107485918Y-71468651D01*
X107484591Y-71441637D01*
X107484591Y-70890437D01*
X107485918Y-70863423D01*
X107489887Y-70836670D01*
X107496458Y-70810435D01*
X107505570Y-70784969D01*
X107517133Y-70760520D01*
X107531038Y-70737322D01*
X107547149Y-70715598D01*
X107565312Y-70695558D01*
X107585352Y-70677395D01*
X107607076Y-70661284D01*
X107630274Y-70647379D01*
X107654723Y-70635816D01*
X107680189Y-70626704D01*
X107706424Y-70620133D01*
X107733177Y-70616164D01*
X107760191Y-70614837D01*
X108411391Y-70614837D01*
X108438405Y-70616164D01*
X108438405Y-70616164D01*
G37*
D12*
X108085791Y-71166037D03*
G04 #@! TD*
D11*
G04 #@! TO.C,R20*
G36*
X113128614Y-70609165D02*
X113155367Y-70613134D01*
X113181602Y-70619705D01*
X113207068Y-70628817D01*
X113231517Y-70640380D01*
X113254715Y-70654285D01*
X113276439Y-70670396D01*
X113296479Y-70688559D01*
X113314642Y-70708599D01*
X113330753Y-70730323D01*
X113344658Y-70753521D01*
X113356221Y-70777970D01*
X113365333Y-70803436D01*
X113371904Y-70829671D01*
X113375873Y-70856424D01*
X113377200Y-70883438D01*
X113377200Y-71434638D01*
X113375873Y-71461652D01*
X113371904Y-71488405D01*
X113365333Y-71514640D01*
X113356221Y-71540106D01*
X113344658Y-71564555D01*
X113330753Y-71587753D01*
X113314642Y-71609477D01*
X113296479Y-71629517D01*
X113276439Y-71647680D01*
X113254715Y-71663791D01*
X113231517Y-71677696D01*
X113207068Y-71689259D01*
X113181602Y-71698371D01*
X113155367Y-71704942D01*
X113128614Y-71708911D01*
X113101600Y-71710238D01*
X112450400Y-71710238D01*
X112423386Y-71708911D01*
X112396633Y-71704942D01*
X112370398Y-71698371D01*
X112344932Y-71689259D01*
X112320483Y-71677696D01*
X112297285Y-71663791D01*
X112275561Y-71647680D01*
X112255521Y-71629517D01*
X112237358Y-71609477D01*
X112221247Y-71587753D01*
X112207342Y-71564555D01*
X112195779Y-71540106D01*
X112186667Y-71514640D01*
X112180096Y-71488405D01*
X112176127Y-71461652D01*
X112174800Y-71434638D01*
X112174800Y-70883438D01*
X112176127Y-70856424D01*
X112180096Y-70829671D01*
X112186667Y-70803436D01*
X112195779Y-70777970D01*
X112207342Y-70753521D01*
X112221247Y-70730323D01*
X112237358Y-70708599D01*
X112255521Y-70688559D01*
X112275561Y-70670396D01*
X112297285Y-70654285D01*
X112320483Y-70640380D01*
X112344932Y-70628817D01*
X112370398Y-70619705D01*
X112396633Y-70613134D01*
X112423386Y-70609165D01*
X112450400Y-70607838D01*
X113101600Y-70607838D01*
X113128614Y-70609165D01*
X113128614Y-70609165D01*
G37*
D12*
X112776000Y-71159038D03*
D11*
G36*
X114878614Y-70609165D02*
X114905367Y-70613134D01*
X114931602Y-70619705D01*
X114957068Y-70628817D01*
X114981517Y-70640380D01*
X115004715Y-70654285D01*
X115026439Y-70670396D01*
X115046479Y-70688559D01*
X115064642Y-70708599D01*
X115080753Y-70730323D01*
X115094658Y-70753521D01*
X115106221Y-70777970D01*
X115115333Y-70803436D01*
X115121904Y-70829671D01*
X115125873Y-70856424D01*
X115127200Y-70883438D01*
X115127200Y-71434638D01*
X115125873Y-71461652D01*
X115121904Y-71488405D01*
X115115333Y-71514640D01*
X115106221Y-71540106D01*
X115094658Y-71564555D01*
X115080753Y-71587753D01*
X115064642Y-71609477D01*
X115046479Y-71629517D01*
X115026439Y-71647680D01*
X115004715Y-71663791D01*
X114981517Y-71677696D01*
X114957068Y-71689259D01*
X114931602Y-71698371D01*
X114905367Y-71704942D01*
X114878614Y-71708911D01*
X114851600Y-71710238D01*
X114200400Y-71710238D01*
X114173386Y-71708911D01*
X114146633Y-71704942D01*
X114120398Y-71698371D01*
X114094932Y-71689259D01*
X114070483Y-71677696D01*
X114047285Y-71663791D01*
X114025561Y-71647680D01*
X114005521Y-71629517D01*
X113987358Y-71609477D01*
X113971247Y-71587753D01*
X113957342Y-71564555D01*
X113945779Y-71540106D01*
X113936667Y-71514640D01*
X113930096Y-71488405D01*
X113926127Y-71461652D01*
X113924800Y-71434638D01*
X113924800Y-70883438D01*
X113926127Y-70856424D01*
X113930096Y-70829671D01*
X113936667Y-70803436D01*
X113945779Y-70777970D01*
X113957342Y-70753521D01*
X113971247Y-70730323D01*
X113987358Y-70708599D01*
X114005521Y-70688559D01*
X114025561Y-70670396D01*
X114047285Y-70654285D01*
X114070483Y-70640380D01*
X114094932Y-70628817D01*
X114120398Y-70619705D01*
X114146633Y-70613134D01*
X114173386Y-70609165D01*
X114200400Y-70607838D01*
X114851600Y-70607838D01*
X114878614Y-70609165D01*
X114878614Y-70609165D01*
G37*
D12*
X114526000Y-71159038D03*
G04 #@! TD*
M02*
