M48
;DRILL file {KiCad (5.0.0)} date 02/05/19 19:54:52
;FORMAT={-:-/ absolute / inch / decimal}
FMAT,2
INCH,TZ
T1C0.0157
T2C0.0300
T3C0.0315
T4C0.0362
T5C0.0394
T6C0.0551
T7C0.0917
T8C0.1181
T9C0.1260
T10C0.1181
%
G90
G05
M72
T1
X1.72Y-3.55
X1.72Y-3.67
X1.8991Y-3.6446
X1.8991Y-3.68
X1.8991Y-3.7346
X1.8991Y-3.77
X1.9346Y-3.6446
X1.9346Y-3.68
X1.9346Y-3.7346
X1.9346Y-3.77
X1.97Y-3.6446
X1.97Y-3.68
X1.97Y-3.7346
X1.97Y-3.77
X2.1491Y-3.6037
X2.1491Y-3.6391
X2.1491Y-3.6746
X2.1491Y-3.71
X2.1846Y-3.6037
X2.1846Y-3.6391
X2.1846Y-3.6746
X2.1846Y-3.71
X2.22Y-3.6037
X2.22Y-3.6391
X2.22Y-3.6746
X2.22Y-3.71
X2.98Y-3.49
X3.04Y-3.61
X3.11Y-5.44
X3.12Y-4.865
X3.12Y-5.24
X3.13Y-5.125
X3.1856Y-4.395
X3.1856Y-4.52
X3.1856Y-4.645
X3.19Y-5.99
X3.23Y-2.43
X3.29Y-5.75
X3.3Y-4.86
X3.32Y-5.01
X3.41Y-5.11
X3.42Y-5.19
X3.43Y-2.765
X3.44Y-4.39
X3.44Y-4.52
X3.45Y-4.65
X3.4604Y-5.0796
X3.48Y-5.04
X3.52Y-5.02
X3.53Y-5.2097
X3.5309Y-5.4209
X3.56Y-5.02
X3.56Y-5.17
X3.5746Y-5.411
X3.61Y-5.75
X3.625Y-3.14
X3.63Y-3.07
X3.63Y-3.29
X3.7Y-4.225
X3.71Y-5.98
X3.72Y-5.155
X3.72Y-5.225
X3.72Y-5.295
X3.72Y-5.365
X3.725Y-5.085
X3.7337Y-5.52
X3.79Y-5.085
X3.795Y-5.365
X3.8Y-5.25
X3.83Y-4.225
X3.87Y-5.25
X3.87Y-5.37
X3.9139Y-5.1661
X3.9179Y-5.2104
X3.93Y-5.38
X3.95Y-3.58
X3.9679Y-5.62
X3.9698Y-4.8998
X3.97Y-4.225
X3.995Y-5.09
X3.995Y-5.16
X4.01Y-5.62
X4.02Y-5.305
X4.02Y-5.375
X4.03Y-3.25
X4.0402Y-4.9102
X4.05Y-4.79
X4.06Y-4.33
X4.08Y-4.91
X4.09Y-3.71
X4.11Y-3.87
X4.1302Y-3.7098
X4.1385Y-3.83
X4.18Y-4.95
X4.19Y-5.34
X4.2098Y-5.0202
X4.21Y-5.07
X4.23Y-3.58
X4.24Y-4.815
X4.25Y-3.72
X4.325Y-5.045
X4.33Y-4.315
X4.36Y-4.38
X4.4585Y-4.9593
X4.46Y-4.92
X4.5038Y-2.8015
X4.505Y-4.1056
X4.505Y-4.19
X4.505Y-4.7056
X4.505Y-4.79
X4.515Y-3.875
X4.52Y-4.47
X4.56Y-4.915
X4.67Y-4.99
X4.74Y-4.99
X4.7866Y-4.0766
X4.79Y-4.15
X4.81Y-4.
X4.81Y-4.04
X4.81Y-4.11
X4.82Y-4.83
X4.82Y-4.9
X4.85Y-4.19
X6.11Y-3.09
X6.37Y-3.09
T2
X2.56Y-2.01
X3.06Y-2.01
X2.7909Y-3.0517
X2.7909Y-3.1517
X2.7909Y-3.2517
X2.7909Y-3.3517
X2.7909Y-3.4517
X2.7909Y-3.5517
X2.7909Y-3.6517
X2.7909Y-3.7517
X2.7909Y-3.8517
X2.7909Y-3.9517
X2.7909Y-4.0517
X2.7909Y-4.1517
X2.7909Y-4.2517
X2.7909Y-4.3517
X2.7909Y-4.4517
X2.7909Y-4.5517
X2.7909Y-4.6517
X2.7909Y-4.7517
X2.7909Y-4.8517
X2.7909Y-4.9517
X2.8909Y-3.0517
X2.8909Y-3.1517
X2.8909Y-3.2517
X2.8909Y-3.3517
X2.8909Y-3.4517
X2.8909Y-3.5517
X2.8909Y-3.6517
X2.8909Y-3.7517
X2.8909Y-3.8517
X2.8909Y-3.9517
X2.8909Y-4.0517
X2.8909Y-4.1517
X2.8909Y-4.2517
X2.8909Y-4.3517
X2.8909Y-4.4517
X2.8909Y-4.5517
X2.8909Y-4.6517
X2.8909Y-4.7517
X2.8909Y-4.8517
X2.8909Y-4.9517
T3
X6.1375Y-5.03
X6.2163Y-5.03
X6.295Y-5.03
X6.1375Y-4.21
X6.2163Y-4.21
X6.295Y-4.21
X6.1375Y-4.415
X6.2163Y-4.415
X6.295Y-4.415
X5.48Y-3.47
X5.48Y-3.5487
X5.48Y-3.6275
X5.48Y-3.7062
X5.48Y-3.785
X5.48Y-3.8637
X3.36Y-5.2379
X3.36Y-5.43
X6.1375Y-3.8
X6.2163Y-3.8
X6.295Y-3.8
X6.1375Y-4.62
X6.2163Y-4.62
X6.295Y-4.62
X6.1375Y-4.825
X6.2163Y-4.825
X6.295Y-4.825
X6.1375Y-4.005
X6.2163Y-4.005
X6.295Y-4.005
X4.735Y-3.6688
X4.735Y-3.7475
X4.735Y-3.8263
X4.735Y-3.905
X6.1375Y-3.595
X6.2163Y-3.595
X6.295Y-3.595
X4.735Y-4.3688
X4.735Y-4.4475
X4.735Y-4.5263
X4.735Y-4.605
T4
X2.0613Y-3.02
X2.0613Y-3.1184
X2.14Y-3.02
X2.14Y-3.1184
T5
X2.4Y-3.79
X2.5Y-3.79
X2.4Y-3.37
X2.5Y-3.37
X3.92Y-4.69
X3.92Y-4.79
X4.47Y-5.24
X4.47Y-5.34
X4.47Y-5.44
X4.47Y-5.54
X4.47Y-5.64
X4.47Y-5.74
T6
X4.11Y-2.0335
X4.11Y-2.25
X4.2754Y-2.0335
X4.2754Y-2.25
X4.4407Y-2.0335
X4.4407Y-2.25
X4.6061Y-2.0335
X4.6061Y-2.25
T7
X1.9546Y-2.8322
X1.9546Y-3.3062
T8
X2.8409Y-2.86
X2.8409Y-5.1435
X4.77Y-2.86
X4.77Y-5.1435
T9
X2.4Y-5.47
X5.65Y-5.47
X2.4Y-2.47
X5.65Y-2.47
T10
X3.925Y-2.2319
X4.7911Y-2.2319
T0
M30
