G04 #@! TF.GenerationSoftware,KiCad,Pcbnew,(5.0.0)*
G04 #@! TF.CreationDate,2019-02-04T22:48:53-05:00*
G04 #@! TF.ProjectId,control board,636F6E74726F6C20626F6172642E6B69,rev?*
G04 #@! TF.SameCoordinates,Original*
G04 #@! TF.FileFunction,Legend,Bot*
G04 #@! TF.FilePolarity,Positive*
%FSLAX46Y46*%
G04 Gerber Fmt 4.6, Leading zero omitted, Abs format (unit mm)*
G04 Created by KiCad (PCBNEW (5.0.0)) date 02/04/19 22:48:53*
%MOMM*%
%LPD*%
G01*
G04 APERTURE LIST*
%ADD10C,0.300000*%
%ADD11C,0.150000*%
%ADD12C,0.187500*%
%ADD13C,0.120000*%
G04 APERTURE END LIST*
D10*
X153733428Y-78593142D02*
X152590571Y-78593142D01*
D11*
X37128214Y-83567285D02*
X37878214Y-83567285D01*
X37878214Y-83388714D01*
X37842500Y-83281571D01*
X37771071Y-83210142D01*
X37699642Y-83174428D01*
X37556785Y-83138714D01*
X37449642Y-83138714D01*
X37306785Y-83174428D01*
X37235357Y-83210142D01*
X37163928Y-83281571D01*
X37128214Y-83388714D01*
X37128214Y-83567285D01*
X37128214Y-82817285D02*
X37628214Y-82817285D01*
X37878214Y-82817285D02*
X37842500Y-82853000D01*
X37806785Y-82817285D01*
X37842500Y-82781571D01*
X37878214Y-82817285D01*
X37806785Y-82817285D01*
X37128214Y-82138714D02*
X37878214Y-82138714D01*
X37163928Y-82138714D02*
X37128214Y-82210142D01*
X37128214Y-82353000D01*
X37163928Y-82424428D01*
X37199642Y-82460142D01*
X37271071Y-82495857D01*
X37485357Y-82495857D01*
X37556785Y-82460142D01*
X37592500Y-82424428D01*
X37628214Y-82353000D01*
X37628214Y-82210142D01*
X37592500Y-82138714D01*
X37628214Y-81281571D02*
X37128214Y-81103000D01*
X37628214Y-80924428D02*
X37128214Y-81103000D01*
X36949642Y-81174428D01*
X36913928Y-81210142D01*
X36878214Y-81281571D01*
X37128214Y-80531571D02*
X37163928Y-80603000D01*
X37199642Y-80638714D01*
X37271071Y-80674428D01*
X37485357Y-80674428D01*
X37556785Y-80638714D01*
X37592500Y-80603000D01*
X37628214Y-80531571D01*
X37628214Y-80424428D01*
X37592500Y-80353000D01*
X37556785Y-80317285D01*
X37485357Y-80281571D01*
X37271071Y-80281571D01*
X37199642Y-80317285D01*
X37163928Y-80353000D01*
X37128214Y-80424428D01*
X37128214Y-80531571D01*
X37628214Y-79638714D02*
X37128214Y-79638714D01*
X37628214Y-79960142D02*
X37235357Y-79960142D01*
X37163928Y-79924428D01*
X37128214Y-79853000D01*
X37128214Y-79745857D01*
X37163928Y-79674428D01*
X37199642Y-79638714D01*
X37628214Y-78388714D02*
X37128214Y-78388714D01*
X37628214Y-78710142D02*
X37235357Y-78710142D01*
X37163928Y-78674428D01*
X37128214Y-78603000D01*
X37128214Y-78495857D01*
X37163928Y-78424428D01*
X37199642Y-78388714D01*
X37628214Y-78031571D02*
X37128214Y-78031571D01*
X37556785Y-78031571D02*
X37592500Y-77995857D01*
X37628214Y-77924428D01*
X37628214Y-77817285D01*
X37592500Y-77745857D01*
X37521071Y-77710142D01*
X37128214Y-77710142D01*
X37628214Y-77353000D02*
X36878214Y-77353000D01*
X37592500Y-77353000D02*
X37628214Y-77281571D01*
X37628214Y-77138714D01*
X37592500Y-77067285D01*
X37556785Y-77031571D01*
X37485357Y-76995857D01*
X37271071Y-76995857D01*
X37199642Y-77031571D01*
X37163928Y-77067285D01*
X37128214Y-77138714D01*
X37128214Y-77281571D01*
X37163928Y-77353000D01*
X37128214Y-76567285D02*
X37163928Y-76638714D01*
X37235357Y-76674428D01*
X37878214Y-76674428D01*
X37628214Y-75960142D02*
X37128214Y-75960142D01*
X37628214Y-76281571D02*
X37235357Y-76281571D01*
X37163928Y-76245857D01*
X37128214Y-76174428D01*
X37128214Y-76067285D01*
X37163928Y-75995857D01*
X37199642Y-75960142D01*
X37628214Y-75281571D02*
X37021071Y-75281571D01*
X36949642Y-75317285D01*
X36913928Y-75353000D01*
X36878214Y-75424428D01*
X36878214Y-75531571D01*
X36913928Y-75603000D01*
X37163928Y-75281571D02*
X37128214Y-75353000D01*
X37128214Y-75495857D01*
X37163928Y-75567285D01*
X37199642Y-75603000D01*
X37271071Y-75638714D01*
X37485357Y-75638714D01*
X37556785Y-75603000D01*
X37592500Y-75567285D01*
X37628214Y-75495857D01*
X37628214Y-75353000D01*
X37592500Y-75281571D01*
X37628214Y-74460142D02*
X37628214Y-74174428D01*
X37878214Y-74353000D02*
X37235357Y-74353000D01*
X37163928Y-74317285D01*
X37128214Y-74245857D01*
X37128214Y-74174428D01*
X37128214Y-73924428D02*
X37878214Y-73924428D01*
X37128214Y-73603000D02*
X37521071Y-73603000D01*
X37592500Y-73638714D01*
X37628214Y-73710142D01*
X37628214Y-73817285D01*
X37592500Y-73888714D01*
X37556785Y-73924428D01*
X37163928Y-72960142D02*
X37128214Y-73031571D01*
X37128214Y-73174428D01*
X37163928Y-73245857D01*
X37235357Y-73281571D01*
X37521071Y-73281571D01*
X37592500Y-73245857D01*
X37628214Y-73174428D01*
X37628214Y-73031571D01*
X37592500Y-72960142D01*
X37521071Y-72924428D01*
X37449642Y-72924428D01*
X37378214Y-73281571D01*
X36353214Y-82799428D02*
X35603214Y-82799428D01*
X36317500Y-82799428D02*
X36353214Y-82728000D01*
X36353214Y-82585142D01*
X36317500Y-82513714D01*
X36281785Y-82478000D01*
X36210357Y-82442285D01*
X35996071Y-82442285D01*
X35924642Y-82478000D01*
X35888928Y-82513714D01*
X35853214Y-82585142D01*
X35853214Y-82728000D01*
X35888928Y-82799428D01*
X35853214Y-82013714D02*
X35888928Y-82085142D01*
X35924642Y-82120857D01*
X35996071Y-82156571D01*
X36210357Y-82156571D01*
X36281785Y-82120857D01*
X36317500Y-82085142D01*
X36353214Y-82013714D01*
X36353214Y-81906571D01*
X36317500Y-81835142D01*
X36281785Y-81799428D01*
X36210357Y-81763714D01*
X35996071Y-81763714D01*
X35924642Y-81799428D01*
X35888928Y-81835142D01*
X35853214Y-81906571D01*
X35853214Y-82013714D01*
X36353214Y-81513714D02*
X35853214Y-81370857D01*
X36210357Y-81228000D01*
X35853214Y-81085142D01*
X36353214Y-80942285D01*
X35888928Y-80370857D02*
X35853214Y-80442285D01*
X35853214Y-80585142D01*
X35888928Y-80656571D01*
X35960357Y-80692285D01*
X36246071Y-80692285D01*
X36317500Y-80656571D01*
X36353214Y-80585142D01*
X36353214Y-80442285D01*
X36317500Y-80370857D01*
X36246071Y-80335142D01*
X36174642Y-80335142D01*
X36103214Y-80692285D01*
X35853214Y-80013714D02*
X36353214Y-80013714D01*
X36210357Y-80013714D02*
X36281785Y-79978000D01*
X36317500Y-79942285D01*
X36353214Y-79870857D01*
X36353214Y-79799428D01*
X35888928Y-78656571D02*
X35853214Y-78728000D01*
X35853214Y-78870857D01*
X35888928Y-78942285D01*
X35924642Y-78978000D01*
X35996071Y-79013714D01*
X36210357Y-79013714D01*
X36281785Y-78978000D01*
X36317500Y-78942285D01*
X36353214Y-78870857D01*
X36353214Y-78728000D01*
X36317500Y-78656571D01*
X35853214Y-78228000D02*
X35888928Y-78299428D01*
X35924642Y-78335142D01*
X35996071Y-78370857D01*
X36210357Y-78370857D01*
X36281785Y-78335142D01*
X36317500Y-78299428D01*
X36353214Y-78228000D01*
X36353214Y-78120857D01*
X36317500Y-78049428D01*
X36281785Y-78013714D01*
X36210357Y-77978000D01*
X35996071Y-77978000D01*
X35924642Y-78013714D01*
X35888928Y-78049428D01*
X35853214Y-78120857D01*
X35853214Y-78228000D01*
X36353214Y-77656571D02*
X35853214Y-77656571D01*
X36281785Y-77656571D02*
X36317500Y-77620857D01*
X36353214Y-77549428D01*
X36353214Y-77442285D01*
X36317500Y-77370857D01*
X36246071Y-77335142D01*
X35853214Y-77335142D01*
X36353214Y-76978000D02*
X35853214Y-76978000D01*
X36281785Y-76978000D02*
X36317500Y-76942285D01*
X36353214Y-76870857D01*
X36353214Y-76763714D01*
X36317500Y-76692285D01*
X36246071Y-76656571D01*
X35853214Y-76656571D01*
X35888928Y-76013714D02*
X35853214Y-76085142D01*
X35853214Y-76228000D01*
X35888928Y-76299428D01*
X35960357Y-76335142D01*
X36246071Y-76335142D01*
X36317500Y-76299428D01*
X36353214Y-76228000D01*
X36353214Y-76085142D01*
X36317500Y-76013714D01*
X36246071Y-75978000D01*
X36174642Y-75978000D01*
X36103214Y-76335142D01*
X35888928Y-75335142D02*
X35853214Y-75406571D01*
X35853214Y-75549428D01*
X35888928Y-75620857D01*
X35924642Y-75656571D01*
X35996071Y-75692285D01*
X36210357Y-75692285D01*
X36281785Y-75656571D01*
X36317500Y-75620857D01*
X36353214Y-75549428D01*
X36353214Y-75406571D01*
X36317500Y-75335142D01*
X36353214Y-75120857D02*
X36353214Y-74835142D01*
X36603214Y-75013714D02*
X35960357Y-75013714D01*
X35888928Y-74978000D01*
X35853214Y-74906571D01*
X35853214Y-74835142D01*
X35853214Y-74478000D02*
X35888928Y-74549428D01*
X35924642Y-74585142D01*
X35996071Y-74620857D01*
X36210357Y-74620857D01*
X36281785Y-74585142D01*
X36317500Y-74549428D01*
X36353214Y-74478000D01*
X36353214Y-74370857D01*
X36317500Y-74299428D01*
X36281785Y-74263714D01*
X36210357Y-74228000D01*
X35996071Y-74228000D01*
X35924642Y-74263714D01*
X35888928Y-74299428D01*
X35853214Y-74370857D01*
X35853214Y-74478000D01*
X35853214Y-73906571D02*
X36353214Y-73906571D01*
X36210357Y-73906571D02*
X36281785Y-73870857D01*
X36317500Y-73835142D01*
X36353214Y-73763714D01*
X36353214Y-73692285D01*
X35924642Y-73335142D02*
X35888928Y-73299428D01*
X35853214Y-73335142D01*
X35888928Y-73370857D01*
X35924642Y-73335142D01*
X35853214Y-73335142D01*
X36567500Y-73478000D02*
X36603214Y-73406571D01*
X36603214Y-73228000D01*
X36567500Y-73156571D01*
X36496071Y-73120857D01*
X36424642Y-73120857D01*
X36353214Y-73156571D01*
X36317500Y-73192285D01*
X36281785Y-73263714D01*
X36246071Y-73299428D01*
X36174642Y-73335142D01*
X36138928Y-73335142D01*
X60158380Y-87582666D02*
X60967904Y-87582666D01*
X61063142Y-87630285D01*
X61110761Y-87677904D01*
X61158380Y-87773142D01*
X61158380Y-87963619D01*
X61110761Y-88058857D01*
X61063142Y-88106476D01*
X60967904Y-88154095D01*
X60158380Y-88154095D01*
X61110761Y-88582666D02*
X61158380Y-88725523D01*
X61158380Y-88963619D01*
X61110761Y-89058857D01*
X61063142Y-89106476D01*
X60967904Y-89154095D01*
X60872666Y-89154095D01*
X60777428Y-89106476D01*
X60729809Y-89058857D01*
X60682190Y-88963619D01*
X60634571Y-88773142D01*
X60586952Y-88677904D01*
X60539333Y-88630285D01*
X60444095Y-88582666D01*
X60348857Y-88582666D01*
X60253619Y-88630285D01*
X60206000Y-88677904D01*
X60158380Y-88773142D01*
X60158380Y-89011238D01*
X60206000Y-89154095D01*
X60634571Y-89916000D02*
X60682190Y-90058857D01*
X60729809Y-90106476D01*
X60825047Y-90154095D01*
X60967904Y-90154095D01*
X61063142Y-90106476D01*
X61110761Y-90058857D01*
X61158380Y-89963619D01*
X61158380Y-89582666D01*
X60158380Y-89582666D01*
X60158380Y-89916000D01*
X60206000Y-90011238D01*
X60253619Y-90058857D01*
X60348857Y-90106476D01*
X60444095Y-90106476D01*
X60539333Y-90058857D01*
X60586952Y-90011238D01*
X60634571Y-89916000D01*
X60634571Y-89582666D01*
X61158380Y-91344571D02*
X60158380Y-91344571D01*
X60491714Y-91820761D02*
X61158380Y-91820761D01*
X60586952Y-91820761D02*
X60539333Y-91868380D01*
X60491714Y-91963619D01*
X60491714Y-92106476D01*
X60539333Y-92201714D01*
X60634571Y-92249333D01*
X61158380Y-92249333D01*
X63825428Y-87360285D02*
X63825428Y-88122190D01*
X64206380Y-87741238D02*
X63444476Y-87741238D01*
X63206380Y-89074571D02*
X63206380Y-88598380D01*
X63682571Y-88550761D01*
X63634952Y-88598380D01*
X63587333Y-88693619D01*
X63587333Y-88931714D01*
X63634952Y-89026952D01*
X63682571Y-89074571D01*
X63777809Y-89122190D01*
X64015904Y-89122190D01*
X64111142Y-89074571D01*
X64158761Y-89026952D01*
X64206380Y-88931714D01*
X64206380Y-88693619D01*
X64158761Y-88598380D01*
X64111142Y-88550761D01*
X63206380Y-89407904D02*
X64206380Y-89741238D01*
X63206380Y-90074571D01*
X61745714Y-99258380D02*
X61745714Y-98258380D01*
X61174285Y-99258380D01*
X61174285Y-98258380D01*
X60126666Y-99163142D02*
X60174285Y-99210761D01*
X60317142Y-99258380D01*
X60412380Y-99258380D01*
X60555238Y-99210761D01*
X60650476Y-99115523D01*
X60698095Y-99020285D01*
X60745714Y-98829809D01*
X60745714Y-98686952D01*
X60698095Y-98496476D01*
X60650476Y-98401238D01*
X60555238Y-98306000D01*
X60412380Y-98258380D01*
X60317142Y-98258380D01*
X60174285Y-98306000D01*
X60126666Y-98353619D01*
X64285714Y-99258380D02*
X64285714Y-98258380D01*
X63714285Y-99258380D01*
X63714285Y-98258380D01*
X62666666Y-99163142D02*
X62714285Y-99210761D01*
X62857142Y-99258380D01*
X62952380Y-99258380D01*
X63095238Y-99210761D01*
X63190476Y-99115523D01*
X63238095Y-99020285D01*
X63285714Y-98829809D01*
X63285714Y-98686952D01*
X63238095Y-98496476D01*
X63190476Y-98401238D01*
X63095238Y-98306000D01*
X62952380Y-98258380D01*
X62857142Y-98258380D01*
X62714285Y-98306000D01*
X62666666Y-98353619D01*
D12*
X96837428Y-118751000D02*
X96908857Y-118715285D01*
X97016000Y-118715285D01*
X97123142Y-118751000D01*
X97194571Y-118822428D01*
X97230285Y-118893857D01*
X97266000Y-119036714D01*
X97266000Y-119143857D01*
X97230285Y-119286714D01*
X97194571Y-119358142D01*
X97123142Y-119429571D01*
X97016000Y-119465285D01*
X96944571Y-119465285D01*
X96837428Y-119429571D01*
X96801714Y-119393857D01*
X96801714Y-119143857D01*
X96944571Y-119143857D01*
X96480285Y-119465285D02*
X96480285Y-118715285D01*
X96051714Y-119465285D01*
X96051714Y-118715285D01*
X95694571Y-119465285D02*
X95694571Y-118715285D01*
X95516000Y-118715285D01*
X95408857Y-118751000D01*
X95337428Y-118822428D01*
X95301714Y-118893857D01*
X95266000Y-119036714D01*
X95266000Y-119143857D01*
X95301714Y-119286714D01*
X95337428Y-119358142D01*
X95408857Y-119429571D01*
X95516000Y-119465285D01*
X95694571Y-119465285D01*
X97154571Y-121791000D02*
X96797428Y-121791000D01*
X97226000Y-122005285D02*
X96976000Y-121255285D01*
X96726000Y-122005285D01*
X96476000Y-121505285D02*
X96476000Y-122005285D01*
X96476000Y-121576714D02*
X96440285Y-121541000D01*
X96368857Y-121505285D01*
X96261714Y-121505285D01*
X96190285Y-121541000D01*
X96154571Y-121612428D01*
X96154571Y-122005285D01*
X95476000Y-122005285D02*
X95476000Y-121612428D01*
X95511714Y-121541000D01*
X95583142Y-121505285D01*
X95726000Y-121505285D01*
X95797428Y-121541000D01*
X95476000Y-121969571D02*
X95547428Y-122005285D01*
X95726000Y-122005285D01*
X95797428Y-121969571D01*
X95833142Y-121898142D01*
X95833142Y-121826714D01*
X95797428Y-121755285D01*
X95726000Y-121719571D01*
X95547428Y-121719571D01*
X95476000Y-121683857D01*
X95011714Y-122005285D02*
X95083142Y-121969571D01*
X95118857Y-121898142D01*
X95118857Y-121255285D01*
X94618857Y-122005285D02*
X94690285Y-121969571D01*
X94726000Y-121933857D01*
X94761714Y-121862428D01*
X94761714Y-121648142D01*
X94726000Y-121576714D01*
X94690285Y-121541000D01*
X94618857Y-121505285D01*
X94511714Y-121505285D01*
X94440285Y-121541000D01*
X94404571Y-121576714D01*
X94368857Y-121648142D01*
X94368857Y-121862428D01*
X94404571Y-121933857D01*
X94440285Y-121969571D01*
X94511714Y-122005285D01*
X94618857Y-122005285D01*
X93726000Y-121505285D02*
X93726000Y-122112428D01*
X93761714Y-122183857D01*
X93797428Y-122219571D01*
X93868857Y-122255285D01*
X93976000Y-122255285D01*
X94047428Y-122219571D01*
X93726000Y-121969571D02*
X93797428Y-122005285D01*
X93940285Y-122005285D01*
X94011714Y-121969571D01*
X94047428Y-121933857D01*
X94083142Y-121862428D01*
X94083142Y-121648142D01*
X94047428Y-121576714D01*
X94011714Y-121541000D01*
X93940285Y-121505285D01*
X93797428Y-121505285D01*
X93726000Y-121541000D01*
X92797428Y-122005285D02*
X92797428Y-121255285D01*
X92440285Y-121505285D02*
X92440285Y-122005285D01*
X92440285Y-121576714D02*
X92404571Y-121541000D01*
X92333142Y-121505285D01*
X92226000Y-121505285D01*
X92154571Y-121541000D01*
X92118857Y-121612428D01*
X92118857Y-122005285D01*
X91761714Y-121505285D02*
X91761714Y-122255285D01*
X91761714Y-121541000D02*
X91690285Y-121505285D01*
X91547428Y-121505285D01*
X91476000Y-121541000D01*
X91440285Y-121576714D01*
X91404571Y-121648142D01*
X91404571Y-121862428D01*
X91440285Y-121933857D01*
X91476000Y-121969571D01*
X91547428Y-122005285D01*
X91690285Y-122005285D01*
X91761714Y-121969571D01*
X90761714Y-121505285D02*
X90761714Y-122005285D01*
X91083142Y-121505285D02*
X91083142Y-121898142D01*
X91047428Y-121969571D01*
X90976000Y-122005285D01*
X90868857Y-122005285D01*
X90797428Y-121969571D01*
X90761714Y-121933857D01*
X90511714Y-121505285D02*
X90226000Y-121505285D01*
X90404571Y-121255285D02*
X90404571Y-121898142D01*
X90368857Y-121969571D01*
X90297428Y-122005285D01*
X90226000Y-122005285D01*
D10*
X125067142Y-109684857D02*
X125138571Y-109899142D01*
X125138571Y-110256285D01*
X125067142Y-110399142D01*
X124995714Y-110470571D01*
X124852857Y-110542000D01*
X124710000Y-110542000D01*
X124567142Y-110470571D01*
X124495714Y-110399142D01*
X124424285Y-110256285D01*
X124352857Y-109970571D01*
X124281428Y-109827714D01*
X124210000Y-109756285D01*
X124067142Y-109684857D01*
X123924285Y-109684857D01*
X123781428Y-109756285D01*
X123710000Y-109827714D01*
X123638571Y-109970571D01*
X123638571Y-110327714D01*
X123710000Y-110542000D01*
X125067142Y-111756285D02*
X125138571Y-111613428D01*
X125138571Y-111327714D01*
X125067142Y-111184857D01*
X124924285Y-111113428D01*
X124352857Y-111113428D01*
X124210000Y-111184857D01*
X124138571Y-111327714D01*
X124138571Y-111613428D01*
X124210000Y-111756285D01*
X124352857Y-111827714D01*
X124495714Y-111827714D01*
X124638571Y-111113428D01*
X124138571Y-112470571D02*
X125138571Y-112470571D01*
X124281428Y-112470571D02*
X124210000Y-112542000D01*
X124138571Y-112684857D01*
X124138571Y-112899142D01*
X124210000Y-113042000D01*
X124352857Y-113113428D01*
X125138571Y-113113428D01*
X125067142Y-113756285D02*
X125138571Y-113899142D01*
X125138571Y-114184857D01*
X125067142Y-114327714D01*
X124924285Y-114399142D01*
X124852857Y-114399142D01*
X124710000Y-114327714D01*
X124638571Y-114184857D01*
X124638571Y-113970571D01*
X124567142Y-113827714D01*
X124424285Y-113756285D01*
X124352857Y-113756285D01*
X124210000Y-113827714D01*
X124138571Y-113970571D01*
X124138571Y-114184857D01*
X124210000Y-114327714D01*
X125138571Y-115256285D02*
X125067142Y-115113428D01*
X124995714Y-115042000D01*
X124852857Y-114970571D01*
X124424285Y-114970571D01*
X124281428Y-115042000D01*
X124210000Y-115113428D01*
X124138571Y-115256285D01*
X124138571Y-115470571D01*
X124210000Y-115613428D01*
X124281428Y-115684857D01*
X124424285Y-115756285D01*
X124852857Y-115756285D01*
X124995714Y-115684857D01*
X125067142Y-115613428D01*
X125138571Y-115470571D01*
X125138571Y-115256285D01*
X125138571Y-116399142D02*
X124138571Y-116399142D01*
X124424285Y-116399142D02*
X124281428Y-116470571D01*
X124210000Y-116542000D01*
X124138571Y-116684857D01*
X124138571Y-116827714D01*
X125067142Y-117256285D02*
X125138571Y-117399142D01*
X125138571Y-117684857D01*
X125067142Y-117827714D01*
X124924285Y-117899142D01*
X124852857Y-117899142D01*
X124710000Y-117827714D01*
X124638571Y-117684857D01*
X124638571Y-117470571D01*
X124567142Y-117327714D01*
X124424285Y-117256285D01*
X124352857Y-117256285D01*
X124210000Y-117327714D01*
X124138571Y-117470571D01*
X124138571Y-117684857D01*
X124210000Y-117827714D01*
X124884571Y-93547714D02*
X123384571Y-93547714D01*
X124456000Y-94047714D01*
X123384571Y-94547714D01*
X124884571Y-94547714D01*
X124884571Y-95262000D02*
X123884571Y-95262000D01*
X123384571Y-95262000D02*
X123456000Y-95190571D01*
X123527428Y-95262000D01*
X123456000Y-95333428D01*
X123384571Y-95262000D01*
X123527428Y-95262000D01*
X124813142Y-95904857D02*
X124884571Y-96047714D01*
X124884571Y-96333428D01*
X124813142Y-96476285D01*
X124670285Y-96547714D01*
X124598857Y-96547714D01*
X124456000Y-96476285D01*
X124384571Y-96333428D01*
X124384571Y-96119142D01*
X124313142Y-95976285D01*
X124170285Y-95904857D01*
X124098857Y-95904857D01*
X123956000Y-95976285D01*
X123884571Y-96119142D01*
X123884571Y-96333428D01*
X123956000Y-96476285D01*
X124813142Y-97833428D02*
X124884571Y-97690571D01*
X124884571Y-97404857D01*
X124813142Y-97262000D01*
X124741714Y-97190571D01*
X124598857Y-97119142D01*
X124170285Y-97119142D01*
X124027428Y-97190571D01*
X123956000Y-97262000D01*
X123884571Y-97404857D01*
X123884571Y-97690571D01*
X123956000Y-97833428D01*
X124741714Y-98476285D02*
X124813142Y-98547714D01*
X124884571Y-98476285D01*
X124813142Y-98404857D01*
X124741714Y-98476285D01*
X124884571Y-98476285D01*
X134893142Y-132274571D02*
X134036000Y-132274571D01*
X134464571Y-133774571D02*
X134464571Y-132274571D01*
X132678857Y-133774571D02*
X133178857Y-133060285D01*
X133536000Y-133774571D02*
X133536000Y-132274571D01*
X132964571Y-132274571D01*
X132821714Y-132346000D01*
X132750285Y-132417428D01*
X132678857Y-132560285D01*
X132678857Y-132774571D01*
X132750285Y-132917428D01*
X132821714Y-132988857D01*
X132964571Y-133060285D01*
X133536000Y-133060285D01*
X132107428Y-133346000D02*
X131393142Y-133346000D01*
X132250285Y-133774571D02*
X131750285Y-132274571D01*
X131250285Y-133774571D01*
X129893142Y-133631714D02*
X129964571Y-133703142D01*
X130178857Y-133774571D01*
X130321714Y-133774571D01*
X130536000Y-133703142D01*
X130678857Y-133560285D01*
X130750285Y-133417428D01*
X130821714Y-133131714D01*
X130821714Y-132917428D01*
X130750285Y-132631714D01*
X130678857Y-132488857D01*
X130536000Y-132346000D01*
X130321714Y-132274571D01*
X130178857Y-132274571D01*
X129964571Y-132346000D01*
X129893142Y-132417428D01*
X129250285Y-132988857D02*
X128750285Y-132988857D01*
X128536000Y-133774571D02*
X129250285Y-133774571D01*
X129250285Y-132274571D01*
X128536000Y-132274571D01*
X127964571Y-133703142D02*
X127750285Y-133774571D01*
X127393142Y-133774571D01*
X127250285Y-133703142D01*
X127178857Y-133631714D01*
X127107428Y-133488857D01*
X127107428Y-133346000D01*
X127178857Y-133203142D01*
X127250285Y-133131714D01*
X127393142Y-133060285D01*
X127678857Y-132988857D01*
X127821714Y-132917428D01*
X127893142Y-132846000D01*
X127964571Y-132703142D01*
X127964571Y-132560285D01*
X127893142Y-132417428D01*
X127821714Y-132346000D01*
X127678857Y-132274571D01*
X127321714Y-132274571D01*
X127107428Y-132346000D01*
X126607428Y-132274571D02*
X126250285Y-133774571D01*
X125964571Y-132703142D01*
X125678857Y-133774571D01*
X125321714Y-132274571D01*
X124464571Y-132274571D02*
X124178857Y-132274571D01*
X124036000Y-132346000D01*
X123893142Y-132488857D01*
X123821714Y-132774571D01*
X123821714Y-133274571D01*
X123893142Y-133560285D01*
X124036000Y-133703142D01*
X124178857Y-133774571D01*
X124464571Y-133774571D01*
X124607428Y-133703142D01*
X124750285Y-133560285D01*
X124821714Y-133274571D01*
X124821714Y-132774571D01*
X124750285Y-132488857D01*
X124607428Y-132346000D01*
X124464571Y-132274571D01*
X120828285Y-136314571D02*
X120828285Y-134814571D01*
X119971142Y-136314571D01*
X119971142Y-134814571D01*
X118399714Y-136314571D02*
X118899714Y-135600285D01*
X119256857Y-136314571D02*
X119256857Y-134814571D01*
X118685428Y-134814571D01*
X118542571Y-134886000D01*
X118471142Y-134957428D01*
X118399714Y-135100285D01*
X118399714Y-135314571D01*
X118471142Y-135457428D01*
X118542571Y-135528857D01*
X118685428Y-135600285D01*
X119256857Y-135600285D01*
X117828285Y-136243142D02*
X117614000Y-136314571D01*
X117256857Y-136314571D01*
X117114000Y-136243142D01*
X117042571Y-136171714D01*
X116971142Y-136028857D01*
X116971142Y-135886000D01*
X117042571Y-135743142D01*
X117114000Y-135671714D01*
X117256857Y-135600285D01*
X117542571Y-135528857D01*
X117685428Y-135457428D01*
X117756857Y-135386000D01*
X117828285Y-135243142D01*
X117828285Y-135100285D01*
X117756857Y-134957428D01*
X117685428Y-134886000D01*
X117542571Y-134814571D01*
X117185428Y-134814571D01*
X116971142Y-134886000D01*
X116542571Y-134814571D02*
X115685428Y-134814571D01*
X116114000Y-136314571D02*
X116114000Y-134814571D01*
X122304571Y-138783142D02*
X122090285Y-138854571D01*
X121733142Y-138854571D01*
X121590285Y-138783142D01*
X121518857Y-138711714D01*
X121447428Y-138568857D01*
X121447428Y-138426000D01*
X121518857Y-138283142D01*
X121590285Y-138211714D01*
X121733142Y-138140285D01*
X122018857Y-138068857D01*
X122161714Y-137997428D01*
X122233142Y-137926000D01*
X122304571Y-137783142D01*
X122304571Y-137640285D01*
X122233142Y-137497428D01*
X122161714Y-137426000D01*
X122018857Y-137354571D01*
X121661714Y-137354571D01*
X121447428Y-137426000D01*
X120947428Y-137354571D02*
X120590285Y-138854571D01*
X120304571Y-137783142D01*
X120018857Y-138854571D01*
X119661714Y-137354571D01*
X119090285Y-138854571D02*
X119090285Y-137354571D01*
X118733142Y-137354571D01*
X118518857Y-137426000D01*
X118376000Y-137568857D01*
X118304571Y-137711714D01*
X118233142Y-137997428D01*
X118233142Y-138211714D01*
X118304571Y-138497428D01*
X118376000Y-138640285D01*
X118518857Y-138783142D01*
X118733142Y-138854571D01*
X119090285Y-138854571D01*
X117590285Y-138854571D02*
X117590285Y-137354571D01*
X116590285Y-137354571D02*
X116304571Y-137354571D01*
X116161714Y-137426000D01*
X116018857Y-137568857D01*
X115947428Y-137854571D01*
X115947428Y-138354571D01*
X116018857Y-138640285D01*
X116161714Y-138783142D01*
X116304571Y-138854571D01*
X116590285Y-138854571D01*
X116733142Y-138783142D01*
X116876000Y-138640285D01*
X116947428Y-138354571D01*
X116947428Y-137854571D01*
X116876000Y-137568857D01*
X116733142Y-137426000D01*
X116590285Y-137354571D01*
X118998857Y-139966000D02*
X119141714Y-139894571D01*
X119356000Y-139894571D01*
X119570285Y-139966000D01*
X119713142Y-140108857D01*
X119784571Y-140251714D01*
X119856000Y-140537428D01*
X119856000Y-140751714D01*
X119784571Y-141037428D01*
X119713142Y-141180285D01*
X119570285Y-141323142D01*
X119356000Y-141394571D01*
X119213142Y-141394571D01*
X118998857Y-141323142D01*
X118927428Y-141251714D01*
X118927428Y-140751714D01*
X119213142Y-140751714D01*
X118284571Y-141394571D02*
X118284571Y-139894571D01*
X117427428Y-141394571D01*
X117427428Y-139894571D01*
X116713142Y-141394571D02*
X116713142Y-139894571D01*
X116356000Y-139894571D01*
X116141714Y-139966000D01*
X115998857Y-140108857D01*
X115927428Y-140251714D01*
X115856000Y-140537428D01*
X115856000Y-140751714D01*
X115927428Y-141037428D01*
X115998857Y-141180285D01*
X116141714Y-141323142D01*
X116356000Y-141394571D01*
X116713142Y-141394571D01*
X122772857Y-143863142D02*
X122558571Y-143934571D01*
X122201428Y-143934571D01*
X122058571Y-143863142D01*
X121987142Y-143791714D01*
X121915714Y-143648857D01*
X121915714Y-143506000D01*
X121987142Y-143363142D01*
X122058571Y-143291714D01*
X122201428Y-143220285D01*
X122487142Y-143148857D01*
X122630000Y-143077428D01*
X122701428Y-143006000D01*
X122772857Y-142863142D01*
X122772857Y-142720285D01*
X122701428Y-142577428D01*
X122630000Y-142506000D01*
X122487142Y-142434571D01*
X122130000Y-142434571D01*
X121915714Y-142506000D01*
X121415714Y-142434571D02*
X121058571Y-143934571D01*
X120772857Y-142863142D01*
X120487142Y-143934571D01*
X120130000Y-142434571D01*
X118701428Y-143791714D02*
X118772857Y-143863142D01*
X118987142Y-143934571D01*
X119130000Y-143934571D01*
X119344285Y-143863142D01*
X119487142Y-143720285D01*
X119558571Y-143577428D01*
X119630000Y-143291714D01*
X119630000Y-143077428D01*
X119558571Y-142791714D01*
X119487142Y-142648857D01*
X119344285Y-142506000D01*
X119130000Y-142434571D01*
X118987142Y-142434571D01*
X118772857Y-142506000D01*
X118701428Y-142577428D01*
X117344285Y-143934571D02*
X118058571Y-143934571D01*
X118058571Y-142434571D01*
X116844285Y-143934571D02*
X116844285Y-142434571D01*
X115987142Y-143934571D02*
X116630000Y-143077428D01*
X115987142Y-142434571D02*
X116844285Y-143291714D01*
X122126000Y-145903142D02*
X120983142Y-145903142D01*
X121554571Y-146474571D02*
X121554571Y-145331714D01*
X120411714Y-144974571D02*
X119483142Y-144974571D01*
X119983142Y-145546000D01*
X119768857Y-145546000D01*
X119626000Y-145617428D01*
X119554571Y-145688857D01*
X119483142Y-145831714D01*
X119483142Y-146188857D01*
X119554571Y-146331714D01*
X119626000Y-146403142D01*
X119768857Y-146474571D01*
X120197428Y-146474571D01*
X120340285Y-146403142D01*
X120411714Y-146331714D01*
X118840285Y-146331714D02*
X118768857Y-146403142D01*
X118840285Y-146474571D01*
X118911714Y-146403142D01*
X118840285Y-146331714D01*
X118840285Y-146474571D01*
X118268857Y-144974571D02*
X117340285Y-144974571D01*
X117840285Y-145546000D01*
X117626000Y-145546000D01*
X117483142Y-145617428D01*
X117411714Y-145688857D01*
X117340285Y-145831714D01*
X117340285Y-146188857D01*
X117411714Y-146331714D01*
X117483142Y-146403142D01*
X117626000Y-146474571D01*
X118054571Y-146474571D01*
X118197428Y-146403142D01*
X118268857Y-146331714D01*
X116911714Y-144974571D02*
X116411714Y-146474571D01*
X115911714Y-144974571D01*
X166258857Y-91007428D02*
X166401714Y-90936000D01*
X166473142Y-90864571D01*
X166544571Y-90721714D01*
X166544571Y-90650285D01*
X166473142Y-90507428D01*
X166401714Y-90436000D01*
X166258857Y-90364571D01*
X165973142Y-90364571D01*
X165830285Y-90436000D01*
X165758857Y-90507428D01*
X165687428Y-90650285D01*
X165687428Y-90721714D01*
X165758857Y-90864571D01*
X165830285Y-90936000D01*
X165973142Y-91007428D01*
X166258857Y-91007428D01*
X166401714Y-91078857D01*
X166473142Y-91150285D01*
X166544571Y-91293142D01*
X166544571Y-91578857D01*
X166473142Y-91721714D01*
X166401714Y-91793142D01*
X166258857Y-91864571D01*
X165973142Y-91864571D01*
X165830285Y-91793142D01*
X165758857Y-91721714D01*
X165687428Y-91578857D01*
X165687428Y-91293142D01*
X165758857Y-91150285D01*
X165830285Y-91078857D01*
X165973142Y-91007428D01*
X166616000Y-95698571D02*
X165616000Y-95698571D01*
X166258857Y-97198571D01*
X165830285Y-100778571D02*
X166116000Y-100778571D01*
X166258857Y-100850000D01*
X166330285Y-100921428D01*
X166473142Y-101135714D01*
X166544571Y-101421428D01*
X166544571Y-101992857D01*
X166473142Y-102135714D01*
X166401714Y-102207142D01*
X166258857Y-102278571D01*
X165973142Y-102278571D01*
X165830285Y-102207142D01*
X165758857Y-102135714D01*
X165687428Y-101992857D01*
X165687428Y-101635714D01*
X165758857Y-101492857D01*
X165830285Y-101421428D01*
X165973142Y-101350000D01*
X166258857Y-101350000D01*
X166401714Y-101421428D01*
X166473142Y-101492857D01*
X166544571Y-101635714D01*
X165758857Y-105858571D02*
X166473142Y-105858571D01*
X166544571Y-106572857D01*
X166473142Y-106501428D01*
X166330285Y-106430000D01*
X165973142Y-106430000D01*
X165830285Y-106501428D01*
X165758857Y-106572857D01*
X165687428Y-106715714D01*
X165687428Y-107072857D01*
X165758857Y-107215714D01*
X165830285Y-107287142D01*
X165973142Y-107358571D01*
X166330285Y-107358571D01*
X166473142Y-107287142D01*
X166544571Y-107215714D01*
X166084285Y-111692571D02*
X166084285Y-112692571D01*
X166441428Y-111121142D02*
X166798571Y-112192571D01*
X165870000Y-112192571D01*
X166870000Y-116653571D02*
X165941428Y-116653571D01*
X166441428Y-117225000D01*
X166227142Y-117225000D01*
X166084285Y-117296428D01*
X166012857Y-117367857D01*
X165941428Y-117510714D01*
X165941428Y-117867857D01*
X166012857Y-118010714D01*
X166084285Y-118082142D01*
X166227142Y-118153571D01*
X166655714Y-118153571D01*
X166798571Y-118082142D01*
X166870000Y-118010714D01*
X166798571Y-121876428D02*
X166727142Y-121805000D01*
X166584285Y-121733571D01*
X166227142Y-121733571D01*
X166084285Y-121805000D01*
X166012857Y-121876428D01*
X165941428Y-122019285D01*
X165941428Y-122162142D01*
X166012857Y-122376428D01*
X166870000Y-123233571D01*
X165941428Y-123233571D01*
X165941428Y-128313571D02*
X166798571Y-128313571D01*
X166370000Y-128313571D02*
X166370000Y-126813571D01*
X166512857Y-127027857D01*
X166655714Y-127170714D01*
X166798571Y-127242142D01*
X101409428Y-105771142D02*
X100266571Y-105771142D01*
X97853428Y-105771142D02*
X96710571Y-105771142D01*
X94551428Y-105771142D02*
X93408571Y-105771142D01*
X89725428Y-111613142D02*
X88582571Y-111613142D01*
X89725428Y-114661142D02*
X88582571Y-114661142D01*
X89725428Y-117963142D02*
X88582571Y-117963142D01*
X80724000Y-48621142D02*
X79581142Y-48621142D01*
X80152571Y-49192571D02*
X80152571Y-48049714D01*
X79009714Y-47692571D02*
X78081142Y-47692571D01*
X78581142Y-48264000D01*
X78366857Y-48264000D01*
X78224000Y-48335428D01*
X78152571Y-48406857D01*
X78081142Y-48549714D01*
X78081142Y-48906857D01*
X78152571Y-49049714D01*
X78224000Y-49121142D01*
X78366857Y-49192571D01*
X78795428Y-49192571D01*
X78938285Y-49121142D01*
X79009714Y-49049714D01*
X77438285Y-49049714D02*
X77366857Y-49121142D01*
X77438285Y-49192571D01*
X77509714Y-49121142D01*
X77438285Y-49049714D01*
X77438285Y-49192571D01*
X76866857Y-47692571D02*
X75938285Y-47692571D01*
X76438285Y-48264000D01*
X76224000Y-48264000D01*
X76081142Y-48335428D01*
X76009714Y-48406857D01*
X75938285Y-48549714D01*
X75938285Y-48906857D01*
X76009714Y-49049714D01*
X76081142Y-49121142D01*
X76224000Y-49192571D01*
X76652571Y-49192571D01*
X76795428Y-49121142D01*
X76866857Y-49049714D01*
X75509714Y-47692571D02*
X75009714Y-49192571D01*
X74509714Y-47692571D01*
X65912857Y-47764000D02*
X66055714Y-47692571D01*
X66270000Y-47692571D01*
X66484285Y-47764000D01*
X66627142Y-47906857D01*
X66698571Y-48049714D01*
X66770000Y-48335428D01*
X66770000Y-48549714D01*
X66698571Y-48835428D01*
X66627142Y-48978285D01*
X66484285Y-49121142D01*
X66270000Y-49192571D01*
X66127142Y-49192571D01*
X65912857Y-49121142D01*
X65841428Y-49049714D01*
X65841428Y-48549714D01*
X66127142Y-48549714D01*
X65198571Y-49192571D02*
X65198571Y-47692571D01*
X64341428Y-49192571D01*
X64341428Y-47692571D01*
X63627142Y-49192571D02*
X63627142Y-47692571D01*
X63270000Y-47692571D01*
X63055714Y-47764000D01*
X62912857Y-47906857D01*
X62841428Y-48049714D01*
X62770000Y-48335428D01*
X62770000Y-48549714D01*
X62841428Y-48835428D01*
X62912857Y-48978285D01*
X63055714Y-49121142D01*
X63270000Y-49192571D01*
X63627142Y-49192571D01*
D11*
G04 #@! TO.C,U6*
X110897000Y-102211000D02*
X109822000Y-102211000D01*
X110897000Y-99086000D02*
X114147000Y-99086000D01*
X110897000Y-102336000D02*
X114147000Y-102336000D01*
X110897000Y-99086000D02*
X110897000Y-99311000D01*
X114147000Y-99086000D02*
X114147000Y-99311000D01*
X114147000Y-102336000D02*
X114147000Y-102111000D01*
X110897000Y-102336000D02*
X110897000Y-102211000D01*
D13*
G04 #@! TO.C,C13*
X113917000Y-120224733D02*
X113917000Y-120567267D01*
X114937000Y-120224733D02*
X114937000Y-120567267D01*
G04 #@! TO.C,C14*
X114937000Y-104984733D02*
X114937000Y-105327267D01*
X113917000Y-104984733D02*
X113917000Y-105327267D01*
G04 #@! TO.C,J1*
X100898000Y-122996000D02*
X98238000Y-122996000D01*
X100898000Y-120396000D02*
X100898000Y-122996000D01*
X98238000Y-120396000D02*
X98238000Y-122996000D01*
X100898000Y-120396000D02*
X98238000Y-120396000D01*
X100898000Y-119126000D02*
X100898000Y-117796000D01*
X100898000Y-117796000D02*
X99568000Y-117796000D01*
G04 #@! TO.C,J2*
X112208000Y-131766000D02*
X114868000Y-131766000D01*
X112208000Y-144526000D02*
X112208000Y-131766000D01*
X114868000Y-144526000D02*
X114868000Y-131766000D01*
X112208000Y-144526000D02*
X114868000Y-144526000D01*
X112208000Y-145796000D02*
X112208000Y-147126000D01*
X112208000Y-147126000D02*
X113538000Y-147126000D01*
G04 #@! TO.C,Q2*
X85596000Y-122880000D02*
X85596000Y-123810000D01*
X85596000Y-126040000D02*
X85596000Y-125110000D01*
X85596000Y-126040000D02*
X83436000Y-126040000D01*
X85596000Y-122880000D02*
X84136000Y-122880000D01*
D11*
G04 #@! TO.C,U4*
X110897000Y-117576000D02*
X110897000Y-117451000D01*
X114147000Y-117576000D02*
X114147000Y-117351000D01*
X114147000Y-114326000D02*
X114147000Y-114551000D01*
X110897000Y-114326000D02*
X110897000Y-114551000D01*
X110897000Y-117576000D02*
X114147000Y-117576000D01*
X110897000Y-114326000D02*
X114147000Y-114326000D01*
X110897000Y-117451000D02*
X109822000Y-117451000D01*
D13*
G04 #@! TO.C,C2*
X80068267Y-137666000D02*
X79725733Y-137666000D01*
X80068267Y-138686000D02*
X79725733Y-138686000D01*
G04 #@! TO.C,C3*
X80294267Y-133606000D02*
X79951733Y-133606000D01*
X80294267Y-132586000D02*
X79951733Y-132586000D01*
G04 #@! TO.C,R7*
X79991329Y-129537309D02*
X79991329Y-129194775D01*
X78971329Y-129537309D02*
X78971329Y-129194775D01*
G04 #@! TO.C,R8*
X78971329Y-125092309D02*
X78971329Y-124749775D01*
X79991329Y-125092309D02*
X79991329Y-124749775D01*
G04 #@! TO.C,R9*
X93470000Y-112806267D02*
X93470000Y-112463733D01*
X94490000Y-112806267D02*
X94490000Y-112463733D01*
G04 #@! TO.C,R10*
X96772000Y-112463733D02*
X96772000Y-112806267D01*
X97792000Y-112463733D02*
X97792000Y-112806267D01*
G04 #@! TO.C,R11*
X101348000Y-112463733D02*
X101348000Y-112806267D01*
X100328000Y-112463733D02*
X100328000Y-112806267D01*
G04 #@! TO.C,R15*
X114679000Y-110802267D02*
X114679000Y-110459733D01*
X115699000Y-110802267D02*
X115699000Y-110459733D01*
G04 #@! TO.C,R16*
X111423267Y-109091000D02*
X111080733Y-109091000D01*
X111423267Y-110111000D02*
X111080733Y-110111000D01*
G04 #@! TO.C,R17*
X81959267Y-112143000D02*
X81616733Y-112143000D01*
X81959267Y-111123000D02*
X81616733Y-111123000D01*
G04 #@! TO.C,R18*
X81959267Y-114298000D02*
X81616733Y-114298000D01*
X81959267Y-115318000D02*
X81616733Y-115318000D01*
G04 #@! TO.C,R19*
X81959267Y-117473000D02*
X81616733Y-117473000D01*
X81959267Y-118493000D02*
X81616733Y-118493000D01*
G04 #@! TO.C,Y1*
X87869000Y-138607000D02*
X87869000Y-132357000D01*
X82819000Y-138607000D02*
X82819000Y-132357000D01*
X82819000Y-138607000D02*
G75*
G03X87869000Y-138607000I2525000J0D01*
G01*
X82819000Y-132357000D02*
G75*
G02X87869000Y-132357000I2525000J0D01*
G01*
G04 #@! TO.C,D1*
X94715000Y-106685000D02*
X94715000Y-109145000D01*
X93245000Y-106685000D02*
X94715000Y-106685000D01*
X93245000Y-109145000D02*
X93245000Y-106685000D01*
G04 #@! TO.C,D2*
X98017000Y-106685000D02*
X98017000Y-109145000D01*
X96547000Y-106685000D02*
X98017000Y-106685000D01*
X96547000Y-109145000D02*
X96547000Y-106685000D01*
G04 #@! TO.C,D3*
X100103000Y-109145000D02*
X100103000Y-106685000D01*
X100103000Y-106685000D02*
X101573000Y-106685000D01*
X101573000Y-106685000D02*
X101573000Y-109145000D01*
G04 #@! TO.C,D4*
X85673000Y-110898000D02*
X88133000Y-110898000D01*
X88133000Y-110898000D02*
X88133000Y-112368000D01*
X88133000Y-112368000D02*
X85673000Y-112368000D01*
G04 #@! TO.C,D5*
X85673000Y-114073000D02*
X88133000Y-114073000D01*
X88133000Y-114073000D02*
X88133000Y-115543000D01*
X88133000Y-115543000D02*
X85673000Y-115543000D01*
G04 #@! TO.C,D6*
X88288000Y-118718000D02*
X85828000Y-118718000D01*
X88288000Y-117248000D02*
X88288000Y-118718000D01*
X85828000Y-117248000D02*
X88288000Y-117248000D01*
D11*
G04 #@! TO.C,U1*
X93135109Y-137976942D02*
X93135109Y-136976942D01*
X103485109Y-137976942D02*
X103485109Y-136901942D01*
X103485109Y-127626942D02*
X103485109Y-128701942D01*
X93135109Y-127626942D02*
X93135109Y-128701942D01*
X93135109Y-137976942D02*
X94210109Y-137976942D01*
X93135109Y-127626942D02*
X94210109Y-127626942D01*
X103485109Y-127626942D02*
X102410109Y-127626942D01*
X103485109Y-137976942D02*
X102410109Y-137976942D01*
X93135109Y-136976942D02*
X92110109Y-136976942D01*
D13*
G04 #@! TO.C,J4*
X117769000Y-120467000D02*
X117769000Y-119467000D01*
X118769000Y-120467000D02*
X117769000Y-120467000D01*
X121619000Y-109967000D02*
X121619000Y-113967000D01*
X121019000Y-109367000D02*
X121619000Y-109967000D01*
X120269000Y-109367000D02*
X121019000Y-109367000D01*
X121619000Y-117967000D02*
X121619000Y-113967000D01*
X121019000Y-118567000D02*
X121619000Y-117967000D01*
X120269000Y-118567000D02*
X121019000Y-118567000D01*
X122369000Y-107817000D02*
X122369000Y-120117000D01*
X118169000Y-107817000D02*
X122369000Y-107817000D01*
X118169000Y-120117000D02*
X118169000Y-107817000D01*
X122369000Y-120117000D02*
X118169000Y-120117000D01*
G04 #@! TO.C,J6*
X122369000Y-102337000D02*
X118169000Y-102337000D01*
X118169000Y-102337000D02*
X118169000Y-90037000D01*
X118169000Y-90037000D02*
X122369000Y-90037000D01*
X122369000Y-90037000D02*
X122369000Y-102337000D01*
X120269000Y-100787000D02*
X121019000Y-100787000D01*
X121019000Y-100787000D02*
X121619000Y-100187000D01*
X121619000Y-100187000D02*
X121619000Y-96187000D01*
X120269000Y-91587000D02*
X121019000Y-91587000D01*
X121019000Y-91587000D02*
X121619000Y-92187000D01*
X121619000Y-92187000D02*
X121619000Y-96187000D01*
X118769000Y-102687000D02*
X117769000Y-102687000D01*
X117769000Y-102687000D02*
X117769000Y-101687000D01*
G04 #@! TO.C,J5*
X163393000Y-130262000D02*
X162393000Y-130262000D01*
X163393000Y-129262000D02*
X163393000Y-130262000D01*
X154893000Y-126412000D02*
X157893000Y-126412000D01*
X154293000Y-127012000D02*
X154893000Y-126412000D01*
X154293000Y-127762000D02*
X154293000Y-127012000D01*
X160893000Y-126412000D02*
X157893000Y-126412000D01*
X161493000Y-127012000D02*
X160893000Y-126412000D01*
X161493000Y-127762000D02*
X161493000Y-127012000D01*
X152743000Y-125662000D02*
X163043000Y-125662000D01*
X152743000Y-129862000D02*
X152743000Y-125662000D01*
X163043000Y-129862000D02*
X152743000Y-129862000D01*
X163043000Y-125662000D02*
X163043000Y-129862000D01*
G04 #@! TO.C,J10*
X163043000Y-120455000D02*
X163043000Y-124655000D01*
X163043000Y-124655000D02*
X152743000Y-124655000D01*
X152743000Y-124655000D02*
X152743000Y-120455000D01*
X152743000Y-120455000D02*
X163043000Y-120455000D01*
X161493000Y-122555000D02*
X161493000Y-121805000D01*
X161493000Y-121805000D02*
X160893000Y-121205000D01*
X160893000Y-121205000D02*
X157893000Y-121205000D01*
X154293000Y-122555000D02*
X154293000Y-121805000D01*
X154293000Y-121805000D02*
X154893000Y-121205000D01*
X154893000Y-121205000D02*
X157893000Y-121205000D01*
X163393000Y-124055000D02*
X163393000Y-125055000D01*
X163393000Y-125055000D02*
X162393000Y-125055000D01*
G04 #@! TO.C,J11*
X163393000Y-119848000D02*
X162393000Y-119848000D01*
X163393000Y-118848000D02*
X163393000Y-119848000D01*
X154893000Y-115998000D02*
X157893000Y-115998000D01*
X154293000Y-116598000D02*
X154893000Y-115998000D01*
X154293000Y-117348000D02*
X154293000Y-116598000D01*
X160893000Y-115998000D02*
X157893000Y-115998000D01*
X161493000Y-116598000D02*
X160893000Y-115998000D01*
X161493000Y-117348000D02*
X161493000Y-116598000D01*
X152743000Y-115248000D02*
X163043000Y-115248000D01*
X152743000Y-119448000D02*
X152743000Y-115248000D01*
X163043000Y-119448000D02*
X152743000Y-119448000D01*
X163043000Y-115248000D02*
X163043000Y-119448000D01*
G04 #@! TO.C,J12*
X163043000Y-110041000D02*
X163043000Y-114241000D01*
X163043000Y-114241000D02*
X152743000Y-114241000D01*
X152743000Y-114241000D02*
X152743000Y-110041000D01*
X152743000Y-110041000D02*
X163043000Y-110041000D01*
X161493000Y-112141000D02*
X161493000Y-111391000D01*
X161493000Y-111391000D02*
X160893000Y-110791000D01*
X160893000Y-110791000D02*
X157893000Y-110791000D01*
X154293000Y-112141000D02*
X154293000Y-111391000D01*
X154293000Y-111391000D02*
X154893000Y-110791000D01*
X154893000Y-110791000D02*
X157893000Y-110791000D01*
X163393000Y-113641000D02*
X163393000Y-114641000D01*
X163393000Y-114641000D02*
X162393000Y-114641000D01*
G04 #@! TO.C,J13*
X163393000Y-109434000D02*
X162393000Y-109434000D01*
X163393000Y-108434000D02*
X163393000Y-109434000D01*
X154893000Y-105584000D02*
X157893000Y-105584000D01*
X154293000Y-106184000D02*
X154893000Y-105584000D01*
X154293000Y-106934000D02*
X154293000Y-106184000D01*
X160893000Y-105584000D02*
X157893000Y-105584000D01*
X161493000Y-106184000D02*
X160893000Y-105584000D01*
X161493000Y-106934000D02*
X161493000Y-106184000D01*
X152743000Y-104834000D02*
X163043000Y-104834000D01*
X152743000Y-109034000D02*
X152743000Y-104834000D01*
X163043000Y-109034000D02*
X152743000Y-109034000D01*
X163043000Y-104834000D02*
X163043000Y-109034000D01*
G04 #@! TO.C,J14*
X163043000Y-99627000D02*
X163043000Y-103827000D01*
X163043000Y-103827000D02*
X152743000Y-103827000D01*
X152743000Y-103827000D02*
X152743000Y-99627000D01*
X152743000Y-99627000D02*
X163043000Y-99627000D01*
X161493000Y-101727000D02*
X161493000Y-100977000D01*
X161493000Y-100977000D02*
X160893000Y-100377000D01*
X160893000Y-100377000D02*
X157893000Y-100377000D01*
X154293000Y-101727000D02*
X154293000Y-100977000D01*
X154293000Y-100977000D02*
X154893000Y-100377000D01*
X154893000Y-100377000D02*
X157893000Y-100377000D01*
X163393000Y-103227000D02*
X163393000Y-104227000D01*
X163393000Y-104227000D02*
X162393000Y-104227000D01*
G04 #@! TO.C,J15*
X163393000Y-99020000D02*
X162393000Y-99020000D01*
X163393000Y-98020000D02*
X163393000Y-99020000D01*
X154893000Y-95170000D02*
X157893000Y-95170000D01*
X154293000Y-95770000D02*
X154893000Y-95170000D01*
X154293000Y-96520000D02*
X154293000Y-95770000D01*
X160893000Y-95170000D02*
X157893000Y-95170000D01*
X161493000Y-95770000D02*
X160893000Y-95170000D01*
X161493000Y-96520000D02*
X161493000Y-95770000D01*
X152743000Y-94420000D02*
X163043000Y-94420000D01*
X152743000Y-98620000D02*
X152743000Y-94420000D01*
X163043000Y-98620000D02*
X152743000Y-98620000D01*
X163043000Y-94420000D02*
X163043000Y-98620000D01*
G04 #@! TO.C,J16*
X163043000Y-89213000D02*
X163043000Y-93413000D01*
X163043000Y-93413000D02*
X152743000Y-93413000D01*
X152743000Y-93413000D02*
X152743000Y-89213000D01*
X152743000Y-89213000D02*
X163043000Y-89213000D01*
X161493000Y-91313000D02*
X161493000Y-90563000D01*
X161493000Y-90563000D02*
X160893000Y-89963000D01*
X160893000Y-89963000D02*
X157893000Y-89963000D01*
X154293000Y-91313000D02*
X154293000Y-90563000D01*
X154293000Y-90563000D02*
X154893000Y-89963000D01*
X154893000Y-89963000D02*
X157893000Y-89963000D01*
X163393000Y-92813000D02*
X163393000Y-93813000D01*
X163393000Y-93813000D02*
X162393000Y-93813000D01*
G04 #@! TO.C,C11*
X119692267Y-127256000D02*
X119349733Y-127256000D01*
X119692267Y-126236000D02*
X119349733Y-126236000D01*
G04 #@! TO.C,C12*
X121918000Y-123385733D02*
X121918000Y-123728267D01*
X122938000Y-123385733D02*
X122938000Y-123728267D01*
G04 #@! TO.C,U3*
X54234000Y-89554000D02*
X54234000Y-90814000D01*
X54234000Y-96374000D02*
X54234000Y-95114000D01*
X50474000Y-89554000D02*
X54234000Y-89554000D01*
X48224000Y-96374000D02*
X54234000Y-96374000D01*
G04 #@! TO.C,U5*
X117004000Y-124396000D02*
X117004000Y-125046000D01*
X117004000Y-125046000D02*
X117154000Y-125046000D01*
X119724000Y-122476000D02*
X119724000Y-121826000D01*
X119724000Y-121826000D02*
X119574000Y-121826000D01*
X119724000Y-124396000D02*
X119724000Y-125046000D01*
X119724000Y-125046000D02*
X119574000Y-125046000D01*
G04 #@! TO.C,J3*
X51696000Y-71798000D02*
X55956000Y-71798000D01*
X55956000Y-71798000D02*
X55956000Y-84118000D01*
X55956000Y-84118000D02*
X51696000Y-84118000D01*
X47596000Y-71798000D02*
X39236000Y-71798000D01*
X39236000Y-71798000D02*
X39236000Y-84118000D01*
X39236000Y-84118000D02*
X47596000Y-84118000D01*
X56176000Y-76708000D02*
X56676000Y-76208000D01*
X56676000Y-76208000D02*
X56676000Y-77208000D01*
X56676000Y-77208000D02*
X56176000Y-76708000D01*
G04 #@! TO.C,C1*
X91565000Y-79024267D02*
X91565000Y-78681733D01*
X92585000Y-79024267D02*
X92585000Y-78681733D01*
G04 #@! TO.C,C4*
X91565000Y-82378733D02*
X91565000Y-82721267D01*
X92585000Y-82378733D02*
X92585000Y-82721267D01*
G04 #@! TO.C,R1*
X101061733Y-90422000D02*
X101404267Y-90422000D01*
X101061733Y-91442000D02*
X101404267Y-91442000D01*
G04 #@! TO.C,R2*
X106710267Y-90422000D02*
X106367733Y-90422000D01*
X106710267Y-91442000D02*
X106367733Y-91442000D01*
D11*
G04 #@! TO.C,U2*
X95787001Y-82399999D02*
X95787001Y-82349999D01*
X99937001Y-82399999D02*
X99937001Y-82254999D01*
X99937001Y-77249999D02*
X99937001Y-77394999D01*
X95787001Y-77249999D02*
X95787001Y-77394999D01*
X95787001Y-82399999D02*
X99937001Y-82399999D01*
X95787001Y-77249999D02*
X99937001Y-77249999D01*
X95787001Y-82349999D02*
X94387001Y-82349999D01*
D13*
G04 #@! TO.C,C15*
X44762267Y-90680000D02*
X44419733Y-90680000D01*
X44762267Y-89660000D02*
X44419733Y-89660000D01*
G04 #@! TO.C,C16*
X44762267Y-92708000D02*
X44419733Y-92708000D01*
X44762267Y-93728000D02*
X44419733Y-93728000D01*
G04 #@! TO.C,C18*
X102360000Y-122712267D02*
X102360000Y-122369733D01*
X103380000Y-122712267D02*
X103380000Y-122369733D01*
G04 #@! TO.C,SW1*
X84400000Y-145106000D02*
X84400000Y-145136000D01*
X84400000Y-151566000D02*
X84400000Y-151536000D01*
X90860000Y-151566000D02*
X90860000Y-151536000D01*
X90860000Y-145136000D02*
X90860000Y-145106000D01*
X84400000Y-147036000D02*
X84400000Y-149636000D01*
X90860000Y-145106000D02*
X84400000Y-145106000D01*
X90860000Y-147036000D02*
X90860000Y-149636000D01*
X90860000Y-151566000D02*
X84400000Y-151566000D01*
G04 #@! TO.C,J17*
X64830000Y-86928000D02*
X64830000Y-85598000D01*
X63500000Y-86928000D02*
X64830000Y-86928000D01*
X62230000Y-86928000D02*
X62230000Y-84268000D01*
X62230000Y-84268000D02*
X59630000Y-84268000D01*
X62230000Y-86928000D02*
X59630000Y-86928000D01*
X59630000Y-86928000D02*
X59630000Y-84268000D01*
G04 #@! TO.C,J18*
X59630000Y-97596000D02*
X59630000Y-94936000D01*
X62230000Y-97596000D02*
X59630000Y-97596000D01*
X62230000Y-94936000D02*
X59630000Y-94936000D01*
X62230000Y-97596000D02*
X62230000Y-94936000D01*
X63500000Y-97596000D02*
X64830000Y-97596000D01*
X64830000Y-97596000D02*
X64830000Y-96266000D01*
G04 #@! TO.C,D7*
X154409000Y-77751000D02*
X156869000Y-77751000D01*
X154409000Y-79221000D02*
X154409000Y-77751000D01*
X156869000Y-79221000D02*
X154409000Y-79221000D01*
G04 #@! TO.C,R5*
X160723733Y-78996000D02*
X161066267Y-78996000D01*
X160723733Y-77976000D02*
X161066267Y-77976000D01*
G04 #@! TO.C,R12*
X108789524Y-70656037D02*
X109132058Y-70656037D01*
X108789524Y-71676037D02*
X109132058Y-71676037D01*
G04 #@! TO.C,R20*
X113479733Y-71669038D02*
X113822267Y-71669038D01*
X113479733Y-70649038D02*
X113822267Y-70649038D01*
G04 #@! TD*
G04 #@! TO.C,U6*
D11*
X113283904Y-102713380D02*
X113283904Y-103522904D01*
X113236285Y-103618142D01*
X113188666Y-103665761D01*
X113093428Y-103713380D01*
X112902952Y-103713380D01*
X112807714Y-103665761D01*
X112760095Y-103618142D01*
X112712476Y-103522904D01*
X112712476Y-102713380D01*
X111807714Y-102713380D02*
X111998190Y-102713380D01*
X112093428Y-102761000D01*
X112141047Y-102808619D01*
X112236285Y-102951476D01*
X112283904Y-103141952D01*
X112283904Y-103522904D01*
X112236285Y-103618142D01*
X112188666Y-103665761D01*
X112093428Y-103713380D01*
X111902952Y-103713380D01*
X111807714Y-103665761D01*
X111760095Y-103618142D01*
X111712476Y-103522904D01*
X111712476Y-103284809D01*
X111760095Y-103189571D01*
X111807714Y-103141952D01*
X111902952Y-103094333D01*
X112093428Y-103094333D01*
X112188666Y-103141952D01*
X112236285Y-103189571D01*
X112283904Y-103284809D01*
G04 #@! TO.C,C13*
X113354142Y-119753142D02*
X113401761Y-119705523D01*
X113449380Y-119562666D01*
X113449380Y-119467428D01*
X113401761Y-119324571D01*
X113306523Y-119229333D01*
X113211285Y-119181714D01*
X113020809Y-119134095D01*
X112877952Y-119134095D01*
X112687476Y-119181714D01*
X112592238Y-119229333D01*
X112497000Y-119324571D01*
X112449380Y-119467428D01*
X112449380Y-119562666D01*
X112497000Y-119705523D01*
X112544619Y-119753142D01*
X113449380Y-120705523D02*
X113449380Y-120134095D01*
X113449380Y-120419809D02*
X112449380Y-120419809D01*
X112592238Y-120324571D01*
X112687476Y-120229333D01*
X112735095Y-120134095D01*
X112449380Y-121038857D02*
X112449380Y-121657904D01*
X112830333Y-121324571D01*
X112830333Y-121467428D01*
X112877952Y-121562666D01*
X112925571Y-121610285D01*
X113020809Y-121657904D01*
X113258904Y-121657904D01*
X113354142Y-121610285D01*
X113401761Y-121562666D01*
X113449380Y-121467428D01*
X113449380Y-121181714D01*
X113401761Y-121086476D01*
X113354142Y-121038857D01*
G04 #@! TO.C,C14*
X113354142Y-104513142D02*
X113401761Y-104465523D01*
X113449380Y-104322666D01*
X113449380Y-104227428D01*
X113401761Y-104084571D01*
X113306523Y-103989333D01*
X113211285Y-103941714D01*
X113020809Y-103894095D01*
X112877952Y-103894095D01*
X112687476Y-103941714D01*
X112592238Y-103989333D01*
X112497000Y-104084571D01*
X112449380Y-104227428D01*
X112449380Y-104322666D01*
X112497000Y-104465523D01*
X112544619Y-104513142D01*
X113449380Y-105465523D02*
X113449380Y-104894095D01*
X113449380Y-105179809D02*
X112449380Y-105179809D01*
X112592238Y-105084571D01*
X112687476Y-104989333D01*
X112735095Y-104894095D01*
X112782714Y-106322666D02*
X113449380Y-106322666D01*
X112401761Y-106084571D02*
X113116047Y-105846476D01*
X113116047Y-106465523D01*
G04 #@! TO.C,J1*
X99901333Y-116248380D02*
X99901333Y-116962666D01*
X99948952Y-117105523D01*
X100044190Y-117200761D01*
X100187047Y-117248380D01*
X100282285Y-117248380D01*
X98901333Y-117248380D02*
X99472761Y-117248380D01*
X99187047Y-117248380D02*
X99187047Y-116248380D01*
X99282285Y-116391238D01*
X99377523Y-116486476D01*
X99472761Y-116534095D01*
G04 #@! TO.C,J2*
X113871333Y-147578380D02*
X113871333Y-148292666D01*
X113918952Y-148435523D01*
X114014190Y-148530761D01*
X114157047Y-148578380D01*
X114252285Y-148578380D01*
X113442761Y-147673619D02*
X113395142Y-147626000D01*
X113299904Y-147578380D01*
X113061809Y-147578380D01*
X112966571Y-147626000D01*
X112918952Y-147673619D01*
X112871333Y-147768857D01*
X112871333Y-147864095D01*
X112918952Y-148006952D01*
X113490380Y-148578380D01*
X112871333Y-148578380D01*
X111196380Y-131755523D02*
X110196380Y-131755523D01*
X110196380Y-132136476D01*
X110244000Y-132231714D01*
X110291619Y-132279333D01*
X110386857Y-132326952D01*
X110529714Y-132326952D01*
X110624952Y-132279333D01*
X110672571Y-132231714D01*
X110720190Y-132136476D01*
X110720190Y-131755523D01*
X111196380Y-132755523D02*
X110529714Y-132755523D01*
X110720190Y-132755523D02*
X110624952Y-132803142D01*
X110577333Y-132850761D01*
X110529714Y-132946000D01*
X110529714Y-133041238D01*
X111196380Y-133517428D02*
X111148761Y-133422190D01*
X111101142Y-133374571D01*
X111005904Y-133326952D01*
X110720190Y-133326952D01*
X110624952Y-133374571D01*
X110577333Y-133422190D01*
X110529714Y-133517428D01*
X110529714Y-133660285D01*
X110577333Y-133755523D01*
X110624952Y-133803142D01*
X110720190Y-133850761D01*
X111005904Y-133850761D01*
X111101142Y-133803142D01*
X111148761Y-133755523D01*
X111196380Y-133660285D01*
X111196380Y-133517428D01*
X110529714Y-134707904D02*
X111339238Y-134707904D01*
X111434476Y-134660285D01*
X111482095Y-134612666D01*
X111529714Y-134517428D01*
X111529714Y-134374571D01*
X111482095Y-134279333D01*
X111148761Y-134707904D02*
X111196380Y-134612666D01*
X111196380Y-134422190D01*
X111148761Y-134326952D01*
X111101142Y-134279333D01*
X111005904Y-134231714D01*
X110720190Y-134231714D01*
X110624952Y-134279333D01*
X110577333Y-134326952D01*
X110529714Y-134422190D01*
X110529714Y-134612666D01*
X110577333Y-134707904D01*
X111196380Y-135184095D02*
X110529714Y-135184095D01*
X110720190Y-135184095D02*
X110624952Y-135231714D01*
X110577333Y-135279333D01*
X110529714Y-135374571D01*
X110529714Y-135469809D01*
X111196380Y-136231714D02*
X110672571Y-136231714D01*
X110577333Y-136184095D01*
X110529714Y-136088857D01*
X110529714Y-135898380D01*
X110577333Y-135803142D01*
X111148761Y-136231714D02*
X111196380Y-136136476D01*
X111196380Y-135898380D01*
X111148761Y-135803142D01*
X111053523Y-135755523D01*
X110958285Y-135755523D01*
X110863047Y-135803142D01*
X110815428Y-135898380D01*
X110815428Y-136136476D01*
X110767809Y-136231714D01*
X111196380Y-136707904D02*
X110529714Y-136707904D01*
X110624952Y-136707904D02*
X110577333Y-136755523D01*
X110529714Y-136850761D01*
X110529714Y-136993619D01*
X110577333Y-137088857D01*
X110672571Y-137136476D01*
X111196380Y-137136476D01*
X110672571Y-137136476D02*
X110577333Y-137184095D01*
X110529714Y-137279333D01*
X110529714Y-137422190D01*
X110577333Y-137517428D01*
X110672571Y-137565047D01*
X111196380Y-137565047D01*
X111196380Y-138041238D02*
X110529714Y-138041238D01*
X110624952Y-138041238D02*
X110577333Y-138088857D01*
X110529714Y-138184095D01*
X110529714Y-138326952D01*
X110577333Y-138422190D01*
X110672571Y-138469809D01*
X111196380Y-138469809D01*
X110672571Y-138469809D02*
X110577333Y-138517428D01*
X110529714Y-138612666D01*
X110529714Y-138755523D01*
X110577333Y-138850761D01*
X110672571Y-138898380D01*
X111196380Y-138898380D01*
X111196380Y-139374571D02*
X110529714Y-139374571D01*
X110196380Y-139374571D02*
X110244000Y-139326952D01*
X110291619Y-139374571D01*
X110244000Y-139422190D01*
X110196380Y-139374571D01*
X110291619Y-139374571D01*
X110529714Y-139850761D02*
X111196380Y-139850761D01*
X110624952Y-139850761D02*
X110577333Y-139898380D01*
X110529714Y-139993619D01*
X110529714Y-140136476D01*
X110577333Y-140231714D01*
X110672571Y-140279333D01*
X111196380Y-140279333D01*
X110529714Y-141184095D02*
X111339238Y-141184095D01*
X111434476Y-141136476D01*
X111482095Y-141088857D01*
X111529714Y-140993619D01*
X111529714Y-140850761D01*
X111482095Y-140755523D01*
X111148761Y-141184095D02*
X111196380Y-141088857D01*
X111196380Y-140898380D01*
X111148761Y-140803142D01*
X111101142Y-140755523D01*
X111005904Y-140707904D01*
X110720190Y-140707904D01*
X110624952Y-140755523D01*
X110577333Y-140803142D01*
X110529714Y-140898380D01*
X110529714Y-141088857D01*
X110577333Y-141184095D01*
X111291619Y-141422190D02*
X111291619Y-142184095D01*
X111196380Y-142422190D02*
X110196380Y-142422190D01*
X110672571Y-142422190D02*
X110672571Y-142993619D01*
X111196380Y-142993619D02*
X110196380Y-142993619D01*
X111148761Y-143850761D02*
X111196380Y-143755523D01*
X111196380Y-143565047D01*
X111148761Y-143469809D01*
X111053523Y-143422190D01*
X110672571Y-143422190D01*
X110577333Y-143469809D01*
X110529714Y-143565047D01*
X110529714Y-143755523D01*
X110577333Y-143850761D01*
X110672571Y-143898380D01*
X110767809Y-143898380D01*
X110863047Y-143422190D01*
X111196380Y-144755523D02*
X110672571Y-144755523D01*
X110577333Y-144707904D01*
X110529714Y-144612666D01*
X110529714Y-144422190D01*
X110577333Y-144326952D01*
X111148761Y-144755523D02*
X111196380Y-144660285D01*
X111196380Y-144422190D01*
X111148761Y-144326952D01*
X111053523Y-144279333D01*
X110958285Y-144279333D01*
X110863047Y-144326952D01*
X110815428Y-144422190D01*
X110815428Y-144660285D01*
X110767809Y-144755523D01*
X111196380Y-145660285D02*
X110196380Y-145660285D01*
X111148761Y-145660285D02*
X111196380Y-145565047D01*
X111196380Y-145374571D01*
X111148761Y-145279333D01*
X111101142Y-145231714D01*
X111005904Y-145184095D01*
X110720190Y-145184095D01*
X110624952Y-145231714D01*
X110577333Y-145279333D01*
X110529714Y-145374571D01*
X110529714Y-145565047D01*
X110577333Y-145660285D01*
X111148761Y-146517428D02*
X111196380Y-146422190D01*
X111196380Y-146231714D01*
X111148761Y-146136476D01*
X111053523Y-146088857D01*
X110672571Y-146088857D01*
X110577333Y-146136476D01*
X110529714Y-146231714D01*
X110529714Y-146422190D01*
X110577333Y-146517428D01*
X110672571Y-146565047D01*
X110767809Y-146565047D01*
X110863047Y-146088857D01*
X111196380Y-146993619D02*
X110529714Y-146993619D01*
X110720190Y-146993619D02*
X110624952Y-147041238D01*
X110577333Y-147088857D01*
X110529714Y-147184095D01*
X110529714Y-147279333D01*
G04 #@! TO.C,Q2*
X84931238Y-127507619D02*
X85026476Y-127460000D01*
X85121714Y-127364761D01*
X85264571Y-127221904D01*
X85359809Y-127174285D01*
X85455047Y-127174285D01*
X85407428Y-127412380D02*
X85502666Y-127364761D01*
X85597904Y-127269523D01*
X85645523Y-127079047D01*
X85645523Y-126745714D01*
X85597904Y-126555238D01*
X85502666Y-126460000D01*
X85407428Y-126412380D01*
X85216952Y-126412380D01*
X85121714Y-126460000D01*
X85026476Y-126555238D01*
X84978857Y-126745714D01*
X84978857Y-127079047D01*
X85026476Y-127269523D01*
X85121714Y-127364761D01*
X85216952Y-127412380D01*
X85407428Y-127412380D01*
X84597904Y-126507619D02*
X84550285Y-126460000D01*
X84455047Y-126412380D01*
X84216952Y-126412380D01*
X84121714Y-126460000D01*
X84074095Y-126507619D01*
X84026476Y-126602857D01*
X84026476Y-126698095D01*
X84074095Y-126840952D01*
X84645523Y-127412380D01*
X84026476Y-127412380D01*
G04 #@! TO.C,U4*
X113283904Y-117953380D02*
X113283904Y-118762904D01*
X113236285Y-118858142D01*
X113188666Y-118905761D01*
X113093428Y-118953380D01*
X112902952Y-118953380D01*
X112807714Y-118905761D01*
X112760095Y-118858142D01*
X112712476Y-118762904D01*
X112712476Y-117953380D01*
X111807714Y-118286714D02*
X111807714Y-118953380D01*
X112045809Y-117905761D02*
X112283904Y-118620047D01*
X111664857Y-118620047D01*
G04 #@! TO.C,C2*
X80063666Y-137103142D02*
X80111285Y-137150761D01*
X80254142Y-137198380D01*
X80349380Y-137198380D01*
X80492238Y-137150761D01*
X80587476Y-137055523D01*
X80635095Y-136960285D01*
X80682714Y-136769809D01*
X80682714Y-136626952D01*
X80635095Y-136436476D01*
X80587476Y-136341238D01*
X80492238Y-136246000D01*
X80349380Y-136198380D01*
X80254142Y-136198380D01*
X80111285Y-136246000D01*
X80063666Y-136293619D01*
X79682714Y-136293619D02*
X79635095Y-136246000D01*
X79539857Y-136198380D01*
X79301761Y-136198380D01*
X79206523Y-136246000D01*
X79158904Y-136293619D01*
X79111285Y-136388857D01*
X79111285Y-136484095D01*
X79158904Y-136626952D01*
X79730333Y-137198380D01*
X79111285Y-137198380D01*
G04 #@! TO.C,C3*
X80289666Y-132023142D02*
X80337285Y-132070761D01*
X80480142Y-132118380D01*
X80575380Y-132118380D01*
X80718238Y-132070761D01*
X80813476Y-131975523D01*
X80861095Y-131880285D01*
X80908714Y-131689809D01*
X80908714Y-131546952D01*
X80861095Y-131356476D01*
X80813476Y-131261238D01*
X80718238Y-131166000D01*
X80575380Y-131118380D01*
X80480142Y-131118380D01*
X80337285Y-131166000D01*
X80289666Y-131213619D01*
X79956333Y-131118380D02*
X79337285Y-131118380D01*
X79670619Y-131499333D01*
X79527761Y-131499333D01*
X79432523Y-131546952D01*
X79384904Y-131594571D01*
X79337285Y-131689809D01*
X79337285Y-131927904D01*
X79384904Y-132023142D01*
X79432523Y-132070761D01*
X79527761Y-132118380D01*
X79813476Y-132118380D01*
X79908714Y-132070761D01*
X79956333Y-132023142D01*
G04 #@! TO.C,R7*
X81363709Y-129199375D02*
X80887519Y-128866042D01*
X81363709Y-128627946D02*
X80363709Y-128627946D01*
X80363709Y-129008899D01*
X80411329Y-129104137D01*
X80458948Y-129151756D01*
X80554186Y-129199375D01*
X80697043Y-129199375D01*
X80792281Y-129151756D01*
X80839900Y-129104137D01*
X80887519Y-129008899D01*
X80887519Y-128627946D01*
X80363709Y-129532708D02*
X80363709Y-130199375D01*
X81363709Y-129770803D01*
G04 #@! TO.C,R8*
X81363709Y-124754375D02*
X80887519Y-124421042D01*
X81363709Y-124182946D02*
X80363709Y-124182946D01*
X80363709Y-124563899D01*
X80411329Y-124659137D01*
X80458948Y-124706756D01*
X80554186Y-124754375D01*
X80697043Y-124754375D01*
X80792281Y-124706756D01*
X80839900Y-124659137D01*
X80887519Y-124563899D01*
X80887519Y-124182946D01*
X80792281Y-125325803D02*
X80744662Y-125230565D01*
X80697043Y-125182946D01*
X80601805Y-125135327D01*
X80554186Y-125135327D01*
X80458948Y-125182946D01*
X80411329Y-125230565D01*
X80363709Y-125325803D01*
X80363709Y-125516280D01*
X80411329Y-125611518D01*
X80458948Y-125659137D01*
X80554186Y-125706756D01*
X80601805Y-125706756D01*
X80697043Y-125659137D01*
X80744662Y-125611518D01*
X80792281Y-125516280D01*
X80792281Y-125325803D01*
X80839900Y-125230565D01*
X80887519Y-125182946D01*
X80982757Y-125135327D01*
X81173233Y-125135327D01*
X81268471Y-125182946D01*
X81316090Y-125230565D01*
X81363709Y-125325803D01*
X81363709Y-125516280D01*
X81316090Y-125611518D01*
X81268471Y-125659137D01*
X81173233Y-125706756D01*
X80982757Y-125706756D01*
X80887519Y-125659137D01*
X80839900Y-125611518D01*
X80792281Y-125516280D01*
G04 #@! TO.C,R9*
X95862380Y-112468333D02*
X95386190Y-112135000D01*
X95862380Y-111896904D02*
X94862380Y-111896904D01*
X94862380Y-112277857D01*
X94910000Y-112373095D01*
X94957619Y-112420714D01*
X95052857Y-112468333D01*
X95195714Y-112468333D01*
X95290952Y-112420714D01*
X95338571Y-112373095D01*
X95386190Y-112277857D01*
X95386190Y-111896904D01*
X95862380Y-112944523D02*
X95862380Y-113135000D01*
X95814761Y-113230238D01*
X95767142Y-113277857D01*
X95624285Y-113373095D01*
X95433809Y-113420714D01*
X95052857Y-113420714D01*
X94957619Y-113373095D01*
X94910000Y-113325476D01*
X94862380Y-113230238D01*
X94862380Y-113039761D01*
X94910000Y-112944523D01*
X94957619Y-112896904D01*
X95052857Y-112849285D01*
X95290952Y-112849285D01*
X95386190Y-112896904D01*
X95433809Y-112944523D01*
X95481428Y-113039761D01*
X95481428Y-113230238D01*
X95433809Y-113325476D01*
X95386190Y-113373095D01*
X95290952Y-113420714D01*
G04 #@! TO.C,R10*
X96304380Y-111992142D02*
X95828190Y-111658809D01*
X96304380Y-111420714D02*
X95304380Y-111420714D01*
X95304380Y-111801666D01*
X95352000Y-111896904D01*
X95399619Y-111944523D01*
X95494857Y-111992142D01*
X95637714Y-111992142D01*
X95732952Y-111944523D01*
X95780571Y-111896904D01*
X95828190Y-111801666D01*
X95828190Y-111420714D01*
X96304380Y-112944523D02*
X96304380Y-112373095D01*
X96304380Y-112658809D02*
X95304380Y-112658809D01*
X95447238Y-112563571D01*
X95542476Y-112468333D01*
X95590095Y-112373095D01*
X95304380Y-113563571D02*
X95304380Y-113658809D01*
X95352000Y-113754047D01*
X95399619Y-113801666D01*
X95494857Y-113849285D01*
X95685333Y-113896904D01*
X95923428Y-113896904D01*
X96113904Y-113849285D01*
X96209142Y-113801666D01*
X96256761Y-113754047D01*
X96304380Y-113658809D01*
X96304380Y-113563571D01*
X96256761Y-113468333D01*
X96209142Y-113420714D01*
X96113904Y-113373095D01*
X95923428Y-113325476D01*
X95685333Y-113325476D01*
X95494857Y-113373095D01*
X95399619Y-113420714D01*
X95352000Y-113468333D01*
X95304380Y-113563571D01*
G04 #@! TO.C,R11*
X99860380Y-111992142D02*
X99384190Y-111658809D01*
X99860380Y-111420714D02*
X98860380Y-111420714D01*
X98860380Y-111801666D01*
X98908000Y-111896904D01*
X98955619Y-111944523D01*
X99050857Y-111992142D01*
X99193714Y-111992142D01*
X99288952Y-111944523D01*
X99336571Y-111896904D01*
X99384190Y-111801666D01*
X99384190Y-111420714D01*
X99860380Y-112944523D02*
X99860380Y-112373095D01*
X99860380Y-112658809D02*
X98860380Y-112658809D01*
X99003238Y-112563571D01*
X99098476Y-112468333D01*
X99146095Y-112373095D01*
X99860380Y-113896904D02*
X99860380Y-113325476D01*
X99860380Y-113611190D02*
X98860380Y-113611190D01*
X99003238Y-113515952D01*
X99098476Y-113420714D01*
X99146095Y-113325476D01*
G04 #@! TO.C,R15*
X117071380Y-109988142D02*
X116595190Y-109654809D01*
X117071380Y-109416714D02*
X116071380Y-109416714D01*
X116071380Y-109797666D01*
X116119000Y-109892904D01*
X116166619Y-109940523D01*
X116261857Y-109988142D01*
X116404714Y-109988142D01*
X116499952Y-109940523D01*
X116547571Y-109892904D01*
X116595190Y-109797666D01*
X116595190Y-109416714D01*
X117071380Y-110940523D02*
X117071380Y-110369095D01*
X117071380Y-110654809D02*
X116071380Y-110654809D01*
X116214238Y-110559571D01*
X116309476Y-110464333D01*
X116357095Y-110369095D01*
X116071380Y-111845285D02*
X116071380Y-111369095D01*
X116547571Y-111321476D01*
X116499952Y-111369095D01*
X116452333Y-111464333D01*
X116452333Y-111702428D01*
X116499952Y-111797666D01*
X116547571Y-111845285D01*
X116642809Y-111892904D01*
X116880904Y-111892904D01*
X116976142Y-111845285D01*
X117023761Y-111797666D01*
X117071380Y-111702428D01*
X117071380Y-111464333D01*
X117023761Y-111369095D01*
X116976142Y-111321476D01*
G04 #@! TO.C,R16*
X111894857Y-108623380D02*
X112228190Y-108147190D01*
X112466285Y-108623380D02*
X112466285Y-107623380D01*
X112085333Y-107623380D01*
X111990095Y-107671000D01*
X111942476Y-107718619D01*
X111894857Y-107813857D01*
X111894857Y-107956714D01*
X111942476Y-108051952D01*
X111990095Y-108099571D01*
X112085333Y-108147190D01*
X112466285Y-108147190D01*
X110942476Y-108623380D02*
X111513904Y-108623380D01*
X111228190Y-108623380D02*
X111228190Y-107623380D01*
X111323428Y-107766238D01*
X111418666Y-107861476D01*
X111513904Y-107909095D01*
X110085333Y-107623380D02*
X110275809Y-107623380D01*
X110371047Y-107671000D01*
X110418666Y-107718619D01*
X110513904Y-107861476D01*
X110561523Y-108051952D01*
X110561523Y-108432904D01*
X110513904Y-108528142D01*
X110466285Y-108575761D01*
X110371047Y-108623380D01*
X110180571Y-108623380D01*
X110085333Y-108575761D01*
X110037714Y-108528142D01*
X109990095Y-108432904D01*
X109990095Y-108194809D01*
X110037714Y-108099571D01*
X110085333Y-108051952D01*
X110180571Y-108004333D01*
X110371047Y-108004333D01*
X110466285Y-108051952D01*
X110513904Y-108099571D01*
X110561523Y-108194809D01*
G04 #@! TO.C,R17*
X82430857Y-110655380D02*
X82764190Y-110179190D01*
X83002285Y-110655380D02*
X83002285Y-109655380D01*
X82621333Y-109655380D01*
X82526095Y-109703000D01*
X82478476Y-109750619D01*
X82430857Y-109845857D01*
X82430857Y-109988714D01*
X82478476Y-110083952D01*
X82526095Y-110131571D01*
X82621333Y-110179190D01*
X83002285Y-110179190D01*
X81478476Y-110655380D02*
X82049904Y-110655380D01*
X81764190Y-110655380D02*
X81764190Y-109655380D01*
X81859428Y-109798238D01*
X81954666Y-109893476D01*
X82049904Y-109941095D01*
X81145142Y-109655380D02*
X80478476Y-109655380D01*
X80907047Y-110655380D01*
G04 #@! TO.C,R18*
X82430857Y-113830380D02*
X82764190Y-113354190D01*
X83002285Y-113830380D02*
X83002285Y-112830380D01*
X82621333Y-112830380D01*
X82526095Y-112878000D01*
X82478476Y-112925619D01*
X82430857Y-113020857D01*
X82430857Y-113163714D01*
X82478476Y-113258952D01*
X82526095Y-113306571D01*
X82621333Y-113354190D01*
X83002285Y-113354190D01*
X81478476Y-113830380D02*
X82049904Y-113830380D01*
X81764190Y-113830380D02*
X81764190Y-112830380D01*
X81859428Y-112973238D01*
X81954666Y-113068476D01*
X82049904Y-113116095D01*
X80907047Y-113258952D02*
X81002285Y-113211333D01*
X81049904Y-113163714D01*
X81097523Y-113068476D01*
X81097523Y-113020857D01*
X81049904Y-112925619D01*
X81002285Y-112878000D01*
X80907047Y-112830380D01*
X80716571Y-112830380D01*
X80621333Y-112878000D01*
X80573714Y-112925619D01*
X80526095Y-113020857D01*
X80526095Y-113068476D01*
X80573714Y-113163714D01*
X80621333Y-113211333D01*
X80716571Y-113258952D01*
X80907047Y-113258952D01*
X81002285Y-113306571D01*
X81049904Y-113354190D01*
X81097523Y-113449428D01*
X81097523Y-113639904D01*
X81049904Y-113735142D01*
X81002285Y-113782761D01*
X80907047Y-113830380D01*
X80716571Y-113830380D01*
X80621333Y-113782761D01*
X80573714Y-113735142D01*
X80526095Y-113639904D01*
X80526095Y-113449428D01*
X80573714Y-113354190D01*
X80621333Y-113306571D01*
X80716571Y-113258952D01*
G04 #@! TO.C,R19*
X82430857Y-117005380D02*
X82764190Y-116529190D01*
X83002285Y-117005380D02*
X83002285Y-116005380D01*
X82621333Y-116005380D01*
X82526095Y-116053000D01*
X82478476Y-116100619D01*
X82430857Y-116195857D01*
X82430857Y-116338714D01*
X82478476Y-116433952D01*
X82526095Y-116481571D01*
X82621333Y-116529190D01*
X83002285Y-116529190D01*
X81478476Y-117005380D02*
X82049904Y-117005380D01*
X81764190Y-117005380D02*
X81764190Y-116005380D01*
X81859428Y-116148238D01*
X81954666Y-116243476D01*
X82049904Y-116291095D01*
X81002285Y-117005380D02*
X80811809Y-117005380D01*
X80716571Y-116957761D01*
X80668952Y-116910142D01*
X80573714Y-116767285D01*
X80526095Y-116576809D01*
X80526095Y-116195857D01*
X80573714Y-116100619D01*
X80621333Y-116053000D01*
X80716571Y-116005380D01*
X80907047Y-116005380D01*
X81002285Y-116053000D01*
X81049904Y-116100619D01*
X81097523Y-116195857D01*
X81097523Y-116433952D01*
X81049904Y-116529190D01*
X81002285Y-116576809D01*
X80907047Y-116624428D01*
X80716571Y-116624428D01*
X80621333Y-116576809D01*
X80573714Y-116529190D01*
X80526095Y-116433952D01*
G04 #@! TO.C,Y1*
X88845190Y-135005809D02*
X89321380Y-135005809D01*
X88321380Y-134672476D02*
X88845190Y-135005809D01*
X88321380Y-135339142D01*
X89321380Y-136196285D02*
X89321380Y-135624857D01*
X89321380Y-135910571D02*
X88321380Y-135910571D01*
X88464238Y-135815333D01*
X88559476Y-135720095D01*
X88607095Y-135624857D01*
G04 #@! TO.C,D1*
X93002380Y-107606904D02*
X92002380Y-107606904D01*
X92002380Y-107845000D01*
X92050000Y-107987857D01*
X92145238Y-108083095D01*
X92240476Y-108130714D01*
X92430952Y-108178333D01*
X92573809Y-108178333D01*
X92764285Y-108130714D01*
X92859523Y-108083095D01*
X92954761Y-107987857D01*
X93002380Y-107845000D01*
X93002380Y-107606904D01*
X93002380Y-109130714D02*
X93002380Y-108559285D01*
X93002380Y-108845000D02*
X92002380Y-108845000D01*
X92145238Y-108749761D01*
X92240476Y-108654523D01*
X92288095Y-108559285D01*
G04 #@! TO.C,D2*
X96304380Y-107606904D02*
X95304380Y-107606904D01*
X95304380Y-107845000D01*
X95352000Y-107987857D01*
X95447238Y-108083095D01*
X95542476Y-108130714D01*
X95732952Y-108178333D01*
X95875809Y-108178333D01*
X96066285Y-108130714D01*
X96161523Y-108083095D01*
X96256761Y-107987857D01*
X96304380Y-107845000D01*
X96304380Y-107606904D01*
X95399619Y-108559285D02*
X95352000Y-108606904D01*
X95304380Y-108702142D01*
X95304380Y-108940238D01*
X95352000Y-109035476D01*
X95399619Y-109083095D01*
X95494857Y-109130714D01*
X95590095Y-109130714D01*
X95732952Y-109083095D01*
X96304380Y-108511666D01*
X96304380Y-109130714D01*
G04 #@! TO.C,D3*
X99860380Y-107606904D02*
X98860380Y-107606904D01*
X98860380Y-107845000D01*
X98908000Y-107987857D01*
X99003238Y-108083095D01*
X99098476Y-108130714D01*
X99288952Y-108178333D01*
X99431809Y-108178333D01*
X99622285Y-108130714D01*
X99717523Y-108083095D01*
X99812761Y-107987857D01*
X99860380Y-107845000D01*
X99860380Y-107606904D01*
X98860380Y-108511666D02*
X98860380Y-109130714D01*
X99241333Y-108797380D01*
X99241333Y-108940238D01*
X99288952Y-109035476D01*
X99336571Y-109083095D01*
X99431809Y-109130714D01*
X99669904Y-109130714D01*
X99765142Y-109083095D01*
X99812761Y-109035476D01*
X99860380Y-108940238D01*
X99860380Y-108654523D01*
X99812761Y-108559285D01*
X99765142Y-108511666D01*
G04 #@! TO.C,D4*
X87211095Y-110655380D02*
X87211095Y-109655380D01*
X86973000Y-109655380D01*
X86830142Y-109703000D01*
X86734904Y-109798238D01*
X86687285Y-109893476D01*
X86639666Y-110083952D01*
X86639666Y-110226809D01*
X86687285Y-110417285D01*
X86734904Y-110512523D01*
X86830142Y-110607761D01*
X86973000Y-110655380D01*
X87211095Y-110655380D01*
X85782523Y-109988714D02*
X85782523Y-110655380D01*
X86020619Y-109607761D02*
X86258714Y-110322047D01*
X85639666Y-110322047D01*
G04 #@! TO.C,D5*
X87211095Y-113830380D02*
X87211095Y-112830380D01*
X86973000Y-112830380D01*
X86830142Y-112878000D01*
X86734904Y-112973238D01*
X86687285Y-113068476D01*
X86639666Y-113258952D01*
X86639666Y-113401809D01*
X86687285Y-113592285D01*
X86734904Y-113687523D01*
X86830142Y-113782761D01*
X86973000Y-113830380D01*
X87211095Y-113830380D01*
X85734904Y-112830380D02*
X86211095Y-112830380D01*
X86258714Y-113306571D01*
X86211095Y-113258952D01*
X86115857Y-113211333D01*
X85877761Y-113211333D01*
X85782523Y-113258952D01*
X85734904Y-113306571D01*
X85687285Y-113401809D01*
X85687285Y-113639904D01*
X85734904Y-113735142D01*
X85782523Y-113782761D01*
X85877761Y-113830380D01*
X86115857Y-113830380D01*
X86211095Y-113782761D01*
X86258714Y-113735142D01*
G04 #@! TO.C,D6*
X87366095Y-117005380D02*
X87366095Y-116005380D01*
X87128000Y-116005380D01*
X86985142Y-116053000D01*
X86889904Y-116148238D01*
X86842285Y-116243476D01*
X86794666Y-116433952D01*
X86794666Y-116576809D01*
X86842285Y-116767285D01*
X86889904Y-116862523D01*
X86985142Y-116957761D01*
X87128000Y-117005380D01*
X87366095Y-117005380D01*
X85937523Y-116005380D02*
X86128000Y-116005380D01*
X86223238Y-116053000D01*
X86270857Y-116100619D01*
X86366095Y-116243476D01*
X86413714Y-116433952D01*
X86413714Y-116814904D01*
X86366095Y-116910142D01*
X86318476Y-116957761D01*
X86223238Y-117005380D01*
X86032761Y-117005380D01*
X85937523Y-116957761D01*
X85889904Y-116910142D01*
X85842285Y-116814904D01*
X85842285Y-116576809D01*
X85889904Y-116481571D01*
X85937523Y-116433952D01*
X86032761Y-116386333D01*
X86223238Y-116386333D01*
X86318476Y-116433952D01*
X86366095Y-116481571D01*
X86413714Y-116576809D01*
G04 #@! TO.C,U1*
X99072013Y-139454322D02*
X99072013Y-140263846D01*
X99024394Y-140359084D01*
X98976775Y-140406703D01*
X98881537Y-140454322D01*
X98691061Y-140454322D01*
X98595823Y-140406703D01*
X98548204Y-140359084D01*
X98500585Y-140263846D01*
X98500585Y-139454322D01*
X97500585Y-140454322D02*
X98072013Y-140454322D01*
X97786299Y-140454322D02*
X97786299Y-139454322D01*
X97881537Y-139597180D01*
X97976775Y-139692418D01*
X98072013Y-139740037D01*
G04 #@! TO.C,J4*
X116292380Y-113712666D02*
X117006666Y-113712666D01*
X117149523Y-113665047D01*
X117244761Y-113569809D01*
X117292380Y-113426952D01*
X117292380Y-113331714D01*
X116625714Y-114617428D02*
X117292380Y-114617428D01*
X116244761Y-114379333D02*
X116959047Y-114141238D01*
X116959047Y-114760285D01*
G04 #@! TO.C,J6*
X116292380Y-95853666D02*
X117006666Y-95853666D01*
X117149523Y-95806047D01*
X117244761Y-95710809D01*
X117292380Y-95567952D01*
X117292380Y-95472714D01*
X116292380Y-96758428D02*
X116292380Y-96567952D01*
X116340000Y-96472714D01*
X116387619Y-96425095D01*
X116530476Y-96329857D01*
X116720952Y-96282238D01*
X117101904Y-96282238D01*
X117197142Y-96329857D01*
X117244761Y-96377476D01*
X117292380Y-96472714D01*
X117292380Y-96663190D01*
X117244761Y-96758428D01*
X117197142Y-96806047D01*
X117101904Y-96853666D01*
X116863809Y-96853666D01*
X116768571Y-96806047D01*
X116720952Y-96758428D01*
X116673333Y-96663190D01*
X116673333Y-96472714D01*
X116720952Y-96377476D01*
X116768571Y-96329857D01*
X116863809Y-96282238D01*
G04 #@! TO.C,J5*
X150447333Y-127214380D02*
X150447333Y-127928666D01*
X150494952Y-128071523D01*
X150590190Y-128166761D01*
X150733047Y-128214380D01*
X150828285Y-128214380D01*
X149494952Y-127214380D02*
X149971142Y-127214380D01*
X150018761Y-127690571D01*
X149971142Y-127642952D01*
X149875904Y-127595333D01*
X149637809Y-127595333D01*
X149542571Y-127642952D01*
X149494952Y-127690571D01*
X149447333Y-127785809D01*
X149447333Y-128023904D01*
X149494952Y-128119142D01*
X149542571Y-128166761D01*
X149637809Y-128214380D01*
X149875904Y-128214380D01*
X149971142Y-128166761D01*
X150018761Y-128119142D01*
G04 #@! TO.C,J10*
X150923523Y-121880380D02*
X150923523Y-122594666D01*
X150971142Y-122737523D01*
X151066380Y-122832761D01*
X151209238Y-122880380D01*
X151304476Y-122880380D01*
X149923523Y-122880380D02*
X150494952Y-122880380D01*
X150209238Y-122880380D02*
X150209238Y-121880380D01*
X150304476Y-122023238D01*
X150399714Y-122118476D01*
X150494952Y-122166095D01*
X149304476Y-121880380D02*
X149209238Y-121880380D01*
X149114000Y-121928000D01*
X149066380Y-121975619D01*
X149018761Y-122070857D01*
X148971142Y-122261333D01*
X148971142Y-122499428D01*
X149018761Y-122689904D01*
X149066380Y-122785142D01*
X149114000Y-122832761D01*
X149209238Y-122880380D01*
X149304476Y-122880380D01*
X149399714Y-122832761D01*
X149447333Y-122785142D01*
X149494952Y-122689904D01*
X149542571Y-122499428D01*
X149542571Y-122261333D01*
X149494952Y-122070857D01*
X149447333Y-121975619D01*
X149399714Y-121928000D01*
X149304476Y-121880380D01*
G04 #@! TO.C,J11*
X150923523Y-117054380D02*
X150923523Y-117768666D01*
X150971142Y-117911523D01*
X151066380Y-118006761D01*
X151209238Y-118054380D01*
X151304476Y-118054380D01*
X149923523Y-118054380D02*
X150494952Y-118054380D01*
X150209238Y-118054380D02*
X150209238Y-117054380D01*
X150304476Y-117197238D01*
X150399714Y-117292476D01*
X150494952Y-117340095D01*
X148971142Y-118054380D02*
X149542571Y-118054380D01*
X149256857Y-118054380D02*
X149256857Y-117054380D01*
X149352095Y-117197238D01*
X149447333Y-117292476D01*
X149542571Y-117340095D01*
G04 #@! TO.C,J12*
X150923523Y-111466380D02*
X150923523Y-112180666D01*
X150971142Y-112323523D01*
X151066380Y-112418761D01*
X151209238Y-112466380D01*
X151304476Y-112466380D01*
X149923523Y-112466380D02*
X150494952Y-112466380D01*
X150209238Y-112466380D02*
X150209238Y-111466380D01*
X150304476Y-111609238D01*
X150399714Y-111704476D01*
X150494952Y-111752095D01*
X149542571Y-111561619D02*
X149494952Y-111514000D01*
X149399714Y-111466380D01*
X149161619Y-111466380D01*
X149066380Y-111514000D01*
X149018761Y-111561619D01*
X148971142Y-111656857D01*
X148971142Y-111752095D01*
X149018761Y-111894952D01*
X149590190Y-112466380D01*
X148971142Y-112466380D01*
G04 #@! TO.C,J13*
X150923523Y-106386380D02*
X150923523Y-107100666D01*
X150971142Y-107243523D01*
X151066380Y-107338761D01*
X151209238Y-107386380D01*
X151304476Y-107386380D01*
X149923523Y-107386380D02*
X150494952Y-107386380D01*
X150209238Y-107386380D02*
X150209238Y-106386380D01*
X150304476Y-106529238D01*
X150399714Y-106624476D01*
X150494952Y-106672095D01*
X149590190Y-106386380D02*
X148971142Y-106386380D01*
X149304476Y-106767333D01*
X149161619Y-106767333D01*
X149066380Y-106814952D01*
X149018761Y-106862571D01*
X148971142Y-106957809D01*
X148971142Y-107195904D01*
X149018761Y-107291142D01*
X149066380Y-107338761D01*
X149161619Y-107386380D01*
X149447333Y-107386380D01*
X149542571Y-107338761D01*
X149590190Y-107291142D01*
G04 #@! TO.C,J14*
X150923523Y-101052380D02*
X150923523Y-101766666D01*
X150971142Y-101909523D01*
X151066380Y-102004761D01*
X151209238Y-102052380D01*
X151304476Y-102052380D01*
X149923523Y-102052380D02*
X150494952Y-102052380D01*
X150209238Y-102052380D02*
X150209238Y-101052380D01*
X150304476Y-101195238D01*
X150399714Y-101290476D01*
X150494952Y-101338095D01*
X149066380Y-101385714D02*
X149066380Y-102052380D01*
X149304476Y-101004761D02*
X149542571Y-101719047D01*
X148923523Y-101719047D01*
G04 #@! TO.C,J15*
X150923523Y-95972380D02*
X150923523Y-96686666D01*
X150971142Y-96829523D01*
X151066380Y-96924761D01*
X151209238Y-96972380D01*
X151304476Y-96972380D01*
X149923523Y-96972380D02*
X150494952Y-96972380D01*
X150209238Y-96972380D02*
X150209238Y-95972380D01*
X150304476Y-96115238D01*
X150399714Y-96210476D01*
X150494952Y-96258095D01*
X149018761Y-95972380D02*
X149494952Y-95972380D01*
X149542571Y-96448571D01*
X149494952Y-96400952D01*
X149399714Y-96353333D01*
X149161619Y-96353333D01*
X149066380Y-96400952D01*
X149018761Y-96448571D01*
X148971142Y-96543809D01*
X148971142Y-96781904D01*
X149018761Y-96877142D01*
X149066380Y-96924761D01*
X149161619Y-96972380D01*
X149399714Y-96972380D01*
X149494952Y-96924761D01*
X149542571Y-96877142D01*
G04 #@! TO.C,J16*
X150923523Y-90892380D02*
X150923523Y-91606666D01*
X150971142Y-91749523D01*
X151066380Y-91844761D01*
X151209238Y-91892380D01*
X151304476Y-91892380D01*
X149923523Y-91892380D02*
X150494952Y-91892380D01*
X150209238Y-91892380D02*
X150209238Y-90892380D01*
X150304476Y-91035238D01*
X150399714Y-91130476D01*
X150494952Y-91178095D01*
X149066380Y-90892380D02*
X149256857Y-90892380D01*
X149352095Y-90940000D01*
X149399714Y-90987619D01*
X149494952Y-91130476D01*
X149542571Y-91320952D01*
X149542571Y-91701904D01*
X149494952Y-91797142D01*
X149447333Y-91844761D01*
X149352095Y-91892380D01*
X149161619Y-91892380D01*
X149066380Y-91844761D01*
X149018761Y-91797142D01*
X148971142Y-91701904D01*
X148971142Y-91463809D01*
X149018761Y-91368571D01*
X149066380Y-91320952D01*
X149161619Y-91273333D01*
X149352095Y-91273333D01*
X149447333Y-91320952D01*
X149494952Y-91368571D01*
X149542571Y-91463809D01*
G04 #@! TO.C,C11*
X120163857Y-125673142D02*
X120211476Y-125720761D01*
X120354333Y-125768380D01*
X120449571Y-125768380D01*
X120592428Y-125720761D01*
X120687666Y-125625523D01*
X120735285Y-125530285D01*
X120782904Y-125339809D01*
X120782904Y-125196952D01*
X120735285Y-125006476D01*
X120687666Y-124911238D01*
X120592428Y-124816000D01*
X120449571Y-124768380D01*
X120354333Y-124768380D01*
X120211476Y-124816000D01*
X120163857Y-124863619D01*
X119211476Y-125768380D02*
X119782904Y-125768380D01*
X119497190Y-125768380D02*
X119497190Y-124768380D01*
X119592428Y-124911238D01*
X119687666Y-125006476D01*
X119782904Y-125054095D01*
X118259095Y-125768380D02*
X118830523Y-125768380D01*
X118544809Y-125768380D02*
X118544809Y-124768380D01*
X118640047Y-124911238D01*
X118735285Y-125006476D01*
X118830523Y-125054095D01*
G04 #@! TO.C,C12*
X121355142Y-122914142D02*
X121402761Y-122866523D01*
X121450380Y-122723666D01*
X121450380Y-122628428D01*
X121402761Y-122485571D01*
X121307523Y-122390333D01*
X121212285Y-122342714D01*
X121021809Y-122295095D01*
X120878952Y-122295095D01*
X120688476Y-122342714D01*
X120593238Y-122390333D01*
X120498000Y-122485571D01*
X120450380Y-122628428D01*
X120450380Y-122723666D01*
X120498000Y-122866523D01*
X120545619Y-122914142D01*
X121450380Y-123866523D02*
X121450380Y-123295095D01*
X121450380Y-123580809D02*
X120450380Y-123580809D01*
X120593238Y-123485571D01*
X120688476Y-123390333D01*
X120736095Y-123295095D01*
X120545619Y-124247476D02*
X120498000Y-124295095D01*
X120450380Y-124390333D01*
X120450380Y-124628428D01*
X120498000Y-124723666D01*
X120545619Y-124771285D01*
X120640857Y-124818904D01*
X120736095Y-124818904D01*
X120878952Y-124771285D01*
X121450380Y-124199857D01*
X121450380Y-124818904D01*
G04 #@! TO.C,U3*
X53085904Y-96916380D02*
X53085904Y-97725904D01*
X53038285Y-97821142D01*
X52990666Y-97868761D01*
X52895428Y-97916380D01*
X52704952Y-97916380D01*
X52609714Y-97868761D01*
X52562095Y-97821142D01*
X52514476Y-97725904D01*
X52514476Y-96916380D01*
X52133523Y-96916380D02*
X51514476Y-96916380D01*
X51847809Y-97297333D01*
X51704952Y-97297333D01*
X51609714Y-97344952D01*
X51562095Y-97392571D01*
X51514476Y-97487809D01*
X51514476Y-97725904D01*
X51562095Y-97821142D01*
X51609714Y-97868761D01*
X51704952Y-97916380D01*
X51990666Y-97916380D01*
X52085904Y-97868761D01*
X52133523Y-97821142D01*
G04 #@! TO.C,U5*
X115616380Y-122674095D02*
X116425904Y-122674095D01*
X116521142Y-122721714D01*
X116568761Y-122769333D01*
X116616380Y-122864571D01*
X116616380Y-123055047D01*
X116568761Y-123150285D01*
X116521142Y-123197904D01*
X116425904Y-123245523D01*
X115616380Y-123245523D01*
X115616380Y-124197904D02*
X115616380Y-123721714D01*
X116092571Y-123674095D01*
X116044952Y-123721714D01*
X115997333Y-123816952D01*
X115997333Y-124055047D01*
X116044952Y-124150285D01*
X116092571Y-124197904D01*
X116187809Y-124245523D01*
X116425904Y-124245523D01*
X116521142Y-124197904D01*
X116568761Y-124150285D01*
X116616380Y-124055047D01*
X116616380Y-123816952D01*
X116568761Y-123721714D01*
X116521142Y-123674095D01*
G04 #@! TO.C,J3*
X47929333Y-68390380D02*
X47929333Y-69104666D01*
X47976952Y-69247523D01*
X48072190Y-69342761D01*
X48215047Y-69390380D01*
X48310285Y-69390380D01*
X47548380Y-68390380D02*
X46929333Y-68390380D01*
X47262666Y-68771333D01*
X47119809Y-68771333D01*
X47024571Y-68818952D01*
X46976952Y-68866571D01*
X46929333Y-68961809D01*
X46929333Y-69199904D01*
X46976952Y-69295142D01*
X47024571Y-69342761D01*
X47119809Y-69390380D01*
X47405523Y-69390380D01*
X47500761Y-69342761D01*
X47548380Y-69295142D01*
G04 #@! TO.C,C1*
X93862142Y-78686333D02*
X93909761Y-78638714D01*
X93957380Y-78495857D01*
X93957380Y-78400619D01*
X93909761Y-78257761D01*
X93814523Y-78162523D01*
X93719285Y-78114904D01*
X93528809Y-78067285D01*
X93385952Y-78067285D01*
X93195476Y-78114904D01*
X93100238Y-78162523D01*
X93005000Y-78257761D01*
X92957380Y-78400619D01*
X92957380Y-78495857D01*
X93005000Y-78638714D01*
X93052619Y-78686333D01*
X93957380Y-79638714D02*
X93957380Y-79067285D01*
X93957380Y-79353000D02*
X92957380Y-79353000D01*
X93100238Y-79257761D01*
X93195476Y-79162523D01*
X93243095Y-79067285D01*
G04 #@! TO.C,C4*
X91002142Y-82383333D02*
X91049761Y-82335714D01*
X91097380Y-82192857D01*
X91097380Y-82097619D01*
X91049761Y-81954761D01*
X90954523Y-81859523D01*
X90859285Y-81811904D01*
X90668809Y-81764285D01*
X90525952Y-81764285D01*
X90335476Y-81811904D01*
X90240238Y-81859523D01*
X90145000Y-81954761D01*
X90097380Y-82097619D01*
X90097380Y-82192857D01*
X90145000Y-82335714D01*
X90192619Y-82383333D01*
X90430714Y-83240476D02*
X91097380Y-83240476D01*
X90049761Y-83002380D02*
X90764047Y-82764285D01*
X90764047Y-83383333D01*
G04 #@! TO.C,R1*
X101399666Y-92814380D02*
X101733000Y-92338190D01*
X101971095Y-92814380D02*
X101971095Y-91814380D01*
X101590142Y-91814380D01*
X101494904Y-91862000D01*
X101447285Y-91909619D01*
X101399666Y-92004857D01*
X101399666Y-92147714D01*
X101447285Y-92242952D01*
X101494904Y-92290571D01*
X101590142Y-92338190D01*
X101971095Y-92338190D01*
X100447285Y-92814380D02*
X101018714Y-92814380D01*
X100733000Y-92814380D02*
X100733000Y-91814380D01*
X100828238Y-91957238D01*
X100923476Y-92052476D01*
X101018714Y-92100095D01*
G04 #@! TO.C,R2*
X106705666Y-89954380D02*
X107039000Y-89478190D01*
X107277095Y-89954380D02*
X107277095Y-88954380D01*
X106896142Y-88954380D01*
X106800904Y-89002000D01*
X106753285Y-89049619D01*
X106705666Y-89144857D01*
X106705666Y-89287714D01*
X106753285Y-89382952D01*
X106800904Y-89430571D01*
X106896142Y-89478190D01*
X107277095Y-89478190D01*
X106324714Y-89049619D02*
X106277095Y-89002000D01*
X106181857Y-88954380D01*
X105943761Y-88954380D01*
X105848523Y-89002000D01*
X105800904Y-89049619D01*
X105753285Y-89144857D01*
X105753285Y-89240095D01*
X105800904Y-89382952D01*
X106372333Y-89954380D01*
X105753285Y-89954380D01*
G04 #@! TO.C,U2*
X98623905Y-82777379D02*
X98623905Y-83586903D01*
X98576286Y-83682141D01*
X98528667Y-83729760D01*
X98433429Y-83777379D01*
X98242953Y-83777379D01*
X98147715Y-83729760D01*
X98100096Y-83682141D01*
X98052477Y-83586903D01*
X98052477Y-82777379D01*
X97623905Y-82872618D02*
X97576286Y-82824999D01*
X97481048Y-82777379D01*
X97242953Y-82777379D01*
X97147715Y-82824999D01*
X97100096Y-82872618D01*
X97052477Y-82967856D01*
X97052477Y-83063094D01*
X97100096Y-83205951D01*
X97671524Y-83777379D01*
X97052477Y-83777379D01*
G04 #@! TO.C,C15*
X45233857Y-89097142D02*
X45281476Y-89144761D01*
X45424333Y-89192380D01*
X45519571Y-89192380D01*
X45662428Y-89144761D01*
X45757666Y-89049523D01*
X45805285Y-88954285D01*
X45852904Y-88763809D01*
X45852904Y-88620952D01*
X45805285Y-88430476D01*
X45757666Y-88335238D01*
X45662428Y-88240000D01*
X45519571Y-88192380D01*
X45424333Y-88192380D01*
X45281476Y-88240000D01*
X45233857Y-88287619D01*
X44281476Y-89192380D02*
X44852904Y-89192380D01*
X44567190Y-89192380D02*
X44567190Y-88192380D01*
X44662428Y-88335238D01*
X44757666Y-88430476D01*
X44852904Y-88478095D01*
X43376714Y-88192380D02*
X43852904Y-88192380D01*
X43900523Y-88668571D01*
X43852904Y-88620952D01*
X43757666Y-88573333D01*
X43519571Y-88573333D01*
X43424333Y-88620952D01*
X43376714Y-88668571D01*
X43329095Y-88763809D01*
X43329095Y-89001904D01*
X43376714Y-89097142D01*
X43424333Y-89144761D01*
X43519571Y-89192380D01*
X43757666Y-89192380D01*
X43852904Y-89144761D01*
X43900523Y-89097142D01*
G04 #@! TO.C,C16*
X45233857Y-92145142D02*
X45281476Y-92192761D01*
X45424333Y-92240380D01*
X45519571Y-92240380D01*
X45662428Y-92192761D01*
X45757666Y-92097523D01*
X45805285Y-92002285D01*
X45852904Y-91811809D01*
X45852904Y-91668952D01*
X45805285Y-91478476D01*
X45757666Y-91383238D01*
X45662428Y-91288000D01*
X45519571Y-91240380D01*
X45424333Y-91240380D01*
X45281476Y-91288000D01*
X45233857Y-91335619D01*
X44281476Y-92240380D02*
X44852904Y-92240380D01*
X44567190Y-92240380D02*
X44567190Y-91240380D01*
X44662428Y-91383238D01*
X44757666Y-91478476D01*
X44852904Y-91526095D01*
X43424333Y-91240380D02*
X43614809Y-91240380D01*
X43710047Y-91288000D01*
X43757666Y-91335619D01*
X43852904Y-91478476D01*
X43900523Y-91668952D01*
X43900523Y-92049904D01*
X43852904Y-92145142D01*
X43805285Y-92192761D01*
X43710047Y-92240380D01*
X43519571Y-92240380D01*
X43424333Y-92192761D01*
X43376714Y-92145142D01*
X43329095Y-92049904D01*
X43329095Y-91811809D01*
X43376714Y-91716571D01*
X43424333Y-91668952D01*
X43519571Y-91621333D01*
X43710047Y-91621333D01*
X43805285Y-91668952D01*
X43852904Y-91716571D01*
X43900523Y-91811809D01*
G04 #@! TO.C,C18*
X104657142Y-121898142D02*
X104704761Y-121850523D01*
X104752380Y-121707666D01*
X104752380Y-121612428D01*
X104704761Y-121469571D01*
X104609523Y-121374333D01*
X104514285Y-121326714D01*
X104323809Y-121279095D01*
X104180952Y-121279095D01*
X103990476Y-121326714D01*
X103895238Y-121374333D01*
X103800000Y-121469571D01*
X103752380Y-121612428D01*
X103752380Y-121707666D01*
X103800000Y-121850523D01*
X103847619Y-121898142D01*
X104752380Y-122850523D02*
X104752380Y-122279095D01*
X104752380Y-122564809D02*
X103752380Y-122564809D01*
X103895238Y-122469571D01*
X103990476Y-122374333D01*
X104038095Y-122279095D01*
X104180952Y-123421952D02*
X104133333Y-123326714D01*
X104085714Y-123279095D01*
X103990476Y-123231476D01*
X103942857Y-123231476D01*
X103847619Y-123279095D01*
X103800000Y-123326714D01*
X103752380Y-123421952D01*
X103752380Y-123612428D01*
X103800000Y-123707666D01*
X103847619Y-123755285D01*
X103942857Y-123802904D01*
X103990476Y-123802904D01*
X104085714Y-123755285D01*
X104133333Y-123707666D01*
X104180952Y-123612428D01*
X104180952Y-123421952D01*
X104228571Y-123326714D01*
X104276190Y-123279095D01*
X104371428Y-123231476D01*
X104561904Y-123231476D01*
X104657142Y-123279095D01*
X104704761Y-123326714D01*
X104752380Y-123421952D01*
X104752380Y-123612428D01*
X104704761Y-123707666D01*
X104657142Y-123755285D01*
X104561904Y-123802904D01*
X104371428Y-123802904D01*
X104276190Y-123755285D01*
X104228571Y-123707666D01*
X104180952Y-123612428D01*
G04 #@! TO.C,SW1*
X88963333Y-144690761D02*
X88820476Y-144738380D01*
X88582380Y-144738380D01*
X88487142Y-144690761D01*
X88439523Y-144643142D01*
X88391904Y-144547904D01*
X88391904Y-144452666D01*
X88439523Y-144357428D01*
X88487142Y-144309809D01*
X88582380Y-144262190D01*
X88772857Y-144214571D01*
X88868095Y-144166952D01*
X88915714Y-144119333D01*
X88963333Y-144024095D01*
X88963333Y-143928857D01*
X88915714Y-143833619D01*
X88868095Y-143786000D01*
X88772857Y-143738380D01*
X88534761Y-143738380D01*
X88391904Y-143786000D01*
X88058571Y-143738380D02*
X87820476Y-144738380D01*
X87630000Y-144024095D01*
X87439523Y-144738380D01*
X87201428Y-143738380D01*
X86296666Y-144738380D02*
X86868095Y-144738380D01*
X86582380Y-144738380D02*
X86582380Y-143738380D01*
X86677619Y-143881238D01*
X86772857Y-143976476D01*
X86868095Y-144024095D01*
G04 #@! TO.C,J17*
X65282380Y-84788476D02*
X65996666Y-84788476D01*
X66139523Y-84740857D01*
X66234761Y-84645619D01*
X66282380Y-84502761D01*
X66282380Y-84407523D01*
X66282380Y-85788476D02*
X66282380Y-85217047D01*
X66282380Y-85502761D02*
X65282380Y-85502761D01*
X65425238Y-85407523D01*
X65520476Y-85312285D01*
X65568095Y-85217047D01*
X65282380Y-86121809D02*
X65282380Y-86788476D01*
X66282380Y-86359904D01*
G04 #@! TO.C,J18*
X65282380Y-95456476D02*
X65996666Y-95456476D01*
X66139523Y-95408857D01*
X66234761Y-95313619D01*
X66282380Y-95170761D01*
X66282380Y-95075523D01*
X66282380Y-96456476D02*
X66282380Y-95885047D01*
X66282380Y-96170761D02*
X65282380Y-96170761D01*
X65425238Y-96075523D01*
X65520476Y-95980285D01*
X65568095Y-95885047D01*
X65710952Y-97027904D02*
X65663333Y-96932666D01*
X65615714Y-96885047D01*
X65520476Y-96837428D01*
X65472857Y-96837428D01*
X65377619Y-96885047D01*
X65330000Y-96932666D01*
X65282380Y-97027904D01*
X65282380Y-97218380D01*
X65330000Y-97313619D01*
X65377619Y-97361238D01*
X65472857Y-97408857D01*
X65520476Y-97408857D01*
X65615714Y-97361238D01*
X65663333Y-97313619D01*
X65710952Y-97218380D01*
X65710952Y-97027904D01*
X65758571Y-96932666D01*
X65806190Y-96885047D01*
X65901428Y-96837428D01*
X66091904Y-96837428D01*
X66187142Y-96885047D01*
X66234761Y-96932666D01*
X66282380Y-97027904D01*
X66282380Y-97218380D01*
X66234761Y-97313619D01*
X66187142Y-97361238D01*
X66091904Y-97408857D01*
X65901428Y-97408857D01*
X65806190Y-97361238D01*
X65758571Y-97313619D01*
X65710952Y-97218380D01*
G04 #@! TO.C,D7*
X156807095Y-80368380D02*
X156807095Y-79368380D01*
X156569000Y-79368380D01*
X156426142Y-79416000D01*
X156330904Y-79511238D01*
X156283285Y-79606476D01*
X156235666Y-79796952D01*
X156235666Y-79939809D01*
X156283285Y-80130285D01*
X156330904Y-80225523D01*
X156426142Y-80320761D01*
X156569000Y-80368380D01*
X156807095Y-80368380D01*
X155902333Y-79368380D02*
X155235666Y-79368380D01*
X155664238Y-80368380D01*
G04 #@! TO.C,R5*
X161061666Y-80368380D02*
X161395000Y-79892190D01*
X161633095Y-80368380D02*
X161633095Y-79368380D01*
X161252142Y-79368380D01*
X161156904Y-79416000D01*
X161109285Y-79463619D01*
X161061666Y-79558857D01*
X161061666Y-79701714D01*
X161109285Y-79796952D01*
X161156904Y-79844571D01*
X161252142Y-79892190D01*
X161633095Y-79892190D01*
X160156904Y-79368380D02*
X160633095Y-79368380D01*
X160680714Y-79844571D01*
X160633095Y-79796952D01*
X160537857Y-79749333D01*
X160299761Y-79749333D01*
X160204523Y-79796952D01*
X160156904Y-79844571D01*
X160109285Y-79939809D01*
X160109285Y-80177904D01*
X160156904Y-80273142D01*
X160204523Y-80320761D01*
X160299761Y-80368380D01*
X160537857Y-80368380D01*
X160633095Y-80320761D01*
X160680714Y-80273142D01*
G04 #@! TO.C,R12*
X109603648Y-73048417D02*
X109936981Y-72572227D01*
X110175076Y-73048417D02*
X110175076Y-72048417D01*
X109794124Y-72048417D01*
X109698886Y-72096037D01*
X109651267Y-72143656D01*
X109603648Y-72238894D01*
X109603648Y-72381751D01*
X109651267Y-72476989D01*
X109698886Y-72524608D01*
X109794124Y-72572227D01*
X110175076Y-72572227D01*
X108651267Y-73048417D02*
X109222695Y-73048417D01*
X108936981Y-73048417D02*
X108936981Y-72048417D01*
X109032219Y-72191275D01*
X109127457Y-72286513D01*
X109222695Y-72334132D01*
X108270314Y-72143656D02*
X108222695Y-72096037D01*
X108127457Y-72048417D01*
X107889362Y-72048417D01*
X107794124Y-72096037D01*
X107746505Y-72143656D01*
X107698886Y-72238894D01*
X107698886Y-72334132D01*
X107746505Y-72476989D01*
X108317933Y-73048417D01*
X107698886Y-73048417D01*
G04 #@! TO.C,R20*
X114293857Y-73041418D02*
X114627190Y-72565228D01*
X114865285Y-73041418D02*
X114865285Y-72041418D01*
X114484333Y-72041418D01*
X114389095Y-72089038D01*
X114341476Y-72136657D01*
X114293857Y-72231895D01*
X114293857Y-72374752D01*
X114341476Y-72469990D01*
X114389095Y-72517609D01*
X114484333Y-72565228D01*
X114865285Y-72565228D01*
X113912904Y-72136657D02*
X113865285Y-72089038D01*
X113770047Y-72041418D01*
X113531952Y-72041418D01*
X113436714Y-72089038D01*
X113389095Y-72136657D01*
X113341476Y-72231895D01*
X113341476Y-72327133D01*
X113389095Y-72469990D01*
X113960523Y-73041418D01*
X113341476Y-73041418D01*
X112722428Y-72041418D02*
X112627190Y-72041418D01*
X112531952Y-72089038D01*
X112484333Y-72136657D01*
X112436714Y-72231895D01*
X112389095Y-72422371D01*
X112389095Y-72660466D01*
X112436714Y-72850942D01*
X112484333Y-72946180D01*
X112531952Y-72993799D01*
X112627190Y-73041418D01*
X112722428Y-73041418D01*
X112817666Y-72993799D01*
X112865285Y-72946180D01*
X112912904Y-72850942D01*
X112960523Y-72660466D01*
X112960523Y-72422371D01*
X112912904Y-72231895D01*
X112865285Y-72136657D01*
X112817666Y-72089038D01*
X112722428Y-72041418D01*
G04 #@! TD*
M02*
