G04 #@! TF.GenerationSoftware,KiCad,Pcbnew,(5.0.0)*
G04 #@! TF.CreationDate,2019-02-04T22:48:53-05:00*
G04 #@! TF.ProjectId,control board,636F6E74726F6C20626F6172642E6B69,rev?*
G04 #@! TF.SameCoordinates,Original*
G04 #@! TF.FileFunction,Legend,Top*
G04 #@! TF.FilePolarity,Positive*
%FSLAX46Y46*%
G04 Gerber Fmt 4.6, Leading zero omitted, Abs format (unit mm)*
G04 Created by KiCad (PCBNEW (5.0.0)) date 02/04/19 22:48:53*
%MOMM*%
%LPD*%
G01*
G04 APERTURE LIST*
%ADD10C,0.300000*%
%ADD11C,0.120000*%
%ADD12C,0.100000*%
%ADD13C,0.150000*%
G04 APERTURE END LIST*
D10*
X79438571Y-61829142D02*
X80581428Y-61829142D01*
X74216000Y-53701142D02*
X75358857Y-53701142D01*
X74787428Y-54272571D02*
X74787428Y-53129714D01*
X75930285Y-52772571D02*
X76858857Y-52772571D01*
X76358857Y-53344000D01*
X76573142Y-53344000D01*
X76716000Y-53415428D01*
X76787428Y-53486857D01*
X76858857Y-53629714D01*
X76858857Y-53986857D01*
X76787428Y-54129714D01*
X76716000Y-54201142D01*
X76573142Y-54272571D01*
X76144571Y-54272571D01*
X76001714Y-54201142D01*
X75930285Y-54129714D01*
X77501714Y-54129714D02*
X77573142Y-54201142D01*
X77501714Y-54272571D01*
X77430285Y-54201142D01*
X77501714Y-54129714D01*
X77501714Y-54272571D01*
X78073142Y-52772571D02*
X79001714Y-52772571D01*
X78501714Y-53344000D01*
X78716000Y-53344000D01*
X78858857Y-53415428D01*
X78930285Y-53486857D01*
X79001714Y-53629714D01*
X79001714Y-53986857D01*
X78930285Y-54129714D01*
X78858857Y-54201142D01*
X78716000Y-54272571D01*
X78287428Y-54272571D01*
X78144571Y-54201142D01*
X78073142Y-54129714D01*
X79430285Y-52772571D02*
X79930285Y-54272571D01*
X80430285Y-52772571D01*
X63627142Y-52844000D02*
X63484285Y-52772571D01*
X63270000Y-52772571D01*
X63055714Y-52844000D01*
X62912857Y-52986857D01*
X62841428Y-53129714D01*
X62770000Y-53415428D01*
X62770000Y-53629714D01*
X62841428Y-53915428D01*
X62912857Y-54058285D01*
X63055714Y-54201142D01*
X63270000Y-54272571D01*
X63412857Y-54272571D01*
X63627142Y-54201142D01*
X63698571Y-54129714D01*
X63698571Y-53629714D01*
X63412857Y-53629714D01*
X64341428Y-54272571D02*
X64341428Y-52772571D01*
X65198571Y-54272571D01*
X65198571Y-52772571D01*
X65912857Y-54272571D02*
X65912857Y-52772571D01*
X66270000Y-52772571D01*
X66484285Y-52844000D01*
X66627142Y-52986857D01*
X66698571Y-53129714D01*
X66770000Y-53415428D01*
X66770000Y-53629714D01*
X66698571Y-53915428D01*
X66627142Y-54058285D01*
X66484285Y-54201142D01*
X66270000Y-54272571D01*
X65912857Y-54272571D01*
X35752285Y-114719571D02*
X35752285Y-113219571D01*
X36252285Y-114291000D01*
X36752285Y-113219571D01*
X36752285Y-114719571D01*
X37395142Y-114291000D02*
X38109428Y-114291000D01*
X37252285Y-114719571D02*
X37752285Y-113219571D01*
X38252285Y-114719571D01*
X38538000Y-113219571D02*
X39395142Y-113219571D01*
X38966571Y-114719571D02*
X38966571Y-113219571D01*
X39895142Y-113933857D02*
X40395142Y-113933857D01*
X40609428Y-114719571D02*
X39895142Y-114719571D01*
X39895142Y-113219571D01*
X40609428Y-113219571D01*
X43252285Y-114576714D02*
X43180857Y-114648142D01*
X42966571Y-114719571D01*
X42823714Y-114719571D01*
X42609428Y-114648142D01*
X42466571Y-114505285D01*
X42395142Y-114362428D01*
X42323714Y-114076714D01*
X42323714Y-113862428D01*
X42395142Y-113576714D01*
X42466571Y-113433857D01*
X42609428Y-113291000D01*
X42823714Y-113219571D01*
X42966571Y-113219571D01*
X43180857Y-113291000D01*
X43252285Y-113362428D01*
X44109428Y-114719571D02*
X43966571Y-114648142D01*
X43895142Y-114576714D01*
X43823714Y-114433857D01*
X43823714Y-114005285D01*
X43895142Y-113862428D01*
X43966571Y-113791000D01*
X44109428Y-113719571D01*
X44323714Y-113719571D01*
X44466571Y-113791000D01*
X44538000Y-113862428D01*
X44609428Y-114005285D01*
X44609428Y-114433857D01*
X44538000Y-114576714D01*
X44466571Y-114648142D01*
X44323714Y-114719571D01*
X44109428Y-114719571D01*
X45252285Y-113719571D02*
X45252285Y-114719571D01*
X45252285Y-113862428D02*
X45323714Y-113791000D01*
X45466571Y-113719571D01*
X45680857Y-113719571D01*
X45823714Y-113791000D01*
X45895142Y-113933857D01*
X45895142Y-114719571D01*
X46395142Y-113719571D02*
X46966571Y-113719571D01*
X46609428Y-113219571D02*
X46609428Y-114505285D01*
X46680857Y-114648142D01*
X46823714Y-114719571D01*
X46966571Y-114719571D01*
X47466571Y-114719571D02*
X47466571Y-113719571D01*
X47466571Y-114005285D02*
X47538000Y-113862428D01*
X47609428Y-113791000D01*
X47752285Y-113719571D01*
X47895142Y-113719571D01*
X48609428Y-114719571D02*
X48466571Y-114648142D01*
X48395142Y-114576714D01*
X48323714Y-114433857D01*
X48323714Y-114005285D01*
X48395142Y-113862428D01*
X48466571Y-113791000D01*
X48609428Y-113719571D01*
X48823714Y-113719571D01*
X48966571Y-113791000D01*
X49038000Y-113862428D01*
X49109428Y-114005285D01*
X49109428Y-114433857D01*
X49038000Y-114576714D01*
X48966571Y-114648142D01*
X48823714Y-114719571D01*
X48609428Y-114719571D01*
X49966571Y-114719571D02*
X49823714Y-114648142D01*
X49752285Y-114505285D01*
X49752285Y-113219571D01*
X52180857Y-113933857D02*
X52395142Y-114005285D01*
X52466571Y-114076714D01*
X52538000Y-114219571D01*
X52538000Y-114433857D01*
X52466571Y-114576714D01*
X52395142Y-114648142D01*
X52252285Y-114719571D01*
X51680857Y-114719571D01*
X51680857Y-113219571D01*
X52180857Y-113219571D01*
X52323714Y-113291000D01*
X52395142Y-113362428D01*
X52466571Y-113505285D01*
X52466571Y-113648142D01*
X52395142Y-113791000D01*
X52323714Y-113862428D01*
X52180857Y-113933857D01*
X51680857Y-113933857D01*
X53395142Y-114719571D02*
X53252285Y-114648142D01*
X53180857Y-114576714D01*
X53109428Y-114433857D01*
X53109428Y-114005285D01*
X53180857Y-113862428D01*
X53252285Y-113791000D01*
X53395142Y-113719571D01*
X53609428Y-113719571D01*
X53752285Y-113791000D01*
X53823714Y-113862428D01*
X53895142Y-114005285D01*
X53895142Y-114433857D01*
X53823714Y-114576714D01*
X53752285Y-114648142D01*
X53609428Y-114719571D01*
X53395142Y-114719571D01*
X55180857Y-114719571D02*
X55180857Y-113933857D01*
X55109428Y-113791000D01*
X54966571Y-113719571D01*
X54680857Y-113719571D01*
X54538000Y-113791000D01*
X55180857Y-114648142D02*
X55038000Y-114719571D01*
X54680857Y-114719571D01*
X54538000Y-114648142D01*
X54466571Y-114505285D01*
X54466571Y-114362428D01*
X54538000Y-114219571D01*
X54680857Y-114148142D01*
X55038000Y-114148142D01*
X55180857Y-114076714D01*
X55895142Y-114719571D02*
X55895142Y-113719571D01*
X55895142Y-114005285D02*
X55966571Y-113862428D01*
X56038000Y-113791000D01*
X56180857Y-113719571D01*
X56323714Y-113719571D01*
X57466571Y-114719571D02*
X57466571Y-113219571D01*
X57466571Y-114648142D02*
X57323714Y-114719571D01*
X57038000Y-114719571D01*
X56895142Y-114648142D01*
X56823714Y-114576714D01*
X56752285Y-114433857D01*
X56752285Y-114005285D01*
X56823714Y-113862428D01*
X56895142Y-113791000D01*
X57038000Y-113719571D01*
X57323714Y-113719571D01*
X57466571Y-113791000D01*
X59252285Y-113362428D02*
X59323714Y-113291000D01*
X59466571Y-113219571D01*
X59823714Y-113219571D01*
X59966571Y-113291000D01*
X60038000Y-113362428D01*
X60109428Y-113505285D01*
X60109428Y-113648142D01*
X60038000Y-113862428D01*
X59180857Y-114719571D01*
X60109428Y-114719571D01*
X61038000Y-113219571D02*
X61180857Y-113219571D01*
X61323714Y-113291000D01*
X61395142Y-113362428D01*
X61466571Y-113505285D01*
X61538000Y-113791000D01*
X61538000Y-114148142D01*
X61466571Y-114433857D01*
X61395142Y-114576714D01*
X61323714Y-114648142D01*
X61180857Y-114719571D01*
X61038000Y-114719571D01*
X60895142Y-114648142D01*
X60823714Y-114576714D01*
X60752285Y-114433857D01*
X60680857Y-114148142D01*
X60680857Y-113791000D01*
X60752285Y-113505285D01*
X60823714Y-113362428D01*
X60895142Y-113291000D01*
X61038000Y-113219571D01*
X62966571Y-114719571D02*
X62109428Y-114719571D01*
X62538000Y-114719571D02*
X62538000Y-113219571D01*
X62395142Y-113433857D01*
X62252285Y-113576714D01*
X62109428Y-113648142D01*
X63680857Y-114719571D02*
X63966571Y-114719571D01*
X64109428Y-114648142D01*
X64180857Y-114576714D01*
X64323714Y-114362428D01*
X64395142Y-114076714D01*
X64395142Y-113505285D01*
X64323714Y-113362428D01*
X64252285Y-113291000D01*
X64109428Y-113219571D01*
X63823714Y-113219571D01*
X63680857Y-113291000D01*
X63609428Y-113362428D01*
X63538000Y-113505285D01*
X63538000Y-113862428D01*
X63609428Y-114005285D01*
X63680857Y-114076714D01*
X63823714Y-114148142D01*
X64109428Y-114148142D01*
X64252285Y-114076714D01*
X64323714Y-114005285D01*
X64395142Y-113862428D01*
X47645142Y-117269571D02*
X47145142Y-116555285D01*
X46788000Y-117269571D02*
X46788000Y-115769571D01*
X47359428Y-115769571D01*
X47502285Y-115841000D01*
X47573714Y-115912428D01*
X47645142Y-116055285D01*
X47645142Y-116269571D01*
X47573714Y-116412428D01*
X47502285Y-116483857D01*
X47359428Y-116555285D01*
X46788000Y-116555285D01*
X48859428Y-117198142D02*
X48716571Y-117269571D01*
X48430857Y-117269571D01*
X48288000Y-117198142D01*
X48216571Y-117055285D01*
X48216571Y-116483857D01*
X48288000Y-116341000D01*
X48430857Y-116269571D01*
X48716571Y-116269571D01*
X48859428Y-116341000D01*
X48930857Y-116483857D01*
X48930857Y-116626714D01*
X48216571Y-116769571D01*
X49430857Y-116269571D02*
X49788000Y-117269571D01*
X50145142Y-116269571D01*
X50716571Y-117126714D02*
X50788000Y-117198142D01*
X50716571Y-117269571D01*
X50645142Y-117198142D01*
X50716571Y-117126714D01*
X50716571Y-117269571D01*
X53359428Y-117269571D02*
X52502285Y-117269571D01*
X52930857Y-117269571D02*
X52930857Y-115769571D01*
X52788000Y-115983857D01*
X52645142Y-116126714D01*
X52502285Y-116198142D01*
D11*
G04 #@! TO.C,C9*
X94998000Y-135210733D02*
X94998000Y-135553267D01*
X93978000Y-135210733D02*
X93978000Y-135553267D01*
G04 #@! TO.C,C5*
X102491000Y-135450733D02*
X102491000Y-135793267D01*
X101471000Y-135450733D02*
X101471000Y-135793267D01*
G04 #@! TO.C,C6*
X101995109Y-130292209D02*
X101995109Y-129949675D01*
X100975109Y-130292209D02*
X100975109Y-129949675D01*
G04 #@! TO.C,C7*
X95265733Y-128649000D02*
X95608267Y-128649000D01*
X95265733Y-129669000D02*
X95608267Y-129669000D01*
G04 #@! TO.C,C8*
X94998000Y-131983267D02*
X94998000Y-131640733D01*
X93978000Y-131983267D02*
X93978000Y-131640733D01*
G04 #@! TO.C,C10*
X97467267Y-136781000D02*
X97124733Y-136781000D01*
X97467267Y-135761000D02*
X97124733Y-135761000D01*
G04 #@! TO.C,J7*
X99694000Y-54930000D02*
G75*
G03X99694000Y-58450000I0J-1760000D01*
G01*
X121694000Y-58450000D02*
G75*
G03X121694000Y-54930000I0J1760000D01*
G01*
X99694000Y-54930000D02*
X101584000Y-54930000D01*
X99694000Y-58450000D02*
X101584000Y-58450000D01*
X121694000Y-54930000D02*
X119804000Y-54930000D01*
X121694000Y-58450000D02*
X119804000Y-58450000D01*
X110694000Y-49290000D02*
X101584000Y-49290000D01*
X101584000Y-49290000D02*
X101584000Y-59110000D01*
X101584000Y-59110000D02*
X108884000Y-59110000D01*
X108884000Y-59110000D02*
X108884000Y-60510000D01*
X108884000Y-60510000D02*
X110694000Y-60510000D01*
X110694000Y-49290000D02*
X119804000Y-49290000D01*
X119804000Y-49290000D02*
X119804000Y-59110000D01*
X119804000Y-59110000D02*
X112504000Y-59110000D01*
X112504000Y-59110000D02*
X112504000Y-60510000D01*
X112504000Y-60510000D02*
X110694000Y-60510000D01*
X104194000Y-49050000D02*
X101344000Y-49050000D01*
X101344000Y-49050000D02*
X101344000Y-51900000D01*
G04 #@! TO.C,R13*
X81235733Y-69721000D02*
X81578267Y-69721000D01*
X81235733Y-70741000D02*
X81578267Y-70741000D01*
G04 #@! TO.C,R14*
X85680733Y-70741000D02*
X86023267Y-70741000D01*
X85680733Y-69721000D02*
X86023267Y-69721000D01*
G04 #@! TO.C,R3*
X109345000Y-127068733D02*
X109345000Y-127411267D01*
X110365000Y-127068733D02*
X110365000Y-127411267D01*
G04 #@! TO.C,R4*
X112270000Y-127068733D02*
X112270000Y-127411267D01*
X111250000Y-127068733D02*
X111250000Y-127411267D01*
G04 #@! TO.C,C17*
X97223733Y-132840000D02*
X97566267Y-132840000D01*
X97223733Y-133860000D02*
X97566267Y-133860000D01*
G04 #@! TO.C,J9*
X141292000Y-84988000D02*
X137092000Y-84988000D01*
X137092000Y-84988000D02*
X137092000Y-101288000D01*
X137092000Y-101288000D02*
X141292000Y-101288000D01*
X141292000Y-101288000D02*
X141292000Y-84988000D01*
X139192000Y-86538000D02*
X139942000Y-86538000D01*
X139942000Y-86538000D02*
X140542000Y-87138000D01*
X140542000Y-87138000D02*
X140542000Y-93138000D01*
X139192000Y-99738000D02*
X139942000Y-99738000D01*
X139942000Y-99738000D02*
X140542000Y-99138000D01*
X140542000Y-99138000D02*
X140542000Y-93138000D01*
X137692000Y-84638000D02*
X136692000Y-84638000D01*
X136692000Y-84638000D02*
X136692000Y-85638000D01*
G04 #@! TO.C,D8*
X83717000Y-60987000D02*
X81257000Y-60987000D01*
X81257000Y-60987000D02*
X81257000Y-62457000D01*
X81257000Y-62457000D02*
X83717000Y-62457000D01*
G04 #@! TO.C,R6*
X89095733Y-62232000D02*
X89438267Y-62232000D01*
X89095733Y-61212000D02*
X89438267Y-61212000D01*
G04 #@! TD*
D12*
G04 #@! TO.C,P1*
X123608000Y-130644000D02*
G75*
G03X123608000Y-130644000I-2450000J0D01*
G01*
X123608000Y-72644000D02*
G75*
G03X123608000Y-72644000I-2450000J0D01*
G01*
X74608000Y-72644000D02*
G75*
G03X74608000Y-72644000I-2450000J0D01*
G01*
X74608000Y-130644000D02*
G75*
G03X74608000Y-130644000I-2450000J0D01*
G01*
X72716000Y-76802000D02*
X72716000Y-78226000D01*
X74140000Y-78226000D01*
X74140000Y-76802000D01*
X72716000Y-76802000D01*
X71600000Y-77514000D02*
G75*
G03X71600000Y-77514000I-712000J0D01*
G01*
X74140000Y-80054000D02*
G75*
G03X74140000Y-80054000I-712000J0D01*
G01*
X71600000Y-80054000D02*
G75*
G03X71600000Y-80054000I-712000J0D01*
G01*
X74140000Y-82594000D02*
G75*
G03X74140000Y-82594000I-712000J0D01*
G01*
X71600000Y-82594000D02*
G75*
G03X71600000Y-82594000I-712000J0D01*
G01*
X74140000Y-85134000D02*
G75*
G03X74140000Y-85134000I-712000J0D01*
G01*
X71600000Y-85134000D02*
G75*
G03X71600000Y-85134000I-712000J0D01*
G01*
X74140000Y-87674000D02*
G75*
G03X74140000Y-87674000I-712000J0D01*
G01*
X71600000Y-87674000D02*
G75*
G03X71600000Y-87674000I-712000J0D01*
G01*
X74140000Y-90214000D02*
G75*
G03X74140000Y-90214000I-712000J0D01*
G01*
X71600000Y-90214000D02*
G75*
G03X71600000Y-90214000I-712000J0D01*
G01*
X74140000Y-92754000D02*
G75*
G03X74140000Y-92754000I-712000J0D01*
G01*
X71600000Y-92754000D02*
G75*
G03X71600000Y-92754000I-712000J0D01*
G01*
X74140000Y-95294000D02*
G75*
G03X74140000Y-95294000I-712000J0D01*
G01*
X71600000Y-95294000D02*
G75*
G03X71600000Y-95294000I-712000J0D01*
G01*
X74140000Y-97834000D02*
G75*
G03X74140000Y-97834000I-712000J0D01*
G01*
X71600000Y-97834000D02*
G75*
G03X71600000Y-97834000I-712000J0D01*
G01*
X74140000Y-100374000D02*
G75*
G03X74140000Y-100374000I-712000J0D01*
G01*
X71600000Y-100374000D02*
G75*
G03X71600000Y-100374000I-712000J0D01*
G01*
X74140000Y-102914000D02*
G75*
G03X74140000Y-102914000I-712000J0D01*
G01*
X71600000Y-102914000D02*
G75*
G03X71600000Y-102914000I-712000J0D01*
G01*
X74140000Y-105454000D02*
G75*
G03X74140000Y-105454000I-712000J0D01*
G01*
X71600000Y-105454000D02*
G75*
G03X71600000Y-105454000I-712000J0D01*
G01*
X74140000Y-107994000D02*
G75*
G03X74140000Y-107994000I-712000J0D01*
G01*
X71600000Y-107994000D02*
G75*
G03X71600000Y-107994000I-712000J0D01*
G01*
X74140000Y-110534000D02*
G75*
G03X74140000Y-110534000I-712000J0D01*
G01*
X71600000Y-110534000D02*
G75*
G03X71600000Y-110534000I-712000J0D01*
G01*
X74140000Y-113074000D02*
G75*
G03X74140000Y-113074000I-712000J0D01*
G01*
X71600000Y-113074000D02*
G75*
G03X71600000Y-113074000I-712000J0D01*
G01*
X74140000Y-115614000D02*
G75*
G03X74140000Y-115614000I-712000J0D01*
G01*
X71600000Y-115614000D02*
G75*
G03X71600000Y-115614000I-712000J0D01*
G01*
X74140000Y-118154000D02*
G75*
G03X74140000Y-118154000I-712000J0D01*
G01*
X71600000Y-118154000D02*
G75*
G03X71600000Y-118154000I-712000J0D01*
G01*
X74140000Y-120694000D02*
G75*
G03X74140000Y-120694000I-712000J0D01*
G01*
X71600000Y-120694000D02*
G75*
G03X71600000Y-120694000I-712000J0D01*
G01*
X74140000Y-123234000D02*
G75*
G03X74140000Y-123234000I-712000J0D01*
G01*
X71600000Y-123234000D02*
G75*
G03X71600000Y-123234000I-712000J0D01*
G01*
X74140000Y-125774000D02*
G75*
G03X74140000Y-125774000I-712000J0D01*
G01*
X71600000Y-125774000D02*
G75*
G03X71600000Y-125774000I-712000J0D01*
G01*
G04 #@! TD*
G04 #@! TO.C,C9*
D13*
X96275142Y-135548666D02*
X96322761Y-135596285D01*
X96370380Y-135739142D01*
X96370380Y-135834380D01*
X96322761Y-135977238D01*
X96227523Y-136072476D01*
X96132285Y-136120095D01*
X95941809Y-136167714D01*
X95798952Y-136167714D01*
X95608476Y-136120095D01*
X95513238Y-136072476D01*
X95418000Y-135977238D01*
X95370380Y-135834380D01*
X95370380Y-135739142D01*
X95418000Y-135596285D01*
X95465619Y-135548666D01*
X96370380Y-135072476D02*
X96370380Y-134882000D01*
X96322761Y-134786761D01*
X96275142Y-134739142D01*
X96132285Y-134643904D01*
X95941809Y-134596285D01*
X95560857Y-134596285D01*
X95465619Y-134643904D01*
X95418000Y-134691523D01*
X95370380Y-134786761D01*
X95370380Y-134977238D01*
X95418000Y-135072476D01*
X95465619Y-135120095D01*
X95560857Y-135167714D01*
X95798952Y-135167714D01*
X95894190Y-135120095D01*
X95941809Y-135072476D01*
X95989428Y-134977238D01*
X95989428Y-134786761D01*
X95941809Y-134691523D01*
X95894190Y-134643904D01*
X95798952Y-134596285D01*
G04 #@! TO.C,C5*
X103768142Y-135788666D02*
X103815761Y-135836285D01*
X103863380Y-135979142D01*
X103863380Y-136074380D01*
X103815761Y-136217238D01*
X103720523Y-136312476D01*
X103625285Y-136360095D01*
X103434809Y-136407714D01*
X103291952Y-136407714D01*
X103101476Y-136360095D01*
X103006238Y-136312476D01*
X102911000Y-136217238D01*
X102863380Y-136074380D01*
X102863380Y-135979142D01*
X102911000Y-135836285D01*
X102958619Y-135788666D01*
X102863380Y-134883904D02*
X102863380Y-135360095D01*
X103339571Y-135407714D01*
X103291952Y-135360095D01*
X103244333Y-135264857D01*
X103244333Y-135026761D01*
X103291952Y-134931523D01*
X103339571Y-134883904D01*
X103434809Y-134836285D01*
X103672904Y-134836285D01*
X103768142Y-134883904D01*
X103815761Y-134931523D01*
X103863380Y-135026761D01*
X103863380Y-135264857D01*
X103815761Y-135360095D01*
X103768142Y-135407714D01*
G04 #@! TO.C,C6*
X100412251Y-130287608D02*
X100459870Y-130335227D01*
X100507489Y-130478084D01*
X100507489Y-130573322D01*
X100459870Y-130716180D01*
X100364632Y-130811418D01*
X100269394Y-130859037D01*
X100078918Y-130906656D01*
X99936061Y-130906656D01*
X99745585Y-130859037D01*
X99650347Y-130811418D01*
X99555109Y-130716180D01*
X99507489Y-130573322D01*
X99507489Y-130478084D01*
X99555109Y-130335227D01*
X99602728Y-130287608D01*
X99507489Y-129430465D02*
X99507489Y-129620942D01*
X99555109Y-129716180D01*
X99602728Y-129763799D01*
X99745585Y-129859037D01*
X99936061Y-129906656D01*
X100317013Y-129906656D01*
X100412251Y-129859037D01*
X100459870Y-129811418D01*
X100507489Y-129716180D01*
X100507489Y-129525703D01*
X100459870Y-129430465D01*
X100412251Y-129382846D01*
X100317013Y-129335227D01*
X100078918Y-129335227D01*
X99983680Y-129382846D01*
X99936061Y-129430465D01*
X99888442Y-129525703D01*
X99888442Y-129716180D01*
X99936061Y-129811418D01*
X99983680Y-129859037D01*
X100078918Y-129906656D01*
G04 #@! TO.C,C7*
X98205333Y-129516142D02*
X98157714Y-129563761D01*
X98014857Y-129611380D01*
X97919619Y-129611380D01*
X97776761Y-129563761D01*
X97681523Y-129468523D01*
X97633904Y-129373285D01*
X97586285Y-129182809D01*
X97586285Y-129039952D01*
X97633904Y-128849476D01*
X97681523Y-128754238D01*
X97776761Y-128659000D01*
X97919619Y-128611380D01*
X98014857Y-128611380D01*
X98157714Y-128659000D01*
X98205333Y-128706619D01*
X98538666Y-128611380D02*
X99205333Y-128611380D01*
X98776761Y-129611380D01*
G04 #@! TO.C,C8*
X93415142Y-131978666D02*
X93462761Y-132026285D01*
X93510380Y-132169142D01*
X93510380Y-132264380D01*
X93462761Y-132407238D01*
X93367523Y-132502476D01*
X93272285Y-132550095D01*
X93081809Y-132597714D01*
X92938952Y-132597714D01*
X92748476Y-132550095D01*
X92653238Y-132502476D01*
X92558000Y-132407238D01*
X92510380Y-132264380D01*
X92510380Y-132169142D01*
X92558000Y-132026285D01*
X92605619Y-131978666D01*
X92938952Y-131407238D02*
X92891333Y-131502476D01*
X92843714Y-131550095D01*
X92748476Y-131597714D01*
X92700857Y-131597714D01*
X92605619Y-131550095D01*
X92558000Y-131502476D01*
X92510380Y-131407238D01*
X92510380Y-131216761D01*
X92558000Y-131121523D01*
X92605619Y-131073904D01*
X92700857Y-131026285D01*
X92748476Y-131026285D01*
X92843714Y-131073904D01*
X92891333Y-131121523D01*
X92938952Y-131216761D01*
X92938952Y-131407238D01*
X92986571Y-131502476D01*
X93034190Y-131550095D01*
X93129428Y-131597714D01*
X93319904Y-131597714D01*
X93415142Y-131550095D01*
X93462761Y-131502476D01*
X93510380Y-131407238D01*
X93510380Y-131216761D01*
X93462761Y-131121523D01*
X93415142Y-131073904D01*
X93319904Y-131026285D01*
X93129428Y-131026285D01*
X93034190Y-131073904D01*
X92986571Y-131121523D01*
X92938952Y-131216761D01*
G04 #@! TO.C,C10*
X96653142Y-138058142D02*
X96605523Y-138105761D01*
X96462666Y-138153380D01*
X96367428Y-138153380D01*
X96224571Y-138105761D01*
X96129333Y-138010523D01*
X96081714Y-137915285D01*
X96034095Y-137724809D01*
X96034095Y-137581952D01*
X96081714Y-137391476D01*
X96129333Y-137296238D01*
X96224571Y-137201000D01*
X96367428Y-137153380D01*
X96462666Y-137153380D01*
X96605523Y-137201000D01*
X96653142Y-137248619D01*
X97605523Y-138153380D02*
X97034095Y-138153380D01*
X97319809Y-138153380D02*
X97319809Y-137153380D01*
X97224571Y-137296238D01*
X97129333Y-137391476D01*
X97034095Y-137439095D01*
X98224571Y-137153380D02*
X98319809Y-137153380D01*
X98415047Y-137201000D01*
X98462666Y-137248619D01*
X98510285Y-137343857D01*
X98557904Y-137534333D01*
X98557904Y-137772428D01*
X98510285Y-137962904D01*
X98462666Y-138058142D01*
X98415047Y-138105761D01*
X98319809Y-138153380D01*
X98224571Y-138153380D01*
X98129333Y-138105761D01*
X98081714Y-138058142D01*
X98034095Y-137962904D01*
X97986476Y-137772428D01*
X97986476Y-137534333D01*
X98034095Y-137343857D01*
X98081714Y-137248619D01*
X98129333Y-137201000D01*
X98224571Y-137153380D01*
G04 #@! TO.C,P1*
X116863904Y-71064380D02*
X116863904Y-70064380D01*
X117244857Y-70064380D01*
X117340095Y-70112000D01*
X117387714Y-70159619D01*
X117435333Y-70254857D01*
X117435333Y-70397714D01*
X117387714Y-70492952D01*
X117340095Y-70540571D01*
X117244857Y-70588190D01*
X116863904Y-70588190D01*
X118387714Y-71064380D02*
X117816285Y-71064380D01*
X118102000Y-71064380D02*
X118102000Y-70064380D01*
X118006761Y-70207238D01*
X117911523Y-70302476D01*
X117816285Y-70350095D01*
G04 #@! TO.C,J7*
X110360666Y-47652380D02*
X110360666Y-48366666D01*
X110313047Y-48509523D01*
X110217809Y-48604761D01*
X110074952Y-48652380D01*
X109979714Y-48652380D01*
X110741619Y-47652380D02*
X111408285Y-47652380D01*
X110979714Y-48652380D01*
G04 #@! TO.C,R13*
X80764142Y-69253380D02*
X80430809Y-68777190D01*
X80192714Y-69253380D02*
X80192714Y-68253380D01*
X80573666Y-68253380D01*
X80668904Y-68301000D01*
X80716523Y-68348619D01*
X80764142Y-68443857D01*
X80764142Y-68586714D01*
X80716523Y-68681952D01*
X80668904Y-68729571D01*
X80573666Y-68777190D01*
X80192714Y-68777190D01*
X81716523Y-69253380D02*
X81145095Y-69253380D01*
X81430809Y-69253380D02*
X81430809Y-68253380D01*
X81335571Y-68396238D01*
X81240333Y-68491476D01*
X81145095Y-68539095D01*
X82049857Y-68253380D02*
X82668904Y-68253380D01*
X82335571Y-68634333D01*
X82478428Y-68634333D01*
X82573666Y-68681952D01*
X82621285Y-68729571D01*
X82668904Y-68824809D01*
X82668904Y-69062904D01*
X82621285Y-69158142D01*
X82573666Y-69205761D01*
X82478428Y-69253380D01*
X82192714Y-69253380D01*
X82097476Y-69205761D01*
X82049857Y-69158142D01*
G04 #@! TO.C,R14*
X85209142Y-69253380D02*
X84875809Y-68777190D01*
X84637714Y-69253380D02*
X84637714Y-68253380D01*
X85018666Y-68253380D01*
X85113904Y-68301000D01*
X85161523Y-68348619D01*
X85209142Y-68443857D01*
X85209142Y-68586714D01*
X85161523Y-68681952D01*
X85113904Y-68729571D01*
X85018666Y-68777190D01*
X84637714Y-68777190D01*
X86161523Y-69253380D02*
X85590095Y-69253380D01*
X85875809Y-69253380D02*
X85875809Y-68253380D01*
X85780571Y-68396238D01*
X85685333Y-68491476D01*
X85590095Y-68539095D01*
X87018666Y-68586714D02*
X87018666Y-69253380D01*
X86780571Y-68205761D02*
X86542476Y-68920047D01*
X87161523Y-68920047D01*
G04 #@! TO.C,R3*
X108783380Y-127420666D02*
X108307190Y-127754000D01*
X108783380Y-127992095D02*
X107783380Y-127992095D01*
X107783380Y-127611142D01*
X107831000Y-127515904D01*
X107878619Y-127468285D01*
X107973857Y-127420666D01*
X108116714Y-127420666D01*
X108211952Y-127468285D01*
X108259571Y-127515904D01*
X108307190Y-127611142D01*
X108307190Y-127992095D01*
X107783380Y-127087333D02*
X107783380Y-126468285D01*
X108164333Y-126801619D01*
X108164333Y-126658761D01*
X108211952Y-126563523D01*
X108259571Y-126515904D01*
X108354809Y-126468285D01*
X108592904Y-126468285D01*
X108688142Y-126515904D01*
X108735761Y-126563523D01*
X108783380Y-126658761D01*
X108783380Y-126944476D01*
X108735761Y-127039714D01*
X108688142Y-127087333D01*
G04 #@! TO.C,R4*
X113642380Y-127406666D02*
X113166190Y-127740000D01*
X113642380Y-127978095D02*
X112642380Y-127978095D01*
X112642380Y-127597142D01*
X112690000Y-127501904D01*
X112737619Y-127454285D01*
X112832857Y-127406666D01*
X112975714Y-127406666D01*
X113070952Y-127454285D01*
X113118571Y-127501904D01*
X113166190Y-127597142D01*
X113166190Y-127978095D01*
X112975714Y-126549523D02*
X113642380Y-126549523D01*
X112594761Y-126787619D02*
X113309047Y-127025714D01*
X113309047Y-126406666D01*
G04 #@! TO.C,J8*
X71040666Y-49736380D02*
X71040666Y-50450666D01*
X70993047Y-50593523D01*
X70897809Y-50688761D01*
X70754952Y-50736380D01*
X70659714Y-50736380D01*
X71659714Y-50164952D02*
X71564476Y-50117333D01*
X71516857Y-50069714D01*
X71469238Y-49974476D01*
X71469238Y-49926857D01*
X71516857Y-49831619D01*
X71564476Y-49784000D01*
X71659714Y-49736380D01*
X71850190Y-49736380D01*
X71945428Y-49784000D01*
X71993047Y-49831619D01*
X72040666Y-49926857D01*
X72040666Y-49974476D01*
X71993047Y-50069714D01*
X71945428Y-50117333D01*
X71850190Y-50164952D01*
X71659714Y-50164952D01*
X71564476Y-50212571D01*
X71516857Y-50260190D01*
X71469238Y-50355428D01*
X71469238Y-50545904D01*
X71516857Y-50641142D01*
X71564476Y-50688761D01*
X71659714Y-50736380D01*
X71850190Y-50736380D01*
X71945428Y-50688761D01*
X71993047Y-50641142D01*
X72040666Y-50545904D01*
X72040666Y-50355428D01*
X71993047Y-50260190D01*
X71945428Y-50212571D01*
X71850190Y-50164952D01*
G04 #@! TO.C,C17*
X96752142Y-132277142D02*
X96704523Y-132324761D01*
X96561666Y-132372380D01*
X96466428Y-132372380D01*
X96323571Y-132324761D01*
X96228333Y-132229523D01*
X96180714Y-132134285D01*
X96133095Y-131943809D01*
X96133095Y-131800952D01*
X96180714Y-131610476D01*
X96228333Y-131515238D01*
X96323571Y-131420000D01*
X96466428Y-131372380D01*
X96561666Y-131372380D01*
X96704523Y-131420000D01*
X96752142Y-131467619D01*
X97704523Y-132372380D02*
X97133095Y-132372380D01*
X97418809Y-132372380D02*
X97418809Y-131372380D01*
X97323571Y-131515238D01*
X97228333Y-131610476D01*
X97133095Y-131658095D01*
X98037857Y-131372380D02*
X98704523Y-131372380D01*
X98275952Y-132372380D01*
G04 #@! TO.C,J9*
X142144380Y-93471333D02*
X142858666Y-93471333D01*
X143001523Y-93518952D01*
X143096761Y-93614190D01*
X143144380Y-93757047D01*
X143144380Y-93852285D01*
X143144380Y-92947523D02*
X143144380Y-92757047D01*
X143096761Y-92661809D01*
X143049142Y-92614190D01*
X142906285Y-92518952D01*
X142715809Y-92471333D01*
X142334857Y-92471333D01*
X142239619Y-92518952D01*
X142192000Y-92566571D01*
X142144380Y-92661809D01*
X142144380Y-92852285D01*
X142192000Y-92947523D01*
X142239619Y-92995142D01*
X142334857Y-93042761D01*
X142572952Y-93042761D01*
X142668190Y-92995142D01*
X142715809Y-92947523D01*
X142763428Y-92852285D01*
X142763428Y-92661809D01*
X142715809Y-92566571D01*
X142668190Y-92518952D01*
X142572952Y-92471333D01*
X135596761Y-99495142D02*
X135644380Y-99352285D01*
X135644380Y-99114190D01*
X135596761Y-99018952D01*
X135549142Y-98971333D01*
X135453904Y-98923714D01*
X135358666Y-98923714D01*
X135263428Y-98971333D01*
X135215809Y-99018952D01*
X135168190Y-99114190D01*
X135120571Y-99304666D01*
X135072952Y-99399904D01*
X135025333Y-99447523D01*
X134930095Y-99495142D01*
X134834857Y-99495142D01*
X134739619Y-99447523D01*
X134692000Y-99399904D01*
X134644380Y-99304666D01*
X134644380Y-99066571D01*
X134692000Y-98923714D01*
X134977714Y-98590380D02*
X135644380Y-98399904D01*
X135168190Y-98209428D01*
X135644380Y-98018952D01*
X134977714Y-97828476D01*
X135644380Y-97447523D02*
X134977714Y-97447523D01*
X134644380Y-97447523D02*
X134692000Y-97495142D01*
X134739619Y-97447523D01*
X134692000Y-97399904D01*
X134644380Y-97447523D01*
X134739619Y-97447523D01*
X134977714Y-97114190D02*
X134977714Y-96733238D01*
X134644380Y-96971333D02*
X135501523Y-96971333D01*
X135596761Y-96923714D01*
X135644380Y-96828476D01*
X135644380Y-96733238D01*
X135596761Y-95971333D02*
X135644380Y-96066571D01*
X135644380Y-96257047D01*
X135596761Y-96352285D01*
X135549142Y-96399904D01*
X135453904Y-96447523D01*
X135168190Y-96447523D01*
X135072952Y-96399904D01*
X135025333Y-96352285D01*
X134977714Y-96257047D01*
X134977714Y-96066571D01*
X135025333Y-95971333D01*
X135644380Y-95542761D02*
X134644380Y-95542761D01*
X135644380Y-95114190D02*
X135120571Y-95114190D01*
X135025333Y-95161809D01*
X134977714Y-95257047D01*
X134977714Y-95399904D01*
X135025333Y-95495142D01*
X135072952Y-95542761D01*
X135739619Y-94876095D02*
X135739619Y-94114190D01*
X135549142Y-93304666D02*
X135596761Y-93352285D01*
X135644380Y-93495142D01*
X135644380Y-93590380D01*
X135596761Y-93733238D01*
X135501523Y-93828476D01*
X135406285Y-93876095D01*
X135215809Y-93923714D01*
X135072952Y-93923714D01*
X134882476Y-93876095D01*
X134787238Y-93828476D01*
X134692000Y-93733238D01*
X134644380Y-93590380D01*
X134644380Y-93495142D01*
X134692000Y-93352285D01*
X134739619Y-93304666D01*
X135644380Y-92733238D02*
X135596761Y-92828476D01*
X135549142Y-92876095D01*
X135453904Y-92923714D01*
X135168190Y-92923714D01*
X135072952Y-92876095D01*
X135025333Y-92828476D01*
X134977714Y-92733238D01*
X134977714Y-92590380D01*
X135025333Y-92495142D01*
X135072952Y-92447523D01*
X135168190Y-92399904D01*
X135453904Y-92399904D01*
X135549142Y-92447523D01*
X135596761Y-92495142D01*
X135644380Y-92590380D01*
X135644380Y-92733238D01*
X134977714Y-91971333D02*
X135644380Y-91971333D01*
X135072952Y-91971333D02*
X135025333Y-91923714D01*
X134977714Y-91828476D01*
X134977714Y-91685619D01*
X135025333Y-91590380D01*
X135120571Y-91542761D01*
X135644380Y-91542761D01*
X134977714Y-91066571D02*
X135644380Y-91066571D01*
X135072952Y-91066571D02*
X135025333Y-91018952D01*
X134977714Y-90923714D01*
X134977714Y-90780857D01*
X135025333Y-90685619D01*
X135120571Y-90638000D01*
X135644380Y-90638000D01*
X135596761Y-89780857D02*
X135644380Y-89876095D01*
X135644380Y-90066571D01*
X135596761Y-90161809D01*
X135501523Y-90209428D01*
X135120571Y-90209428D01*
X135025333Y-90161809D01*
X134977714Y-90066571D01*
X134977714Y-89876095D01*
X135025333Y-89780857D01*
X135120571Y-89733238D01*
X135215809Y-89733238D01*
X135311047Y-90209428D01*
X135596761Y-88876095D02*
X135644380Y-88971333D01*
X135644380Y-89161809D01*
X135596761Y-89257047D01*
X135549142Y-89304666D01*
X135453904Y-89352285D01*
X135168190Y-89352285D01*
X135072952Y-89304666D01*
X135025333Y-89257047D01*
X134977714Y-89161809D01*
X134977714Y-88971333D01*
X135025333Y-88876095D01*
X134977714Y-88590380D02*
X134977714Y-88209428D01*
X134644380Y-88447523D02*
X135501523Y-88447523D01*
X135596761Y-88399904D01*
X135644380Y-88304666D01*
X135644380Y-88209428D01*
X135644380Y-87733238D02*
X135596761Y-87828476D01*
X135549142Y-87876095D01*
X135453904Y-87923714D01*
X135168190Y-87923714D01*
X135072952Y-87876095D01*
X135025333Y-87828476D01*
X134977714Y-87733238D01*
X134977714Y-87590380D01*
X135025333Y-87495142D01*
X135072952Y-87447523D01*
X135168190Y-87399904D01*
X135453904Y-87399904D01*
X135549142Y-87447523D01*
X135596761Y-87495142D01*
X135644380Y-87590380D01*
X135644380Y-87733238D01*
X135644380Y-86971333D02*
X134977714Y-86971333D01*
X135168190Y-86971333D02*
X135072952Y-86923714D01*
X135025333Y-86876095D01*
X134977714Y-86780857D01*
X134977714Y-86685619D01*
G04 #@! TO.C,D8*
X82178904Y-60744380D02*
X82178904Y-59744380D01*
X82417000Y-59744380D01*
X82559857Y-59792000D01*
X82655095Y-59887238D01*
X82702714Y-59982476D01*
X82750333Y-60172952D01*
X82750333Y-60315809D01*
X82702714Y-60506285D01*
X82655095Y-60601523D01*
X82559857Y-60696761D01*
X82417000Y-60744380D01*
X82178904Y-60744380D01*
X83321761Y-60172952D02*
X83226523Y-60125333D01*
X83178904Y-60077714D01*
X83131285Y-59982476D01*
X83131285Y-59934857D01*
X83178904Y-59839619D01*
X83226523Y-59792000D01*
X83321761Y-59744380D01*
X83512238Y-59744380D01*
X83607476Y-59792000D01*
X83655095Y-59839619D01*
X83702714Y-59934857D01*
X83702714Y-59982476D01*
X83655095Y-60077714D01*
X83607476Y-60125333D01*
X83512238Y-60172952D01*
X83321761Y-60172952D01*
X83226523Y-60220571D01*
X83178904Y-60268190D01*
X83131285Y-60363428D01*
X83131285Y-60553904D01*
X83178904Y-60649142D01*
X83226523Y-60696761D01*
X83321761Y-60744380D01*
X83512238Y-60744380D01*
X83607476Y-60696761D01*
X83655095Y-60649142D01*
X83702714Y-60553904D01*
X83702714Y-60363428D01*
X83655095Y-60268190D01*
X83607476Y-60220571D01*
X83512238Y-60172952D01*
G04 #@! TO.C,R6*
X89100333Y-60744380D02*
X88767000Y-60268190D01*
X88528904Y-60744380D02*
X88528904Y-59744380D01*
X88909857Y-59744380D01*
X89005095Y-59792000D01*
X89052714Y-59839619D01*
X89100333Y-59934857D01*
X89100333Y-60077714D01*
X89052714Y-60172952D01*
X89005095Y-60220571D01*
X88909857Y-60268190D01*
X88528904Y-60268190D01*
X89957476Y-59744380D02*
X89767000Y-59744380D01*
X89671761Y-59792000D01*
X89624142Y-59839619D01*
X89528904Y-59982476D01*
X89481285Y-60172952D01*
X89481285Y-60553904D01*
X89528904Y-60649142D01*
X89576523Y-60696761D01*
X89671761Y-60744380D01*
X89862238Y-60744380D01*
X89957476Y-60696761D01*
X90005095Y-60649142D01*
X90052714Y-60553904D01*
X90052714Y-60315809D01*
X90005095Y-60220571D01*
X89957476Y-60172952D01*
X89862238Y-60125333D01*
X89671761Y-60125333D01*
X89576523Y-60172952D01*
X89528904Y-60220571D01*
X89481285Y-60315809D01*
G04 #@! TD*
M02*
