G04 #@! TF.GenerationSoftware,KiCad,Pcbnew,(5.0.0)*
G04 #@! TF.CreationDate,2019-02-05T19:54:50-05:00*
G04 #@! TF.ProjectId,control board,636F6E74726F6C20626F6172642E6B69,rev?*
G04 #@! TF.SameCoordinates,Original*
G04 #@! TF.FileFunction,Copper,L4,Bot,Signal*
G04 #@! TF.FilePolarity,Positive*
%FSLAX46Y46*%
G04 Gerber Fmt 4.6, Leading zero omitted, Abs format (unit mm)*
G04 Created by KiCad (PCBNEW (5.0.0)) date 02/05/19 19:54:50*
%MOMM*%
%LPD*%
G01*
G04 APERTURE LIST*
G04 #@! TA.AperFunction,NonConductor*
%ADD10C,0.300000*%
G04 #@! TD*
G04 #@! TA.AperFunction,SMDPad,CuDef*
%ADD11C,0.366980*%
G04 #@! TD*
G04 #@! TA.AperFunction,Conductor*
%ADD12C,0.100000*%
G04 #@! TD*
G04 #@! TA.AperFunction,SMDPad,CuDef*
%ADD13R,0.675000X0.288240*%
G04 #@! TD*
G04 #@! TA.AperFunction,SMDPad,CuDef*
%ADD14C,0.400000*%
G04 #@! TD*
G04 #@! TA.AperFunction,SMDPad,CuDef*
%ADD15R,0.288240X0.675000*%
G04 #@! TD*
G04 #@! TA.AperFunction,SMDPad,CuDef*
%ADD16R,1.100000X0.400000*%
G04 #@! TD*
G04 #@! TA.AperFunction,SMDPad,CuDef*
%ADD17C,0.950000*%
G04 #@! TD*
G04 #@! TA.AperFunction,ComponentPad*
%ADD18R,1.700000X1.700000*%
G04 #@! TD*
G04 #@! TA.AperFunction,ComponentPad*
%ADD19O,1.700000X1.700000*%
G04 #@! TD*
G04 #@! TA.AperFunction,SMDPad,CuDef*
%ADD20R,0.900000X0.800000*%
G04 #@! TD*
G04 #@! TA.AperFunction,ComponentPad*
%ADD21C,5.000000*%
G04 #@! TD*
G04 #@! TA.AperFunction,ComponentPad*
%ADD22R,1.524000X1.524000*%
G04 #@! TD*
G04 #@! TA.AperFunction,ComponentPad*
%ADD23C,1.524000*%
G04 #@! TD*
G04 #@! TA.AperFunction,ComponentPad*
%ADD24R,2.700000X3.300000*%
G04 #@! TD*
G04 #@! TA.AperFunction,ComponentPad*
%ADD25O,2.700000X3.300000*%
G04 #@! TD*
G04 #@! TA.AperFunction,ComponentPad*
%ADD26C,1.500000*%
G04 #@! TD*
G04 #@! TA.AperFunction,SMDPad,CuDef*
%ADD27R,1.500000X0.250000*%
G04 #@! TD*
G04 #@! TA.AperFunction,SMDPad,CuDef*
%ADD28R,0.250000X1.500000*%
G04 #@! TD*
G04 #@! TA.AperFunction,ComponentPad*
%ADD29C,1.350000*%
G04 #@! TD*
G04 #@! TA.AperFunction,ComponentPad*
%ADD30R,1.350000X1.350000*%
G04 #@! TD*
G04 #@! TA.AperFunction,SMDPad,CuDef*
%ADD31R,2.000000X3.800000*%
G04 #@! TD*
G04 #@! TA.AperFunction,SMDPad,CuDef*
%ADD32R,2.000000X1.500000*%
G04 #@! TD*
G04 #@! TA.AperFunction,ComponentPad*
%ADD33C,6.400000*%
G04 #@! TD*
G04 #@! TA.AperFunction,ComponentPad*
%ADD34C,1.700000*%
G04 #@! TD*
G04 #@! TA.AperFunction,ComponentPad*
%ADD35C,3.500000*%
G04 #@! TD*
G04 #@! TA.AperFunction,SMDPad,CuDef*
%ADD36R,1.550000X0.600000*%
G04 #@! TD*
G04 #@! TA.AperFunction,SMDPad,CuDef*
%ADD37R,1.550000X1.300000*%
G04 #@! TD*
G04 #@! TA.AperFunction,ViaPad*
%ADD38C,0.800000*%
G04 #@! TD*
G04 #@! TA.AperFunction,Conductor*
%ADD39C,0.250000*%
G04 #@! TD*
G04 #@! TA.AperFunction,Conductor*
%ADD40C,0.200000*%
G04 #@! TD*
G04 #@! TA.AperFunction,Conductor*
%ADD41C,0.500000*%
G04 #@! TD*
G04 #@! TA.AperFunction,Conductor*
%ADD42C,1.000000*%
G04 #@! TD*
G04 APERTURE END LIST*
D10*
X139870285Y-150904331D02*
X139870285Y-149904331D01*
X139870285Y-150190045D02*
X139798857Y-150047188D01*
X139727428Y-149975760D01*
X139584571Y-149904331D01*
X139441714Y-149904331D01*
X138370285Y-150832902D02*
X138513142Y-150904331D01*
X138798857Y-150904331D01*
X138941714Y-150832902D01*
X139013142Y-150690045D01*
X139013142Y-150118617D01*
X138941714Y-149975760D01*
X138798857Y-149904331D01*
X138513142Y-149904331D01*
X138370285Y-149975760D01*
X138298857Y-150118617D01*
X138298857Y-150261474D01*
X139013142Y-150404331D01*
X137798857Y-149904331D02*
X137441714Y-150904331D01*
X137084571Y-149904331D01*
X136513142Y-150761474D02*
X136441714Y-150832902D01*
X136513142Y-150904331D01*
X136584571Y-150832902D01*
X136513142Y-150761474D01*
X136513142Y-150904331D01*
X133870285Y-150904331D02*
X134727428Y-150904331D01*
X134298857Y-150904331D02*
X134298857Y-149404331D01*
X134441714Y-149618617D01*
X134584571Y-149761474D01*
X134727428Y-149832902D01*
D11*
G04 #@! TO.P,U5,14*
G04 #@! TO.N,/ICM_SDA*
X117476500Y-122936000D03*
D12*
G04 #@! TD*
G04 #@! TO.N,/ICM_SDA*
G04 #@! TO.C,U5*
G36*
X117139000Y-123136000D02*
X117139000Y-122736000D01*
X117564000Y-122736000D01*
X117814000Y-122986000D01*
X117814000Y-123136000D01*
X117139000Y-123136000D01*
X117139000Y-123136000D01*
G37*
D13*
G04 #@! TO.P,U5,13*
G04 #@! TO.N,/ICM_SCL*
X117476500Y-123436000D03*
D11*
G04 #@! TO.P,U5,12*
G04 #@! TO.N,+3V3*
X117476500Y-123936000D03*
D12*
G04 #@! TD*
G04 #@! TO.N,+3V3*
G04 #@! TO.C,U5*
G36*
X117564000Y-124136000D02*
X117139000Y-124136000D01*
X117139000Y-123736000D01*
X117814000Y-123736000D01*
X117814000Y-123886000D01*
X117564000Y-124136000D01*
X117564000Y-124136000D01*
G37*
D14*
G04 #@! TO.P,U5,11*
G04 #@! TO.N,Net-(U5-Pad11)*
X117614000Y-124573500D03*
D12*
G04 #@! TD*
G04 #@! TO.N,Net-(U5-Pad11)*
G04 #@! TO.C,U5*
G36*
X117414000Y-124911000D02*
X117414000Y-124486000D01*
X117664000Y-124236000D01*
X117814000Y-124236000D01*
X117814000Y-124911000D01*
X117414000Y-124911000D01*
X117414000Y-124911000D01*
G37*
D15*
G04 #@! TO.P,U5,10*
G04 #@! TO.N,Net-(U5-Pad10)*
X118114000Y-124573500D03*
G04 #@! TO.P,U5,9*
G04 #@! TO.N,Net-(U5-Pad9)*
X118614000Y-124573500D03*
D14*
G04 #@! TO.P,U5,8*
G04 #@! TO.N,+3V3*
X119114000Y-124573500D03*
D12*
G04 #@! TD*
G04 #@! TO.N,+3V3*
G04 #@! TO.C,U5*
G36*
X118914000Y-124911000D02*
X118914000Y-124236000D01*
X119064000Y-124236000D01*
X119314000Y-124486000D01*
X119314000Y-124911000D01*
X118914000Y-124911000D01*
X118914000Y-124911000D01*
G37*
D14*
G04 #@! TO.P,U5,7*
G04 #@! TO.N,GND*
X119251500Y-123936000D03*
D12*
G04 #@! TD*
G04 #@! TO.N,GND*
G04 #@! TO.C,U5*
G36*
X119164000Y-124136000D02*
X118914000Y-123886000D01*
X118914000Y-123736000D01*
X119589000Y-123736000D01*
X119589000Y-124136000D01*
X119164000Y-124136000D01*
X119164000Y-124136000D01*
G37*
D13*
G04 #@! TO.P,U5,6*
G04 #@! TO.N,GND*
X119251500Y-123436000D03*
D14*
G04 #@! TO.P,U5,5*
G04 #@! TO.N,+3V3*
X119251500Y-122936000D03*
D12*
G04 #@! TD*
G04 #@! TO.N,+3V3*
G04 #@! TO.C,U5*
G36*
X118914000Y-123136000D02*
X118914000Y-122986000D01*
X119164000Y-122736000D01*
X119589000Y-122736000D01*
X119589000Y-123136000D01*
X118914000Y-123136000D01*
X118914000Y-123136000D01*
G37*
D14*
G04 #@! TO.P,U5,4*
G04 #@! TO.N,Net-(U5-Pad4)*
X119114000Y-122298500D03*
D12*
G04 #@! TD*
G04 #@! TO.N,Net-(U5-Pad4)*
G04 #@! TO.C,U5*
G36*
X119064000Y-122636000D02*
X118914000Y-122636000D01*
X118914000Y-121961000D01*
X119314000Y-121961000D01*
X119314000Y-122386000D01*
X119064000Y-122636000D01*
X119064000Y-122636000D01*
G37*
D15*
G04 #@! TO.P,U5,3*
G04 #@! TO.N,Net-(U5-Pad3)*
X118614000Y-122298500D03*
G04 #@! TO.P,U5,2*
G04 #@! TO.N,Net-(U5-Pad2)*
X118114000Y-122298500D03*
D14*
G04 #@! TO.P,U5,1*
G04 #@! TO.N,Net-(U5-Pad1)*
X117614000Y-122298500D03*
D12*
G04 #@! TD*
G04 #@! TO.N,Net-(U5-Pad1)*
G04 #@! TO.C,U5*
G36*
X117664000Y-122636000D02*
X117414000Y-122386000D01*
X117414000Y-121961000D01*
X117814000Y-121961000D01*
X117814000Y-122636000D01*
X117664000Y-122636000D01*
X117664000Y-122636000D01*
G37*
D16*
G04 #@! TO.P,U6,8*
G04 #@! TO.N,+3V3*
X114672000Y-101686000D03*
G04 #@! TO.P,U6,7*
G04 #@! TO.N,Net-(J6-Pad2)*
X114672000Y-101036000D03*
G04 #@! TO.P,U6,6*
G04 #@! TO.N,Net-(J6-Pad3)*
X114672000Y-100386000D03*
G04 #@! TO.P,U6,5*
G04 #@! TO.N,GND*
X114672000Y-99736000D03*
G04 #@! TO.P,U6,4*
G04 #@! TO.N,/MISC_TX*
X110372000Y-99736000D03*
G04 #@! TO.P,U6,3*
G04 #@! TO.N,/MISC_DE*
X110372000Y-100386000D03*
G04 #@! TO.P,U6,2*
G04 #@! TO.N,/MISC_RE*
X110372000Y-101036000D03*
G04 #@! TO.P,U6,1*
G04 #@! TO.N,/MISC_RX*
X110372000Y-101686000D03*
G04 #@! TD*
D12*
G04 #@! TO.N,+3V3*
G04 #@! TO.C,C13*
G36*
X114687779Y-118997144D02*
X114710834Y-119000563D01*
X114733443Y-119006227D01*
X114755387Y-119014079D01*
X114776457Y-119024044D01*
X114796448Y-119036026D01*
X114815168Y-119049910D01*
X114832438Y-119065562D01*
X114848090Y-119082832D01*
X114861974Y-119101552D01*
X114873956Y-119121543D01*
X114883921Y-119142613D01*
X114891773Y-119164557D01*
X114897437Y-119187166D01*
X114900856Y-119210221D01*
X114902000Y-119233500D01*
X114902000Y-119808500D01*
X114900856Y-119831779D01*
X114897437Y-119854834D01*
X114891773Y-119877443D01*
X114883921Y-119899387D01*
X114873956Y-119920457D01*
X114861974Y-119940448D01*
X114848090Y-119959168D01*
X114832438Y-119976438D01*
X114815168Y-119992090D01*
X114796448Y-120005974D01*
X114776457Y-120017956D01*
X114755387Y-120027921D01*
X114733443Y-120035773D01*
X114710834Y-120041437D01*
X114687779Y-120044856D01*
X114664500Y-120046000D01*
X114189500Y-120046000D01*
X114166221Y-120044856D01*
X114143166Y-120041437D01*
X114120557Y-120035773D01*
X114098613Y-120027921D01*
X114077543Y-120017956D01*
X114057552Y-120005974D01*
X114038832Y-119992090D01*
X114021562Y-119976438D01*
X114005910Y-119959168D01*
X113992026Y-119940448D01*
X113980044Y-119920457D01*
X113970079Y-119899387D01*
X113962227Y-119877443D01*
X113956563Y-119854834D01*
X113953144Y-119831779D01*
X113952000Y-119808500D01*
X113952000Y-119233500D01*
X113953144Y-119210221D01*
X113956563Y-119187166D01*
X113962227Y-119164557D01*
X113970079Y-119142613D01*
X113980044Y-119121543D01*
X113992026Y-119101552D01*
X114005910Y-119082832D01*
X114021562Y-119065562D01*
X114038832Y-119049910D01*
X114057552Y-119036026D01*
X114077543Y-119024044D01*
X114098613Y-119014079D01*
X114120557Y-119006227D01*
X114143166Y-119000563D01*
X114166221Y-118997144D01*
X114189500Y-118996000D01*
X114664500Y-118996000D01*
X114687779Y-118997144D01*
X114687779Y-118997144D01*
G37*
D17*
G04 #@! TD*
G04 #@! TO.P,C13,1*
G04 #@! TO.N,+3V3*
X114427000Y-119521000D03*
D12*
G04 #@! TO.N,GND*
G04 #@! TO.C,C13*
G36*
X114687779Y-120747144D02*
X114710834Y-120750563D01*
X114733443Y-120756227D01*
X114755387Y-120764079D01*
X114776457Y-120774044D01*
X114796448Y-120786026D01*
X114815168Y-120799910D01*
X114832438Y-120815562D01*
X114848090Y-120832832D01*
X114861974Y-120851552D01*
X114873956Y-120871543D01*
X114883921Y-120892613D01*
X114891773Y-120914557D01*
X114897437Y-120937166D01*
X114900856Y-120960221D01*
X114902000Y-120983500D01*
X114902000Y-121558500D01*
X114900856Y-121581779D01*
X114897437Y-121604834D01*
X114891773Y-121627443D01*
X114883921Y-121649387D01*
X114873956Y-121670457D01*
X114861974Y-121690448D01*
X114848090Y-121709168D01*
X114832438Y-121726438D01*
X114815168Y-121742090D01*
X114796448Y-121755974D01*
X114776457Y-121767956D01*
X114755387Y-121777921D01*
X114733443Y-121785773D01*
X114710834Y-121791437D01*
X114687779Y-121794856D01*
X114664500Y-121796000D01*
X114189500Y-121796000D01*
X114166221Y-121794856D01*
X114143166Y-121791437D01*
X114120557Y-121785773D01*
X114098613Y-121777921D01*
X114077543Y-121767956D01*
X114057552Y-121755974D01*
X114038832Y-121742090D01*
X114021562Y-121726438D01*
X114005910Y-121709168D01*
X113992026Y-121690448D01*
X113980044Y-121670457D01*
X113970079Y-121649387D01*
X113962227Y-121627443D01*
X113956563Y-121604834D01*
X113953144Y-121581779D01*
X113952000Y-121558500D01*
X113952000Y-120983500D01*
X113953144Y-120960221D01*
X113956563Y-120937166D01*
X113962227Y-120914557D01*
X113970079Y-120892613D01*
X113980044Y-120871543D01*
X113992026Y-120851552D01*
X114005910Y-120832832D01*
X114021562Y-120815562D01*
X114038832Y-120799910D01*
X114057552Y-120786026D01*
X114077543Y-120774044D01*
X114098613Y-120764079D01*
X114120557Y-120756227D01*
X114143166Y-120750563D01*
X114166221Y-120747144D01*
X114189500Y-120746000D01*
X114664500Y-120746000D01*
X114687779Y-120747144D01*
X114687779Y-120747144D01*
G37*
D17*
G04 #@! TD*
G04 #@! TO.P,C13,2*
G04 #@! TO.N,GND*
X114427000Y-121271000D03*
D12*
G04 #@! TO.N,GND*
G04 #@! TO.C,C14*
G36*
X114687779Y-105507144D02*
X114710834Y-105510563D01*
X114733443Y-105516227D01*
X114755387Y-105524079D01*
X114776457Y-105534044D01*
X114796448Y-105546026D01*
X114815168Y-105559910D01*
X114832438Y-105575562D01*
X114848090Y-105592832D01*
X114861974Y-105611552D01*
X114873956Y-105631543D01*
X114883921Y-105652613D01*
X114891773Y-105674557D01*
X114897437Y-105697166D01*
X114900856Y-105720221D01*
X114902000Y-105743500D01*
X114902000Y-106318500D01*
X114900856Y-106341779D01*
X114897437Y-106364834D01*
X114891773Y-106387443D01*
X114883921Y-106409387D01*
X114873956Y-106430457D01*
X114861974Y-106450448D01*
X114848090Y-106469168D01*
X114832438Y-106486438D01*
X114815168Y-106502090D01*
X114796448Y-106515974D01*
X114776457Y-106527956D01*
X114755387Y-106537921D01*
X114733443Y-106545773D01*
X114710834Y-106551437D01*
X114687779Y-106554856D01*
X114664500Y-106556000D01*
X114189500Y-106556000D01*
X114166221Y-106554856D01*
X114143166Y-106551437D01*
X114120557Y-106545773D01*
X114098613Y-106537921D01*
X114077543Y-106527956D01*
X114057552Y-106515974D01*
X114038832Y-106502090D01*
X114021562Y-106486438D01*
X114005910Y-106469168D01*
X113992026Y-106450448D01*
X113980044Y-106430457D01*
X113970079Y-106409387D01*
X113962227Y-106387443D01*
X113956563Y-106364834D01*
X113953144Y-106341779D01*
X113952000Y-106318500D01*
X113952000Y-105743500D01*
X113953144Y-105720221D01*
X113956563Y-105697166D01*
X113962227Y-105674557D01*
X113970079Y-105652613D01*
X113980044Y-105631543D01*
X113992026Y-105611552D01*
X114005910Y-105592832D01*
X114021562Y-105575562D01*
X114038832Y-105559910D01*
X114057552Y-105546026D01*
X114077543Y-105534044D01*
X114098613Y-105524079D01*
X114120557Y-105516227D01*
X114143166Y-105510563D01*
X114166221Y-105507144D01*
X114189500Y-105506000D01*
X114664500Y-105506000D01*
X114687779Y-105507144D01*
X114687779Y-105507144D01*
G37*
D17*
G04 #@! TD*
G04 #@! TO.P,C14,2*
G04 #@! TO.N,GND*
X114427000Y-106031000D03*
D12*
G04 #@! TO.N,+3V3*
G04 #@! TO.C,C14*
G36*
X114687779Y-103757144D02*
X114710834Y-103760563D01*
X114733443Y-103766227D01*
X114755387Y-103774079D01*
X114776457Y-103784044D01*
X114796448Y-103796026D01*
X114815168Y-103809910D01*
X114832438Y-103825562D01*
X114848090Y-103842832D01*
X114861974Y-103861552D01*
X114873956Y-103881543D01*
X114883921Y-103902613D01*
X114891773Y-103924557D01*
X114897437Y-103947166D01*
X114900856Y-103970221D01*
X114902000Y-103993500D01*
X114902000Y-104568500D01*
X114900856Y-104591779D01*
X114897437Y-104614834D01*
X114891773Y-104637443D01*
X114883921Y-104659387D01*
X114873956Y-104680457D01*
X114861974Y-104700448D01*
X114848090Y-104719168D01*
X114832438Y-104736438D01*
X114815168Y-104752090D01*
X114796448Y-104765974D01*
X114776457Y-104777956D01*
X114755387Y-104787921D01*
X114733443Y-104795773D01*
X114710834Y-104801437D01*
X114687779Y-104804856D01*
X114664500Y-104806000D01*
X114189500Y-104806000D01*
X114166221Y-104804856D01*
X114143166Y-104801437D01*
X114120557Y-104795773D01*
X114098613Y-104787921D01*
X114077543Y-104777956D01*
X114057552Y-104765974D01*
X114038832Y-104752090D01*
X114021562Y-104736438D01*
X114005910Y-104719168D01*
X113992026Y-104700448D01*
X113980044Y-104680457D01*
X113970079Y-104659387D01*
X113962227Y-104637443D01*
X113956563Y-104614834D01*
X113953144Y-104591779D01*
X113952000Y-104568500D01*
X113952000Y-103993500D01*
X113953144Y-103970221D01*
X113956563Y-103947166D01*
X113962227Y-103924557D01*
X113970079Y-103902613D01*
X113980044Y-103881543D01*
X113992026Y-103861552D01*
X114005910Y-103842832D01*
X114021562Y-103825562D01*
X114038832Y-103809910D01*
X114057552Y-103796026D01*
X114077543Y-103784044D01*
X114098613Y-103774079D01*
X114120557Y-103766227D01*
X114143166Y-103760563D01*
X114166221Y-103757144D01*
X114189500Y-103756000D01*
X114664500Y-103756000D01*
X114687779Y-103757144D01*
X114687779Y-103757144D01*
G37*
D17*
G04 #@! TD*
G04 #@! TO.P,C14,1*
G04 #@! TO.N,+3V3*
X114427000Y-104281000D03*
D18*
G04 #@! TO.P,J1,1*
G04 #@! TO.N,GND*
X99568000Y-119126000D03*
D19*
G04 #@! TO.P,J1,2*
G04 #@! TO.N,Net-(J1-Pad2)*
X99568000Y-121666000D03*
G04 #@! TD*
D18*
G04 #@! TO.P,J2,1*
G04 #@! TO.N,+3V3*
X113538000Y-145796000D03*
D19*
G04 #@! TO.P,J2,2*
G04 #@! TO.N,/SWCLK*
X113538000Y-143256000D03*
G04 #@! TO.P,J2,3*
G04 #@! TO.N,GND*
X113538000Y-140716000D03*
G04 #@! TO.P,J2,4*
G04 #@! TO.N,/SWDIO*
X113538000Y-138176000D03*
G04 #@! TO.P,J2,5*
G04 #@! TO.N,/NRST*
X113538000Y-135636000D03*
G04 #@! TO.P,J2,6*
G04 #@! TO.N,/JTDO*
X113538000Y-133096000D03*
G04 #@! TD*
D20*
G04 #@! TO.P,Q2,1*
G04 #@! TO.N,/STM_RESET*
X83836000Y-125410000D03*
G04 #@! TO.P,Q2,2*
G04 #@! TO.N,GND*
X83836000Y-123510000D03*
G04 #@! TO.P,Q2,3*
G04 #@! TO.N,/NRST*
X85836000Y-124460000D03*
G04 #@! TD*
D16*
G04 #@! TO.P,U4,1*
G04 #@! TO.N,/SENSOR_RX*
X110372000Y-116926000D03*
G04 #@! TO.P,U4,2*
G04 #@! TO.N,/SENSOR_RE*
X110372000Y-116276000D03*
G04 #@! TO.P,U4,3*
G04 #@! TO.N,/SENSOR_DE*
X110372000Y-115626000D03*
G04 #@! TO.P,U4,4*
G04 #@! TO.N,/SENSOR_TX*
X110372000Y-114976000D03*
G04 #@! TO.P,U4,5*
G04 #@! TO.N,GND*
X114672000Y-114976000D03*
G04 #@! TO.P,U4,6*
G04 #@! TO.N,Net-(J4-Pad3)*
X114672000Y-115626000D03*
G04 #@! TO.P,U4,7*
G04 #@! TO.N,Net-(J4-Pad2)*
X114672000Y-116276000D03*
G04 #@! TO.P,U4,8*
G04 #@! TO.N,+3V3*
X114672000Y-116926000D03*
G04 #@! TD*
D21*
G04 #@! TO.P,P1,*
G04 #@! TO.N,*
X121158000Y-130644000D03*
X121158000Y-72644000D03*
X72158000Y-72644000D03*
X72158000Y-130644000D03*
D22*
G04 #@! TO.P,P1,1*
G04 #@! TO.N,Net-(P1-Pad1)*
X73428000Y-77514000D03*
D23*
G04 #@! TO.P,P1,2*
G04 #@! TO.N,+5V*
X70888000Y-77514000D03*
G04 #@! TO.P,P1,3*
G04 #@! TO.N,Net-(P1-Pad3)*
X73428000Y-80054000D03*
G04 #@! TO.P,P1,4*
G04 #@! TO.N,+5V*
X70888000Y-80054000D03*
G04 #@! TO.P,P1,5*
G04 #@! TO.N,Net-(P1-Pad5)*
X73428000Y-82594000D03*
G04 #@! TO.P,P1,6*
G04 #@! TO.N,GND*
X70888000Y-82594000D03*
G04 #@! TO.P,P1,7*
G04 #@! TO.N,/STM_RESET*
X73428000Y-85134000D03*
G04 #@! TO.P,P1,8*
G04 #@! TO.N,/ODROID_TX*
X70888000Y-85134000D03*
G04 #@! TO.P,P1,9*
G04 #@! TO.N,GND*
X73428000Y-87674000D03*
G04 #@! TO.P,P1,10*
G04 #@! TO.N,/ODROID_RX*
X70888000Y-87674000D03*
G04 #@! TO.P,P1,11*
G04 #@! TO.N,Net-(P1-Pad11)*
X73428000Y-90214000D03*
G04 #@! TO.P,P1,12*
G04 #@! TO.N,Net-(P1-Pad12)*
X70888000Y-90214000D03*
G04 #@! TO.P,P1,13*
G04 #@! TO.N,Net-(P1-Pad13)*
X73428000Y-92754000D03*
G04 #@! TO.P,P1,14*
G04 #@! TO.N,GND*
X70888000Y-92754000D03*
G04 #@! TO.P,P1,15*
G04 #@! TO.N,Net-(P1-Pad15)*
X73428000Y-95294000D03*
G04 #@! TO.P,P1,16*
G04 #@! TO.N,Net-(P1-Pad16)*
X70888000Y-95294000D03*
G04 #@! TO.P,P1,17*
G04 #@! TO.N,Net-(P1-Pad17)*
X73428000Y-97834000D03*
G04 #@! TO.P,P1,18*
G04 #@! TO.N,Net-(P1-Pad18)*
X70888000Y-97834000D03*
G04 #@! TO.P,P1,19*
G04 #@! TO.N,Net-(P1-Pad19)*
X73428000Y-100374000D03*
G04 #@! TO.P,P1,20*
G04 #@! TO.N,GND*
X70888000Y-100374000D03*
G04 #@! TO.P,P1,21*
G04 #@! TO.N,Net-(P1-Pad21)*
X73428000Y-102914000D03*
G04 #@! TO.P,P1,22*
G04 #@! TO.N,Net-(P1-Pad22)*
X70888000Y-102914000D03*
G04 #@! TO.P,P1,23*
G04 #@! TO.N,Net-(P1-Pad23)*
X73428000Y-105454000D03*
G04 #@! TO.P,P1,24*
G04 #@! TO.N,Net-(P1-Pad24)*
X70888000Y-105454000D03*
G04 #@! TO.P,P1,25*
G04 #@! TO.N,GND*
X73428000Y-107994000D03*
G04 #@! TO.P,P1,26*
G04 #@! TO.N,Net-(P1-Pad26)*
X70888000Y-107994000D03*
G04 #@! TO.P,P1,27*
G04 #@! TO.N,Net-(P1-Pad27)*
X73428000Y-110534000D03*
G04 #@! TO.P,P1,28*
G04 #@! TO.N,Net-(P1-Pad28)*
X70888000Y-110534000D03*
G04 #@! TO.P,P1,29*
G04 #@! TO.N,Net-(P1-Pad29)*
X73428000Y-113074000D03*
G04 #@! TO.P,P1,30*
G04 #@! TO.N,GND*
X70888000Y-113074000D03*
G04 #@! TO.P,P1,31*
G04 #@! TO.N,Net-(P1-Pad31)*
X73428000Y-115614000D03*
G04 #@! TO.P,P1,32*
G04 #@! TO.N,Net-(P1-Pad32)*
X70888000Y-115614000D03*
G04 #@! TO.P,P1,33*
G04 #@! TO.N,Net-(P1-Pad33)*
X73428000Y-118154000D03*
G04 #@! TO.P,P1,34*
G04 #@! TO.N,GND*
X70888000Y-118154000D03*
G04 #@! TO.P,P1,35*
G04 #@! TO.N,Net-(P1-Pad35)*
X73428000Y-120694000D03*
G04 #@! TO.P,P1,36*
G04 #@! TO.N,Net-(P1-Pad36)*
X70888000Y-120694000D03*
G04 #@! TO.P,P1,37*
G04 #@! TO.N,Net-(P1-Pad37)*
X73428000Y-123234000D03*
G04 #@! TO.P,P1,38*
G04 #@! TO.N,Net-(P1-Pad38)*
X70888000Y-123234000D03*
G04 #@! TO.P,P1,39*
G04 #@! TO.N,GND*
X73428000Y-125774000D03*
G04 #@! TO.P,P1,40*
G04 #@! TO.N,Net-(P1-Pad40)*
X70888000Y-125774000D03*
G04 #@! TD*
D24*
G04 #@! TO.P,J7,1*
G04 #@! TO.N,GND*
X104394000Y-51650000D03*
D25*
G04 #@! TO.P,J7,2*
X108594000Y-51650000D03*
G04 #@! TO.P,J7,3*
X112794000Y-51650000D03*
G04 #@! TO.P,J7,4*
X116994000Y-51650000D03*
G04 #@! TO.P,J7,5*
G04 #@! TO.N,+3V3*
X104394000Y-57150000D03*
G04 #@! TO.P,J7,6*
G04 #@! TO.N,+5V*
X108594000Y-57150000D03*
G04 #@! TO.P,J7,7*
G04 #@! TO.N,+24V*
X112794000Y-57150000D03*
G04 #@! TO.P,J7,8*
G04 #@! TO.N,+48V*
X116994000Y-57150000D03*
G04 #@! TD*
D12*
G04 #@! TO.N,Net-(C2-Pad1)*
G04 #@! TO.C,C2*
G36*
X81082779Y-137702144D02*
X81105834Y-137705563D01*
X81128443Y-137711227D01*
X81150387Y-137719079D01*
X81171457Y-137729044D01*
X81191448Y-137741026D01*
X81210168Y-137754910D01*
X81227438Y-137770562D01*
X81243090Y-137787832D01*
X81256974Y-137806552D01*
X81268956Y-137826543D01*
X81278921Y-137847613D01*
X81286773Y-137869557D01*
X81292437Y-137892166D01*
X81295856Y-137915221D01*
X81297000Y-137938500D01*
X81297000Y-138413500D01*
X81295856Y-138436779D01*
X81292437Y-138459834D01*
X81286773Y-138482443D01*
X81278921Y-138504387D01*
X81268956Y-138525457D01*
X81256974Y-138545448D01*
X81243090Y-138564168D01*
X81227438Y-138581438D01*
X81210168Y-138597090D01*
X81191448Y-138610974D01*
X81171457Y-138622956D01*
X81150387Y-138632921D01*
X81128443Y-138640773D01*
X81105834Y-138646437D01*
X81082779Y-138649856D01*
X81059500Y-138651000D01*
X80484500Y-138651000D01*
X80461221Y-138649856D01*
X80438166Y-138646437D01*
X80415557Y-138640773D01*
X80393613Y-138632921D01*
X80372543Y-138622956D01*
X80352552Y-138610974D01*
X80333832Y-138597090D01*
X80316562Y-138581438D01*
X80300910Y-138564168D01*
X80287026Y-138545448D01*
X80275044Y-138525457D01*
X80265079Y-138504387D01*
X80257227Y-138482443D01*
X80251563Y-138459834D01*
X80248144Y-138436779D01*
X80247000Y-138413500D01*
X80247000Y-137938500D01*
X80248144Y-137915221D01*
X80251563Y-137892166D01*
X80257227Y-137869557D01*
X80265079Y-137847613D01*
X80275044Y-137826543D01*
X80287026Y-137806552D01*
X80300910Y-137787832D01*
X80316562Y-137770562D01*
X80333832Y-137754910D01*
X80352552Y-137741026D01*
X80372543Y-137729044D01*
X80393613Y-137719079D01*
X80415557Y-137711227D01*
X80438166Y-137705563D01*
X80461221Y-137702144D01*
X80484500Y-137701000D01*
X81059500Y-137701000D01*
X81082779Y-137702144D01*
X81082779Y-137702144D01*
G37*
D17*
G04 #@! TD*
G04 #@! TO.P,C2,1*
G04 #@! TO.N,Net-(C2-Pad1)*
X80772000Y-138176000D03*
D12*
G04 #@! TO.N,GND*
G04 #@! TO.C,C2*
G36*
X79332779Y-137702144D02*
X79355834Y-137705563D01*
X79378443Y-137711227D01*
X79400387Y-137719079D01*
X79421457Y-137729044D01*
X79441448Y-137741026D01*
X79460168Y-137754910D01*
X79477438Y-137770562D01*
X79493090Y-137787832D01*
X79506974Y-137806552D01*
X79518956Y-137826543D01*
X79528921Y-137847613D01*
X79536773Y-137869557D01*
X79542437Y-137892166D01*
X79545856Y-137915221D01*
X79547000Y-137938500D01*
X79547000Y-138413500D01*
X79545856Y-138436779D01*
X79542437Y-138459834D01*
X79536773Y-138482443D01*
X79528921Y-138504387D01*
X79518956Y-138525457D01*
X79506974Y-138545448D01*
X79493090Y-138564168D01*
X79477438Y-138581438D01*
X79460168Y-138597090D01*
X79441448Y-138610974D01*
X79421457Y-138622956D01*
X79400387Y-138632921D01*
X79378443Y-138640773D01*
X79355834Y-138646437D01*
X79332779Y-138649856D01*
X79309500Y-138651000D01*
X78734500Y-138651000D01*
X78711221Y-138649856D01*
X78688166Y-138646437D01*
X78665557Y-138640773D01*
X78643613Y-138632921D01*
X78622543Y-138622956D01*
X78602552Y-138610974D01*
X78583832Y-138597090D01*
X78566562Y-138581438D01*
X78550910Y-138564168D01*
X78537026Y-138545448D01*
X78525044Y-138525457D01*
X78515079Y-138504387D01*
X78507227Y-138482443D01*
X78501563Y-138459834D01*
X78498144Y-138436779D01*
X78497000Y-138413500D01*
X78497000Y-137938500D01*
X78498144Y-137915221D01*
X78501563Y-137892166D01*
X78507227Y-137869557D01*
X78515079Y-137847613D01*
X78525044Y-137826543D01*
X78537026Y-137806552D01*
X78550910Y-137787832D01*
X78566562Y-137770562D01*
X78583832Y-137754910D01*
X78602552Y-137741026D01*
X78622543Y-137729044D01*
X78643613Y-137719079D01*
X78665557Y-137711227D01*
X78688166Y-137705563D01*
X78711221Y-137702144D01*
X78734500Y-137701000D01*
X79309500Y-137701000D01*
X79332779Y-137702144D01*
X79332779Y-137702144D01*
G37*
D17*
G04 #@! TD*
G04 #@! TO.P,C2,2*
G04 #@! TO.N,GND*
X79022000Y-138176000D03*
D12*
G04 #@! TO.N,GND*
G04 #@! TO.C,C3*
G36*
X79558779Y-132622144D02*
X79581834Y-132625563D01*
X79604443Y-132631227D01*
X79626387Y-132639079D01*
X79647457Y-132649044D01*
X79667448Y-132661026D01*
X79686168Y-132674910D01*
X79703438Y-132690562D01*
X79719090Y-132707832D01*
X79732974Y-132726552D01*
X79744956Y-132746543D01*
X79754921Y-132767613D01*
X79762773Y-132789557D01*
X79768437Y-132812166D01*
X79771856Y-132835221D01*
X79773000Y-132858500D01*
X79773000Y-133333500D01*
X79771856Y-133356779D01*
X79768437Y-133379834D01*
X79762773Y-133402443D01*
X79754921Y-133424387D01*
X79744956Y-133445457D01*
X79732974Y-133465448D01*
X79719090Y-133484168D01*
X79703438Y-133501438D01*
X79686168Y-133517090D01*
X79667448Y-133530974D01*
X79647457Y-133542956D01*
X79626387Y-133552921D01*
X79604443Y-133560773D01*
X79581834Y-133566437D01*
X79558779Y-133569856D01*
X79535500Y-133571000D01*
X78960500Y-133571000D01*
X78937221Y-133569856D01*
X78914166Y-133566437D01*
X78891557Y-133560773D01*
X78869613Y-133552921D01*
X78848543Y-133542956D01*
X78828552Y-133530974D01*
X78809832Y-133517090D01*
X78792562Y-133501438D01*
X78776910Y-133484168D01*
X78763026Y-133465448D01*
X78751044Y-133445457D01*
X78741079Y-133424387D01*
X78733227Y-133402443D01*
X78727563Y-133379834D01*
X78724144Y-133356779D01*
X78723000Y-133333500D01*
X78723000Y-132858500D01*
X78724144Y-132835221D01*
X78727563Y-132812166D01*
X78733227Y-132789557D01*
X78741079Y-132767613D01*
X78751044Y-132746543D01*
X78763026Y-132726552D01*
X78776910Y-132707832D01*
X78792562Y-132690562D01*
X78809832Y-132674910D01*
X78828552Y-132661026D01*
X78848543Y-132649044D01*
X78869613Y-132639079D01*
X78891557Y-132631227D01*
X78914166Y-132625563D01*
X78937221Y-132622144D01*
X78960500Y-132621000D01*
X79535500Y-132621000D01*
X79558779Y-132622144D01*
X79558779Y-132622144D01*
G37*
D17*
G04 #@! TD*
G04 #@! TO.P,C3,2*
G04 #@! TO.N,GND*
X79248000Y-133096000D03*
D12*
G04 #@! TO.N,Net-(C3-Pad1)*
G04 #@! TO.C,C3*
G36*
X81308779Y-132622144D02*
X81331834Y-132625563D01*
X81354443Y-132631227D01*
X81376387Y-132639079D01*
X81397457Y-132649044D01*
X81417448Y-132661026D01*
X81436168Y-132674910D01*
X81453438Y-132690562D01*
X81469090Y-132707832D01*
X81482974Y-132726552D01*
X81494956Y-132746543D01*
X81504921Y-132767613D01*
X81512773Y-132789557D01*
X81518437Y-132812166D01*
X81521856Y-132835221D01*
X81523000Y-132858500D01*
X81523000Y-133333500D01*
X81521856Y-133356779D01*
X81518437Y-133379834D01*
X81512773Y-133402443D01*
X81504921Y-133424387D01*
X81494956Y-133445457D01*
X81482974Y-133465448D01*
X81469090Y-133484168D01*
X81453438Y-133501438D01*
X81436168Y-133517090D01*
X81417448Y-133530974D01*
X81397457Y-133542956D01*
X81376387Y-133552921D01*
X81354443Y-133560773D01*
X81331834Y-133566437D01*
X81308779Y-133569856D01*
X81285500Y-133571000D01*
X80710500Y-133571000D01*
X80687221Y-133569856D01*
X80664166Y-133566437D01*
X80641557Y-133560773D01*
X80619613Y-133552921D01*
X80598543Y-133542956D01*
X80578552Y-133530974D01*
X80559832Y-133517090D01*
X80542562Y-133501438D01*
X80526910Y-133484168D01*
X80513026Y-133465448D01*
X80501044Y-133445457D01*
X80491079Y-133424387D01*
X80483227Y-133402443D01*
X80477563Y-133379834D01*
X80474144Y-133356779D01*
X80473000Y-133333500D01*
X80473000Y-132858500D01*
X80474144Y-132835221D01*
X80477563Y-132812166D01*
X80483227Y-132789557D01*
X80491079Y-132767613D01*
X80501044Y-132746543D01*
X80513026Y-132726552D01*
X80526910Y-132707832D01*
X80542562Y-132690562D01*
X80559832Y-132674910D01*
X80578552Y-132661026D01*
X80598543Y-132649044D01*
X80619613Y-132639079D01*
X80641557Y-132631227D01*
X80664166Y-132625563D01*
X80687221Y-132622144D01*
X80710500Y-132621000D01*
X81285500Y-132621000D01*
X81308779Y-132622144D01*
X81308779Y-132622144D01*
G37*
D17*
G04 #@! TD*
G04 #@! TO.P,C3,1*
G04 #@! TO.N,Net-(C3-Pad1)*
X80998000Y-133096000D03*
D12*
G04 #@! TO.N,+3V3*
G04 #@! TO.C,R7*
G36*
X79742108Y-129717186D02*
X79765163Y-129720605D01*
X79787772Y-129726269D01*
X79809716Y-129734121D01*
X79830786Y-129744086D01*
X79850777Y-129756068D01*
X79869497Y-129769952D01*
X79886767Y-129785604D01*
X79902419Y-129802874D01*
X79916303Y-129821594D01*
X79928285Y-129841585D01*
X79938250Y-129862655D01*
X79946102Y-129884599D01*
X79951766Y-129907208D01*
X79955185Y-129930263D01*
X79956329Y-129953542D01*
X79956329Y-130528542D01*
X79955185Y-130551821D01*
X79951766Y-130574876D01*
X79946102Y-130597485D01*
X79938250Y-130619429D01*
X79928285Y-130640499D01*
X79916303Y-130660490D01*
X79902419Y-130679210D01*
X79886767Y-130696480D01*
X79869497Y-130712132D01*
X79850777Y-130726016D01*
X79830786Y-130737998D01*
X79809716Y-130747963D01*
X79787772Y-130755815D01*
X79765163Y-130761479D01*
X79742108Y-130764898D01*
X79718829Y-130766042D01*
X79243829Y-130766042D01*
X79220550Y-130764898D01*
X79197495Y-130761479D01*
X79174886Y-130755815D01*
X79152942Y-130747963D01*
X79131872Y-130737998D01*
X79111881Y-130726016D01*
X79093161Y-130712132D01*
X79075891Y-130696480D01*
X79060239Y-130679210D01*
X79046355Y-130660490D01*
X79034373Y-130640499D01*
X79024408Y-130619429D01*
X79016556Y-130597485D01*
X79010892Y-130574876D01*
X79007473Y-130551821D01*
X79006329Y-130528542D01*
X79006329Y-129953542D01*
X79007473Y-129930263D01*
X79010892Y-129907208D01*
X79016556Y-129884599D01*
X79024408Y-129862655D01*
X79034373Y-129841585D01*
X79046355Y-129821594D01*
X79060239Y-129802874D01*
X79075891Y-129785604D01*
X79093161Y-129769952D01*
X79111881Y-129756068D01*
X79131872Y-129744086D01*
X79152942Y-129734121D01*
X79174886Y-129726269D01*
X79197495Y-129720605D01*
X79220550Y-129717186D01*
X79243829Y-129716042D01*
X79718829Y-129716042D01*
X79742108Y-129717186D01*
X79742108Y-129717186D01*
G37*
D17*
G04 #@! TD*
G04 #@! TO.P,R7,1*
G04 #@! TO.N,+3V3*
X79481329Y-130241042D03*
D12*
G04 #@! TO.N,/3.3V_MEASURE*
G04 #@! TO.C,R7*
G36*
X79742108Y-127967186D02*
X79765163Y-127970605D01*
X79787772Y-127976269D01*
X79809716Y-127984121D01*
X79830786Y-127994086D01*
X79850777Y-128006068D01*
X79869497Y-128019952D01*
X79886767Y-128035604D01*
X79902419Y-128052874D01*
X79916303Y-128071594D01*
X79928285Y-128091585D01*
X79938250Y-128112655D01*
X79946102Y-128134599D01*
X79951766Y-128157208D01*
X79955185Y-128180263D01*
X79956329Y-128203542D01*
X79956329Y-128778542D01*
X79955185Y-128801821D01*
X79951766Y-128824876D01*
X79946102Y-128847485D01*
X79938250Y-128869429D01*
X79928285Y-128890499D01*
X79916303Y-128910490D01*
X79902419Y-128929210D01*
X79886767Y-128946480D01*
X79869497Y-128962132D01*
X79850777Y-128976016D01*
X79830786Y-128987998D01*
X79809716Y-128997963D01*
X79787772Y-129005815D01*
X79765163Y-129011479D01*
X79742108Y-129014898D01*
X79718829Y-129016042D01*
X79243829Y-129016042D01*
X79220550Y-129014898D01*
X79197495Y-129011479D01*
X79174886Y-129005815D01*
X79152942Y-128997963D01*
X79131872Y-128987998D01*
X79111881Y-128976016D01*
X79093161Y-128962132D01*
X79075891Y-128946480D01*
X79060239Y-128929210D01*
X79046355Y-128910490D01*
X79034373Y-128890499D01*
X79024408Y-128869429D01*
X79016556Y-128847485D01*
X79010892Y-128824876D01*
X79007473Y-128801821D01*
X79006329Y-128778542D01*
X79006329Y-128203542D01*
X79007473Y-128180263D01*
X79010892Y-128157208D01*
X79016556Y-128134599D01*
X79024408Y-128112655D01*
X79034373Y-128091585D01*
X79046355Y-128071594D01*
X79060239Y-128052874D01*
X79075891Y-128035604D01*
X79093161Y-128019952D01*
X79111881Y-128006068D01*
X79131872Y-127994086D01*
X79152942Y-127984121D01*
X79174886Y-127976269D01*
X79197495Y-127970605D01*
X79220550Y-127967186D01*
X79243829Y-127966042D01*
X79718829Y-127966042D01*
X79742108Y-127967186D01*
X79742108Y-127967186D01*
G37*
D17*
G04 #@! TD*
G04 #@! TO.P,R7,2*
G04 #@! TO.N,/3.3V_MEASURE*
X79481329Y-128491042D03*
D12*
G04 #@! TO.N,GND*
G04 #@! TO.C,R8*
G36*
X79742108Y-123522186D02*
X79765163Y-123525605D01*
X79787772Y-123531269D01*
X79809716Y-123539121D01*
X79830786Y-123549086D01*
X79850777Y-123561068D01*
X79869497Y-123574952D01*
X79886767Y-123590604D01*
X79902419Y-123607874D01*
X79916303Y-123626594D01*
X79928285Y-123646585D01*
X79938250Y-123667655D01*
X79946102Y-123689599D01*
X79951766Y-123712208D01*
X79955185Y-123735263D01*
X79956329Y-123758542D01*
X79956329Y-124333542D01*
X79955185Y-124356821D01*
X79951766Y-124379876D01*
X79946102Y-124402485D01*
X79938250Y-124424429D01*
X79928285Y-124445499D01*
X79916303Y-124465490D01*
X79902419Y-124484210D01*
X79886767Y-124501480D01*
X79869497Y-124517132D01*
X79850777Y-124531016D01*
X79830786Y-124542998D01*
X79809716Y-124552963D01*
X79787772Y-124560815D01*
X79765163Y-124566479D01*
X79742108Y-124569898D01*
X79718829Y-124571042D01*
X79243829Y-124571042D01*
X79220550Y-124569898D01*
X79197495Y-124566479D01*
X79174886Y-124560815D01*
X79152942Y-124552963D01*
X79131872Y-124542998D01*
X79111881Y-124531016D01*
X79093161Y-124517132D01*
X79075891Y-124501480D01*
X79060239Y-124484210D01*
X79046355Y-124465490D01*
X79034373Y-124445499D01*
X79024408Y-124424429D01*
X79016556Y-124402485D01*
X79010892Y-124379876D01*
X79007473Y-124356821D01*
X79006329Y-124333542D01*
X79006329Y-123758542D01*
X79007473Y-123735263D01*
X79010892Y-123712208D01*
X79016556Y-123689599D01*
X79024408Y-123667655D01*
X79034373Y-123646585D01*
X79046355Y-123626594D01*
X79060239Y-123607874D01*
X79075891Y-123590604D01*
X79093161Y-123574952D01*
X79111881Y-123561068D01*
X79131872Y-123549086D01*
X79152942Y-123539121D01*
X79174886Y-123531269D01*
X79197495Y-123525605D01*
X79220550Y-123522186D01*
X79243829Y-123521042D01*
X79718829Y-123521042D01*
X79742108Y-123522186D01*
X79742108Y-123522186D01*
G37*
D17*
G04 #@! TD*
G04 #@! TO.P,R8,2*
G04 #@! TO.N,GND*
X79481329Y-124046042D03*
D12*
G04 #@! TO.N,/3.3V_MEASURE*
G04 #@! TO.C,R8*
G36*
X79742108Y-125272186D02*
X79765163Y-125275605D01*
X79787772Y-125281269D01*
X79809716Y-125289121D01*
X79830786Y-125299086D01*
X79850777Y-125311068D01*
X79869497Y-125324952D01*
X79886767Y-125340604D01*
X79902419Y-125357874D01*
X79916303Y-125376594D01*
X79928285Y-125396585D01*
X79938250Y-125417655D01*
X79946102Y-125439599D01*
X79951766Y-125462208D01*
X79955185Y-125485263D01*
X79956329Y-125508542D01*
X79956329Y-126083542D01*
X79955185Y-126106821D01*
X79951766Y-126129876D01*
X79946102Y-126152485D01*
X79938250Y-126174429D01*
X79928285Y-126195499D01*
X79916303Y-126215490D01*
X79902419Y-126234210D01*
X79886767Y-126251480D01*
X79869497Y-126267132D01*
X79850777Y-126281016D01*
X79830786Y-126292998D01*
X79809716Y-126302963D01*
X79787772Y-126310815D01*
X79765163Y-126316479D01*
X79742108Y-126319898D01*
X79718829Y-126321042D01*
X79243829Y-126321042D01*
X79220550Y-126319898D01*
X79197495Y-126316479D01*
X79174886Y-126310815D01*
X79152942Y-126302963D01*
X79131872Y-126292998D01*
X79111881Y-126281016D01*
X79093161Y-126267132D01*
X79075891Y-126251480D01*
X79060239Y-126234210D01*
X79046355Y-126215490D01*
X79034373Y-126195499D01*
X79024408Y-126174429D01*
X79016556Y-126152485D01*
X79010892Y-126129876D01*
X79007473Y-126106821D01*
X79006329Y-126083542D01*
X79006329Y-125508542D01*
X79007473Y-125485263D01*
X79010892Y-125462208D01*
X79016556Y-125439599D01*
X79024408Y-125417655D01*
X79034373Y-125396585D01*
X79046355Y-125376594D01*
X79060239Y-125357874D01*
X79075891Y-125340604D01*
X79093161Y-125324952D01*
X79111881Y-125311068D01*
X79131872Y-125299086D01*
X79152942Y-125289121D01*
X79174886Y-125281269D01*
X79197495Y-125275605D01*
X79220550Y-125272186D01*
X79243829Y-125271042D01*
X79718829Y-125271042D01*
X79742108Y-125272186D01*
X79742108Y-125272186D01*
G37*
D17*
G04 #@! TD*
G04 #@! TO.P,R8,1*
G04 #@! TO.N,/3.3V_MEASURE*
X79481329Y-125796042D03*
D12*
G04 #@! TO.N,Net-(D1-Pad2)*
G04 #@! TO.C,R9*
G36*
X94240779Y-111236144D02*
X94263834Y-111239563D01*
X94286443Y-111245227D01*
X94308387Y-111253079D01*
X94329457Y-111263044D01*
X94349448Y-111275026D01*
X94368168Y-111288910D01*
X94385438Y-111304562D01*
X94401090Y-111321832D01*
X94414974Y-111340552D01*
X94426956Y-111360543D01*
X94436921Y-111381613D01*
X94444773Y-111403557D01*
X94450437Y-111426166D01*
X94453856Y-111449221D01*
X94455000Y-111472500D01*
X94455000Y-112047500D01*
X94453856Y-112070779D01*
X94450437Y-112093834D01*
X94444773Y-112116443D01*
X94436921Y-112138387D01*
X94426956Y-112159457D01*
X94414974Y-112179448D01*
X94401090Y-112198168D01*
X94385438Y-112215438D01*
X94368168Y-112231090D01*
X94349448Y-112244974D01*
X94329457Y-112256956D01*
X94308387Y-112266921D01*
X94286443Y-112274773D01*
X94263834Y-112280437D01*
X94240779Y-112283856D01*
X94217500Y-112285000D01*
X93742500Y-112285000D01*
X93719221Y-112283856D01*
X93696166Y-112280437D01*
X93673557Y-112274773D01*
X93651613Y-112266921D01*
X93630543Y-112256956D01*
X93610552Y-112244974D01*
X93591832Y-112231090D01*
X93574562Y-112215438D01*
X93558910Y-112198168D01*
X93545026Y-112179448D01*
X93533044Y-112159457D01*
X93523079Y-112138387D01*
X93515227Y-112116443D01*
X93509563Y-112093834D01*
X93506144Y-112070779D01*
X93505000Y-112047500D01*
X93505000Y-111472500D01*
X93506144Y-111449221D01*
X93509563Y-111426166D01*
X93515227Y-111403557D01*
X93523079Y-111381613D01*
X93533044Y-111360543D01*
X93545026Y-111340552D01*
X93558910Y-111321832D01*
X93574562Y-111304562D01*
X93591832Y-111288910D01*
X93610552Y-111275026D01*
X93630543Y-111263044D01*
X93651613Y-111253079D01*
X93673557Y-111245227D01*
X93696166Y-111239563D01*
X93719221Y-111236144D01*
X93742500Y-111235000D01*
X94217500Y-111235000D01*
X94240779Y-111236144D01*
X94240779Y-111236144D01*
G37*
D17*
G04 #@! TD*
G04 #@! TO.P,R9,2*
G04 #@! TO.N,Net-(D1-Pad2)*
X93980000Y-111760000D03*
D12*
G04 #@! TO.N,Net-(R9-Pad1)*
G04 #@! TO.C,R9*
G36*
X94240779Y-112986144D02*
X94263834Y-112989563D01*
X94286443Y-112995227D01*
X94308387Y-113003079D01*
X94329457Y-113013044D01*
X94349448Y-113025026D01*
X94368168Y-113038910D01*
X94385438Y-113054562D01*
X94401090Y-113071832D01*
X94414974Y-113090552D01*
X94426956Y-113110543D01*
X94436921Y-113131613D01*
X94444773Y-113153557D01*
X94450437Y-113176166D01*
X94453856Y-113199221D01*
X94455000Y-113222500D01*
X94455000Y-113797500D01*
X94453856Y-113820779D01*
X94450437Y-113843834D01*
X94444773Y-113866443D01*
X94436921Y-113888387D01*
X94426956Y-113909457D01*
X94414974Y-113929448D01*
X94401090Y-113948168D01*
X94385438Y-113965438D01*
X94368168Y-113981090D01*
X94349448Y-113994974D01*
X94329457Y-114006956D01*
X94308387Y-114016921D01*
X94286443Y-114024773D01*
X94263834Y-114030437D01*
X94240779Y-114033856D01*
X94217500Y-114035000D01*
X93742500Y-114035000D01*
X93719221Y-114033856D01*
X93696166Y-114030437D01*
X93673557Y-114024773D01*
X93651613Y-114016921D01*
X93630543Y-114006956D01*
X93610552Y-113994974D01*
X93591832Y-113981090D01*
X93574562Y-113965438D01*
X93558910Y-113948168D01*
X93545026Y-113929448D01*
X93533044Y-113909457D01*
X93523079Y-113888387D01*
X93515227Y-113866443D01*
X93509563Y-113843834D01*
X93506144Y-113820779D01*
X93505000Y-113797500D01*
X93505000Y-113222500D01*
X93506144Y-113199221D01*
X93509563Y-113176166D01*
X93515227Y-113153557D01*
X93523079Y-113131613D01*
X93533044Y-113110543D01*
X93545026Y-113090552D01*
X93558910Y-113071832D01*
X93574562Y-113054562D01*
X93591832Y-113038910D01*
X93610552Y-113025026D01*
X93630543Y-113013044D01*
X93651613Y-113003079D01*
X93673557Y-112995227D01*
X93696166Y-112989563D01*
X93719221Y-112986144D01*
X93742500Y-112985000D01*
X94217500Y-112985000D01*
X94240779Y-112986144D01*
X94240779Y-112986144D01*
G37*
D17*
G04 #@! TD*
G04 #@! TO.P,R9,1*
G04 #@! TO.N,Net-(R9-Pad1)*
X93980000Y-113510000D03*
D12*
G04 #@! TO.N,Net-(D2-Pad2)*
G04 #@! TO.C,R10*
G36*
X97542779Y-111236144D02*
X97565834Y-111239563D01*
X97588443Y-111245227D01*
X97610387Y-111253079D01*
X97631457Y-111263044D01*
X97651448Y-111275026D01*
X97670168Y-111288910D01*
X97687438Y-111304562D01*
X97703090Y-111321832D01*
X97716974Y-111340552D01*
X97728956Y-111360543D01*
X97738921Y-111381613D01*
X97746773Y-111403557D01*
X97752437Y-111426166D01*
X97755856Y-111449221D01*
X97757000Y-111472500D01*
X97757000Y-112047500D01*
X97755856Y-112070779D01*
X97752437Y-112093834D01*
X97746773Y-112116443D01*
X97738921Y-112138387D01*
X97728956Y-112159457D01*
X97716974Y-112179448D01*
X97703090Y-112198168D01*
X97687438Y-112215438D01*
X97670168Y-112231090D01*
X97651448Y-112244974D01*
X97631457Y-112256956D01*
X97610387Y-112266921D01*
X97588443Y-112274773D01*
X97565834Y-112280437D01*
X97542779Y-112283856D01*
X97519500Y-112285000D01*
X97044500Y-112285000D01*
X97021221Y-112283856D01*
X96998166Y-112280437D01*
X96975557Y-112274773D01*
X96953613Y-112266921D01*
X96932543Y-112256956D01*
X96912552Y-112244974D01*
X96893832Y-112231090D01*
X96876562Y-112215438D01*
X96860910Y-112198168D01*
X96847026Y-112179448D01*
X96835044Y-112159457D01*
X96825079Y-112138387D01*
X96817227Y-112116443D01*
X96811563Y-112093834D01*
X96808144Y-112070779D01*
X96807000Y-112047500D01*
X96807000Y-111472500D01*
X96808144Y-111449221D01*
X96811563Y-111426166D01*
X96817227Y-111403557D01*
X96825079Y-111381613D01*
X96835044Y-111360543D01*
X96847026Y-111340552D01*
X96860910Y-111321832D01*
X96876562Y-111304562D01*
X96893832Y-111288910D01*
X96912552Y-111275026D01*
X96932543Y-111263044D01*
X96953613Y-111253079D01*
X96975557Y-111245227D01*
X96998166Y-111239563D01*
X97021221Y-111236144D01*
X97044500Y-111235000D01*
X97519500Y-111235000D01*
X97542779Y-111236144D01*
X97542779Y-111236144D01*
G37*
D17*
G04 #@! TD*
G04 #@! TO.P,R10,1*
G04 #@! TO.N,Net-(D2-Pad2)*
X97282000Y-111760000D03*
D12*
G04 #@! TO.N,Net-(R10-Pad2)*
G04 #@! TO.C,R10*
G36*
X97542779Y-112986144D02*
X97565834Y-112989563D01*
X97588443Y-112995227D01*
X97610387Y-113003079D01*
X97631457Y-113013044D01*
X97651448Y-113025026D01*
X97670168Y-113038910D01*
X97687438Y-113054562D01*
X97703090Y-113071832D01*
X97716974Y-113090552D01*
X97728956Y-113110543D01*
X97738921Y-113131613D01*
X97746773Y-113153557D01*
X97752437Y-113176166D01*
X97755856Y-113199221D01*
X97757000Y-113222500D01*
X97757000Y-113797500D01*
X97755856Y-113820779D01*
X97752437Y-113843834D01*
X97746773Y-113866443D01*
X97738921Y-113888387D01*
X97728956Y-113909457D01*
X97716974Y-113929448D01*
X97703090Y-113948168D01*
X97687438Y-113965438D01*
X97670168Y-113981090D01*
X97651448Y-113994974D01*
X97631457Y-114006956D01*
X97610387Y-114016921D01*
X97588443Y-114024773D01*
X97565834Y-114030437D01*
X97542779Y-114033856D01*
X97519500Y-114035000D01*
X97044500Y-114035000D01*
X97021221Y-114033856D01*
X96998166Y-114030437D01*
X96975557Y-114024773D01*
X96953613Y-114016921D01*
X96932543Y-114006956D01*
X96912552Y-113994974D01*
X96893832Y-113981090D01*
X96876562Y-113965438D01*
X96860910Y-113948168D01*
X96847026Y-113929448D01*
X96835044Y-113909457D01*
X96825079Y-113888387D01*
X96817227Y-113866443D01*
X96811563Y-113843834D01*
X96808144Y-113820779D01*
X96807000Y-113797500D01*
X96807000Y-113222500D01*
X96808144Y-113199221D01*
X96811563Y-113176166D01*
X96817227Y-113153557D01*
X96825079Y-113131613D01*
X96835044Y-113110543D01*
X96847026Y-113090552D01*
X96860910Y-113071832D01*
X96876562Y-113054562D01*
X96893832Y-113038910D01*
X96912552Y-113025026D01*
X96932543Y-113013044D01*
X96953613Y-113003079D01*
X96975557Y-112995227D01*
X96998166Y-112989563D01*
X97021221Y-112986144D01*
X97044500Y-112985000D01*
X97519500Y-112985000D01*
X97542779Y-112986144D01*
X97542779Y-112986144D01*
G37*
D17*
G04 #@! TD*
G04 #@! TO.P,R10,2*
G04 #@! TO.N,Net-(R10-Pad2)*
X97282000Y-113510000D03*
D12*
G04 #@! TO.N,Net-(R11-Pad2)*
G04 #@! TO.C,R11*
G36*
X101098779Y-112986144D02*
X101121834Y-112989563D01*
X101144443Y-112995227D01*
X101166387Y-113003079D01*
X101187457Y-113013044D01*
X101207448Y-113025026D01*
X101226168Y-113038910D01*
X101243438Y-113054562D01*
X101259090Y-113071832D01*
X101272974Y-113090552D01*
X101284956Y-113110543D01*
X101294921Y-113131613D01*
X101302773Y-113153557D01*
X101308437Y-113176166D01*
X101311856Y-113199221D01*
X101313000Y-113222500D01*
X101313000Y-113797500D01*
X101311856Y-113820779D01*
X101308437Y-113843834D01*
X101302773Y-113866443D01*
X101294921Y-113888387D01*
X101284956Y-113909457D01*
X101272974Y-113929448D01*
X101259090Y-113948168D01*
X101243438Y-113965438D01*
X101226168Y-113981090D01*
X101207448Y-113994974D01*
X101187457Y-114006956D01*
X101166387Y-114016921D01*
X101144443Y-114024773D01*
X101121834Y-114030437D01*
X101098779Y-114033856D01*
X101075500Y-114035000D01*
X100600500Y-114035000D01*
X100577221Y-114033856D01*
X100554166Y-114030437D01*
X100531557Y-114024773D01*
X100509613Y-114016921D01*
X100488543Y-114006956D01*
X100468552Y-113994974D01*
X100449832Y-113981090D01*
X100432562Y-113965438D01*
X100416910Y-113948168D01*
X100403026Y-113929448D01*
X100391044Y-113909457D01*
X100381079Y-113888387D01*
X100373227Y-113866443D01*
X100367563Y-113843834D01*
X100364144Y-113820779D01*
X100363000Y-113797500D01*
X100363000Y-113222500D01*
X100364144Y-113199221D01*
X100367563Y-113176166D01*
X100373227Y-113153557D01*
X100381079Y-113131613D01*
X100391044Y-113110543D01*
X100403026Y-113090552D01*
X100416910Y-113071832D01*
X100432562Y-113054562D01*
X100449832Y-113038910D01*
X100468552Y-113025026D01*
X100488543Y-113013044D01*
X100509613Y-113003079D01*
X100531557Y-112995227D01*
X100554166Y-112989563D01*
X100577221Y-112986144D01*
X100600500Y-112985000D01*
X101075500Y-112985000D01*
X101098779Y-112986144D01*
X101098779Y-112986144D01*
G37*
D17*
G04 #@! TD*
G04 #@! TO.P,R11,2*
G04 #@! TO.N,Net-(R11-Pad2)*
X100838000Y-113510000D03*
D12*
G04 #@! TO.N,Net-(D3-Pad2)*
G04 #@! TO.C,R11*
G36*
X101098779Y-111236144D02*
X101121834Y-111239563D01*
X101144443Y-111245227D01*
X101166387Y-111253079D01*
X101187457Y-111263044D01*
X101207448Y-111275026D01*
X101226168Y-111288910D01*
X101243438Y-111304562D01*
X101259090Y-111321832D01*
X101272974Y-111340552D01*
X101284956Y-111360543D01*
X101294921Y-111381613D01*
X101302773Y-111403557D01*
X101308437Y-111426166D01*
X101311856Y-111449221D01*
X101313000Y-111472500D01*
X101313000Y-112047500D01*
X101311856Y-112070779D01*
X101308437Y-112093834D01*
X101302773Y-112116443D01*
X101294921Y-112138387D01*
X101284956Y-112159457D01*
X101272974Y-112179448D01*
X101259090Y-112198168D01*
X101243438Y-112215438D01*
X101226168Y-112231090D01*
X101207448Y-112244974D01*
X101187457Y-112256956D01*
X101166387Y-112266921D01*
X101144443Y-112274773D01*
X101121834Y-112280437D01*
X101098779Y-112283856D01*
X101075500Y-112285000D01*
X100600500Y-112285000D01*
X100577221Y-112283856D01*
X100554166Y-112280437D01*
X100531557Y-112274773D01*
X100509613Y-112266921D01*
X100488543Y-112256956D01*
X100468552Y-112244974D01*
X100449832Y-112231090D01*
X100432562Y-112215438D01*
X100416910Y-112198168D01*
X100403026Y-112179448D01*
X100391044Y-112159457D01*
X100381079Y-112138387D01*
X100373227Y-112116443D01*
X100367563Y-112093834D01*
X100364144Y-112070779D01*
X100363000Y-112047500D01*
X100363000Y-111472500D01*
X100364144Y-111449221D01*
X100367563Y-111426166D01*
X100373227Y-111403557D01*
X100381079Y-111381613D01*
X100391044Y-111360543D01*
X100403026Y-111340552D01*
X100416910Y-111321832D01*
X100432562Y-111304562D01*
X100449832Y-111288910D01*
X100468552Y-111275026D01*
X100488543Y-111263044D01*
X100509613Y-111253079D01*
X100531557Y-111245227D01*
X100554166Y-111239563D01*
X100577221Y-111236144D01*
X100600500Y-111235000D01*
X101075500Y-111235000D01*
X101098779Y-111236144D01*
X101098779Y-111236144D01*
G37*
D17*
G04 #@! TD*
G04 #@! TO.P,R11,1*
G04 #@! TO.N,Net-(D3-Pad2)*
X100838000Y-111760000D03*
D12*
G04 #@! TO.N,/48V_MEASURE*
G04 #@! TO.C,R15*
G36*
X115449779Y-109232144D02*
X115472834Y-109235563D01*
X115495443Y-109241227D01*
X115517387Y-109249079D01*
X115538457Y-109259044D01*
X115558448Y-109271026D01*
X115577168Y-109284910D01*
X115594438Y-109300562D01*
X115610090Y-109317832D01*
X115623974Y-109336552D01*
X115635956Y-109356543D01*
X115645921Y-109377613D01*
X115653773Y-109399557D01*
X115659437Y-109422166D01*
X115662856Y-109445221D01*
X115664000Y-109468500D01*
X115664000Y-110043500D01*
X115662856Y-110066779D01*
X115659437Y-110089834D01*
X115653773Y-110112443D01*
X115645921Y-110134387D01*
X115635956Y-110155457D01*
X115623974Y-110175448D01*
X115610090Y-110194168D01*
X115594438Y-110211438D01*
X115577168Y-110227090D01*
X115558448Y-110240974D01*
X115538457Y-110252956D01*
X115517387Y-110262921D01*
X115495443Y-110270773D01*
X115472834Y-110276437D01*
X115449779Y-110279856D01*
X115426500Y-110281000D01*
X114951500Y-110281000D01*
X114928221Y-110279856D01*
X114905166Y-110276437D01*
X114882557Y-110270773D01*
X114860613Y-110262921D01*
X114839543Y-110252956D01*
X114819552Y-110240974D01*
X114800832Y-110227090D01*
X114783562Y-110211438D01*
X114767910Y-110194168D01*
X114754026Y-110175448D01*
X114742044Y-110155457D01*
X114732079Y-110134387D01*
X114724227Y-110112443D01*
X114718563Y-110089834D01*
X114715144Y-110066779D01*
X114714000Y-110043500D01*
X114714000Y-109468500D01*
X114715144Y-109445221D01*
X114718563Y-109422166D01*
X114724227Y-109399557D01*
X114732079Y-109377613D01*
X114742044Y-109356543D01*
X114754026Y-109336552D01*
X114767910Y-109317832D01*
X114783562Y-109300562D01*
X114800832Y-109284910D01*
X114819552Y-109271026D01*
X114839543Y-109259044D01*
X114860613Y-109249079D01*
X114882557Y-109241227D01*
X114905166Y-109235563D01*
X114928221Y-109232144D01*
X114951500Y-109231000D01*
X115426500Y-109231000D01*
X115449779Y-109232144D01*
X115449779Y-109232144D01*
G37*
D17*
G04 #@! TD*
G04 #@! TO.P,R15,2*
G04 #@! TO.N,/48V_MEASURE*
X115189000Y-109756000D03*
D12*
G04 #@! TO.N,+48V*
G04 #@! TO.C,R15*
G36*
X115449779Y-110982144D02*
X115472834Y-110985563D01*
X115495443Y-110991227D01*
X115517387Y-110999079D01*
X115538457Y-111009044D01*
X115558448Y-111021026D01*
X115577168Y-111034910D01*
X115594438Y-111050562D01*
X115610090Y-111067832D01*
X115623974Y-111086552D01*
X115635956Y-111106543D01*
X115645921Y-111127613D01*
X115653773Y-111149557D01*
X115659437Y-111172166D01*
X115662856Y-111195221D01*
X115664000Y-111218500D01*
X115664000Y-111793500D01*
X115662856Y-111816779D01*
X115659437Y-111839834D01*
X115653773Y-111862443D01*
X115645921Y-111884387D01*
X115635956Y-111905457D01*
X115623974Y-111925448D01*
X115610090Y-111944168D01*
X115594438Y-111961438D01*
X115577168Y-111977090D01*
X115558448Y-111990974D01*
X115538457Y-112002956D01*
X115517387Y-112012921D01*
X115495443Y-112020773D01*
X115472834Y-112026437D01*
X115449779Y-112029856D01*
X115426500Y-112031000D01*
X114951500Y-112031000D01*
X114928221Y-112029856D01*
X114905166Y-112026437D01*
X114882557Y-112020773D01*
X114860613Y-112012921D01*
X114839543Y-112002956D01*
X114819552Y-111990974D01*
X114800832Y-111977090D01*
X114783562Y-111961438D01*
X114767910Y-111944168D01*
X114754026Y-111925448D01*
X114742044Y-111905457D01*
X114732079Y-111884387D01*
X114724227Y-111862443D01*
X114718563Y-111839834D01*
X114715144Y-111816779D01*
X114714000Y-111793500D01*
X114714000Y-111218500D01*
X114715144Y-111195221D01*
X114718563Y-111172166D01*
X114724227Y-111149557D01*
X114732079Y-111127613D01*
X114742044Y-111106543D01*
X114754026Y-111086552D01*
X114767910Y-111067832D01*
X114783562Y-111050562D01*
X114800832Y-111034910D01*
X114819552Y-111021026D01*
X114839543Y-111009044D01*
X114860613Y-110999079D01*
X114882557Y-110991227D01*
X114905166Y-110985563D01*
X114928221Y-110982144D01*
X114951500Y-110981000D01*
X115426500Y-110981000D01*
X115449779Y-110982144D01*
X115449779Y-110982144D01*
G37*
D17*
G04 #@! TD*
G04 #@! TO.P,R15,1*
G04 #@! TO.N,+48V*
X115189000Y-111506000D03*
D12*
G04 #@! TO.N,/48V_MEASURE*
G04 #@! TO.C,R16*
G36*
X112437779Y-109127144D02*
X112460834Y-109130563D01*
X112483443Y-109136227D01*
X112505387Y-109144079D01*
X112526457Y-109154044D01*
X112546448Y-109166026D01*
X112565168Y-109179910D01*
X112582438Y-109195562D01*
X112598090Y-109212832D01*
X112611974Y-109231552D01*
X112623956Y-109251543D01*
X112633921Y-109272613D01*
X112641773Y-109294557D01*
X112647437Y-109317166D01*
X112650856Y-109340221D01*
X112652000Y-109363500D01*
X112652000Y-109838500D01*
X112650856Y-109861779D01*
X112647437Y-109884834D01*
X112641773Y-109907443D01*
X112633921Y-109929387D01*
X112623956Y-109950457D01*
X112611974Y-109970448D01*
X112598090Y-109989168D01*
X112582438Y-110006438D01*
X112565168Y-110022090D01*
X112546448Y-110035974D01*
X112526457Y-110047956D01*
X112505387Y-110057921D01*
X112483443Y-110065773D01*
X112460834Y-110071437D01*
X112437779Y-110074856D01*
X112414500Y-110076000D01*
X111839500Y-110076000D01*
X111816221Y-110074856D01*
X111793166Y-110071437D01*
X111770557Y-110065773D01*
X111748613Y-110057921D01*
X111727543Y-110047956D01*
X111707552Y-110035974D01*
X111688832Y-110022090D01*
X111671562Y-110006438D01*
X111655910Y-109989168D01*
X111642026Y-109970448D01*
X111630044Y-109950457D01*
X111620079Y-109929387D01*
X111612227Y-109907443D01*
X111606563Y-109884834D01*
X111603144Y-109861779D01*
X111602000Y-109838500D01*
X111602000Y-109363500D01*
X111603144Y-109340221D01*
X111606563Y-109317166D01*
X111612227Y-109294557D01*
X111620079Y-109272613D01*
X111630044Y-109251543D01*
X111642026Y-109231552D01*
X111655910Y-109212832D01*
X111671562Y-109195562D01*
X111688832Y-109179910D01*
X111707552Y-109166026D01*
X111727543Y-109154044D01*
X111748613Y-109144079D01*
X111770557Y-109136227D01*
X111793166Y-109130563D01*
X111816221Y-109127144D01*
X111839500Y-109126000D01*
X112414500Y-109126000D01*
X112437779Y-109127144D01*
X112437779Y-109127144D01*
G37*
D17*
G04 #@! TD*
G04 #@! TO.P,R16,1*
G04 #@! TO.N,/48V_MEASURE*
X112127000Y-109601000D03*
D12*
G04 #@! TO.N,GND*
G04 #@! TO.C,R16*
G36*
X110687779Y-109127144D02*
X110710834Y-109130563D01*
X110733443Y-109136227D01*
X110755387Y-109144079D01*
X110776457Y-109154044D01*
X110796448Y-109166026D01*
X110815168Y-109179910D01*
X110832438Y-109195562D01*
X110848090Y-109212832D01*
X110861974Y-109231552D01*
X110873956Y-109251543D01*
X110883921Y-109272613D01*
X110891773Y-109294557D01*
X110897437Y-109317166D01*
X110900856Y-109340221D01*
X110902000Y-109363500D01*
X110902000Y-109838500D01*
X110900856Y-109861779D01*
X110897437Y-109884834D01*
X110891773Y-109907443D01*
X110883921Y-109929387D01*
X110873956Y-109950457D01*
X110861974Y-109970448D01*
X110848090Y-109989168D01*
X110832438Y-110006438D01*
X110815168Y-110022090D01*
X110796448Y-110035974D01*
X110776457Y-110047956D01*
X110755387Y-110057921D01*
X110733443Y-110065773D01*
X110710834Y-110071437D01*
X110687779Y-110074856D01*
X110664500Y-110076000D01*
X110089500Y-110076000D01*
X110066221Y-110074856D01*
X110043166Y-110071437D01*
X110020557Y-110065773D01*
X109998613Y-110057921D01*
X109977543Y-110047956D01*
X109957552Y-110035974D01*
X109938832Y-110022090D01*
X109921562Y-110006438D01*
X109905910Y-109989168D01*
X109892026Y-109970448D01*
X109880044Y-109950457D01*
X109870079Y-109929387D01*
X109862227Y-109907443D01*
X109856563Y-109884834D01*
X109853144Y-109861779D01*
X109852000Y-109838500D01*
X109852000Y-109363500D01*
X109853144Y-109340221D01*
X109856563Y-109317166D01*
X109862227Y-109294557D01*
X109870079Y-109272613D01*
X109880044Y-109251543D01*
X109892026Y-109231552D01*
X109905910Y-109212832D01*
X109921562Y-109195562D01*
X109938832Y-109179910D01*
X109957552Y-109166026D01*
X109977543Y-109154044D01*
X109998613Y-109144079D01*
X110020557Y-109136227D01*
X110043166Y-109130563D01*
X110066221Y-109127144D01*
X110089500Y-109126000D01*
X110664500Y-109126000D01*
X110687779Y-109127144D01*
X110687779Y-109127144D01*
G37*
D17*
G04 #@! TD*
G04 #@! TO.P,R16,2*
G04 #@! TO.N,GND*
X110377000Y-109601000D03*
D12*
G04 #@! TO.N,Net-(P1-Pad33)*
G04 #@! TO.C,R17*
G36*
X81223779Y-111159144D02*
X81246834Y-111162563D01*
X81269443Y-111168227D01*
X81291387Y-111176079D01*
X81312457Y-111186044D01*
X81332448Y-111198026D01*
X81351168Y-111211910D01*
X81368438Y-111227562D01*
X81384090Y-111244832D01*
X81397974Y-111263552D01*
X81409956Y-111283543D01*
X81419921Y-111304613D01*
X81427773Y-111326557D01*
X81433437Y-111349166D01*
X81436856Y-111372221D01*
X81438000Y-111395500D01*
X81438000Y-111870500D01*
X81436856Y-111893779D01*
X81433437Y-111916834D01*
X81427773Y-111939443D01*
X81419921Y-111961387D01*
X81409956Y-111982457D01*
X81397974Y-112002448D01*
X81384090Y-112021168D01*
X81368438Y-112038438D01*
X81351168Y-112054090D01*
X81332448Y-112067974D01*
X81312457Y-112079956D01*
X81291387Y-112089921D01*
X81269443Y-112097773D01*
X81246834Y-112103437D01*
X81223779Y-112106856D01*
X81200500Y-112108000D01*
X80625500Y-112108000D01*
X80602221Y-112106856D01*
X80579166Y-112103437D01*
X80556557Y-112097773D01*
X80534613Y-112089921D01*
X80513543Y-112079956D01*
X80493552Y-112067974D01*
X80474832Y-112054090D01*
X80457562Y-112038438D01*
X80441910Y-112021168D01*
X80428026Y-112002448D01*
X80416044Y-111982457D01*
X80406079Y-111961387D01*
X80398227Y-111939443D01*
X80392563Y-111916834D01*
X80389144Y-111893779D01*
X80388000Y-111870500D01*
X80388000Y-111395500D01*
X80389144Y-111372221D01*
X80392563Y-111349166D01*
X80398227Y-111326557D01*
X80406079Y-111304613D01*
X80416044Y-111283543D01*
X80428026Y-111263552D01*
X80441910Y-111244832D01*
X80457562Y-111227562D01*
X80474832Y-111211910D01*
X80493552Y-111198026D01*
X80513543Y-111186044D01*
X80534613Y-111176079D01*
X80556557Y-111168227D01*
X80579166Y-111162563D01*
X80602221Y-111159144D01*
X80625500Y-111158000D01*
X81200500Y-111158000D01*
X81223779Y-111159144D01*
X81223779Y-111159144D01*
G37*
D17*
G04 #@! TD*
G04 #@! TO.P,R17,2*
G04 #@! TO.N,Net-(P1-Pad33)*
X80913000Y-111633000D03*
D12*
G04 #@! TO.N,Net-(D4-Pad2)*
G04 #@! TO.C,R17*
G36*
X82973779Y-111159144D02*
X82996834Y-111162563D01*
X83019443Y-111168227D01*
X83041387Y-111176079D01*
X83062457Y-111186044D01*
X83082448Y-111198026D01*
X83101168Y-111211910D01*
X83118438Y-111227562D01*
X83134090Y-111244832D01*
X83147974Y-111263552D01*
X83159956Y-111283543D01*
X83169921Y-111304613D01*
X83177773Y-111326557D01*
X83183437Y-111349166D01*
X83186856Y-111372221D01*
X83188000Y-111395500D01*
X83188000Y-111870500D01*
X83186856Y-111893779D01*
X83183437Y-111916834D01*
X83177773Y-111939443D01*
X83169921Y-111961387D01*
X83159956Y-111982457D01*
X83147974Y-112002448D01*
X83134090Y-112021168D01*
X83118438Y-112038438D01*
X83101168Y-112054090D01*
X83082448Y-112067974D01*
X83062457Y-112079956D01*
X83041387Y-112089921D01*
X83019443Y-112097773D01*
X82996834Y-112103437D01*
X82973779Y-112106856D01*
X82950500Y-112108000D01*
X82375500Y-112108000D01*
X82352221Y-112106856D01*
X82329166Y-112103437D01*
X82306557Y-112097773D01*
X82284613Y-112089921D01*
X82263543Y-112079956D01*
X82243552Y-112067974D01*
X82224832Y-112054090D01*
X82207562Y-112038438D01*
X82191910Y-112021168D01*
X82178026Y-112002448D01*
X82166044Y-111982457D01*
X82156079Y-111961387D01*
X82148227Y-111939443D01*
X82142563Y-111916834D01*
X82139144Y-111893779D01*
X82138000Y-111870500D01*
X82138000Y-111395500D01*
X82139144Y-111372221D01*
X82142563Y-111349166D01*
X82148227Y-111326557D01*
X82156079Y-111304613D01*
X82166044Y-111283543D01*
X82178026Y-111263552D01*
X82191910Y-111244832D01*
X82207562Y-111227562D01*
X82224832Y-111211910D01*
X82243552Y-111198026D01*
X82263543Y-111186044D01*
X82284613Y-111176079D01*
X82306557Y-111168227D01*
X82329166Y-111162563D01*
X82352221Y-111159144D01*
X82375500Y-111158000D01*
X82950500Y-111158000D01*
X82973779Y-111159144D01*
X82973779Y-111159144D01*
G37*
D17*
G04 #@! TD*
G04 #@! TO.P,R17,1*
G04 #@! TO.N,Net-(D4-Pad2)*
X82663000Y-111633000D03*
D12*
G04 #@! TO.N,Net-(D5-Pad2)*
G04 #@! TO.C,R18*
G36*
X82973779Y-114334144D02*
X82996834Y-114337563D01*
X83019443Y-114343227D01*
X83041387Y-114351079D01*
X83062457Y-114361044D01*
X83082448Y-114373026D01*
X83101168Y-114386910D01*
X83118438Y-114402562D01*
X83134090Y-114419832D01*
X83147974Y-114438552D01*
X83159956Y-114458543D01*
X83169921Y-114479613D01*
X83177773Y-114501557D01*
X83183437Y-114524166D01*
X83186856Y-114547221D01*
X83188000Y-114570500D01*
X83188000Y-115045500D01*
X83186856Y-115068779D01*
X83183437Y-115091834D01*
X83177773Y-115114443D01*
X83169921Y-115136387D01*
X83159956Y-115157457D01*
X83147974Y-115177448D01*
X83134090Y-115196168D01*
X83118438Y-115213438D01*
X83101168Y-115229090D01*
X83082448Y-115242974D01*
X83062457Y-115254956D01*
X83041387Y-115264921D01*
X83019443Y-115272773D01*
X82996834Y-115278437D01*
X82973779Y-115281856D01*
X82950500Y-115283000D01*
X82375500Y-115283000D01*
X82352221Y-115281856D01*
X82329166Y-115278437D01*
X82306557Y-115272773D01*
X82284613Y-115264921D01*
X82263543Y-115254956D01*
X82243552Y-115242974D01*
X82224832Y-115229090D01*
X82207562Y-115213438D01*
X82191910Y-115196168D01*
X82178026Y-115177448D01*
X82166044Y-115157457D01*
X82156079Y-115136387D01*
X82148227Y-115114443D01*
X82142563Y-115091834D01*
X82139144Y-115068779D01*
X82138000Y-115045500D01*
X82138000Y-114570500D01*
X82139144Y-114547221D01*
X82142563Y-114524166D01*
X82148227Y-114501557D01*
X82156079Y-114479613D01*
X82166044Y-114458543D01*
X82178026Y-114438552D01*
X82191910Y-114419832D01*
X82207562Y-114402562D01*
X82224832Y-114386910D01*
X82243552Y-114373026D01*
X82263543Y-114361044D01*
X82284613Y-114351079D01*
X82306557Y-114343227D01*
X82329166Y-114337563D01*
X82352221Y-114334144D01*
X82375500Y-114333000D01*
X82950500Y-114333000D01*
X82973779Y-114334144D01*
X82973779Y-114334144D01*
G37*
D17*
G04 #@! TD*
G04 #@! TO.P,R18,1*
G04 #@! TO.N,Net-(D5-Pad2)*
X82663000Y-114808000D03*
D12*
G04 #@! TO.N,Net-(P1-Pad35)*
G04 #@! TO.C,R18*
G36*
X81223779Y-114334144D02*
X81246834Y-114337563D01*
X81269443Y-114343227D01*
X81291387Y-114351079D01*
X81312457Y-114361044D01*
X81332448Y-114373026D01*
X81351168Y-114386910D01*
X81368438Y-114402562D01*
X81384090Y-114419832D01*
X81397974Y-114438552D01*
X81409956Y-114458543D01*
X81419921Y-114479613D01*
X81427773Y-114501557D01*
X81433437Y-114524166D01*
X81436856Y-114547221D01*
X81438000Y-114570500D01*
X81438000Y-115045500D01*
X81436856Y-115068779D01*
X81433437Y-115091834D01*
X81427773Y-115114443D01*
X81419921Y-115136387D01*
X81409956Y-115157457D01*
X81397974Y-115177448D01*
X81384090Y-115196168D01*
X81368438Y-115213438D01*
X81351168Y-115229090D01*
X81332448Y-115242974D01*
X81312457Y-115254956D01*
X81291387Y-115264921D01*
X81269443Y-115272773D01*
X81246834Y-115278437D01*
X81223779Y-115281856D01*
X81200500Y-115283000D01*
X80625500Y-115283000D01*
X80602221Y-115281856D01*
X80579166Y-115278437D01*
X80556557Y-115272773D01*
X80534613Y-115264921D01*
X80513543Y-115254956D01*
X80493552Y-115242974D01*
X80474832Y-115229090D01*
X80457562Y-115213438D01*
X80441910Y-115196168D01*
X80428026Y-115177448D01*
X80416044Y-115157457D01*
X80406079Y-115136387D01*
X80398227Y-115114443D01*
X80392563Y-115091834D01*
X80389144Y-115068779D01*
X80388000Y-115045500D01*
X80388000Y-114570500D01*
X80389144Y-114547221D01*
X80392563Y-114524166D01*
X80398227Y-114501557D01*
X80406079Y-114479613D01*
X80416044Y-114458543D01*
X80428026Y-114438552D01*
X80441910Y-114419832D01*
X80457562Y-114402562D01*
X80474832Y-114386910D01*
X80493552Y-114373026D01*
X80513543Y-114361044D01*
X80534613Y-114351079D01*
X80556557Y-114343227D01*
X80579166Y-114337563D01*
X80602221Y-114334144D01*
X80625500Y-114333000D01*
X81200500Y-114333000D01*
X81223779Y-114334144D01*
X81223779Y-114334144D01*
G37*
D17*
G04 #@! TD*
G04 #@! TO.P,R18,2*
G04 #@! TO.N,Net-(P1-Pad35)*
X80913000Y-114808000D03*
D12*
G04 #@! TO.N,Net-(D6-Pad2)*
G04 #@! TO.C,R19*
G36*
X82973779Y-117509144D02*
X82996834Y-117512563D01*
X83019443Y-117518227D01*
X83041387Y-117526079D01*
X83062457Y-117536044D01*
X83082448Y-117548026D01*
X83101168Y-117561910D01*
X83118438Y-117577562D01*
X83134090Y-117594832D01*
X83147974Y-117613552D01*
X83159956Y-117633543D01*
X83169921Y-117654613D01*
X83177773Y-117676557D01*
X83183437Y-117699166D01*
X83186856Y-117722221D01*
X83188000Y-117745500D01*
X83188000Y-118220500D01*
X83186856Y-118243779D01*
X83183437Y-118266834D01*
X83177773Y-118289443D01*
X83169921Y-118311387D01*
X83159956Y-118332457D01*
X83147974Y-118352448D01*
X83134090Y-118371168D01*
X83118438Y-118388438D01*
X83101168Y-118404090D01*
X83082448Y-118417974D01*
X83062457Y-118429956D01*
X83041387Y-118439921D01*
X83019443Y-118447773D01*
X82996834Y-118453437D01*
X82973779Y-118456856D01*
X82950500Y-118458000D01*
X82375500Y-118458000D01*
X82352221Y-118456856D01*
X82329166Y-118453437D01*
X82306557Y-118447773D01*
X82284613Y-118439921D01*
X82263543Y-118429956D01*
X82243552Y-118417974D01*
X82224832Y-118404090D01*
X82207562Y-118388438D01*
X82191910Y-118371168D01*
X82178026Y-118352448D01*
X82166044Y-118332457D01*
X82156079Y-118311387D01*
X82148227Y-118289443D01*
X82142563Y-118266834D01*
X82139144Y-118243779D01*
X82138000Y-118220500D01*
X82138000Y-117745500D01*
X82139144Y-117722221D01*
X82142563Y-117699166D01*
X82148227Y-117676557D01*
X82156079Y-117654613D01*
X82166044Y-117633543D01*
X82178026Y-117613552D01*
X82191910Y-117594832D01*
X82207562Y-117577562D01*
X82224832Y-117561910D01*
X82243552Y-117548026D01*
X82263543Y-117536044D01*
X82284613Y-117526079D01*
X82306557Y-117518227D01*
X82329166Y-117512563D01*
X82352221Y-117509144D01*
X82375500Y-117508000D01*
X82950500Y-117508000D01*
X82973779Y-117509144D01*
X82973779Y-117509144D01*
G37*
D17*
G04 #@! TD*
G04 #@! TO.P,R19,1*
G04 #@! TO.N,Net-(D6-Pad2)*
X82663000Y-117983000D03*
D12*
G04 #@! TO.N,Net-(P1-Pad37)*
G04 #@! TO.C,R19*
G36*
X81223779Y-117509144D02*
X81246834Y-117512563D01*
X81269443Y-117518227D01*
X81291387Y-117526079D01*
X81312457Y-117536044D01*
X81332448Y-117548026D01*
X81351168Y-117561910D01*
X81368438Y-117577562D01*
X81384090Y-117594832D01*
X81397974Y-117613552D01*
X81409956Y-117633543D01*
X81419921Y-117654613D01*
X81427773Y-117676557D01*
X81433437Y-117699166D01*
X81436856Y-117722221D01*
X81438000Y-117745500D01*
X81438000Y-118220500D01*
X81436856Y-118243779D01*
X81433437Y-118266834D01*
X81427773Y-118289443D01*
X81419921Y-118311387D01*
X81409956Y-118332457D01*
X81397974Y-118352448D01*
X81384090Y-118371168D01*
X81368438Y-118388438D01*
X81351168Y-118404090D01*
X81332448Y-118417974D01*
X81312457Y-118429956D01*
X81291387Y-118439921D01*
X81269443Y-118447773D01*
X81246834Y-118453437D01*
X81223779Y-118456856D01*
X81200500Y-118458000D01*
X80625500Y-118458000D01*
X80602221Y-118456856D01*
X80579166Y-118453437D01*
X80556557Y-118447773D01*
X80534613Y-118439921D01*
X80513543Y-118429956D01*
X80493552Y-118417974D01*
X80474832Y-118404090D01*
X80457562Y-118388438D01*
X80441910Y-118371168D01*
X80428026Y-118352448D01*
X80416044Y-118332457D01*
X80406079Y-118311387D01*
X80398227Y-118289443D01*
X80392563Y-118266834D01*
X80389144Y-118243779D01*
X80388000Y-118220500D01*
X80388000Y-117745500D01*
X80389144Y-117722221D01*
X80392563Y-117699166D01*
X80398227Y-117676557D01*
X80406079Y-117654613D01*
X80416044Y-117633543D01*
X80428026Y-117613552D01*
X80441910Y-117594832D01*
X80457562Y-117577562D01*
X80474832Y-117561910D01*
X80493552Y-117548026D01*
X80513543Y-117536044D01*
X80534613Y-117526079D01*
X80556557Y-117518227D01*
X80579166Y-117512563D01*
X80602221Y-117509144D01*
X80625500Y-117508000D01*
X81200500Y-117508000D01*
X81223779Y-117509144D01*
X81223779Y-117509144D01*
G37*
D17*
G04 #@! TD*
G04 #@! TO.P,R19,2*
G04 #@! TO.N,Net-(P1-Pad37)*
X80913000Y-117983000D03*
D26*
G04 #@! TO.P,Y1,1*
G04 #@! TO.N,Net-(C2-Pad1)*
X85344000Y-137922000D03*
G04 #@! TO.P,Y1,2*
G04 #@! TO.N,Net-(C3-Pad1)*
X85344000Y-133042000D03*
G04 #@! TD*
D12*
G04 #@! TO.N,Net-(D1-Pad2)*
G04 #@! TO.C,D1*
G36*
X94240779Y-108696144D02*
X94263834Y-108699563D01*
X94286443Y-108705227D01*
X94308387Y-108713079D01*
X94329457Y-108723044D01*
X94349448Y-108735026D01*
X94368168Y-108748910D01*
X94385438Y-108764562D01*
X94401090Y-108781832D01*
X94414974Y-108800552D01*
X94426956Y-108820543D01*
X94436921Y-108841613D01*
X94444773Y-108863557D01*
X94450437Y-108886166D01*
X94453856Y-108909221D01*
X94455000Y-108932500D01*
X94455000Y-109507500D01*
X94453856Y-109530779D01*
X94450437Y-109553834D01*
X94444773Y-109576443D01*
X94436921Y-109598387D01*
X94426956Y-109619457D01*
X94414974Y-109639448D01*
X94401090Y-109658168D01*
X94385438Y-109675438D01*
X94368168Y-109691090D01*
X94349448Y-109704974D01*
X94329457Y-109716956D01*
X94308387Y-109726921D01*
X94286443Y-109734773D01*
X94263834Y-109740437D01*
X94240779Y-109743856D01*
X94217500Y-109745000D01*
X93742500Y-109745000D01*
X93719221Y-109743856D01*
X93696166Y-109740437D01*
X93673557Y-109734773D01*
X93651613Y-109726921D01*
X93630543Y-109716956D01*
X93610552Y-109704974D01*
X93591832Y-109691090D01*
X93574562Y-109675438D01*
X93558910Y-109658168D01*
X93545026Y-109639448D01*
X93533044Y-109619457D01*
X93523079Y-109598387D01*
X93515227Y-109576443D01*
X93509563Y-109553834D01*
X93506144Y-109530779D01*
X93505000Y-109507500D01*
X93505000Y-108932500D01*
X93506144Y-108909221D01*
X93509563Y-108886166D01*
X93515227Y-108863557D01*
X93523079Y-108841613D01*
X93533044Y-108820543D01*
X93545026Y-108800552D01*
X93558910Y-108781832D01*
X93574562Y-108764562D01*
X93591832Y-108748910D01*
X93610552Y-108735026D01*
X93630543Y-108723044D01*
X93651613Y-108713079D01*
X93673557Y-108705227D01*
X93696166Y-108699563D01*
X93719221Y-108696144D01*
X93742500Y-108695000D01*
X94217500Y-108695000D01*
X94240779Y-108696144D01*
X94240779Y-108696144D01*
G37*
D17*
G04 #@! TD*
G04 #@! TO.P,D1,2*
G04 #@! TO.N,Net-(D1-Pad2)*
X93980000Y-109220000D03*
D12*
G04 #@! TO.N,GND*
G04 #@! TO.C,D1*
G36*
X94240779Y-106946144D02*
X94263834Y-106949563D01*
X94286443Y-106955227D01*
X94308387Y-106963079D01*
X94329457Y-106973044D01*
X94349448Y-106985026D01*
X94368168Y-106998910D01*
X94385438Y-107014562D01*
X94401090Y-107031832D01*
X94414974Y-107050552D01*
X94426956Y-107070543D01*
X94436921Y-107091613D01*
X94444773Y-107113557D01*
X94450437Y-107136166D01*
X94453856Y-107159221D01*
X94455000Y-107182500D01*
X94455000Y-107757500D01*
X94453856Y-107780779D01*
X94450437Y-107803834D01*
X94444773Y-107826443D01*
X94436921Y-107848387D01*
X94426956Y-107869457D01*
X94414974Y-107889448D01*
X94401090Y-107908168D01*
X94385438Y-107925438D01*
X94368168Y-107941090D01*
X94349448Y-107954974D01*
X94329457Y-107966956D01*
X94308387Y-107976921D01*
X94286443Y-107984773D01*
X94263834Y-107990437D01*
X94240779Y-107993856D01*
X94217500Y-107995000D01*
X93742500Y-107995000D01*
X93719221Y-107993856D01*
X93696166Y-107990437D01*
X93673557Y-107984773D01*
X93651613Y-107976921D01*
X93630543Y-107966956D01*
X93610552Y-107954974D01*
X93591832Y-107941090D01*
X93574562Y-107925438D01*
X93558910Y-107908168D01*
X93545026Y-107889448D01*
X93533044Y-107869457D01*
X93523079Y-107848387D01*
X93515227Y-107826443D01*
X93509563Y-107803834D01*
X93506144Y-107780779D01*
X93505000Y-107757500D01*
X93505000Y-107182500D01*
X93506144Y-107159221D01*
X93509563Y-107136166D01*
X93515227Y-107113557D01*
X93523079Y-107091613D01*
X93533044Y-107070543D01*
X93545026Y-107050552D01*
X93558910Y-107031832D01*
X93574562Y-107014562D01*
X93591832Y-106998910D01*
X93610552Y-106985026D01*
X93630543Y-106973044D01*
X93651613Y-106963079D01*
X93673557Y-106955227D01*
X93696166Y-106949563D01*
X93719221Y-106946144D01*
X93742500Y-106945000D01*
X94217500Y-106945000D01*
X94240779Y-106946144D01*
X94240779Y-106946144D01*
G37*
D17*
G04 #@! TD*
G04 #@! TO.P,D1,1*
G04 #@! TO.N,GND*
X93980000Y-107470000D03*
D12*
G04 #@! TO.N,Net-(D2-Pad2)*
G04 #@! TO.C,D2*
G36*
X97542779Y-108696144D02*
X97565834Y-108699563D01*
X97588443Y-108705227D01*
X97610387Y-108713079D01*
X97631457Y-108723044D01*
X97651448Y-108735026D01*
X97670168Y-108748910D01*
X97687438Y-108764562D01*
X97703090Y-108781832D01*
X97716974Y-108800552D01*
X97728956Y-108820543D01*
X97738921Y-108841613D01*
X97746773Y-108863557D01*
X97752437Y-108886166D01*
X97755856Y-108909221D01*
X97757000Y-108932500D01*
X97757000Y-109507500D01*
X97755856Y-109530779D01*
X97752437Y-109553834D01*
X97746773Y-109576443D01*
X97738921Y-109598387D01*
X97728956Y-109619457D01*
X97716974Y-109639448D01*
X97703090Y-109658168D01*
X97687438Y-109675438D01*
X97670168Y-109691090D01*
X97651448Y-109704974D01*
X97631457Y-109716956D01*
X97610387Y-109726921D01*
X97588443Y-109734773D01*
X97565834Y-109740437D01*
X97542779Y-109743856D01*
X97519500Y-109745000D01*
X97044500Y-109745000D01*
X97021221Y-109743856D01*
X96998166Y-109740437D01*
X96975557Y-109734773D01*
X96953613Y-109726921D01*
X96932543Y-109716956D01*
X96912552Y-109704974D01*
X96893832Y-109691090D01*
X96876562Y-109675438D01*
X96860910Y-109658168D01*
X96847026Y-109639448D01*
X96835044Y-109619457D01*
X96825079Y-109598387D01*
X96817227Y-109576443D01*
X96811563Y-109553834D01*
X96808144Y-109530779D01*
X96807000Y-109507500D01*
X96807000Y-108932500D01*
X96808144Y-108909221D01*
X96811563Y-108886166D01*
X96817227Y-108863557D01*
X96825079Y-108841613D01*
X96835044Y-108820543D01*
X96847026Y-108800552D01*
X96860910Y-108781832D01*
X96876562Y-108764562D01*
X96893832Y-108748910D01*
X96912552Y-108735026D01*
X96932543Y-108723044D01*
X96953613Y-108713079D01*
X96975557Y-108705227D01*
X96998166Y-108699563D01*
X97021221Y-108696144D01*
X97044500Y-108695000D01*
X97519500Y-108695000D01*
X97542779Y-108696144D01*
X97542779Y-108696144D01*
G37*
D17*
G04 #@! TD*
G04 #@! TO.P,D2,2*
G04 #@! TO.N,Net-(D2-Pad2)*
X97282000Y-109220000D03*
D12*
G04 #@! TO.N,GND*
G04 #@! TO.C,D2*
G36*
X97542779Y-106946144D02*
X97565834Y-106949563D01*
X97588443Y-106955227D01*
X97610387Y-106963079D01*
X97631457Y-106973044D01*
X97651448Y-106985026D01*
X97670168Y-106998910D01*
X97687438Y-107014562D01*
X97703090Y-107031832D01*
X97716974Y-107050552D01*
X97728956Y-107070543D01*
X97738921Y-107091613D01*
X97746773Y-107113557D01*
X97752437Y-107136166D01*
X97755856Y-107159221D01*
X97757000Y-107182500D01*
X97757000Y-107757500D01*
X97755856Y-107780779D01*
X97752437Y-107803834D01*
X97746773Y-107826443D01*
X97738921Y-107848387D01*
X97728956Y-107869457D01*
X97716974Y-107889448D01*
X97703090Y-107908168D01*
X97687438Y-107925438D01*
X97670168Y-107941090D01*
X97651448Y-107954974D01*
X97631457Y-107966956D01*
X97610387Y-107976921D01*
X97588443Y-107984773D01*
X97565834Y-107990437D01*
X97542779Y-107993856D01*
X97519500Y-107995000D01*
X97044500Y-107995000D01*
X97021221Y-107993856D01*
X96998166Y-107990437D01*
X96975557Y-107984773D01*
X96953613Y-107976921D01*
X96932543Y-107966956D01*
X96912552Y-107954974D01*
X96893832Y-107941090D01*
X96876562Y-107925438D01*
X96860910Y-107908168D01*
X96847026Y-107889448D01*
X96835044Y-107869457D01*
X96825079Y-107848387D01*
X96817227Y-107826443D01*
X96811563Y-107803834D01*
X96808144Y-107780779D01*
X96807000Y-107757500D01*
X96807000Y-107182500D01*
X96808144Y-107159221D01*
X96811563Y-107136166D01*
X96817227Y-107113557D01*
X96825079Y-107091613D01*
X96835044Y-107070543D01*
X96847026Y-107050552D01*
X96860910Y-107031832D01*
X96876562Y-107014562D01*
X96893832Y-106998910D01*
X96912552Y-106985026D01*
X96932543Y-106973044D01*
X96953613Y-106963079D01*
X96975557Y-106955227D01*
X96998166Y-106949563D01*
X97021221Y-106946144D01*
X97044500Y-106945000D01*
X97519500Y-106945000D01*
X97542779Y-106946144D01*
X97542779Y-106946144D01*
G37*
D17*
G04 #@! TD*
G04 #@! TO.P,D2,1*
G04 #@! TO.N,GND*
X97282000Y-107470000D03*
D12*
G04 #@! TO.N,GND*
G04 #@! TO.C,D3*
G36*
X101098779Y-106946144D02*
X101121834Y-106949563D01*
X101144443Y-106955227D01*
X101166387Y-106963079D01*
X101187457Y-106973044D01*
X101207448Y-106985026D01*
X101226168Y-106998910D01*
X101243438Y-107014562D01*
X101259090Y-107031832D01*
X101272974Y-107050552D01*
X101284956Y-107070543D01*
X101294921Y-107091613D01*
X101302773Y-107113557D01*
X101308437Y-107136166D01*
X101311856Y-107159221D01*
X101313000Y-107182500D01*
X101313000Y-107757500D01*
X101311856Y-107780779D01*
X101308437Y-107803834D01*
X101302773Y-107826443D01*
X101294921Y-107848387D01*
X101284956Y-107869457D01*
X101272974Y-107889448D01*
X101259090Y-107908168D01*
X101243438Y-107925438D01*
X101226168Y-107941090D01*
X101207448Y-107954974D01*
X101187457Y-107966956D01*
X101166387Y-107976921D01*
X101144443Y-107984773D01*
X101121834Y-107990437D01*
X101098779Y-107993856D01*
X101075500Y-107995000D01*
X100600500Y-107995000D01*
X100577221Y-107993856D01*
X100554166Y-107990437D01*
X100531557Y-107984773D01*
X100509613Y-107976921D01*
X100488543Y-107966956D01*
X100468552Y-107954974D01*
X100449832Y-107941090D01*
X100432562Y-107925438D01*
X100416910Y-107908168D01*
X100403026Y-107889448D01*
X100391044Y-107869457D01*
X100381079Y-107848387D01*
X100373227Y-107826443D01*
X100367563Y-107803834D01*
X100364144Y-107780779D01*
X100363000Y-107757500D01*
X100363000Y-107182500D01*
X100364144Y-107159221D01*
X100367563Y-107136166D01*
X100373227Y-107113557D01*
X100381079Y-107091613D01*
X100391044Y-107070543D01*
X100403026Y-107050552D01*
X100416910Y-107031832D01*
X100432562Y-107014562D01*
X100449832Y-106998910D01*
X100468552Y-106985026D01*
X100488543Y-106973044D01*
X100509613Y-106963079D01*
X100531557Y-106955227D01*
X100554166Y-106949563D01*
X100577221Y-106946144D01*
X100600500Y-106945000D01*
X101075500Y-106945000D01*
X101098779Y-106946144D01*
X101098779Y-106946144D01*
G37*
D17*
G04 #@! TD*
G04 #@! TO.P,D3,1*
G04 #@! TO.N,GND*
X100838000Y-107470000D03*
D12*
G04 #@! TO.N,Net-(D3-Pad2)*
G04 #@! TO.C,D3*
G36*
X101098779Y-108696144D02*
X101121834Y-108699563D01*
X101144443Y-108705227D01*
X101166387Y-108713079D01*
X101187457Y-108723044D01*
X101207448Y-108735026D01*
X101226168Y-108748910D01*
X101243438Y-108764562D01*
X101259090Y-108781832D01*
X101272974Y-108800552D01*
X101284956Y-108820543D01*
X101294921Y-108841613D01*
X101302773Y-108863557D01*
X101308437Y-108886166D01*
X101311856Y-108909221D01*
X101313000Y-108932500D01*
X101313000Y-109507500D01*
X101311856Y-109530779D01*
X101308437Y-109553834D01*
X101302773Y-109576443D01*
X101294921Y-109598387D01*
X101284956Y-109619457D01*
X101272974Y-109639448D01*
X101259090Y-109658168D01*
X101243438Y-109675438D01*
X101226168Y-109691090D01*
X101207448Y-109704974D01*
X101187457Y-109716956D01*
X101166387Y-109726921D01*
X101144443Y-109734773D01*
X101121834Y-109740437D01*
X101098779Y-109743856D01*
X101075500Y-109745000D01*
X100600500Y-109745000D01*
X100577221Y-109743856D01*
X100554166Y-109740437D01*
X100531557Y-109734773D01*
X100509613Y-109726921D01*
X100488543Y-109716956D01*
X100468552Y-109704974D01*
X100449832Y-109691090D01*
X100432562Y-109675438D01*
X100416910Y-109658168D01*
X100403026Y-109639448D01*
X100391044Y-109619457D01*
X100381079Y-109598387D01*
X100373227Y-109576443D01*
X100367563Y-109553834D01*
X100364144Y-109530779D01*
X100363000Y-109507500D01*
X100363000Y-108932500D01*
X100364144Y-108909221D01*
X100367563Y-108886166D01*
X100373227Y-108863557D01*
X100381079Y-108841613D01*
X100391044Y-108820543D01*
X100403026Y-108800552D01*
X100416910Y-108781832D01*
X100432562Y-108764562D01*
X100449832Y-108748910D01*
X100468552Y-108735026D01*
X100488543Y-108723044D01*
X100509613Y-108713079D01*
X100531557Y-108705227D01*
X100554166Y-108699563D01*
X100577221Y-108696144D01*
X100600500Y-108695000D01*
X101075500Y-108695000D01*
X101098779Y-108696144D01*
X101098779Y-108696144D01*
G37*
D17*
G04 #@! TD*
G04 #@! TO.P,D3,2*
G04 #@! TO.N,Net-(D3-Pad2)*
X100838000Y-109220000D03*
D12*
G04 #@! TO.N,GND*
G04 #@! TO.C,D4*
G36*
X87658779Y-111159144D02*
X87681834Y-111162563D01*
X87704443Y-111168227D01*
X87726387Y-111176079D01*
X87747457Y-111186044D01*
X87767448Y-111198026D01*
X87786168Y-111211910D01*
X87803438Y-111227562D01*
X87819090Y-111244832D01*
X87832974Y-111263552D01*
X87844956Y-111283543D01*
X87854921Y-111304613D01*
X87862773Y-111326557D01*
X87868437Y-111349166D01*
X87871856Y-111372221D01*
X87873000Y-111395500D01*
X87873000Y-111870500D01*
X87871856Y-111893779D01*
X87868437Y-111916834D01*
X87862773Y-111939443D01*
X87854921Y-111961387D01*
X87844956Y-111982457D01*
X87832974Y-112002448D01*
X87819090Y-112021168D01*
X87803438Y-112038438D01*
X87786168Y-112054090D01*
X87767448Y-112067974D01*
X87747457Y-112079956D01*
X87726387Y-112089921D01*
X87704443Y-112097773D01*
X87681834Y-112103437D01*
X87658779Y-112106856D01*
X87635500Y-112108000D01*
X87060500Y-112108000D01*
X87037221Y-112106856D01*
X87014166Y-112103437D01*
X86991557Y-112097773D01*
X86969613Y-112089921D01*
X86948543Y-112079956D01*
X86928552Y-112067974D01*
X86909832Y-112054090D01*
X86892562Y-112038438D01*
X86876910Y-112021168D01*
X86863026Y-112002448D01*
X86851044Y-111982457D01*
X86841079Y-111961387D01*
X86833227Y-111939443D01*
X86827563Y-111916834D01*
X86824144Y-111893779D01*
X86823000Y-111870500D01*
X86823000Y-111395500D01*
X86824144Y-111372221D01*
X86827563Y-111349166D01*
X86833227Y-111326557D01*
X86841079Y-111304613D01*
X86851044Y-111283543D01*
X86863026Y-111263552D01*
X86876910Y-111244832D01*
X86892562Y-111227562D01*
X86909832Y-111211910D01*
X86928552Y-111198026D01*
X86948543Y-111186044D01*
X86969613Y-111176079D01*
X86991557Y-111168227D01*
X87014166Y-111162563D01*
X87037221Y-111159144D01*
X87060500Y-111158000D01*
X87635500Y-111158000D01*
X87658779Y-111159144D01*
X87658779Y-111159144D01*
G37*
D17*
G04 #@! TD*
G04 #@! TO.P,D4,1*
G04 #@! TO.N,GND*
X87348000Y-111633000D03*
D12*
G04 #@! TO.N,Net-(D4-Pad2)*
G04 #@! TO.C,D4*
G36*
X85908779Y-111159144D02*
X85931834Y-111162563D01*
X85954443Y-111168227D01*
X85976387Y-111176079D01*
X85997457Y-111186044D01*
X86017448Y-111198026D01*
X86036168Y-111211910D01*
X86053438Y-111227562D01*
X86069090Y-111244832D01*
X86082974Y-111263552D01*
X86094956Y-111283543D01*
X86104921Y-111304613D01*
X86112773Y-111326557D01*
X86118437Y-111349166D01*
X86121856Y-111372221D01*
X86123000Y-111395500D01*
X86123000Y-111870500D01*
X86121856Y-111893779D01*
X86118437Y-111916834D01*
X86112773Y-111939443D01*
X86104921Y-111961387D01*
X86094956Y-111982457D01*
X86082974Y-112002448D01*
X86069090Y-112021168D01*
X86053438Y-112038438D01*
X86036168Y-112054090D01*
X86017448Y-112067974D01*
X85997457Y-112079956D01*
X85976387Y-112089921D01*
X85954443Y-112097773D01*
X85931834Y-112103437D01*
X85908779Y-112106856D01*
X85885500Y-112108000D01*
X85310500Y-112108000D01*
X85287221Y-112106856D01*
X85264166Y-112103437D01*
X85241557Y-112097773D01*
X85219613Y-112089921D01*
X85198543Y-112079956D01*
X85178552Y-112067974D01*
X85159832Y-112054090D01*
X85142562Y-112038438D01*
X85126910Y-112021168D01*
X85113026Y-112002448D01*
X85101044Y-111982457D01*
X85091079Y-111961387D01*
X85083227Y-111939443D01*
X85077563Y-111916834D01*
X85074144Y-111893779D01*
X85073000Y-111870500D01*
X85073000Y-111395500D01*
X85074144Y-111372221D01*
X85077563Y-111349166D01*
X85083227Y-111326557D01*
X85091079Y-111304613D01*
X85101044Y-111283543D01*
X85113026Y-111263552D01*
X85126910Y-111244832D01*
X85142562Y-111227562D01*
X85159832Y-111211910D01*
X85178552Y-111198026D01*
X85198543Y-111186044D01*
X85219613Y-111176079D01*
X85241557Y-111168227D01*
X85264166Y-111162563D01*
X85287221Y-111159144D01*
X85310500Y-111158000D01*
X85885500Y-111158000D01*
X85908779Y-111159144D01*
X85908779Y-111159144D01*
G37*
D17*
G04 #@! TD*
G04 #@! TO.P,D4,2*
G04 #@! TO.N,Net-(D4-Pad2)*
X85598000Y-111633000D03*
D12*
G04 #@! TO.N,GND*
G04 #@! TO.C,D5*
G36*
X87658779Y-114334144D02*
X87681834Y-114337563D01*
X87704443Y-114343227D01*
X87726387Y-114351079D01*
X87747457Y-114361044D01*
X87767448Y-114373026D01*
X87786168Y-114386910D01*
X87803438Y-114402562D01*
X87819090Y-114419832D01*
X87832974Y-114438552D01*
X87844956Y-114458543D01*
X87854921Y-114479613D01*
X87862773Y-114501557D01*
X87868437Y-114524166D01*
X87871856Y-114547221D01*
X87873000Y-114570500D01*
X87873000Y-115045500D01*
X87871856Y-115068779D01*
X87868437Y-115091834D01*
X87862773Y-115114443D01*
X87854921Y-115136387D01*
X87844956Y-115157457D01*
X87832974Y-115177448D01*
X87819090Y-115196168D01*
X87803438Y-115213438D01*
X87786168Y-115229090D01*
X87767448Y-115242974D01*
X87747457Y-115254956D01*
X87726387Y-115264921D01*
X87704443Y-115272773D01*
X87681834Y-115278437D01*
X87658779Y-115281856D01*
X87635500Y-115283000D01*
X87060500Y-115283000D01*
X87037221Y-115281856D01*
X87014166Y-115278437D01*
X86991557Y-115272773D01*
X86969613Y-115264921D01*
X86948543Y-115254956D01*
X86928552Y-115242974D01*
X86909832Y-115229090D01*
X86892562Y-115213438D01*
X86876910Y-115196168D01*
X86863026Y-115177448D01*
X86851044Y-115157457D01*
X86841079Y-115136387D01*
X86833227Y-115114443D01*
X86827563Y-115091834D01*
X86824144Y-115068779D01*
X86823000Y-115045500D01*
X86823000Y-114570500D01*
X86824144Y-114547221D01*
X86827563Y-114524166D01*
X86833227Y-114501557D01*
X86841079Y-114479613D01*
X86851044Y-114458543D01*
X86863026Y-114438552D01*
X86876910Y-114419832D01*
X86892562Y-114402562D01*
X86909832Y-114386910D01*
X86928552Y-114373026D01*
X86948543Y-114361044D01*
X86969613Y-114351079D01*
X86991557Y-114343227D01*
X87014166Y-114337563D01*
X87037221Y-114334144D01*
X87060500Y-114333000D01*
X87635500Y-114333000D01*
X87658779Y-114334144D01*
X87658779Y-114334144D01*
G37*
D17*
G04 #@! TD*
G04 #@! TO.P,D5,1*
G04 #@! TO.N,GND*
X87348000Y-114808000D03*
D12*
G04 #@! TO.N,Net-(D5-Pad2)*
G04 #@! TO.C,D5*
G36*
X85908779Y-114334144D02*
X85931834Y-114337563D01*
X85954443Y-114343227D01*
X85976387Y-114351079D01*
X85997457Y-114361044D01*
X86017448Y-114373026D01*
X86036168Y-114386910D01*
X86053438Y-114402562D01*
X86069090Y-114419832D01*
X86082974Y-114438552D01*
X86094956Y-114458543D01*
X86104921Y-114479613D01*
X86112773Y-114501557D01*
X86118437Y-114524166D01*
X86121856Y-114547221D01*
X86123000Y-114570500D01*
X86123000Y-115045500D01*
X86121856Y-115068779D01*
X86118437Y-115091834D01*
X86112773Y-115114443D01*
X86104921Y-115136387D01*
X86094956Y-115157457D01*
X86082974Y-115177448D01*
X86069090Y-115196168D01*
X86053438Y-115213438D01*
X86036168Y-115229090D01*
X86017448Y-115242974D01*
X85997457Y-115254956D01*
X85976387Y-115264921D01*
X85954443Y-115272773D01*
X85931834Y-115278437D01*
X85908779Y-115281856D01*
X85885500Y-115283000D01*
X85310500Y-115283000D01*
X85287221Y-115281856D01*
X85264166Y-115278437D01*
X85241557Y-115272773D01*
X85219613Y-115264921D01*
X85198543Y-115254956D01*
X85178552Y-115242974D01*
X85159832Y-115229090D01*
X85142562Y-115213438D01*
X85126910Y-115196168D01*
X85113026Y-115177448D01*
X85101044Y-115157457D01*
X85091079Y-115136387D01*
X85083227Y-115114443D01*
X85077563Y-115091834D01*
X85074144Y-115068779D01*
X85073000Y-115045500D01*
X85073000Y-114570500D01*
X85074144Y-114547221D01*
X85077563Y-114524166D01*
X85083227Y-114501557D01*
X85091079Y-114479613D01*
X85101044Y-114458543D01*
X85113026Y-114438552D01*
X85126910Y-114419832D01*
X85142562Y-114402562D01*
X85159832Y-114386910D01*
X85178552Y-114373026D01*
X85198543Y-114361044D01*
X85219613Y-114351079D01*
X85241557Y-114343227D01*
X85264166Y-114337563D01*
X85287221Y-114334144D01*
X85310500Y-114333000D01*
X85885500Y-114333000D01*
X85908779Y-114334144D01*
X85908779Y-114334144D01*
G37*
D17*
G04 #@! TD*
G04 #@! TO.P,D5,2*
G04 #@! TO.N,Net-(D5-Pad2)*
X85598000Y-114808000D03*
D12*
G04 #@! TO.N,Net-(D6-Pad2)*
G04 #@! TO.C,D6*
G36*
X86063779Y-117509144D02*
X86086834Y-117512563D01*
X86109443Y-117518227D01*
X86131387Y-117526079D01*
X86152457Y-117536044D01*
X86172448Y-117548026D01*
X86191168Y-117561910D01*
X86208438Y-117577562D01*
X86224090Y-117594832D01*
X86237974Y-117613552D01*
X86249956Y-117633543D01*
X86259921Y-117654613D01*
X86267773Y-117676557D01*
X86273437Y-117699166D01*
X86276856Y-117722221D01*
X86278000Y-117745500D01*
X86278000Y-118220500D01*
X86276856Y-118243779D01*
X86273437Y-118266834D01*
X86267773Y-118289443D01*
X86259921Y-118311387D01*
X86249956Y-118332457D01*
X86237974Y-118352448D01*
X86224090Y-118371168D01*
X86208438Y-118388438D01*
X86191168Y-118404090D01*
X86172448Y-118417974D01*
X86152457Y-118429956D01*
X86131387Y-118439921D01*
X86109443Y-118447773D01*
X86086834Y-118453437D01*
X86063779Y-118456856D01*
X86040500Y-118458000D01*
X85465500Y-118458000D01*
X85442221Y-118456856D01*
X85419166Y-118453437D01*
X85396557Y-118447773D01*
X85374613Y-118439921D01*
X85353543Y-118429956D01*
X85333552Y-118417974D01*
X85314832Y-118404090D01*
X85297562Y-118388438D01*
X85281910Y-118371168D01*
X85268026Y-118352448D01*
X85256044Y-118332457D01*
X85246079Y-118311387D01*
X85238227Y-118289443D01*
X85232563Y-118266834D01*
X85229144Y-118243779D01*
X85228000Y-118220500D01*
X85228000Y-117745500D01*
X85229144Y-117722221D01*
X85232563Y-117699166D01*
X85238227Y-117676557D01*
X85246079Y-117654613D01*
X85256044Y-117633543D01*
X85268026Y-117613552D01*
X85281910Y-117594832D01*
X85297562Y-117577562D01*
X85314832Y-117561910D01*
X85333552Y-117548026D01*
X85353543Y-117536044D01*
X85374613Y-117526079D01*
X85396557Y-117518227D01*
X85419166Y-117512563D01*
X85442221Y-117509144D01*
X85465500Y-117508000D01*
X86040500Y-117508000D01*
X86063779Y-117509144D01*
X86063779Y-117509144D01*
G37*
D17*
G04 #@! TD*
G04 #@! TO.P,D6,2*
G04 #@! TO.N,Net-(D6-Pad2)*
X85753000Y-117983000D03*
D12*
G04 #@! TO.N,GND*
G04 #@! TO.C,D6*
G36*
X87813779Y-117509144D02*
X87836834Y-117512563D01*
X87859443Y-117518227D01*
X87881387Y-117526079D01*
X87902457Y-117536044D01*
X87922448Y-117548026D01*
X87941168Y-117561910D01*
X87958438Y-117577562D01*
X87974090Y-117594832D01*
X87987974Y-117613552D01*
X87999956Y-117633543D01*
X88009921Y-117654613D01*
X88017773Y-117676557D01*
X88023437Y-117699166D01*
X88026856Y-117722221D01*
X88028000Y-117745500D01*
X88028000Y-118220500D01*
X88026856Y-118243779D01*
X88023437Y-118266834D01*
X88017773Y-118289443D01*
X88009921Y-118311387D01*
X87999956Y-118332457D01*
X87987974Y-118352448D01*
X87974090Y-118371168D01*
X87958438Y-118388438D01*
X87941168Y-118404090D01*
X87922448Y-118417974D01*
X87902457Y-118429956D01*
X87881387Y-118439921D01*
X87859443Y-118447773D01*
X87836834Y-118453437D01*
X87813779Y-118456856D01*
X87790500Y-118458000D01*
X87215500Y-118458000D01*
X87192221Y-118456856D01*
X87169166Y-118453437D01*
X87146557Y-118447773D01*
X87124613Y-118439921D01*
X87103543Y-118429956D01*
X87083552Y-118417974D01*
X87064832Y-118404090D01*
X87047562Y-118388438D01*
X87031910Y-118371168D01*
X87018026Y-118352448D01*
X87006044Y-118332457D01*
X86996079Y-118311387D01*
X86988227Y-118289443D01*
X86982563Y-118266834D01*
X86979144Y-118243779D01*
X86978000Y-118220500D01*
X86978000Y-117745500D01*
X86979144Y-117722221D01*
X86982563Y-117699166D01*
X86988227Y-117676557D01*
X86996079Y-117654613D01*
X87006044Y-117633543D01*
X87018026Y-117613552D01*
X87031910Y-117594832D01*
X87047562Y-117577562D01*
X87064832Y-117561910D01*
X87083552Y-117548026D01*
X87103543Y-117536044D01*
X87124613Y-117526079D01*
X87146557Y-117518227D01*
X87169166Y-117512563D01*
X87192221Y-117509144D01*
X87215500Y-117508000D01*
X87790500Y-117508000D01*
X87813779Y-117509144D01*
X87813779Y-117509144D01*
G37*
D17*
G04 #@! TD*
G04 #@! TO.P,D6,1*
G04 #@! TO.N,GND*
X87503000Y-117983000D03*
D27*
G04 #@! TO.P,U1,1*
G04 #@! TO.N,+3V3*
X92360109Y-136551942D03*
G04 #@! TO.P,U1,2*
G04 #@! TO.N,/MISC_RE*
X92360109Y-136051942D03*
G04 #@! TO.P,U1,3*
G04 #@! TO.N,/MISC_DE*
X92360109Y-135551942D03*
G04 #@! TO.P,U1,4*
G04 #@! TO.N,/MOTOR_1*
X92360109Y-135051942D03*
G04 #@! TO.P,U1,5*
G04 #@! TO.N,Net-(C2-Pad1)*
X92360109Y-134551942D03*
G04 #@! TO.P,U1,6*
G04 #@! TO.N,Net-(C3-Pad1)*
X92360109Y-134051942D03*
G04 #@! TO.P,U1,7*
G04 #@! TO.N,/NRST*
X92360109Y-133551942D03*
G04 #@! TO.P,U1,8*
G04 #@! TO.N,/3.3V_MEASURE*
X92360109Y-133051942D03*
G04 #@! TO.P,U1,9*
G04 #@! TO.N,/5V_MEASURE*
X92360109Y-132551942D03*
G04 #@! TO.P,U1,10*
G04 #@! TO.N,/48V_MEASURE*
X92360109Y-132051942D03*
G04 #@! TO.P,U1,11*
G04 #@! TO.N,/CURRENT_MEASURE*
X92360109Y-131551942D03*
G04 #@! TO.P,U1,12*
G04 #@! TO.N,GND*
X92360109Y-131051942D03*
G04 #@! TO.P,U1,13*
G04 #@! TO.N,+3V3*
X92360109Y-130551942D03*
G04 #@! TO.P,U1,14*
G04 #@! TO.N,/ODROID_RX*
X92360109Y-130051942D03*
G04 #@! TO.P,U1,15*
G04 #@! TO.N,/ODROID_TX*
X92360109Y-129551942D03*
G04 #@! TO.P,U1,16*
G04 #@! TO.N,Net-(R9-Pad1)*
X92360109Y-129051942D03*
D28*
G04 #@! TO.P,U1,17*
G04 #@! TO.N,Net-(R10-Pad2)*
X94560109Y-126851942D03*
G04 #@! TO.P,U1,18*
G04 #@! TO.N,GND*
X95060109Y-126851942D03*
G04 #@! TO.P,U1,19*
G04 #@! TO.N,+3V3*
X95560109Y-126851942D03*
G04 #@! TO.P,U1,20*
G04 #@! TO.N,Net-(R11-Pad2)*
X96060109Y-126851942D03*
G04 #@! TO.P,U1,21*
G04 #@! TO.N,Net-(U1-Pad21)*
X96560109Y-126851942D03*
G04 #@! TO.P,U1,22*
G04 #@! TO.N,Net-(U1-Pad22)*
X97060109Y-126851942D03*
G04 #@! TO.P,U1,23*
G04 #@! TO.N,Net-(U1-Pad23)*
X97560109Y-126851942D03*
G04 #@! TO.P,U1,24*
G04 #@! TO.N,Net-(J1-Pad2)*
X98060109Y-126851942D03*
G04 #@! TO.P,U1,25*
G04 #@! TO.N,Net-(U1-Pad25)*
X98560109Y-126851942D03*
G04 #@! TO.P,U1,26*
G04 #@! TO.N,Net-(U1-Pad26)*
X99060109Y-126851942D03*
G04 #@! TO.P,U1,27*
G04 #@! TO.N,/24V_MEASURE*
X99560109Y-126851942D03*
G04 #@! TO.P,U1,28*
G04 #@! TO.N,Net-(U1-Pad28)*
X100060109Y-126851942D03*
G04 #@! TO.P,U1,29*
G04 #@! TO.N,/SWITCH_A*
X100560109Y-126851942D03*
G04 #@! TO.P,U1,30*
G04 #@! TO.N,Net-(C18-Pad1)*
X101060109Y-126851942D03*
G04 #@! TO.P,U1,31*
G04 #@! TO.N,GND*
X101560109Y-126851942D03*
G04 #@! TO.P,U1,32*
G04 #@! TO.N,+3V3*
X102060109Y-126851942D03*
D27*
G04 #@! TO.P,U1,33*
G04 #@! TO.N,/SWITCH_B*
X104260109Y-129051942D03*
G04 #@! TO.P,U1,34*
G04 #@! TO.N,/SWITCH_C*
X104260109Y-129551942D03*
G04 #@! TO.P,U1,35*
G04 #@! TO.N,/SWITCH_D*
X104260109Y-130051942D03*
G04 #@! TO.P,U1,36*
G04 #@! TO.N,/SWITCH_E*
X104260109Y-130551942D03*
G04 #@! TO.P,U1,37*
G04 #@! TO.N,/HIH_SCL*
X104260109Y-131051942D03*
G04 #@! TO.P,U1,38*
G04 #@! TO.N,/HIH_SDA*
X104260109Y-131551942D03*
G04 #@! TO.P,U1,39*
G04 #@! TO.N,Net-(U1-Pad39)*
X104260109Y-132051942D03*
G04 #@! TO.P,U1,40*
G04 #@! TO.N,/ICM_SDA*
X104260109Y-132551942D03*
G04 #@! TO.P,U1,41*
G04 #@! TO.N,/ICM_SCL*
X104260109Y-133051942D03*
G04 #@! TO.P,U1,42*
G04 #@! TO.N,/SENSOR_TX*
X104260109Y-133551942D03*
G04 #@! TO.P,U1,43*
G04 #@! TO.N,/SENSOR_RX*
X104260109Y-134051942D03*
G04 #@! TO.P,U1,44*
G04 #@! TO.N,/SENSOR_RE*
X104260109Y-134551942D03*
G04 #@! TO.P,U1,45*
G04 #@! TO.N,/SENSOR_DE*
X104260109Y-135051942D03*
G04 #@! TO.P,U1,46*
G04 #@! TO.N,/SWDIO*
X104260109Y-135551942D03*
G04 #@! TO.P,U1,47*
G04 #@! TO.N,GND*
X104260109Y-136051942D03*
G04 #@! TO.P,U1,48*
G04 #@! TO.N,+3V3*
X104260109Y-136551942D03*
D28*
G04 #@! TO.P,U1,49*
G04 #@! TO.N,/SWCLK*
X102060109Y-138751942D03*
G04 #@! TO.P,U1,50*
G04 #@! TO.N,/MOTOR_8*
X101560109Y-138751942D03*
G04 #@! TO.P,U1,51*
G04 #@! TO.N,/MISC_TX*
X101060109Y-138751942D03*
G04 #@! TO.P,U1,52*
G04 #@! TO.N,/MISC_RX*
X100560109Y-138751942D03*
G04 #@! TO.P,U1,53*
G04 #@! TO.N,/MOTOR_7*
X100060109Y-138751942D03*
G04 #@! TO.P,U1,54*
G04 #@! TO.N,/MOTOR_6*
X99560109Y-138751942D03*
G04 #@! TO.P,U1,55*
G04 #@! TO.N,/JTDO*
X99060109Y-138751942D03*
G04 #@! TO.P,U1,56*
G04 #@! TO.N,/MOTOR_5*
X98560109Y-138751942D03*
G04 #@! TO.P,U1,57*
G04 #@! TO.N,/MOTOR_4*
X98060109Y-138751942D03*
G04 #@! TO.P,U1,58*
G04 #@! TO.N,/USART1_TX*
X97560109Y-138751942D03*
G04 #@! TO.P,U1,59*
G04 #@! TO.N,/USART1_RX*
X97060109Y-138751942D03*
G04 #@! TO.P,U1,60*
G04 #@! TO.N,GND*
X96560109Y-138751942D03*
G04 #@! TO.P,U1,61*
G04 #@! TO.N,/MOTOR_3*
X96060109Y-138751942D03*
G04 #@! TO.P,U1,62*
G04 #@! TO.N,/MOTOR_2*
X95560109Y-138751942D03*
G04 #@! TO.P,U1,63*
G04 #@! TO.N,GND*
X95060109Y-138751942D03*
G04 #@! TO.P,U1,64*
G04 #@! TO.N,+3V3*
X94560109Y-138751942D03*
G04 #@! TD*
D29*
G04 #@! TO.P,J4,4*
G04 #@! TO.N,GND*
X120269000Y-110967000D03*
G04 #@! TO.P,J4,3*
G04 #@! TO.N,Net-(J4-Pad3)*
X120269000Y-112967000D03*
G04 #@! TO.P,J4,2*
G04 #@! TO.N,Net-(J4-Pad2)*
X120269000Y-114967000D03*
D30*
G04 #@! TO.P,J4,1*
G04 #@! TO.N,+48V*
X120269000Y-116967000D03*
G04 #@! TD*
G04 #@! TO.P,J6,1*
G04 #@! TO.N,+48V*
X120269000Y-99187000D03*
D29*
G04 #@! TO.P,J6,2*
G04 #@! TO.N,Net-(J6-Pad2)*
X120269000Y-97187000D03*
G04 #@! TO.P,J6,3*
G04 #@! TO.N,Net-(J6-Pad3)*
X120269000Y-95187000D03*
G04 #@! TO.P,J6,4*
G04 #@! TO.N,GND*
X120269000Y-93187000D03*
G04 #@! TD*
G04 #@! TO.P,J5,3*
G04 #@! TO.N,/MOTOR_1*
X155893000Y-127762000D03*
G04 #@! TO.P,J5,2*
G04 #@! TO.N,Net-(J5-Pad2)*
X157893000Y-127762000D03*
D30*
G04 #@! TO.P,J5,1*
G04 #@! TO.N,GND*
X159893000Y-127762000D03*
G04 #@! TD*
G04 #@! TO.P,J10,1*
G04 #@! TO.N,GND*
X159893000Y-122555000D03*
D29*
G04 #@! TO.P,J10,2*
G04 #@! TO.N,Net-(J10-Pad2)*
X157893000Y-122555000D03*
G04 #@! TO.P,J10,3*
G04 #@! TO.N,/MOTOR_2*
X155893000Y-122555000D03*
G04 #@! TD*
G04 #@! TO.P,J11,3*
G04 #@! TO.N,/MOTOR_3*
X155893000Y-117348000D03*
G04 #@! TO.P,J11,2*
G04 #@! TO.N,Net-(J11-Pad2)*
X157893000Y-117348000D03*
D30*
G04 #@! TO.P,J11,1*
G04 #@! TO.N,GND*
X159893000Y-117348000D03*
G04 #@! TD*
G04 #@! TO.P,J12,1*
G04 #@! TO.N,GND*
X159893000Y-112141000D03*
D29*
G04 #@! TO.P,J12,2*
G04 #@! TO.N,Net-(J12-Pad2)*
X157893000Y-112141000D03*
G04 #@! TO.P,J12,3*
G04 #@! TO.N,/MOTOR_4*
X155893000Y-112141000D03*
G04 #@! TD*
G04 #@! TO.P,J13,3*
G04 #@! TO.N,/MOTOR_5*
X155893000Y-106934000D03*
G04 #@! TO.P,J13,2*
G04 #@! TO.N,Net-(J13-Pad2)*
X157893000Y-106934000D03*
D30*
G04 #@! TO.P,J13,1*
G04 #@! TO.N,GND*
X159893000Y-106934000D03*
G04 #@! TD*
G04 #@! TO.P,J14,1*
G04 #@! TO.N,GND*
X159893000Y-101727000D03*
D29*
G04 #@! TO.P,J14,2*
G04 #@! TO.N,Net-(J14-Pad2)*
X157893000Y-101727000D03*
G04 #@! TO.P,J14,3*
G04 #@! TO.N,/MOTOR_6*
X155893000Y-101727000D03*
G04 #@! TD*
G04 #@! TO.P,J15,3*
G04 #@! TO.N,/MOTOR_7*
X155893000Y-96520000D03*
G04 #@! TO.P,J15,2*
G04 #@! TO.N,Net-(J15-Pad2)*
X157893000Y-96520000D03*
D30*
G04 #@! TO.P,J15,1*
G04 #@! TO.N,GND*
X159893000Y-96520000D03*
G04 #@! TD*
G04 #@! TO.P,J16,1*
G04 #@! TO.N,GND*
X159893000Y-91313000D03*
D29*
G04 #@! TO.P,J16,2*
G04 #@! TO.N,Net-(J16-Pad2)*
X157893000Y-91313000D03*
G04 #@! TO.P,J16,3*
G04 #@! TO.N,/MOTOR_8*
X155893000Y-91313000D03*
G04 #@! TD*
D12*
G04 #@! TO.N,GND*
G04 #@! TO.C,C11*
G36*
X118956779Y-126272144D02*
X118979834Y-126275563D01*
X119002443Y-126281227D01*
X119024387Y-126289079D01*
X119045457Y-126299044D01*
X119065448Y-126311026D01*
X119084168Y-126324910D01*
X119101438Y-126340562D01*
X119117090Y-126357832D01*
X119130974Y-126376552D01*
X119142956Y-126396543D01*
X119152921Y-126417613D01*
X119160773Y-126439557D01*
X119166437Y-126462166D01*
X119169856Y-126485221D01*
X119171000Y-126508500D01*
X119171000Y-126983500D01*
X119169856Y-127006779D01*
X119166437Y-127029834D01*
X119160773Y-127052443D01*
X119152921Y-127074387D01*
X119142956Y-127095457D01*
X119130974Y-127115448D01*
X119117090Y-127134168D01*
X119101438Y-127151438D01*
X119084168Y-127167090D01*
X119065448Y-127180974D01*
X119045457Y-127192956D01*
X119024387Y-127202921D01*
X119002443Y-127210773D01*
X118979834Y-127216437D01*
X118956779Y-127219856D01*
X118933500Y-127221000D01*
X118358500Y-127221000D01*
X118335221Y-127219856D01*
X118312166Y-127216437D01*
X118289557Y-127210773D01*
X118267613Y-127202921D01*
X118246543Y-127192956D01*
X118226552Y-127180974D01*
X118207832Y-127167090D01*
X118190562Y-127151438D01*
X118174910Y-127134168D01*
X118161026Y-127115448D01*
X118149044Y-127095457D01*
X118139079Y-127074387D01*
X118131227Y-127052443D01*
X118125563Y-127029834D01*
X118122144Y-127006779D01*
X118121000Y-126983500D01*
X118121000Y-126508500D01*
X118122144Y-126485221D01*
X118125563Y-126462166D01*
X118131227Y-126439557D01*
X118139079Y-126417613D01*
X118149044Y-126396543D01*
X118161026Y-126376552D01*
X118174910Y-126357832D01*
X118190562Y-126340562D01*
X118207832Y-126324910D01*
X118226552Y-126311026D01*
X118246543Y-126299044D01*
X118267613Y-126289079D01*
X118289557Y-126281227D01*
X118312166Y-126275563D01*
X118335221Y-126272144D01*
X118358500Y-126271000D01*
X118933500Y-126271000D01*
X118956779Y-126272144D01*
X118956779Y-126272144D01*
G37*
D17*
G04 #@! TD*
G04 #@! TO.P,C11,2*
G04 #@! TO.N,GND*
X118646000Y-126746000D03*
D12*
G04 #@! TO.N,+3V3*
G04 #@! TO.C,C11*
G36*
X120706779Y-126272144D02*
X120729834Y-126275563D01*
X120752443Y-126281227D01*
X120774387Y-126289079D01*
X120795457Y-126299044D01*
X120815448Y-126311026D01*
X120834168Y-126324910D01*
X120851438Y-126340562D01*
X120867090Y-126357832D01*
X120880974Y-126376552D01*
X120892956Y-126396543D01*
X120902921Y-126417613D01*
X120910773Y-126439557D01*
X120916437Y-126462166D01*
X120919856Y-126485221D01*
X120921000Y-126508500D01*
X120921000Y-126983500D01*
X120919856Y-127006779D01*
X120916437Y-127029834D01*
X120910773Y-127052443D01*
X120902921Y-127074387D01*
X120892956Y-127095457D01*
X120880974Y-127115448D01*
X120867090Y-127134168D01*
X120851438Y-127151438D01*
X120834168Y-127167090D01*
X120815448Y-127180974D01*
X120795457Y-127192956D01*
X120774387Y-127202921D01*
X120752443Y-127210773D01*
X120729834Y-127216437D01*
X120706779Y-127219856D01*
X120683500Y-127221000D01*
X120108500Y-127221000D01*
X120085221Y-127219856D01*
X120062166Y-127216437D01*
X120039557Y-127210773D01*
X120017613Y-127202921D01*
X119996543Y-127192956D01*
X119976552Y-127180974D01*
X119957832Y-127167090D01*
X119940562Y-127151438D01*
X119924910Y-127134168D01*
X119911026Y-127115448D01*
X119899044Y-127095457D01*
X119889079Y-127074387D01*
X119881227Y-127052443D01*
X119875563Y-127029834D01*
X119872144Y-127006779D01*
X119871000Y-126983500D01*
X119871000Y-126508500D01*
X119872144Y-126485221D01*
X119875563Y-126462166D01*
X119881227Y-126439557D01*
X119889079Y-126417613D01*
X119899044Y-126396543D01*
X119911026Y-126376552D01*
X119924910Y-126357832D01*
X119940562Y-126340562D01*
X119957832Y-126324910D01*
X119976552Y-126311026D01*
X119996543Y-126299044D01*
X120017613Y-126289079D01*
X120039557Y-126281227D01*
X120062166Y-126275563D01*
X120085221Y-126272144D01*
X120108500Y-126271000D01*
X120683500Y-126271000D01*
X120706779Y-126272144D01*
X120706779Y-126272144D01*
G37*
D17*
G04 #@! TD*
G04 #@! TO.P,C11,1*
G04 #@! TO.N,+3V3*
X120396000Y-126746000D03*
D12*
G04 #@! TO.N,+3V3*
G04 #@! TO.C,C12*
G36*
X122688779Y-122158144D02*
X122711834Y-122161563D01*
X122734443Y-122167227D01*
X122756387Y-122175079D01*
X122777457Y-122185044D01*
X122797448Y-122197026D01*
X122816168Y-122210910D01*
X122833438Y-122226562D01*
X122849090Y-122243832D01*
X122862974Y-122262552D01*
X122874956Y-122282543D01*
X122884921Y-122303613D01*
X122892773Y-122325557D01*
X122898437Y-122348166D01*
X122901856Y-122371221D01*
X122903000Y-122394500D01*
X122903000Y-122969500D01*
X122901856Y-122992779D01*
X122898437Y-123015834D01*
X122892773Y-123038443D01*
X122884921Y-123060387D01*
X122874956Y-123081457D01*
X122862974Y-123101448D01*
X122849090Y-123120168D01*
X122833438Y-123137438D01*
X122816168Y-123153090D01*
X122797448Y-123166974D01*
X122777457Y-123178956D01*
X122756387Y-123188921D01*
X122734443Y-123196773D01*
X122711834Y-123202437D01*
X122688779Y-123205856D01*
X122665500Y-123207000D01*
X122190500Y-123207000D01*
X122167221Y-123205856D01*
X122144166Y-123202437D01*
X122121557Y-123196773D01*
X122099613Y-123188921D01*
X122078543Y-123178956D01*
X122058552Y-123166974D01*
X122039832Y-123153090D01*
X122022562Y-123137438D01*
X122006910Y-123120168D01*
X121993026Y-123101448D01*
X121981044Y-123081457D01*
X121971079Y-123060387D01*
X121963227Y-123038443D01*
X121957563Y-123015834D01*
X121954144Y-122992779D01*
X121953000Y-122969500D01*
X121953000Y-122394500D01*
X121954144Y-122371221D01*
X121957563Y-122348166D01*
X121963227Y-122325557D01*
X121971079Y-122303613D01*
X121981044Y-122282543D01*
X121993026Y-122262552D01*
X122006910Y-122243832D01*
X122022562Y-122226562D01*
X122039832Y-122210910D01*
X122058552Y-122197026D01*
X122078543Y-122185044D01*
X122099613Y-122175079D01*
X122121557Y-122167227D01*
X122144166Y-122161563D01*
X122167221Y-122158144D01*
X122190500Y-122157000D01*
X122665500Y-122157000D01*
X122688779Y-122158144D01*
X122688779Y-122158144D01*
G37*
D17*
G04 #@! TD*
G04 #@! TO.P,C12,1*
G04 #@! TO.N,+3V3*
X122428000Y-122682000D03*
D12*
G04 #@! TO.N,GND*
G04 #@! TO.C,C12*
G36*
X122688779Y-123908144D02*
X122711834Y-123911563D01*
X122734443Y-123917227D01*
X122756387Y-123925079D01*
X122777457Y-123935044D01*
X122797448Y-123947026D01*
X122816168Y-123960910D01*
X122833438Y-123976562D01*
X122849090Y-123993832D01*
X122862974Y-124012552D01*
X122874956Y-124032543D01*
X122884921Y-124053613D01*
X122892773Y-124075557D01*
X122898437Y-124098166D01*
X122901856Y-124121221D01*
X122903000Y-124144500D01*
X122903000Y-124719500D01*
X122901856Y-124742779D01*
X122898437Y-124765834D01*
X122892773Y-124788443D01*
X122884921Y-124810387D01*
X122874956Y-124831457D01*
X122862974Y-124851448D01*
X122849090Y-124870168D01*
X122833438Y-124887438D01*
X122816168Y-124903090D01*
X122797448Y-124916974D01*
X122777457Y-124928956D01*
X122756387Y-124938921D01*
X122734443Y-124946773D01*
X122711834Y-124952437D01*
X122688779Y-124955856D01*
X122665500Y-124957000D01*
X122190500Y-124957000D01*
X122167221Y-124955856D01*
X122144166Y-124952437D01*
X122121557Y-124946773D01*
X122099613Y-124938921D01*
X122078543Y-124928956D01*
X122058552Y-124916974D01*
X122039832Y-124903090D01*
X122022562Y-124887438D01*
X122006910Y-124870168D01*
X121993026Y-124851448D01*
X121981044Y-124831457D01*
X121971079Y-124810387D01*
X121963227Y-124788443D01*
X121957563Y-124765834D01*
X121954144Y-124742779D01*
X121953000Y-124719500D01*
X121953000Y-124144500D01*
X121954144Y-124121221D01*
X121957563Y-124098166D01*
X121963227Y-124075557D01*
X121971079Y-124053613D01*
X121981044Y-124032543D01*
X121993026Y-124012552D01*
X122006910Y-123993832D01*
X122022562Y-123976562D01*
X122039832Y-123960910D01*
X122058552Y-123947026D01*
X122078543Y-123935044D01*
X122099613Y-123925079D01*
X122121557Y-123917227D01*
X122144166Y-123911563D01*
X122167221Y-123908144D01*
X122190500Y-123907000D01*
X122665500Y-123907000D01*
X122688779Y-123908144D01*
X122688779Y-123908144D01*
G37*
D17*
G04 #@! TD*
G04 #@! TO.P,C12,2*
G04 #@! TO.N,GND*
X122428000Y-124432000D03*
D31*
G04 #@! TO.P,U3,2*
G04 #@! TO.N,+3V3*
X55474000Y-92964000D03*
D32*
X49174000Y-92964000D03*
G04 #@! TO.P,U3,3*
G04 #@! TO.N,Net-(C15-Pad1)*
X49174000Y-90664000D03*
G04 #@! TO.P,U3,1*
G04 #@! TO.N,GND*
X49174000Y-95264000D03*
G04 #@! TD*
D33*
G04 #@! TO.P,REF\002A\002A,1*
G04 #@! TO.N,N/C*
X143510000Y-62738000D03*
G04 #@! TD*
G04 #@! TO.P,REF\002A\002A,1*
G04 #@! TO.N,N/C*
X60960000Y-62738000D03*
G04 #@! TD*
G04 #@! TO.P,REF\002A\002A,1*
G04 #@! TO.N,N/C*
X143510000Y-138938000D03*
G04 #@! TD*
G04 #@! TO.P,REF\002A\002A,1*
G04 #@! TO.N,N/C*
X60960000Y-138938000D03*
G04 #@! TD*
D18*
G04 #@! TO.P,J3,1*
G04 #@! TO.N,Net-(C15-Pad1)*
X54356000Y-76708000D03*
D34*
G04 #@! TO.P,J3,2*
G04 #@! TO.N,Net-(J3-Pad2)*
X54356000Y-79208000D03*
G04 #@! TO.P,J3,3*
G04 #@! TO.N,Net-(J3-Pad3)*
X52356000Y-79208000D03*
G04 #@! TO.P,J3,4*
G04 #@! TO.N,GND*
X52356000Y-76708000D03*
D35*
G04 #@! TO.P,J3,5*
X49646000Y-71938000D03*
X49646000Y-83978000D03*
G04 #@! TD*
D12*
G04 #@! TO.N,+3V3*
G04 #@! TO.C,C1*
G36*
X92335779Y-77454144D02*
X92358834Y-77457563D01*
X92381443Y-77463227D01*
X92403387Y-77471079D01*
X92424457Y-77481044D01*
X92444448Y-77493026D01*
X92463168Y-77506910D01*
X92480438Y-77522562D01*
X92496090Y-77539832D01*
X92509974Y-77558552D01*
X92521956Y-77578543D01*
X92531921Y-77599613D01*
X92539773Y-77621557D01*
X92545437Y-77644166D01*
X92548856Y-77667221D01*
X92550000Y-77690500D01*
X92550000Y-78265500D01*
X92548856Y-78288779D01*
X92545437Y-78311834D01*
X92539773Y-78334443D01*
X92531921Y-78356387D01*
X92521956Y-78377457D01*
X92509974Y-78397448D01*
X92496090Y-78416168D01*
X92480438Y-78433438D01*
X92463168Y-78449090D01*
X92444448Y-78462974D01*
X92424457Y-78474956D01*
X92403387Y-78484921D01*
X92381443Y-78492773D01*
X92358834Y-78498437D01*
X92335779Y-78501856D01*
X92312500Y-78503000D01*
X91837500Y-78503000D01*
X91814221Y-78501856D01*
X91791166Y-78498437D01*
X91768557Y-78492773D01*
X91746613Y-78484921D01*
X91725543Y-78474956D01*
X91705552Y-78462974D01*
X91686832Y-78449090D01*
X91669562Y-78433438D01*
X91653910Y-78416168D01*
X91640026Y-78397448D01*
X91628044Y-78377457D01*
X91618079Y-78356387D01*
X91610227Y-78334443D01*
X91604563Y-78311834D01*
X91601144Y-78288779D01*
X91600000Y-78265500D01*
X91600000Y-77690500D01*
X91601144Y-77667221D01*
X91604563Y-77644166D01*
X91610227Y-77621557D01*
X91618079Y-77599613D01*
X91628044Y-77578543D01*
X91640026Y-77558552D01*
X91653910Y-77539832D01*
X91669562Y-77522562D01*
X91686832Y-77506910D01*
X91705552Y-77493026D01*
X91725543Y-77481044D01*
X91746613Y-77471079D01*
X91768557Y-77463227D01*
X91791166Y-77457563D01*
X91814221Y-77454144D01*
X91837500Y-77453000D01*
X92312500Y-77453000D01*
X92335779Y-77454144D01*
X92335779Y-77454144D01*
G37*
D17*
G04 #@! TD*
G04 #@! TO.P,C1,2*
G04 #@! TO.N,+3V3*
X92075000Y-77978000D03*
D12*
G04 #@! TO.N,GND*
G04 #@! TO.C,C1*
G36*
X92335779Y-79204144D02*
X92358834Y-79207563D01*
X92381443Y-79213227D01*
X92403387Y-79221079D01*
X92424457Y-79231044D01*
X92444448Y-79243026D01*
X92463168Y-79256910D01*
X92480438Y-79272562D01*
X92496090Y-79289832D01*
X92509974Y-79308552D01*
X92521956Y-79328543D01*
X92531921Y-79349613D01*
X92539773Y-79371557D01*
X92545437Y-79394166D01*
X92548856Y-79417221D01*
X92550000Y-79440500D01*
X92550000Y-80015500D01*
X92548856Y-80038779D01*
X92545437Y-80061834D01*
X92539773Y-80084443D01*
X92531921Y-80106387D01*
X92521956Y-80127457D01*
X92509974Y-80147448D01*
X92496090Y-80166168D01*
X92480438Y-80183438D01*
X92463168Y-80199090D01*
X92444448Y-80212974D01*
X92424457Y-80224956D01*
X92403387Y-80234921D01*
X92381443Y-80242773D01*
X92358834Y-80248437D01*
X92335779Y-80251856D01*
X92312500Y-80253000D01*
X91837500Y-80253000D01*
X91814221Y-80251856D01*
X91791166Y-80248437D01*
X91768557Y-80242773D01*
X91746613Y-80234921D01*
X91725543Y-80224956D01*
X91705552Y-80212974D01*
X91686832Y-80199090D01*
X91669562Y-80183438D01*
X91653910Y-80166168D01*
X91640026Y-80147448D01*
X91628044Y-80127457D01*
X91618079Y-80106387D01*
X91610227Y-80084443D01*
X91604563Y-80061834D01*
X91601144Y-80038779D01*
X91600000Y-80015500D01*
X91600000Y-79440500D01*
X91601144Y-79417221D01*
X91604563Y-79394166D01*
X91610227Y-79371557D01*
X91618079Y-79349613D01*
X91628044Y-79328543D01*
X91640026Y-79308552D01*
X91653910Y-79289832D01*
X91669562Y-79272562D01*
X91686832Y-79256910D01*
X91705552Y-79243026D01*
X91725543Y-79231044D01*
X91746613Y-79221079D01*
X91768557Y-79213227D01*
X91791166Y-79207563D01*
X91814221Y-79204144D01*
X91837500Y-79203000D01*
X92312500Y-79203000D01*
X92335779Y-79204144D01*
X92335779Y-79204144D01*
G37*
D17*
G04 #@! TD*
G04 #@! TO.P,C1,1*
G04 #@! TO.N,GND*
X92075000Y-79728000D03*
D12*
G04 #@! TO.N,Net-(C4-Pad1)*
G04 #@! TO.C,C4*
G36*
X92335779Y-81151144D02*
X92358834Y-81154563D01*
X92381443Y-81160227D01*
X92403387Y-81168079D01*
X92424457Y-81178044D01*
X92444448Y-81190026D01*
X92463168Y-81203910D01*
X92480438Y-81219562D01*
X92496090Y-81236832D01*
X92509974Y-81255552D01*
X92521956Y-81275543D01*
X92531921Y-81296613D01*
X92539773Y-81318557D01*
X92545437Y-81341166D01*
X92548856Y-81364221D01*
X92550000Y-81387500D01*
X92550000Y-81962500D01*
X92548856Y-81985779D01*
X92545437Y-82008834D01*
X92539773Y-82031443D01*
X92531921Y-82053387D01*
X92521956Y-82074457D01*
X92509974Y-82094448D01*
X92496090Y-82113168D01*
X92480438Y-82130438D01*
X92463168Y-82146090D01*
X92444448Y-82159974D01*
X92424457Y-82171956D01*
X92403387Y-82181921D01*
X92381443Y-82189773D01*
X92358834Y-82195437D01*
X92335779Y-82198856D01*
X92312500Y-82200000D01*
X91837500Y-82200000D01*
X91814221Y-82198856D01*
X91791166Y-82195437D01*
X91768557Y-82189773D01*
X91746613Y-82181921D01*
X91725543Y-82171956D01*
X91705552Y-82159974D01*
X91686832Y-82146090D01*
X91669562Y-82130438D01*
X91653910Y-82113168D01*
X91640026Y-82094448D01*
X91628044Y-82074457D01*
X91618079Y-82053387D01*
X91610227Y-82031443D01*
X91604563Y-82008834D01*
X91601144Y-81985779D01*
X91600000Y-81962500D01*
X91600000Y-81387500D01*
X91601144Y-81364221D01*
X91604563Y-81341166D01*
X91610227Y-81318557D01*
X91618079Y-81296613D01*
X91628044Y-81275543D01*
X91640026Y-81255552D01*
X91653910Y-81236832D01*
X91669562Y-81219562D01*
X91686832Y-81203910D01*
X91705552Y-81190026D01*
X91725543Y-81178044D01*
X91746613Y-81168079D01*
X91768557Y-81160227D01*
X91791166Y-81154563D01*
X91814221Y-81151144D01*
X91837500Y-81150000D01*
X92312500Y-81150000D01*
X92335779Y-81151144D01*
X92335779Y-81151144D01*
G37*
D17*
G04 #@! TD*
G04 #@! TO.P,C4,1*
G04 #@! TO.N,Net-(C4-Pad1)*
X92075000Y-81675000D03*
D12*
G04 #@! TO.N,+3V3*
G04 #@! TO.C,C4*
G36*
X92335779Y-82901144D02*
X92358834Y-82904563D01*
X92381443Y-82910227D01*
X92403387Y-82918079D01*
X92424457Y-82928044D01*
X92444448Y-82940026D01*
X92463168Y-82953910D01*
X92480438Y-82969562D01*
X92496090Y-82986832D01*
X92509974Y-83005552D01*
X92521956Y-83025543D01*
X92531921Y-83046613D01*
X92539773Y-83068557D01*
X92545437Y-83091166D01*
X92548856Y-83114221D01*
X92550000Y-83137500D01*
X92550000Y-83712500D01*
X92548856Y-83735779D01*
X92545437Y-83758834D01*
X92539773Y-83781443D01*
X92531921Y-83803387D01*
X92521956Y-83824457D01*
X92509974Y-83844448D01*
X92496090Y-83863168D01*
X92480438Y-83880438D01*
X92463168Y-83896090D01*
X92444448Y-83909974D01*
X92424457Y-83921956D01*
X92403387Y-83931921D01*
X92381443Y-83939773D01*
X92358834Y-83945437D01*
X92335779Y-83948856D01*
X92312500Y-83950000D01*
X91837500Y-83950000D01*
X91814221Y-83948856D01*
X91791166Y-83945437D01*
X91768557Y-83939773D01*
X91746613Y-83931921D01*
X91725543Y-83921956D01*
X91705552Y-83909974D01*
X91686832Y-83896090D01*
X91669562Y-83880438D01*
X91653910Y-83863168D01*
X91640026Y-83844448D01*
X91628044Y-83824457D01*
X91618079Y-83803387D01*
X91610227Y-83781443D01*
X91604563Y-83758834D01*
X91601144Y-83735779D01*
X91600000Y-83712500D01*
X91600000Y-83137500D01*
X91601144Y-83114221D01*
X91604563Y-83091166D01*
X91610227Y-83068557D01*
X91618079Y-83046613D01*
X91628044Y-83025543D01*
X91640026Y-83005552D01*
X91653910Y-82986832D01*
X91669562Y-82969562D01*
X91686832Y-82953910D01*
X91705552Y-82940026D01*
X91725543Y-82928044D01*
X91746613Y-82918079D01*
X91768557Y-82910227D01*
X91791166Y-82904563D01*
X91814221Y-82901144D01*
X91837500Y-82900000D01*
X92312500Y-82900000D01*
X92335779Y-82901144D01*
X92335779Y-82901144D01*
G37*
D17*
G04 #@! TD*
G04 #@! TO.P,C4,2*
G04 #@! TO.N,+3V3*
X92075000Y-83425000D03*
D12*
G04 #@! TO.N,/HIH_SCL*
G04 #@! TO.C,R1*
G36*
X102418779Y-90458144D02*
X102441834Y-90461563D01*
X102464443Y-90467227D01*
X102486387Y-90475079D01*
X102507457Y-90485044D01*
X102527448Y-90497026D01*
X102546168Y-90510910D01*
X102563438Y-90526562D01*
X102579090Y-90543832D01*
X102592974Y-90562552D01*
X102604956Y-90582543D01*
X102614921Y-90603613D01*
X102622773Y-90625557D01*
X102628437Y-90648166D01*
X102631856Y-90671221D01*
X102633000Y-90694500D01*
X102633000Y-91169500D01*
X102631856Y-91192779D01*
X102628437Y-91215834D01*
X102622773Y-91238443D01*
X102614921Y-91260387D01*
X102604956Y-91281457D01*
X102592974Y-91301448D01*
X102579090Y-91320168D01*
X102563438Y-91337438D01*
X102546168Y-91353090D01*
X102527448Y-91366974D01*
X102507457Y-91378956D01*
X102486387Y-91388921D01*
X102464443Y-91396773D01*
X102441834Y-91402437D01*
X102418779Y-91405856D01*
X102395500Y-91407000D01*
X101820500Y-91407000D01*
X101797221Y-91405856D01*
X101774166Y-91402437D01*
X101751557Y-91396773D01*
X101729613Y-91388921D01*
X101708543Y-91378956D01*
X101688552Y-91366974D01*
X101669832Y-91353090D01*
X101652562Y-91337438D01*
X101636910Y-91320168D01*
X101623026Y-91301448D01*
X101611044Y-91281457D01*
X101601079Y-91260387D01*
X101593227Y-91238443D01*
X101587563Y-91215834D01*
X101584144Y-91192779D01*
X101583000Y-91169500D01*
X101583000Y-90694500D01*
X101584144Y-90671221D01*
X101587563Y-90648166D01*
X101593227Y-90625557D01*
X101601079Y-90603613D01*
X101611044Y-90582543D01*
X101623026Y-90562552D01*
X101636910Y-90543832D01*
X101652562Y-90526562D01*
X101669832Y-90510910D01*
X101688552Y-90497026D01*
X101708543Y-90485044D01*
X101729613Y-90475079D01*
X101751557Y-90467227D01*
X101774166Y-90461563D01*
X101797221Y-90458144D01*
X101820500Y-90457000D01*
X102395500Y-90457000D01*
X102418779Y-90458144D01*
X102418779Y-90458144D01*
G37*
D17*
G04 #@! TD*
G04 #@! TO.P,R1,2*
G04 #@! TO.N,/HIH_SCL*
X102108000Y-90932000D03*
D12*
G04 #@! TO.N,+3V3*
G04 #@! TO.C,R1*
G36*
X100668779Y-90458144D02*
X100691834Y-90461563D01*
X100714443Y-90467227D01*
X100736387Y-90475079D01*
X100757457Y-90485044D01*
X100777448Y-90497026D01*
X100796168Y-90510910D01*
X100813438Y-90526562D01*
X100829090Y-90543832D01*
X100842974Y-90562552D01*
X100854956Y-90582543D01*
X100864921Y-90603613D01*
X100872773Y-90625557D01*
X100878437Y-90648166D01*
X100881856Y-90671221D01*
X100883000Y-90694500D01*
X100883000Y-91169500D01*
X100881856Y-91192779D01*
X100878437Y-91215834D01*
X100872773Y-91238443D01*
X100864921Y-91260387D01*
X100854956Y-91281457D01*
X100842974Y-91301448D01*
X100829090Y-91320168D01*
X100813438Y-91337438D01*
X100796168Y-91353090D01*
X100777448Y-91366974D01*
X100757457Y-91378956D01*
X100736387Y-91388921D01*
X100714443Y-91396773D01*
X100691834Y-91402437D01*
X100668779Y-91405856D01*
X100645500Y-91407000D01*
X100070500Y-91407000D01*
X100047221Y-91405856D01*
X100024166Y-91402437D01*
X100001557Y-91396773D01*
X99979613Y-91388921D01*
X99958543Y-91378956D01*
X99938552Y-91366974D01*
X99919832Y-91353090D01*
X99902562Y-91337438D01*
X99886910Y-91320168D01*
X99873026Y-91301448D01*
X99861044Y-91281457D01*
X99851079Y-91260387D01*
X99843227Y-91238443D01*
X99837563Y-91215834D01*
X99834144Y-91192779D01*
X99833000Y-91169500D01*
X99833000Y-90694500D01*
X99834144Y-90671221D01*
X99837563Y-90648166D01*
X99843227Y-90625557D01*
X99851079Y-90603613D01*
X99861044Y-90582543D01*
X99873026Y-90562552D01*
X99886910Y-90543832D01*
X99902562Y-90526562D01*
X99919832Y-90510910D01*
X99938552Y-90497026D01*
X99958543Y-90485044D01*
X99979613Y-90475079D01*
X100001557Y-90467227D01*
X100024166Y-90461563D01*
X100047221Y-90458144D01*
X100070500Y-90457000D01*
X100645500Y-90457000D01*
X100668779Y-90458144D01*
X100668779Y-90458144D01*
G37*
D17*
G04 #@! TD*
G04 #@! TO.P,R1,1*
G04 #@! TO.N,+3V3*
X100358000Y-90932000D03*
D12*
G04 #@! TO.N,+3V3*
G04 #@! TO.C,R2*
G36*
X107724779Y-90458144D02*
X107747834Y-90461563D01*
X107770443Y-90467227D01*
X107792387Y-90475079D01*
X107813457Y-90485044D01*
X107833448Y-90497026D01*
X107852168Y-90510910D01*
X107869438Y-90526562D01*
X107885090Y-90543832D01*
X107898974Y-90562552D01*
X107910956Y-90582543D01*
X107920921Y-90603613D01*
X107928773Y-90625557D01*
X107934437Y-90648166D01*
X107937856Y-90671221D01*
X107939000Y-90694500D01*
X107939000Y-91169500D01*
X107937856Y-91192779D01*
X107934437Y-91215834D01*
X107928773Y-91238443D01*
X107920921Y-91260387D01*
X107910956Y-91281457D01*
X107898974Y-91301448D01*
X107885090Y-91320168D01*
X107869438Y-91337438D01*
X107852168Y-91353090D01*
X107833448Y-91366974D01*
X107813457Y-91378956D01*
X107792387Y-91388921D01*
X107770443Y-91396773D01*
X107747834Y-91402437D01*
X107724779Y-91405856D01*
X107701500Y-91407000D01*
X107126500Y-91407000D01*
X107103221Y-91405856D01*
X107080166Y-91402437D01*
X107057557Y-91396773D01*
X107035613Y-91388921D01*
X107014543Y-91378956D01*
X106994552Y-91366974D01*
X106975832Y-91353090D01*
X106958562Y-91337438D01*
X106942910Y-91320168D01*
X106929026Y-91301448D01*
X106917044Y-91281457D01*
X106907079Y-91260387D01*
X106899227Y-91238443D01*
X106893563Y-91215834D01*
X106890144Y-91192779D01*
X106889000Y-91169500D01*
X106889000Y-90694500D01*
X106890144Y-90671221D01*
X106893563Y-90648166D01*
X106899227Y-90625557D01*
X106907079Y-90603613D01*
X106917044Y-90582543D01*
X106929026Y-90562552D01*
X106942910Y-90543832D01*
X106958562Y-90526562D01*
X106975832Y-90510910D01*
X106994552Y-90497026D01*
X107014543Y-90485044D01*
X107035613Y-90475079D01*
X107057557Y-90467227D01*
X107080166Y-90461563D01*
X107103221Y-90458144D01*
X107126500Y-90457000D01*
X107701500Y-90457000D01*
X107724779Y-90458144D01*
X107724779Y-90458144D01*
G37*
D17*
G04 #@! TD*
G04 #@! TO.P,R2,1*
G04 #@! TO.N,+3V3*
X107414000Y-90932000D03*
D12*
G04 #@! TO.N,/HIH_SDA*
G04 #@! TO.C,R2*
G36*
X105974779Y-90458144D02*
X105997834Y-90461563D01*
X106020443Y-90467227D01*
X106042387Y-90475079D01*
X106063457Y-90485044D01*
X106083448Y-90497026D01*
X106102168Y-90510910D01*
X106119438Y-90526562D01*
X106135090Y-90543832D01*
X106148974Y-90562552D01*
X106160956Y-90582543D01*
X106170921Y-90603613D01*
X106178773Y-90625557D01*
X106184437Y-90648166D01*
X106187856Y-90671221D01*
X106189000Y-90694500D01*
X106189000Y-91169500D01*
X106187856Y-91192779D01*
X106184437Y-91215834D01*
X106178773Y-91238443D01*
X106170921Y-91260387D01*
X106160956Y-91281457D01*
X106148974Y-91301448D01*
X106135090Y-91320168D01*
X106119438Y-91337438D01*
X106102168Y-91353090D01*
X106083448Y-91366974D01*
X106063457Y-91378956D01*
X106042387Y-91388921D01*
X106020443Y-91396773D01*
X105997834Y-91402437D01*
X105974779Y-91405856D01*
X105951500Y-91407000D01*
X105376500Y-91407000D01*
X105353221Y-91405856D01*
X105330166Y-91402437D01*
X105307557Y-91396773D01*
X105285613Y-91388921D01*
X105264543Y-91378956D01*
X105244552Y-91366974D01*
X105225832Y-91353090D01*
X105208562Y-91337438D01*
X105192910Y-91320168D01*
X105179026Y-91301448D01*
X105167044Y-91281457D01*
X105157079Y-91260387D01*
X105149227Y-91238443D01*
X105143563Y-91215834D01*
X105140144Y-91192779D01*
X105139000Y-91169500D01*
X105139000Y-90694500D01*
X105140144Y-90671221D01*
X105143563Y-90648166D01*
X105149227Y-90625557D01*
X105157079Y-90603613D01*
X105167044Y-90582543D01*
X105179026Y-90562552D01*
X105192910Y-90543832D01*
X105208562Y-90526562D01*
X105225832Y-90510910D01*
X105244552Y-90497026D01*
X105264543Y-90485044D01*
X105285613Y-90475079D01*
X105307557Y-90467227D01*
X105330166Y-90461563D01*
X105353221Y-90458144D01*
X105376500Y-90457000D01*
X105951500Y-90457000D01*
X105974779Y-90458144D01*
X105974779Y-90458144D01*
G37*
D17*
G04 #@! TD*
G04 #@! TO.P,R2,2*
G04 #@! TO.N,/HIH_SDA*
X105664000Y-90932000D03*
D36*
G04 #@! TO.P,U2,1*
G04 #@! TO.N,Net-(C4-Pad1)*
X95162001Y-81729999D03*
G04 #@! TO.P,U2,2*
G04 #@! TO.N,GND*
X95162001Y-80459999D03*
G04 #@! TO.P,U2,3*
G04 #@! TO.N,/HIH_SCL*
X95162001Y-79189999D03*
G04 #@! TO.P,U2,4*
G04 #@! TO.N,/HIH_SDA*
X95162001Y-77919999D03*
G04 #@! TO.P,U2,5*
G04 #@! TO.N,Net-(U2-Pad5)*
X100562001Y-77919999D03*
G04 #@! TO.P,U2,6*
G04 #@! TO.N,Net-(U2-Pad6)*
X100562001Y-79189999D03*
G04 #@! TO.P,U2,7*
G04 #@! TO.N,Net-(U2-Pad7)*
X100562001Y-80459999D03*
G04 #@! TO.P,U2,8*
G04 #@! TO.N,+3V3*
X100562001Y-81729999D03*
G04 #@! TD*
D12*
G04 #@! TO.N,GND*
G04 #@! TO.C,C15*
G36*
X44026779Y-89696144D02*
X44049834Y-89699563D01*
X44072443Y-89705227D01*
X44094387Y-89713079D01*
X44115457Y-89723044D01*
X44135448Y-89735026D01*
X44154168Y-89748910D01*
X44171438Y-89764562D01*
X44187090Y-89781832D01*
X44200974Y-89800552D01*
X44212956Y-89820543D01*
X44222921Y-89841613D01*
X44230773Y-89863557D01*
X44236437Y-89886166D01*
X44239856Y-89909221D01*
X44241000Y-89932500D01*
X44241000Y-90407500D01*
X44239856Y-90430779D01*
X44236437Y-90453834D01*
X44230773Y-90476443D01*
X44222921Y-90498387D01*
X44212956Y-90519457D01*
X44200974Y-90539448D01*
X44187090Y-90558168D01*
X44171438Y-90575438D01*
X44154168Y-90591090D01*
X44135448Y-90604974D01*
X44115457Y-90616956D01*
X44094387Y-90626921D01*
X44072443Y-90634773D01*
X44049834Y-90640437D01*
X44026779Y-90643856D01*
X44003500Y-90645000D01*
X43428500Y-90645000D01*
X43405221Y-90643856D01*
X43382166Y-90640437D01*
X43359557Y-90634773D01*
X43337613Y-90626921D01*
X43316543Y-90616956D01*
X43296552Y-90604974D01*
X43277832Y-90591090D01*
X43260562Y-90575438D01*
X43244910Y-90558168D01*
X43231026Y-90539448D01*
X43219044Y-90519457D01*
X43209079Y-90498387D01*
X43201227Y-90476443D01*
X43195563Y-90453834D01*
X43192144Y-90430779D01*
X43191000Y-90407500D01*
X43191000Y-89932500D01*
X43192144Y-89909221D01*
X43195563Y-89886166D01*
X43201227Y-89863557D01*
X43209079Y-89841613D01*
X43219044Y-89820543D01*
X43231026Y-89800552D01*
X43244910Y-89781832D01*
X43260562Y-89764562D01*
X43277832Y-89748910D01*
X43296552Y-89735026D01*
X43316543Y-89723044D01*
X43337613Y-89713079D01*
X43359557Y-89705227D01*
X43382166Y-89699563D01*
X43405221Y-89696144D01*
X43428500Y-89695000D01*
X44003500Y-89695000D01*
X44026779Y-89696144D01*
X44026779Y-89696144D01*
G37*
D17*
G04 #@! TD*
G04 #@! TO.P,C15,2*
G04 #@! TO.N,GND*
X43716000Y-90170000D03*
D12*
G04 #@! TO.N,Net-(C15-Pad1)*
G04 #@! TO.C,C15*
G36*
X45776779Y-89696144D02*
X45799834Y-89699563D01*
X45822443Y-89705227D01*
X45844387Y-89713079D01*
X45865457Y-89723044D01*
X45885448Y-89735026D01*
X45904168Y-89748910D01*
X45921438Y-89764562D01*
X45937090Y-89781832D01*
X45950974Y-89800552D01*
X45962956Y-89820543D01*
X45972921Y-89841613D01*
X45980773Y-89863557D01*
X45986437Y-89886166D01*
X45989856Y-89909221D01*
X45991000Y-89932500D01*
X45991000Y-90407500D01*
X45989856Y-90430779D01*
X45986437Y-90453834D01*
X45980773Y-90476443D01*
X45972921Y-90498387D01*
X45962956Y-90519457D01*
X45950974Y-90539448D01*
X45937090Y-90558168D01*
X45921438Y-90575438D01*
X45904168Y-90591090D01*
X45885448Y-90604974D01*
X45865457Y-90616956D01*
X45844387Y-90626921D01*
X45822443Y-90634773D01*
X45799834Y-90640437D01*
X45776779Y-90643856D01*
X45753500Y-90645000D01*
X45178500Y-90645000D01*
X45155221Y-90643856D01*
X45132166Y-90640437D01*
X45109557Y-90634773D01*
X45087613Y-90626921D01*
X45066543Y-90616956D01*
X45046552Y-90604974D01*
X45027832Y-90591090D01*
X45010562Y-90575438D01*
X44994910Y-90558168D01*
X44981026Y-90539448D01*
X44969044Y-90519457D01*
X44959079Y-90498387D01*
X44951227Y-90476443D01*
X44945563Y-90453834D01*
X44942144Y-90430779D01*
X44941000Y-90407500D01*
X44941000Y-89932500D01*
X44942144Y-89909221D01*
X44945563Y-89886166D01*
X44951227Y-89863557D01*
X44959079Y-89841613D01*
X44969044Y-89820543D01*
X44981026Y-89800552D01*
X44994910Y-89781832D01*
X45010562Y-89764562D01*
X45027832Y-89748910D01*
X45046552Y-89735026D01*
X45066543Y-89723044D01*
X45087613Y-89713079D01*
X45109557Y-89705227D01*
X45132166Y-89699563D01*
X45155221Y-89696144D01*
X45178500Y-89695000D01*
X45753500Y-89695000D01*
X45776779Y-89696144D01*
X45776779Y-89696144D01*
G37*
D17*
G04 #@! TD*
G04 #@! TO.P,C15,1*
G04 #@! TO.N,Net-(C15-Pad1)*
X45466000Y-90170000D03*
D12*
G04 #@! TO.N,+3V3*
G04 #@! TO.C,C16*
G36*
X45776779Y-92744144D02*
X45799834Y-92747563D01*
X45822443Y-92753227D01*
X45844387Y-92761079D01*
X45865457Y-92771044D01*
X45885448Y-92783026D01*
X45904168Y-92796910D01*
X45921438Y-92812562D01*
X45937090Y-92829832D01*
X45950974Y-92848552D01*
X45962956Y-92868543D01*
X45972921Y-92889613D01*
X45980773Y-92911557D01*
X45986437Y-92934166D01*
X45989856Y-92957221D01*
X45991000Y-92980500D01*
X45991000Y-93455500D01*
X45989856Y-93478779D01*
X45986437Y-93501834D01*
X45980773Y-93524443D01*
X45972921Y-93546387D01*
X45962956Y-93567457D01*
X45950974Y-93587448D01*
X45937090Y-93606168D01*
X45921438Y-93623438D01*
X45904168Y-93639090D01*
X45885448Y-93652974D01*
X45865457Y-93664956D01*
X45844387Y-93674921D01*
X45822443Y-93682773D01*
X45799834Y-93688437D01*
X45776779Y-93691856D01*
X45753500Y-93693000D01*
X45178500Y-93693000D01*
X45155221Y-93691856D01*
X45132166Y-93688437D01*
X45109557Y-93682773D01*
X45087613Y-93674921D01*
X45066543Y-93664956D01*
X45046552Y-93652974D01*
X45027832Y-93639090D01*
X45010562Y-93623438D01*
X44994910Y-93606168D01*
X44981026Y-93587448D01*
X44969044Y-93567457D01*
X44959079Y-93546387D01*
X44951227Y-93524443D01*
X44945563Y-93501834D01*
X44942144Y-93478779D01*
X44941000Y-93455500D01*
X44941000Y-92980500D01*
X44942144Y-92957221D01*
X44945563Y-92934166D01*
X44951227Y-92911557D01*
X44959079Y-92889613D01*
X44969044Y-92868543D01*
X44981026Y-92848552D01*
X44994910Y-92829832D01*
X45010562Y-92812562D01*
X45027832Y-92796910D01*
X45046552Y-92783026D01*
X45066543Y-92771044D01*
X45087613Y-92761079D01*
X45109557Y-92753227D01*
X45132166Y-92747563D01*
X45155221Y-92744144D01*
X45178500Y-92743000D01*
X45753500Y-92743000D01*
X45776779Y-92744144D01*
X45776779Y-92744144D01*
G37*
D17*
G04 #@! TD*
G04 #@! TO.P,C16,1*
G04 #@! TO.N,+3V3*
X45466000Y-93218000D03*
D12*
G04 #@! TO.N,GND*
G04 #@! TO.C,C16*
G36*
X44026779Y-92744144D02*
X44049834Y-92747563D01*
X44072443Y-92753227D01*
X44094387Y-92761079D01*
X44115457Y-92771044D01*
X44135448Y-92783026D01*
X44154168Y-92796910D01*
X44171438Y-92812562D01*
X44187090Y-92829832D01*
X44200974Y-92848552D01*
X44212956Y-92868543D01*
X44222921Y-92889613D01*
X44230773Y-92911557D01*
X44236437Y-92934166D01*
X44239856Y-92957221D01*
X44241000Y-92980500D01*
X44241000Y-93455500D01*
X44239856Y-93478779D01*
X44236437Y-93501834D01*
X44230773Y-93524443D01*
X44222921Y-93546387D01*
X44212956Y-93567457D01*
X44200974Y-93587448D01*
X44187090Y-93606168D01*
X44171438Y-93623438D01*
X44154168Y-93639090D01*
X44135448Y-93652974D01*
X44115457Y-93664956D01*
X44094387Y-93674921D01*
X44072443Y-93682773D01*
X44049834Y-93688437D01*
X44026779Y-93691856D01*
X44003500Y-93693000D01*
X43428500Y-93693000D01*
X43405221Y-93691856D01*
X43382166Y-93688437D01*
X43359557Y-93682773D01*
X43337613Y-93674921D01*
X43316543Y-93664956D01*
X43296552Y-93652974D01*
X43277832Y-93639090D01*
X43260562Y-93623438D01*
X43244910Y-93606168D01*
X43231026Y-93587448D01*
X43219044Y-93567457D01*
X43209079Y-93546387D01*
X43201227Y-93524443D01*
X43195563Y-93501834D01*
X43192144Y-93478779D01*
X43191000Y-93455500D01*
X43191000Y-92980500D01*
X43192144Y-92957221D01*
X43195563Y-92934166D01*
X43201227Y-92911557D01*
X43209079Y-92889613D01*
X43219044Y-92868543D01*
X43231026Y-92848552D01*
X43244910Y-92829832D01*
X43260562Y-92812562D01*
X43277832Y-92796910D01*
X43296552Y-92783026D01*
X43316543Y-92771044D01*
X43337613Y-92761079D01*
X43359557Y-92753227D01*
X43382166Y-92747563D01*
X43405221Y-92744144D01*
X43428500Y-92743000D01*
X44003500Y-92743000D01*
X44026779Y-92744144D01*
X44026779Y-92744144D01*
G37*
D17*
G04 #@! TD*
G04 #@! TO.P,C16,2*
G04 #@! TO.N,GND*
X43716000Y-93218000D03*
D22*
G04 #@! TO.P,J8,1*
G04 #@! TO.N,GND*
X65024000Y-51054000D03*
D23*
G04 #@! TO.P,J8,2*
G04 #@! TO.N,+3V3*
X77724000Y-51054000D03*
G04 #@! TD*
D12*
G04 #@! TO.N,GND*
G04 #@! TO.C,C18*
G36*
X103130779Y-121142144D02*
X103153834Y-121145563D01*
X103176443Y-121151227D01*
X103198387Y-121159079D01*
X103219457Y-121169044D01*
X103239448Y-121181026D01*
X103258168Y-121194910D01*
X103275438Y-121210562D01*
X103291090Y-121227832D01*
X103304974Y-121246552D01*
X103316956Y-121266543D01*
X103326921Y-121287613D01*
X103334773Y-121309557D01*
X103340437Y-121332166D01*
X103343856Y-121355221D01*
X103345000Y-121378500D01*
X103345000Y-121953500D01*
X103343856Y-121976779D01*
X103340437Y-121999834D01*
X103334773Y-122022443D01*
X103326921Y-122044387D01*
X103316956Y-122065457D01*
X103304974Y-122085448D01*
X103291090Y-122104168D01*
X103275438Y-122121438D01*
X103258168Y-122137090D01*
X103239448Y-122150974D01*
X103219457Y-122162956D01*
X103198387Y-122172921D01*
X103176443Y-122180773D01*
X103153834Y-122186437D01*
X103130779Y-122189856D01*
X103107500Y-122191000D01*
X102632500Y-122191000D01*
X102609221Y-122189856D01*
X102586166Y-122186437D01*
X102563557Y-122180773D01*
X102541613Y-122172921D01*
X102520543Y-122162956D01*
X102500552Y-122150974D01*
X102481832Y-122137090D01*
X102464562Y-122121438D01*
X102448910Y-122104168D01*
X102435026Y-122085448D01*
X102423044Y-122065457D01*
X102413079Y-122044387D01*
X102405227Y-122022443D01*
X102399563Y-121999834D01*
X102396144Y-121976779D01*
X102395000Y-121953500D01*
X102395000Y-121378500D01*
X102396144Y-121355221D01*
X102399563Y-121332166D01*
X102405227Y-121309557D01*
X102413079Y-121287613D01*
X102423044Y-121266543D01*
X102435026Y-121246552D01*
X102448910Y-121227832D01*
X102464562Y-121210562D01*
X102481832Y-121194910D01*
X102500552Y-121181026D01*
X102520543Y-121169044D01*
X102541613Y-121159079D01*
X102563557Y-121151227D01*
X102586166Y-121145563D01*
X102609221Y-121142144D01*
X102632500Y-121141000D01*
X103107500Y-121141000D01*
X103130779Y-121142144D01*
X103130779Y-121142144D01*
G37*
D17*
G04 #@! TD*
G04 #@! TO.P,C18,2*
G04 #@! TO.N,GND*
X102870000Y-121666000D03*
D12*
G04 #@! TO.N,Net-(C18-Pad1)*
G04 #@! TO.C,C18*
G36*
X103130779Y-122892144D02*
X103153834Y-122895563D01*
X103176443Y-122901227D01*
X103198387Y-122909079D01*
X103219457Y-122919044D01*
X103239448Y-122931026D01*
X103258168Y-122944910D01*
X103275438Y-122960562D01*
X103291090Y-122977832D01*
X103304974Y-122996552D01*
X103316956Y-123016543D01*
X103326921Y-123037613D01*
X103334773Y-123059557D01*
X103340437Y-123082166D01*
X103343856Y-123105221D01*
X103345000Y-123128500D01*
X103345000Y-123703500D01*
X103343856Y-123726779D01*
X103340437Y-123749834D01*
X103334773Y-123772443D01*
X103326921Y-123794387D01*
X103316956Y-123815457D01*
X103304974Y-123835448D01*
X103291090Y-123854168D01*
X103275438Y-123871438D01*
X103258168Y-123887090D01*
X103239448Y-123900974D01*
X103219457Y-123912956D01*
X103198387Y-123922921D01*
X103176443Y-123930773D01*
X103153834Y-123936437D01*
X103130779Y-123939856D01*
X103107500Y-123941000D01*
X102632500Y-123941000D01*
X102609221Y-123939856D01*
X102586166Y-123936437D01*
X102563557Y-123930773D01*
X102541613Y-123922921D01*
X102520543Y-123912956D01*
X102500552Y-123900974D01*
X102481832Y-123887090D01*
X102464562Y-123871438D01*
X102448910Y-123854168D01*
X102435026Y-123835448D01*
X102423044Y-123815457D01*
X102413079Y-123794387D01*
X102405227Y-123772443D01*
X102399563Y-123749834D01*
X102396144Y-123726779D01*
X102395000Y-123703500D01*
X102395000Y-123128500D01*
X102396144Y-123105221D01*
X102399563Y-123082166D01*
X102405227Y-123059557D01*
X102413079Y-123037613D01*
X102423044Y-123016543D01*
X102435026Y-122996552D01*
X102448910Y-122977832D01*
X102464562Y-122960562D01*
X102481832Y-122944910D01*
X102500552Y-122931026D01*
X102520543Y-122919044D01*
X102541613Y-122909079D01*
X102563557Y-122901227D01*
X102586166Y-122895563D01*
X102609221Y-122892144D01*
X102632500Y-122891000D01*
X103107500Y-122891000D01*
X103130779Y-122892144D01*
X103130779Y-122892144D01*
G37*
D17*
G04 #@! TD*
G04 #@! TO.P,C18,1*
G04 #@! TO.N,Net-(C18-Pad1)*
X102870000Y-123416000D03*
D37*
G04 #@! TO.P,SW1,2*
G04 #@! TO.N,GND*
X91610000Y-150586000D03*
G04 #@! TO.P,SW1,1*
G04 #@! TO.N,/NRST*
X91610000Y-146086000D03*
X83650000Y-146086000D03*
G04 #@! TO.P,SW1,2*
G04 #@! TO.N,GND*
X83650000Y-150586000D03*
G04 #@! TD*
D30*
G04 #@! TO.P,J9,1*
G04 #@! TO.N,GND*
X139192000Y-88138000D03*
D29*
G04 #@! TO.P,J9,2*
G04 #@! TO.N,/SWITCH_E*
X139192000Y-90138000D03*
G04 #@! TO.P,J9,3*
G04 #@! TO.N,/SWITCH_D*
X139192000Y-92138000D03*
G04 #@! TO.P,J9,4*
G04 #@! TO.N,/SWITCH_C*
X139192000Y-94138000D03*
G04 #@! TO.P,J9,5*
G04 #@! TO.N,/SWITCH_B*
X139192000Y-96138000D03*
G04 #@! TO.P,J9,6*
G04 #@! TO.N,/SWITCH_A*
X139192000Y-98138000D03*
G04 #@! TD*
D19*
G04 #@! TO.P,J17,2*
G04 #@! TO.N,Net-(C15-Pad1)*
X60960000Y-85598000D03*
D18*
G04 #@! TO.P,J17,1*
G04 #@! TO.N,+5V*
X63500000Y-85598000D03*
G04 #@! TD*
G04 #@! TO.P,J18,1*
G04 #@! TO.N,Net-(J18-Pad1)*
X63500000Y-96266000D03*
D19*
G04 #@! TO.P,J18,2*
G04 #@! TO.N,Net-(J18-Pad2)*
X60960000Y-96266000D03*
G04 #@! TD*
D12*
G04 #@! TO.N,Net-(D7-Pad2)*
G04 #@! TO.C,D7*
G36*
X157254779Y-78012144D02*
X157277834Y-78015563D01*
X157300443Y-78021227D01*
X157322387Y-78029079D01*
X157343457Y-78039044D01*
X157363448Y-78051026D01*
X157382168Y-78064910D01*
X157399438Y-78080562D01*
X157415090Y-78097832D01*
X157428974Y-78116552D01*
X157440956Y-78136543D01*
X157450921Y-78157613D01*
X157458773Y-78179557D01*
X157464437Y-78202166D01*
X157467856Y-78225221D01*
X157469000Y-78248500D01*
X157469000Y-78723500D01*
X157467856Y-78746779D01*
X157464437Y-78769834D01*
X157458773Y-78792443D01*
X157450921Y-78814387D01*
X157440956Y-78835457D01*
X157428974Y-78855448D01*
X157415090Y-78874168D01*
X157399438Y-78891438D01*
X157382168Y-78907090D01*
X157363448Y-78920974D01*
X157343457Y-78932956D01*
X157322387Y-78942921D01*
X157300443Y-78950773D01*
X157277834Y-78956437D01*
X157254779Y-78959856D01*
X157231500Y-78961000D01*
X156656500Y-78961000D01*
X156633221Y-78959856D01*
X156610166Y-78956437D01*
X156587557Y-78950773D01*
X156565613Y-78942921D01*
X156544543Y-78932956D01*
X156524552Y-78920974D01*
X156505832Y-78907090D01*
X156488562Y-78891438D01*
X156472910Y-78874168D01*
X156459026Y-78855448D01*
X156447044Y-78835457D01*
X156437079Y-78814387D01*
X156429227Y-78792443D01*
X156423563Y-78769834D01*
X156420144Y-78746779D01*
X156419000Y-78723500D01*
X156419000Y-78248500D01*
X156420144Y-78225221D01*
X156423563Y-78202166D01*
X156429227Y-78179557D01*
X156437079Y-78157613D01*
X156447044Y-78136543D01*
X156459026Y-78116552D01*
X156472910Y-78097832D01*
X156488562Y-78080562D01*
X156505832Y-78064910D01*
X156524552Y-78051026D01*
X156544543Y-78039044D01*
X156565613Y-78029079D01*
X156587557Y-78021227D01*
X156610166Y-78015563D01*
X156633221Y-78012144D01*
X156656500Y-78011000D01*
X157231500Y-78011000D01*
X157254779Y-78012144D01*
X157254779Y-78012144D01*
G37*
D17*
G04 #@! TD*
G04 #@! TO.P,D7,2*
G04 #@! TO.N,Net-(D7-Pad2)*
X156944000Y-78486000D03*
D12*
G04 #@! TO.N,GND*
G04 #@! TO.C,D7*
G36*
X155504779Y-78012144D02*
X155527834Y-78015563D01*
X155550443Y-78021227D01*
X155572387Y-78029079D01*
X155593457Y-78039044D01*
X155613448Y-78051026D01*
X155632168Y-78064910D01*
X155649438Y-78080562D01*
X155665090Y-78097832D01*
X155678974Y-78116552D01*
X155690956Y-78136543D01*
X155700921Y-78157613D01*
X155708773Y-78179557D01*
X155714437Y-78202166D01*
X155717856Y-78225221D01*
X155719000Y-78248500D01*
X155719000Y-78723500D01*
X155717856Y-78746779D01*
X155714437Y-78769834D01*
X155708773Y-78792443D01*
X155700921Y-78814387D01*
X155690956Y-78835457D01*
X155678974Y-78855448D01*
X155665090Y-78874168D01*
X155649438Y-78891438D01*
X155632168Y-78907090D01*
X155613448Y-78920974D01*
X155593457Y-78932956D01*
X155572387Y-78942921D01*
X155550443Y-78950773D01*
X155527834Y-78956437D01*
X155504779Y-78959856D01*
X155481500Y-78961000D01*
X154906500Y-78961000D01*
X154883221Y-78959856D01*
X154860166Y-78956437D01*
X154837557Y-78950773D01*
X154815613Y-78942921D01*
X154794543Y-78932956D01*
X154774552Y-78920974D01*
X154755832Y-78907090D01*
X154738562Y-78891438D01*
X154722910Y-78874168D01*
X154709026Y-78855448D01*
X154697044Y-78835457D01*
X154687079Y-78814387D01*
X154679227Y-78792443D01*
X154673563Y-78769834D01*
X154670144Y-78746779D01*
X154669000Y-78723500D01*
X154669000Y-78248500D01*
X154670144Y-78225221D01*
X154673563Y-78202166D01*
X154679227Y-78179557D01*
X154687079Y-78157613D01*
X154697044Y-78136543D01*
X154709026Y-78116552D01*
X154722910Y-78097832D01*
X154738562Y-78080562D01*
X154755832Y-78064910D01*
X154774552Y-78051026D01*
X154794543Y-78039044D01*
X154815613Y-78029079D01*
X154837557Y-78021227D01*
X154860166Y-78015563D01*
X154883221Y-78012144D01*
X154906500Y-78011000D01*
X155481500Y-78011000D01*
X155504779Y-78012144D01*
X155504779Y-78012144D01*
G37*
D17*
G04 #@! TD*
G04 #@! TO.P,D7,1*
G04 #@! TO.N,GND*
X155194000Y-78486000D03*
D12*
G04 #@! TO.N,Net-(D7-Pad2)*
G04 #@! TO.C,R5*
G36*
X160330779Y-78012144D02*
X160353834Y-78015563D01*
X160376443Y-78021227D01*
X160398387Y-78029079D01*
X160419457Y-78039044D01*
X160439448Y-78051026D01*
X160458168Y-78064910D01*
X160475438Y-78080562D01*
X160491090Y-78097832D01*
X160504974Y-78116552D01*
X160516956Y-78136543D01*
X160526921Y-78157613D01*
X160534773Y-78179557D01*
X160540437Y-78202166D01*
X160543856Y-78225221D01*
X160545000Y-78248500D01*
X160545000Y-78723500D01*
X160543856Y-78746779D01*
X160540437Y-78769834D01*
X160534773Y-78792443D01*
X160526921Y-78814387D01*
X160516956Y-78835457D01*
X160504974Y-78855448D01*
X160491090Y-78874168D01*
X160475438Y-78891438D01*
X160458168Y-78907090D01*
X160439448Y-78920974D01*
X160419457Y-78932956D01*
X160398387Y-78942921D01*
X160376443Y-78950773D01*
X160353834Y-78956437D01*
X160330779Y-78959856D01*
X160307500Y-78961000D01*
X159732500Y-78961000D01*
X159709221Y-78959856D01*
X159686166Y-78956437D01*
X159663557Y-78950773D01*
X159641613Y-78942921D01*
X159620543Y-78932956D01*
X159600552Y-78920974D01*
X159581832Y-78907090D01*
X159564562Y-78891438D01*
X159548910Y-78874168D01*
X159535026Y-78855448D01*
X159523044Y-78835457D01*
X159513079Y-78814387D01*
X159505227Y-78792443D01*
X159499563Y-78769834D01*
X159496144Y-78746779D01*
X159495000Y-78723500D01*
X159495000Y-78248500D01*
X159496144Y-78225221D01*
X159499563Y-78202166D01*
X159505227Y-78179557D01*
X159513079Y-78157613D01*
X159523044Y-78136543D01*
X159535026Y-78116552D01*
X159548910Y-78097832D01*
X159564562Y-78080562D01*
X159581832Y-78064910D01*
X159600552Y-78051026D01*
X159620543Y-78039044D01*
X159641613Y-78029079D01*
X159663557Y-78021227D01*
X159686166Y-78015563D01*
X159709221Y-78012144D01*
X159732500Y-78011000D01*
X160307500Y-78011000D01*
X160330779Y-78012144D01*
X160330779Y-78012144D01*
G37*
D17*
G04 #@! TD*
G04 #@! TO.P,R5,1*
G04 #@! TO.N,Net-(D7-Pad2)*
X160020000Y-78486000D03*
D12*
G04 #@! TO.N,+3V3*
G04 #@! TO.C,R5*
G36*
X162080779Y-78012144D02*
X162103834Y-78015563D01*
X162126443Y-78021227D01*
X162148387Y-78029079D01*
X162169457Y-78039044D01*
X162189448Y-78051026D01*
X162208168Y-78064910D01*
X162225438Y-78080562D01*
X162241090Y-78097832D01*
X162254974Y-78116552D01*
X162266956Y-78136543D01*
X162276921Y-78157613D01*
X162284773Y-78179557D01*
X162290437Y-78202166D01*
X162293856Y-78225221D01*
X162295000Y-78248500D01*
X162295000Y-78723500D01*
X162293856Y-78746779D01*
X162290437Y-78769834D01*
X162284773Y-78792443D01*
X162276921Y-78814387D01*
X162266956Y-78835457D01*
X162254974Y-78855448D01*
X162241090Y-78874168D01*
X162225438Y-78891438D01*
X162208168Y-78907090D01*
X162189448Y-78920974D01*
X162169457Y-78932956D01*
X162148387Y-78942921D01*
X162126443Y-78950773D01*
X162103834Y-78956437D01*
X162080779Y-78959856D01*
X162057500Y-78961000D01*
X161482500Y-78961000D01*
X161459221Y-78959856D01*
X161436166Y-78956437D01*
X161413557Y-78950773D01*
X161391613Y-78942921D01*
X161370543Y-78932956D01*
X161350552Y-78920974D01*
X161331832Y-78907090D01*
X161314562Y-78891438D01*
X161298910Y-78874168D01*
X161285026Y-78855448D01*
X161273044Y-78835457D01*
X161263079Y-78814387D01*
X161255227Y-78792443D01*
X161249563Y-78769834D01*
X161246144Y-78746779D01*
X161245000Y-78723500D01*
X161245000Y-78248500D01*
X161246144Y-78225221D01*
X161249563Y-78202166D01*
X161255227Y-78179557D01*
X161263079Y-78157613D01*
X161273044Y-78136543D01*
X161285026Y-78116552D01*
X161298910Y-78097832D01*
X161314562Y-78080562D01*
X161331832Y-78064910D01*
X161350552Y-78051026D01*
X161370543Y-78039044D01*
X161391613Y-78029079D01*
X161413557Y-78021227D01*
X161436166Y-78015563D01*
X161459221Y-78012144D01*
X161482500Y-78011000D01*
X162057500Y-78011000D01*
X162080779Y-78012144D01*
X162080779Y-78012144D01*
G37*
D17*
G04 #@! TD*
G04 #@! TO.P,R5,2*
G04 #@! TO.N,+3V3*
X161770000Y-78486000D03*
D12*
G04 #@! TO.N,/24V_MEASURE*
G04 #@! TO.C,R12*
G36*
X110146570Y-70692181D02*
X110169625Y-70695600D01*
X110192234Y-70701264D01*
X110214178Y-70709116D01*
X110235248Y-70719081D01*
X110255239Y-70731063D01*
X110273959Y-70744947D01*
X110291229Y-70760599D01*
X110306881Y-70777869D01*
X110320765Y-70796589D01*
X110332747Y-70816580D01*
X110342712Y-70837650D01*
X110350564Y-70859594D01*
X110356228Y-70882203D01*
X110359647Y-70905258D01*
X110360791Y-70928537D01*
X110360791Y-71403537D01*
X110359647Y-71426816D01*
X110356228Y-71449871D01*
X110350564Y-71472480D01*
X110342712Y-71494424D01*
X110332747Y-71515494D01*
X110320765Y-71535485D01*
X110306881Y-71554205D01*
X110291229Y-71571475D01*
X110273959Y-71587127D01*
X110255239Y-71601011D01*
X110235248Y-71612993D01*
X110214178Y-71622958D01*
X110192234Y-71630810D01*
X110169625Y-71636474D01*
X110146570Y-71639893D01*
X110123291Y-71641037D01*
X109548291Y-71641037D01*
X109525012Y-71639893D01*
X109501957Y-71636474D01*
X109479348Y-71630810D01*
X109457404Y-71622958D01*
X109436334Y-71612993D01*
X109416343Y-71601011D01*
X109397623Y-71587127D01*
X109380353Y-71571475D01*
X109364701Y-71554205D01*
X109350817Y-71535485D01*
X109338835Y-71515494D01*
X109328870Y-71494424D01*
X109321018Y-71472480D01*
X109315354Y-71449871D01*
X109311935Y-71426816D01*
X109310791Y-71403537D01*
X109310791Y-70928537D01*
X109311935Y-70905258D01*
X109315354Y-70882203D01*
X109321018Y-70859594D01*
X109328870Y-70837650D01*
X109338835Y-70816580D01*
X109350817Y-70796589D01*
X109364701Y-70777869D01*
X109380353Y-70760599D01*
X109397623Y-70744947D01*
X109416343Y-70731063D01*
X109436334Y-70719081D01*
X109457404Y-70709116D01*
X109479348Y-70701264D01*
X109501957Y-70695600D01*
X109525012Y-70692181D01*
X109548291Y-70691037D01*
X110123291Y-70691037D01*
X110146570Y-70692181D01*
X110146570Y-70692181D01*
G37*
D17*
G04 #@! TD*
G04 #@! TO.P,R12,2*
G04 #@! TO.N,/24V_MEASURE*
X109835791Y-71166037D03*
D12*
G04 #@! TO.N,+24V*
G04 #@! TO.C,R12*
G36*
X108396570Y-70692181D02*
X108419625Y-70695600D01*
X108442234Y-70701264D01*
X108464178Y-70709116D01*
X108485248Y-70719081D01*
X108505239Y-70731063D01*
X108523959Y-70744947D01*
X108541229Y-70760599D01*
X108556881Y-70777869D01*
X108570765Y-70796589D01*
X108582747Y-70816580D01*
X108592712Y-70837650D01*
X108600564Y-70859594D01*
X108606228Y-70882203D01*
X108609647Y-70905258D01*
X108610791Y-70928537D01*
X108610791Y-71403537D01*
X108609647Y-71426816D01*
X108606228Y-71449871D01*
X108600564Y-71472480D01*
X108592712Y-71494424D01*
X108582747Y-71515494D01*
X108570765Y-71535485D01*
X108556881Y-71554205D01*
X108541229Y-71571475D01*
X108523959Y-71587127D01*
X108505239Y-71601011D01*
X108485248Y-71612993D01*
X108464178Y-71622958D01*
X108442234Y-71630810D01*
X108419625Y-71636474D01*
X108396570Y-71639893D01*
X108373291Y-71641037D01*
X107798291Y-71641037D01*
X107775012Y-71639893D01*
X107751957Y-71636474D01*
X107729348Y-71630810D01*
X107707404Y-71622958D01*
X107686334Y-71612993D01*
X107666343Y-71601011D01*
X107647623Y-71587127D01*
X107630353Y-71571475D01*
X107614701Y-71554205D01*
X107600817Y-71535485D01*
X107588835Y-71515494D01*
X107578870Y-71494424D01*
X107571018Y-71472480D01*
X107565354Y-71449871D01*
X107561935Y-71426816D01*
X107560791Y-71403537D01*
X107560791Y-70928537D01*
X107561935Y-70905258D01*
X107565354Y-70882203D01*
X107571018Y-70859594D01*
X107578870Y-70837650D01*
X107588835Y-70816580D01*
X107600817Y-70796589D01*
X107614701Y-70777869D01*
X107630353Y-70760599D01*
X107647623Y-70744947D01*
X107666343Y-70731063D01*
X107686334Y-70719081D01*
X107707404Y-70709116D01*
X107729348Y-70701264D01*
X107751957Y-70695600D01*
X107775012Y-70692181D01*
X107798291Y-70691037D01*
X108373291Y-70691037D01*
X108396570Y-70692181D01*
X108396570Y-70692181D01*
G37*
D17*
G04 #@! TD*
G04 #@! TO.P,R12,1*
G04 #@! TO.N,+24V*
X108085791Y-71166037D03*
D12*
G04 #@! TO.N,/24V_MEASURE*
G04 #@! TO.C,R20*
G36*
X113086779Y-70685182D02*
X113109834Y-70688601D01*
X113132443Y-70694265D01*
X113154387Y-70702117D01*
X113175457Y-70712082D01*
X113195448Y-70724064D01*
X113214168Y-70737948D01*
X113231438Y-70753600D01*
X113247090Y-70770870D01*
X113260974Y-70789590D01*
X113272956Y-70809581D01*
X113282921Y-70830651D01*
X113290773Y-70852595D01*
X113296437Y-70875204D01*
X113299856Y-70898259D01*
X113301000Y-70921538D01*
X113301000Y-71396538D01*
X113299856Y-71419817D01*
X113296437Y-71442872D01*
X113290773Y-71465481D01*
X113282921Y-71487425D01*
X113272956Y-71508495D01*
X113260974Y-71528486D01*
X113247090Y-71547206D01*
X113231438Y-71564476D01*
X113214168Y-71580128D01*
X113195448Y-71594012D01*
X113175457Y-71605994D01*
X113154387Y-71615959D01*
X113132443Y-71623811D01*
X113109834Y-71629475D01*
X113086779Y-71632894D01*
X113063500Y-71634038D01*
X112488500Y-71634038D01*
X112465221Y-71632894D01*
X112442166Y-71629475D01*
X112419557Y-71623811D01*
X112397613Y-71615959D01*
X112376543Y-71605994D01*
X112356552Y-71594012D01*
X112337832Y-71580128D01*
X112320562Y-71564476D01*
X112304910Y-71547206D01*
X112291026Y-71528486D01*
X112279044Y-71508495D01*
X112269079Y-71487425D01*
X112261227Y-71465481D01*
X112255563Y-71442872D01*
X112252144Y-71419817D01*
X112251000Y-71396538D01*
X112251000Y-70921538D01*
X112252144Y-70898259D01*
X112255563Y-70875204D01*
X112261227Y-70852595D01*
X112269079Y-70830651D01*
X112279044Y-70809581D01*
X112291026Y-70789590D01*
X112304910Y-70770870D01*
X112320562Y-70753600D01*
X112337832Y-70737948D01*
X112356552Y-70724064D01*
X112376543Y-70712082D01*
X112397613Y-70702117D01*
X112419557Y-70694265D01*
X112442166Y-70688601D01*
X112465221Y-70685182D01*
X112488500Y-70684038D01*
X113063500Y-70684038D01*
X113086779Y-70685182D01*
X113086779Y-70685182D01*
G37*
D17*
G04 #@! TD*
G04 #@! TO.P,R20,1*
G04 #@! TO.N,/24V_MEASURE*
X112776000Y-71159038D03*
D12*
G04 #@! TO.N,GND*
G04 #@! TO.C,R20*
G36*
X114836779Y-70685182D02*
X114859834Y-70688601D01*
X114882443Y-70694265D01*
X114904387Y-70702117D01*
X114925457Y-70712082D01*
X114945448Y-70724064D01*
X114964168Y-70737948D01*
X114981438Y-70753600D01*
X114997090Y-70770870D01*
X115010974Y-70789590D01*
X115022956Y-70809581D01*
X115032921Y-70830651D01*
X115040773Y-70852595D01*
X115046437Y-70875204D01*
X115049856Y-70898259D01*
X115051000Y-70921538D01*
X115051000Y-71396538D01*
X115049856Y-71419817D01*
X115046437Y-71442872D01*
X115040773Y-71465481D01*
X115032921Y-71487425D01*
X115022956Y-71508495D01*
X115010974Y-71528486D01*
X114997090Y-71547206D01*
X114981438Y-71564476D01*
X114964168Y-71580128D01*
X114945448Y-71594012D01*
X114925457Y-71605994D01*
X114904387Y-71615959D01*
X114882443Y-71623811D01*
X114859834Y-71629475D01*
X114836779Y-71632894D01*
X114813500Y-71634038D01*
X114238500Y-71634038D01*
X114215221Y-71632894D01*
X114192166Y-71629475D01*
X114169557Y-71623811D01*
X114147613Y-71615959D01*
X114126543Y-71605994D01*
X114106552Y-71594012D01*
X114087832Y-71580128D01*
X114070562Y-71564476D01*
X114054910Y-71547206D01*
X114041026Y-71528486D01*
X114029044Y-71508495D01*
X114019079Y-71487425D01*
X114011227Y-71465481D01*
X114005563Y-71442872D01*
X114002144Y-71419817D01*
X114001000Y-71396538D01*
X114001000Y-70921538D01*
X114002144Y-70898259D01*
X114005563Y-70875204D01*
X114011227Y-70852595D01*
X114019079Y-70830651D01*
X114029044Y-70809581D01*
X114041026Y-70789590D01*
X114054910Y-70770870D01*
X114070562Y-70753600D01*
X114087832Y-70737948D01*
X114106552Y-70724064D01*
X114126543Y-70712082D01*
X114147613Y-70702117D01*
X114169557Y-70694265D01*
X114192166Y-70688601D01*
X114215221Y-70685182D01*
X114238500Y-70684038D01*
X114813500Y-70684038D01*
X114836779Y-70685182D01*
X114836779Y-70685182D01*
G37*
D17*
G04 #@! TD*
G04 #@! TO.P,R20,2*
G04 #@! TO.N,GND*
X114526000Y-71159038D03*
D38*
G04 #@! TO.N,GND*
X114397790Y-71159038D03*
X155194000Y-78486000D03*
X82042000Y-61722000D03*
X102870000Y-121666000D03*
X98298000Y-133350000D03*
X43688000Y-93218000D03*
X43688000Y-90170000D03*
X50038000Y-94858000D03*
X49138000Y-94858000D03*
X50038000Y-95758000D03*
X48238000Y-94858000D03*
X49138000Y-95758000D03*
X48238000Y-95758000D03*
X94488000Y-134493000D03*
X87630000Y-118110000D03*
X87376000Y-111506000D03*
X87376000Y-114808000D03*
X83820000Y-123444000D03*
X78994000Y-138176000D03*
X79248000Y-133096000D03*
X93980000Y-107315000D03*
X97282000Y-107315000D03*
X100838000Y-107315000D03*
X109982000Y-109601000D03*
X87122000Y-70231000D03*
X79248000Y-123571000D03*
X114427000Y-106426000D03*
X114427000Y-121666000D03*
X94835109Y-140208000D03*
X114681000Y-98425000D03*
X114808000Y-113538000D03*
X94615000Y-129159000D03*
X94488000Y-132715000D03*
X102108000Y-134747000D03*
X101473000Y-131064000D03*
X122428000Y-124460000D03*
X118618000Y-126746000D03*
X98298000Y-136398000D03*
X81026000Y-152146000D03*
X94234000Y-151892000D03*
X92075000Y-79756000D03*
G04 #@! TO.N,+3V3*
X161798000Y-78486000D03*
X92202000Y-83566000D03*
X92202000Y-77978000D03*
X100330000Y-90932000D03*
X107442000Y-90932000D03*
X50038000Y-93472000D03*
X56388000Y-94234000D03*
X109855000Y-128143000D03*
X79502000Y-130175000D03*
X114427000Y-104281000D03*
X114427000Y-119521000D03*
X94488000Y-136271000D03*
X96393000Y-136271000D03*
X102108000Y-136525000D03*
X101473000Y-129286000D03*
X96266000Y-129159000D03*
X94488000Y-130937000D03*
X122428000Y-122682000D03*
X120396000Y-126746000D03*
X115824000Y-124841000D03*
X55488000Y-94234000D03*
X54588000Y-94234000D03*
X56388000Y-93334000D03*
X55488000Y-93334000D03*
X54588000Y-93334000D03*
X56388000Y-92434000D03*
X55488000Y-92434000D03*
X54588000Y-92434000D03*
X56388000Y-91534000D03*
X55488000Y-91534000D03*
X54588000Y-91534000D03*
X49138000Y-93472000D03*
X48238000Y-93472000D03*
X50038000Y-92572000D03*
X49138000Y-92572000D03*
X48238000Y-92572000D03*
X102362000Y-82550000D03*
G04 #@! TO.N,/NRST*
X86868000Y-131826000D03*
X96520000Y-133350000D03*
X91694000Y-146050000D03*
X83566000Y-146050000D03*
G04 #@! TO.N,/JTDO*
X99822000Y-136652000D03*
X106426000Y-135636000D03*
G04 #@! TO.N,+48V*
X123190000Y-106426000D03*
G04 #@! TO.N,/HIH_SCL*
X104394000Y-98298000D03*
X103886000Y-94234000D03*
G04 #@! TO.N,/HIH_SDA*
X105119000Y-97282000D03*
X104906653Y-94229347D03*
G04 #@! TO.N,/SWITCH_A*
X121666000Y-105410000D03*
X100833347Y-124455347D03*
G04 #@! TO.N,/SWITCH_B*
X122174000Y-104394000D03*
X103632000Y-124714000D03*
G04 #@! TO.N,/3.3V_MEASURE*
X84328000Y-127254000D03*
X86614000Y-129794000D03*
G04 #@! TO.N,/5V_MEASURE*
X89662000Y-132326942D03*
G04 #@! TO.N,/48V_MEASURE*
X90424000Y-131318000D03*
X110744000Y-111252000D03*
G04 #@! TO.N,Net-(P1-Pad33)*
X80913000Y-111633000D03*
G04 #@! TO.N,Net-(P1-Pad35)*
X80913000Y-114808000D03*
G04 #@! TO.N,Net-(P1-Pad37)*
X80913000Y-117983000D03*
G04 #@! TO.N,/MISC_RE*
X87894735Y-129021265D03*
X90795696Y-137438305D03*
G04 #@! TO.N,/MISC_DE*
X88392000Y-128016000D03*
X89685678Y-137691678D03*
G04 #@! TO.N,/ODROID_RX*
X77216000Y-91694000D03*
X89408000Y-127508000D03*
G04 #@! TO.N,/ODROID_TX*
X75692000Y-88646000D03*
X90424000Y-127508000D03*
G04 #@! TO.N,/ICM_SDA*
X113284000Y-124968000D03*
X106934000Y-128778000D03*
G04 #@! TO.N,/ICM_SCL*
X113247000Y-125967317D03*
X107696000Y-122301000D03*
G04 #@! TO.N,/MISC_TX*
X106172000Y-125730000D03*
X101854000Y-142748000D03*
G04 #@! TO.N,/MISC_RX*
X100785109Y-142748000D03*
X106929347Y-127512653D03*
G04 #@! TO.N,/SWITCH_E*
X99514753Y-132343553D03*
X122174000Y-101600000D03*
G04 #@! TO.N,/SWITCH_D*
X99414253Y-131217747D03*
X122174000Y-102616000D03*
G04 #@! TO.N,/SWITCH_C*
X121579357Y-103545357D03*
X102620653Y-124718653D03*
G04 #@! TO.N,/24V_MEASURE*
X107950000Y-94488000D03*
X103124000Y-109982000D03*
G04 #@! TD*
D39*
G04 #@! TO.N,GND*
X101560109Y-127101942D02*
X101560109Y-126351942D01*
X93320111Y-131051942D02*
X92610109Y-131051942D01*
X95060109Y-138501942D02*
X95060109Y-139983000D01*
X95060109Y-139983000D02*
X94835109Y-140208000D01*
X114672000Y-99736000D02*
X114672000Y-98434000D01*
X114672000Y-98434000D02*
X114681000Y-98425000D01*
X114672000Y-114976000D02*
X114672000Y-113674000D01*
X114672000Y-113674000D02*
X114808000Y-113538000D01*
X95060109Y-127101942D02*
X95060109Y-128713891D01*
X95060109Y-128713891D02*
X94615000Y-129159000D01*
X93320111Y-131051942D02*
X94488000Y-132219831D01*
X94488000Y-132219831D02*
X94488000Y-132715000D01*
X104010109Y-136051942D02*
X103412942Y-136051942D01*
X103412942Y-136051942D02*
X102108000Y-134747000D01*
X100747999Y-130338999D02*
X101473000Y-131064000D01*
X100747999Y-128937999D02*
X100747999Y-130338999D01*
X101560109Y-127101942D02*
X101560109Y-128125889D01*
X101560109Y-128125889D02*
X100747999Y-128937999D01*
D40*
X119251500Y-123436000D02*
X121404000Y-123436000D01*
X121404000Y-123436000D02*
X122428000Y-124460000D01*
X119251500Y-123936000D02*
X121904000Y-123936000D01*
X121904000Y-123936000D02*
X122428000Y-124460000D01*
D39*
X97954049Y-136398000D02*
X98298000Y-136398000D01*
X96560109Y-138501942D02*
X96560109Y-137791940D01*
X96560109Y-137791940D02*
X97954049Y-136398000D01*
X83650000Y-150586000D02*
X82586000Y-150586000D01*
X82586000Y-150586000D02*
X81026000Y-152146000D01*
X91610000Y-150586000D02*
X92928000Y-150586000D01*
X92928000Y-150586000D02*
X94234000Y-151892000D01*
X94137001Y-80459999D02*
X93433002Y-79756000D01*
X95162001Y-80459999D02*
X94137001Y-80459999D01*
X93433002Y-79756000D02*
X92075000Y-79756000D01*
X92075000Y-79756000D02*
X92075000Y-79756000D01*
G04 #@! TO.N,+3V3*
X104760109Y-136551942D02*
X104010109Y-136551942D01*
X114672000Y-119276000D02*
X114427000Y-119521000D01*
X114672000Y-116926000D02*
X114672000Y-119276000D01*
X114672000Y-104036000D02*
X114427000Y-104281000D01*
X114672000Y-101686000D02*
X114672000Y-104036000D01*
X92610109Y-136551942D02*
X94207058Y-136551942D01*
X94207058Y-136551942D02*
X94488000Y-136271000D01*
X96081049Y-136271000D02*
X96393000Y-136271000D01*
X94560109Y-138501942D02*
X94560109Y-137791940D01*
X94560109Y-137791940D02*
X96081049Y-136271000D01*
X104010109Y-136551942D02*
X102134942Y-136551942D01*
X102134942Y-136551942D02*
X102108000Y-136525000D01*
X102060109Y-127101942D02*
X102060109Y-128698891D01*
X102060109Y-128698891D02*
X101473000Y-129286000D01*
X95560109Y-127101942D02*
X95560109Y-128453109D01*
X95560109Y-128453109D02*
X96266000Y-129159000D01*
X92610109Y-130551942D02*
X94102942Y-130551942D01*
X94102942Y-130551942D02*
X94488000Y-130937000D01*
D40*
X119251500Y-122936000D02*
X122174000Y-122936000D01*
X122174000Y-122936000D02*
X122428000Y-122682000D01*
X119114000Y-124573500D02*
X119114000Y-125464000D01*
X119114000Y-125464000D02*
X120396000Y-126746000D01*
X117476500Y-123936000D02*
X116729000Y-123936000D01*
X116729000Y-123936000D02*
X115824000Y-124841000D01*
D41*
X49174000Y-92964000D02*
X55372000Y-92964000D01*
D39*
X100562001Y-81729999D02*
X101541999Y-81729999D01*
X101541999Y-81729999D02*
X102362000Y-82550000D01*
X45466000Y-93218000D02*
X48768000Y-93218000D01*
G04 #@! TO.N,Net-(C2-Pad1)*
X88714058Y-134551942D02*
X85344000Y-137922000D01*
X92610109Y-134551942D02*
X88714058Y-134551942D01*
X81026000Y-137922000D02*
X80772000Y-138176000D01*
X85344000Y-137922000D02*
X81026000Y-137922000D01*
G04 #@! TO.N,Net-(C3-Pad1)*
X86353942Y-134051942D02*
X85344000Y-133042000D01*
X92610109Y-134051942D02*
X86353942Y-134051942D01*
X81052000Y-133042000D02*
X80998000Y-133096000D01*
X85344000Y-133042000D02*
X81052000Y-133042000D01*
G04 #@! TO.N,Net-(J1-Pad2)*
X98060109Y-123173891D02*
X99568000Y-121666000D01*
X98060109Y-127101942D02*
X98060109Y-123173891D01*
G04 #@! TO.N,/SWCLK*
X113538000Y-143764000D02*
X105978491Y-143764000D01*
X102060109Y-139845618D02*
X102060109Y-138501942D01*
X105978491Y-143764000D02*
X102060109Y-139845618D01*
G04 #@! TO.N,/SWDIO*
X112335919Y-138684000D02*
X109203861Y-135551942D01*
X113538000Y-138684000D02*
X112335919Y-138684000D01*
X106077999Y-136361001D02*
X105218950Y-135501952D01*
X106774001Y-136361001D02*
X106077999Y-136361001D01*
X109203861Y-135551942D02*
X107583060Y-135551942D01*
X107583060Y-135551942D02*
X106774001Y-136361001D01*
X105218950Y-135501952D02*
X104394000Y-135501952D01*
G04 #@! TO.N,/NRST*
X85836000Y-130794000D02*
X85836000Y-127254000D01*
X92610109Y-133551942D02*
X88593942Y-133551942D01*
X85836000Y-124460000D02*
X85836000Y-127254000D01*
X85836000Y-127254000D02*
X85836000Y-127987835D01*
X88593942Y-133551942D02*
X86868000Y-131826000D01*
X86868000Y-131826000D02*
X85836000Y-130794000D01*
X92610109Y-133551942D02*
X96318058Y-133551942D01*
X96318058Y-133551942D02*
X96520000Y-133350000D01*
G04 #@! TO.N,/JTDO*
X99060109Y-137413891D02*
X99060109Y-138501942D01*
X99822000Y-136652000D02*
X99060109Y-137413891D01*
X106426000Y-135636000D02*
X108458000Y-133604000D01*
X108458000Y-133604000D02*
X112776000Y-133604000D01*
X112776000Y-133604000D02*
X113284000Y-133096000D01*
G04 #@! TO.N,+48V*
X115189000Y-111506000D02*
X120269000Y-106426000D01*
X120269000Y-106426000D02*
X123190000Y-106426000D01*
G04 #@! TO.N,Net-(J4-Pad3)*
X117610000Y-115626000D02*
X120269000Y-112967000D01*
X114672000Y-115626000D02*
X117610000Y-115626000D01*
G04 #@! TO.N,Net-(J4-Pad2)*
X117596410Y-116276000D02*
X114672000Y-116276000D01*
X118905410Y-114967000D02*
X117596410Y-116276000D01*
X120269000Y-114967000D02*
X118905410Y-114967000D01*
G04 #@! TO.N,Net-(J6-Pad2)*
X114672000Y-101036000D02*
X116515000Y-101036000D01*
X116515000Y-100941000D02*
X120269000Y-97187000D01*
X116515000Y-101036000D02*
X116515000Y-100941000D01*
G04 #@! TO.N,Net-(J6-Pad3)*
X115472000Y-100386000D02*
X114672000Y-100386000D01*
X119594001Y-96263999D02*
X115472000Y-100386000D01*
X119594001Y-95861999D02*
X119594001Y-96263999D01*
X120269000Y-95187000D02*
X119594001Y-95861999D01*
G04 #@! TO.N,/STM_RESET*
X83836000Y-125410000D02*
X83786000Y-125410000D01*
X76454000Y-88160000D02*
X73428000Y-85134000D01*
X76454000Y-88160000D02*
X76476000Y-88160000D01*
X76476000Y-88160000D02*
X77978000Y-89662000D01*
X77978000Y-119602000D02*
X83786000Y-125410000D01*
X77978000Y-89662000D02*
X77978000Y-119602000D01*
G04 #@! TO.N,/HIH_SCL*
X105220111Y-131051942D02*
X105664000Y-130608053D01*
X104010109Y-131051942D02*
X105220111Y-131051942D01*
X105664000Y-130608053D02*
X105664000Y-128524000D01*
X105664000Y-128524000D02*
X104394000Y-127254000D01*
X104394000Y-127254000D02*
X104394000Y-98298000D01*
X103486001Y-93834001D02*
X103486001Y-88246001D01*
X103886000Y-94234000D02*
X103486001Y-93834001D01*
X103486001Y-88246001D02*
X97790000Y-82550000D01*
X97790000Y-82550000D02*
X97790000Y-80010000D01*
X97790000Y-80010000D02*
X97028000Y-79248000D01*
X97028000Y-79248000D02*
X95250000Y-79248000D01*
X102108000Y-90932000D02*
X103124000Y-90932000D01*
X103124000Y-90932000D02*
X103378000Y-90678000D01*
X103378000Y-90678000D02*
X103486001Y-90678000D01*
G04 #@! TO.N,/HIH_SDA*
X106114009Y-128337599D02*
X104902000Y-127125590D01*
X104902000Y-127125590D02*
X104902000Y-114300000D01*
X105226051Y-97389051D02*
X105119000Y-97282000D01*
X104902000Y-114300000D02*
X105226051Y-113975949D01*
X105226051Y-113975949D02*
X105226051Y-97389051D01*
X106114009Y-129031011D02*
X106426000Y-129343002D01*
X106114009Y-128337599D02*
X106114009Y-129031011D01*
X105356521Y-131551942D02*
X104010109Y-131551942D01*
X106426000Y-130482463D02*
X105356521Y-131551942D01*
X106426000Y-129343002D02*
X106426000Y-130482463D01*
X104906653Y-94229347D02*
X103936011Y-93258705D01*
X103936011Y-93258705D02*
X103936010Y-88059600D01*
X98240009Y-79823599D02*
X96394410Y-77978000D01*
X103936010Y-88059600D02*
X98240010Y-82363600D01*
X98240010Y-82363600D02*
X98240009Y-79823599D01*
X96394410Y-77978000D02*
X95250000Y-77978000D01*
X105664000Y-90932000D02*
X103936011Y-92659989D01*
X103936011Y-92659989D02*
X103936011Y-92710000D01*
G04 #@! TO.N,/SWITCH_A*
X122231685Y-105410000D02*
X124286030Y-103355655D01*
X121666000Y-105410000D02*
X122231685Y-105410000D01*
X124286030Y-103355655D02*
X124286030Y-102033610D01*
X128778000Y-98044000D02*
X128275640Y-98044000D01*
X128778000Y-98044000D02*
X138938000Y-98044000D01*
X128524000Y-98044000D02*
X128778000Y-98044000D01*
X128275640Y-98044000D02*
X124286030Y-102033610D01*
X124286030Y-102033610D02*
X124286030Y-102108000D01*
X100560109Y-127101942D02*
X100560109Y-124728585D01*
X100560109Y-124728585D02*
X100833347Y-124455347D01*
G04 #@! TO.N,/SWITCH_B*
X104010109Y-129051942D02*
X103651942Y-129051942D01*
X123836020Y-102663392D02*
X123836020Y-101847210D01*
X122174000Y-104394000D02*
X122174000Y-104325412D01*
X122174000Y-104325412D02*
X123836020Y-102663392D01*
X123836020Y-101847210D02*
X129417230Y-96266000D01*
X129417230Y-96266000D02*
X139192000Y-96266000D01*
X103616003Y-127762000D02*
X103616003Y-128508003D01*
X103616003Y-127762000D02*
X103616003Y-124729997D01*
X103616003Y-127916017D02*
X103616003Y-127762000D01*
X103616003Y-128508003D02*
X104140000Y-129032000D01*
X103616003Y-124729997D02*
X103632000Y-124714000D01*
G04 #@! TO.N,/3.3V_MEASURE*
X79481329Y-125796042D02*
X79481329Y-127254000D01*
X79481329Y-127254000D02*
X79481329Y-128491042D01*
X79481329Y-127254000D02*
X84328000Y-127254000D01*
X89306257Y-133051942D02*
X92610109Y-133051942D01*
X86614000Y-130359685D02*
X89306257Y-133051942D01*
X86614000Y-129794000D02*
X86614000Y-130359685D01*
G04 #@! TO.N,Net-(R9-Pad1)*
X93980000Y-113510000D02*
X93980000Y-123698000D01*
X93980000Y-123698000D02*
X92202000Y-125476000D01*
X92202000Y-125476000D02*
X92202000Y-129101932D01*
X92560119Y-129101932D02*
X92610109Y-129051942D01*
X92202000Y-129101932D02*
X92560119Y-129101932D01*
G04 #@! TO.N,Net-(D1-Pad2)*
X93980000Y-111760000D02*
X93980000Y-109220000D01*
G04 #@! TO.N,Net-(R10-Pad2)*
X94560109Y-116231891D02*
X97282000Y-113510000D01*
X94560109Y-127101942D02*
X94560109Y-116231891D01*
G04 #@! TO.N,Net-(D2-Pad2)*
X97282000Y-111760000D02*
X97282000Y-109220000D01*
G04 #@! TO.N,Net-(D3-Pad2)*
X100838000Y-111760000D02*
X100838000Y-109220000D01*
G04 #@! TO.N,Net-(R11-Pad2)*
X100838000Y-113510000D02*
X100104000Y-113510000D01*
X96060109Y-117553891D02*
X96060109Y-127101942D01*
X100104000Y-113510000D02*
X96060109Y-117553891D01*
G04 #@! TO.N,/5V_MEASURE*
X92610109Y-132551942D02*
X89887000Y-132551942D01*
X89887000Y-132551942D02*
X89662000Y-132326942D01*
G04 #@! TO.N,/48V_MEASURE*
X113538000Y-109601000D02*
X112127000Y-109601000D01*
X92610109Y-132051942D02*
X91157942Y-132051942D01*
X91157942Y-132051942D02*
X90424000Y-131318000D01*
X111887000Y-111252000D02*
X113538000Y-109601000D01*
X110744000Y-111252000D02*
X111887000Y-111252000D01*
X114822000Y-109601000D02*
X113538000Y-109601000D01*
G04 #@! TO.N,Net-(P1-Pad33)*
X73726000Y-117856000D02*
X73428000Y-118154000D01*
G04 #@! TO.N,Net-(D4-Pad2)*
X85598000Y-111633000D02*
X82663000Y-111633000D01*
G04 #@! TO.N,Net-(D5-Pad2)*
X85598000Y-114808000D02*
X82663000Y-114808000D01*
G04 #@! TO.N,Net-(P1-Pad35)*
X73765000Y-121031000D02*
X73428000Y-120694000D01*
G04 #@! TO.N,Net-(D6-Pad2)*
X85753000Y-117983000D02*
X82663000Y-117983000D01*
G04 #@! TO.N,/MISC_RE*
X112210009Y-97349599D02*
X110872410Y-96012000D01*
X112210010Y-99997990D02*
X112210009Y-97349599D01*
X110372000Y-101036000D02*
X111172000Y-101036000D01*
X111172000Y-101036000D02*
X112210010Y-99997990D01*
X110872410Y-96012000D02*
X97536000Y-96012000D01*
X97536000Y-96012000D02*
X90678000Y-102870000D01*
X90678000Y-102870000D02*
X90678000Y-123444000D01*
X87666999Y-128793529D02*
X87894735Y-129021265D01*
X90678000Y-123444000D02*
X87666999Y-126455001D01*
X87666999Y-126455001D02*
X87666999Y-128793529D01*
X92610109Y-136051942D02*
X91572929Y-136051942D01*
X91400107Y-136051942D02*
X92610109Y-136051942D01*
X90795696Y-136656353D02*
X91400107Y-136051942D01*
X90795696Y-137438305D02*
X90795696Y-136656353D01*
G04 #@! TO.N,/MISC_DE*
X111172000Y-100386000D02*
X111760000Y-99798000D01*
X110372000Y-100386000D02*
X111172000Y-100386000D01*
X111760000Y-99798000D02*
X111760000Y-97536000D01*
X111760000Y-97536000D02*
X110744000Y-96520000D01*
X110744000Y-96520000D02*
X98044000Y-96520000D01*
X91149001Y-103414999D02*
X91149001Y-123734999D01*
X98044000Y-96520000D02*
X91149001Y-103414999D01*
X91149001Y-123734999D02*
X88392000Y-126492000D01*
X88392000Y-126492000D02*
X88392000Y-128016000D01*
X90762058Y-135551942D02*
X92610109Y-135551942D01*
X90085677Y-136228323D02*
X90762058Y-135551942D01*
X89685678Y-137691678D02*
X90085677Y-137291679D01*
X90085677Y-137291679D02*
X90085677Y-136228323D01*
G04 #@! TO.N,/ODROID_RX*
X72906239Y-91301001D02*
X76823001Y-91301001D01*
X72340999Y-90735761D02*
X72906239Y-91301001D01*
X70888000Y-87674000D02*
X72340999Y-89126999D01*
X72340999Y-89126999D02*
X72340999Y-90735761D01*
X76823001Y-91301001D02*
X77216000Y-91694000D01*
X91263697Y-130051942D02*
X92610109Y-130051942D01*
X89408000Y-128196245D02*
X91263697Y-130051942D01*
X89408000Y-127508000D02*
X89408000Y-128196245D01*
G04 #@! TO.N,/ODROID_TX*
X72906239Y-88761001D02*
X75576999Y-88761001D01*
X72340999Y-88195761D02*
X72906239Y-88761001D01*
X70888000Y-85134000D02*
X72340999Y-86586999D01*
X72340999Y-86586999D02*
X72340999Y-88195761D01*
X75576999Y-88761001D02*
X75692000Y-88646000D01*
X91400107Y-129551942D02*
X92610109Y-129551942D01*
X90424000Y-128575835D02*
X91400107Y-129551942D01*
X90424000Y-127508000D02*
X90424000Y-128575835D01*
D40*
G04 #@! TO.N,/ICM_SDA*
X113439000Y-124813000D02*
X113284000Y-124968000D01*
D39*
X105220111Y-132551942D02*
X104010109Y-132551942D01*
X106934000Y-130838053D02*
X106934000Y-128778000D01*
X105220111Y-132551942D02*
X106934000Y-130838053D01*
D40*
X117476500Y-122936000D02*
X115316000Y-122936000D01*
X115316000Y-122936000D02*
X113284000Y-124968000D01*
G04 #@! TO.N,/ICM_SCL*
X115852002Y-123436000D02*
X113304002Y-125984000D01*
X117476500Y-123436000D02*
X115852002Y-123436000D01*
X113304002Y-125984000D02*
X113284000Y-125984000D01*
D39*
X104234048Y-133001952D02*
X105406512Y-133001951D01*
X104010109Y-133051942D02*
X104184058Y-133051942D01*
X104184058Y-133051942D02*
X104234048Y-133001952D01*
X107442000Y-130966463D02*
X107442000Y-129343002D01*
X105406512Y-133001951D02*
X107442000Y-130966463D01*
X107442000Y-129343002D02*
X107700653Y-129084349D01*
X107700653Y-129084349D02*
X107700653Y-122305653D01*
X107700653Y-122305653D02*
X107696000Y-122301000D01*
G04 #@! TO.N,/SENSOR_TX*
X110372000Y-114976000D02*
X110022000Y-114976000D01*
X105492931Y-133551942D02*
X108150663Y-130894210D01*
X104010109Y-133551942D02*
X105492931Y-133551942D01*
X108150663Y-130894210D02*
X108150663Y-122919339D01*
X108150663Y-116385337D02*
X109601000Y-114935000D01*
X109601000Y-114935000D02*
X110236000Y-114935000D01*
X108421001Y-122649001D02*
X108421001Y-121952999D01*
X108150663Y-122919339D02*
X108421001Y-122649001D01*
X108150663Y-120904000D02*
X108150663Y-121682661D01*
X108150663Y-120904000D02*
X108150663Y-116385337D01*
X108150663Y-121031000D02*
X108150663Y-120904000D01*
X108150663Y-121682661D02*
X108421001Y-121952999D01*
X108421001Y-121952999D02*
X108421001Y-122428000D01*
G04 #@! TO.N,/SENSOR_RX*
X110022000Y-116926000D02*
X110372000Y-116926000D01*
X108712000Y-118236000D02*
X110022000Y-116926000D01*
X104250048Y-134001952D02*
X105679332Y-134001951D01*
X104010109Y-134051942D02*
X104200058Y-134051942D01*
X104200058Y-134051942D02*
X104250048Y-134001952D01*
X105679332Y-134001951D02*
X108600673Y-131080610D01*
X108600673Y-118348327D02*
X108839000Y-118110000D01*
X108600673Y-120411673D02*
X108600673Y-120396000D01*
X108600673Y-120538673D02*
X108600673Y-120396000D01*
X108600673Y-118348327D02*
X108600673Y-120396000D01*
X108871011Y-121766599D02*
X108871011Y-122835401D01*
X108600673Y-120396000D02*
X108600673Y-121496261D01*
X108600673Y-121496261D02*
X108871011Y-121766599D01*
X108871011Y-122835401D02*
X108600673Y-123105739D01*
X108600673Y-123105739D02*
X108600673Y-131080610D01*
X108600673Y-131080610D02*
X108600672Y-131080611D01*
G04 #@! TO.N,/SENSOR_RE*
X103799109Y-134551942D02*
X103849108Y-134501943D01*
X103849108Y-134501943D02*
X103960110Y-134501943D01*
X111172000Y-116276000D02*
X111887000Y-116991000D01*
X110372000Y-116276000D02*
X111172000Y-116276000D01*
X111887000Y-116991000D02*
X111887000Y-128157873D01*
X105765751Y-134551942D02*
X111887000Y-128430693D01*
X104010109Y-134551942D02*
X105765751Y-134551942D01*
X111887000Y-128430693D02*
X111887000Y-128016000D01*
G04 #@! TO.N,/SENSOR_DE*
X112522000Y-116976000D02*
X112522000Y-128159283D01*
X110372000Y-115626000D02*
X111172000Y-115626000D01*
X111172000Y-115626000D02*
X112522000Y-116976000D01*
X105902161Y-135051942D02*
X112522000Y-128432103D01*
X104010109Y-135051942D02*
X105902161Y-135051942D01*
X112522000Y-128432103D02*
X112522000Y-128016000D01*
G04 #@! TO.N,/MISC_TX*
X109572000Y-99736000D02*
X106172000Y-103136000D01*
X110372000Y-99736000D02*
X109572000Y-99736000D01*
X106172000Y-103136000D02*
X106172000Y-125730000D01*
X101060109Y-141388424D02*
X101060109Y-138501942D01*
X101854000Y-142182315D02*
X101060109Y-141388424D01*
X101854000Y-142748000D02*
X101854000Y-142182315D01*
G04 #@! TO.N,/MISC_RX*
X109572000Y-101686000D02*
X106934000Y-104324000D01*
X110372000Y-101686000D02*
X109572000Y-101686000D01*
X106934000Y-104324000D02*
X106934000Y-127508000D01*
X100560109Y-141957315D02*
X100560109Y-138501942D01*
X100785109Y-142182315D02*
X100560109Y-141957315D01*
X100785109Y-142748000D02*
X100785109Y-142182315D01*
X106934000Y-127508000D02*
X106929347Y-127512653D01*
G04 #@! TO.N,+24V*
X108085791Y-66548000D02*
X108085791Y-64634209D01*
X108085791Y-66548000D02*
X108085791Y-66412209D01*
X108085791Y-71166037D02*
X108085791Y-66548000D01*
X108085791Y-64634209D02*
X112776000Y-59944000D01*
X112776000Y-59944000D02*
X112776000Y-57404000D01*
G04 #@! TO.N,/MOTOR_1*
X89535000Y-136817051D02*
X89535000Y-136017000D01*
X90500058Y-135051942D02*
X92610109Y-135051942D01*
X89535000Y-136017000D02*
X90500058Y-135051942D01*
X155893000Y-127762000D02*
X128778000Y-127762000D01*
X127958009Y-140798820D02*
X118112792Y-150644037D01*
X128778000Y-127762000D02*
X127958010Y-128581990D01*
X127958010Y-128581990D02*
X127958009Y-140798820D01*
X118112792Y-150644037D02*
X103400037Y-150644037D01*
X103400037Y-150644037D02*
X91440000Y-138684000D01*
X88960677Y-138039679D02*
X88960677Y-137353323D01*
X91440000Y-138684000D02*
X89604998Y-138684000D01*
X89604998Y-138684000D02*
X88960677Y-138039679D01*
X88960677Y-137353323D02*
X89535000Y-136779000D01*
G04 #@! TO.N,/MOTOR_2*
X155893000Y-122555000D02*
X128907820Y-122555000D01*
X128907820Y-122555000D02*
X127508000Y-123954820D01*
X95560110Y-139502110D02*
X95510119Y-139452119D01*
X95560110Y-141922158D02*
X95560110Y-139502110D01*
X103831979Y-150194027D02*
X95560110Y-141922158D01*
X117926391Y-150194028D02*
X103831979Y-150194027D01*
X127508000Y-123954820D02*
X127508000Y-140612419D01*
X127508000Y-140612419D02*
X117926391Y-150194028D01*
X95510119Y-139452119D02*
X95510119Y-138684000D01*
G04 #@! TO.N,/MOTOR_3*
X96060109Y-138501942D02*
X96060109Y-141785749D01*
X96060109Y-141785749D02*
X104018380Y-149744018D01*
X126964045Y-140519964D02*
X126964045Y-123862365D01*
X104018380Y-149744018D02*
X117739991Y-149744018D01*
X117739991Y-149744018D02*
X126964045Y-140519964D01*
X126964045Y-123862365D02*
X133478410Y-117348000D01*
X133478410Y-117348000D02*
X155956000Y-117348000D01*
G04 #@! TO.N,/MOTOR_4*
X155893000Y-112141000D02*
X138049000Y-112141000D01*
X138049000Y-112141000D02*
X126514037Y-123675963D01*
X104204779Y-149294009D02*
X98044000Y-143133230D01*
X117411628Y-149294010D02*
X104204779Y-149294009D01*
X126514037Y-123675963D02*
X126514036Y-140191602D01*
X126514036Y-140191602D02*
X117411628Y-149294010D01*
X98044000Y-143133230D02*
X98044000Y-138938000D01*
G04 #@! TO.N,/MOTOR_5*
X155893000Y-106934000D02*
X142494000Y-106934000D01*
X142494000Y-106934000D02*
X126064028Y-123363972D01*
X126064027Y-140005201D02*
X117225228Y-148844000D01*
X126064028Y-123363972D02*
X126064027Y-140005201D01*
X104391180Y-148844000D02*
X98552000Y-143004820D01*
X117225228Y-148844000D02*
X104391180Y-148844000D01*
X98552000Y-143004820D02*
X98552000Y-138684000D01*
G04 #@! TO.N,/MOTOR_6*
X99560109Y-143376519D02*
X104562611Y-148379021D01*
X99560109Y-138501942D02*
X99560109Y-143376519D01*
X117053800Y-148379020D02*
X125614018Y-139818800D01*
X104562611Y-148379021D02*
X117053800Y-148379020D01*
X125614018Y-139818800D02*
X125614018Y-123051982D01*
X125614018Y-123051982D02*
X146812000Y-101854000D01*
X146812000Y-101854000D02*
X155956000Y-101854000D01*
G04 #@! TO.N,/MOTOR_7*
X155893000Y-96520000D02*
X151322410Y-96520000D01*
X151322410Y-96520000D02*
X125164010Y-122678400D01*
X125164010Y-122678400D02*
X125164010Y-127254000D01*
X125164010Y-127254000D02*
X125164009Y-139632401D01*
X125164009Y-139632401D02*
X116867399Y-147929011D01*
X116867399Y-147929011D02*
X104749011Y-147929011D01*
X100060108Y-143240108D02*
X100060108Y-138699892D01*
X104749011Y-147929011D02*
X100060108Y-143240108D01*
X100060108Y-138699892D02*
X100076000Y-138684000D01*
X100076000Y-138684000D02*
X100076000Y-138176000D01*
X100076000Y-138176000D02*
X100076000Y-138430000D01*
G04 #@! TO.N,/MOTOR_8*
X124714000Y-122492000D02*
X124714000Y-139446000D01*
X155893000Y-91313000D02*
X124714000Y-122492000D01*
X108617001Y-147479001D02*
X101600000Y-140462000D01*
X124714000Y-139446000D02*
X116680999Y-147479001D01*
X116680999Y-147479001D02*
X108617001Y-147479001D01*
X101560109Y-138501942D02*
X101560109Y-140422109D01*
X101560109Y-140422109D02*
X102108000Y-140970000D01*
G04 #@! TO.N,Net-(C4-Pad1)*
X95162001Y-81729999D02*
X92260001Y-81729999D01*
X92260001Y-81729999D02*
X92202000Y-81788000D01*
G04 #@! TO.N,Net-(C15-Pad1)*
X45965072Y-90669072D02*
X49013072Y-90669072D01*
X45466000Y-90170000D02*
X45965072Y-90669072D01*
D42*
X56206000Y-76708000D02*
X57404000Y-77906000D01*
X54356000Y-76708000D02*
X56206000Y-76708000D01*
X57404000Y-77906000D02*
X57404000Y-82550000D01*
X57404000Y-82550000D02*
X49276000Y-90678000D01*
D39*
G04 #@! TO.N,Net-(C18-Pad1)*
X101060109Y-127101942D02*
X101060109Y-125253891D01*
X101060109Y-125253891D02*
X102870000Y-123444000D01*
G04 #@! TO.N,/SWITCH_E*
X103300107Y-130551942D02*
X103124000Y-130728049D01*
X104010109Y-130551942D02*
X103300107Y-130551942D01*
X133604000Y-90170000D02*
X139192000Y-90170000D01*
X133604000Y-90170000D02*
X122174000Y-101600000D01*
X103124000Y-130728049D02*
X103124000Y-132080000D01*
X103124000Y-132080000D02*
X102870000Y-132334000D01*
X102870000Y-132334000D02*
X99568000Y-132334000D01*
G04 #@! TO.N,/SWITCH_D*
X103163697Y-130051942D02*
X102616000Y-130599639D01*
X104010109Y-130051942D02*
X103163697Y-130051942D01*
X102616000Y-130599639D02*
X102616000Y-131572000D01*
X102362000Y-131826000D02*
X100076000Y-131826000D01*
X102616000Y-131572000D02*
X102362000Y-131826000D01*
X100076000Y-131826000D02*
X99467747Y-131217747D01*
X99467747Y-131217747D02*
X99414253Y-131217747D01*
X122573999Y-102216001D02*
X122827999Y-102216001D01*
X122174000Y-102616000D02*
X122573999Y-102216001D01*
X122936000Y-102108000D02*
X122936000Y-101474410D01*
X122827999Y-102216001D02*
X122936000Y-102108000D01*
X122936000Y-101474410D02*
X132208410Y-92202000D01*
X132208410Y-92202000D02*
X139192000Y-92202000D01*
G04 #@! TO.N,/SWITCH_C*
X102616000Y-128867835D02*
X102616000Y-124723306D01*
X104010109Y-129551942D02*
X103300107Y-129551942D01*
X103300107Y-129551942D02*
X102616000Y-128867835D01*
X122317645Y-103545357D02*
X123386010Y-102476992D01*
X121579357Y-103545357D02*
X122317645Y-103545357D01*
X123386010Y-102476992D02*
X123386010Y-101660810D01*
X123386010Y-101660810D02*
X130812820Y-94234000D01*
X130812820Y-94234000D02*
X139192000Y-94234000D01*
X102616000Y-124723306D02*
X102620653Y-124718653D01*
G04 #@! TO.N,Net-(D7-Pad2)*
X156944000Y-78486000D02*
X160020000Y-78486000D01*
G04 #@! TO.N,/24V_MEASURE*
X110021038Y-71159038D02*
X109982000Y-71120000D01*
X111252000Y-91186000D02*
X107950000Y-94488000D01*
X111252000Y-71159038D02*
X111252000Y-91186000D01*
X111252000Y-71159038D02*
X110021038Y-71159038D01*
X112776000Y-71159038D02*
X111252000Y-71159038D01*
X103124000Y-110547685D02*
X102870000Y-110801685D01*
X103124000Y-109982000D02*
X103124000Y-110547685D01*
X102870000Y-110801685D02*
X102870000Y-119380000D01*
X102870000Y-119380000D02*
X101600000Y-120650000D01*
X101600000Y-120650000D02*
X101600000Y-122428000D01*
X101600000Y-122428000D02*
X99568000Y-124460000D01*
X99568000Y-124460000D02*
X99568000Y-125730000D01*
X99560109Y-127101942D02*
X99560109Y-125483891D01*
X99560109Y-125483891D02*
X99568000Y-125476000D01*
G04 #@! TD*
M02*
