G04 #@! TF.GenerationSoftware,KiCad,Pcbnew,(5.0.0)*
G04 #@! TF.CreationDate,2019-02-04T22:48:53-05:00*
G04 #@! TF.ProjectId,control board,636F6E74726F6C20626F6172642E6B69,rev?*
G04 #@! TF.SameCoordinates,Original*
G04 #@! TF.FileFunction,Soldermask,Top*
G04 #@! TF.FilePolarity,Negative*
%FSLAX46Y46*%
G04 Gerber Fmt 4.6, Leading zero omitted, Abs format (unit mm)*
G04 Created by KiCad (PCBNEW (5.0.0)) date 02/04/19 22:48:53*
%MOMM*%
%LPD*%
G01*
G04 APERTURE LIST*
%ADD10C,0.100000*%
%ADD11C,1.102400*%
%ADD12R,1.852400X1.852400*%
%ADD13O,1.852400X1.852400*%
%ADD14C,5.152400*%
%ADD15R,1.676400X1.676400*%
%ADD16C,1.676400*%
%ADD17R,2.852400X3.452400*%
%ADD18O,2.852400X3.452400*%
%ADD19C,3.152400*%
%ADD20C,1.652400*%
%ADD21C,1.502400*%
%ADD22R,1.502400X1.502400*%
%ADD23C,6.552400*%
%ADD24C,1.852400*%
%ADD25C,3.652400*%
G04 APERTURE END LIST*
D10*
G04 #@! TO.C,C9*
G36*
X94790614Y-133907127D02*
X94817367Y-133911096D01*
X94843602Y-133917667D01*
X94869068Y-133926779D01*
X94893517Y-133938342D01*
X94916715Y-133952247D01*
X94938439Y-133968358D01*
X94958479Y-133986521D01*
X94976642Y-134006561D01*
X94992753Y-134028285D01*
X95006658Y-134051483D01*
X95018221Y-134075932D01*
X95027333Y-134101398D01*
X95033904Y-134127633D01*
X95037873Y-134154386D01*
X95039200Y-134181400D01*
X95039200Y-134832600D01*
X95037873Y-134859614D01*
X95033904Y-134886367D01*
X95027333Y-134912602D01*
X95018221Y-134938068D01*
X95006658Y-134962517D01*
X94992753Y-134985715D01*
X94976642Y-135007439D01*
X94958479Y-135027479D01*
X94938439Y-135045642D01*
X94916715Y-135061753D01*
X94893517Y-135075658D01*
X94869068Y-135087221D01*
X94843602Y-135096333D01*
X94817367Y-135102904D01*
X94790614Y-135106873D01*
X94763600Y-135108200D01*
X94212400Y-135108200D01*
X94185386Y-135106873D01*
X94158633Y-135102904D01*
X94132398Y-135096333D01*
X94106932Y-135087221D01*
X94082483Y-135075658D01*
X94059285Y-135061753D01*
X94037561Y-135045642D01*
X94017521Y-135027479D01*
X93999358Y-135007439D01*
X93983247Y-134985715D01*
X93969342Y-134962517D01*
X93957779Y-134938068D01*
X93948667Y-134912602D01*
X93942096Y-134886367D01*
X93938127Y-134859614D01*
X93936800Y-134832600D01*
X93936800Y-134181400D01*
X93938127Y-134154386D01*
X93942096Y-134127633D01*
X93948667Y-134101398D01*
X93957779Y-134075932D01*
X93969342Y-134051483D01*
X93983247Y-134028285D01*
X93999358Y-134006561D01*
X94017521Y-133986521D01*
X94037561Y-133968358D01*
X94059285Y-133952247D01*
X94082483Y-133938342D01*
X94106932Y-133926779D01*
X94132398Y-133917667D01*
X94158633Y-133911096D01*
X94185386Y-133907127D01*
X94212400Y-133905800D01*
X94763600Y-133905800D01*
X94790614Y-133907127D01*
X94790614Y-133907127D01*
G37*
D11*
X94488000Y-134507000D03*
D10*
G36*
X94790614Y-135657127D02*
X94817367Y-135661096D01*
X94843602Y-135667667D01*
X94869068Y-135676779D01*
X94893517Y-135688342D01*
X94916715Y-135702247D01*
X94938439Y-135718358D01*
X94958479Y-135736521D01*
X94976642Y-135756561D01*
X94992753Y-135778285D01*
X95006658Y-135801483D01*
X95018221Y-135825932D01*
X95027333Y-135851398D01*
X95033904Y-135877633D01*
X95037873Y-135904386D01*
X95039200Y-135931400D01*
X95039200Y-136582600D01*
X95037873Y-136609614D01*
X95033904Y-136636367D01*
X95027333Y-136662602D01*
X95018221Y-136688068D01*
X95006658Y-136712517D01*
X94992753Y-136735715D01*
X94976642Y-136757439D01*
X94958479Y-136777479D01*
X94938439Y-136795642D01*
X94916715Y-136811753D01*
X94893517Y-136825658D01*
X94869068Y-136837221D01*
X94843602Y-136846333D01*
X94817367Y-136852904D01*
X94790614Y-136856873D01*
X94763600Y-136858200D01*
X94212400Y-136858200D01*
X94185386Y-136856873D01*
X94158633Y-136852904D01*
X94132398Y-136846333D01*
X94106932Y-136837221D01*
X94082483Y-136825658D01*
X94059285Y-136811753D01*
X94037561Y-136795642D01*
X94017521Y-136777479D01*
X93999358Y-136757439D01*
X93983247Y-136735715D01*
X93969342Y-136712517D01*
X93957779Y-136688068D01*
X93948667Y-136662602D01*
X93942096Y-136636367D01*
X93938127Y-136609614D01*
X93936800Y-136582600D01*
X93936800Y-135931400D01*
X93938127Y-135904386D01*
X93942096Y-135877633D01*
X93948667Y-135851398D01*
X93957779Y-135825932D01*
X93969342Y-135801483D01*
X93983247Y-135778285D01*
X93999358Y-135756561D01*
X94017521Y-135736521D01*
X94037561Y-135718358D01*
X94059285Y-135702247D01*
X94082483Y-135688342D01*
X94106932Y-135676779D01*
X94132398Y-135667667D01*
X94158633Y-135661096D01*
X94185386Y-135657127D01*
X94212400Y-135655800D01*
X94763600Y-135655800D01*
X94790614Y-135657127D01*
X94790614Y-135657127D01*
G37*
D11*
X94488000Y-136257000D03*
G04 #@! TD*
D10*
G04 #@! TO.C,C5*
G36*
X102283614Y-134147127D02*
X102310367Y-134151096D01*
X102336602Y-134157667D01*
X102362068Y-134166779D01*
X102386517Y-134178342D01*
X102409715Y-134192247D01*
X102431439Y-134208358D01*
X102451479Y-134226521D01*
X102469642Y-134246561D01*
X102485753Y-134268285D01*
X102499658Y-134291483D01*
X102511221Y-134315932D01*
X102520333Y-134341398D01*
X102526904Y-134367633D01*
X102530873Y-134394386D01*
X102532200Y-134421400D01*
X102532200Y-135072600D01*
X102530873Y-135099614D01*
X102526904Y-135126367D01*
X102520333Y-135152602D01*
X102511221Y-135178068D01*
X102499658Y-135202517D01*
X102485753Y-135225715D01*
X102469642Y-135247439D01*
X102451479Y-135267479D01*
X102431439Y-135285642D01*
X102409715Y-135301753D01*
X102386517Y-135315658D01*
X102362068Y-135327221D01*
X102336602Y-135336333D01*
X102310367Y-135342904D01*
X102283614Y-135346873D01*
X102256600Y-135348200D01*
X101705400Y-135348200D01*
X101678386Y-135346873D01*
X101651633Y-135342904D01*
X101625398Y-135336333D01*
X101599932Y-135327221D01*
X101575483Y-135315658D01*
X101552285Y-135301753D01*
X101530561Y-135285642D01*
X101510521Y-135267479D01*
X101492358Y-135247439D01*
X101476247Y-135225715D01*
X101462342Y-135202517D01*
X101450779Y-135178068D01*
X101441667Y-135152602D01*
X101435096Y-135126367D01*
X101431127Y-135099614D01*
X101429800Y-135072600D01*
X101429800Y-134421400D01*
X101431127Y-134394386D01*
X101435096Y-134367633D01*
X101441667Y-134341398D01*
X101450779Y-134315932D01*
X101462342Y-134291483D01*
X101476247Y-134268285D01*
X101492358Y-134246561D01*
X101510521Y-134226521D01*
X101530561Y-134208358D01*
X101552285Y-134192247D01*
X101575483Y-134178342D01*
X101599932Y-134166779D01*
X101625398Y-134157667D01*
X101651633Y-134151096D01*
X101678386Y-134147127D01*
X101705400Y-134145800D01*
X102256600Y-134145800D01*
X102283614Y-134147127D01*
X102283614Y-134147127D01*
G37*
D11*
X101981000Y-134747000D03*
D10*
G36*
X102283614Y-135897127D02*
X102310367Y-135901096D01*
X102336602Y-135907667D01*
X102362068Y-135916779D01*
X102386517Y-135928342D01*
X102409715Y-135942247D01*
X102431439Y-135958358D01*
X102451479Y-135976521D01*
X102469642Y-135996561D01*
X102485753Y-136018285D01*
X102499658Y-136041483D01*
X102511221Y-136065932D01*
X102520333Y-136091398D01*
X102526904Y-136117633D01*
X102530873Y-136144386D01*
X102532200Y-136171400D01*
X102532200Y-136822600D01*
X102530873Y-136849614D01*
X102526904Y-136876367D01*
X102520333Y-136902602D01*
X102511221Y-136928068D01*
X102499658Y-136952517D01*
X102485753Y-136975715D01*
X102469642Y-136997439D01*
X102451479Y-137017479D01*
X102431439Y-137035642D01*
X102409715Y-137051753D01*
X102386517Y-137065658D01*
X102362068Y-137077221D01*
X102336602Y-137086333D01*
X102310367Y-137092904D01*
X102283614Y-137096873D01*
X102256600Y-137098200D01*
X101705400Y-137098200D01*
X101678386Y-137096873D01*
X101651633Y-137092904D01*
X101625398Y-137086333D01*
X101599932Y-137077221D01*
X101575483Y-137065658D01*
X101552285Y-137051753D01*
X101530561Y-137035642D01*
X101510521Y-137017479D01*
X101492358Y-136997439D01*
X101476247Y-136975715D01*
X101462342Y-136952517D01*
X101450779Y-136928068D01*
X101441667Y-136902602D01*
X101435096Y-136876367D01*
X101431127Y-136849614D01*
X101429800Y-136822600D01*
X101429800Y-136171400D01*
X101431127Y-136144386D01*
X101435096Y-136117633D01*
X101441667Y-136091398D01*
X101450779Y-136065932D01*
X101462342Y-136041483D01*
X101476247Y-136018285D01*
X101492358Y-135996561D01*
X101510521Y-135976521D01*
X101530561Y-135958358D01*
X101552285Y-135942247D01*
X101575483Y-135928342D01*
X101599932Y-135916779D01*
X101625398Y-135907667D01*
X101651633Y-135901096D01*
X101678386Y-135897127D01*
X101705400Y-135895800D01*
X102256600Y-135895800D01*
X102283614Y-135897127D01*
X102283614Y-135897127D01*
G37*
D11*
X101981000Y-136497000D03*
G04 #@! TD*
D10*
G04 #@! TO.C,C6*
G36*
X101787723Y-128646069D02*
X101814476Y-128650038D01*
X101840711Y-128656609D01*
X101866177Y-128665721D01*
X101890626Y-128677284D01*
X101913824Y-128691189D01*
X101935548Y-128707300D01*
X101955588Y-128725463D01*
X101973751Y-128745503D01*
X101989862Y-128767227D01*
X102003767Y-128790425D01*
X102015330Y-128814874D01*
X102024442Y-128840340D01*
X102031013Y-128866575D01*
X102034982Y-128893328D01*
X102036309Y-128920342D01*
X102036309Y-129571542D01*
X102034982Y-129598556D01*
X102031013Y-129625309D01*
X102024442Y-129651544D01*
X102015330Y-129677010D01*
X102003767Y-129701459D01*
X101989862Y-129724657D01*
X101973751Y-129746381D01*
X101955588Y-129766421D01*
X101935548Y-129784584D01*
X101913824Y-129800695D01*
X101890626Y-129814600D01*
X101866177Y-129826163D01*
X101840711Y-129835275D01*
X101814476Y-129841846D01*
X101787723Y-129845815D01*
X101760709Y-129847142D01*
X101209509Y-129847142D01*
X101182495Y-129845815D01*
X101155742Y-129841846D01*
X101129507Y-129835275D01*
X101104041Y-129826163D01*
X101079592Y-129814600D01*
X101056394Y-129800695D01*
X101034670Y-129784584D01*
X101014630Y-129766421D01*
X100996467Y-129746381D01*
X100980356Y-129724657D01*
X100966451Y-129701459D01*
X100954888Y-129677010D01*
X100945776Y-129651544D01*
X100939205Y-129625309D01*
X100935236Y-129598556D01*
X100933909Y-129571542D01*
X100933909Y-128920342D01*
X100935236Y-128893328D01*
X100939205Y-128866575D01*
X100945776Y-128840340D01*
X100954888Y-128814874D01*
X100966451Y-128790425D01*
X100980356Y-128767227D01*
X100996467Y-128745503D01*
X101014630Y-128725463D01*
X101034670Y-128707300D01*
X101056394Y-128691189D01*
X101079592Y-128677284D01*
X101104041Y-128665721D01*
X101129507Y-128656609D01*
X101155742Y-128650038D01*
X101182495Y-128646069D01*
X101209509Y-128644742D01*
X101760709Y-128644742D01*
X101787723Y-128646069D01*
X101787723Y-128646069D01*
G37*
D11*
X101485109Y-129245942D03*
D10*
G36*
X101787723Y-130396069D02*
X101814476Y-130400038D01*
X101840711Y-130406609D01*
X101866177Y-130415721D01*
X101890626Y-130427284D01*
X101913824Y-130441189D01*
X101935548Y-130457300D01*
X101955588Y-130475463D01*
X101973751Y-130495503D01*
X101989862Y-130517227D01*
X102003767Y-130540425D01*
X102015330Y-130564874D01*
X102024442Y-130590340D01*
X102031013Y-130616575D01*
X102034982Y-130643328D01*
X102036309Y-130670342D01*
X102036309Y-131321542D01*
X102034982Y-131348556D01*
X102031013Y-131375309D01*
X102024442Y-131401544D01*
X102015330Y-131427010D01*
X102003767Y-131451459D01*
X101989862Y-131474657D01*
X101973751Y-131496381D01*
X101955588Y-131516421D01*
X101935548Y-131534584D01*
X101913824Y-131550695D01*
X101890626Y-131564600D01*
X101866177Y-131576163D01*
X101840711Y-131585275D01*
X101814476Y-131591846D01*
X101787723Y-131595815D01*
X101760709Y-131597142D01*
X101209509Y-131597142D01*
X101182495Y-131595815D01*
X101155742Y-131591846D01*
X101129507Y-131585275D01*
X101104041Y-131576163D01*
X101079592Y-131564600D01*
X101056394Y-131550695D01*
X101034670Y-131534584D01*
X101014630Y-131516421D01*
X100996467Y-131496381D01*
X100980356Y-131474657D01*
X100966451Y-131451459D01*
X100954888Y-131427010D01*
X100945776Y-131401544D01*
X100939205Y-131375309D01*
X100935236Y-131348556D01*
X100933909Y-131321542D01*
X100933909Y-130670342D01*
X100935236Y-130643328D01*
X100939205Y-130616575D01*
X100945776Y-130590340D01*
X100954888Y-130564874D01*
X100966451Y-130540425D01*
X100980356Y-130517227D01*
X100996467Y-130495503D01*
X101014630Y-130475463D01*
X101034670Y-130457300D01*
X101056394Y-130441189D01*
X101079592Y-130427284D01*
X101104041Y-130415721D01*
X101129507Y-130406609D01*
X101155742Y-130400038D01*
X101182495Y-130396069D01*
X101209509Y-130394742D01*
X101760709Y-130394742D01*
X101787723Y-130396069D01*
X101787723Y-130396069D01*
G37*
D11*
X101485109Y-130995942D03*
G04 #@! TD*
D10*
G04 #@! TO.C,C7*
G36*
X94914614Y-128609127D02*
X94941367Y-128613096D01*
X94967602Y-128619667D01*
X94993068Y-128628779D01*
X95017517Y-128640342D01*
X95040715Y-128654247D01*
X95062439Y-128670358D01*
X95082479Y-128688521D01*
X95100642Y-128708561D01*
X95116753Y-128730285D01*
X95130658Y-128753483D01*
X95142221Y-128777932D01*
X95151333Y-128803398D01*
X95157904Y-128829633D01*
X95161873Y-128856386D01*
X95163200Y-128883400D01*
X95163200Y-129434600D01*
X95161873Y-129461614D01*
X95157904Y-129488367D01*
X95151333Y-129514602D01*
X95142221Y-129540068D01*
X95130658Y-129564517D01*
X95116753Y-129587715D01*
X95100642Y-129609439D01*
X95082479Y-129629479D01*
X95062439Y-129647642D01*
X95040715Y-129663753D01*
X95017517Y-129677658D01*
X94993068Y-129689221D01*
X94967602Y-129698333D01*
X94941367Y-129704904D01*
X94914614Y-129708873D01*
X94887600Y-129710200D01*
X94236400Y-129710200D01*
X94209386Y-129708873D01*
X94182633Y-129704904D01*
X94156398Y-129698333D01*
X94130932Y-129689221D01*
X94106483Y-129677658D01*
X94083285Y-129663753D01*
X94061561Y-129647642D01*
X94041521Y-129629479D01*
X94023358Y-129609439D01*
X94007247Y-129587715D01*
X93993342Y-129564517D01*
X93981779Y-129540068D01*
X93972667Y-129514602D01*
X93966096Y-129488367D01*
X93962127Y-129461614D01*
X93960800Y-129434600D01*
X93960800Y-128883400D01*
X93962127Y-128856386D01*
X93966096Y-128829633D01*
X93972667Y-128803398D01*
X93981779Y-128777932D01*
X93993342Y-128753483D01*
X94007247Y-128730285D01*
X94023358Y-128708561D01*
X94041521Y-128688521D01*
X94061561Y-128670358D01*
X94083285Y-128654247D01*
X94106483Y-128640342D01*
X94130932Y-128628779D01*
X94156398Y-128619667D01*
X94182633Y-128613096D01*
X94209386Y-128609127D01*
X94236400Y-128607800D01*
X94887600Y-128607800D01*
X94914614Y-128609127D01*
X94914614Y-128609127D01*
G37*
D11*
X94562000Y-129159000D03*
D10*
G36*
X96664614Y-128609127D02*
X96691367Y-128613096D01*
X96717602Y-128619667D01*
X96743068Y-128628779D01*
X96767517Y-128640342D01*
X96790715Y-128654247D01*
X96812439Y-128670358D01*
X96832479Y-128688521D01*
X96850642Y-128708561D01*
X96866753Y-128730285D01*
X96880658Y-128753483D01*
X96892221Y-128777932D01*
X96901333Y-128803398D01*
X96907904Y-128829633D01*
X96911873Y-128856386D01*
X96913200Y-128883400D01*
X96913200Y-129434600D01*
X96911873Y-129461614D01*
X96907904Y-129488367D01*
X96901333Y-129514602D01*
X96892221Y-129540068D01*
X96880658Y-129564517D01*
X96866753Y-129587715D01*
X96850642Y-129609439D01*
X96832479Y-129629479D01*
X96812439Y-129647642D01*
X96790715Y-129663753D01*
X96767517Y-129677658D01*
X96743068Y-129689221D01*
X96717602Y-129698333D01*
X96691367Y-129704904D01*
X96664614Y-129708873D01*
X96637600Y-129710200D01*
X95986400Y-129710200D01*
X95959386Y-129708873D01*
X95932633Y-129704904D01*
X95906398Y-129698333D01*
X95880932Y-129689221D01*
X95856483Y-129677658D01*
X95833285Y-129663753D01*
X95811561Y-129647642D01*
X95791521Y-129629479D01*
X95773358Y-129609439D01*
X95757247Y-129587715D01*
X95743342Y-129564517D01*
X95731779Y-129540068D01*
X95722667Y-129514602D01*
X95716096Y-129488367D01*
X95712127Y-129461614D01*
X95710800Y-129434600D01*
X95710800Y-128883400D01*
X95712127Y-128856386D01*
X95716096Y-128829633D01*
X95722667Y-128803398D01*
X95731779Y-128777932D01*
X95743342Y-128753483D01*
X95757247Y-128730285D01*
X95773358Y-128708561D01*
X95791521Y-128688521D01*
X95811561Y-128670358D01*
X95833285Y-128654247D01*
X95856483Y-128640342D01*
X95880932Y-128628779D01*
X95906398Y-128619667D01*
X95932633Y-128613096D01*
X95959386Y-128609127D01*
X95986400Y-128607800D01*
X96637600Y-128607800D01*
X96664614Y-128609127D01*
X96664614Y-128609127D01*
G37*
D11*
X96312000Y-129159000D03*
G04 #@! TD*
D10*
G04 #@! TO.C,C8*
G36*
X94790614Y-130337127D02*
X94817367Y-130341096D01*
X94843602Y-130347667D01*
X94869068Y-130356779D01*
X94893517Y-130368342D01*
X94916715Y-130382247D01*
X94938439Y-130398358D01*
X94958479Y-130416521D01*
X94976642Y-130436561D01*
X94992753Y-130458285D01*
X95006658Y-130481483D01*
X95018221Y-130505932D01*
X95027333Y-130531398D01*
X95033904Y-130557633D01*
X95037873Y-130584386D01*
X95039200Y-130611400D01*
X95039200Y-131262600D01*
X95037873Y-131289614D01*
X95033904Y-131316367D01*
X95027333Y-131342602D01*
X95018221Y-131368068D01*
X95006658Y-131392517D01*
X94992753Y-131415715D01*
X94976642Y-131437439D01*
X94958479Y-131457479D01*
X94938439Y-131475642D01*
X94916715Y-131491753D01*
X94893517Y-131505658D01*
X94869068Y-131517221D01*
X94843602Y-131526333D01*
X94817367Y-131532904D01*
X94790614Y-131536873D01*
X94763600Y-131538200D01*
X94212400Y-131538200D01*
X94185386Y-131536873D01*
X94158633Y-131532904D01*
X94132398Y-131526333D01*
X94106932Y-131517221D01*
X94082483Y-131505658D01*
X94059285Y-131491753D01*
X94037561Y-131475642D01*
X94017521Y-131457479D01*
X93999358Y-131437439D01*
X93983247Y-131415715D01*
X93969342Y-131392517D01*
X93957779Y-131368068D01*
X93948667Y-131342602D01*
X93942096Y-131316367D01*
X93938127Y-131289614D01*
X93936800Y-131262600D01*
X93936800Y-130611400D01*
X93938127Y-130584386D01*
X93942096Y-130557633D01*
X93948667Y-130531398D01*
X93957779Y-130505932D01*
X93969342Y-130481483D01*
X93983247Y-130458285D01*
X93999358Y-130436561D01*
X94017521Y-130416521D01*
X94037561Y-130398358D01*
X94059285Y-130382247D01*
X94082483Y-130368342D01*
X94106932Y-130356779D01*
X94132398Y-130347667D01*
X94158633Y-130341096D01*
X94185386Y-130337127D01*
X94212400Y-130335800D01*
X94763600Y-130335800D01*
X94790614Y-130337127D01*
X94790614Y-130337127D01*
G37*
D11*
X94488000Y-130937000D03*
D10*
G36*
X94790614Y-132087127D02*
X94817367Y-132091096D01*
X94843602Y-132097667D01*
X94869068Y-132106779D01*
X94893517Y-132118342D01*
X94916715Y-132132247D01*
X94938439Y-132148358D01*
X94958479Y-132166521D01*
X94976642Y-132186561D01*
X94992753Y-132208285D01*
X95006658Y-132231483D01*
X95018221Y-132255932D01*
X95027333Y-132281398D01*
X95033904Y-132307633D01*
X95037873Y-132334386D01*
X95039200Y-132361400D01*
X95039200Y-133012600D01*
X95037873Y-133039614D01*
X95033904Y-133066367D01*
X95027333Y-133092602D01*
X95018221Y-133118068D01*
X95006658Y-133142517D01*
X94992753Y-133165715D01*
X94976642Y-133187439D01*
X94958479Y-133207479D01*
X94938439Y-133225642D01*
X94916715Y-133241753D01*
X94893517Y-133255658D01*
X94869068Y-133267221D01*
X94843602Y-133276333D01*
X94817367Y-133282904D01*
X94790614Y-133286873D01*
X94763600Y-133288200D01*
X94212400Y-133288200D01*
X94185386Y-133286873D01*
X94158633Y-133282904D01*
X94132398Y-133276333D01*
X94106932Y-133267221D01*
X94082483Y-133255658D01*
X94059285Y-133241753D01*
X94037561Y-133225642D01*
X94017521Y-133207479D01*
X93999358Y-133187439D01*
X93983247Y-133165715D01*
X93969342Y-133142517D01*
X93957779Y-133118068D01*
X93948667Y-133092602D01*
X93942096Y-133066367D01*
X93938127Y-133039614D01*
X93936800Y-133012600D01*
X93936800Y-132361400D01*
X93938127Y-132334386D01*
X93942096Y-132307633D01*
X93948667Y-132281398D01*
X93957779Y-132255932D01*
X93969342Y-132231483D01*
X93983247Y-132208285D01*
X93999358Y-132186561D01*
X94017521Y-132166521D01*
X94037561Y-132148358D01*
X94059285Y-132132247D01*
X94082483Y-132118342D01*
X94106932Y-132106779D01*
X94132398Y-132097667D01*
X94158633Y-132091096D01*
X94185386Y-132087127D01*
X94212400Y-132085800D01*
X94763600Y-132085800D01*
X94790614Y-132087127D01*
X94790614Y-132087127D01*
G37*
D11*
X94488000Y-132687000D03*
G04 #@! TD*
D10*
G04 #@! TO.C,C10*
G36*
X98523614Y-135721127D02*
X98550367Y-135725096D01*
X98576602Y-135731667D01*
X98602068Y-135740779D01*
X98626517Y-135752342D01*
X98649715Y-135766247D01*
X98671439Y-135782358D01*
X98691479Y-135800521D01*
X98709642Y-135820561D01*
X98725753Y-135842285D01*
X98739658Y-135865483D01*
X98751221Y-135889932D01*
X98760333Y-135915398D01*
X98766904Y-135941633D01*
X98770873Y-135968386D01*
X98772200Y-135995400D01*
X98772200Y-136546600D01*
X98770873Y-136573614D01*
X98766904Y-136600367D01*
X98760333Y-136626602D01*
X98751221Y-136652068D01*
X98739658Y-136676517D01*
X98725753Y-136699715D01*
X98709642Y-136721439D01*
X98691479Y-136741479D01*
X98671439Y-136759642D01*
X98649715Y-136775753D01*
X98626517Y-136789658D01*
X98602068Y-136801221D01*
X98576602Y-136810333D01*
X98550367Y-136816904D01*
X98523614Y-136820873D01*
X98496600Y-136822200D01*
X97845400Y-136822200D01*
X97818386Y-136820873D01*
X97791633Y-136816904D01*
X97765398Y-136810333D01*
X97739932Y-136801221D01*
X97715483Y-136789658D01*
X97692285Y-136775753D01*
X97670561Y-136759642D01*
X97650521Y-136741479D01*
X97632358Y-136721439D01*
X97616247Y-136699715D01*
X97602342Y-136676517D01*
X97590779Y-136652068D01*
X97581667Y-136626602D01*
X97575096Y-136600367D01*
X97571127Y-136573614D01*
X97569800Y-136546600D01*
X97569800Y-135995400D01*
X97571127Y-135968386D01*
X97575096Y-135941633D01*
X97581667Y-135915398D01*
X97590779Y-135889932D01*
X97602342Y-135865483D01*
X97616247Y-135842285D01*
X97632358Y-135820561D01*
X97650521Y-135800521D01*
X97670561Y-135782358D01*
X97692285Y-135766247D01*
X97715483Y-135752342D01*
X97739932Y-135740779D01*
X97765398Y-135731667D01*
X97791633Y-135725096D01*
X97818386Y-135721127D01*
X97845400Y-135719800D01*
X98496600Y-135719800D01*
X98523614Y-135721127D01*
X98523614Y-135721127D01*
G37*
D11*
X98171000Y-136271000D03*
D10*
G36*
X96773614Y-135721127D02*
X96800367Y-135725096D01*
X96826602Y-135731667D01*
X96852068Y-135740779D01*
X96876517Y-135752342D01*
X96899715Y-135766247D01*
X96921439Y-135782358D01*
X96941479Y-135800521D01*
X96959642Y-135820561D01*
X96975753Y-135842285D01*
X96989658Y-135865483D01*
X97001221Y-135889932D01*
X97010333Y-135915398D01*
X97016904Y-135941633D01*
X97020873Y-135968386D01*
X97022200Y-135995400D01*
X97022200Y-136546600D01*
X97020873Y-136573614D01*
X97016904Y-136600367D01*
X97010333Y-136626602D01*
X97001221Y-136652068D01*
X96989658Y-136676517D01*
X96975753Y-136699715D01*
X96959642Y-136721439D01*
X96941479Y-136741479D01*
X96921439Y-136759642D01*
X96899715Y-136775753D01*
X96876517Y-136789658D01*
X96852068Y-136801221D01*
X96826602Y-136810333D01*
X96800367Y-136816904D01*
X96773614Y-136820873D01*
X96746600Y-136822200D01*
X96095400Y-136822200D01*
X96068386Y-136820873D01*
X96041633Y-136816904D01*
X96015398Y-136810333D01*
X95989932Y-136801221D01*
X95965483Y-136789658D01*
X95942285Y-136775753D01*
X95920561Y-136759642D01*
X95900521Y-136741479D01*
X95882358Y-136721439D01*
X95866247Y-136699715D01*
X95852342Y-136676517D01*
X95840779Y-136652068D01*
X95831667Y-136626602D01*
X95825096Y-136600367D01*
X95821127Y-136573614D01*
X95819800Y-136546600D01*
X95819800Y-135995400D01*
X95821127Y-135968386D01*
X95825096Y-135941633D01*
X95831667Y-135915398D01*
X95840779Y-135889932D01*
X95852342Y-135865483D01*
X95866247Y-135842285D01*
X95882358Y-135820561D01*
X95900521Y-135800521D01*
X95920561Y-135782358D01*
X95942285Y-135766247D01*
X95965483Y-135752342D01*
X95989932Y-135740779D01*
X96015398Y-135731667D01*
X96041633Y-135725096D01*
X96068386Y-135721127D01*
X96095400Y-135719800D01*
X96746600Y-135719800D01*
X96773614Y-135721127D01*
X96773614Y-135721127D01*
G37*
D11*
X96421000Y-136271000D03*
G04 #@! TD*
D12*
G04 #@! TO.C,J1*
X99568000Y-119126000D03*
D13*
X99568000Y-121666000D03*
G04 #@! TD*
D12*
G04 #@! TO.C,J2*
X113538000Y-145796000D03*
D13*
X113538000Y-143256000D03*
X113538000Y-140716000D03*
X113538000Y-138176000D03*
X113538000Y-135636000D03*
X113538000Y-133096000D03*
G04 #@! TD*
D14*
G04 #@! TO.C,P1*
X121158000Y-130644000D03*
X121158000Y-72644000D03*
X72158000Y-72644000D03*
X72158000Y-130644000D03*
D15*
X73428000Y-77514000D03*
D16*
X70888000Y-77514000D03*
X73428000Y-80054000D03*
X70888000Y-80054000D03*
X73428000Y-82594000D03*
X70888000Y-82594000D03*
X73428000Y-85134000D03*
X70888000Y-85134000D03*
X73428000Y-87674000D03*
X70888000Y-87674000D03*
X73428000Y-90214000D03*
X70888000Y-90214000D03*
X73428000Y-92754000D03*
X70888000Y-92754000D03*
X73428000Y-95294000D03*
X70888000Y-95294000D03*
X73428000Y-97834000D03*
X70888000Y-97834000D03*
X73428000Y-100374000D03*
X70888000Y-100374000D03*
X73428000Y-102914000D03*
X70888000Y-102914000D03*
X73428000Y-105454000D03*
X70888000Y-105454000D03*
X73428000Y-107994000D03*
X70888000Y-107994000D03*
X73428000Y-110534000D03*
X70888000Y-110534000D03*
X73428000Y-113074000D03*
X70888000Y-113074000D03*
X73428000Y-115614000D03*
X70888000Y-115614000D03*
X73428000Y-118154000D03*
X70888000Y-118154000D03*
X73428000Y-120694000D03*
X70888000Y-120694000D03*
X73428000Y-123234000D03*
X70888000Y-123234000D03*
X73428000Y-125774000D03*
X70888000Y-125774000D03*
G04 #@! TD*
D17*
G04 #@! TO.C,J7*
X104394000Y-51650000D03*
D18*
X108594000Y-51650000D03*
X112794000Y-51650000D03*
X116994000Y-51650000D03*
X104394000Y-57150000D03*
X108594000Y-57150000D03*
X112794000Y-57150000D03*
X116994000Y-57150000D03*
D19*
X99694000Y-56690000D03*
X121694000Y-56690000D03*
G04 #@! TD*
D10*
G04 #@! TO.C,R13*
G36*
X80884614Y-69681127D02*
X80911367Y-69685096D01*
X80937602Y-69691667D01*
X80963068Y-69700779D01*
X80987517Y-69712342D01*
X81010715Y-69726247D01*
X81032439Y-69742358D01*
X81052479Y-69760521D01*
X81070642Y-69780561D01*
X81086753Y-69802285D01*
X81100658Y-69825483D01*
X81112221Y-69849932D01*
X81121333Y-69875398D01*
X81127904Y-69901633D01*
X81131873Y-69928386D01*
X81133200Y-69955400D01*
X81133200Y-70506600D01*
X81131873Y-70533614D01*
X81127904Y-70560367D01*
X81121333Y-70586602D01*
X81112221Y-70612068D01*
X81100658Y-70636517D01*
X81086753Y-70659715D01*
X81070642Y-70681439D01*
X81052479Y-70701479D01*
X81032439Y-70719642D01*
X81010715Y-70735753D01*
X80987517Y-70749658D01*
X80963068Y-70761221D01*
X80937602Y-70770333D01*
X80911367Y-70776904D01*
X80884614Y-70780873D01*
X80857600Y-70782200D01*
X80206400Y-70782200D01*
X80179386Y-70780873D01*
X80152633Y-70776904D01*
X80126398Y-70770333D01*
X80100932Y-70761221D01*
X80076483Y-70749658D01*
X80053285Y-70735753D01*
X80031561Y-70719642D01*
X80011521Y-70701479D01*
X79993358Y-70681439D01*
X79977247Y-70659715D01*
X79963342Y-70636517D01*
X79951779Y-70612068D01*
X79942667Y-70586602D01*
X79936096Y-70560367D01*
X79932127Y-70533614D01*
X79930800Y-70506600D01*
X79930800Y-69955400D01*
X79932127Y-69928386D01*
X79936096Y-69901633D01*
X79942667Y-69875398D01*
X79951779Y-69849932D01*
X79963342Y-69825483D01*
X79977247Y-69802285D01*
X79993358Y-69780561D01*
X80011521Y-69760521D01*
X80031561Y-69742358D01*
X80053285Y-69726247D01*
X80076483Y-69712342D01*
X80100932Y-69700779D01*
X80126398Y-69691667D01*
X80152633Y-69685096D01*
X80179386Y-69681127D01*
X80206400Y-69679800D01*
X80857600Y-69679800D01*
X80884614Y-69681127D01*
X80884614Y-69681127D01*
G37*
D11*
X80532000Y-70231000D03*
D10*
G36*
X82634614Y-69681127D02*
X82661367Y-69685096D01*
X82687602Y-69691667D01*
X82713068Y-69700779D01*
X82737517Y-69712342D01*
X82760715Y-69726247D01*
X82782439Y-69742358D01*
X82802479Y-69760521D01*
X82820642Y-69780561D01*
X82836753Y-69802285D01*
X82850658Y-69825483D01*
X82862221Y-69849932D01*
X82871333Y-69875398D01*
X82877904Y-69901633D01*
X82881873Y-69928386D01*
X82883200Y-69955400D01*
X82883200Y-70506600D01*
X82881873Y-70533614D01*
X82877904Y-70560367D01*
X82871333Y-70586602D01*
X82862221Y-70612068D01*
X82850658Y-70636517D01*
X82836753Y-70659715D01*
X82820642Y-70681439D01*
X82802479Y-70701479D01*
X82782439Y-70719642D01*
X82760715Y-70735753D01*
X82737517Y-70749658D01*
X82713068Y-70761221D01*
X82687602Y-70770333D01*
X82661367Y-70776904D01*
X82634614Y-70780873D01*
X82607600Y-70782200D01*
X81956400Y-70782200D01*
X81929386Y-70780873D01*
X81902633Y-70776904D01*
X81876398Y-70770333D01*
X81850932Y-70761221D01*
X81826483Y-70749658D01*
X81803285Y-70735753D01*
X81781561Y-70719642D01*
X81761521Y-70701479D01*
X81743358Y-70681439D01*
X81727247Y-70659715D01*
X81713342Y-70636517D01*
X81701779Y-70612068D01*
X81692667Y-70586602D01*
X81686096Y-70560367D01*
X81682127Y-70533614D01*
X81680800Y-70506600D01*
X81680800Y-69955400D01*
X81682127Y-69928386D01*
X81686096Y-69901633D01*
X81692667Y-69875398D01*
X81701779Y-69849932D01*
X81713342Y-69825483D01*
X81727247Y-69802285D01*
X81743358Y-69780561D01*
X81761521Y-69760521D01*
X81781561Y-69742358D01*
X81803285Y-69726247D01*
X81826483Y-69712342D01*
X81850932Y-69700779D01*
X81876398Y-69691667D01*
X81902633Y-69685096D01*
X81929386Y-69681127D01*
X81956400Y-69679800D01*
X82607600Y-69679800D01*
X82634614Y-69681127D01*
X82634614Y-69681127D01*
G37*
D11*
X82282000Y-70231000D03*
G04 #@! TD*
D10*
G04 #@! TO.C,R14*
G36*
X87079614Y-69681127D02*
X87106367Y-69685096D01*
X87132602Y-69691667D01*
X87158068Y-69700779D01*
X87182517Y-69712342D01*
X87205715Y-69726247D01*
X87227439Y-69742358D01*
X87247479Y-69760521D01*
X87265642Y-69780561D01*
X87281753Y-69802285D01*
X87295658Y-69825483D01*
X87307221Y-69849932D01*
X87316333Y-69875398D01*
X87322904Y-69901633D01*
X87326873Y-69928386D01*
X87328200Y-69955400D01*
X87328200Y-70506600D01*
X87326873Y-70533614D01*
X87322904Y-70560367D01*
X87316333Y-70586602D01*
X87307221Y-70612068D01*
X87295658Y-70636517D01*
X87281753Y-70659715D01*
X87265642Y-70681439D01*
X87247479Y-70701479D01*
X87227439Y-70719642D01*
X87205715Y-70735753D01*
X87182517Y-70749658D01*
X87158068Y-70761221D01*
X87132602Y-70770333D01*
X87106367Y-70776904D01*
X87079614Y-70780873D01*
X87052600Y-70782200D01*
X86401400Y-70782200D01*
X86374386Y-70780873D01*
X86347633Y-70776904D01*
X86321398Y-70770333D01*
X86295932Y-70761221D01*
X86271483Y-70749658D01*
X86248285Y-70735753D01*
X86226561Y-70719642D01*
X86206521Y-70701479D01*
X86188358Y-70681439D01*
X86172247Y-70659715D01*
X86158342Y-70636517D01*
X86146779Y-70612068D01*
X86137667Y-70586602D01*
X86131096Y-70560367D01*
X86127127Y-70533614D01*
X86125800Y-70506600D01*
X86125800Y-69955400D01*
X86127127Y-69928386D01*
X86131096Y-69901633D01*
X86137667Y-69875398D01*
X86146779Y-69849932D01*
X86158342Y-69825483D01*
X86172247Y-69802285D01*
X86188358Y-69780561D01*
X86206521Y-69760521D01*
X86226561Y-69742358D01*
X86248285Y-69726247D01*
X86271483Y-69712342D01*
X86295932Y-69700779D01*
X86321398Y-69691667D01*
X86347633Y-69685096D01*
X86374386Y-69681127D01*
X86401400Y-69679800D01*
X87052600Y-69679800D01*
X87079614Y-69681127D01*
X87079614Y-69681127D01*
G37*
D11*
X86727000Y-70231000D03*
D10*
G36*
X85329614Y-69681127D02*
X85356367Y-69685096D01*
X85382602Y-69691667D01*
X85408068Y-69700779D01*
X85432517Y-69712342D01*
X85455715Y-69726247D01*
X85477439Y-69742358D01*
X85497479Y-69760521D01*
X85515642Y-69780561D01*
X85531753Y-69802285D01*
X85545658Y-69825483D01*
X85557221Y-69849932D01*
X85566333Y-69875398D01*
X85572904Y-69901633D01*
X85576873Y-69928386D01*
X85578200Y-69955400D01*
X85578200Y-70506600D01*
X85576873Y-70533614D01*
X85572904Y-70560367D01*
X85566333Y-70586602D01*
X85557221Y-70612068D01*
X85545658Y-70636517D01*
X85531753Y-70659715D01*
X85515642Y-70681439D01*
X85497479Y-70701479D01*
X85477439Y-70719642D01*
X85455715Y-70735753D01*
X85432517Y-70749658D01*
X85408068Y-70761221D01*
X85382602Y-70770333D01*
X85356367Y-70776904D01*
X85329614Y-70780873D01*
X85302600Y-70782200D01*
X84651400Y-70782200D01*
X84624386Y-70780873D01*
X84597633Y-70776904D01*
X84571398Y-70770333D01*
X84545932Y-70761221D01*
X84521483Y-70749658D01*
X84498285Y-70735753D01*
X84476561Y-70719642D01*
X84456521Y-70701479D01*
X84438358Y-70681439D01*
X84422247Y-70659715D01*
X84408342Y-70636517D01*
X84396779Y-70612068D01*
X84387667Y-70586602D01*
X84381096Y-70560367D01*
X84377127Y-70533614D01*
X84375800Y-70506600D01*
X84375800Y-69955400D01*
X84377127Y-69928386D01*
X84381096Y-69901633D01*
X84387667Y-69875398D01*
X84396779Y-69849932D01*
X84408342Y-69825483D01*
X84422247Y-69802285D01*
X84438358Y-69780561D01*
X84456521Y-69760521D01*
X84476561Y-69742358D01*
X84498285Y-69726247D01*
X84521483Y-69712342D01*
X84545932Y-69700779D01*
X84571398Y-69691667D01*
X84597633Y-69685096D01*
X84624386Y-69681127D01*
X84651400Y-69679800D01*
X85302600Y-69679800D01*
X85329614Y-69681127D01*
X85329614Y-69681127D01*
G37*
D11*
X84977000Y-70231000D03*
G04 #@! TD*
D20*
G04 #@! TO.C,Y1*
X85344000Y-137922000D03*
X85344000Y-133042000D03*
G04 #@! TD*
D21*
G04 #@! TO.C,J4*
X120269000Y-110967000D03*
X120269000Y-112967000D03*
X120269000Y-114967000D03*
D22*
X120269000Y-116967000D03*
G04 #@! TD*
G04 #@! TO.C,J6*
X120269000Y-99187000D03*
D21*
X120269000Y-97187000D03*
X120269000Y-95187000D03*
X120269000Y-93187000D03*
G04 #@! TD*
G04 #@! TO.C,J5*
X155893000Y-127762000D03*
X157893000Y-127762000D03*
D22*
X159893000Y-127762000D03*
G04 #@! TD*
G04 #@! TO.C,J10*
X159893000Y-122555000D03*
D21*
X157893000Y-122555000D03*
X155893000Y-122555000D03*
G04 #@! TD*
G04 #@! TO.C,J11*
X155893000Y-117348000D03*
X157893000Y-117348000D03*
D22*
X159893000Y-117348000D03*
G04 #@! TD*
G04 #@! TO.C,J12*
X159893000Y-112141000D03*
D21*
X157893000Y-112141000D03*
X155893000Y-112141000D03*
G04 #@! TD*
G04 #@! TO.C,J13*
X155893000Y-106934000D03*
X157893000Y-106934000D03*
D22*
X159893000Y-106934000D03*
G04 #@! TD*
G04 #@! TO.C,J14*
X159893000Y-101727000D03*
D21*
X157893000Y-101727000D03*
X155893000Y-101727000D03*
G04 #@! TD*
G04 #@! TO.C,J15*
X155893000Y-96520000D03*
X157893000Y-96520000D03*
D22*
X159893000Y-96520000D03*
G04 #@! TD*
G04 #@! TO.C,J16*
X159893000Y-91313000D03*
D21*
X157893000Y-91313000D03*
X155893000Y-91313000D03*
G04 #@! TD*
D10*
G04 #@! TO.C,R3*
G36*
X110157614Y-127515127D02*
X110184367Y-127519096D01*
X110210602Y-127525667D01*
X110236068Y-127534779D01*
X110260517Y-127546342D01*
X110283715Y-127560247D01*
X110305439Y-127576358D01*
X110325479Y-127594521D01*
X110343642Y-127614561D01*
X110359753Y-127636285D01*
X110373658Y-127659483D01*
X110385221Y-127683932D01*
X110394333Y-127709398D01*
X110400904Y-127735633D01*
X110404873Y-127762386D01*
X110406200Y-127789400D01*
X110406200Y-128440600D01*
X110404873Y-128467614D01*
X110400904Y-128494367D01*
X110394333Y-128520602D01*
X110385221Y-128546068D01*
X110373658Y-128570517D01*
X110359753Y-128593715D01*
X110343642Y-128615439D01*
X110325479Y-128635479D01*
X110305439Y-128653642D01*
X110283715Y-128669753D01*
X110260517Y-128683658D01*
X110236068Y-128695221D01*
X110210602Y-128704333D01*
X110184367Y-128710904D01*
X110157614Y-128714873D01*
X110130600Y-128716200D01*
X109579400Y-128716200D01*
X109552386Y-128714873D01*
X109525633Y-128710904D01*
X109499398Y-128704333D01*
X109473932Y-128695221D01*
X109449483Y-128683658D01*
X109426285Y-128669753D01*
X109404561Y-128653642D01*
X109384521Y-128635479D01*
X109366358Y-128615439D01*
X109350247Y-128593715D01*
X109336342Y-128570517D01*
X109324779Y-128546068D01*
X109315667Y-128520602D01*
X109309096Y-128494367D01*
X109305127Y-128467614D01*
X109303800Y-128440600D01*
X109303800Y-127789400D01*
X109305127Y-127762386D01*
X109309096Y-127735633D01*
X109315667Y-127709398D01*
X109324779Y-127683932D01*
X109336342Y-127659483D01*
X109350247Y-127636285D01*
X109366358Y-127614561D01*
X109384521Y-127594521D01*
X109404561Y-127576358D01*
X109426285Y-127560247D01*
X109449483Y-127546342D01*
X109473932Y-127534779D01*
X109499398Y-127525667D01*
X109525633Y-127519096D01*
X109552386Y-127515127D01*
X109579400Y-127513800D01*
X110130600Y-127513800D01*
X110157614Y-127515127D01*
X110157614Y-127515127D01*
G37*
D11*
X109855000Y-128115000D03*
D10*
G36*
X110157614Y-125765127D02*
X110184367Y-125769096D01*
X110210602Y-125775667D01*
X110236068Y-125784779D01*
X110260517Y-125796342D01*
X110283715Y-125810247D01*
X110305439Y-125826358D01*
X110325479Y-125844521D01*
X110343642Y-125864561D01*
X110359753Y-125886285D01*
X110373658Y-125909483D01*
X110385221Y-125933932D01*
X110394333Y-125959398D01*
X110400904Y-125985633D01*
X110404873Y-126012386D01*
X110406200Y-126039400D01*
X110406200Y-126690600D01*
X110404873Y-126717614D01*
X110400904Y-126744367D01*
X110394333Y-126770602D01*
X110385221Y-126796068D01*
X110373658Y-126820517D01*
X110359753Y-126843715D01*
X110343642Y-126865439D01*
X110325479Y-126885479D01*
X110305439Y-126903642D01*
X110283715Y-126919753D01*
X110260517Y-126933658D01*
X110236068Y-126945221D01*
X110210602Y-126954333D01*
X110184367Y-126960904D01*
X110157614Y-126964873D01*
X110130600Y-126966200D01*
X109579400Y-126966200D01*
X109552386Y-126964873D01*
X109525633Y-126960904D01*
X109499398Y-126954333D01*
X109473932Y-126945221D01*
X109449483Y-126933658D01*
X109426285Y-126919753D01*
X109404561Y-126903642D01*
X109384521Y-126885479D01*
X109366358Y-126865439D01*
X109350247Y-126843715D01*
X109336342Y-126820517D01*
X109324779Y-126796068D01*
X109315667Y-126770602D01*
X109309096Y-126744367D01*
X109305127Y-126717614D01*
X109303800Y-126690600D01*
X109303800Y-126039400D01*
X109305127Y-126012386D01*
X109309096Y-125985633D01*
X109315667Y-125959398D01*
X109324779Y-125933932D01*
X109336342Y-125909483D01*
X109350247Y-125886285D01*
X109366358Y-125864561D01*
X109384521Y-125844521D01*
X109404561Y-125826358D01*
X109426285Y-125810247D01*
X109449483Y-125796342D01*
X109473932Y-125784779D01*
X109499398Y-125775667D01*
X109525633Y-125769096D01*
X109552386Y-125765127D01*
X109579400Y-125763800D01*
X110130600Y-125763800D01*
X110157614Y-125765127D01*
X110157614Y-125765127D01*
G37*
D11*
X109855000Y-126365000D03*
G04 #@! TD*
D10*
G04 #@! TO.C,R4*
G36*
X112062614Y-125765127D02*
X112089367Y-125769096D01*
X112115602Y-125775667D01*
X112141068Y-125784779D01*
X112165517Y-125796342D01*
X112188715Y-125810247D01*
X112210439Y-125826358D01*
X112230479Y-125844521D01*
X112248642Y-125864561D01*
X112264753Y-125886285D01*
X112278658Y-125909483D01*
X112290221Y-125933932D01*
X112299333Y-125959398D01*
X112305904Y-125985633D01*
X112309873Y-126012386D01*
X112311200Y-126039400D01*
X112311200Y-126690600D01*
X112309873Y-126717614D01*
X112305904Y-126744367D01*
X112299333Y-126770602D01*
X112290221Y-126796068D01*
X112278658Y-126820517D01*
X112264753Y-126843715D01*
X112248642Y-126865439D01*
X112230479Y-126885479D01*
X112210439Y-126903642D01*
X112188715Y-126919753D01*
X112165517Y-126933658D01*
X112141068Y-126945221D01*
X112115602Y-126954333D01*
X112089367Y-126960904D01*
X112062614Y-126964873D01*
X112035600Y-126966200D01*
X111484400Y-126966200D01*
X111457386Y-126964873D01*
X111430633Y-126960904D01*
X111404398Y-126954333D01*
X111378932Y-126945221D01*
X111354483Y-126933658D01*
X111331285Y-126919753D01*
X111309561Y-126903642D01*
X111289521Y-126885479D01*
X111271358Y-126865439D01*
X111255247Y-126843715D01*
X111241342Y-126820517D01*
X111229779Y-126796068D01*
X111220667Y-126770602D01*
X111214096Y-126744367D01*
X111210127Y-126717614D01*
X111208800Y-126690600D01*
X111208800Y-126039400D01*
X111210127Y-126012386D01*
X111214096Y-125985633D01*
X111220667Y-125959398D01*
X111229779Y-125933932D01*
X111241342Y-125909483D01*
X111255247Y-125886285D01*
X111271358Y-125864561D01*
X111289521Y-125844521D01*
X111309561Y-125826358D01*
X111331285Y-125810247D01*
X111354483Y-125796342D01*
X111378932Y-125784779D01*
X111404398Y-125775667D01*
X111430633Y-125769096D01*
X111457386Y-125765127D01*
X111484400Y-125763800D01*
X112035600Y-125763800D01*
X112062614Y-125765127D01*
X112062614Y-125765127D01*
G37*
D11*
X111760000Y-126365000D03*
D10*
G36*
X112062614Y-127515127D02*
X112089367Y-127519096D01*
X112115602Y-127525667D01*
X112141068Y-127534779D01*
X112165517Y-127546342D01*
X112188715Y-127560247D01*
X112210439Y-127576358D01*
X112230479Y-127594521D01*
X112248642Y-127614561D01*
X112264753Y-127636285D01*
X112278658Y-127659483D01*
X112290221Y-127683932D01*
X112299333Y-127709398D01*
X112305904Y-127735633D01*
X112309873Y-127762386D01*
X112311200Y-127789400D01*
X112311200Y-128440600D01*
X112309873Y-128467614D01*
X112305904Y-128494367D01*
X112299333Y-128520602D01*
X112290221Y-128546068D01*
X112278658Y-128570517D01*
X112264753Y-128593715D01*
X112248642Y-128615439D01*
X112230479Y-128635479D01*
X112210439Y-128653642D01*
X112188715Y-128669753D01*
X112165517Y-128683658D01*
X112141068Y-128695221D01*
X112115602Y-128704333D01*
X112089367Y-128710904D01*
X112062614Y-128714873D01*
X112035600Y-128716200D01*
X111484400Y-128716200D01*
X111457386Y-128714873D01*
X111430633Y-128710904D01*
X111404398Y-128704333D01*
X111378932Y-128695221D01*
X111354483Y-128683658D01*
X111331285Y-128669753D01*
X111309561Y-128653642D01*
X111289521Y-128635479D01*
X111271358Y-128615439D01*
X111255247Y-128593715D01*
X111241342Y-128570517D01*
X111229779Y-128546068D01*
X111220667Y-128520602D01*
X111214096Y-128494367D01*
X111210127Y-128467614D01*
X111208800Y-128440600D01*
X111208800Y-127789400D01*
X111210127Y-127762386D01*
X111214096Y-127735633D01*
X111220667Y-127709398D01*
X111229779Y-127683932D01*
X111241342Y-127659483D01*
X111255247Y-127636285D01*
X111271358Y-127614561D01*
X111289521Y-127594521D01*
X111309561Y-127576358D01*
X111331285Y-127560247D01*
X111354483Y-127546342D01*
X111378932Y-127534779D01*
X111404398Y-127525667D01*
X111430633Y-127519096D01*
X111457386Y-127515127D01*
X111484400Y-127513800D01*
X112035600Y-127513800D01*
X112062614Y-127515127D01*
X112062614Y-127515127D01*
G37*
D11*
X111760000Y-128115000D03*
G04 #@! TD*
D23*
G04 #@! TO.C,REF\002A\002A*
X143510000Y-62738000D03*
G04 #@! TD*
G04 #@! TO.C,REF\002A\002A*
X60960000Y-62738000D03*
G04 #@! TD*
G04 #@! TO.C,REF\002A\002A*
X143510000Y-138938000D03*
G04 #@! TD*
G04 #@! TO.C,REF\002A\002A*
X60960000Y-138938000D03*
G04 #@! TD*
D12*
G04 #@! TO.C,J3*
X54356000Y-76708000D03*
D24*
X54356000Y-79208000D03*
X52356000Y-79208000D03*
X52356000Y-76708000D03*
D25*
X49646000Y-71938000D03*
X49646000Y-83978000D03*
G04 #@! TD*
D15*
G04 #@! TO.C,J8*
X65024000Y-51054000D03*
D16*
X77724000Y-51054000D03*
G04 #@! TD*
D10*
G04 #@! TO.C,C17*
G36*
X96872614Y-132800127D02*
X96899367Y-132804096D01*
X96925602Y-132810667D01*
X96951068Y-132819779D01*
X96975517Y-132831342D01*
X96998715Y-132845247D01*
X97020439Y-132861358D01*
X97040479Y-132879521D01*
X97058642Y-132899561D01*
X97074753Y-132921285D01*
X97088658Y-132944483D01*
X97100221Y-132968932D01*
X97109333Y-132994398D01*
X97115904Y-133020633D01*
X97119873Y-133047386D01*
X97121200Y-133074400D01*
X97121200Y-133625600D01*
X97119873Y-133652614D01*
X97115904Y-133679367D01*
X97109333Y-133705602D01*
X97100221Y-133731068D01*
X97088658Y-133755517D01*
X97074753Y-133778715D01*
X97058642Y-133800439D01*
X97040479Y-133820479D01*
X97020439Y-133838642D01*
X96998715Y-133854753D01*
X96975517Y-133868658D01*
X96951068Y-133880221D01*
X96925602Y-133889333D01*
X96899367Y-133895904D01*
X96872614Y-133899873D01*
X96845600Y-133901200D01*
X96194400Y-133901200D01*
X96167386Y-133899873D01*
X96140633Y-133895904D01*
X96114398Y-133889333D01*
X96088932Y-133880221D01*
X96064483Y-133868658D01*
X96041285Y-133854753D01*
X96019561Y-133838642D01*
X95999521Y-133820479D01*
X95981358Y-133800439D01*
X95965247Y-133778715D01*
X95951342Y-133755517D01*
X95939779Y-133731068D01*
X95930667Y-133705602D01*
X95924096Y-133679367D01*
X95920127Y-133652614D01*
X95918800Y-133625600D01*
X95918800Y-133074400D01*
X95920127Y-133047386D01*
X95924096Y-133020633D01*
X95930667Y-132994398D01*
X95939779Y-132968932D01*
X95951342Y-132944483D01*
X95965247Y-132921285D01*
X95981358Y-132899561D01*
X95999521Y-132879521D01*
X96019561Y-132861358D01*
X96041285Y-132845247D01*
X96064483Y-132831342D01*
X96088932Y-132819779D01*
X96114398Y-132810667D01*
X96140633Y-132804096D01*
X96167386Y-132800127D01*
X96194400Y-132798800D01*
X96845600Y-132798800D01*
X96872614Y-132800127D01*
X96872614Y-132800127D01*
G37*
D11*
X96520000Y-133350000D03*
D10*
G36*
X98622614Y-132800127D02*
X98649367Y-132804096D01*
X98675602Y-132810667D01*
X98701068Y-132819779D01*
X98725517Y-132831342D01*
X98748715Y-132845247D01*
X98770439Y-132861358D01*
X98790479Y-132879521D01*
X98808642Y-132899561D01*
X98824753Y-132921285D01*
X98838658Y-132944483D01*
X98850221Y-132968932D01*
X98859333Y-132994398D01*
X98865904Y-133020633D01*
X98869873Y-133047386D01*
X98871200Y-133074400D01*
X98871200Y-133625600D01*
X98869873Y-133652614D01*
X98865904Y-133679367D01*
X98859333Y-133705602D01*
X98850221Y-133731068D01*
X98838658Y-133755517D01*
X98824753Y-133778715D01*
X98808642Y-133800439D01*
X98790479Y-133820479D01*
X98770439Y-133838642D01*
X98748715Y-133854753D01*
X98725517Y-133868658D01*
X98701068Y-133880221D01*
X98675602Y-133889333D01*
X98649367Y-133895904D01*
X98622614Y-133899873D01*
X98595600Y-133901200D01*
X97944400Y-133901200D01*
X97917386Y-133899873D01*
X97890633Y-133895904D01*
X97864398Y-133889333D01*
X97838932Y-133880221D01*
X97814483Y-133868658D01*
X97791285Y-133854753D01*
X97769561Y-133838642D01*
X97749521Y-133820479D01*
X97731358Y-133800439D01*
X97715247Y-133778715D01*
X97701342Y-133755517D01*
X97689779Y-133731068D01*
X97680667Y-133705602D01*
X97674096Y-133679367D01*
X97670127Y-133652614D01*
X97668800Y-133625600D01*
X97668800Y-133074400D01*
X97670127Y-133047386D01*
X97674096Y-133020633D01*
X97680667Y-132994398D01*
X97689779Y-132968932D01*
X97701342Y-132944483D01*
X97715247Y-132921285D01*
X97731358Y-132899561D01*
X97749521Y-132879521D01*
X97769561Y-132861358D01*
X97791285Y-132845247D01*
X97814483Y-132831342D01*
X97838932Y-132819779D01*
X97864398Y-132810667D01*
X97890633Y-132804096D01*
X97917386Y-132800127D01*
X97944400Y-132798800D01*
X98595600Y-132798800D01*
X98622614Y-132800127D01*
X98622614Y-132800127D01*
G37*
D11*
X98270000Y-133350000D03*
G04 #@! TD*
D22*
G04 #@! TO.C,J9*
X139192000Y-88138000D03*
D21*
X139192000Y-90138000D03*
X139192000Y-92138000D03*
X139192000Y-94138000D03*
X139192000Y-96138000D03*
X139192000Y-98138000D03*
G04 #@! TD*
D13*
G04 #@! TO.C,J17*
X60960000Y-85598000D03*
D12*
X63500000Y-85598000D03*
G04 #@! TD*
G04 #@! TO.C,J18*
X63500000Y-96266000D03*
D13*
X60960000Y-96266000D03*
G04 #@! TD*
D10*
G04 #@! TO.C,D8*
G36*
X82394614Y-61172127D02*
X82421367Y-61176096D01*
X82447602Y-61182667D01*
X82473068Y-61191779D01*
X82497517Y-61203342D01*
X82520715Y-61217247D01*
X82542439Y-61233358D01*
X82562479Y-61251521D01*
X82580642Y-61271561D01*
X82596753Y-61293285D01*
X82610658Y-61316483D01*
X82622221Y-61340932D01*
X82631333Y-61366398D01*
X82637904Y-61392633D01*
X82641873Y-61419386D01*
X82643200Y-61446400D01*
X82643200Y-61997600D01*
X82641873Y-62024614D01*
X82637904Y-62051367D01*
X82631333Y-62077602D01*
X82622221Y-62103068D01*
X82610658Y-62127517D01*
X82596753Y-62150715D01*
X82580642Y-62172439D01*
X82562479Y-62192479D01*
X82542439Y-62210642D01*
X82520715Y-62226753D01*
X82497517Y-62240658D01*
X82473068Y-62252221D01*
X82447602Y-62261333D01*
X82421367Y-62267904D01*
X82394614Y-62271873D01*
X82367600Y-62273200D01*
X81716400Y-62273200D01*
X81689386Y-62271873D01*
X81662633Y-62267904D01*
X81636398Y-62261333D01*
X81610932Y-62252221D01*
X81586483Y-62240658D01*
X81563285Y-62226753D01*
X81541561Y-62210642D01*
X81521521Y-62192479D01*
X81503358Y-62172439D01*
X81487247Y-62150715D01*
X81473342Y-62127517D01*
X81461779Y-62103068D01*
X81452667Y-62077602D01*
X81446096Y-62051367D01*
X81442127Y-62024614D01*
X81440800Y-61997600D01*
X81440800Y-61446400D01*
X81442127Y-61419386D01*
X81446096Y-61392633D01*
X81452667Y-61366398D01*
X81461779Y-61340932D01*
X81473342Y-61316483D01*
X81487247Y-61293285D01*
X81503358Y-61271561D01*
X81521521Y-61251521D01*
X81541561Y-61233358D01*
X81563285Y-61217247D01*
X81586483Y-61203342D01*
X81610932Y-61191779D01*
X81636398Y-61182667D01*
X81662633Y-61176096D01*
X81689386Y-61172127D01*
X81716400Y-61170800D01*
X82367600Y-61170800D01*
X82394614Y-61172127D01*
X82394614Y-61172127D01*
G37*
D11*
X82042000Y-61722000D03*
D10*
G36*
X84144614Y-61172127D02*
X84171367Y-61176096D01*
X84197602Y-61182667D01*
X84223068Y-61191779D01*
X84247517Y-61203342D01*
X84270715Y-61217247D01*
X84292439Y-61233358D01*
X84312479Y-61251521D01*
X84330642Y-61271561D01*
X84346753Y-61293285D01*
X84360658Y-61316483D01*
X84372221Y-61340932D01*
X84381333Y-61366398D01*
X84387904Y-61392633D01*
X84391873Y-61419386D01*
X84393200Y-61446400D01*
X84393200Y-61997600D01*
X84391873Y-62024614D01*
X84387904Y-62051367D01*
X84381333Y-62077602D01*
X84372221Y-62103068D01*
X84360658Y-62127517D01*
X84346753Y-62150715D01*
X84330642Y-62172439D01*
X84312479Y-62192479D01*
X84292439Y-62210642D01*
X84270715Y-62226753D01*
X84247517Y-62240658D01*
X84223068Y-62252221D01*
X84197602Y-62261333D01*
X84171367Y-62267904D01*
X84144614Y-62271873D01*
X84117600Y-62273200D01*
X83466400Y-62273200D01*
X83439386Y-62271873D01*
X83412633Y-62267904D01*
X83386398Y-62261333D01*
X83360932Y-62252221D01*
X83336483Y-62240658D01*
X83313285Y-62226753D01*
X83291561Y-62210642D01*
X83271521Y-62192479D01*
X83253358Y-62172439D01*
X83237247Y-62150715D01*
X83223342Y-62127517D01*
X83211779Y-62103068D01*
X83202667Y-62077602D01*
X83196096Y-62051367D01*
X83192127Y-62024614D01*
X83190800Y-61997600D01*
X83190800Y-61446400D01*
X83192127Y-61419386D01*
X83196096Y-61392633D01*
X83202667Y-61366398D01*
X83211779Y-61340932D01*
X83223342Y-61316483D01*
X83237247Y-61293285D01*
X83253358Y-61271561D01*
X83271521Y-61251521D01*
X83291561Y-61233358D01*
X83313285Y-61217247D01*
X83336483Y-61203342D01*
X83360932Y-61191779D01*
X83386398Y-61182667D01*
X83412633Y-61176096D01*
X83439386Y-61172127D01*
X83466400Y-61170800D01*
X84117600Y-61170800D01*
X84144614Y-61172127D01*
X84144614Y-61172127D01*
G37*
D11*
X83792000Y-61722000D03*
G04 #@! TD*
D10*
G04 #@! TO.C,R6*
G36*
X90494614Y-61172127D02*
X90521367Y-61176096D01*
X90547602Y-61182667D01*
X90573068Y-61191779D01*
X90597517Y-61203342D01*
X90620715Y-61217247D01*
X90642439Y-61233358D01*
X90662479Y-61251521D01*
X90680642Y-61271561D01*
X90696753Y-61293285D01*
X90710658Y-61316483D01*
X90722221Y-61340932D01*
X90731333Y-61366398D01*
X90737904Y-61392633D01*
X90741873Y-61419386D01*
X90743200Y-61446400D01*
X90743200Y-61997600D01*
X90741873Y-62024614D01*
X90737904Y-62051367D01*
X90731333Y-62077602D01*
X90722221Y-62103068D01*
X90710658Y-62127517D01*
X90696753Y-62150715D01*
X90680642Y-62172439D01*
X90662479Y-62192479D01*
X90642439Y-62210642D01*
X90620715Y-62226753D01*
X90597517Y-62240658D01*
X90573068Y-62252221D01*
X90547602Y-62261333D01*
X90521367Y-62267904D01*
X90494614Y-62271873D01*
X90467600Y-62273200D01*
X89816400Y-62273200D01*
X89789386Y-62271873D01*
X89762633Y-62267904D01*
X89736398Y-62261333D01*
X89710932Y-62252221D01*
X89686483Y-62240658D01*
X89663285Y-62226753D01*
X89641561Y-62210642D01*
X89621521Y-62192479D01*
X89603358Y-62172439D01*
X89587247Y-62150715D01*
X89573342Y-62127517D01*
X89561779Y-62103068D01*
X89552667Y-62077602D01*
X89546096Y-62051367D01*
X89542127Y-62024614D01*
X89540800Y-61997600D01*
X89540800Y-61446400D01*
X89542127Y-61419386D01*
X89546096Y-61392633D01*
X89552667Y-61366398D01*
X89561779Y-61340932D01*
X89573342Y-61316483D01*
X89587247Y-61293285D01*
X89603358Y-61271561D01*
X89621521Y-61251521D01*
X89641561Y-61233358D01*
X89663285Y-61217247D01*
X89686483Y-61203342D01*
X89710932Y-61191779D01*
X89736398Y-61182667D01*
X89762633Y-61176096D01*
X89789386Y-61172127D01*
X89816400Y-61170800D01*
X90467600Y-61170800D01*
X90494614Y-61172127D01*
X90494614Y-61172127D01*
G37*
D11*
X90142000Y-61722000D03*
D10*
G36*
X88744614Y-61172127D02*
X88771367Y-61176096D01*
X88797602Y-61182667D01*
X88823068Y-61191779D01*
X88847517Y-61203342D01*
X88870715Y-61217247D01*
X88892439Y-61233358D01*
X88912479Y-61251521D01*
X88930642Y-61271561D01*
X88946753Y-61293285D01*
X88960658Y-61316483D01*
X88972221Y-61340932D01*
X88981333Y-61366398D01*
X88987904Y-61392633D01*
X88991873Y-61419386D01*
X88993200Y-61446400D01*
X88993200Y-61997600D01*
X88991873Y-62024614D01*
X88987904Y-62051367D01*
X88981333Y-62077602D01*
X88972221Y-62103068D01*
X88960658Y-62127517D01*
X88946753Y-62150715D01*
X88930642Y-62172439D01*
X88912479Y-62192479D01*
X88892439Y-62210642D01*
X88870715Y-62226753D01*
X88847517Y-62240658D01*
X88823068Y-62252221D01*
X88797602Y-62261333D01*
X88771367Y-62267904D01*
X88744614Y-62271873D01*
X88717600Y-62273200D01*
X88066400Y-62273200D01*
X88039386Y-62271873D01*
X88012633Y-62267904D01*
X87986398Y-62261333D01*
X87960932Y-62252221D01*
X87936483Y-62240658D01*
X87913285Y-62226753D01*
X87891561Y-62210642D01*
X87871521Y-62192479D01*
X87853358Y-62172439D01*
X87837247Y-62150715D01*
X87823342Y-62127517D01*
X87811779Y-62103068D01*
X87802667Y-62077602D01*
X87796096Y-62051367D01*
X87792127Y-62024614D01*
X87790800Y-61997600D01*
X87790800Y-61446400D01*
X87792127Y-61419386D01*
X87796096Y-61392633D01*
X87802667Y-61366398D01*
X87811779Y-61340932D01*
X87823342Y-61316483D01*
X87837247Y-61293285D01*
X87853358Y-61271561D01*
X87871521Y-61251521D01*
X87891561Y-61233358D01*
X87913285Y-61217247D01*
X87936483Y-61203342D01*
X87960932Y-61191779D01*
X87986398Y-61182667D01*
X88012633Y-61176096D01*
X88039386Y-61172127D01*
X88066400Y-61170800D01*
X88717600Y-61170800D01*
X88744614Y-61172127D01*
X88744614Y-61172127D01*
G37*
D11*
X88392000Y-61722000D03*
G04 #@! TD*
M02*
